G04 #@! TF.GenerationSoftware,KiCad,Pcbnew,(5.1.0-0)*
G04 #@! TF.CreationDate,2019-11-06T16:52:03-05:00*
G04 #@! TF.ProjectId,GrBLDC,4772424c-4443-42e6-9b69-6361645f7063,rev?*
G04 #@! TF.SameCoordinates,PX5a7646cPY8128a60*
G04 #@! TF.FileFunction,Soldermask,Bot*
G04 #@! TF.FilePolarity,Negative*
%FSLAX46Y46*%
G04 Gerber Fmt 4.6, Leading zero omitted, Abs format (unit mm)*
G04 Created by KiCad (PCBNEW (5.1.0-0)) date 2019-11-06 16:52:03*
%MOMM*%
%LPD*%
G04 APERTURE LIST*
%ADD10C,0.500000*%
%ADD11R,1.397000X1.397000*%
%ADD12C,1.397000*%
%ADD13C,2.000000*%
%ADD14C,2.500000*%
%ADD15R,1.727200X2.032000*%
%ADD16O,1.727200X2.032000*%
%ADD17O,1.700000X1.700000*%
%ADD18R,1.700000X1.700000*%
%ADD19C,1.000000*%
%ADD20R,1.000000X1.000000*%
G04 APERTURE END LIST*
D10*
X84630900Y26575200D03*
X85930900Y26575200D03*
X84630900Y27875200D03*
X87230900Y27875200D03*
X85930900Y27875200D03*
X84630900Y29175200D03*
X87230900Y29175200D03*
X85930900Y29175200D03*
X87230900Y34375200D03*
X84630900Y34375200D03*
X85930900Y34375200D03*
X87230900Y33075200D03*
X84630900Y33075200D03*
X85930900Y33075200D03*
X84630900Y31775200D03*
X87230900Y31775200D03*
X85930900Y31775200D03*
X84630900Y30475200D03*
X87230900Y30475200D03*
X87230900Y26575200D03*
X85930900Y30475200D03*
D11*
X27571700Y3860800D03*
D12*
X30111700Y3860800D03*
X32651700Y3860800D03*
X35191700Y3860800D03*
X37731700Y3860800D03*
X40271700Y3860800D03*
X42811700Y3860800D03*
X45351700Y3860800D03*
D10*
X84628200Y45701400D03*
X85928200Y45701400D03*
X84628200Y47001400D03*
X87228200Y47001400D03*
X85928200Y47001400D03*
X84628200Y48301400D03*
X87228200Y48301400D03*
X85928200Y48301400D03*
X87228200Y53501400D03*
X84628200Y53501400D03*
X85928200Y53501400D03*
X87228200Y52201400D03*
X84628200Y52201400D03*
X85928200Y52201400D03*
X84628200Y50901400D03*
X87228200Y50901400D03*
X85928200Y50901400D03*
X84628200Y49601400D03*
X87228200Y49601400D03*
X87228200Y45701400D03*
X85928200Y49601400D03*
X84625800Y7372800D03*
X85925800Y7372800D03*
X84625800Y8672800D03*
X87225800Y8672800D03*
X85925800Y8672800D03*
X84625800Y9972800D03*
X87225800Y9972800D03*
X85925800Y9972800D03*
X87225800Y15172800D03*
X84625800Y15172800D03*
X85925800Y15172800D03*
X87225800Y13872800D03*
X84625800Y13872800D03*
X85925800Y13872800D03*
X84625800Y12572800D03*
X87225800Y12572800D03*
X85925800Y12572800D03*
X84625800Y11272800D03*
X87225800Y11272800D03*
X87225800Y7372800D03*
X85925800Y11272800D03*
X53313780Y36263100D03*
X53313780Y34963100D03*
X54613780Y36263100D03*
X54613780Y33663100D03*
X54613780Y34963100D03*
X55913780Y36263100D03*
X55913780Y33663100D03*
X55913780Y34963100D03*
X61113780Y33663100D03*
X61113780Y36263100D03*
X61113780Y34963100D03*
X59813780Y33663100D03*
X59813780Y36263100D03*
X59813780Y34963100D03*
X58513780Y36263100D03*
X58513780Y33663100D03*
X58513780Y34963100D03*
X57213780Y36263100D03*
X57213780Y33663100D03*
X53313780Y33663100D03*
X57213780Y34963100D03*
D11*
X50431700Y3860800D03*
D12*
X52971700Y3860800D03*
X55511700Y3860800D03*
X58051700Y3860800D03*
X60591700Y3860800D03*
X63131700Y3860800D03*
D11*
X18732500Y54940200D03*
D12*
X21272500Y54940200D03*
X23812500Y54940200D03*
X26352500Y54940200D03*
X28892500Y54940200D03*
X31432500Y54940200D03*
X33972500Y54940200D03*
X36512500Y54940200D03*
X39052500Y54940200D03*
D11*
X23507700Y52120800D03*
D12*
X26047700Y52120800D03*
X28587700Y52120800D03*
X31127700Y52120800D03*
X33667700Y52120800D03*
X36207700Y52120800D03*
X38747700Y52120800D03*
X41287700Y52120800D03*
D11*
X45351700Y52120800D03*
D12*
X47891700Y52120800D03*
X50431700Y52120800D03*
X52971700Y52120800D03*
X55511700Y52120800D03*
X58051700Y52120800D03*
X60591700Y52120800D03*
X63131700Y52120800D03*
D11*
X18270000Y45230000D03*
D12*
X18270000Y47770000D03*
D13*
X98729800Y12545300D03*
X98729800Y15085300D03*
X98729800Y10005300D03*
X98729800Y7465300D03*
X98823780Y49959260D03*
X98823780Y52499260D03*
X98823780Y47419260D03*
X98823780Y44879260D03*
X98795840Y31742380D03*
X98795840Y34282380D03*
X98795840Y29202380D03*
X98795840Y26662380D03*
D14*
X13695700Y54533800D03*
X8695700Y54533800D03*
X3695700Y54533800D03*
X28257500Y18503900D03*
X28257500Y22003900D03*
X28257500Y25503900D03*
D15*
X55500000Y6610000D03*
D16*
X58040000Y6610000D03*
X60580000Y6610000D03*
D17*
X52578000Y17272000D03*
X55118000Y17272000D03*
X52578000Y14732000D03*
X55118000Y14732000D03*
X52578000Y12192000D03*
D18*
X55118000Y12192000D03*
X56720000Y21470000D03*
D17*
X56720000Y24010000D03*
X59260000Y21470000D03*
X59260000Y24010000D03*
D18*
X49200000Y54950000D03*
D17*
X51740000Y54950000D03*
X54280000Y54950000D03*
D19*
X49085500Y8445500D03*
X49085500Y10452100D03*
X49080000Y12450000D03*
D20*
X49085500Y6438900D03*
D18*
X63510000Y13630000D03*
D17*
X63510000Y16170000D03*
X63510000Y18710000D03*
X63510000Y21250000D03*
X63510000Y23790000D03*
M02*
