G04 #@! TF.GenerationSoftware,KiCad,Pcbnew,(5.1.0-0)*
G04 #@! TF.CreationDate,2019-11-06T16:52:03-05:00*
G04 #@! TF.ProjectId,GrBLDC,4772424c-4443-42e6-9b69-6361645f7063,rev?*
G04 #@! TF.SameCoordinates,PX5a7646cPY8128a60*
G04 #@! TF.FileFunction,Soldermask,Top*
G04 #@! TF.FilePolarity,Negative*
%FSLAX46Y46*%
G04 Gerber Fmt 4.6, Leading zero omitted, Abs format (unit mm)*
G04 Created by KiCad (PCBNEW (5.1.0-0)) date 2019-11-06 16:52:03*
%MOMM*%
%LPD*%
G04 APERTURE LIST*
%ADD10C,0.500000*%
%ADD11R,1.740000X0.440000*%
%ADD12R,1.600000X0.300000*%
%ADD13R,2.400000X6.460000*%
%ADD14R,1.397000X1.397000*%
%ADD15C,1.397000*%
%ADD16R,0.750000X0.800000*%
%ADD17R,9.000000X1.400000*%
%ADD18C,0.150000*%
%ADD19C,0.875000*%
%ADD20R,1.600000X1.000000*%
%ADD21R,0.800000X0.750000*%
%ADD22R,1.000000X1.600000*%
%ADD23R,2.400300X4.000500*%
%ADD24R,0.500000X0.900000*%
%ADD25R,0.900000X0.500000*%
%ADD26R,0.440000X1.740000*%
%ADD27R,0.300000X1.600000*%
%ADD28R,6.460000X2.400000*%
%ADD29C,0.889000*%
%ADD30R,1.080000X0.450000*%
%ADD31R,0.650000X0.450000*%
%ADD32R,3.540000X4.260000*%
%ADD33R,0.900000X1.700000*%
%ADD34C,2.000000*%
%ADD35R,3.599180X1.600200*%
%ADD36C,2.500000*%
%ADD37R,1.727200X2.032000*%
%ADD38O,1.727200X2.032000*%
%ADD39R,1.600000X0.550000*%
%ADD40R,0.550000X1.600000*%
%ADD41C,0.800000*%
%ADD42C,0.750000*%
%ADD43R,0.800100X0.800100*%
%ADD44R,1.700000X0.900000*%
%ADD45O,1.700000X1.700000*%
%ADD46R,1.700000X1.700000*%
%ADD47R,0.300000X1.700000*%
%ADD48R,1.700000X0.300000*%
%ADD49R,5.000000X5.000000*%
%ADD50R,0.900000X1.200000*%
G04 APERTURE END LIST*
D10*
X84630900Y26575200D03*
X85930900Y26575200D03*
X84630900Y27875200D03*
X87230900Y27875200D03*
X85930900Y27875200D03*
X84630900Y29175200D03*
X87230900Y29175200D03*
X85930900Y29175200D03*
X87230900Y34375200D03*
X84630900Y34375200D03*
X85930900Y34375200D03*
X87230900Y33075200D03*
X84630900Y33075200D03*
X85930900Y33075200D03*
X84630900Y31775200D03*
X87230900Y31775200D03*
X85930900Y31775200D03*
X84630900Y30475200D03*
X87230900Y30475200D03*
X87230900Y26575200D03*
X85930900Y30475200D03*
D11*
X88730900Y30175200D03*
X88730900Y30825200D03*
X88730900Y31475200D03*
X88730900Y32125200D03*
X83130900Y28225200D03*
D12*
X88730900Y28225200D03*
X88730900Y28875200D03*
D11*
X88730900Y29525200D03*
X83130900Y32775200D03*
X83130900Y32125200D03*
X83130900Y31475200D03*
X83130900Y30825200D03*
X83130900Y30175200D03*
X83130900Y29525200D03*
X88730900Y32775200D03*
X83130900Y28875200D03*
D12*
X88730900Y27575200D03*
D11*
X88730900Y33425200D03*
X83130900Y33425200D03*
X83130900Y27575200D03*
D12*
X88730900Y26925200D03*
D11*
X88730900Y34075200D03*
X83130900Y34075200D03*
X83130900Y26925200D03*
D12*
X88730900Y26275200D03*
D11*
X88730900Y34725200D03*
X83130900Y34725200D03*
X83130900Y26275200D03*
D13*
X85930900Y30175200D03*
D14*
X27571700Y3860800D03*
D15*
X30111700Y3860800D03*
X32651700Y3860800D03*
X35191700Y3860800D03*
X37731700Y3860800D03*
X40271700Y3860800D03*
X42811700Y3860800D03*
X45351700Y3860800D03*
D16*
X43688000Y49797400D03*
X43688000Y48297400D03*
D17*
X69976500Y25349500D03*
X69976500Y13639500D03*
D16*
X53030000Y8360000D03*
X53030000Y6860000D03*
D18*
G36*
X73429691Y20229447D02*
G01*
X73450926Y20226297D01*
X73471750Y20221081D01*
X73491962Y20213849D01*
X73511368Y20204670D01*
X73529781Y20193634D01*
X73547024Y20180846D01*
X73562930Y20166430D01*
X73577346Y20150524D01*
X73590134Y20133281D01*
X73601170Y20114868D01*
X73610349Y20095462D01*
X73617581Y20075250D01*
X73622797Y20054426D01*
X73625947Y20033191D01*
X73627000Y20011750D01*
X73627000Y19574250D01*
X73625947Y19552809D01*
X73622797Y19531574D01*
X73617581Y19510750D01*
X73610349Y19490538D01*
X73601170Y19471132D01*
X73590134Y19452719D01*
X73577346Y19435476D01*
X73562930Y19419570D01*
X73547024Y19405154D01*
X73529781Y19392366D01*
X73511368Y19381330D01*
X73491962Y19372151D01*
X73471750Y19364919D01*
X73450926Y19359703D01*
X73429691Y19356553D01*
X73408250Y19355500D01*
X72895750Y19355500D01*
X72874309Y19356553D01*
X72853074Y19359703D01*
X72832250Y19364919D01*
X72812038Y19372151D01*
X72792632Y19381330D01*
X72774219Y19392366D01*
X72756976Y19405154D01*
X72741070Y19419570D01*
X72726654Y19435476D01*
X72713866Y19452719D01*
X72702830Y19471132D01*
X72693651Y19490538D01*
X72686419Y19510750D01*
X72681203Y19531574D01*
X72678053Y19552809D01*
X72677000Y19574250D01*
X72677000Y20011750D01*
X72678053Y20033191D01*
X72681203Y20054426D01*
X72686419Y20075250D01*
X72693651Y20095462D01*
X72702830Y20114868D01*
X72713866Y20133281D01*
X72726654Y20150524D01*
X72741070Y20166430D01*
X72756976Y20180846D01*
X72774219Y20193634D01*
X72792632Y20204670D01*
X72812038Y20213849D01*
X72832250Y20221081D01*
X72853074Y20226297D01*
X72874309Y20229447D01*
X72895750Y20230500D01*
X73408250Y20230500D01*
X73429691Y20229447D01*
X73429691Y20229447D01*
G37*
D19*
X73152000Y19793000D03*
D18*
G36*
X73429691Y18654447D02*
G01*
X73450926Y18651297D01*
X73471750Y18646081D01*
X73491962Y18638849D01*
X73511368Y18629670D01*
X73529781Y18618634D01*
X73547024Y18605846D01*
X73562930Y18591430D01*
X73577346Y18575524D01*
X73590134Y18558281D01*
X73601170Y18539868D01*
X73610349Y18520462D01*
X73617581Y18500250D01*
X73622797Y18479426D01*
X73625947Y18458191D01*
X73627000Y18436750D01*
X73627000Y17999250D01*
X73625947Y17977809D01*
X73622797Y17956574D01*
X73617581Y17935750D01*
X73610349Y17915538D01*
X73601170Y17896132D01*
X73590134Y17877719D01*
X73577346Y17860476D01*
X73562930Y17844570D01*
X73547024Y17830154D01*
X73529781Y17817366D01*
X73511368Y17806330D01*
X73491962Y17797151D01*
X73471750Y17789919D01*
X73450926Y17784703D01*
X73429691Y17781553D01*
X73408250Y17780500D01*
X72895750Y17780500D01*
X72874309Y17781553D01*
X72853074Y17784703D01*
X72832250Y17789919D01*
X72812038Y17797151D01*
X72792632Y17806330D01*
X72774219Y17817366D01*
X72756976Y17830154D01*
X72741070Y17844570D01*
X72726654Y17860476D01*
X72713866Y17877719D01*
X72702830Y17896132D01*
X72693651Y17915538D01*
X72686419Y17935750D01*
X72681203Y17956574D01*
X72678053Y17977809D01*
X72677000Y17999250D01*
X72677000Y18436750D01*
X72678053Y18458191D01*
X72681203Y18479426D01*
X72686419Y18500250D01*
X72693651Y18520462D01*
X72702830Y18539868D01*
X72713866Y18558281D01*
X72726654Y18575524D01*
X72741070Y18591430D01*
X72756976Y18605846D01*
X72774219Y18618634D01*
X72792632Y18629670D01*
X72812038Y18638849D01*
X72832250Y18646081D01*
X72853074Y18651297D01*
X72874309Y18654447D01*
X72895750Y18655500D01*
X73408250Y18655500D01*
X73429691Y18654447D01*
X73429691Y18654447D01*
G37*
D19*
X73152000Y18218000D03*
D18*
G36*
X70381691Y20221947D02*
G01*
X70402926Y20218797D01*
X70423750Y20213581D01*
X70443962Y20206349D01*
X70463368Y20197170D01*
X70481781Y20186134D01*
X70499024Y20173346D01*
X70514930Y20158930D01*
X70529346Y20143024D01*
X70542134Y20125781D01*
X70553170Y20107368D01*
X70562349Y20087962D01*
X70569581Y20067750D01*
X70574797Y20046926D01*
X70577947Y20025691D01*
X70579000Y20004250D01*
X70579000Y19566750D01*
X70577947Y19545309D01*
X70574797Y19524074D01*
X70569581Y19503250D01*
X70562349Y19483038D01*
X70553170Y19463632D01*
X70542134Y19445219D01*
X70529346Y19427976D01*
X70514930Y19412070D01*
X70499024Y19397654D01*
X70481781Y19384866D01*
X70463368Y19373830D01*
X70443962Y19364651D01*
X70423750Y19357419D01*
X70402926Y19352203D01*
X70381691Y19349053D01*
X70360250Y19348000D01*
X69847750Y19348000D01*
X69826309Y19349053D01*
X69805074Y19352203D01*
X69784250Y19357419D01*
X69764038Y19364651D01*
X69744632Y19373830D01*
X69726219Y19384866D01*
X69708976Y19397654D01*
X69693070Y19412070D01*
X69678654Y19427976D01*
X69665866Y19445219D01*
X69654830Y19463632D01*
X69645651Y19483038D01*
X69638419Y19503250D01*
X69633203Y19524074D01*
X69630053Y19545309D01*
X69629000Y19566750D01*
X69629000Y20004250D01*
X69630053Y20025691D01*
X69633203Y20046926D01*
X69638419Y20067750D01*
X69645651Y20087962D01*
X69654830Y20107368D01*
X69665866Y20125781D01*
X69678654Y20143024D01*
X69693070Y20158930D01*
X69708976Y20173346D01*
X69726219Y20186134D01*
X69744632Y20197170D01*
X69764038Y20206349D01*
X69784250Y20213581D01*
X69805074Y20218797D01*
X69826309Y20221947D01*
X69847750Y20223000D01*
X70360250Y20223000D01*
X70381691Y20221947D01*
X70381691Y20221947D01*
G37*
D19*
X70104000Y19785500D03*
D18*
G36*
X70381691Y18646947D02*
G01*
X70402926Y18643797D01*
X70423750Y18638581D01*
X70443962Y18631349D01*
X70463368Y18622170D01*
X70481781Y18611134D01*
X70499024Y18598346D01*
X70514930Y18583930D01*
X70529346Y18568024D01*
X70542134Y18550781D01*
X70553170Y18532368D01*
X70562349Y18512962D01*
X70569581Y18492750D01*
X70574797Y18471926D01*
X70577947Y18450691D01*
X70579000Y18429250D01*
X70579000Y17991750D01*
X70577947Y17970309D01*
X70574797Y17949074D01*
X70569581Y17928250D01*
X70562349Y17908038D01*
X70553170Y17888632D01*
X70542134Y17870219D01*
X70529346Y17852976D01*
X70514930Y17837070D01*
X70499024Y17822654D01*
X70481781Y17809866D01*
X70463368Y17798830D01*
X70443962Y17789651D01*
X70423750Y17782419D01*
X70402926Y17777203D01*
X70381691Y17774053D01*
X70360250Y17773000D01*
X69847750Y17773000D01*
X69826309Y17774053D01*
X69805074Y17777203D01*
X69784250Y17782419D01*
X69764038Y17789651D01*
X69744632Y17798830D01*
X69726219Y17809866D01*
X69708976Y17822654D01*
X69693070Y17837070D01*
X69678654Y17852976D01*
X69665866Y17870219D01*
X69654830Y17888632D01*
X69645651Y17908038D01*
X69638419Y17928250D01*
X69633203Y17949074D01*
X69630053Y17970309D01*
X69629000Y17991750D01*
X69629000Y18429250D01*
X69630053Y18450691D01*
X69633203Y18471926D01*
X69638419Y18492750D01*
X69645651Y18512962D01*
X69654830Y18532368D01*
X69665866Y18550781D01*
X69678654Y18568024D01*
X69693070Y18583930D01*
X69708976Y18598346D01*
X69726219Y18611134D01*
X69744632Y18622170D01*
X69764038Y18631349D01*
X69784250Y18638581D01*
X69805074Y18643797D01*
X69826309Y18646947D01*
X69847750Y18648000D01*
X70360250Y18648000D01*
X70381691Y18646947D01*
X70381691Y18646947D01*
G37*
D19*
X70104000Y18210500D03*
D18*
G36*
X67079691Y18654447D02*
G01*
X67100926Y18651297D01*
X67121750Y18646081D01*
X67141962Y18638849D01*
X67161368Y18629670D01*
X67179781Y18618634D01*
X67197024Y18605846D01*
X67212930Y18591430D01*
X67227346Y18575524D01*
X67240134Y18558281D01*
X67251170Y18539868D01*
X67260349Y18520462D01*
X67267581Y18500250D01*
X67272797Y18479426D01*
X67275947Y18458191D01*
X67277000Y18436750D01*
X67277000Y17999250D01*
X67275947Y17977809D01*
X67272797Y17956574D01*
X67267581Y17935750D01*
X67260349Y17915538D01*
X67251170Y17896132D01*
X67240134Y17877719D01*
X67227346Y17860476D01*
X67212930Y17844570D01*
X67197024Y17830154D01*
X67179781Y17817366D01*
X67161368Y17806330D01*
X67141962Y17797151D01*
X67121750Y17789919D01*
X67100926Y17784703D01*
X67079691Y17781553D01*
X67058250Y17780500D01*
X66545750Y17780500D01*
X66524309Y17781553D01*
X66503074Y17784703D01*
X66482250Y17789919D01*
X66462038Y17797151D01*
X66442632Y17806330D01*
X66424219Y17817366D01*
X66406976Y17830154D01*
X66391070Y17844570D01*
X66376654Y17860476D01*
X66363866Y17877719D01*
X66352830Y17896132D01*
X66343651Y17915538D01*
X66336419Y17935750D01*
X66331203Y17956574D01*
X66328053Y17977809D01*
X66327000Y17999250D01*
X66327000Y18436750D01*
X66328053Y18458191D01*
X66331203Y18479426D01*
X66336419Y18500250D01*
X66343651Y18520462D01*
X66352830Y18539868D01*
X66363866Y18558281D01*
X66376654Y18575524D01*
X66391070Y18591430D01*
X66406976Y18605846D01*
X66424219Y18618634D01*
X66442632Y18629670D01*
X66462038Y18638849D01*
X66482250Y18646081D01*
X66503074Y18651297D01*
X66524309Y18654447D01*
X66545750Y18655500D01*
X67058250Y18655500D01*
X67079691Y18654447D01*
X67079691Y18654447D01*
G37*
D19*
X66802000Y18218000D03*
D18*
G36*
X67079691Y20229447D02*
G01*
X67100926Y20226297D01*
X67121750Y20221081D01*
X67141962Y20213849D01*
X67161368Y20204670D01*
X67179781Y20193634D01*
X67197024Y20180846D01*
X67212930Y20166430D01*
X67227346Y20150524D01*
X67240134Y20133281D01*
X67251170Y20114868D01*
X67260349Y20095462D01*
X67267581Y20075250D01*
X67272797Y20054426D01*
X67275947Y20033191D01*
X67277000Y20011750D01*
X67277000Y19574250D01*
X67275947Y19552809D01*
X67272797Y19531574D01*
X67267581Y19510750D01*
X67260349Y19490538D01*
X67251170Y19471132D01*
X67240134Y19452719D01*
X67227346Y19435476D01*
X67212930Y19419570D01*
X67197024Y19405154D01*
X67179781Y19392366D01*
X67161368Y19381330D01*
X67141962Y19372151D01*
X67121750Y19364919D01*
X67100926Y19359703D01*
X67079691Y19356553D01*
X67058250Y19355500D01*
X66545750Y19355500D01*
X66524309Y19356553D01*
X66503074Y19359703D01*
X66482250Y19364919D01*
X66462038Y19372151D01*
X66442632Y19381330D01*
X66424219Y19392366D01*
X66406976Y19405154D01*
X66391070Y19419570D01*
X66376654Y19435476D01*
X66363866Y19452719D01*
X66352830Y19471132D01*
X66343651Y19490538D01*
X66336419Y19510750D01*
X66331203Y19531574D01*
X66328053Y19552809D01*
X66327000Y19574250D01*
X66327000Y20011750D01*
X66328053Y20033191D01*
X66331203Y20054426D01*
X66336419Y20075250D01*
X66343651Y20095462D01*
X66352830Y20114868D01*
X66363866Y20133281D01*
X66376654Y20150524D01*
X66391070Y20166430D01*
X66406976Y20180846D01*
X66424219Y20193634D01*
X66442632Y20204670D01*
X66462038Y20213849D01*
X66482250Y20221081D01*
X66503074Y20226297D01*
X66524309Y20229447D01*
X66545750Y20230500D01*
X67058250Y20230500D01*
X67079691Y20229447D01*
X67079691Y20229447D01*
G37*
D19*
X66802000Y19793000D03*
D16*
X35110000Y5540000D03*
X35110000Y7040000D03*
D20*
X13271500Y24969600D03*
X13271500Y21969600D03*
D21*
X41160000Y7747000D03*
X42660000Y7747000D03*
X49500000Y26340000D03*
X48000000Y26340000D03*
D16*
X91300300Y54952200D03*
X91300300Y56452200D03*
X91528900Y35660900D03*
X91528900Y37160900D03*
X91871800Y15912400D03*
X91871800Y17412400D03*
D21*
X62539180Y29654500D03*
X64039180Y29654500D03*
D16*
X94315280Y46999460D03*
X94315280Y48499460D03*
X94404180Y28053600D03*
X94404180Y29553600D03*
X94338140Y8541320D03*
X94338140Y10041320D03*
D21*
X54830280Y26771600D03*
X56330280Y26771600D03*
D16*
X94315280Y51496660D03*
X94315280Y49996660D03*
X94378780Y32627000D03*
X94378780Y31127000D03*
X94338140Y13102020D03*
X94338140Y11602020D03*
D21*
X59302080Y26771600D03*
X57802080Y26771600D03*
X79629700Y51041300D03*
X78129700Y51041300D03*
X79713520Y31884620D03*
X78213520Y31884620D03*
X79721140Y12786360D03*
X78221140Y12786360D03*
D16*
X58717180Y41477500D03*
X58717180Y42977500D03*
D21*
X79642400Y49618900D03*
X78142400Y49618900D03*
D16*
X79324200Y48184500D03*
X79324200Y46684500D03*
D21*
X79700820Y30360620D03*
X78200820Y30360620D03*
D16*
X79395320Y28850020D03*
X79395320Y27350020D03*
D21*
X79708440Y11198860D03*
X78208440Y11198860D03*
D16*
X79291180Y9767000D03*
X79291180Y8267000D03*
X57269380Y41477500D03*
X57269380Y42977500D03*
D21*
X55885780Y41871900D03*
X54385780Y41871900D03*
X82536600Y55778400D03*
X84036600Y55778400D03*
X82920140Y24218900D03*
X84420140Y24218900D03*
X82892200Y17716500D03*
X84392200Y17716500D03*
D16*
X51033680Y38215000D03*
X51033680Y36715000D03*
X36080700Y49810100D03*
X36080700Y48310100D03*
X26631900Y49822800D03*
X26631900Y48322800D03*
X40690800Y49822800D03*
X40690800Y48322800D03*
X31450000Y49820000D03*
X31450000Y48320000D03*
X23558500Y48322800D03*
X23558500Y49822800D03*
D21*
X82574700Y36804600D03*
X84074700Y36804600D03*
X83146200Y5016500D03*
X84646200Y5016500D03*
D16*
X63466980Y38176900D03*
X63466980Y36676900D03*
D21*
X39741540Y10749280D03*
X38241540Y10749280D03*
D22*
X39638100Y8859520D03*
X36638100Y8859520D03*
D16*
X36890000Y13120000D03*
X36890000Y11620000D03*
D21*
X33430000Y19930000D03*
X34930000Y19930000D03*
X33070000Y15150000D03*
X31570000Y15150000D03*
D16*
X65020000Y2620000D03*
X65020000Y4120000D03*
D22*
X36640000Y6050000D03*
X39640000Y6050000D03*
D16*
X66560000Y2630000D03*
X66560000Y4130000D03*
D23*
X6362700Y41846500D03*
X6362700Y33845500D03*
D22*
X81258280Y21996400D03*
X84258280Y21996400D03*
D20*
X15760700Y24969600D03*
X15760700Y21969600D03*
X13220700Y10542400D03*
X13220700Y7542400D03*
D23*
X6311900Y27571700D03*
X6311900Y19570700D03*
D20*
X16014700Y39295200D03*
X16014700Y36295200D03*
X13373100Y39346000D03*
X13373100Y36346000D03*
D23*
X6311900Y13195300D03*
X6311900Y5194300D03*
D22*
X50587780Y44234100D03*
X53587780Y44234100D03*
D20*
X15760700Y10542400D03*
X15760700Y7542400D03*
D21*
X82968400Y43370500D03*
X84468400Y43370500D03*
X59678000Y54102000D03*
X58178000Y54102000D03*
X41160000Y9144000D03*
X42660000Y9144000D03*
D24*
X47140000Y29390000D03*
X48640000Y29390000D03*
X49510000Y27850000D03*
X48010000Y27850000D03*
D25*
X92692220Y47141700D03*
X92692220Y48641700D03*
X92753180Y28180600D03*
X92753180Y29680600D03*
X92710000Y8655620D03*
X92710000Y10155620D03*
D24*
X54976330Y28301950D03*
X56476330Y28301950D03*
D25*
X92692220Y51296000D03*
X92692220Y49796000D03*
X92765880Y32474600D03*
X92765880Y30974600D03*
X92710000Y12959780D03*
X92710000Y11459780D03*
D24*
X59136980Y28282900D03*
X57636980Y28282900D03*
D25*
X61214000Y54114000D03*
X61214000Y55614000D03*
X56642000Y55614000D03*
X56642000Y54114000D03*
X32994600Y48437100D03*
X32994600Y49937100D03*
X42202100Y48449800D03*
X42202100Y49949800D03*
X34607500Y48449800D03*
X34607500Y49949800D03*
X25082500Y48475200D03*
X25082500Y49975200D03*
D24*
X61020000Y16520000D03*
X59520000Y16520000D03*
D25*
X39179500Y49975200D03*
X39179500Y48475200D03*
X29883100Y49975200D03*
X29883100Y48475200D03*
X21932900Y50000600D03*
X21932900Y48500600D03*
D24*
X61032000Y13726000D03*
X59532000Y13726000D03*
X61044000Y10932000D03*
X59544000Y10932000D03*
D25*
X37579300Y49975200D03*
X37579300Y48475200D03*
X28257500Y49975200D03*
X28257500Y48475200D03*
X20700000Y51130000D03*
X20700000Y52630000D03*
X23253700Y17133000D03*
X23253700Y15633000D03*
X25010000Y12800000D03*
X25010000Y14300000D03*
D24*
X20828700Y2641600D03*
X19328700Y2641600D03*
X64640000Y5660000D03*
X66140000Y5660000D03*
X17983900Y2641600D03*
X16483900Y2641600D03*
X23316500Y31191200D03*
X24816500Y31191200D03*
D25*
X25539700Y28155200D03*
X25539700Y29655200D03*
D24*
X20676300Y17018000D03*
X19176300Y17018000D03*
X21285900Y31242000D03*
X19785900Y31242000D03*
X27013600Y43294300D03*
X25513600Y43294300D03*
D25*
X25793700Y40258300D03*
X25793700Y41758300D03*
D24*
X17831500Y17018000D03*
X16331500Y17018000D03*
X18339500Y31242000D03*
X16839500Y31242000D03*
X65290000Y7340000D03*
X63790000Y7340000D03*
D25*
X63246000Y9930000D03*
X63246000Y11430000D03*
D10*
X84628200Y45701400D03*
X85928200Y45701400D03*
X84628200Y47001400D03*
X87228200Y47001400D03*
X85928200Y47001400D03*
X84628200Y48301400D03*
X87228200Y48301400D03*
X85928200Y48301400D03*
X87228200Y53501400D03*
X84628200Y53501400D03*
X85928200Y53501400D03*
X87228200Y52201400D03*
X84628200Y52201400D03*
X85928200Y52201400D03*
X84628200Y50901400D03*
X87228200Y50901400D03*
X85928200Y50901400D03*
X84628200Y49601400D03*
X87228200Y49601400D03*
X87228200Y45701400D03*
X85928200Y49601400D03*
D12*
X88728200Y49301400D03*
X88728200Y49951400D03*
X88728200Y50601400D03*
X88728200Y51251400D03*
X83128200Y47351400D03*
X88728200Y47351400D03*
X88728200Y48001400D03*
X88728200Y48651400D03*
X83128200Y51901400D03*
X83128200Y51251400D03*
X83128200Y50601400D03*
X83128200Y49951400D03*
X83128200Y49301400D03*
X83128200Y48651400D03*
X88728200Y51901400D03*
X83128200Y48001400D03*
X88728200Y46701400D03*
X88728200Y52551400D03*
X83128200Y52551400D03*
X83128200Y46701400D03*
X88728200Y46051400D03*
X88728200Y53201400D03*
X83128200Y53201400D03*
X83128200Y46051400D03*
X88728200Y45401400D03*
X88728200Y53851400D03*
X83128200Y53851400D03*
X83128200Y45401400D03*
D13*
X85928200Y49301400D03*
D10*
X84625800Y7372800D03*
X85925800Y7372800D03*
X84625800Y8672800D03*
X87225800Y8672800D03*
X85925800Y8672800D03*
X84625800Y9972800D03*
X87225800Y9972800D03*
X85925800Y9972800D03*
X87225800Y15172800D03*
X84625800Y15172800D03*
X85925800Y15172800D03*
X87225800Y13872800D03*
X84625800Y13872800D03*
X85925800Y13872800D03*
X84625800Y12572800D03*
X87225800Y12572800D03*
X85925800Y12572800D03*
X84625800Y11272800D03*
X87225800Y11272800D03*
X87225800Y7372800D03*
X85925800Y11272800D03*
D11*
X88725800Y10972800D03*
X88725800Y11622800D03*
X88725800Y12272800D03*
X88725800Y12922800D03*
X83125800Y9022800D03*
D12*
X88725800Y9022800D03*
X88725800Y9672800D03*
D11*
X88725800Y10322800D03*
X83125800Y13572800D03*
X83125800Y12922800D03*
X83125800Y12272800D03*
X83125800Y11622800D03*
X83125800Y10972800D03*
X83125800Y10322800D03*
X88725800Y13572800D03*
X83125800Y9672800D03*
D12*
X88725800Y8372800D03*
D11*
X88725800Y14222800D03*
X83125800Y14222800D03*
X83125800Y8372800D03*
D12*
X88725800Y7722800D03*
D11*
X88725800Y14872800D03*
X83125800Y14872800D03*
X83125800Y7722800D03*
D12*
X88725800Y7072800D03*
D11*
X88725800Y15522800D03*
X83125800Y15522800D03*
X83125800Y7072800D03*
D13*
X85925800Y10972800D03*
D10*
X53313780Y36263100D03*
X53313780Y34963100D03*
X54613780Y36263100D03*
X54613780Y33663100D03*
X54613780Y34963100D03*
X55913780Y36263100D03*
X55913780Y33663100D03*
X55913780Y34963100D03*
X61113780Y33663100D03*
X61113780Y36263100D03*
X61113780Y34963100D03*
X59813780Y33663100D03*
X59813780Y36263100D03*
X59813780Y34963100D03*
X58513780Y36263100D03*
X58513780Y33663100D03*
X58513780Y34963100D03*
X57213780Y36263100D03*
X57213780Y33663100D03*
X53313780Y33663100D03*
X57213780Y34963100D03*
D26*
X56913780Y32163100D03*
X57563780Y32163100D03*
X58213780Y32163100D03*
X58863780Y32163100D03*
X54963780Y37763100D03*
D27*
X54963780Y32163100D03*
X55613780Y32163100D03*
D26*
X56263780Y32163100D03*
X59513780Y37763100D03*
X58863780Y37763100D03*
X58213780Y37763100D03*
X57563780Y37763100D03*
X56913780Y37763100D03*
X56263780Y37763100D03*
X59513780Y32163100D03*
X55613780Y37763100D03*
D27*
X54313780Y32163100D03*
D26*
X60163780Y32163100D03*
X60163780Y37763100D03*
X54313780Y37763100D03*
D27*
X53663780Y32163100D03*
D26*
X60813780Y32163100D03*
X60813780Y37763100D03*
X53663780Y37763100D03*
D27*
X53013780Y32163100D03*
D26*
X61463780Y32163100D03*
X61463780Y37763100D03*
X53013780Y37763100D03*
D28*
X56913780Y34963100D03*
D14*
X50431700Y3860800D03*
D15*
X52971700Y3860800D03*
X55511700Y3860800D03*
X58051700Y3860800D03*
X60591700Y3860800D03*
X63131700Y3860800D03*
D14*
X18732500Y54940200D03*
D15*
X21272500Y54940200D03*
X23812500Y54940200D03*
X26352500Y54940200D03*
X28892500Y54940200D03*
X31432500Y54940200D03*
X33972500Y54940200D03*
X36512500Y54940200D03*
X39052500Y54940200D03*
D14*
X23507700Y52120800D03*
D15*
X26047700Y52120800D03*
X28587700Y52120800D03*
X31127700Y52120800D03*
X33667700Y52120800D03*
X36207700Y52120800D03*
X38747700Y52120800D03*
X41287700Y52120800D03*
D14*
X45351700Y52120800D03*
D15*
X47891700Y52120800D03*
X50431700Y52120800D03*
X52971700Y52120800D03*
X55511700Y52120800D03*
X58051700Y52120800D03*
X60591700Y52120800D03*
X63131700Y52120800D03*
D14*
X18270000Y45230000D03*
D15*
X18270000Y47770000D03*
D29*
X19719100Y9992800D03*
X19719100Y14492800D03*
X18469100Y13742800D03*
X19719100Y12992800D03*
X19719100Y11492800D03*
X20969100Y10742800D03*
X18469100Y10742800D03*
X18469100Y12242800D03*
X20969100Y12242800D03*
X20969100Y13742800D03*
D30*
X23339100Y10337800D03*
X23339100Y11607800D03*
X23339100Y12877800D03*
D31*
X17699100Y11607800D03*
X17699100Y12877800D03*
X17699100Y14147800D03*
D30*
X23339100Y14147800D03*
D32*
X19794100Y12242800D03*
D31*
X17699100Y10337800D03*
D29*
X21555900Y8650800D03*
X21555900Y4150800D03*
X22805900Y4900800D03*
X21555900Y5650800D03*
X21555900Y7150800D03*
X20305900Y7900800D03*
X22805900Y7900800D03*
X22805900Y6400800D03*
X20305900Y6400800D03*
X20305900Y4900800D03*
D30*
X17935900Y8305800D03*
X17935900Y7035800D03*
X17935900Y5765800D03*
D31*
X23575900Y7035800D03*
X23575900Y5765800D03*
X23575900Y4495800D03*
D30*
X17935900Y4495800D03*
D32*
X21480900Y6400800D03*
D31*
X23575900Y8305800D03*
D29*
X20049300Y24267600D03*
X20049300Y28767600D03*
X18799300Y28017600D03*
X20049300Y27267600D03*
X20049300Y25767600D03*
X21299300Y25017600D03*
X18799300Y25017600D03*
X18799300Y26517600D03*
X21299300Y26517600D03*
X21299300Y28017600D03*
D30*
X23669300Y24612600D03*
X23669300Y25882600D03*
X23669300Y27152600D03*
D31*
X18029300Y25882600D03*
X18029300Y27152600D03*
X18029300Y28422600D03*
D30*
X23669300Y28422600D03*
D32*
X20124300Y26517600D03*
D31*
X18029300Y24612600D03*
D29*
X21860700Y23078000D03*
X21860700Y18578000D03*
X23110700Y19328000D03*
X21860700Y20078000D03*
X21860700Y21578000D03*
X20610700Y22328000D03*
X23110700Y22328000D03*
X23110700Y20828000D03*
X20610700Y20828000D03*
X20610700Y19328000D03*
D30*
X18240700Y22733000D03*
X18240700Y21463000D03*
X18240700Y20193000D03*
D31*
X23880700Y21463000D03*
X23880700Y20193000D03*
X23880700Y18923000D03*
D30*
X18240700Y18923000D03*
D32*
X21785700Y20828000D03*
D31*
X23880700Y22733000D03*
D29*
X20227100Y38593200D03*
X20227100Y43093200D03*
X18977100Y42343200D03*
X20227100Y41593200D03*
X20227100Y40093200D03*
X21477100Y39343200D03*
X18977100Y39343200D03*
X18977100Y40843200D03*
X21477100Y40843200D03*
X21477100Y42343200D03*
D30*
X23847100Y38938200D03*
X23847100Y40208200D03*
X23847100Y41478200D03*
D31*
X18207100Y40208200D03*
X18207100Y41478200D03*
X18207100Y42748200D03*
D30*
X23847100Y42748200D03*
D32*
X20302100Y40843200D03*
D31*
X18207100Y38938200D03*
D29*
X22063900Y37251200D03*
X22063900Y32751200D03*
X23313900Y33501200D03*
X22063900Y34251200D03*
X22063900Y35751200D03*
X20813900Y36501200D03*
X23313900Y36501200D03*
X23313900Y35001200D03*
X20813900Y35001200D03*
X20813900Y33501200D03*
D30*
X18443900Y36906200D03*
X18443900Y35636200D03*
X18443900Y34366200D03*
D31*
X24083900Y35636200D03*
X24083900Y34366200D03*
X24083900Y33096200D03*
D30*
X18443900Y33096200D03*
D32*
X21988900Y35001200D03*
D31*
X24083900Y36906200D03*
D33*
X12837500Y5181600D03*
X15737500Y5181600D03*
X12888300Y19558000D03*
X15788300Y19558000D03*
X13040700Y33782000D03*
X15940700Y33782000D03*
D22*
X8938000Y44704000D03*
X11938000Y44704000D03*
D20*
X13970000Y41934000D03*
X13970000Y44934000D03*
D34*
X98729800Y12545300D03*
X98729800Y15085300D03*
X98729800Y10005300D03*
X98729800Y7465300D03*
X98823780Y49959260D03*
X98823780Y52499260D03*
X98823780Y47419260D03*
X98823780Y44879260D03*
X98795840Y31742380D03*
X98795840Y34282380D03*
X98795840Y29202380D03*
X98795840Y26662380D03*
D35*
X73439020Y54991000D03*
X67937380Y54991000D03*
X73426320Y31521400D03*
X67924680Y31521400D03*
X73426320Y8204200D03*
X67924680Y8204200D03*
X60934600Y47434500D03*
X55432960Y47434500D03*
D17*
X69976500Y49428700D03*
X69976500Y37718700D03*
D22*
X81537680Y2997200D03*
X84537680Y2997200D03*
X81215100Y40614600D03*
X84215100Y40614600D03*
D36*
X13695700Y54533800D03*
X8695700Y54533800D03*
X3695700Y54533800D03*
X28257500Y18503900D03*
X28257500Y22003900D03*
X28257500Y25503900D03*
D24*
X50534000Y8636000D03*
X49034000Y8636000D03*
X50534000Y5842000D03*
X49034000Y5842000D03*
D37*
X55500000Y6610000D03*
D38*
X58040000Y6610000D03*
X60580000Y6610000D03*
D16*
X19180000Y51120000D03*
X19180000Y52620000D03*
D39*
X44211820Y32762540D03*
X44211820Y33562540D03*
X44211820Y34362540D03*
X44211820Y35162540D03*
X44211820Y35962540D03*
X44211820Y36762540D03*
X44211820Y37562540D03*
X44211820Y38362540D03*
D40*
X42761820Y39812540D03*
X41961820Y39812540D03*
X41161820Y39812540D03*
X40361820Y39812540D03*
X39561820Y39812540D03*
X38761820Y39812540D03*
X37961820Y39812540D03*
X37161820Y39812540D03*
D39*
X35711820Y38362540D03*
X35711820Y37562540D03*
X35711820Y36762540D03*
X35711820Y35962540D03*
X35711820Y35162540D03*
X35711820Y34362540D03*
X35711820Y33562540D03*
X35711820Y32762540D03*
D40*
X37161820Y31312540D03*
X37961820Y31312540D03*
X38761820Y31312540D03*
X39561820Y31312540D03*
X40361820Y31312540D03*
X41161820Y31312540D03*
X41961820Y31312540D03*
X42761820Y31312540D03*
D41*
X42666883Y43200934D03*
D18*
G36*
X43267924Y43165579D02*
G01*
X42702238Y42599893D01*
X42065842Y43236289D01*
X42631528Y43801975D01*
X43267924Y43165579D01*
X43267924Y43165579D01*
G37*
D41*
X41676934Y44190883D03*
D18*
G36*
X42277975Y44155528D02*
G01*
X41712289Y43589842D01*
X41075893Y44226238D01*
X41641579Y44791924D01*
X42277975Y44155528D01*
X42277975Y44155528D01*
G37*
D41*
X40899117Y43413066D03*
D18*
G36*
X41500158Y43377711D02*
G01*
X40934472Y42812025D01*
X40298076Y43448421D01*
X40863762Y44014107D01*
X41500158Y43377711D01*
X41500158Y43377711D01*
G37*
D41*
X41889066Y42423117D03*
D18*
G36*
X42490107Y42387762D02*
G01*
X41924421Y41822076D01*
X41288025Y42458472D01*
X41853711Y43024158D01*
X42490107Y42387762D01*
X42490107Y42387762D01*
G37*
D21*
X11540000Y1630000D03*
X13040000Y1630000D03*
X11820000Y16320000D03*
X13320000Y16320000D03*
X12270040Y30573980D03*
X13770040Y30573980D03*
D25*
X34230000Y28850000D03*
X34230000Y30350000D03*
X32800000Y41770000D03*
X32800000Y40270000D03*
X31940000Y9770000D03*
X31940000Y8270000D03*
X30380000Y9770000D03*
X30380000Y8270000D03*
D24*
X40690000Y25600000D03*
X39190000Y25600000D03*
D25*
X35850000Y27770000D03*
X35850000Y26270000D03*
X29610000Y38590000D03*
X29610000Y40090000D03*
D24*
X29540000Y41330000D03*
X31040000Y41330000D03*
D25*
X33520000Y8290000D03*
X33520000Y9790000D03*
X37860000Y25200000D03*
X37860000Y23700000D03*
X31180000Y38580000D03*
X31180000Y40080000D03*
X14500000Y3050000D03*
X14500000Y1550000D03*
X35080000Y9790000D03*
X35080000Y8290000D03*
X14840000Y17490000D03*
X14840000Y15990000D03*
X36230000Y23690000D03*
X36230000Y25190000D03*
X15318740Y31768480D03*
X15318740Y30268480D03*
X30950000Y35930000D03*
X30950000Y37430000D03*
D42*
X44154830Y43856170D03*
D18*
G36*
X43606822Y43873848D02*
G01*
X44137152Y44404178D01*
X44702838Y43838492D01*
X44172508Y43308162D01*
X43606822Y43873848D01*
X43606822Y43873848D01*
G37*
D42*
X43094170Y44916830D03*
D18*
G36*
X42546162Y44934508D02*
G01*
X43076492Y45464838D01*
X43642178Y44899152D01*
X43111848Y44368822D01*
X42546162Y44934508D01*
X42546162Y44934508D01*
G37*
D16*
X39160000Y44130000D03*
X39160000Y42630000D03*
D21*
X32410000Y37270000D03*
X33910000Y37270000D03*
D16*
X33150000Y34410000D03*
X33150000Y35910000D03*
X46367700Y36175380D03*
X46367700Y34675380D03*
X47993300Y36195700D03*
X47993300Y34695700D03*
D21*
X36310000Y43120000D03*
X37810000Y43120000D03*
X45581000Y8509000D03*
X44081000Y8509000D03*
D22*
X44220000Y6731000D03*
X47220000Y6731000D03*
D43*
X62950000Y54250000D03*
X64850000Y54250000D03*
X63900000Y56248980D03*
D33*
X89003800Y56273700D03*
X86103800Y56273700D03*
X89092700Y37287200D03*
X86192700Y37287200D03*
X89308600Y18097500D03*
X86408600Y18097500D03*
D44*
X63898780Y31849400D03*
X63898780Y34749400D03*
D33*
X88953000Y42951400D03*
X86053000Y42951400D03*
X89029200Y23799800D03*
X86129200Y23799800D03*
X89214620Y4597400D03*
X86314620Y4597400D03*
D44*
X50601880Y31900200D03*
X50601880Y34800200D03*
D24*
X36460000Y41700000D03*
X37960000Y41700000D03*
X32560000Y38690000D03*
X34060000Y38690000D03*
D25*
X28810000Y8260000D03*
X28810000Y9760000D03*
D45*
X52578000Y17272000D03*
X55118000Y17272000D03*
X52578000Y14732000D03*
X55118000Y14732000D03*
X52578000Y12192000D03*
D46*
X55118000Y12192000D03*
X56720000Y21470000D03*
D45*
X56720000Y24010000D03*
X59260000Y21470000D03*
X59260000Y24010000D03*
D46*
X49200000Y54950000D03*
D45*
X51740000Y54950000D03*
X54280000Y54950000D03*
D18*
G36*
X65307691Y10301447D02*
G01*
X65328926Y10298297D01*
X65349750Y10293081D01*
X65369962Y10285849D01*
X65389368Y10276670D01*
X65407781Y10265634D01*
X65425024Y10252846D01*
X65440930Y10238430D01*
X65455346Y10222524D01*
X65468134Y10205281D01*
X65479170Y10186868D01*
X65488349Y10167462D01*
X65495581Y10147250D01*
X65500797Y10126426D01*
X65503947Y10105191D01*
X65505000Y10083750D01*
X65505000Y9646250D01*
X65503947Y9624809D01*
X65500797Y9603574D01*
X65495581Y9582750D01*
X65488349Y9562538D01*
X65479170Y9543132D01*
X65468134Y9524719D01*
X65455346Y9507476D01*
X65440930Y9491570D01*
X65425024Y9477154D01*
X65407781Y9464366D01*
X65389368Y9453330D01*
X65369962Y9444151D01*
X65349750Y9436919D01*
X65328926Y9431703D01*
X65307691Y9428553D01*
X65286250Y9427500D01*
X64773750Y9427500D01*
X64752309Y9428553D01*
X64731074Y9431703D01*
X64710250Y9436919D01*
X64690038Y9444151D01*
X64670632Y9453330D01*
X64652219Y9464366D01*
X64634976Y9477154D01*
X64619070Y9491570D01*
X64604654Y9507476D01*
X64591866Y9524719D01*
X64580830Y9543132D01*
X64571651Y9562538D01*
X64564419Y9582750D01*
X64559203Y9603574D01*
X64556053Y9624809D01*
X64555000Y9646250D01*
X64555000Y10083750D01*
X64556053Y10105191D01*
X64559203Y10126426D01*
X64564419Y10147250D01*
X64571651Y10167462D01*
X64580830Y10186868D01*
X64591866Y10205281D01*
X64604654Y10222524D01*
X64619070Y10238430D01*
X64634976Y10252846D01*
X64652219Y10265634D01*
X64670632Y10276670D01*
X64690038Y10285849D01*
X64710250Y10293081D01*
X64731074Y10298297D01*
X64752309Y10301447D01*
X64773750Y10302500D01*
X65286250Y10302500D01*
X65307691Y10301447D01*
X65307691Y10301447D01*
G37*
D19*
X65030000Y9865000D03*
D18*
G36*
X65307691Y11876447D02*
G01*
X65328926Y11873297D01*
X65349750Y11868081D01*
X65369962Y11860849D01*
X65389368Y11851670D01*
X65407781Y11840634D01*
X65425024Y11827846D01*
X65440930Y11813430D01*
X65455346Y11797524D01*
X65468134Y11780281D01*
X65479170Y11761868D01*
X65488349Y11742462D01*
X65495581Y11722250D01*
X65500797Y11701426D01*
X65503947Y11680191D01*
X65505000Y11658750D01*
X65505000Y11221250D01*
X65503947Y11199809D01*
X65500797Y11178574D01*
X65495581Y11157750D01*
X65488349Y11137538D01*
X65479170Y11118132D01*
X65468134Y11099719D01*
X65455346Y11082476D01*
X65440930Y11066570D01*
X65425024Y11052154D01*
X65407781Y11039366D01*
X65389368Y11028330D01*
X65369962Y11019151D01*
X65349750Y11011919D01*
X65328926Y11006703D01*
X65307691Y11003553D01*
X65286250Y11002500D01*
X64773750Y11002500D01*
X64752309Y11003553D01*
X64731074Y11006703D01*
X64710250Y11011919D01*
X64690038Y11019151D01*
X64670632Y11028330D01*
X64652219Y11039366D01*
X64634976Y11052154D01*
X64619070Y11066570D01*
X64604654Y11082476D01*
X64591866Y11099719D01*
X64580830Y11118132D01*
X64571651Y11137538D01*
X64564419Y11157750D01*
X64559203Y11178574D01*
X64556053Y11199809D01*
X64555000Y11221250D01*
X64555000Y11658750D01*
X64556053Y11680191D01*
X64559203Y11701426D01*
X64564419Y11722250D01*
X64571651Y11742462D01*
X64580830Y11761868D01*
X64591866Y11780281D01*
X64604654Y11797524D01*
X64619070Y11813430D01*
X64634976Y11827846D01*
X64652219Y11840634D01*
X64670632Y11851670D01*
X64690038Y11860849D01*
X64710250Y11868081D01*
X64731074Y11873297D01*
X64752309Y11876447D01*
X64773750Y11877500D01*
X65286250Y11877500D01*
X65307691Y11876447D01*
X65307691Y11876447D01*
G37*
D19*
X65030000Y11440000D03*
D18*
G36*
X62510191Y57403947D02*
G01*
X62531426Y57400797D01*
X62552250Y57395581D01*
X62572462Y57388349D01*
X62591868Y57379170D01*
X62610281Y57368134D01*
X62627524Y57355346D01*
X62643430Y57340930D01*
X62657846Y57325024D01*
X62670634Y57307781D01*
X62681670Y57289368D01*
X62690849Y57269962D01*
X62698081Y57249750D01*
X62703297Y57228926D01*
X62706447Y57207691D01*
X62707500Y57186250D01*
X62707500Y56673750D01*
X62706447Y56652309D01*
X62703297Y56631074D01*
X62698081Y56610250D01*
X62690849Y56590038D01*
X62681670Y56570632D01*
X62670634Y56552219D01*
X62657846Y56534976D01*
X62643430Y56519070D01*
X62627524Y56504654D01*
X62610281Y56491866D01*
X62591868Y56480830D01*
X62572462Y56471651D01*
X62552250Y56464419D01*
X62531426Y56459203D01*
X62510191Y56456053D01*
X62488750Y56455000D01*
X62051250Y56455000D01*
X62029809Y56456053D01*
X62008574Y56459203D01*
X61987750Y56464419D01*
X61967538Y56471651D01*
X61948132Y56480830D01*
X61929719Y56491866D01*
X61912476Y56504654D01*
X61896570Y56519070D01*
X61882154Y56534976D01*
X61869366Y56552219D01*
X61858330Y56570632D01*
X61849151Y56590038D01*
X61841919Y56610250D01*
X61836703Y56631074D01*
X61833553Y56652309D01*
X61832500Y56673750D01*
X61832500Y57186250D01*
X61833553Y57207691D01*
X61836703Y57228926D01*
X61841919Y57249750D01*
X61849151Y57269962D01*
X61858330Y57289368D01*
X61869366Y57307781D01*
X61882154Y57325024D01*
X61896570Y57340930D01*
X61912476Y57355346D01*
X61929719Y57368134D01*
X61948132Y57379170D01*
X61967538Y57388349D01*
X61987750Y57395581D01*
X62008574Y57400797D01*
X62029809Y57403947D01*
X62051250Y57405000D01*
X62488750Y57405000D01*
X62510191Y57403947D01*
X62510191Y57403947D01*
G37*
D19*
X62270000Y56930000D03*
D18*
G36*
X60935191Y57403947D02*
G01*
X60956426Y57400797D01*
X60977250Y57395581D01*
X60997462Y57388349D01*
X61016868Y57379170D01*
X61035281Y57368134D01*
X61052524Y57355346D01*
X61068430Y57340930D01*
X61082846Y57325024D01*
X61095634Y57307781D01*
X61106670Y57289368D01*
X61115849Y57269962D01*
X61123081Y57249750D01*
X61128297Y57228926D01*
X61131447Y57207691D01*
X61132500Y57186250D01*
X61132500Y56673750D01*
X61131447Y56652309D01*
X61128297Y56631074D01*
X61123081Y56610250D01*
X61115849Y56590038D01*
X61106670Y56570632D01*
X61095634Y56552219D01*
X61082846Y56534976D01*
X61068430Y56519070D01*
X61052524Y56504654D01*
X61035281Y56491866D01*
X61016868Y56480830D01*
X60997462Y56471651D01*
X60977250Y56464419D01*
X60956426Y56459203D01*
X60935191Y56456053D01*
X60913750Y56455000D01*
X60476250Y56455000D01*
X60454809Y56456053D01*
X60433574Y56459203D01*
X60412750Y56464419D01*
X60392538Y56471651D01*
X60373132Y56480830D01*
X60354719Y56491866D01*
X60337476Y56504654D01*
X60321570Y56519070D01*
X60307154Y56534976D01*
X60294366Y56552219D01*
X60283330Y56570632D01*
X60274151Y56590038D01*
X60266919Y56610250D01*
X60261703Y56631074D01*
X60258553Y56652309D01*
X60257500Y56673750D01*
X60257500Y57186250D01*
X60258553Y57207691D01*
X60261703Y57228926D01*
X60266919Y57249750D01*
X60274151Y57269962D01*
X60283330Y57289368D01*
X60294366Y57307781D01*
X60307154Y57325024D01*
X60321570Y57340930D01*
X60337476Y57355346D01*
X60354719Y57368134D01*
X60373132Y57379170D01*
X60392538Y57388349D01*
X60412750Y57395581D01*
X60433574Y57400797D01*
X60454809Y57403947D01*
X60476250Y57405000D01*
X60913750Y57405000D01*
X60935191Y57403947D01*
X60935191Y57403947D01*
G37*
D19*
X60695000Y56930000D03*
D18*
G36*
X67296191Y22317947D02*
G01*
X67317426Y22314797D01*
X67338250Y22309581D01*
X67358462Y22302349D01*
X67377868Y22293170D01*
X67396281Y22282134D01*
X67413524Y22269346D01*
X67429430Y22254930D01*
X67443846Y22239024D01*
X67456634Y22221781D01*
X67467670Y22203368D01*
X67476849Y22183962D01*
X67484081Y22163750D01*
X67489297Y22142926D01*
X67492447Y22121691D01*
X67493500Y22100250D01*
X67493500Y21587750D01*
X67492447Y21566309D01*
X67489297Y21545074D01*
X67484081Y21524250D01*
X67476849Y21504038D01*
X67467670Y21484632D01*
X67456634Y21466219D01*
X67443846Y21448976D01*
X67429430Y21433070D01*
X67413524Y21418654D01*
X67396281Y21405866D01*
X67377868Y21394830D01*
X67358462Y21385651D01*
X67338250Y21378419D01*
X67317426Y21373203D01*
X67296191Y21370053D01*
X67274750Y21369000D01*
X66837250Y21369000D01*
X66815809Y21370053D01*
X66794574Y21373203D01*
X66773750Y21378419D01*
X66753538Y21385651D01*
X66734132Y21394830D01*
X66715719Y21405866D01*
X66698476Y21418654D01*
X66682570Y21433070D01*
X66668154Y21448976D01*
X66655366Y21466219D01*
X66644330Y21484632D01*
X66635151Y21504038D01*
X66627919Y21524250D01*
X66622703Y21545074D01*
X66619553Y21566309D01*
X66618500Y21587750D01*
X66618500Y22100250D01*
X66619553Y22121691D01*
X66622703Y22142926D01*
X66627919Y22163750D01*
X66635151Y22183962D01*
X66644330Y22203368D01*
X66655366Y22221781D01*
X66668154Y22239024D01*
X66682570Y22254930D01*
X66698476Y22269346D01*
X66715719Y22282134D01*
X66734132Y22293170D01*
X66753538Y22302349D01*
X66773750Y22309581D01*
X66794574Y22314797D01*
X66815809Y22317947D01*
X66837250Y22319000D01*
X67274750Y22319000D01*
X67296191Y22317947D01*
X67296191Y22317947D01*
G37*
D19*
X67056000Y21844000D03*
D18*
G36*
X68871191Y22317947D02*
G01*
X68892426Y22314797D01*
X68913250Y22309581D01*
X68933462Y22302349D01*
X68952868Y22293170D01*
X68971281Y22282134D01*
X68988524Y22269346D01*
X69004430Y22254930D01*
X69018846Y22239024D01*
X69031634Y22221781D01*
X69042670Y22203368D01*
X69051849Y22183962D01*
X69059081Y22163750D01*
X69064297Y22142926D01*
X69067447Y22121691D01*
X69068500Y22100250D01*
X69068500Y21587750D01*
X69067447Y21566309D01*
X69064297Y21545074D01*
X69059081Y21524250D01*
X69051849Y21504038D01*
X69042670Y21484632D01*
X69031634Y21466219D01*
X69018846Y21448976D01*
X69004430Y21433070D01*
X68988524Y21418654D01*
X68971281Y21405866D01*
X68952868Y21394830D01*
X68933462Y21385651D01*
X68913250Y21378419D01*
X68892426Y21373203D01*
X68871191Y21370053D01*
X68849750Y21369000D01*
X68412250Y21369000D01*
X68390809Y21370053D01*
X68369574Y21373203D01*
X68348750Y21378419D01*
X68328538Y21385651D01*
X68309132Y21394830D01*
X68290719Y21405866D01*
X68273476Y21418654D01*
X68257570Y21433070D01*
X68243154Y21448976D01*
X68230366Y21466219D01*
X68219330Y21484632D01*
X68210151Y21504038D01*
X68202919Y21524250D01*
X68197703Y21545074D01*
X68194553Y21566309D01*
X68193500Y21587750D01*
X68193500Y22100250D01*
X68194553Y22121691D01*
X68197703Y22142926D01*
X68202919Y22163750D01*
X68210151Y22183962D01*
X68219330Y22203368D01*
X68230366Y22221781D01*
X68243154Y22239024D01*
X68257570Y22254930D01*
X68273476Y22269346D01*
X68290719Y22282134D01*
X68309132Y22293170D01*
X68328538Y22302349D01*
X68348750Y22309581D01*
X68369574Y22314797D01*
X68390809Y22317947D01*
X68412250Y22319000D01*
X68849750Y22319000D01*
X68871191Y22317947D01*
X68871191Y22317947D01*
G37*
D19*
X68631000Y21844000D03*
D18*
G36*
X59955691Y56099947D02*
G01*
X59976926Y56096797D01*
X59997750Y56091581D01*
X60017962Y56084349D01*
X60037368Y56075170D01*
X60055781Y56064134D01*
X60073024Y56051346D01*
X60088930Y56036930D01*
X60103346Y56021024D01*
X60116134Y56003781D01*
X60127170Y55985368D01*
X60136349Y55965962D01*
X60143581Y55945750D01*
X60148797Y55924926D01*
X60151947Y55903691D01*
X60153000Y55882250D01*
X60153000Y55369750D01*
X60151947Y55348309D01*
X60148797Y55327074D01*
X60143581Y55306250D01*
X60136349Y55286038D01*
X60127170Y55266632D01*
X60116134Y55248219D01*
X60103346Y55230976D01*
X60088930Y55215070D01*
X60073024Y55200654D01*
X60055781Y55187866D01*
X60037368Y55176830D01*
X60017962Y55167651D01*
X59997750Y55160419D01*
X59976926Y55155203D01*
X59955691Y55152053D01*
X59934250Y55151000D01*
X59496750Y55151000D01*
X59475309Y55152053D01*
X59454074Y55155203D01*
X59433250Y55160419D01*
X59413038Y55167651D01*
X59393632Y55176830D01*
X59375219Y55187866D01*
X59357976Y55200654D01*
X59342070Y55215070D01*
X59327654Y55230976D01*
X59314866Y55248219D01*
X59303830Y55266632D01*
X59294651Y55286038D01*
X59287419Y55306250D01*
X59282203Y55327074D01*
X59279053Y55348309D01*
X59278000Y55369750D01*
X59278000Y55882250D01*
X59279053Y55903691D01*
X59282203Y55924926D01*
X59287419Y55945750D01*
X59294651Y55965962D01*
X59303830Y55985368D01*
X59314866Y56003781D01*
X59327654Y56021024D01*
X59342070Y56036930D01*
X59357976Y56051346D01*
X59375219Y56064134D01*
X59393632Y56075170D01*
X59413038Y56084349D01*
X59433250Y56091581D01*
X59454074Y56096797D01*
X59475309Y56099947D01*
X59496750Y56101000D01*
X59934250Y56101000D01*
X59955691Y56099947D01*
X59955691Y56099947D01*
G37*
D19*
X59715500Y55626000D03*
D18*
G36*
X58380691Y56099947D02*
G01*
X58401926Y56096797D01*
X58422750Y56091581D01*
X58442962Y56084349D01*
X58462368Y56075170D01*
X58480781Y56064134D01*
X58498024Y56051346D01*
X58513930Y56036930D01*
X58528346Y56021024D01*
X58541134Y56003781D01*
X58552170Y55985368D01*
X58561349Y55965962D01*
X58568581Y55945750D01*
X58573797Y55924926D01*
X58576947Y55903691D01*
X58578000Y55882250D01*
X58578000Y55369750D01*
X58576947Y55348309D01*
X58573797Y55327074D01*
X58568581Y55306250D01*
X58561349Y55286038D01*
X58552170Y55266632D01*
X58541134Y55248219D01*
X58528346Y55230976D01*
X58513930Y55215070D01*
X58498024Y55200654D01*
X58480781Y55187866D01*
X58462368Y55176830D01*
X58442962Y55167651D01*
X58422750Y55160419D01*
X58401926Y55155203D01*
X58380691Y55152053D01*
X58359250Y55151000D01*
X57921750Y55151000D01*
X57900309Y55152053D01*
X57879074Y55155203D01*
X57858250Y55160419D01*
X57838038Y55167651D01*
X57818632Y55176830D01*
X57800219Y55187866D01*
X57782976Y55200654D01*
X57767070Y55215070D01*
X57752654Y55230976D01*
X57739866Y55248219D01*
X57728830Y55266632D01*
X57719651Y55286038D01*
X57712419Y55306250D01*
X57707203Y55327074D01*
X57704053Y55348309D01*
X57703000Y55369750D01*
X57703000Y55882250D01*
X57704053Y55903691D01*
X57707203Y55924926D01*
X57712419Y55945750D01*
X57719651Y55965962D01*
X57728830Y55985368D01*
X57739866Y56003781D01*
X57752654Y56021024D01*
X57767070Y56036930D01*
X57782976Y56051346D01*
X57800219Y56064134D01*
X57818632Y56075170D01*
X57838038Y56084349D01*
X57858250Y56091581D01*
X57879074Y56096797D01*
X57900309Y56099947D01*
X57921750Y56101000D01*
X58359250Y56101000D01*
X58380691Y56099947D01*
X58380691Y56099947D01*
G37*
D19*
X58140500Y55626000D03*
D18*
G36*
X45417691Y56081447D02*
G01*
X45438926Y56078297D01*
X45459750Y56073081D01*
X45479962Y56065849D01*
X45499368Y56056670D01*
X45517781Y56045634D01*
X45535024Y56032846D01*
X45550930Y56018430D01*
X45565346Y56002524D01*
X45578134Y55985281D01*
X45589170Y55966868D01*
X45598349Y55947462D01*
X45605581Y55927250D01*
X45610797Y55906426D01*
X45613947Y55885191D01*
X45615000Y55863750D01*
X45615000Y55426250D01*
X45613947Y55404809D01*
X45610797Y55383574D01*
X45605581Y55362750D01*
X45598349Y55342538D01*
X45589170Y55323132D01*
X45578134Y55304719D01*
X45565346Y55287476D01*
X45550930Y55271570D01*
X45535024Y55257154D01*
X45517781Y55244366D01*
X45499368Y55233330D01*
X45479962Y55224151D01*
X45459750Y55216919D01*
X45438926Y55211703D01*
X45417691Y55208553D01*
X45396250Y55207500D01*
X44883750Y55207500D01*
X44862309Y55208553D01*
X44841074Y55211703D01*
X44820250Y55216919D01*
X44800038Y55224151D01*
X44780632Y55233330D01*
X44762219Y55244366D01*
X44744976Y55257154D01*
X44729070Y55271570D01*
X44714654Y55287476D01*
X44701866Y55304719D01*
X44690830Y55323132D01*
X44681651Y55342538D01*
X44674419Y55362750D01*
X44669203Y55383574D01*
X44666053Y55404809D01*
X44665000Y55426250D01*
X44665000Y55863750D01*
X44666053Y55885191D01*
X44669203Y55906426D01*
X44674419Y55927250D01*
X44681651Y55947462D01*
X44690830Y55966868D01*
X44701866Y55985281D01*
X44714654Y56002524D01*
X44729070Y56018430D01*
X44744976Y56032846D01*
X44762219Y56045634D01*
X44780632Y56056670D01*
X44800038Y56065849D01*
X44820250Y56073081D01*
X44841074Y56078297D01*
X44862309Y56081447D01*
X44883750Y56082500D01*
X45396250Y56082500D01*
X45417691Y56081447D01*
X45417691Y56081447D01*
G37*
D19*
X45140000Y55645000D03*
D18*
G36*
X45417691Y54506447D02*
G01*
X45438926Y54503297D01*
X45459750Y54498081D01*
X45479962Y54490849D01*
X45499368Y54481670D01*
X45517781Y54470634D01*
X45535024Y54457846D01*
X45550930Y54443430D01*
X45565346Y54427524D01*
X45578134Y54410281D01*
X45589170Y54391868D01*
X45598349Y54372462D01*
X45605581Y54352250D01*
X45610797Y54331426D01*
X45613947Y54310191D01*
X45615000Y54288750D01*
X45615000Y53851250D01*
X45613947Y53829809D01*
X45610797Y53808574D01*
X45605581Y53787750D01*
X45598349Y53767538D01*
X45589170Y53748132D01*
X45578134Y53729719D01*
X45565346Y53712476D01*
X45550930Y53696570D01*
X45535024Y53682154D01*
X45517781Y53669366D01*
X45499368Y53658330D01*
X45479962Y53649151D01*
X45459750Y53641919D01*
X45438926Y53636703D01*
X45417691Y53633553D01*
X45396250Y53632500D01*
X44883750Y53632500D01*
X44862309Y53633553D01*
X44841074Y53636703D01*
X44820250Y53641919D01*
X44800038Y53649151D01*
X44780632Y53658330D01*
X44762219Y53669366D01*
X44744976Y53682154D01*
X44729070Y53696570D01*
X44714654Y53712476D01*
X44701866Y53729719D01*
X44690830Y53748132D01*
X44681651Y53767538D01*
X44674419Y53787750D01*
X44669203Y53808574D01*
X44666053Y53829809D01*
X44665000Y53851250D01*
X44665000Y54288750D01*
X44666053Y54310191D01*
X44669203Y54331426D01*
X44674419Y54352250D01*
X44681651Y54372462D01*
X44690830Y54391868D01*
X44701866Y54410281D01*
X44714654Y54427524D01*
X44729070Y54443430D01*
X44744976Y54457846D01*
X44762219Y54470634D01*
X44780632Y54481670D01*
X44800038Y54490849D01*
X44820250Y54498081D01*
X44841074Y54503297D01*
X44862309Y54506447D01*
X44883750Y54507500D01*
X45396250Y54507500D01*
X45417691Y54506447D01*
X45417691Y54506447D01*
G37*
D19*
X45140000Y54070000D03*
D18*
G36*
X43711691Y54512947D02*
G01*
X43732926Y54509797D01*
X43753750Y54504581D01*
X43773962Y54497349D01*
X43793368Y54488170D01*
X43811781Y54477134D01*
X43829024Y54464346D01*
X43844930Y54449930D01*
X43859346Y54434024D01*
X43872134Y54416781D01*
X43883170Y54398368D01*
X43892349Y54378962D01*
X43899581Y54358750D01*
X43904797Y54337926D01*
X43907947Y54316691D01*
X43909000Y54295250D01*
X43909000Y53857750D01*
X43907947Y53836309D01*
X43904797Y53815074D01*
X43899581Y53794250D01*
X43892349Y53774038D01*
X43883170Y53754632D01*
X43872134Y53736219D01*
X43859346Y53718976D01*
X43844930Y53703070D01*
X43829024Y53688654D01*
X43811781Y53675866D01*
X43793368Y53664830D01*
X43773962Y53655651D01*
X43753750Y53648419D01*
X43732926Y53643203D01*
X43711691Y53640053D01*
X43690250Y53639000D01*
X43177750Y53639000D01*
X43156309Y53640053D01*
X43135074Y53643203D01*
X43114250Y53648419D01*
X43094038Y53655651D01*
X43074632Y53664830D01*
X43056219Y53675866D01*
X43038976Y53688654D01*
X43023070Y53703070D01*
X43008654Y53718976D01*
X42995866Y53736219D01*
X42984830Y53754632D01*
X42975651Y53774038D01*
X42968419Y53794250D01*
X42963203Y53815074D01*
X42960053Y53836309D01*
X42959000Y53857750D01*
X42959000Y54295250D01*
X42960053Y54316691D01*
X42963203Y54337926D01*
X42968419Y54358750D01*
X42975651Y54378962D01*
X42984830Y54398368D01*
X42995866Y54416781D01*
X43008654Y54434024D01*
X43023070Y54449930D01*
X43038976Y54464346D01*
X43056219Y54477134D01*
X43074632Y54488170D01*
X43094038Y54497349D01*
X43114250Y54504581D01*
X43135074Y54509797D01*
X43156309Y54512947D01*
X43177750Y54514000D01*
X43690250Y54514000D01*
X43711691Y54512947D01*
X43711691Y54512947D01*
G37*
D19*
X43434000Y54076500D03*
D18*
G36*
X43711691Y56087947D02*
G01*
X43732926Y56084797D01*
X43753750Y56079581D01*
X43773962Y56072349D01*
X43793368Y56063170D01*
X43811781Y56052134D01*
X43829024Y56039346D01*
X43844930Y56024930D01*
X43859346Y56009024D01*
X43872134Y55991781D01*
X43883170Y55973368D01*
X43892349Y55953962D01*
X43899581Y55933750D01*
X43904797Y55912926D01*
X43907947Y55891691D01*
X43909000Y55870250D01*
X43909000Y55432750D01*
X43907947Y55411309D01*
X43904797Y55390074D01*
X43899581Y55369250D01*
X43892349Y55349038D01*
X43883170Y55329632D01*
X43872134Y55311219D01*
X43859346Y55293976D01*
X43844930Y55278070D01*
X43829024Y55263654D01*
X43811781Y55250866D01*
X43793368Y55239830D01*
X43773962Y55230651D01*
X43753750Y55223419D01*
X43732926Y55218203D01*
X43711691Y55215053D01*
X43690250Y55214000D01*
X43177750Y55214000D01*
X43156309Y55215053D01*
X43135074Y55218203D01*
X43114250Y55223419D01*
X43094038Y55230651D01*
X43074632Y55239830D01*
X43056219Y55250866D01*
X43038976Y55263654D01*
X43023070Y55278070D01*
X43008654Y55293976D01*
X42995866Y55311219D01*
X42984830Y55329632D01*
X42975651Y55349038D01*
X42968419Y55369250D01*
X42963203Y55390074D01*
X42960053Y55411309D01*
X42959000Y55432750D01*
X42959000Y55870250D01*
X42960053Y55891691D01*
X42963203Y55912926D01*
X42968419Y55933750D01*
X42975651Y55953962D01*
X42984830Y55973368D01*
X42995866Y55991781D01*
X43008654Y56009024D01*
X43023070Y56024930D01*
X43038976Y56039346D01*
X43056219Y56052134D01*
X43074632Y56063170D01*
X43094038Y56072349D01*
X43114250Y56079581D01*
X43135074Y56084797D01*
X43156309Y56087947D01*
X43177750Y56089000D01*
X43690250Y56089000D01*
X43711691Y56087947D01*
X43711691Y56087947D01*
G37*
D19*
X43434000Y55651500D03*
D18*
G36*
X46505691Y48950447D02*
G01*
X46526926Y48947297D01*
X46547750Y48942081D01*
X46567962Y48934849D01*
X46587368Y48925670D01*
X46605781Y48914634D01*
X46623024Y48901846D01*
X46638930Y48887430D01*
X46653346Y48871524D01*
X46666134Y48854281D01*
X46677170Y48835868D01*
X46686349Y48816462D01*
X46693581Y48796250D01*
X46698797Y48775426D01*
X46701947Y48754191D01*
X46703000Y48732750D01*
X46703000Y48295250D01*
X46701947Y48273809D01*
X46698797Y48252574D01*
X46693581Y48231750D01*
X46686349Y48211538D01*
X46677170Y48192132D01*
X46666134Y48173719D01*
X46653346Y48156476D01*
X46638930Y48140570D01*
X46623024Y48126154D01*
X46605781Y48113366D01*
X46587368Y48102330D01*
X46567962Y48093151D01*
X46547750Y48085919D01*
X46526926Y48080703D01*
X46505691Y48077553D01*
X46484250Y48076500D01*
X45971750Y48076500D01*
X45950309Y48077553D01*
X45929074Y48080703D01*
X45908250Y48085919D01*
X45888038Y48093151D01*
X45868632Y48102330D01*
X45850219Y48113366D01*
X45832976Y48126154D01*
X45817070Y48140570D01*
X45802654Y48156476D01*
X45789866Y48173719D01*
X45778830Y48192132D01*
X45769651Y48211538D01*
X45762419Y48231750D01*
X45757203Y48252574D01*
X45754053Y48273809D01*
X45753000Y48295250D01*
X45753000Y48732750D01*
X45754053Y48754191D01*
X45757203Y48775426D01*
X45762419Y48796250D01*
X45769651Y48816462D01*
X45778830Y48835868D01*
X45789866Y48854281D01*
X45802654Y48871524D01*
X45817070Y48887430D01*
X45832976Y48901846D01*
X45850219Y48914634D01*
X45868632Y48925670D01*
X45888038Y48934849D01*
X45908250Y48942081D01*
X45929074Y48947297D01*
X45950309Y48950447D01*
X45971750Y48951500D01*
X46484250Y48951500D01*
X46505691Y48950447D01*
X46505691Y48950447D01*
G37*
D19*
X46228000Y48514000D03*
D18*
G36*
X46505691Y50525447D02*
G01*
X46526926Y50522297D01*
X46547750Y50517081D01*
X46567962Y50509849D01*
X46587368Y50500670D01*
X46605781Y50489634D01*
X46623024Y50476846D01*
X46638930Y50462430D01*
X46653346Y50446524D01*
X46666134Y50429281D01*
X46677170Y50410868D01*
X46686349Y50391462D01*
X46693581Y50371250D01*
X46698797Y50350426D01*
X46701947Y50329191D01*
X46703000Y50307750D01*
X46703000Y49870250D01*
X46701947Y49848809D01*
X46698797Y49827574D01*
X46693581Y49806750D01*
X46686349Y49786538D01*
X46677170Y49767132D01*
X46666134Y49748719D01*
X46653346Y49731476D01*
X46638930Y49715570D01*
X46623024Y49701154D01*
X46605781Y49688366D01*
X46587368Y49677330D01*
X46567962Y49668151D01*
X46547750Y49660919D01*
X46526926Y49655703D01*
X46505691Y49652553D01*
X46484250Y49651500D01*
X45971750Y49651500D01*
X45950309Y49652553D01*
X45929074Y49655703D01*
X45908250Y49660919D01*
X45888038Y49668151D01*
X45868632Y49677330D01*
X45850219Y49688366D01*
X45832976Y49701154D01*
X45817070Y49715570D01*
X45802654Y49731476D01*
X45789866Y49748719D01*
X45778830Y49767132D01*
X45769651Y49786538D01*
X45762419Y49806750D01*
X45757203Y49827574D01*
X45754053Y49848809D01*
X45753000Y49870250D01*
X45753000Y50307750D01*
X45754053Y50329191D01*
X45757203Y50350426D01*
X45762419Y50371250D01*
X45769651Y50391462D01*
X45778830Y50410868D01*
X45789866Y50429281D01*
X45802654Y50446524D01*
X45817070Y50462430D01*
X45832976Y50476846D01*
X45850219Y50489634D01*
X45868632Y50500670D01*
X45888038Y50509849D01*
X45908250Y50517081D01*
X45929074Y50522297D01*
X45950309Y50525447D01*
X45971750Y50526500D01*
X46484250Y50526500D01*
X46505691Y50525447D01*
X46505691Y50525447D01*
G37*
D19*
X46228000Y50089000D03*
D18*
G36*
X53725191Y20583947D02*
G01*
X53746426Y20580797D01*
X53767250Y20575581D01*
X53787462Y20568349D01*
X53806868Y20559170D01*
X53825281Y20548134D01*
X53842524Y20535346D01*
X53858430Y20520930D01*
X53872846Y20505024D01*
X53885634Y20487781D01*
X53896670Y20469368D01*
X53905849Y20449962D01*
X53913081Y20429750D01*
X53918297Y20408926D01*
X53921447Y20387691D01*
X53922500Y20366250D01*
X53922500Y19853750D01*
X53921447Y19832309D01*
X53918297Y19811074D01*
X53913081Y19790250D01*
X53905849Y19770038D01*
X53896670Y19750632D01*
X53885634Y19732219D01*
X53872846Y19714976D01*
X53858430Y19699070D01*
X53842524Y19684654D01*
X53825281Y19671866D01*
X53806868Y19660830D01*
X53787462Y19651651D01*
X53767250Y19644419D01*
X53746426Y19639203D01*
X53725191Y19636053D01*
X53703750Y19635000D01*
X53266250Y19635000D01*
X53244809Y19636053D01*
X53223574Y19639203D01*
X53202750Y19644419D01*
X53182538Y19651651D01*
X53163132Y19660830D01*
X53144719Y19671866D01*
X53127476Y19684654D01*
X53111570Y19699070D01*
X53097154Y19714976D01*
X53084366Y19732219D01*
X53073330Y19750632D01*
X53064151Y19770038D01*
X53056919Y19790250D01*
X53051703Y19811074D01*
X53048553Y19832309D01*
X53047500Y19853750D01*
X53047500Y20366250D01*
X53048553Y20387691D01*
X53051703Y20408926D01*
X53056919Y20429750D01*
X53064151Y20449962D01*
X53073330Y20469368D01*
X53084366Y20487781D01*
X53097154Y20505024D01*
X53111570Y20520930D01*
X53127476Y20535346D01*
X53144719Y20548134D01*
X53163132Y20559170D01*
X53182538Y20568349D01*
X53202750Y20575581D01*
X53223574Y20580797D01*
X53244809Y20583947D01*
X53266250Y20585000D01*
X53703750Y20585000D01*
X53725191Y20583947D01*
X53725191Y20583947D01*
G37*
D19*
X53485000Y20110000D03*
D18*
G36*
X52150191Y20583947D02*
G01*
X52171426Y20580797D01*
X52192250Y20575581D01*
X52212462Y20568349D01*
X52231868Y20559170D01*
X52250281Y20548134D01*
X52267524Y20535346D01*
X52283430Y20520930D01*
X52297846Y20505024D01*
X52310634Y20487781D01*
X52321670Y20469368D01*
X52330849Y20449962D01*
X52338081Y20429750D01*
X52343297Y20408926D01*
X52346447Y20387691D01*
X52347500Y20366250D01*
X52347500Y19853750D01*
X52346447Y19832309D01*
X52343297Y19811074D01*
X52338081Y19790250D01*
X52330849Y19770038D01*
X52321670Y19750632D01*
X52310634Y19732219D01*
X52297846Y19714976D01*
X52283430Y19699070D01*
X52267524Y19684654D01*
X52250281Y19671866D01*
X52231868Y19660830D01*
X52212462Y19651651D01*
X52192250Y19644419D01*
X52171426Y19639203D01*
X52150191Y19636053D01*
X52128750Y19635000D01*
X51691250Y19635000D01*
X51669809Y19636053D01*
X51648574Y19639203D01*
X51627750Y19644419D01*
X51607538Y19651651D01*
X51588132Y19660830D01*
X51569719Y19671866D01*
X51552476Y19684654D01*
X51536570Y19699070D01*
X51522154Y19714976D01*
X51509366Y19732219D01*
X51498330Y19750632D01*
X51489151Y19770038D01*
X51481919Y19790250D01*
X51476703Y19811074D01*
X51473553Y19832309D01*
X51472500Y19853750D01*
X51472500Y20366250D01*
X51473553Y20387691D01*
X51476703Y20408926D01*
X51481919Y20429750D01*
X51489151Y20449962D01*
X51498330Y20469368D01*
X51509366Y20487781D01*
X51522154Y20505024D01*
X51536570Y20520930D01*
X51552476Y20535346D01*
X51569719Y20548134D01*
X51588132Y20559170D01*
X51607538Y20568349D01*
X51627750Y20575581D01*
X51648574Y20580797D01*
X51669809Y20583947D01*
X51691250Y20585000D01*
X52128750Y20585000D01*
X52150191Y20583947D01*
X52150191Y20583947D01*
G37*
D19*
X51910000Y20110000D03*
D47*
X39553700Y12489400D03*
X40053700Y12489400D03*
X40553700Y12489400D03*
X41053700Y12489400D03*
X41553700Y12489400D03*
X42053700Y12489400D03*
X42553700Y12489400D03*
X43053700Y12489400D03*
X43553700Y12489400D03*
X44053700Y12489400D03*
X44553700Y12489400D03*
X45053700Y12489400D03*
D48*
X46603700Y14039400D03*
X46603700Y14539400D03*
X46603700Y15039400D03*
X46603700Y15539400D03*
X46603700Y16039400D03*
X46603700Y16539400D03*
X46603700Y17039400D03*
X46603700Y17539400D03*
X46603700Y18039400D03*
X46603700Y18539400D03*
X46603700Y19039400D03*
X46603700Y19539400D03*
D47*
X45053700Y21089400D03*
X44553700Y21089400D03*
X44053700Y21089400D03*
X43553700Y21089400D03*
X43053700Y21089400D03*
X42553700Y21089400D03*
X42053700Y21089400D03*
X41553700Y21089400D03*
X41053700Y21089400D03*
X40553700Y21089400D03*
X40053700Y21089400D03*
X39553700Y21089400D03*
D48*
X38003700Y19539400D03*
X38003700Y19039400D03*
X38003700Y18539400D03*
X38003700Y18039400D03*
X38003700Y17539400D03*
X38003700Y17039400D03*
X38003700Y16539400D03*
X38003700Y16039400D03*
X38003700Y15539400D03*
X38003700Y15039400D03*
X38003700Y14539400D03*
X38003700Y14039400D03*
D49*
X42303700Y16789400D03*
D46*
X63510000Y13630000D03*
D45*
X63510000Y16170000D03*
X63510000Y18710000D03*
X63510000Y21250000D03*
X63510000Y23790000D03*
D50*
X29338000Y6604000D03*
X32638000Y6604000D03*
X72740000Y3250000D03*
X69440000Y3250000D03*
M02*
