%
M48
METRIC,000.000
T01C0.50
%
T01
X006485Y059863
X005485Y059863
X004485Y059863
X003485Y059863
X002485Y059863
X001485Y059863
X002128Y062762
X003128Y062762
X004128Y062762
X005128Y062762
X006128Y062762
X053485Y059863
X052485Y059863
X051485Y059863
X050485Y059863
X049485Y059863
X048485Y059863
X049128Y062762
X050128Y062762
X051128Y062762
X052128Y062762
X053128Y062762
X101485Y059863
X100485Y059863
X099485Y059863
X098485Y059863
X097485Y059863
X096485Y059863
X097128Y062762
X098128Y062762
X099128Y062762
X100128Y062762
X101128Y062762
M30