%MOIN*%
%OFA0B0*%
%FSLAX46Y46*%
%IPPOS*%
%LPD*%
%ADD10R,0.066992125984251971X0.015811023622047244*%
%ADD11R,0.098488188976377955X0.25833070866141733*%
%ADD12R,0.03352755905511811X0.035496062992125987*%
%ADD13R,0.35833070866141731X0.059118110236220475*%
%ADD14C,0.005905511811023622*%
%ADD15R,0.066992125984251971X0.043370078740157476*%
%ADD16R,0.035496062992125987X0.03352755905511811*%
%ADD17R,0.043370078740157476X0.066992125984251971*%
%ADD18R,0.0985X0.1615*%
%ADD19R,0.023685039370078743X0.039433070866141735*%
%ADD20R,0.039433070866141735X0.023685039370078743*%
%ADD21R,0.060992125984251966X0.0098110236220472456*%
%ADD22R,0.092488188976377964X0.25233070866141732*%
%ADD23R,0.015811023622047244X0.066992125984251971*%
%ADD24R,0.25833070866141733X0.098488188976377955*%
%ADD25R,0.046519685039370082X0.021716535433070866*%
%ADD26R,0.029590551181102365X0.021716535433070866*%
%ADD27R,0.14337007874015747X0.17171653543307089*%
%ADD28R,0.039433070866141735X0.070929133858267726*%
%ADD29R,0.1457X0.067*%
%ADD30R,0.066992125984251971X0.025653543307086614*%
%ADD31R,0.025653543307086614X0.066992125984251971*%
%ADD32R,0.0355X0.0355*%
%ADD33R,0.070929133858267726X0.039433070866141735*%
%ADD34R,0.015811023622047244X0.070929133858267726*%
%ADD35R,0.070929133858267726X0.015811023622047244*%
%ADD36R,0.20085039370078742X0.20085039370078742*%
%ADD37R,0.039433070866141735X0.051244094488188986*%
%ADD48R,0.066992125984251971X0.015811023622047244*%
%ADD49R,0.098488188976377955X0.25833070866141733*%
%ADD50R,0.03352755905511811X0.035496062992125987*%
%ADD51R,0.35833070866141731X0.059118110236220475*%
%ADD52C,0.005905511811023622*%
%ADD53R,0.066992125984251971X0.043370078740157476*%
%ADD54R,0.035496062992125987X0.03352755905511811*%
%ADD55R,0.043370078740157476X0.066992125984251971*%
%ADD56R,0.0985X0.1615*%
%ADD57R,0.023685039370078743X0.039433070866141735*%
%ADD58R,0.039433070866141735X0.023685039370078743*%
%ADD59R,0.060992125984251966X0.0098110236220472456*%
%ADD60R,0.092488188976377964X0.25233070866141732*%
%ADD61R,0.015811023622047244X0.066992125984251971*%
%ADD62R,0.25833070866141733X0.098488188976377955*%
%ADD63R,0.046519685039370082X0.021716535433070866*%
%ADD64R,0.029590551181102365X0.021716535433070866*%
%ADD65R,0.14337007874015747X0.17171653543307089*%
%ADD66R,0.039433070866141735X0.070929133858267726*%
%ADD67R,0.1457X0.067*%
%ADD68R,0.066992125984251971X0.025653543307086614*%
%ADD69R,0.025653543307086614X0.066992125984251971*%
%ADD70R,0.0355X0.0355*%
%ADD71R,0.070929133858267726X0.039433070866141735*%
%ADD72R,0.015811023622047244X0.070929133858267726*%
%ADD73R,0.070929133858267726X0.015811023622047244*%
%ADD74R,0.20085039370078742X0.20085039370078742*%
%ADD75R,0.039433070866141735X0.051244094488188986*%
%LPD*%
D10*
X-0000000500Y-0000000500D02*
X0003492842Y0001187500D03*
X0003492842Y0001213090D03*
X0003492842Y0001238681D03*
X0003492842Y0001264271D03*
X0003272370Y0001110728D03*
X0003492842Y0001110728D03*
X0003492842Y0001136318D03*
X0003492842Y0001161909D03*
X0003272370Y0001289862D03*
X0003272370Y0001264271D03*
X0003272370Y0001238681D03*
X0003272370Y0001213090D03*
X0003272370Y0001187500D03*
X0003272370Y0001161909D03*
X0003492842Y0001289862D03*
X0003272370Y0001136318D03*
X0003492842Y0001085137D03*
X0003492842Y0001315452D03*
X0003272370Y0001315452D03*
X0003272370Y0001085137D03*
X0003492842Y0001059547D03*
X0003492842Y0001341043D03*
X0003272370Y0001341043D03*
X0003272370Y0001059547D03*
X0003492842Y0001033956D03*
X0003492842Y0001366633D03*
X0003272370Y0001366633D03*
X0003272370Y0001033956D03*
D11*
X0003382606Y0001187500D03*
D12*
X0001719500Y0001960027D03*
X0001719500Y0001900972D03*
D13*
X0002754480Y0000997511D03*
X0002754480Y0000536488D03*
D12*
X0002087295Y0000328633D03*
X0002087295Y0000269578D03*
D14*
G36*
X0002891530Y0000797930D02*
G01*
X0002892463Y0000797791D01*
X0002893378Y0000797562D01*
X0002894267Y0000797244D01*
X0002895119Y0000796841D01*
X0002895928Y0000796356D01*
X0002896686Y0000795794D01*
X0002897385Y0000795161D01*
X0002898018Y0000794462D01*
X0002898580Y0000793704D01*
X0002899065Y0000792895D01*
X0002899469Y0000792042D01*
X0002899786Y0000791154D01*
X0002900016Y0000790239D01*
X0002900154Y0000789306D01*
X0002900200Y0000788364D01*
X0002900200Y0000769139D01*
X0002900154Y0000768197D01*
X0002900016Y0000767264D01*
X0002899786Y0000766349D01*
X0002899469Y0000765461D01*
X0002899065Y0000764608D01*
X0002898580Y0000763799D01*
X0002898018Y0000763041D01*
X0002897385Y0000762342D01*
X0002896686Y0000761709D01*
X0002895928Y0000761147D01*
X0002895119Y0000760662D01*
X0002894267Y0000760259D01*
X0002893378Y0000759941D01*
X0002892463Y0000759712D01*
X0002891530Y0000759573D01*
X0002890588Y0000759527D01*
X0002868411Y0000759527D01*
X0002867469Y0000759573D01*
X0002866536Y0000759712D01*
X0002865621Y0000759941D01*
X0002864732Y0000760259D01*
X0002863880Y0000760662D01*
X0002863071Y0000761147D01*
X0002862313Y0000761709D01*
X0002861614Y0000762342D01*
X0002860981Y0000763041D01*
X0002860419Y0000763799D01*
X0002859934Y0000764608D01*
X0002859530Y0000765461D01*
X0002859213Y0000766349D01*
X0002858983Y0000767264D01*
X0002858845Y0000768197D01*
X0002858799Y0000769139D01*
X0002858799Y0000788364D01*
X0002858845Y0000789306D01*
X0002858983Y0000790239D01*
X0002859213Y0000791154D01*
X0002859530Y0000792042D01*
X0002859934Y0000792895D01*
X0002860419Y0000793704D01*
X0002860981Y0000794462D01*
X0002861614Y0000795161D01*
X0002862313Y0000795794D01*
X0002863071Y0000796356D01*
X0002863880Y0000796841D01*
X0002864732Y0000797244D01*
X0002865621Y0000797562D01*
X0002866536Y0000797791D01*
X0002867469Y0000797930D01*
X0002868411Y0000797976D01*
X0002890588Y0000797976D01*
X0002891530Y0000797930D01*
G37*
G36*
X0002891530Y0000735922D02*
G01*
X0002892463Y0000735783D01*
X0002893378Y0000735554D01*
X0002894267Y0000735236D01*
X0002895119Y0000734833D01*
X0002895928Y0000734348D01*
X0002896686Y0000733786D01*
X0002897385Y0000733153D01*
X0002898018Y0000732454D01*
X0002898580Y0000731696D01*
X0002899065Y0000730887D01*
X0002899469Y0000730034D01*
X0002899786Y0000729146D01*
X0002900016Y0000728231D01*
X0002900154Y0000727298D01*
X0002900200Y0000726356D01*
X0002900200Y0000707131D01*
X0002900154Y0000706189D01*
X0002900016Y0000705256D01*
X0002899786Y0000704341D01*
X0002899469Y0000703453D01*
X0002899065Y0000702600D01*
X0002898580Y0000701791D01*
X0002898018Y0000701033D01*
X0002897385Y0000700335D01*
X0002896686Y0000699701D01*
X0002895928Y0000699139D01*
X0002895119Y0000698654D01*
X0002894267Y0000698251D01*
X0002893378Y0000697933D01*
X0002892463Y0000697704D01*
X0002891530Y0000697565D01*
X0002890588Y0000697519D01*
X0002868411Y0000697519D01*
X0002867469Y0000697565D01*
X0002866536Y0000697704D01*
X0002865621Y0000697933D01*
X0002864732Y0000698251D01*
X0002863880Y0000698654D01*
X0002863071Y0000699139D01*
X0002862313Y0000699701D01*
X0002861614Y0000700335D01*
X0002860981Y0000701033D01*
X0002860419Y0000701791D01*
X0002859934Y0000702600D01*
X0002859530Y0000703453D01*
X0002859213Y0000704341D01*
X0002858983Y0000705256D01*
X0002858845Y0000706189D01*
X0002858799Y0000707131D01*
X0002858799Y0000726356D01*
X0002858845Y0000727298D01*
X0002858983Y0000728231D01*
X0002859213Y0000729146D01*
X0002859530Y0000730034D01*
X0002859934Y0000730887D01*
X0002860419Y0000731696D01*
X0002860981Y0000732454D01*
X0002861614Y0000733153D01*
X0002862313Y0000733786D01*
X0002863071Y0000734348D01*
X0002863880Y0000734833D01*
X0002864732Y0000735236D01*
X0002865621Y0000735554D01*
X0002866536Y0000735783D01*
X0002867469Y0000735922D01*
X0002868411Y0000735968D01*
X0002890588Y0000735968D01*
X0002891530Y0000735922D01*
G37*
G36*
X0002771530Y0000797634D02*
G01*
X0002772463Y0000797496D01*
X0002773378Y0000797267D01*
X0002774267Y0000796949D01*
X0002775119Y0000796546D01*
X0002775928Y0000796061D01*
X0002776686Y0000795499D01*
X0002777385Y0000794865D01*
X0002778018Y0000794166D01*
X0002778580Y0000793409D01*
X0002779065Y0000792600D01*
X0002779469Y0000791747D01*
X0002779786Y0000790859D01*
X0002780016Y0000789944D01*
X0002780154Y0000789011D01*
X0002780200Y0000788068D01*
X0002780200Y0000768844D01*
X0002780154Y0000767902D01*
X0002780016Y0000766969D01*
X0002779786Y0000766054D01*
X0002779469Y0000765166D01*
X0002779065Y0000764313D01*
X0002778580Y0000763504D01*
X0002778018Y0000762746D01*
X0002777385Y0000762047D01*
X0002776686Y0000761414D01*
X0002775928Y0000760852D01*
X0002775119Y0000760367D01*
X0002774267Y0000759963D01*
X0002773378Y0000759646D01*
X0002772463Y0000759416D01*
X0002771530Y0000759278D01*
X0002770588Y0000759232D01*
X0002748411Y0000759232D01*
X0002747469Y0000759278D01*
X0002746536Y0000759416D01*
X0002745621Y0000759646D01*
X0002744732Y0000759963D01*
X0002743880Y0000760367D01*
X0002743071Y0000760852D01*
X0002742313Y0000761414D01*
X0002741614Y0000762047D01*
X0002740981Y0000762746D01*
X0002740419Y0000763504D01*
X0002739934Y0000764313D01*
X0002739530Y0000765166D01*
X0002739213Y0000766054D01*
X0002738983Y0000766969D01*
X0002738845Y0000767902D01*
X0002738799Y0000768844D01*
X0002738799Y0000788068D01*
X0002738845Y0000789011D01*
X0002738983Y0000789944D01*
X0002739213Y0000790859D01*
X0002739530Y0000791747D01*
X0002739934Y0000792600D01*
X0002740419Y0000793409D01*
X0002740981Y0000794166D01*
X0002741614Y0000794865D01*
X0002742313Y0000795499D01*
X0002743071Y0000796061D01*
X0002743880Y0000796546D01*
X0002744732Y0000796949D01*
X0002745621Y0000797267D01*
X0002746536Y0000797496D01*
X0002747469Y0000797634D01*
X0002748411Y0000797681D01*
X0002770588Y0000797681D01*
X0002771530Y0000797634D01*
G37*
G36*
X0002771530Y0000735626D02*
G01*
X0002772463Y0000735488D01*
X0002773378Y0000735259D01*
X0002774267Y0000734941D01*
X0002775119Y0000734538D01*
X0002775928Y0000734053D01*
X0002776686Y0000733491D01*
X0002777385Y0000732857D01*
X0002778018Y0000732158D01*
X0002778580Y0000731401D01*
X0002779065Y0000730592D01*
X0002779469Y0000729739D01*
X0002779786Y0000728851D01*
X0002780016Y0000727936D01*
X0002780154Y0000727003D01*
X0002780200Y0000726061D01*
X0002780200Y0000706836D01*
X0002780154Y0000705894D01*
X0002780016Y0000704961D01*
X0002779786Y0000704046D01*
X0002779469Y0000703158D01*
X0002779065Y0000702305D01*
X0002778580Y0000701496D01*
X0002778018Y0000700738D01*
X0002777385Y0000700039D01*
X0002776686Y0000699406D01*
X0002775928Y0000698844D01*
X0002775119Y0000698359D01*
X0002774267Y0000697956D01*
X0002773378Y0000697638D01*
X0002772463Y0000697409D01*
X0002771530Y0000697270D01*
X0002770588Y0000697224D01*
X0002748411Y0000697224D01*
X0002747469Y0000697270D01*
X0002746536Y0000697409D01*
X0002745621Y0000697638D01*
X0002744732Y0000697956D01*
X0002743880Y0000698359D01*
X0002743071Y0000698844D01*
X0002742313Y0000699406D01*
X0002741614Y0000700039D01*
X0002740981Y0000700738D01*
X0002740419Y0000701496D01*
X0002739934Y0000702305D01*
X0002739530Y0000703158D01*
X0002739213Y0000704046D01*
X0002738983Y0000704961D01*
X0002738845Y0000705894D01*
X0002738799Y0000706836D01*
X0002738799Y0000726061D01*
X0002738845Y0000727003D01*
X0002738983Y0000727936D01*
X0002739213Y0000728851D01*
X0002739530Y0000729739D01*
X0002739934Y0000730592D01*
X0002740419Y0000731401D01*
X0002740981Y0000732158D01*
X0002741614Y0000732857D01*
X0002742313Y0000733491D01*
X0002743071Y0000734053D01*
X0002743880Y0000734538D01*
X0002744732Y0000734941D01*
X0002745621Y0000735259D01*
X0002746536Y0000735488D01*
X0002747469Y0000735626D01*
X0002748411Y0000735673D01*
X0002770588Y0000735673D01*
X0002771530Y0000735626D01*
G37*
G36*
X0002641530Y0000735922D02*
G01*
X0002642463Y0000735783D01*
X0002643378Y0000735554D01*
X0002644267Y0000735236D01*
X0002645119Y0000734833D01*
X0002645928Y0000734348D01*
X0002646686Y0000733786D01*
X0002647385Y0000733153D01*
X0002648018Y0000732454D01*
X0002648580Y0000731696D01*
X0002649065Y0000730887D01*
X0002649469Y0000730034D01*
X0002649786Y0000729146D01*
X0002650016Y0000728231D01*
X0002650154Y0000727298D01*
X0002650200Y0000726356D01*
X0002650200Y0000707131D01*
X0002650154Y0000706189D01*
X0002650016Y0000705256D01*
X0002649786Y0000704341D01*
X0002649469Y0000703453D01*
X0002649065Y0000702600D01*
X0002648580Y0000701791D01*
X0002648018Y0000701033D01*
X0002647385Y0000700335D01*
X0002646686Y0000699701D01*
X0002645928Y0000699139D01*
X0002645119Y0000698654D01*
X0002644267Y0000698251D01*
X0002643378Y0000697933D01*
X0002642463Y0000697704D01*
X0002641530Y0000697565D01*
X0002640588Y0000697519D01*
X0002618411Y0000697519D01*
X0002617469Y0000697565D01*
X0002616536Y0000697704D01*
X0002615621Y0000697933D01*
X0002614732Y0000698251D01*
X0002613880Y0000698654D01*
X0002613071Y0000699139D01*
X0002612313Y0000699701D01*
X0002611614Y0000700335D01*
X0002610981Y0000701033D01*
X0002610419Y0000701791D01*
X0002609934Y0000702600D01*
X0002609530Y0000703453D01*
X0002609213Y0000704341D01*
X0002608983Y0000705256D01*
X0002608845Y0000706189D01*
X0002608799Y0000707131D01*
X0002608799Y0000726356D01*
X0002608845Y0000727298D01*
X0002608983Y0000728231D01*
X0002609213Y0000729146D01*
X0002609530Y0000730034D01*
X0002609934Y0000730887D01*
X0002610419Y0000731696D01*
X0002610981Y0000732454D01*
X0002611614Y0000733153D01*
X0002612313Y0000733786D01*
X0002613071Y0000734348D01*
X0002613880Y0000734833D01*
X0002614732Y0000735236D01*
X0002615621Y0000735554D01*
X0002616536Y0000735783D01*
X0002617469Y0000735922D01*
X0002618411Y0000735968D01*
X0002640588Y0000735968D01*
X0002641530Y0000735922D01*
G37*
G36*
X0002641530Y0000797930D02*
G01*
X0002642463Y0000797791D01*
X0002643378Y0000797562D01*
X0002644267Y0000797244D01*
X0002645119Y0000796841D01*
X0002645928Y0000796356D01*
X0002646686Y0000795794D01*
X0002647385Y0000795161D01*
X0002648018Y0000794462D01*
X0002648580Y0000793704D01*
X0002649065Y0000792895D01*
X0002649469Y0000792042D01*
X0002649786Y0000791154D01*
X0002650016Y0000790239D01*
X0002650154Y0000789306D01*
X0002650200Y0000788364D01*
X0002650200Y0000769139D01*
X0002650154Y0000768197D01*
X0002650016Y0000767264D01*
X0002649786Y0000766349D01*
X0002649469Y0000765461D01*
X0002649065Y0000764608D01*
X0002648580Y0000763799D01*
X0002648018Y0000763041D01*
X0002647385Y0000762342D01*
X0002646686Y0000761709D01*
X0002645928Y0000761147D01*
X0002645119Y0000760662D01*
X0002644267Y0000760259D01*
X0002643378Y0000759941D01*
X0002642463Y0000759712D01*
X0002641530Y0000759573D01*
X0002640588Y0000759527D01*
X0002618411Y0000759527D01*
X0002617469Y0000759573D01*
X0002616536Y0000759712D01*
X0002615621Y0000759941D01*
X0002614732Y0000760259D01*
X0002613880Y0000760662D01*
X0002613071Y0000761147D01*
X0002612313Y0000761709D01*
X0002611614Y0000762342D01*
X0002610981Y0000763041D01*
X0002610419Y0000763799D01*
X0002609934Y0000764608D01*
X0002609530Y0000765461D01*
X0002609213Y0000766349D01*
X0002608983Y0000767264D01*
X0002608845Y0000768197D01*
X0002608799Y0000769139D01*
X0002608799Y0000788364D01*
X0002608845Y0000789306D01*
X0002608983Y0000790239D01*
X0002609213Y0000791154D01*
X0002609530Y0000792042D01*
X0002609934Y0000792895D01*
X0002610419Y0000793704D01*
X0002610981Y0000794462D01*
X0002611614Y0000795161D01*
X0002612313Y0000795794D01*
X0002613071Y0000796356D01*
X0002613880Y0000796841D01*
X0002614732Y0000797244D01*
X0002615621Y0000797562D01*
X0002616536Y0000797791D01*
X0002617469Y0000797930D01*
X0002618411Y0000797976D01*
X0002640588Y0000797976D01*
X0002641530Y0000797930D01*
G37*
D12*
X0001381783Y0000217610D03*
X0001381783Y0000276665D03*
D15*
X0000521999Y0000982555D03*
X0000521999Y0000864444D03*
D16*
X0001619972Y0000304500D03*
X0001679027Y0000304500D03*
X0001948318Y0001036507D03*
X0001889263Y0001036507D03*
D12*
X0003594000Y0002162972D03*
X0003594000Y0002222027D03*
X0003603000Y0001403472D03*
X0003603000Y0001462527D03*
X0003616500Y0000625972D03*
X0003616500Y0000685027D03*
D16*
X0002461672Y0001167000D03*
X0002520727Y0001167000D03*
D12*
X0003712700Y0001849872D03*
X0003712700Y0001908927D03*
X0003716200Y0001103972D03*
X0003716200Y0001163027D03*
X0003713600Y0000335772D03*
X0003713600Y0000394827D03*
D16*
X0002158172Y0001053500D03*
X0002217227Y0001053500D03*
D12*
X0003712700Y0002026927D03*
X0003712700Y0001967872D03*
X0003715200Y0001284027D03*
X0003715200Y0001224972D03*
X0003713600Y0000515327D03*
X0003713600Y0000456272D03*
D16*
X0002334227Y0001053500D03*
X0002275172Y0001053500D03*
X0003134527Y0002009000D03*
X0003075472Y0002009000D03*
X0003137827Y0001254800D03*
X0003078772Y0001254800D03*
X0003138127Y0000502900D03*
X0003079072Y0000502900D03*
D12*
X0002311200Y0001632472D03*
X0002311200Y0001691527D03*
D16*
X0003135027Y0001952999D03*
X0003075972Y0001952999D03*
D12*
X0003122500Y0001896527D03*
X0003122500Y0001837472D03*
D16*
X0003137327Y0001194800D03*
X0003078272Y0001194800D03*
D12*
X0003125300Y0001135327D03*
X0003125300Y0001076272D03*
D16*
X0003137627Y0000440400D03*
X0003078572Y0000440400D03*
D12*
X0003121200Y0000384027D03*
X0003121200Y0000324972D03*
X0002254199Y0001632472D03*
X0002254199Y0001691527D03*
D16*
X0002199727Y0001647999D03*
X0002140672Y0001647999D03*
X0003248972Y0002195499D03*
X0003308027Y0002195499D03*
X0003264072Y0000953000D03*
X0003323127Y0000953000D03*
X0003262972Y0000697000D03*
X0003322027Y0000697000D03*
D12*
X0002008699Y0001504027D03*
X0002008699Y0001444972D03*
X0001420000Y0001960527D03*
X0001420000Y0001901472D03*
X0001048000Y0001961027D03*
X0001048000Y0001901972D03*
X0001601500Y0001961027D03*
X0001601500Y0001901972D03*
X0001237688Y0001960917D03*
X0001237688Y0001901862D03*
X0000927000Y0001901972D03*
X0000927000Y0001961027D03*
D16*
X0003250472Y0001448500D03*
X0003309527Y0001448500D03*
X0003272972Y0000197000D03*
X0003332027Y0000197000D03*
D12*
X0002498200Y0001502527D03*
X0002498200Y0001443472D03*
D16*
X0001564127Y0000422700D03*
X0001505072Y0000422700D03*
D17*
X0001560055Y0000348300D03*
X0001441944Y0000348300D03*
D12*
X0001451862Y0000516035D03*
X0001451862Y0000456980D03*
D16*
X0001315641Y0000784145D03*
X0001374696Y0000784145D03*
X0001301468Y0000595956D03*
X0001242413Y0000595956D03*
D12*
X0002559342Y0000102649D03*
X0002559342Y0000161704D03*
D17*
X0001442019Y0000237688D03*
X0001560129Y0000237688D03*
D12*
X0002619972Y0000103043D03*
X0002619972Y0000162098D03*
D18*
X0000250000Y0001647000D03*
X0000250000Y0001332000D03*
D17*
X0003198644Y0000865500D03*
X0003316755Y0000865500D03*
D15*
X0000620000Y0000982555D03*
X0000620000Y0000864444D03*
X0000520000Y0000414555D03*
X0000520000Y0000296444D03*
D18*
X0000248000Y0001085000D03*
X0000248000Y0000770000D03*
D15*
X0000630000Y0001546555D03*
X0000630000Y0001428444D03*
X0000526000Y0001548555D03*
X0000526000Y0001430444D03*
D18*
X0000248000Y0000518999D03*
X0000248000Y0000204000D03*
D17*
X0001991144Y0001740999D03*
X0002109255Y0001740999D03*
D15*
X0000620000Y0000414555D03*
X0000620000Y0000296444D03*
D16*
X0003265972Y0001707000D03*
X0003325027Y0001707000D03*
X0002349027Y0002129499D03*
X0002289972Y0002129499D03*
X0001619972Y0000359500D03*
X0001679027Y0000359500D03*
D19*
X0001855405Y0001156586D03*
X0001914460Y0001156586D03*
X0001948712Y0001095956D03*
X0001889657Y0001095956D03*
D20*
X0003648800Y0001855472D03*
X0003648800Y0001914527D03*
X0003651200Y0001108972D03*
X0003651200Y0001168027D03*
X0003649500Y0000340272D03*
X0003649500Y0000399327D03*
D19*
X0002163922Y0001113750D03*
X0002222977Y0001113750D03*
D20*
X0003648800Y0002019027D03*
X0003648800Y0001959972D03*
X0003651700Y0001278027D03*
X0003651700Y0001218972D03*
X0003649500Y0000509727D03*
X0003649500Y0000450672D03*
D19*
X0002327727Y0001113000D03*
X0002268672Y0001113000D03*
D20*
X0002409499Y0002129972D03*
X0002409499Y0002189027D03*
X0002229500Y0002189027D03*
X0002229500Y0002129972D03*
X0001298499Y0001906472D03*
X0001298499Y0001965527D03*
X0001661000Y0001906972D03*
X0001661000Y0001966027D03*
X0001362000Y0001906972D03*
X0001362000Y0001966027D03*
X0000987000Y0001907972D03*
X0000987000Y0001967027D03*
D19*
X0002401862Y0000649893D03*
X0002342807Y0000649893D03*
D20*
X0001541999Y0001967027D03*
X0001541999Y0001907972D03*
X0001176000Y0001967027D03*
X0001176000Y0001907972D03*
X0000863000Y0001968027D03*
X0000863000Y0001908972D03*
D19*
X0002402334Y0000539893D03*
X0002343279Y0000539893D03*
X0002402807Y0000429893D03*
X0002343751Y0000429893D03*
D20*
X0001479000Y0001967027D03*
X0001479000Y0001907972D03*
X0001112000Y0001967027D03*
X0001112000Y0001907972D03*
X0000814460Y0002012492D03*
X0000814460Y0002071547D03*
X0000915000Y0000674027D03*
X0000915000Y0000614972D03*
X0000984145Y0000503437D03*
X0000984145Y0000562492D03*
D19*
X0000819527Y0000103500D03*
X0000760472Y0000103500D03*
X0002544381Y0000222334D03*
X0002603437Y0000222334D03*
X0000707527Y0000103500D03*
X0000648472Y0000103500D03*
X0000917472Y0001227500D03*
X0000976527Y0001227500D03*
D20*
X0001005000Y0001107972D03*
X0001005000Y0001167027D03*
D19*
X0000813527Y0000669500D03*
X0000754472Y0000669500D03*
X0000837527Y0001229500D03*
X0000778472Y0001229500D03*
X0001063027Y0001704000D03*
X0001003972Y0001704000D03*
D20*
X0001014999Y0001584472D03*
X0001014999Y0001643527D03*
D19*
X0000701527Y0000669500D03*
X0000642472Y0000669500D03*
X0000721527Y0001229500D03*
X0000662472Y0001229500D03*
X0002569972Y0000288476D03*
X0002510917Y0000288476D03*
D20*
X0002489500Y0000390444D03*
X0002489500Y0000449500D03*
D21*
X0003492736Y0001940500D03*
X0003492736Y0001966090D03*
X0003492736Y0001991681D03*
X0003492736Y0002017271D03*
X0003272263Y0001863728D03*
X0003492736Y0001863728D03*
X0003492736Y0001889318D03*
X0003492736Y0001914909D03*
X0003272263Y0002042862D03*
X0003272263Y0002017271D03*
X0003272263Y0001991681D03*
X0003272263Y0001966090D03*
X0003272263Y0001940500D03*
X0003272263Y0001914909D03*
X0003492736Y0002042862D03*
X0003272263Y0001889318D03*
X0003492736Y0001838137D03*
X0003492736Y0002068452D03*
X0003272263Y0002068452D03*
X0003272263Y0001838137D03*
X0003492736Y0001812547D03*
X0003492736Y0002094043D03*
X0003272263Y0002094043D03*
X0003272263Y0001812547D03*
X0003492736Y0001786956D03*
X0003492736Y0002119633D03*
X0003272263Y0002119633D03*
X0003272263Y0001786956D03*
D22*
X0003382500Y0001940500D03*
D10*
X0003492641Y0000431499D03*
X0003492641Y0000457090D03*
X0003492641Y0000482681D03*
X0003492641Y0000508271D03*
X0003272169Y0000354728D03*
X0003492641Y0000354728D03*
X0003492641Y0000380318D03*
X0003492641Y0000405909D03*
X0003272169Y0000533862D03*
X0003272169Y0000508271D03*
X0003272169Y0000482681D03*
X0003272169Y0000457090D03*
X0003272169Y0000431499D03*
X0003272169Y0000405909D03*
X0003492641Y0000533862D03*
X0003272169Y0000380318D03*
X0003492641Y0000329137D03*
X0003492641Y0000559452D03*
X0003272169Y0000559452D03*
X0003272169Y0000329137D03*
X0003492641Y0000303547D03*
X0003492641Y0000585043D03*
X0003272169Y0000585043D03*
X0003272169Y0000303547D03*
X0003492641Y0000277956D03*
X0003492641Y0000610633D03*
X0003272169Y0000610633D03*
X0003272169Y0000277956D03*
D11*
X0003382405Y0000431499D03*
D23*
X0002240200Y0001265763D03*
X0002265790Y0001265763D03*
X0002291381Y0001265763D03*
X0002316971Y0001265763D03*
X0002163428Y0001486236D03*
X0002163428Y0001265763D03*
X0002189018Y0001265763D03*
X0002214609Y0001265763D03*
X0002342562Y0001486236D03*
X0002316971Y0001486236D03*
X0002291381Y0001486236D03*
X0002265790Y0001486236D03*
X0002240200Y0001486236D03*
X0002214609Y0001486236D03*
X0002342562Y0001265763D03*
X0002189018Y0001486236D03*
X0002137837Y0001265763D03*
X0002368152Y0001265763D03*
X0002368152Y0001486236D03*
X0002137837Y0001486236D03*
X0002112247Y0001265763D03*
X0002393743Y0001265763D03*
X0002393743Y0001486236D03*
X0002112247Y0001486236D03*
X0002086656Y0001265763D03*
X0002419333Y0001265763D03*
X0002419333Y0001486236D03*
X0002086656Y0001486236D03*
D24*
X0002240200Y0001375999D03*
D25*
X0000918362Y0000406499D03*
X0000918362Y0000456499D03*
X0000918362Y0000506500D03*
D26*
X0000696314Y0000456499D03*
X0000696314Y0000506500D03*
X0000696314Y0000556500D03*
D25*
X0000918362Y0000556500D03*
D27*
X0000778795Y0000481500D03*
D26*
X0000696314Y0000406499D03*
D25*
X0000705637Y0000326499D03*
X0000705637Y0000276500D03*
X0000705637Y0000226500D03*
D26*
X0000927685Y0000276500D03*
X0000927685Y0000226500D03*
X0000927685Y0000176500D03*
D25*
X0000705637Y0000176500D03*
D27*
X0000845204Y0000251500D03*
D26*
X0000927685Y0000326499D03*
D25*
X0000931362Y0000968500D03*
X0000931362Y0001018500D03*
X0000931362Y0001068500D03*
D26*
X0000709314Y0001018500D03*
X0000709314Y0001068500D03*
X0000709314Y0001118500D03*
D25*
X0000931362Y0001118500D03*
D27*
X0000791795Y0001043500D03*
D26*
X0000709314Y0000968500D03*
D25*
X0000717637Y0000894500D03*
X0000717637Y0000844500D03*
X0000717637Y0000794500D03*
D26*
X0000939685Y0000844500D03*
X0000939685Y0000794500D03*
X0000939685Y0000744500D03*
D25*
X0000717637Y0000744500D03*
D27*
X0000857204Y0000819500D03*
D26*
X0000939685Y0000894500D03*
D25*
X0000938362Y0001532500D03*
X0000938362Y0001582499D03*
X0000938362Y0001632500D03*
D26*
X0000716314Y0001582499D03*
X0000716314Y0001632500D03*
X0000716314Y0001682499D03*
D25*
X0000938362Y0001682499D03*
D27*
X0000798795Y0001607500D03*
D26*
X0000716314Y0001532500D03*
D25*
X0000725637Y0001452499D03*
X0000725637Y0001402500D03*
X0000725637Y0001352500D03*
D26*
X0000947685Y0001402500D03*
X0000947685Y0001352500D03*
X0000947685Y0001302500D03*
D25*
X0000725637Y0001302500D03*
D27*
X0000865204Y0001377499D03*
D26*
X0000947685Y0001452499D03*
D28*
X0000504913Y0000203500D03*
X0000619086Y0000203500D03*
X0000506913Y0000769500D03*
X0000621086Y0000769500D03*
X0000512913Y0001329499D03*
X0000627086Y0001329499D03*
D17*
X0000351389Y0001759500D03*
X0000469500Y0001759500D03*
D15*
X0000549500Y0001650444D03*
X0000549500Y0001768555D03*
D29*
X0002890800Y0002164500D03*
X0002674200Y0002164500D03*
X0002890300Y0001240500D03*
X0002673700Y0001240500D03*
X0002890300Y0000322500D03*
X0002673700Y0000322500D03*
X0002398500Y0001867000D03*
X0002181900Y0001867000D03*
D13*
X0002754480Y0001945511D03*
X0002754480Y0001484488D03*
D17*
X0003209644Y0000117499D03*
X0003327755Y0000117499D03*
X0003196944Y0001598500D03*
X0003315055Y0001598500D03*
D19*
X0001989027Y0000339499D03*
X0001929972Y0000339499D03*
X0001989027Y0000229500D03*
X0001929972Y0000229500D03*
D12*
X0000754618Y0002012098D03*
X0000754618Y0002071153D03*
D30*
X0001740122Y0001289363D03*
X0001740122Y0001320859D03*
X0001740122Y0001352355D03*
X0001740122Y0001383851D03*
X0001740122Y0001415347D03*
X0001740122Y0001446844D03*
X0001740122Y0001478340D03*
X0001740122Y0001509836D03*
D31*
X0001683036Y0001566922D03*
X0001651540Y0001566922D03*
X0001620044Y0001566922D03*
X0001588548Y0001566922D03*
X0001557051Y0001566922D03*
X0001525555Y0001566922D03*
X0001494059Y0001566922D03*
X0001462563Y0001566922D03*
D30*
X0001405477Y0001509836D03*
X0001405477Y0001478340D03*
X0001405477Y0001446844D03*
X0001405477Y0001415347D03*
X0001405477Y0001383851D03*
X0001405477Y0001352355D03*
X0001405477Y0001320859D03*
X0001405477Y0001289363D03*
D31*
X0001462563Y0001232277D03*
X0001494059Y0001232277D03*
X0001525555Y0001232277D03*
X0001557051Y0001232277D03*
X0001588548Y0001232277D03*
X0001620044Y0001232277D03*
X0001651540Y0001232277D03*
X0001683036Y0001232277D03*
D14*
G36*
X0001705789Y0001698932D02*
G01*
X0001680690Y0001673832D01*
X0001652807Y0001701716D01*
X0001677906Y0001726815D01*
X0001705789Y0001698932D01*
G37*
G36*
X0001666815Y0001737906D02*
G01*
X0001641716Y0001712807D01*
X0001613832Y0001740690D01*
X0001638932Y0001765789D01*
X0001666815Y0001737906D01*
G37*
G36*
X0001636192Y0001707283D02*
G01*
X0001611093Y0001682184D01*
X0001583209Y0001710067D01*
X0001608309Y0001735167D01*
X0001636192Y0001707283D01*
G37*
G36*
X0001675167Y0001668309D02*
G01*
X0001650067Y0001643210D01*
X0001622184Y0001671093D01*
X0001647283Y0001696192D01*
X0001675167Y0001668309D01*
G37*
D16*
X0000453830Y0000063673D03*
X0000512885Y0000063673D03*
X0000464854Y0000642019D03*
X0000523909Y0000642019D03*
X0000482572Y0001203200D03*
X0000541627Y0001203200D03*
D20*
X0001347137Y0001135326D03*
X0001347137Y0001194381D03*
X0001290838Y0001643988D03*
X0001290838Y0001584933D03*
X0001256980Y0000384145D03*
X0001256980Y0000325090D03*
X0001195562Y0000384145D03*
X0001195562Y0000325090D03*
D19*
X0001601468Y0001007374D03*
X0001542413Y0001007374D03*
D20*
X0001410917Y0001092807D03*
X0001410917Y0001033751D03*
X0001165248Y0001518791D03*
X0001165248Y0001577846D03*
D19*
X0001162492Y0001626665D03*
X0001221547Y0001626665D03*
D20*
X0001319185Y0000325877D03*
X0001319185Y0000384933D03*
X0001490051Y0000991625D03*
X0001490051Y0000932570D03*
X0001227059Y0001518397D03*
X0001227059Y0001577452D03*
X0000570366Y0000119578D03*
X0000570366Y0000060523D03*
X0001380602Y0000384933D03*
X0001380602Y0000325877D03*
X0000583751Y0000688082D03*
X0000583751Y0000629027D03*
X0001425877Y0000932177D03*
X0001425877Y0000991232D03*
X0000602600Y0001250227D03*
X0000602600Y0001191172D03*
X0001218003Y0001414066D03*
X0001218003Y0001473122D03*
D14*
G36*
X0001713475Y0001726816D02*
G01*
X0001737183Y0001750524D01*
X0001762282Y0001725424D01*
X0001738575Y0001701717D01*
X0001713475Y0001726816D01*
G37*
G36*
X0001671717Y0001768575D02*
G01*
X0001695424Y0001792282D01*
X0001720524Y0001767183D01*
X0001696816Y0001743475D01*
X0001671717Y0001768575D01*
G37*
D12*
X0001541232Y0001736901D03*
X0001541232Y0001677846D03*
D16*
X0001275484Y0001466822D03*
X0001334539Y0001466822D03*
D12*
X0001304618Y0001354224D03*
X0001304618Y0001413279D03*
X0001825000Y0001423727D03*
X0001825000Y0001364672D03*
X0001888999Y0001424527D03*
X0001888999Y0001365472D03*
D16*
X0001429027Y0001697137D03*
X0001488082Y0001697137D03*
X0001794027Y0000334500D03*
X0001734972Y0000334500D03*
D17*
X0001740444Y0000264500D03*
X0001858555Y0000264500D03*
D32*
X0002477846Y0002135326D03*
X0002552649Y0002135326D03*
X0002515247Y0002214026D03*
D28*
X0003503586Y0002214999D03*
X0003389413Y0002214999D03*
X0003507086Y0001467499D03*
X0003392913Y0001467499D03*
X0003515586Y0000712000D03*
X0003401413Y0000712000D03*
D33*
X0002515200Y0001253413D03*
X0002515200Y0001367586D03*
D28*
X0003501586Y0001690500D03*
X0003387413Y0001690500D03*
X0003504586Y0000936500D03*
X0003390413Y0000936500D03*
X0003511886Y0000180500D03*
X0003397713Y0000180500D03*
D33*
X0001991700Y0001255413D03*
X0001991700Y0001369586D03*
D19*
X0001434933Y0001641232D03*
X0001493988Y0001641232D03*
X0001281389Y0001522728D03*
X0001340444Y0001522728D03*
D20*
X0001133751Y0000324696D03*
X0001133751Y0000383751D03*
D14*
G36*
X0002571766Y0000407063D02*
G01*
X0002572700Y0000406925D01*
X0002573615Y0000406696D01*
X0002574503Y0000406378D01*
X0002575355Y0000405975D01*
X0002576165Y0000405490D01*
X0002576922Y0000404928D01*
X0002577621Y0000404294D01*
X0002578255Y0000403595D01*
X0002578817Y0000402838D01*
X0002579302Y0000402029D01*
X0002579705Y0000401176D01*
X0002580023Y0000400288D01*
X0002580252Y0000399373D01*
X0002580390Y0000398440D01*
X0002580437Y0000397497D01*
X0002580437Y0000378273D01*
X0002580390Y0000377331D01*
X0002580252Y0000376398D01*
X0002580023Y0000375483D01*
X0002579705Y0000374595D01*
X0002579302Y0000373742D01*
X0002578817Y0000372933D01*
X0002578255Y0000372175D01*
X0002577621Y0000371476D01*
X0002576922Y0000370843D01*
X0002576165Y0000370281D01*
X0002575355Y0000369796D01*
X0002574503Y0000369393D01*
X0002573615Y0000369075D01*
X0002572700Y0000368846D01*
X0002571766Y0000368707D01*
X0002570824Y0000368661D01*
X0002548647Y0000368661D01*
X0002547705Y0000368707D01*
X0002546772Y0000368846D01*
X0002545857Y0000369075D01*
X0002544969Y0000369393D01*
X0002544116Y0000369796D01*
X0002543307Y0000370281D01*
X0002542549Y0000370843D01*
X0002541850Y0000371476D01*
X0002541217Y0000372175D01*
X0002540655Y0000372933D01*
X0002540170Y0000373742D01*
X0002539767Y0000374595D01*
X0002539449Y0000375483D01*
X0002539220Y0000376398D01*
X0002539081Y0000377331D01*
X0002539035Y0000378273D01*
X0002539035Y0000397497D01*
X0002539081Y0000398440D01*
X0002539220Y0000399373D01*
X0002539449Y0000400288D01*
X0002539767Y0000401176D01*
X0002540170Y0000402029D01*
X0002540655Y0000402838D01*
X0002541217Y0000403595D01*
X0002541850Y0000404294D01*
X0002542549Y0000404928D01*
X0002543307Y0000405490D01*
X0002544116Y0000405975D01*
X0002544969Y0000406378D01*
X0002545857Y0000406696D01*
X0002546772Y0000406925D01*
X0002547705Y0000407063D01*
X0002548647Y0000407110D01*
X0002570824Y0000407110D01*
X0002571766Y0000407063D01*
G37*
G36*
X0002571766Y0000469071D02*
G01*
X0002572700Y0000468933D01*
X0002573615Y0000468704D01*
X0002574503Y0000468386D01*
X0002575355Y0000467983D01*
X0002576165Y0000467498D01*
X0002576922Y0000466936D01*
X0002577621Y0000466302D01*
X0002578255Y0000465603D01*
X0002578817Y0000464846D01*
X0002579302Y0000464037D01*
X0002579705Y0000463184D01*
X0002580023Y0000462296D01*
X0002580252Y0000461381D01*
X0002580390Y0000460448D01*
X0002580437Y0000459505D01*
X0002580437Y0000440281D01*
X0002580390Y0000439339D01*
X0002580252Y0000438406D01*
X0002580023Y0000437491D01*
X0002579705Y0000436603D01*
X0002579302Y0000435750D01*
X0002578817Y0000434941D01*
X0002578255Y0000434183D01*
X0002577621Y0000433484D01*
X0002576922Y0000432851D01*
X0002576165Y0000432289D01*
X0002575355Y0000431804D01*
X0002574503Y0000431400D01*
X0002573615Y0000431083D01*
X0002572700Y0000430853D01*
X0002571766Y0000430715D01*
X0002570824Y0000430669D01*
X0002548647Y0000430669D01*
X0002547705Y0000430715D01*
X0002546772Y0000430853D01*
X0002545857Y0000431083D01*
X0002544969Y0000431400D01*
X0002544116Y0000431804D01*
X0002543307Y0000432289D01*
X0002542549Y0000432851D01*
X0002541850Y0000433484D01*
X0002541217Y0000434183D01*
X0002540655Y0000434941D01*
X0002540170Y0000435750D01*
X0002539767Y0000436603D01*
X0002539449Y0000437491D01*
X0002539220Y0000438406D01*
X0002539081Y0000439339D01*
X0002539035Y0000440281D01*
X0002539035Y0000459505D01*
X0002539081Y0000460448D01*
X0002539220Y0000461381D01*
X0002539449Y0000462296D01*
X0002539767Y0000463184D01*
X0002540170Y0000464037D01*
X0002540655Y0000464846D01*
X0002541217Y0000465603D01*
X0002541850Y0000466302D01*
X0002542549Y0000466936D01*
X0002543307Y0000467498D01*
X0002544116Y0000467983D01*
X0002544969Y0000468386D01*
X0002545857Y0000468704D01*
X0002546772Y0000468933D01*
X0002547705Y0000469071D01*
X0002548647Y0000469118D01*
X0002570824Y0000469118D01*
X0002571766Y0000469071D01*
G37*
G36*
X0002461629Y0002261493D02*
G01*
X0002462562Y0002261354D01*
X0002463477Y0002261125D01*
X0002464365Y0002260807D01*
X0002465218Y0002260404D01*
X0002466027Y0002259919D01*
X0002466784Y0002259357D01*
X0002467483Y0002258724D01*
X0002468117Y0002258025D01*
X0002468679Y0002257267D01*
X0002469164Y0002256458D01*
X0002469567Y0002255605D01*
X0002469885Y0002254717D01*
X0002470114Y0002253802D01*
X0002470252Y0002252869D01*
X0002470299Y0002251927D01*
X0002470299Y0002229750D01*
X0002470252Y0002228807D01*
X0002470114Y0002227874D01*
X0002469885Y0002226959D01*
X0002469567Y0002226071D01*
X0002469164Y0002225218D01*
X0002468679Y0002224409D01*
X0002468117Y0002223652D01*
X0002467483Y0002222953D01*
X0002466784Y0002222319D01*
X0002466027Y0002221757D01*
X0002465218Y0002221272D01*
X0002464365Y0002220869D01*
X0002463477Y0002220551D01*
X0002462562Y0002220322D01*
X0002461629Y0002220184D01*
X0002460687Y0002220137D01*
X0002441462Y0002220137D01*
X0002440520Y0002220184D01*
X0002439587Y0002220322D01*
X0002438672Y0002220551D01*
X0002437784Y0002220869D01*
X0002436931Y0002221272D01*
X0002436122Y0002221757D01*
X0002435364Y0002222319D01*
X0002434665Y0002222953D01*
X0002434032Y0002223652D01*
X0002433470Y0002224409D01*
X0002432985Y0002225218D01*
X0002432582Y0002226071D01*
X0002432264Y0002226959D01*
X0002432035Y0002227874D01*
X0002431896Y0002228807D01*
X0002431850Y0002229750D01*
X0002431850Y0002251927D01*
X0002431896Y0002252869D01*
X0002432035Y0002253802D01*
X0002432264Y0002254717D01*
X0002432582Y0002255605D01*
X0002432985Y0002256458D01*
X0002433470Y0002257267D01*
X0002434032Y0002258025D01*
X0002434665Y0002258724D01*
X0002435364Y0002259357D01*
X0002436122Y0002259919D01*
X0002436931Y0002260404D01*
X0002437784Y0002260807D01*
X0002438672Y0002261125D01*
X0002439587Y0002261354D01*
X0002440520Y0002261493D01*
X0002441462Y0002261539D01*
X0002460687Y0002261539D01*
X0002461629Y0002261493D01*
G37*
G36*
X0002399621Y0002261493D02*
G01*
X0002400554Y0002261354D01*
X0002401469Y0002261125D01*
X0002402357Y0002260807D01*
X0002403210Y0002260404D01*
X0002404019Y0002259919D01*
X0002404777Y0002259357D01*
X0002405475Y0002258724D01*
X0002406109Y0002258025D01*
X0002406671Y0002257267D01*
X0002407156Y0002256458D01*
X0002407559Y0002255605D01*
X0002407877Y0002254717D01*
X0002408106Y0002253802D01*
X0002408245Y0002252869D01*
X0002408291Y0002251927D01*
X0002408291Y0002229750D01*
X0002408245Y0002228807D01*
X0002408106Y0002227874D01*
X0002407877Y0002226959D01*
X0002407559Y0002226071D01*
X0002407156Y0002225218D01*
X0002406671Y0002224409D01*
X0002406109Y0002223652D01*
X0002405475Y0002222953D01*
X0002404777Y0002222319D01*
X0002404019Y0002221757D01*
X0002403210Y0002221272D01*
X0002402357Y0002220869D01*
X0002401469Y0002220551D01*
X0002400554Y0002220322D01*
X0002399621Y0002220184D01*
X0002398679Y0002220137D01*
X0002379454Y0002220137D01*
X0002378512Y0002220184D01*
X0002377579Y0002220322D01*
X0002376664Y0002220551D01*
X0002375776Y0002220869D01*
X0002374923Y0002221272D01*
X0002374114Y0002221757D01*
X0002373356Y0002222319D01*
X0002372657Y0002222953D01*
X0002372024Y0002223652D01*
X0002371462Y0002224409D01*
X0002370977Y0002225218D01*
X0002370574Y0002226071D01*
X0002370256Y0002226959D01*
X0002370027Y0002227874D01*
X0002369888Y0002228807D01*
X0002369842Y0002229750D01*
X0002369842Y0002251927D01*
X0002369888Y0002252869D01*
X0002370027Y0002253802D01*
X0002370256Y0002254717D01*
X0002370574Y0002255605D01*
X0002370977Y0002256458D01*
X0002371462Y0002257267D01*
X0002372024Y0002258025D01*
X0002372657Y0002258724D01*
X0002373356Y0002259357D01*
X0002374114Y0002259919D01*
X0002374923Y0002260404D01*
X0002375776Y0002260807D01*
X0002376664Y0002261125D01*
X0002377579Y0002261354D01*
X0002378512Y0002261493D01*
X0002379454Y0002261539D01*
X0002398679Y0002261539D01*
X0002399621Y0002261493D01*
G37*
G36*
X0002650054Y0000880154D02*
G01*
X0002650987Y0000880016D01*
X0002651902Y0000879786D01*
X0002652790Y0000879469D01*
X0002653643Y0000879065D01*
X0002654452Y0000878580D01*
X0002655210Y0000878018D01*
X0002655909Y0000877385D01*
X0002656542Y0000876686D01*
X0002657104Y0000875928D01*
X0002657589Y0000875119D01*
X0002657992Y0000874267D01*
X0002658310Y0000873378D01*
X0002658539Y0000872463D01*
X0002658678Y0000871530D01*
X0002658724Y0000870588D01*
X0002658724Y0000848411D01*
X0002658678Y0000847469D01*
X0002658539Y0000846536D01*
X0002658310Y0000845621D01*
X0002657992Y0000844732D01*
X0002657589Y0000843880D01*
X0002657104Y0000843071D01*
X0002656542Y0000842313D01*
X0002655909Y0000841614D01*
X0002655210Y0000840981D01*
X0002654452Y0000840419D01*
X0002653643Y0000839934D01*
X0002652790Y0000839530D01*
X0002651902Y0000839213D01*
X0002650987Y0000838983D01*
X0002650054Y0000838845D01*
X0002649112Y0000838799D01*
X0002629887Y0000838799D01*
X0002628945Y0000838845D01*
X0002628012Y0000838983D01*
X0002627097Y0000839213D01*
X0002626209Y0000839530D01*
X0002625356Y0000839934D01*
X0002624547Y0000840419D01*
X0002623789Y0000840981D01*
X0002623090Y0000841614D01*
X0002622457Y0000842313D01*
X0002621895Y0000843071D01*
X0002621410Y0000843880D01*
X0002621007Y0000844732D01*
X0002620689Y0000845621D01*
X0002620460Y0000846536D01*
X0002620321Y0000847469D01*
X0002620275Y0000848411D01*
X0002620275Y0000870588D01*
X0002620321Y0000871530D01*
X0002620460Y0000872463D01*
X0002620689Y0000873378D01*
X0002621007Y0000874267D01*
X0002621410Y0000875119D01*
X0002621895Y0000875928D01*
X0002622457Y0000876686D01*
X0002623090Y0000877385D01*
X0002623789Y0000878018D01*
X0002624547Y0000878580D01*
X0002625356Y0000879065D01*
X0002626209Y0000879469D01*
X0002627097Y0000879786D01*
X0002628012Y0000880016D01*
X0002628945Y0000880154D01*
X0002629887Y0000880200D01*
X0002649112Y0000880200D01*
X0002650054Y0000880154D01*
G37*
G36*
X0002712062Y0000880154D02*
G01*
X0002712995Y0000880016D01*
X0002713910Y0000879786D01*
X0002714798Y0000879469D01*
X0002715651Y0000879065D01*
X0002716460Y0000878580D01*
X0002717217Y0000878018D01*
X0002717916Y0000877385D01*
X0002718550Y0000876686D01*
X0002719112Y0000875928D01*
X0002719597Y0000875119D01*
X0002720000Y0000874267D01*
X0002720318Y0000873378D01*
X0002720547Y0000872463D01*
X0002720685Y0000871530D01*
X0002720732Y0000870588D01*
X0002720732Y0000848411D01*
X0002720685Y0000847469D01*
X0002720547Y0000846536D01*
X0002720318Y0000845621D01*
X0002720000Y0000844732D01*
X0002719597Y0000843880D01*
X0002719112Y0000843071D01*
X0002718550Y0000842313D01*
X0002717916Y0000841614D01*
X0002717217Y0000840981D01*
X0002716460Y0000840419D01*
X0002715651Y0000839934D01*
X0002714798Y0000839530D01*
X0002713910Y0000839213D01*
X0002712995Y0000838983D01*
X0002712062Y0000838845D01*
X0002711120Y0000838799D01*
X0002691895Y0000838799D01*
X0002690953Y0000838845D01*
X0002690020Y0000838983D01*
X0002689105Y0000839213D01*
X0002688217Y0000839530D01*
X0002687364Y0000839934D01*
X0002686555Y0000840419D01*
X0002685797Y0000840981D01*
X0002685098Y0000841614D01*
X0002684465Y0000842313D01*
X0002683903Y0000843071D01*
X0002683418Y0000843880D01*
X0002683015Y0000844732D01*
X0002682697Y0000845621D01*
X0002682468Y0000846536D01*
X0002682329Y0000847469D01*
X0002682283Y0000848411D01*
X0002682283Y0000870588D01*
X0002682329Y0000871530D01*
X0002682468Y0000872463D01*
X0002682697Y0000873378D01*
X0002683015Y0000874267D01*
X0002683418Y0000875119D01*
X0002683903Y0000875928D01*
X0002684465Y0000876686D01*
X0002685098Y0000877385D01*
X0002685797Y0000878018D01*
X0002686555Y0000878580D01*
X0002687364Y0000879065D01*
X0002688217Y0000879469D01*
X0002689105Y0000879786D01*
X0002690020Y0000880016D01*
X0002690953Y0000880154D01*
X0002691895Y0000880200D01*
X0002711120Y0000880200D01*
X0002712062Y0000880154D01*
G37*
G36*
X0002361058Y0002210154D02*
G01*
X0002361991Y0002210016D01*
X0002362906Y0002209786D01*
X0002363794Y0002209469D01*
X0002364647Y0002209065D01*
X0002365456Y0002208580D01*
X0002366214Y0002208018D01*
X0002366912Y0002207385D01*
X0002367546Y0002206686D01*
X0002368108Y0002205928D01*
X0002368593Y0002205119D01*
X0002368996Y0002204266D01*
X0002369314Y0002203378D01*
X0002369543Y0002202463D01*
X0002369682Y0002201530D01*
X0002369728Y0002200588D01*
X0002369728Y0002178411D01*
X0002369682Y0002177469D01*
X0002369543Y0002176536D01*
X0002369314Y0002175621D01*
X0002368996Y0002174732D01*
X0002368593Y0002173880D01*
X0002368108Y0002173071D01*
X0002367546Y0002172313D01*
X0002366912Y0002171614D01*
X0002366214Y0002170981D01*
X0002365456Y0002170419D01*
X0002364647Y0002169934D01*
X0002363794Y0002169530D01*
X0002362906Y0002169213D01*
X0002361991Y0002168983D01*
X0002361058Y0002168845D01*
X0002360116Y0002168799D01*
X0002340891Y0002168799D01*
X0002339949Y0002168845D01*
X0002339016Y0002168983D01*
X0002338101Y0002169213D01*
X0002337213Y0002169530D01*
X0002336360Y0002169934D01*
X0002335551Y0002170419D01*
X0002334793Y0002170981D01*
X0002334094Y0002171614D01*
X0002333461Y0002172313D01*
X0002332899Y0002173071D01*
X0002332414Y0002173880D01*
X0002332011Y0002174732D01*
X0002331693Y0002175621D01*
X0002331464Y0002176536D01*
X0002331325Y0002177469D01*
X0002331279Y0002178411D01*
X0002331279Y0002200588D01*
X0002331325Y0002201530D01*
X0002331464Y0002202463D01*
X0002331693Y0002203378D01*
X0002332011Y0002204266D01*
X0002332414Y0002205119D01*
X0002332899Y0002205928D01*
X0002333461Y0002206686D01*
X0002334094Y0002207385D01*
X0002334793Y0002208018D01*
X0002335551Y0002208580D01*
X0002336360Y0002209065D01*
X0002337213Y0002209469D01*
X0002338101Y0002209786D01*
X0002339016Y0002210016D01*
X0002339949Y0002210154D01*
X0002340891Y0002210200D01*
X0002360116Y0002210200D01*
X0002361058Y0002210154D01*
G37*
G36*
X0002299050Y0002210154D02*
G01*
X0002299983Y0002210016D01*
X0002300898Y0002209786D01*
X0002301786Y0002209469D01*
X0002302639Y0002209065D01*
X0002303448Y0002208580D01*
X0002304206Y0002208018D01*
X0002304905Y0002207385D01*
X0002305538Y0002206686D01*
X0002306100Y0002205928D01*
X0002306585Y0002205119D01*
X0002306988Y0002204266D01*
X0002307306Y0002203378D01*
X0002307535Y0002202463D01*
X0002307674Y0002201530D01*
X0002307720Y0002200588D01*
X0002307720Y0002178411D01*
X0002307674Y0002177469D01*
X0002307535Y0002176536D01*
X0002307306Y0002175621D01*
X0002306988Y0002174732D01*
X0002306585Y0002173880D01*
X0002306100Y0002173071D01*
X0002305538Y0002172313D01*
X0002304905Y0002171614D01*
X0002304206Y0002170981D01*
X0002303448Y0002170419D01*
X0002302639Y0002169934D01*
X0002301786Y0002169530D01*
X0002300898Y0002169213D01*
X0002299983Y0002168983D01*
X0002299050Y0002168845D01*
X0002298108Y0002168799D01*
X0002278883Y0002168799D01*
X0002277941Y0002168845D01*
X0002277008Y0002168983D01*
X0002276093Y0002169213D01*
X0002275205Y0002169530D01*
X0002274352Y0002169934D01*
X0002273543Y0002170419D01*
X0002272785Y0002170981D01*
X0002272086Y0002171614D01*
X0002271453Y0002172313D01*
X0002270891Y0002173071D01*
X0002270406Y0002173880D01*
X0002270003Y0002174732D01*
X0002269685Y0002175621D01*
X0002269456Y0002176536D01*
X0002269317Y0002177469D01*
X0002269271Y0002178411D01*
X0002269271Y0002200588D01*
X0002269317Y0002201530D01*
X0002269456Y0002202463D01*
X0002269685Y0002203378D01*
X0002270003Y0002204266D01*
X0002270406Y0002205119D01*
X0002270891Y0002205928D01*
X0002271453Y0002206686D01*
X0002272086Y0002207385D01*
X0002272785Y0002208018D01*
X0002273543Y0002208580D01*
X0002274352Y0002209065D01*
X0002275205Y0002209469D01*
X0002276093Y0002209786D01*
X0002277008Y0002210016D01*
X0002277941Y0002210154D01*
X0002278883Y0002210200D01*
X0002298108Y0002210200D01*
X0002299050Y0002210154D01*
G37*
G36*
X0001788696Y0002209426D02*
G01*
X0001789629Y0002209287D01*
X0001790544Y0002209058D01*
X0001791432Y0002208740D01*
X0001792285Y0002208337D01*
X0001793094Y0002207852D01*
X0001793851Y0002207290D01*
X0001794550Y0002206657D01*
X0001795184Y0002205958D01*
X0001795746Y0002205200D01*
X0001796231Y0002204391D01*
X0001796634Y0002203538D01*
X0001796952Y0002202650D01*
X0001797181Y0002201735D01*
X0001797319Y0002200802D01*
X0001797366Y0002199860D01*
X0001797366Y0002180635D01*
X0001797319Y0002179693D01*
X0001797181Y0002178760D01*
X0001796952Y0002177845D01*
X0001796634Y0002176957D01*
X0001796231Y0002176104D01*
X0001795746Y0002175295D01*
X0001795184Y0002174537D01*
X0001794550Y0002173838D01*
X0001793851Y0002173205D01*
X0001793094Y0002172643D01*
X0001792285Y0002172158D01*
X0001791432Y0002171755D01*
X0001790544Y0002171437D01*
X0001789629Y0002171208D01*
X0001788696Y0002171069D01*
X0001787753Y0002171023D01*
X0001765576Y0002171023D01*
X0001764634Y0002171069D01*
X0001763701Y0002171208D01*
X0001762786Y0002171437D01*
X0001761898Y0002171755D01*
X0001761045Y0002172158D01*
X0001760236Y0002172643D01*
X0001759478Y0002173205D01*
X0001758779Y0002173838D01*
X0001758146Y0002174537D01*
X0001757584Y0002175295D01*
X0001757099Y0002176104D01*
X0001756696Y0002176957D01*
X0001756378Y0002177845D01*
X0001756149Y0002178760D01*
X0001756010Y0002179693D01*
X0001755964Y0002180635D01*
X0001755964Y0002199860D01*
X0001756010Y0002200802D01*
X0001756149Y0002201735D01*
X0001756378Y0002202650D01*
X0001756696Y0002203538D01*
X0001757099Y0002204391D01*
X0001757584Y0002205200D01*
X0001758146Y0002205958D01*
X0001758779Y0002206657D01*
X0001759478Y0002207290D01*
X0001760236Y0002207852D01*
X0001761045Y0002208337D01*
X0001761898Y0002208740D01*
X0001762786Y0002209058D01*
X0001763701Y0002209287D01*
X0001764634Y0002209426D01*
X0001765576Y0002209472D01*
X0001787753Y0002209472D01*
X0001788696Y0002209426D01*
G37*
G36*
X0001788696Y0002147418D02*
G01*
X0001789629Y0002147279D01*
X0001790544Y0002147050D01*
X0001791432Y0002146732D01*
X0001792285Y0002146329D01*
X0001793094Y0002145844D01*
X0001793851Y0002145282D01*
X0001794550Y0002144649D01*
X0001795184Y0002143950D01*
X0001795746Y0002143192D01*
X0001796231Y0002142383D01*
X0001796634Y0002141530D01*
X0001796952Y0002140642D01*
X0001797181Y0002139727D01*
X0001797319Y0002138794D01*
X0001797366Y0002137852D01*
X0001797366Y0002118627D01*
X0001797319Y0002117685D01*
X0001797181Y0002116752D01*
X0001796952Y0002115837D01*
X0001796634Y0002114949D01*
X0001796231Y0002114096D01*
X0001795746Y0002113287D01*
X0001795184Y0002112530D01*
X0001794550Y0002111831D01*
X0001793851Y0002111197D01*
X0001793094Y0002110635D01*
X0001792285Y0002110150D01*
X0001791432Y0002109747D01*
X0001790544Y0002109429D01*
X0001789629Y0002109200D01*
X0001788696Y0002109062D01*
X0001787753Y0002109015D01*
X0001765576Y0002109015D01*
X0001764634Y0002109062D01*
X0001763701Y0002109200D01*
X0001762786Y0002109429D01*
X0001761898Y0002109747D01*
X0001761045Y0002110150D01*
X0001760236Y0002110635D01*
X0001759478Y0002111197D01*
X0001758779Y0002111831D01*
X0001758146Y0002112530D01*
X0001757584Y0002113287D01*
X0001757099Y0002114096D01*
X0001756696Y0002114949D01*
X0001756378Y0002115837D01*
X0001756149Y0002116752D01*
X0001756010Y0002117685D01*
X0001755964Y0002118627D01*
X0001755964Y0002137852D01*
X0001756010Y0002138794D01*
X0001756149Y0002139727D01*
X0001756378Y0002140642D01*
X0001756696Y0002141530D01*
X0001757099Y0002142383D01*
X0001757584Y0002143192D01*
X0001758146Y0002143950D01*
X0001758779Y0002144649D01*
X0001759478Y0002145282D01*
X0001760236Y0002145844D01*
X0001761045Y0002146329D01*
X0001761898Y0002146732D01*
X0001762786Y0002147050D01*
X0001763701Y0002147279D01*
X0001764634Y0002147418D01*
X0001765576Y0002147464D01*
X0001787753Y0002147464D01*
X0001788696Y0002147418D01*
G37*
G36*
X0001721530Y0002147674D02*
G01*
X0001722463Y0002147535D01*
X0001723378Y0002147306D01*
X0001724266Y0002146988D01*
X0001725119Y0002146585D01*
X0001725928Y0002146100D01*
X0001726686Y0002145538D01*
X0001727385Y0002144905D01*
X0001728018Y0002144206D01*
X0001728580Y0002143448D01*
X0001729065Y0002142639D01*
X0001729469Y0002141786D01*
X0001729786Y0002140898D01*
X0001730016Y0002139983D01*
X0001730154Y0002139050D01*
X0001730200Y0002138108D01*
X0001730200Y0002118883D01*
X0001730154Y0002117941D01*
X0001730016Y0002117008D01*
X0001729786Y0002116093D01*
X0001729469Y0002115205D01*
X0001729065Y0002114352D01*
X0001728580Y0002113543D01*
X0001728018Y0002112785D01*
X0001727385Y0002112086D01*
X0001726686Y0002111453D01*
X0001725928Y0002110891D01*
X0001725119Y0002110406D01*
X0001724266Y0002110003D01*
X0001723378Y0002109685D01*
X0001722463Y0002109456D01*
X0001721530Y0002109317D01*
X0001720588Y0002109271D01*
X0001698411Y0002109271D01*
X0001697469Y0002109317D01*
X0001696536Y0002109456D01*
X0001695621Y0002109685D01*
X0001694732Y0002110003D01*
X0001693880Y0002110406D01*
X0001693071Y0002110891D01*
X0001692313Y0002111453D01*
X0001691614Y0002112086D01*
X0001690981Y0002112785D01*
X0001690419Y0002113543D01*
X0001689934Y0002114352D01*
X0001689530Y0002115205D01*
X0001689213Y0002116093D01*
X0001688983Y0002117008D01*
X0001688845Y0002117941D01*
X0001688799Y0002118883D01*
X0001688799Y0002138108D01*
X0001688845Y0002139050D01*
X0001688983Y0002139983D01*
X0001689213Y0002140898D01*
X0001689530Y0002141786D01*
X0001689934Y0002142639D01*
X0001690419Y0002143448D01*
X0001690981Y0002144206D01*
X0001691614Y0002144905D01*
X0001692313Y0002145538D01*
X0001693071Y0002146100D01*
X0001693880Y0002146585D01*
X0001694732Y0002146988D01*
X0001695621Y0002147306D01*
X0001696536Y0002147535D01*
X0001697469Y0002147674D01*
X0001698411Y0002147720D01*
X0001720588Y0002147720D01*
X0001721530Y0002147674D01*
G37*
G36*
X0001721530Y0002209682D02*
G01*
X0001722463Y0002209543D01*
X0001723378Y0002209314D01*
X0001724266Y0002208996D01*
X0001725119Y0002208593D01*
X0001725928Y0002208108D01*
X0001726686Y0002207546D01*
X0001727385Y0002206912D01*
X0001728018Y0002206214D01*
X0001728580Y0002205456D01*
X0001729065Y0002204647D01*
X0001729469Y0002203794D01*
X0001729786Y0002202906D01*
X0001730016Y0002201991D01*
X0001730154Y0002201058D01*
X0001730200Y0002200116D01*
X0001730200Y0002180891D01*
X0001730154Y0002179949D01*
X0001730016Y0002179016D01*
X0001729786Y0002178101D01*
X0001729469Y0002177213D01*
X0001729065Y0002176360D01*
X0001728580Y0002175551D01*
X0001728018Y0002174793D01*
X0001727385Y0002174094D01*
X0001726686Y0002173461D01*
X0001725928Y0002172899D01*
X0001725119Y0002172414D01*
X0001724266Y0002172011D01*
X0001723378Y0002171693D01*
X0001722463Y0002171464D01*
X0001721530Y0002171325D01*
X0001720588Y0002171279D01*
X0001698411Y0002171279D01*
X0001697469Y0002171325D01*
X0001696536Y0002171464D01*
X0001695621Y0002171693D01*
X0001694732Y0002172011D01*
X0001693880Y0002172414D01*
X0001693071Y0002172899D01*
X0001692313Y0002173461D01*
X0001691614Y0002174094D01*
X0001690981Y0002174793D01*
X0001690419Y0002175551D01*
X0001689934Y0002176360D01*
X0001689530Y0002177213D01*
X0001689213Y0002178101D01*
X0001688983Y0002179016D01*
X0001688845Y0002179949D01*
X0001688799Y0002180891D01*
X0001688799Y0002200116D01*
X0001688845Y0002201058D01*
X0001688983Y0002201991D01*
X0001689213Y0002202906D01*
X0001689530Y0002203794D01*
X0001689934Y0002204647D01*
X0001690419Y0002205456D01*
X0001690981Y0002206214D01*
X0001691614Y0002206912D01*
X0001692313Y0002207546D01*
X0001693071Y0002208108D01*
X0001693880Y0002208593D01*
X0001694732Y0002208996D01*
X0001695621Y0002209314D01*
X0001696536Y0002209543D01*
X0001697469Y0002209682D01*
X0001698411Y0002209728D01*
X0001720588Y0002209728D01*
X0001721530Y0002209682D01*
G37*
G36*
X0001831530Y0001928678D02*
G01*
X0001832463Y0001928539D01*
X0001833378Y0001928310D01*
X0001834267Y0001927992D01*
X0001835119Y0001927589D01*
X0001835928Y0001927104D01*
X0001836686Y0001926542D01*
X0001837385Y0001925909D01*
X0001838018Y0001925210D01*
X0001838580Y0001924452D01*
X0001839065Y0001923643D01*
X0001839469Y0001922790D01*
X0001839786Y0001921902D01*
X0001840016Y0001920987D01*
X0001840154Y0001920054D01*
X0001840200Y0001919112D01*
X0001840200Y0001899887D01*
X0001840154Y0001898945D01*
X0001840016Y0001898012D01*
X0001839786Y0001897097D01*
X0001839469Y0001896209D01*
X0001839065Y0001895356D01*
X0001838580Y0001894547D01*
X0001838018Y0001893789D01*
X0001837385Y0001893090D01*
X0001836686Y0001892457D01*
X0001835928Y0001891895D01*
X0001835119Y0001891410D01*
X0001834267Y0001891007D01*
X0001833378Y0001890689D01*
X0001832463Y0001890460D01*
X0001831530Y0001890321D01*
X0001830588Y0001890275D01*
X0001808411Y0001890275D01*
X0001807469Y0001890321D01*
X0001806536Y0001890460D01*
X0001805621Y0001890689D01*
X0001804732Y0001891007D01*
X0001803880Y0001891410D01*
X0001803071Y0001891895D01*
X0001802313Y0001892457D01*
X0001801614Y0001893090D01*
X0001800981Y0001893789D01*
X0001800419Y0001894547D01*
X0001799934Y0001895356D01*
X0001799530Y0001896209D01*
X0001799213Y0001897097D01*
X0001798983Y0001898012D01*
X0001798845Y0001898945D01*
X0001798799Y0001899887D01*
X0001798799Y0001919112D01*
X0001798845Y0001920054D01*
X0001798983Y0001920987D01*
X0001799213Y0001921902D01*
X0001799530Y0001922790D01*
X0001799934Y0001923643D01*
X0001800419Y0001924452D01*
X0001800981Y0001925210D01*
X0001801614Y0001925909D01*
X0001802313Y0001926542D01*
X0001803071Y0001927104D01*
X0001803880Y0001927589D01*
X0001804732Y0001927992D01*
X0001805621Y0001928310D01*
X0001806536Y0001928539D01*
X0001807469Y0001928678D01*
X0001808411Y0001928724D01*
X0001830588Y0001928724D01*
X0001831530Y0001928678D01*
G37*
G36*
X0001831530Y0001990685D02*
G01*
X0001832463Y0001990547D01*
X0001833378Y0001990318D01*
X0001834267Y0001990000D01*
X0001835119Y0001989597D01*
X0001835928Y0001989112D01*
X0001836686Y0001988550D01*
X0001837385Y0001987916D01*
X0001838018Y0001987217D01*
X0001838580Y0001986460D01*
X0001839065Y0001985651D01*
X0001839469Y0001984798D01*
X0001839786Y0001983910D01*
X0001840016Y0001982995D01*
X0001840154Y0001982062D01*
X0001840200Y0001981120D01*
X0001840200Y0001961895D01*
X0001840154Y0001960953D01*
X0001840016Y0001960020D01*
X0001839786Y0001959105D01*
X0001839469Y0001958217D01*
X0001839065Y0001957364D01*
X0001838580Y0001956555D01*
X0001838018Y0001955797D01*
X0001837385Y0001955098D01*
X0001836686Y0001954465D01*
X0001835928Y0001953903D01*
X0001835119Y0001953418D01*
X0001834267Y0001953015D01*
X0001833378Y0001952697D01*
X0001832463Y0001952468D01*
X0001831530Y0001952329D01*
X0001830588Y0001952283D01*
X0001808411Y0001952283D01*
X0001807469Y0001952329D01*
X0001806536Y0001952468D01*
X0001805621Y0001952697D01*
X0001804732Y0001953015D01*
X0001803880Y0001953418D01*
X0001803071Y0001953903D01*
X0001802313Y0001954465D01*
X0001801614Y0001955098D01*
X0001800981Y0001955797D01*
X0001800419Y0001956555D01*
X0001799934Y0001957364D01*
X0001799530Y0001958217D01*
X0001799213Y0001959105D01*
X0001798983Y0001960020D01*
X0001798845Y0001960953D01*
X0001798799Y0001961895D01*
X0001798799Y0001981120D01*
X0001798845Y0001982062D01*
X0001798983Y0001982995D01*
X0001799213Y0001983910D01*
X0001799530Y0001984798D01*
X0001799934Y0001985651D01*
X0001800419Y0001986460D01*
X0001800981Y0001987217D01*
X0001801614Y0001987916D01*
X0001802313Y0001988550D01*
X0001803071Y0001989112D01*
X0001803880Y0001989597D01*
X0001804732Y0001990000D01*
X0001805621Y0001990318D01*
X0001806536Y0001990547D01*
X0001807469Y0001990685D01*
X0001808411Y0001990732D01*
X0001830588Y0001990732D01*
X0001831530Y0001990685D01*
G37*
G36*
X0002115763Y0000811886D02*
G01*
X0002116696Y0000811748D01*
X0002117611Y0000811519D01*
X0002118499Y0000811201D01*
X0002119352Y0000810798D01*
X0002120161Y0000810313D01*
X0002120918Y0000809751D01*
X0002121617Y0000809117D01*
X0002122251Y0000808418D01*
X0002122813Y0000807661D01*
X0002123298Y0000806852D01*
X0002123701Y0000805999D01*
X0002124019Y0000805111D01*
X0002124248Y0000804196D01*
X0002124386Y0000803263D01*
X0002124433Y0000802320D01*
X0002124433Y0000780143D01*
X0002124386Y0000779201D01*
X0002124248Y0000778268D01*
X0002124019Y0000777353D01*
X0002123701Y0000776465D01*
X0002123298Y0000775612D01*
X0002122813Y0000774803D01*
X0002122251Y0000774045D01*
X0002121617Y0000773346D01*
X0002120918Y0000772713D01*
X0002120161Y0000772151D01*
X0002119352Y0000771666D01*
X0002118499Y0000771263D01*
X0002117611Y0000770945D01*
X0002116696Y0000770716D01*
X0002115763Y0000770577D01*
X0002114820Y0000770531D01*
X0002095596Y0000770531D01*
X0002094654Y0000770577D01*
X0002093721Y0000770716D01*
X0002092806Y0000770945D01*
X0002091918Y0000771263D01*
X0002091065Y0000771666D01*
X0002090256Y0000772151D01*
X0002089498Y0000772713D01*
X0002088799Y0000773346D01*
X0002088166Y0000774045D01*
X0002087604Y0000774803D01*
X0002087119Y0000775612D01*
X0002086715Y0000776465D01*
X0002086398Y0000777353D01*
X0002086168Y0000778268D01*
X0002086030Y0000779201D01*
X0002085984Y0000780143D01*
X0002085984Y0000802320D01*
X0002086030Y0000803263D01*
X0002086168Y0000804196D01*
X0002086398Y0000805111D01*
X0002086715Y0000805999D01*
X0002087119Y0000806852D01*
X0002087604Y0000807661D01*
X0002088166Y0000808418D01*
X0002088799Y0000809117D01*
X0002089498Y0000809751D01*
X0002090256Y0000810313D01*
X0002091065Y0000810798D01*
X0002091918Y0000811201D01*
X0002092806Y0000811519D01*
X0002093721Y0000811748D01*
X0002094654Y0000811886D01*
X0002095596Y0000811933D01*
X0002114820Y0000811933D01*
X0002115763Y0000811886D01*
G37*
G36*
X0002053755Y0000811886D02*
G01*
X0002054688Y0000811748D01*
X0002055603Y0000811519D01*
X0002056491Y0000811201D01*
X0002057344Y0000810798D01*
X0002058153Y0000810313D01*
X0002058910Y0000809751D01*
X0002059609Y0000809117D01*
X0002060243Y0000808418D01*
X0002060805Y0000807661D01*
X0002061290Y0000806852D01*
X0002061693Y0000805999D01*
X0002062011Y0000805111D01*
X0002062240Y0000804196D01*
X0002062378Y0000803263D01*
X0002062425Y0000802320D01*
X0002062425Y0000780143D01*
X0002062378Y0000779201D01*
X0002062240Y0000778268D01*
X0002062011Y0000777353D01*
X0002061693Y0000776465D01*
X0002061290Y0000775612D01*
X0002060805Y0000774803D01*
X0002060243Y0000774045D01*
X0002059609Y0000773346D01*
X0002058910Y0000772713D01*
X0002058153Y0000772151D01*
X0002057344Y0000771666D01*
X0002056491Y0000771263D01*
X0002055603Y0000770945D01*
X0002054688Y0000770716D01*
X0002053755Y0000770577D01*
X0002052812Y0000770531D01*
X0002033588Y0000770531D01*
X0002032646Y0000770577D01*
X0002031713Y0000770716D01*
X0002030798Y0000770945D01*
X0002029910Y0000771263D01*
X0002029057Y0000771666D01*
X0002028248Y0000772151D01*
X0002027490Y0000772713D01*
X0002026791Y0000773346D01*
X0002026158Y0000774045D01*
X0002025596Y0000774803D01*
X0002025111Y0000775612D01*
X0002024708Y0000776465D01*
X0002024390Y0000777353D01*
X0002024161Y0000778268D01*
X0002024022Y0000779201D01*
X0002023976Y0000780143D01*
X0002023976Y0000802320D01*
X0002024022Y0000803263D01*
X0002024161Y0000804196D01*
X0002024390Y0000805111D01*
X0002024708Y0000805999D01*
X0002025111Y0000806852D01*
X0002025596Y0000807661D01*
X0002026158Y0000808418D01*
X0002026791Y0000809117D01*
X0002027490Y0000809751D01*
X0002028248Y0000810313D01*
X0002029057Y0000810798D01*
X0002029910Y0000811201D01*
X0002030798Y0000811519D01*
X0002031713Y0000811748D01*
X0002032646Y0000811886D01*
X0002033588Y0000811933D01*
X0002052812Y0000811933D01*
X0002053755Y0000811886D01*
G37*
D34*
X0001556732Y0000491208D03*
X0001576417Y0000491208D03*
X0001596102Y0000491208D03*
X0001615787Y0000491208D03*
X0001635472Y0000491208D03*
X0001655157Y0000491208D03*
X0001674842Y0000491208D03*
X0001694527Y0000491208D03*
X0001714212Y0000491208D03*
X0001733897Y0000491208D03*
X0001753582Y0000491208D03*
X0001773267Y0000491208D03*
D35*
X0001834291Y0000552232D03*
X0001834291Y0000571917D03*
X0001834291Y0000591602D03*
X0001834291Y0000611287D03*
X0001834291Y0000630972D03*
X0001834291Y0000650657D03*
X0001834291Y0000670342D03*
X0001834291Y0000690027D03*
X0001834291Y0000709712D03*
X0001834291Y0000729397D03*
X0001834291Y0000749082D03*
X0001834291Y0000768767D03*
D34*
X0001773267Y0000829791D03*
X0001753582Y0000829791D03*
X0001733897Y0000829791D03*
X0001714212Y0000829791D03*
X0001694527Y0000829791D03*
X0001674842Y0000829791D03*
X0001655157Y0000829791D03*
X0001635472Y0000829791D03*
X0001615787Y0000829791D03*
X0001596102Y0000829791D03*
X0001576417Y0000829791D03*
X0001556732Y0000829791D03*
D35*
X0001495708Y0000768767D03*
X0001495708Y0000749082D03*
X0001495708Y0000729397D03*
X0001495708Y0000709712D03*
X0001495708Y0000690027D03*
X0001495708Y0000670342D03*
X0001495708Y0000650657D03*
X0001495708Y0000630972D03*
X0001495708Y0000611287D03*
X0001495708Y0000591602D03*
X0001495708Y0000571917D03*
X0001495708Y0000552232D03*
D36*
X0001665000Y0000660500D03*
D37*
X0001154539Y0000259500D03*
X0001284460Y0000259500D03*
X0002863279Y0000127452D03*
X0002733358Y0000127452D03*
G04 next file*
%LPD*%
G04 #@! TF.GenerationSoftware,KiCad,Pcbnew,(5.1.5-0)*
G04 #@! TF.CreationDate,2020-08-20T14:13:21-04:00*
G04 #@! TF.ProjectId,GrBLDC,4772424c-4443-42e6-9b69-6361645f7063,rev?*
G04 #@! TF.SameCoordinates,PX5a7646cPY8128a60*
G04 #@! TF.FileFunction,Paste,Top*
G04 #@! TF.FilePolarity,Positive*
G04 Gerber Fmt 4.6, Leading zero omitted, Abs format (unit mm)*
G04 Created by KiCad (PCBNEW (5.1.5-0)) date 2020-08-20 14:13:21*
G04 APERTURE LIST*
G04 APERTURE END LIST*
D48*
X0000000000Y0002480314D02*
X0003493342Y0003668314D03*
X0003493342Y0003693905D03*
X0003493342Y0003719496D03*
X0003493342Y0003745086D03*
X0003272870Y0003591543D03*
X0003493342Y0003591543D03*
X0003493342Y0003617133D03*
X0003493342Y0003642724D03*
X0003272870Y0003770677D03*
X0003272870Y0003745086D03*
X0003272870Y0003719496D03*
X0003272870Y0003693905D03*
X0003272870Y0003668314D03*
X0003272870Y0003642724D03*
X0003493342Y0003770677D03*
X0003272870Y0003617133D03*
X0003493342Y0003565952D03*
X0003493342Y0003796267D03*
X0003272870Y0003796267D03*
X0003272870Y0003565952D03*
X0003493342Y0003540362D03*
X0003493342Y0003821858D03*
X0003272870Y0003821858D03*
X0003272870Y0003540362D03*
X0003493342Y0003514771D03*
X0003493342Y0003847448D03*
X0003272870Y0003847448D03*
X0003272870Y0003514771D03*
D49*
X0003383106Y0003668314D03*
D50*
X0001720000Y0004440842D03*
X0001720000Y0004381787D03*
D51*
X0002754980Y0003478326D03*
X0002754980Y0003017303D03*
D50*
X0002087795Y0002809448D03*
X0002087795Y0002750393D03*
D52*
G36*
X0002892030Y0003278745D02*
G01*
X0002892963Y0003278606D01*
X0002893878Y0003278377D01*
X0002894767Y0003278059D01*
X0002895619Y0003277656D01*
X0002896428Y0003277171D01*
X0002897186Y0003276609D01*
X0002897885Y0003275975D01*
X0002898518Y0003275277D01*
X0002899080Y0003274519D01*
X0002899565Y0003273710D01*
X0002899969Y0003272857D01*
X0002900286Y0003271969D01*
X0002900516Y0003271054D01*
X0002900654Y0003270121D01*
X0002900700Y0003269179D01*
X0002900700Y0003249954D01*
X0002900654Y0003249012D01*
X0002900516Y0003248079D01*
X0002900286Y0003247164D01*
X0002899969Y0003246276D01*
X0002899565Y0003245423D01*
X0002899080Y0003244614D01*
X0002898518Y0003243856D01*
X0002897885Y0003243157D01*
X0002897186Y0003242524D01*
X0002896428Y0003241962D01*
X0002895619Y0003241477D01*
X0002894767Y0003241074D01*
X0002893878Y0003240756D01*
X0002892963Y0003240527D01*
X0002892030Y0003240388D01*
X0002891088Y0003240342D01*
X0002868911Y0003240342D01*
X0002867969Y0003240388D01*
X0002867036Y0003240527D01*
X0002866121Y0003240756D01*
X0002865232Y0003241074D01*
X0002864380Y0003241477D01*
X0002863571Y0003241962D01*
X0002862813Y0003242524D01*
X0002862114Y0003243157D01*
X0002861481Y0003243856D01*
X0002860919Y0003244614D01*
X0002860434Y0003245423D01*
X0002860030Y0003246276D01*
X0002859713Y0003247164D01*
X0002859483Y0003248079D01*
X0002859345Y0003249012D01*
X0002859299Y0003249954D01*
X0002859299Y0003269179D01*
X0002859345Y0003270121D01*
X0002859483Y0003271054D01*
X0002859713Y0003271969D01*
X0002860030Y0003272857D01*
X0002860434Y0003273710D01*
X0002860919Y0003274519D01*
X0002861481Y0003275277D01*
X0002862114Y0003275975D01*
X0002862813Y0003276609D01*
X0002863571Y0003277171D01*
X0002864380Y0003277656D01*
X0002865232Y0003278059D01*
X0002866121Y0003278377D01*
X0002867036Y0003278606D01*
X0002867969Y0003278745D01*
X0002868911Y0003278791D01*
X0002891088Y0003278791D01*
X0002892030Y0003278745D01*
G37*
G36*
X0002892030Y0003216737D02*
G01*
X0002892963Y0003216598D01*
X0002893878Y0003216369D01*
X0002894767Y0003216051D01*
X0002895619Y0003215648D01*
X0002896428Y0003215163D01*
X0002897186Y0003214601D01*
X0002897885Y0003213968D01*
X0002898518Y0003213269D01*
X0002899080Y0003212511D01*
X0002899565Y0003211702D01*
X0002899969Y0003210849D01*
X0002900286Y0003209961D01*
X0002900516Y0003209046D01*
X0002900654Y0003208113D01*
X0002900700Y0003207171D01*
X0002900700Y0003187946D01*
X0002900654Y0003187004D01*
X0002900516Y0003186071D01*
X0002900286Y0003185156D01*
X0002899969Y0003184268D01*
X0002899565Y0003183415D01*
X0002899080Y0003182606D01*
X0002898518Y0003181848D01*
X0002897885Y0003181150D01*
X0002897186Y0003180516D01*
X0002896428Y0003179954D01*
X0002895619Y0003179469D01*
X0002894767Y0003179066D01*
X0002893878Y0003178748D01*
X0002892963Y0003178519D01*
X0002892030Y0003178380D01*
X0002891088Y0003178334D01*
X0002868911Y0003178334D01*
X0002867969Y0003178380D01*
X0002867036Y0003178519D01*
X0002866121Y0003178748D01*
X0002865232Y0003179066D01*
X0002864380Y0003179469D01*
X0002863571Y0003179954D01*
X0002862813Y0003180516D01*
X0002862114Y0003181150D01*
X0002861481Y0003181848D01*
X0002860919Y0003182606D01*
X0002860434Y0003183415D01*
X0002860030Y0003184268D01*
X0002859713Y0003185156D01*
X0002859483Y0003186071D01*
X0002859345Y0003187004D01*
X0002859299Y0003187946D01*
X0002859299Y0003207171D01*
X0002859345Y0003208113D01*
X0002859483Y0003209046D01*
X0002859713Y0003209961D01*
X0002860030Y0003210849D01*
X0002860434Y0003211702D01*
X0002860919Y0003212511D01*
X0002861481Y0003213269D01*
X0002862114Y0003213968D01*
X0002862813Y0003214601D01*
X0002863571Y0003215163D01*
X0002864380Y0003215648D01*
X0002865232Y0003216051D01*
X0002866121Y0003216369D01*
X0002867036Y0003216598D01*
X0002867969Y0003216737D01*
X0002868911Y0003216783D01*
X0002891088Y0003216783D01*
X0002892030Y0003216737D01*
G37*
G36*
X0002772030Y0003278449D02*
G01*
X0002772963Y0003278311D01*
X0002773878Y0003278082D01*
X0002774767Y0003277764D01*
X0002775619Y0003277361D01*
X0002776428Y0003276876D01*
X0002777186Y0003276314D01*
X0002777885Y0003275680D01*
X0002778518Y0003274981D01*
X0002779080Y0003274224D01*
X0002779565Y0003273415D01*
X0002779969Y0003272562D01*
X0002780286Y0003271674D01*
X0002780516Y0003270759D01*
X0002780654Y0003269826D01*
X0002780700Y0003268883D01*
X0002780700Y0003249659D01*
X0002780654Y0003248717D01*
X0002780516Y0003247784D01*
X0002780286Y0003246869D01*
X0002779969Y0003245981D01*
X0002779565Y0003245128D01*
X0002779080Y0003244319D01*
X0002778518Y0003243561D01*
X0002777885Y0003242862D01*
X0002777186Y0003242229D01*
X0002776428Y0003241667D01*
X0002775619Y0003241182D01*
X0002774767Y0003240778D01*
X0002773878Y0003240461D01*
X0002772963Y0003240231D01*
X0002772030Y0003240093D01*
X0002771088Y0003240047D01*
X0002748911Y0003240047D01*
X0002747969Y0003240093D01*
X0002747036Y0003240231D01*
X0002746121Y0003240461D01*
X0002745232Y0003240778D01*
X0002744380Y0003241182D01*
X0002743571Y0003241667D01*
X0002742813Y0003242229D01*
X0002742114Y0003242862D01*
X0002741481Y0003243561D01*
X0002740919Y0003244319D01*
X0002740434Y0003245128D01*
X0002740030Y0003245981D01*
X0002739713Y0003246869D01*
X0002739483Y0003247784D01*
X0002739345Y0003248717D01*
X0002739299Y0003249659D01*
X0002739299Y0003268883D01*
X0002739345Y0003269826D01*
X0002739483Y0003270759D01*
X0002739713Y0003271674D01*
X0002740030Y0003272562D01*
X0002740434Y0003273415D01*
X0002740919Y0003274224D01*
X0002741481Y0003274981D01*
X0002742114Y0003275680D01*
X0002742813Y0003276314D01*
X0002743571Y0003276876D01*
X0002744380Y0003277361D01*
X0002745232Y0003277764D01*
X0002746121Y0003278082D01*
X0002747036Y0003278311D01*
X0002747969Y0003278449D01*
X0002748911Y0003278496D01*
X0002771088Y0003278496D01*
X0002772030Y0003278449D01*
G37*
G36*
X0002772030Y0003216441D02*
G01*
X0002772963Y0003216303D01*
X0002773878Y0003216074D01*
X0002774767Y0003215756D01*
X0002775619Y0003215353D01*
X0002776428Y0003214868D01*
X0002777186Y0003214306D01*
X0002777885Y0003213672D01*
X0002778518Y0003212973D01*
X0002779080Y0003212216D01*
X0002779565Y0003211407D01*
X0002779969Y0003210554D01*
X0002780286Y0003209666D01*
X0002780516Y0003208751D01*
X0002780654Y0003207818D01*
X0002780700Y0003206875D01*
X0002780700Y0003187651D01*
X0002780654Y0003186709D01*
X0002780516Y0003185776D01*
X0002780286Y0003184861D01*
X0002779969Y0003183973D01*
X0002779565Y0003183120D01*
X0002779080Y0003182311D01*
X0002778518Y0003181553D01*
X0002777885Y0003180854D01*
X0002777186Y0003180221D01*
X0002776428Y0003179659D01*
X0002775619Y0003179174D01*
X0002774767Y0003178771D01*
X0002773878Y0003178453D01*
X0002772963Y0003178224D01*
X0002772030Y0003178085D01*
X0002771088Y0003178039D01*
X0002748911Y0003178039D01*
X0002747969Y0003178085D01*
X0002747036Y0003178224D01*
X0002746121Y0003178453D01*
X0002745232Y0003178771D01*
X0002744380Y0003179174D01*
X0002743571Y0003179659D01*
X0002742813Y0003180221D01*
X0002742114Y0003180854D01*
X0002741481Y0003181553D01*
X0002740919Y0003182311D01*
X0002740434Y0003183120D01*
X0002740030Y0003183973D01*
X0002739713Y0003184861D01*
X0002739483Y0003185776D01*
X0002739345Y0003186709D01*
X0002739299Y0003187651D01*
X0002739299Y0003206875D01*
X0002739345Y0003207818D01*
X0002739483Y0003208751D01*
X0002739713Y0003209666D01*
X0002740030Y0003210554D01*
X0002740434Y0003211407D01*
X0002740919Y0003212216D01*
X0002741481Y0003212973D01*
X0002742114Y0003213672D01*
X0002742813Y0003214306D01*
X0002743571Y0003214868D01*
X0002744380Y0003215353D01*
X0002745232Y0003215756D01*
X0002746121Y0003216074D01*
X0002747036Y0003216303D01*
X0002747969Y0003216441D01*
X0002748911Y0003216488D01*
X0002771088Y0003216488D01*
X0002772030Y0003216441D01*
G37*
G36*
X0002642030Y0003216737D02*
G01*
X0002642963Y0003216598D01*
X0002643878Y0003216369D01*
X0002644767Y0003216051D01*
X0002645619Y0003215648D01*
X0002646428Y0003215163D01*
X0002647186Y0003214601D01*
X0002647885Y0003213968D01*
X0002648518Y0003213269D01*
X0002649080Y0003212511D01*
X0002649565Y0003211702D01*
X0002649969Y0003210849D01*
X0002650286Y0003209961D01*
X0002650516Y0003209046D01*
X0002650654Y0003208113D01*
X0002650700Y0003207171D01*
X0002650700Y0003187946D01*
X0002650654Y0003187004D01*
X0002650516Y0003186071D01*
X0002650286Y0003185156D01*
X0002649969Y0003184268D01*
X0002649565Y0003183415D01*
X0002649080Y0003182606D01*
X0002648518Y0003181848D01*
X0002647885Y0003181150D01*
X0002647186Y0003180516D01*
X0002646428Y0003179954D01*
X0002645619Y0003179469D01*
X0002644767Y0003179066D01*
X0002643878Y0003178748D01*
X0002642963Y0003178519D01*
X0002642030Y0003178380D01*
X0002641088Y0003178334D01*
X0002618911Y0003178334D01*
X0002617969Y0003178380D01*
X0002617036Y0003178519D01*
X0002616121Y0003178748D01*
X0002615232Y0003179066D01*
X0002614380Y0003179469D01*
X0002613571Y0003179954D01*
X0002612813Y0003180516D01*
X0002612114Y0003181150D01*
X0002611481Y0003181848D01*
X0002610919Y0003182606D01*
X0002610434Y0003183415D01*
X0002610030Y0003184268D01*
X0002609713Y0003185156D01*
X0002609483Y0003186071D01*
X0002609345Y0003187004D01*
X0002609299Y0003187946D01*
X0002609299Y0003207171D01*
X0002609345Y0003208113D01*
X0002609483Y0003209046D01*
X0002609713Y0003209961D01*
X0002610030Y0003210849D01*
X0002610434Y0003211702D01*
X0002610919Y0003212511D01*
X0002611481Y0003213269D01*
X0002612114Y0003213968D01*
X0002612813Y0003214601D01*
X0002613571Y0003215163D01*
X0002614380Y0003215648D01*
X0002615232Y0003216051D01*
X0002616121Y0003216369D01*
X0002617036Y0003216598D01*
X0002617969Y0003216737D01*
X0002618911Y0003216783D01*
X0002641088Y0003216783D01*
X0002642030Y0003216737D01*
G37*
G36*
X0002642030Y0003278745D02*
G01*
X0002642963Y0003278606D01*
X0002643878Y0003278377D01*
X0002644767Y0003278059D01*
X0002645619Y0003277656D01*
X0002646428Y0003277171D01*
X0002647186Y0003276609D01*
X0002647885Y0003275975D01*
X0002648518Y0003275277D01*
X0002649080Y0003274519D01*
X0002649565Y0003273710D01*
X0002649969Y0003272857D01*
X0002650286Y0003271969D01*
X0002650516Y0003271054D01*
X0002650654Y0003270121D01*
X0002650700Y0003269179D01*
X0002650700Y0003249954D01*
X0002650654Y0003249012D01*
X0002650516Y0003248079D01*
X0002650286Y0003247164D01*
X0002649969Y0003246276D01*
X0002649565Y0003245423D01*
X0002649080Y0003244614D01*
X0002648518Y0003243856D01*
X0002647885Y0003243157D01*
X0002647186Y0003242524D01*
X0002646428Y0003241962D01*
X0002645619Y0003241477D01*
X0002644767Y0003241074D01*
X0002643878Y0003240756D01*
X0002642963Y0003240527D01*
X0002642030Y0003240388D01*
X0002641088Y0003240342D01*
X0002618911Y0003240342D01*
X0002617969Y0003240388D01*
X0002617036Y0003240527D01*
X0002616121Y0003240756D01*
X0002615232Y0003241074D01*
X0002614380Y0003241477D01*
X0002613571Y0003241962D01*
X0002612813Y0003242524D01*
X0002612114Y0003243157D01*
X0002611481Y0003243856D01*
X0002610919Y0003244614D01*
X0002610434Y0003245423D01*
X0002610030Y0003246276D01*
X0002609713Y0003247164D01*
X0002609483Y0003248079D01*
X0002609345Y0003249012D01*
X0002609299Y0003249954D01*
X0002609299Y0003269179D01*
X0002609345Y0003270121D01*
X0002609483Y0003271054D01*
X0002609713Y0003271969D01*
X0002610030Y0003272857D01*
X0002610434Y0003273710D01*
X0002610919Y0003274519D01*
X0002611481Y0003275277D01*
X0002612114Y0003275975D01*
X0002612813Y0003276609D01*
X0002613571Y0003277171D01*
X0002614380Y0003277656D01*
X0002615232Y0003278059D01*
X0002616121Y0003278377D01*
X0002617036Y0003278606D01*
X0002617969Y0003278745D01*
X0002618911Y0003278791D01*
X0002641088Y0003278791D01*
X0002642030Y0003278745D01*
G37*
D50*
X0001382283Y0002698425D03*
X0001382283Y0002757480D03*
D53*
X0000522499Y0003463370D03*
X0000522499Y0003345259D03*
D54*
X0001620472Y0002785314D03*
X0001679527Y0002785314D03*
X0001948818Y0003517322D03*
X0001889763Y0003517322D03*
D50*
X0003594500Y0004643787D03*
X0003594500Y0004702842D03*
X0003603500Y0003884287D03*
X0003603500Y0003943342D03*
X0003617000Y0003106787D03*
X0003617000Y0003165842D03*
D54*
X0002462172Y0003647814D03*
X0002521227Y0003647814D03*
D50*
X0003713200Y0004330687D03*
X0003713200Y0004389742D03*
X0003716700Y0003584787D03*
X0003716700Y0003643842D03*
X0003714100Y0002816587D03*
X0003714100Y0002875642D03*
D54*
X0002158672Y0003534314D03*
X0002217727Y0003534314D03*
D50*
X0003713200Y0004507742D03*
X0003713200Y0004448687D03*
X0003715700Y0003764842D03*
X0003715700Y0003705787D03*
X0003714100Y0002996142D03*
X0003714100Y0002937087D03*
D54*
X0002334727Y0003534314D03*
X0002275672Y0003534314D03*
X0003135027Y0004489814D03*
X0003075972Y0004489814D03*
X0003138327Y0003735614D03*
X0003079272Y0003735614D03*
X0003138627Y0002983714D03*
X0003079572Y0002983714D03*
D50*
X0002311700Y0004113287D03*
X0002311700Y0004172342D03*
D54*
X0003135527Y0004433814D03*
X0003076472Y0004433814D03*
D50*
X0003123000Y0004377342D03*
X0003123000Y0004318287D03*
D54*
X0003137827Y0003675614D03*
X0003078772Y0003675614D03*
D50*
X0003125800Y0003616142D03*
X0003125800Y0003557087D03*
D54*
X0003138127Y0002921214D03*
X0003079072Y0002921214D03*
D50*
X0003121700Y0002864842D03*
X0003121700Y0002805787D03*
X0002254700Y0004113287D03*
X0002254700Y0004172342D03*
D54*
X0002200227Y0004128814D03*
X0002141172Y0004128814D03*
X0003249472Y0004676314D03*
X0003308527Y0004676314D03*
X0003264572Y0003433814D03*
X0003323627Y0003433814D03*
X0003263472Y0003177814D03*
X0003322527Y0003177814D03*
D50*
X0002009199Y0003984842D03*
X0002009199Y0003925787D03*
X0001420500Y0004441342D03*
X0001420500Y0004382287D03*
X0001048500Y0004441842D03*
X0001048500Y0004382787D03*
X0001602000Y0004441842D03*
X0001602000Y0004382787D03*
X0001238188Y0004441732D03*
X0001238188Y0004382677D03*
X0000927500Y0004382787D03*
X0000927500Y0004441842D03*
D54*
X0003250972Y0003929314D03*
X0003310027Y0003929314D03*
X0003273472Y0002677814D03*
X0003332527Y0002677814D03*
D50*
X0002498700Y0003983342D03*
X0002498700Y0003924287D03*
D54*
X0001564627Y0002903514D03*
X0001505572Y0002903514D03*
D55*
X0001560555Y0002829114D03*
X0001442444Y0002829114D03*
D50*
X0001452362Y0002996850D03*
X0001452362Y0002937795D03*
D54*
X0001316141Y0003264960D03*
X0001375196Y0003264960D03*
X0001301968Y0003076771D03*
X0001242913Y0003076771D03*
D50*
X0002559842Y0002583464D03*
X0002559842Y0002642519D03*
D55*
X0001442519Y0002718503D03*
X0001560629Y0002718503D03*
D50*
X0002620472Y0002583858D03*
X0002620472Y0002642913D03*
D56*
X0000250500Y0004127814D03*
X0000250500Y0003812814D03*
D55*
X0003199144Y0003346314D03*
X0003317255Y0003346314D03*
D53*
X0000620500Y0003463370D03*
X0000620500Y0003345259D03*
X0000520500Y0002895370D03*
X0000520500Y0002777259D03*
D56*
X0000248500Y0003565814D03*
X0000248500Y0003250814D03*
D53*
X0000630500Y0004027370D03*
X0000630500Y0003909259D03*
X0000526500Y0004029370D03*
X0000526500Y0003911259D03*
D56*
X0000248500Y0002999814D03*
X0000248500Y0002684814D03*
D55*
X0001991644Y0004221814D03*
X0002109755Y0004221814D03*
D53*
X0000620500Y0002895370D03*
X0000620500Y0002777259D03*
D54*
X0003266472Y0004187814D03*
X0003325527Y0004187814D03*
X0002349527Y0004610314D03*
X0002290472Y0004610314D03*
X0001620472Y0002840314D03*
X0001679527Y0002840314D03*
D57*
X0001855905Y0003637401D03*
X0001914960Y0003637401D03*
X0001949212Y0003576771D03*
X0001890157Y0003576771D03*
D58*
X0003649300Y0004336287D03*
X0003649300Y0004395342D03*
X0003651700Y0003589787D03*
X0003651700Y0003648842D03*
X0003650000Y0002821087D03*
X0003650000Y0002880142D03*
D57*
X0002164422Y0003594564D03*
X0002223477Y0003594564D03*
D58*
X0003649300Y0004499842D03*
X0003649300Y0004440787D03*
X0003652200Y0003758842D03*
X0003652200Y0003699787D03*
X0003650000Y0002990542D03*
X0003650000Y0002931487D03*
D57*
X0002328227Y0003593814D03*
X0002269172Y0003593814D03*
D58*
X0002410000Y0004610787D03*
X0002410000Y0004669842D03*
X0002230000Y0004669842D03*
X0002230000Y0004610787D03*
X0001299000Y0004387287D03*
X0001299000Y0004446342D03*
X0001661500Y0004387787D03*
X0001661500Y0004446842D03*
X0001362500Y0004387787D03*
X0001362500Y0004446842D03*
X0000987500Y0004388787D03*
X0000987500Y0004447842D03*
D57*
X0002402362Y0003130708D03*
X0002343307Y0003130708D03*
D58*
X0001542500Y0004447842D03*
X0001542500Y0004388787D03*
X0001176500Y0004447842D03*
X0001176500Y0004388787D03*
X0000863500Y0004448842D03*
X0000863500Y0004389787D03*
D57*
X0002402834Y0003020708D03*
X0002343779Y0003020708D03*
X0002403307Y0002910708D03*
X0002344251Y0002910708D03*
D58*
X0001479500Y0004447842D03*
X0001479500Y0004388787D03*
X0001112500Y0004447842D03*
X0001112500Y0004388787D03*
X0000814960Y0004493307D03*
X0000814960Y0004552362D03*
X0000915500Y0003154842D03*
X0000915500Y0003095787D03*
X0000984645Y0002984251D03*
X0000984645Y0003043307D03*
D57*
X0000820027Y0002584314D03*
X0000760972Y0002584314D03*
X0002544881Y0002703149D03*
X0002603937Y0002703149D03*
X0000708027Y0002584314D03*
X0000648972Y0002584314D03*
X0000917972Y0003708314D03*
X0000977027Y0003708314D03*
D58*
X0001005500Y0003588787D03*
X0001005500Y0003647842D03*
D57*
X0000814027Y0003150314D03*
X0000754972Y0003150314D03*
X0000838027Y0003710314D03*
X0000778972Y0003710314D03*
X0001063527Y0004184814D03*
X0001004472Y0004184814D03*
D58*
X0001015500Y0004065287D03*
X0001015500Y0004124342D03*
D57*
X0000702027Y0003150314D03*
X0000642972Y0003150314D03*
X0000722027Y0003710314D03*
X0000662972Y0003710314D03*
X0002570472Y0002769291D03*
X0002511417Y0002769291D03*
D58*
X0002490000Y0002871259D03*
X0002490000Y0002930314D03*
D59*
X0003493236Y0004421314D03*
X0003493236Y0004446905D03*
X0003493236Y0004472496D03*
X0003493236Y0004498086D03*
X0003272763Y0004344543D03*
X0003493236Y0004344543D03*
X0003493236Y0004370133D03*
X0003493236Y0004395724D03*
X0003272763Y0004523677D03*
X0003272763Y0004498086D03*
X0003272763Y0004472496D03*
X0003272763Y0004446905D03*
X0003272763Y0004421314D03*
X0003272763Y0004395724D03*
X0003493236Y0004523677D03*
X0003272763Y0004370133D03*
X0003493236Y0004318952D03*
X0003493236Y0004549267D03*
X0003272763Y0004549267D03*
X0003272763Y0004318952D03*
X0003493236Y0004293362D03*
X0003493236Y0004574858D03*
X0003272763Y0004574858D03*
X0003272763Y0004293362D03*
X0003493236Y0004267771D03*
X0003493236Y0004600448D03*
X0003272763Y0004600448D03*
X0003272763Y0004267771D03*
D60*
X0003383000Y0004421314D03*
D48*
X0003493141Y0002912314D03*
X0003493141Y0002937905D03*
X0003493141Y0002963496D03*
X0003493141Y0002989086D03*
X0003272669Y0002835543D03*
X0003493141Y0002835543D03*
X0003493141Y0002861133D03*
X0003493141Y0002886724D03*
X0003272669Y0003014677D03*
X0003272669Y0002989086D03*
X0003272669Y0002963496D03*
X0003272669Y0002937905D03*
X0003272669Y0002912314D03*
X0003272669Y0002886724D03*
X0003493141Y0003014677D03*
X0003272669Y0002861133D03*
X0003493141Y0002809952D03*
X0003493141Y0003040267D03*
X0003272669Y0003040267D03*
X0003272669Y0002809952D03*
X0003493141Y0002784362D03*
X0003493141Y0003065858D03*
X0003272669Y0003065858D03*
X0003272669Y0002784362D03*
X0003493141Y0002758771D03*
X0003493141Y0003091448D03*
X0003272669Y0003091448D03*
X0003272669Y0002758771D03*
D49*
X0003382905Y0002912314D03*
D61*
X0002240700Y0003746578D03*
X0002266290Y0003746578D03*
X0002291881Y0003746578D03*
X0002317471Y0003746578D03*
X0002163928Y0003967051D03*
X0002163928Y0003746578D03*
X0002189518Y0003746578D03*
X0002215109Y0003746578D03*
X0002343062Y0003967051D03*
X0002317471Y0003967051D03*
X0002291881Y0003967051D03*
X0002266290Y0003967051D03*
X0002240700Y0003967051D03*
X0002215109Y0003967051D03*
X0002343062Y0003746578D03*
X0002189518Y0003967051D03*
X0002138337Y0003746578D03*
X0002368652Y0003746578D03*
X0002368652Y0003967051D03*
X0002138337Y0003967051D03*
X0002112747Y0003746578D03*
X0002394243Y0003746578D03*
X0002394243Y0003967051D03*
X0002112747Y0003967051D03*
X0002087156Y0003746578D03*
X0002419833Y0003746578D03*
X0002419833Y0003967051D03*
X0002087156Y0003967051D03*
D62*
X0002240700Y0003856814D03*
D63*
X0000918862Y0002887314D03*
X0000918862Y0002937314D03*
X0000918862Y0002987314D03*
D64*
X0000696814Y0002937314D03*
X0000696814Y0002987314D03*
X0000696814Y0003037314D03*
D63*
X0000918862Y0003037314D03*
D65*
X0000779295Y0002962314D03*
D64*
X0000696814Y0002887314D03*
D63*
X0000706137Y0002807314D03*
X0000706137Y0002757314D03*
X0000706137Y0002707314D03*
D64*
X0000928185Y0002757314D03*
X0000928185Y0002707314D03*
X0000928185Y0002657314D03*
D63*
X0000706137Y0002657314D03*
D65*
X0000845704Y0002732314D03*
D64*
X0000928185Y0002807314D03*
D63*
X0000931862Y0003449314D03*
X0000931862Y0003499314D03*
X0000931862Y0003549314D03*
D64*
X0000709814Y0003499314D03*
X0000709814Y0003549314D03*
X0000709814Y0003599314D03*
D63*
X0000931862Y0003599314D03*
D65*
X0000792295Y0003524314D03*
D64*
X0000709814Y0003449314D03*
D63*
X0000718137Y0003375314D03*
X0000718137Y0003325314D03*
X0000718137Y0003275314D03*
D64*
X0000940185Y0003325314D03*
X0000940185Y0003275314D03*
X0000940185Y0003225314D03*
D63*
X0000718137Y0003225314D03*
D65*
X0000857704Y0003300314D03*
D64*
X0000940185Y0003375314D03*
D63*
X0000938862Y0004013314D03*
X0000938862Y0004063314D03*
X0000938862Y0004113314D03*
D64*
X0000716814Y0004063314D03*
X0000716814Y0004113314D03*
X0000716814Y0004163314D03*
D63*
X0000938862Y0004163314D03*
D65*
X0000799295Y0004088314D03*
D64*
X0000716814Y0004013314D03*
D63*
X0000726137Y0003933314D03*
X0000726137Y0003883314D03*
X0000726137Y0003833314D03*
D64*
X0000948185Y0003883314D03*
X0000948185Y0003833314D03*
X0000948185Y0003783314D03*
D63*
X0000726137Y0003783314D03*
D65*
X0000865704Y0003858314D03*
D64*
X0000948185Y0003933314D03*
D66*
X0000505413Y0002684314D03*
X0000619586Y0002684314D03*
X0000507413Y0003250314D03*
X0000621586Y0003250314D03*
X0000513413Y0003810314D03*
X0000627586Y0003810314D03*
D55*
X0000351889Y0004240314D03*
X0000470000Y0004240314D03*
D53*
X0000550000Y0004131259D03*
X0000550000Y0004249370D03*
D67*
X0002891300Y0004645314D03*
X0002674700Y0004645314D03*
X0002890800Y0003721314D03*
X0002674200Y0003721314D03*
X0002890800Y0002803314D03*
X0002674200Y0002803314D03*
X0002399000Y0004347814D03*
X0002182400Y0004347814D03*
D51*
X0002754980Y0004426326D03*
X0002754980Y0003965303D03*
D55*
X0003210144Y0002598314D03*
X0003328255Y0002598314D03*
X0003197444Y0004079314D03*
X0003315555Y0004079314D03*
D57*
X0001989527Y0002820314D03*
X0001930472Y0002820314D03*
X0001989527Y0002710314D03*
X0001930472Y0002710314D03*
D50*
X0000755118Y0004492913D03*
X0000755118Y0004551968D03*
D68*
X0001740622Y0003770178D03*
X0001740622Y0003801674D03*
X0001740622Y0003833170D03*
X0001740622Y0003864666D03*
X0001740622Y0003896162D03*
X0001740622Y0003927659D03*
X0001740622Y0003959155D03*
X0001740622Y0003990651D03*
D69*
X0001683536Y0004047737D03*
X0001652040Y0004047737D03*
X0001620544Y0004047737D03*
X0001589048Y0004047737D03*
X0001557551Y0004047737D03*
X0001526055Y0004047737D03*
X0001494559Y0004047737D03*
X0001463063Y0004047737D03*
D68*
X0001405977Y0003990651D03*
X0001405977Y0003959155D03*
X0001405977Y0003927659D03*
X0001405977Y0003896162D03*
X0001405977Y0003864666D03*
X0001405977Y0003833170D03*
X0001405977Y0003801674D03*
X0001405977Y0003770178D03*
D69*
X0001463063Y0003713092D03*
X0001494559Y0003713092D03*
X0001526055Y0003713092D03*
X0001557551Y0003713092D03*
X0001589048Y0003713092D03*
X0001620544Y0003713092D03*
X0001652040Y0003713092D03*
X0001683536Y0003713092D03*
D52*
G36*
X0001706290Y0004179747D02*
G01*
X0001681190Y0004154647D01*
X0001653307Y0004182531D01*
X0001678406Y0004207630D01*
X0001706290Y0004179747D01*
G37*
G36*
X0001667315Y0004218721D02*
G01*
X0001642216Y0004193622D01*
X0001614332Y0004221505D01*
X0001639432Y0004246604D01*
X0001667315Y0004218721D01*
G37*
G36*
X0001636692Y0004188098D02*
G01*
X0001611593Y0004162999D01*
X0001583710Y0004190882D01*
X0001608809Y0004215982D01*
X0001636692Y0004188098D01*
G37*
G36*
X0001675667Y0004149124D02*
G01*
X0001650567Y0004124024D01*
X0001622684Y0004151908D01*
X0001647783Y0004177007D01*
X0001675667Y0004149124D01*
G37*
D54*
X0000454330Y0002544488D03*
X0000513385Y0002544488D03*
X0000465354Y0003122834D03*
X0000524409Y0003122834D03*
X0000483072Y0003684014D03*
X0000542127Y0003684014D03*
D58*
X0001347637Y0003616141D03*
X0001347637Y0003675196D03*
X0001291338Y0004124803D03*
X0001291338Y0004065748D03*
X0001257480Y0002864960D03*
X0001257480Y0002805905D03*
X0001196062Y0002864960D03*
X0001196062Y0002805905D03*
D57*
X0001601968Y0003488188D03*
X0001542913Y0003488188D03*
D58*
X0001411417Y0003573622D03*
X0001411417Y0003514566D03*
X0001165748Y0003999606D03*
X0001165748Y0004058661D03*
D57*
X0001162992Y0004107480D03*
X0001222047Y0004107480D03*
D58*
X0001319685Y0002806692D03*
X0001319685Y0002865747D03*
X0001490551Y0003472440D03*
X0001490551Y0003413385D03*
X0001227559Y0003999212D03*
X0001227559Y0004058267D03*
X0000570866Y0002600393D03*
X0000570866Y0002541338D03*
X0001381102Y0002865747D03*
X0001381102Y0002806692D03*
X0000584251Y0003168897D03*
X0000584251Y0003109842D03*
X0001426377Y0003412992D03*
X0001426377Y0003472047D03*
X0000603100Y0003731042D03*
X0000603100Y0003671987D03*
X0001218503Y0003894881D03*
X0001218503Y0003953937D03*
D52*
G36*
X0001713975Y0004207631D02*
G01*
X0001737683Y0004231339D01*
X0001762782Y0004206239D01*
X0001739075Y0004182532D01*
X0001713975Y0004207631D01*
G37*
G36*
X0001672217Y0004249390D02*
G01*
X0001695924Y0004273097D01*
X0001721024Y0004247998D01*
X0001697316Y0004224290D01*
X0001672217Y0004249390D01*
G37*
D50*
X0001541732Y0004217716D03*
X0001541732Y0004158661D03*
D54*
X0001275984Y0003947637D03*
X0001335039Y0003947637D03*
D50*
X0001305118Y0003835039D03*
X0001305118Y0003894094D03*
X0001825500Y0003904542D03*
X0001825500Y0003845487D03*
X0001889500Y0003905342D03*
X0001889500Y0003846287D03*
D54*
X0001429527Y0004177952D03*
X0001488582Y0004177952D03*
X0001794527Y0002815314D03*
X0001735472Y0002815314D03*
D55*
X0001740944Y0002745314D03*
X0001859055Y0002745314D03*
D70*
X0002478346Y0004616141D03*
X0002553149Y0004616141D03*
X0002515748Y0004694841D03*
D66*
X0003504086Y0004695814D03*
X0003389913Y0004695814D03*
X0003507586Y0003948314D03*
X0003393413Y0003948314D03*
X0003516086Y0003192814D03*
X0003401913Y0003192814D03*
D71*
X0002515700Y0003734228D03*
X0002515700Y0003848401D03*
D66*
X0003502086Y0004171314D03*
X0003387913Y0004171314D03*
X0003505086Y0003417314D03*
X0003390913Y0003417314D03*
X0003512386Y0002661314D03*
X0003398213Y0002661314D03*
D71*
X0001992200Y0003736228D03*
X0001992200Y0003850401D03*
D57*
X0001435433Y0004122047D03*
X0001494488Y0004122047D03*
X0001281889Y0004003543D03*
X0001340944Y0004003543D03*
D58*
X0001134251Y0002805511D03*
X0001134251Y0002864566D03*
D52*
G36*
X0002572266Y0002887878D02*
G01*
X0002573200Y0002887740D01*
X0002574115Y0002887511D01*
X0002575003Y0002887193D01*
X0002575855Y0002886790D01*
X0002576665Y0002886305D01*
X0002577422Y0002885743D01*
X0002578121Y0002885109D01*
X0002578755Y0002884410D01*
X0002579317Y0002883653D01*
X0002579802Y0002882844D01*
X0002580205Y0002881991D01*
X0002580523Y0002881103D01*
X0002580752Y0002880188D01*
X0002580890Y0002879255D01*
X0002580937Y0002878312D01*
X0002580937Y0002859088D01*
X0002580890Y0002858146D01*
X0002580752Y0002857213D01*
X0002580523Y0002856298D01*
X0002580205Y0002855410D01*
X0002579802Y0002854557D01*
X0002579317Y0002853748D01*
X0002578755Y0002852990D01*
X0002578121Y0002852291D01*
X0002577422Y0002851658D01*
X0002576665Y0002851096D01*
X0002575855Y0002850611D01*
X0002575003Y0002850208D01*
X0002574115Y0002849890D01*
X0002573200Y0002849661D01*
X0002572266Y0002849522D01*
X0002571324Y0002849476D01*
X0002549147Y0002849476D01*
X0002548205Y0002849522D01*
X0002547272Y0002849661D01*
X0002546357Y0002849890D01*
X0002545469Y0002850208D01*
X0002544616Y0002850611D01*
X0002543807Y0002851096D01*
X0002543049Y0002851658D01*
X0002542350Y0002852291D01*
X0002541717Y0002852990D01*
X0002541155Y0002853748D01*
X0002540670Y0002854557D01*
X0002540267Y0002855410D01*
X0002539949Y0002856298D01*
X0002539720Y0002857213D01*
X0002539581Y0002858146D01*
X0002539535Y0002859088D01*
X0002539535Y0002878312D01*
X0002539581Y0002879255D01*
X0002539720Y0002880188D01*
X0002539949Y0002881103D01*
X0002540267Y0002881991D01*
X0002540670Y0002882844D01*
X0002541155Y0002883653D01*
X0002541717Y0002884410D01*
X0002542350Y0002885109D01*
X0002543049Y0002885743D01*
X0002543807Y0002886305D01*
X0002544616Y0002886790D01*
X0002545469Y0002887193D01*
X0002546357Y0002887511D01*
X0002547272Y0002887740D01*
X0002548205Y0002887878D01*
X0002549147Y0002887925D01*
X0002571324Y0002887925D01*
X0002572266Y0002887878D01*
G37*
G36*
X0002572266Y0002949886D02*
G01*
X0002573200Y0002949748D01*
X0002574115Y0002949519D01*
X0002575003Y0002949201D01*
X0002575855Y0002948798D01*
X0002576665Y0002948313D01*
X0002577422Y0002947751D01*
X0002578121Y0002947117D01*
X0002578755Y0002946418D01*
X0002579317Y0002945661D01*
X0002579802Y0002944852D01*
X0002580205Y0002943999D01*
X0002580523Y0002943111D01*
X0002580752Y0002942196D01*
X0002580890Y0002941263D01*
X0002580937Y0002940320D01*
X0002580937Y0002921096D01*
X0002580890Y0002920154D01*
X0002580752Y0002919221D01*
X0002580523Y0002918306D01*
X0002580205Y0002917418D01*
X0002579802Y0002916565D01*
X0002579317Y0002915756D01*
X0002578755Y0002914998D01*
X0002578121Y0002914299D01*
X0002577422Y0002913666D01*
X0002576665Y0002913104D01*
X0002575855Y0002912619D01*
X0002575003Y0002912215D01*
X0002574115Y0002911898D01*
X0002573200Y0002911668D01*
X0002572266Y0002911530D01*
X0002571324Y0002911484D01*
X0002549147Y0002911484D01*
X0002548205Y0002911530D01*
X0002547272Y0002911668D01*
X0002546357Y0002911898D01*
X0002545469Y0002912215D01*
X0002544616Y0002912619D01*
X0002543807Y0002913104D01*
X0002543049Y0002913666D01*
X0002542350Y0002914299D01*
X0002541717Y0002914998D01*
X0002541155Y0002915756D01*
X0002540670Y0002916565D01*
X0002540267Y0002917418D01*
X0002539949Y0002918306D01*
X0002539720Y0002919221D01*
X0002539581Y0002920154D01*
X0002539535Y0002921096D01*
X0002539535Y0002940320D01*
X0002539581Y0002941263D01*
X0002539720Y0002942196D01*
X0002539949Y0002943111D01*
X0002540267Y0002943999D01*
X0002540670Y0002944852D01*
X0002541155Y0002945661D01*
X0002541717Y0002946418D01*
X0002542350Y0002947117D01*
X0002543049Y0002947751D01*
X0002543807Y0002948313D01*
X0002544616Y0002948798D01*
X0002545469Y0002949201D01*
X0002546357Y0002949519D01*
X0002547272Y0002949748D01*
X0002548205Y0002949886D01*
X0002549147Y0002949933D01*
X0002571324Y0002949933D01*
X0002572266Y0002949886D01*
G37*
G36*
X0002462129Y0004742308D02*
G01*
X0002463062Y0004742169D01*
X0002463977Y0004741940D01*
X0002464865Y0004741622D01*
X0002465718Y0004741219D01*
X0002466527Y0004740734D01*
X0002467284Y0004740172D01*
X0002467983Y0004739538D01*
X0002468617Y0004738840D01*
X0002469179Y0004738082D01*
X0002469664Y0004737273D01*
X0002470067Y0004736420D01*
X0002470385Y0004735532D01*
X0002470614Y0004734617D01*
X0002470752Y0004733684D01*
X0002470799Y0004732742D01*
X0002470799Y0004710564D01*
X0002470752Y0004709622D01*
X0002470614Y0004708689D01*
X0002470385Y0004707774D01*
X0002470067Y0004706886D01*
X0002469664Y0004706033D01*
X0002469179Y0004705224D01*
X0002468617Y0004704467D01*
X0002467983Y0004703768D01*
X0002467284Y0004703134D01*
X0002466527Y0004702572D01*
X0002465718Y0004702087D01*
X0002464865Y0004701684D01*
X0002463977Y0004701366D01*
X0002463062Y0004701137D01*
X0002462129Y0004700999D01*
X0002461187Y0004700952D01*
X0002441962Y0004700952D01*
X0002441020Y0004700999D01*
X0002440087Y0004701137D01*
X0002439172Y0004701366D01*
X0002438284Y0004701684D01*
X0002437431Y0004702087D01*
X0002436622Y0004702572D01*
X0002435864Y0004703134D01*
X0002435165Y0004703768D01*
X0002434532Y0004704467D01*
X0002433970Y0004705224D01*
X0002433485Y0004706033D01*
X0002433082Y0004706886D01*
X0002432764Y0004707774D01*
X0002432535Y0004708689D01*
X0002432396Y0004709622D01*
X0002432350Y0004710564D01*
X0002432350Y0004732742D01*
X0002432396Y0004733684D01*
X0002432535Y0004734617D01*
X0002432764Y0004735532D01*
X0002433082Y0004736420D01*
X0002433485Y0004737273D01*
X0002433970Y0004738082D01*
X0002434532Y0004738840D01*
X0002435165Y0004739538D01*
X0002435864Y0004740172D01*
X0002436622Y0004740734D01*
X0002437431Y0004741219D01*
X0002438284Y0004741622D01*
X0002439172Y0004741940D01*
X0002440087Y0004742169D01*
X0002441020Y0004742308D01*
X0002441962Y0004742354D01*
X0002461187Y0004742354D01*
X0002462129Y0004742308D01*
G37*
G36*
X0002400121Y0004742308D02*
G01*
X0002401054Y0004742169D01*
X0002401969Y0004741940D01*
X0002402857Y0004741622D01*
X0002403710Y0004741219D01*
X0002404519Y0004740734D01*
X0002405277Y0004740172D01*
X0002405975Y0004739538D01*
X0002406609Y0004738840D01*
X0002407171Y0004738082D01*
X0002407656Y0004737273D01*
X0002408059Y0004736420D01*
X0002408377Y0004735532D01*
X0002408606Y0004734617D01*
X0002408745Y0004733684D01*
X0002408791Y0004732742D01*
X0002408791Y0004710564D01*
X0002408745Y0004709622D01*
X0002408606Y0004708689D01*
X0002408377Y0004707774D01*
X0002408059Y0004706886D01*
X0002407656Y0004706033D01*
X0002407171Y0004705224D01*
X0002406609Y0004704467D01*
X0002405975Y0004703768D01*
X0002405277Y0004703134D01*
X0002404519Y0004702572D01*
X0002403710Y0004702087D01*
X0002402857Y0004701684D01*
X0002401969Y0004701366D01*
X0002401054Y0004701137D01*
X0002400121Y0004700999D01*
X0002399179Y0004700952D01*
X0002379954Y0004700952D01*
X0002379012Y0004700999D01*
X0002378079Y0004701137D01*
X0002377164Y0004701366D01*
X0002376276Y0004701684D01*
X0002375423Y0004702087D01*
X0002374614Y0004702572D01*
X0002373856Y0004703134D01*
X0002373157Y0004703768D01*
X0002372524Y0004704467D01*
X0002371962Y0004705224D01*
X0002371477Y0004706033D01*
X0002371074Y0004706886D01*
X0002370756Y0004707774D01*
X0002370527Y0004708689D01*
X0002370388Y0004709622D01*
X0002370342Y0004710564D01*
X0002370342Y0004732742D01*
X0002370388Y0004733684D01*
X0002370527Y0004734617D01*
X0002370756Y0004735532D01*
X0002371074Y0004736420D01*
X0002371477Y0004737273D01*
X0002371962Y0004738082D01*
X0002372524Y0004738840D01*
X0002373157Y0004739538D01*
X0002373856Y0004740172D01*
X0002374614Y0004740734D01*
X0002375423Y0004741219D01*
X0002376276Y0004741622D01*
X0002377164Y0004741940D01*
X0002378079Y0004742169D01*
X0002379012Y0004742308D01*
X0002379954Y0004742354D01*
X0002399179Y0004742354D01*
X0002400121Y0004742308D01*
G37*
G36*
X0002650554Y0003360969D02*
G01*
X0002651487Y0003360831D01*
X0002652402Y0003360601D01*
X0002653290Y0003360284D01*
X0002654143Y0003359880D01*
X0002654952Y0003359395D01*
X0002655710Y0003358833D01*
X0002656409Y0003358200D01*
X0002657042Y0003357501D01*
X0002657604Y0003356743D01*
X0002658089Y0003355934D01*
X0002658492Y0003355081D01*
X0002658810Y0003354193D01*
X0002659039Y0003353278D01*
X0002659178Y0003352345D01*
X0002659224Y0003351403D01*
X0002659224Y0003329226D01*
X0002659178Y0003328284D01*
X0002659039Y0003327351D01*
X0002658810Y0003326436D01*
X0002658492Y0003325547D01*
X0002658089Y0003324695D01*
X0002657604Y0003323886D01*
X0002657042Y0003323128D01*
X0002656409Y0003322429D01*
X0002655710Y0003321796D01*
X0002654952Y0003321234D01*
X0002654143Y0003320749D01*
X0002653290Y0003320345D01*
X0002652402Y0003320028D01*
X0002651487Y0003319798D01*
X0002650554Y0003319660D01*
X0002649612Y0003319614D01*
X0002630387Y0003319614D01*
X0002629445Y0003319660D01*
X0002628512Y0003319798D01*
X0002627597Y0003320028D01*
X0002626709Y0003320345D01*
X0002625856Y0003320749D01*
X0002625047Y0003321234D01*
X0002624289Y0003321796D01*
X0002623590Y0003322429D01*
X0002622957Y0003323128D01*
X0002622395Y0003323886D01*
X0002621910Y0003324695D01*
X0002621507Y0003325547D01*
X0002621189Y0003326436D01*
X0002620960Y0003327351D01*
X0002620821Y0003328284D01*
X0002620775Y0003329226D01*
X0002620775Y0003351403D01*
X0002620821Y0003352345D01*
X0002620960Y0003353278D01*
X0002621189Y0003354193D01*
X0002621507Y0003355081D01*
X0002621910Y0003355934D01*
X0002622395Y0003356743D01*
X0002622957Y0003357501D01*
X0002623590Y0003358200D01*
X0002624289Y0003358833D01*
X0002625047Y0003359395D01*
X0002625856Y0003359880D01*
X0002626709Y0003360284D01*
X0002627597Y0003360601D01*
X0002628512Y0003360831D01*
X0002629445Y0003360969D01*
X0002630387Y0003361015D01*
X0002649612Y0003361015D01*
X0002650554Y0003360969D01*
G37*
G36*
X0002712562Y0003360969D02*
G01*
X0002713495Y0003360831D01*
X0002714410Y0003360601D01*
X0002715298Y0003360284D01*
X0002716151Y0003359880D01*
X0002716960Y0003359395D01*
X0002717717Y0003358833D01*
X0002718416Y0003358200D01*
X0002719050Y0003357501D01*
X0002719612Y0003356743D01*
X0002720097Y0003355934D01*
X0002720500Y0003355081D01*
X0002720818Y0003354193D01*
X0002721047Y0003353278D01*
X0002721185Y0003352345D01*
X0002721232Y0003351403D01*
X0002721232Y0003329226D01*
X0002721185Y0003328284D01*
X0002721047Y0003327351D01*
X0002720818Y0003326436D01*
X0002720500Y0003325547D01*
X0002720097Y0003324695D01*
X0002719612Y0003323886D01*
X0002719050Y0003323128D01*
X0002718416Y0003322429D01*
X0002717717Y0003321796D01*
X0002716960Y0003321234D01*
X0002716151Y0003320749D01*
X0002715298Y0003320345D01*
X0002714410Y0003320028D01*
X0002713495Y0003319798D01*
X0002712562Y0003319660D01*
X0002711620Y0003319614D01*
X0002692395Y0003319614D01*
X0002691453Y0003319660D01*
X0002690520Y0003319798D01*
X0002689605Y0003320028D01*
X0002688717Y0003320345D01*
X0002687864Y0003320749D01*
X0002687055Y0003321234D01*
X0002686297Y0003321796D01*
X0002685598Y0003322429D01*
X0002684965Y0003323128D01*
X0002684403Y0003323886D01*
X0002683918Y0003324695D01*
X0002683515Y0003325547D01*
X0002683197Y0003326436D01*
X0002682968Y0003327351D01*
X0002682829Y0003328284D01*
X0002682783Y0003329226D01*
X0002682783Y0003351403D01*
X0002682829Y0003352345D01*
X0002682968Y0003353278D01*
X0002683197Y0003354193D01*
X0002683515Y0003355081D01*
X0002683918Y0003355934D01*
X0002684403Y0003356743D01*
X0002684965Y0003357501D01*
X0002685598Y0003358200D01*
X0002686297Y0003358833D01*
X0002687055Y0003359395D01*
X0002687864Y0003359880D01*
X0002688717Y0003360284D01*
X0002689605Y0003360601D01*
X0002690520Y0003360831D01*
X0002691453Y0003360969D01*
X0002692395Y0003361015D01*
X0002711620Y0003361015D01*
X0002712562Y0003360969D01*
G37*
G36*
X0002361558Y0004690969D02*
G01*
X0002362491Y0004690831D01*
X0002363406Y0004690601D01*
X0002364294Y0004690284D01*
X0002365147Y0004689880D01*
X0002365956Y0004689395D01*
X0002366714Y0004688833D01*
X0002367412Y0004688200D01*
X0002368046Y0004687501D01*
X0002368608Y0004686743D01*
X0002369093Y0004685934D01*
X0002369496Y0004685081D01*
X0002369814Y0004684193D01*
X0002370043Y0004683278D01*
X0002370182Y0004682345D01*
X0002370228Y0004681403D01*
X0002370228Y0004659226D01*
X0002370182Y0004658284D01*
X0002370043Y0004657351D01*
X0002369814Y0004656436D01*
X0002369496Y0004655547D01*
X0002369093Y0004654695D01*
X0002368608Y0004653886D01*
X0002368046Y0004653128D01*
X0002367412Y0004652429D01*
X0002366714Y0004651796D01*
X0002365956Y0004651234D01*
X0002365147Y0004650749D01*
X0002364294Y0004650345D01*
X0002363406Y0004650028D01*
X0002362491Y0004649798D01*
X0002361558Y0004649660D01*
X0002360616Y0004649614D01*
X0002341391Y0004649614D01*
X0002340449Y0004649660D01*
X0002339516Y0004649798D01*
X0002338601Y0004650028D01*
X0002337713Y0004650345D01*
X0002336860Y0004650749D01*
X0002336051Y0004651234D01*
X0002335293Y0004651796D01*
X0002334594Y0004652429D01*
X0002333961Y0004653128D01*
X0002333399Y0004653886D01*
X0002332914Y0004654695D01*
X0002332511Y0004655547D01*
X0002332193Y0004656436D01*
X0002331964Y0004657351D01*
X0002331825Y0004658284D01*
X0002331779Y0004659226D01*
X0002331779Y0004681403D01*
X0002331825Y0004682345D01*
X0002331964Y0004683278D01*
X0002332193Y0004684193D01*
X0002332511Y0004685081D01*
X0002332914Y0004685934D01*
X0002333399Y0004686743D01*
X0002333961Y0004687501D01*
X0002334594Y0004688200D01*
X0002335293Y0004688833D01*
X0002336051Y0004689395D01*
X0002336860Y0004689880D01*
X0002337713Y0004690284D01*
X0002338601Y0004690601D01*
X0002339516Y0004690831D01*
X0002340449Y0004690969D01*
X0002341391Y0004691015D01*
X0002360616Y0004691015D01*
X0002361558Y0004690969D01*
G37*
G36*
X0002299550Y0004690969D02*
G01*
X0002300483Y0004690831D01*
X0002301398Y0004690601D01*
X0002302286Y0004690284D01*
X0002303139Y0004689880D01*
X0002303948Y0004689395D01*
X0002304706Y0004688833D01*
X0002305405Y0004688200D01*
X0002306038Y0004687501D01*
X0002306600Y0004686743D01*
X0002307085Y0004685934D01*
X0002307488Y0004685081D01*
X0002307806Y0004684193D01*
X0002308035Y0004683278D01*
X0002308174Y0004682345D01*
X0002308220Y0004681403D01*
X0002308220Y0004659226D01*
X0002308174Y0004658284D01*
X0002308035Y0004657351D01*
X0002307806Y0004656436D01*
X0002307488Y0004655547D01*
X0002307085Y0004654695D01*
X0002306600Y0004653886D01*
X0002306038Y0004653128D01*
X0002305405Y0004652429D01*
X0002304706Y0004651796D01*
X0002303948Y0004651234D01*
X0002303139Y0004650749D01*
X0002302286Y0004650345D01*
X0002301398Y0004650028D01*
X0002300483Y0004649798D01*
X0002299550Y0004649660D01*
X0002298608Y0004649614D01*
X0002279383Y0004649614D01*
X0002278441Y0004649660D01*
X0002277508Y0004649798D01*
X0002276593Y0004650028D01*
X0002275705Y0004650345D01*
X0002274852Y0004650749D01*
X0002274043Y0004651234D01*
X0002273285Y0004651796D01*
X0002272587Y0004652429D01*
X0002271953Y0004653128D01*
X0002271391Y0004653886D01*
X0002270906Y0004654695D01*
X0002270503Y0004655547D01*
X0002270185Y0004656436D01*
X0002269956Y0004657351D01*
X0002269817Y0004658284D01*
X0002269771Y0004659226D01*
X0002269771Y0004681403D01*
X0002269817Y0004682345D01*
X0002269956Y0004683278D01*
X0002270185Y0004684193D01*
X0002270503Y0004685081D01*
X0002270906Y0004685934D01*
X0002271391Y0004686743D01*
X0002271953Y0004687501D01*
X0002272587Y0004688200D01*
X0002273285Y0004688833D01*
X0002274043Y0004689395D01*
X0002274852Y0004689880D01*
X0002275705Y0004690284D01*
X0002276593Y0004690601D01*
X0002277508Y0004690831D01*
X0002278441Y0004690969D01*
X0002279383Y0004691015D01*
X0002298608Y0004691015D01*
X0002299550Y0004690969D01*
G37*
G36*
X0001789196Y0004690241D02*
G01*
X0001790129Y0004690102D01*
X0001791044Y0004689873D01*
X0001791932Y0004689555D01*
X0001792785Y0004689152D01*
X0001793594Y0004688667D01*
X0001794351Y0004688105D01*
X0001795050Y0004687472D01*
X0001795684Y0004686773D01*
X0001796246Y0004686015D01*
X0001796731Y0004685206D01*
X0001797134Y0004684353D01*
X0001797452Y0004683465D01*
X0001797681Y0004682550D01*
X0001797819Y0004681617D01*
X0001797866Y0004680675D01*
X0001797866Y0004661450D01*
X0001797819Y0004660508D01*
X0001797681Y0004659575D01*
X0001797452Y0004658660D01*
X0001797134Y0004657772D01*
X0001796731Y0004656919D01*
X0001796246Y0004656110D01*
X0001795684Y0004655352D01*
X0001795050Y0004654653D01*
X0001794351Y0004654020D01*
X0001793594Y0004653458D01*
X0001792785Y0004652973D01*
X0001791932Y0004652570D01*
X0001791044Y0004652252D01*
X0001790129Y0004652023D01*
X0001789196Y0004651884D01*
X0001788253Y0004651838D01*
X0001766076Y0004651838D01*
X0001765134Y0004651884D01*
X0001764201Y0004652023D01*
X0001763286Y0004652252D01*
X0001762398Y0004652570D01*
X0001761545Y0004652973D01*
X0001760736Y0004653458D01*
X0001759978Y0004654020D01*
X0001759279Y0004654653D01*
X0001758646Y0004655352D01*
X0001758084Y0004656110D01*
X0001757599Y0004656919D01*
X0001757196Y0004657772D01*
X0001756878Y0004658660D01*
X0001756649Y0004659575D01*
X0001756510Y0004660508D01*
X0001756464Y0004661450D01*
X0001756464Y0004680675D01*
X0001756510Y0004681617D01*
X0001756649Y0004682550D01*
X0001756878Y0004683465D01*
X0001757196Y0004684353D01*
X0001757599Y0004685206D01*
X0001758084Y0004686015D01*
X0001758646Y0004686773D01*
X0001759279Y0004687472D01*
X0001759978Y0004688105D01*
X0001760736Y0004688667D01*
X0001761545Y0004689152D01*
X0001762398Y0004689555D01*
X0001763286Y0004689873D01*
X0001764201Y0004690102D01*
X0001765134Y0004690241D01*
X0001766076Y0004690287D01*
X0001788253Y0004690287D01*
X0001789196Y0004690241D01*
G37*
G36*
X0001789196Y0004628233D02*
G01*
X0001790129Y0004628094D01*
X0001791044Y0004627865D01*
X0001791932Y0004627547D01*
X0001792785Y0004627144D01*
X0001793594Y0004626659D01*
X0001794351Y0004626097D01*
X0001795050Y0004625464D01*
X0001795684Y0004624765D01*
X0001796246Y0004624007D01*
X0001796731Y0004623198D01*
X0001797134Y0004622345D01*
X0001797452Y0004621457D01*
X0001797681Y0004620542D01*
X0001797819Y0004619609D01*
X0001797866Y0004618667D01*
X0001797866Y0004599442D01*
X0001797819Y0004598500D01*
X0001797681Y0004597567D01*
X0001797452Y0004596652D01*
X0001797134Y0004595764D01*
X0001796731Y0004594911D01*
X0001796246Y0004594102D01*
X0001795684Y0004593345D01*
X0001795050Y0004592646D01*
X0001794351Y0004592012D01*
X0001793594Y0004591450D01*
X0001792785Y0004590965D01*
X0001791932Y0004590562D01*
X0001791044Y0004590244D01*
X0001790129Y0004590015D01*
X0001789196Y0004589877D01*
X0001788253Y0004589830D01*
X0001766076Y0004589830D01*
X0001765134Y0004589877D01*
X0001764201Y0004590015D01*
X0001763286Y0004590244D01*
X0001762398Y0004590562D01*
X0001761545Y0004590965D01*
X0001760736Y0004591450D01*
X0001759978Y0004592012D01*
X0001759279Y0004592646D01*
X0001758646Y0004593345D01*
X0001758084Y0004594102D01*
X0001757599Y0004594911D01*
X0001757196Y0004595764D01*
X0001756878Y0004596652D01*
X0001756649Y0004597567D01*
X0001756510Y0004598500D01*
X0001756464Y0004599442D01*
X0001756464Y0004618667D01*
X0001756510Y0004619609D01*
X0001756649Y0004620542D01*
X0001756878Y0004621457D01*
X0001757196Y0004622345D01*
X0001757599Y0004623198D01*
X0001758084Y0004624007D01*
X0001758646Y0004624765D01*
X0001759279Y0004625464D01*
X0001759978Y0004626097D01*
X0001760736Y0004626659D01*
X0001761545Y0004627144D01*
X0001762398Y0004627547D01*
X0001763286Y0004627865D01*
X0001764201Y0004628094D01*
X0001765134Y0004628233D01*
X0001766076Y0004628279D01*
X0001788253Y0004628279D01*
X0001789196Y0004628233D01*
G37*
G36*
X0001722030Y0004628489D02*
G01*
X0001722963Y0004628350D01*
X0001723878Y0004628121D01*
X0001724767Y0004627803D01*
X0001725619Y0004627400D01*
X0001726428Y0004626915D01*
X0001727186Y0004626353D01*
X0001727885Y0004625720D01*
X0001728518Y0004625021D01*
X0001729080Y0004624263D01*
X0001729565Y0004623454D01*
X0001729969Y0004622601D01*
X0001730286Y0004621713D01*
X0001730516Y0004620798D01*
X0001730654Y0004619865D01*
X0001730700Y0004618923D01*
X0001730700Y0004599698D01*
X0001730654Y0004598756D01*
X0001730516Y0004597823D01*
X0001730286Y0004596908D01*
X0001729969Y0004596020D01*
X0001729565Y0004595167D01*
X0001729080Y0004594358D01*
X0001728518Y0004593600D01*
X0001727885Y0004592901D01*
X0001727186Y0004592268D01*
X0001726428Y0004591706D01*
X0001725619Y0004591221D01*
X0001724767Y0004590818D01*
X0001723878Y0004590500D01*
X0001722963Y0004590271D01*
X0001722030Y0004590132D01*
X0001721088Y0004590086D01*
X0001698911Y0004590086D01*
X0001697969Y0004590132D01*
X0001697036Y0004590271D01*
X0001696121Y0004590500D01*
X0001695232Y0004590818D01*
X0001694380Y0004591221D01*
X0001693571Y0004591706D01*
X0001692813Y0004592268D01*
X0001692114Y0004592901D01*
X0001691481Y0004593600D01*
X0001690919Y0004594358D01*
X0001690434Y0004595167D01*
X0001690030Y0004596020D01*
X0001689713Y0004596908D01*
X0001689483Y0004597823D01*
X0001689345Y0004598756D01*
X0001689299Y0004599698D01*
X0001689299Y0004618923D01*
X0001689345Y0004619865D01*
X0001689483Y0004620798D01*
X0001689713Y0004621713D01*
X0001690030Y0004622601D01*
X0001690434Y0004623454D01*
X0001690919Y0004624263D01*
X0001691481Y0004625021D01*
X0001692114Y0004625720D01*
X0001692813Y0004626353D01*
X0001693571Y0004626915D01*
X0001694380Y0004627400D01*
X0001695232Y0004627803D01*
X0001696121Y0004628121D01*
X0001697036Y0004628350D01*
X0001697969Y0004628489D01*
X0001698911Y0004628535D01*
X0001721088Y0004628535D01*
X0001722030Y0004628489D01*
G37*
G36*
X0001722030Y0004690497D02*
G01*
X0001722963Y0004690358D01*
X0001723878Y0004690129D01*
X0001724767Y0004689811D01*
X0001725619Y0004689408D01*
X0001726428Y0004688923D01*
X0001727186Y0004688361D01*
X0001727885Y0004687727D01*
X0001728518Y0004687028D01*
X0001729080Y0004686271D01*
X0001729565Y0004685462D01*
X0001729969Y0004684609D01*
X0001730286Y0004683721D01*
X0001730516Y0004682806D01*
X0001730654Y0004681873D01*
X0001730700Y0004680931D01*
X0001730700Y0004661706D01*
X0001730654Y0004660764D01*
X0001730516Y0004659831D01*
X0001730286Y0004658916D01*
X0001729969Y0004658028D01*
X0001729565Y0004657175D01*
X0001729080Y0004656366D01*
X0001728518Y0004655608D01*
X0001727885Y0004654909D01*
X0001727186Y0004654276D01*
X0001726428Y0004653714D01*
X0001725619Y0004653229D01*
X0001724767Y0004652826D01*
X0001723878Y0004652508D01*
X0001722963Y0004652279D01*
X0001722030Y0004652140D01*
X0001721088Y0004652094D01*
X0001698911Y0004652094D01*
X0001697969Y0004652140D01*
X0001697036Y0004652279D01*
X0001696121Y0004652508D01*
X0001695232Y0004652826D01*
X0001694380Y0004653229D01*
X0001693571Y0004653714D01*
X0001692813Y0004654276D01*
X0001692114Y0004654909D01*
X0001691481Y0004655608D01*
X0001690919Y0004656366D01*
X0001690434Y0004657175D01*
X0001690030Y0004658028D01*
X0001689713Y0004658916D01*
X0001689483Y0004659831D01*
X0001689345Y0004660764D01*
X0001689299Y0004661706D01*
X0001689299Y0004680931D01*
X0001689345Y0004681873D01*
X0001689483Y0004682806D01*
X0001689713Y0004683721D01*
X0001690030Y0004684609D01*
X0001690434Y0004685462D01*
X0001690919Y0004686271D01*
X0001691481Y0004687028D01*
X0001692114Y0004687727D01*
X0001692813Y0004688361D01*
X0001693571Y0004688923D01*
X0001694380Y0004689408D01*
X0001695232Y0004689811D01*
X0001696121Y0004690129D01*
X0001697036Y0004690358D01*
X0001697969Y0004690497D01*
X0001698911Y0004690543D01*
X0001721088Y0004690543D01*
X0001722030Y0004690497D01*
G37*
G36*
X0001832030Y0004409493D02*
G01*
X0001832963Y0004409354D01*
X0001833878Y0004409125D01*
X0001834767Y0004408807D01*
X0001835619Y0004408404D01*
X0001836428Y0004407919D01*
X0001837186Y0004407357D01*
X0001837885Y0004406724D01*
X0001838518Y0004406025D01*
X0001839080Y0004405267D01*
X0001839565Y0004404458D01*
X0001839969Y0004403605D01*
X0001840286Y0004402717D01*
X0001840516Y0004401802D01*
X0001840654Y0004400869D01*
X0001840700Y0004399927D01*
X0001840700Y0004380702D01*
X0001840654Y0004379760D01*
X0001840516Y0004378827D01*
X0001840286Y0004377912D01*
X0001839969Y0004377024D01*
X0001839565Y0004376171D01*
X0001839080Y0004375362D01*
X0001838518Y0004374604D01*
X0001837885Y0004373905D01*
X0001837186Y0004373272D01*
X0001836428Y0004372710D01*
X0001835619Y0004372225D01*
X0001834767Y0004371822D01*
X0001833878Y0004371504D01*
X0001832963Y0004371275D01*
X0001832030Y0004371136D01*
X0001831088Y0004371090D01*
X0001808911Y0004371090D01*
X0001807969Y0004371136D01*
X0001807036Y0004371275D01*
X0001806121Y0004371504D01*
X0001805232Y0004371822D01*
X0001804380Y0004372225D01*
X0001803571Y0004372710D01*
X0001802813Y0004373272D01*
X0001802114Y0004373905D01*
X0001801481Y0004374604D01*
X0001800919Y0004375362D01*
X0001800434Y0004376171D01*
X0001800030Y0004377024D01*
X0001799713Y0004377912D01*
X0001799483Y0004378827D01*
X0001799345Y0004379760D01*
X0001799299Y0004380702D01*
X0001799299Y0004399927D01*
X0001799345Y0004400869D01*
X0001799483Y0004401802D01*
X0001799713Y0004402717D01*
X0001800030Y0004403605D01*
X0001800434Y0004404458D01*
X0001800919Y0004405267D01*
X0001801481Y0004406025D01*
X0001802114Y0004406724D01*
X0001802813Y0004407357D01*
X0001803571Y0004407919D01*
X0001804380Y0004408404D01*
X0001805232Y0004408807D01*
X0001806121Y0004409125D01*
X0001807036Y0004409354D01*
X0001807969Y0004409493D01*
X0001808911Y0004409539D01*
X0001831088Y0004409539D01*
X0001832030Y0004409493D01*
G37*
G36*
X0001832030Y0004471500D02*
G01*
X0001832963Y0004471362D01*
X0001833878Y0004471133D01*
X0001834767Y0004470815D01*
X0001835619Y0004470412D01*
X0001836428Y0004469927D01*
X0001837186Y0004469365D01*
X0001837885Y0004468731D01*
X0001838518Y0004468032D01*
X0001839080Y0004467275D01*
X0001839565Y0004466466D01*
X0001839969Y0004465613D01*
X0001840286Y0004464725D01*
X0001840516Y0004463810D01*
X0001840654Y0004462877D01*
X0001840700Y0004461935D01*
X0001840700Y0004442710D01*
X0001840654Y0004441768D01*
X0001840516Y0004440835D01*
X0001840286Y0004439920D01*
X0001839969Y0004439032D01*
X0001839565Y0004438179D01*
X0001839080Y0004437370D01*
X0001838518Y0004436612D01*
X0001837885Y0004435913D01*
X0001837186Y0004435280D01*
X0001836428Y0004434718D01*
X0001835619Y0004434233D01*
X0001834767Y0004433830D01*
X0001833878Y0004433512D01*
X0001832963Y0004433283D01*
X0001832030Y0004433144D01*
X0001831088Y0004433098D01*
X0001808911Y0004433098D01*
X0001807969Y0004433144D01*
X0001807036Y0004433283D01*
X0001806121Y0004433512D01*
X0001805232Y0004433830D01*
X0001804380Y0004434233D01*
X0001803571Y0004434718D01*
X0001802813Y0004435280D01*
X0001802114Y0004435913D01*
X0001801481Y0004436612D01*
X0001800919Y0004437370D01*
X0001800434Y0004438179D01*
X0001800030Y0004439032D01*
X0001799713Y0004439920D01*
X0001799483Y0004440835D01*
X0001799345Y0004441768D01*
X0001799299Y0004442710D01*
X0001799299Y0004461935D01*
X0001799345Y0004462877D01*
X0001799483Y0004463810D01*
X0001799713Y0004464725D01*
X0001800030Y0004465613D01*
X0001800434Y0004466466D01*
X0001800919Y0004467275D01*
X0001801481Y0004468032D01*
X0001802114Y0004468731D01*
X0001802813Y0004469365D01*
X0001803571Y0004469927D01*
X0001804380Y0004470412D01*
X0001805232Y0004470815D01*
X0001806121Y0004471133D01*
X0001807036Y0004471362D01*
X0001807969Y0004471500D01*
X0001808911Y0004471547D01*
X0001831088Y0004471547D01*
X0001832030Y0004471500D01*
G37*
G36*
X0002116263Y0003292701D02*
G01*
X0002117196Y0003292563D01*
X0002118111Y0003292334D01*
X0002118999Y0003292016D01*
X0002119852Y0003291613D01*
X0002120661Y0003291128D01*
X0002121418Y0003290566D01*
X0002122117Y0003289932D01*
X0002122751Y0003289233D01*
X0002123313Y0003288476D01*
X0002123798Y0003287667D01*
X0002124201Y0003286814D01*
X0002124519Y0003285926D01*
X0002124748Y0003285011D01*
X0002124886Y0003284077D01*
X0002124933Y0003283135D01*
X0002124933Y0003260958D01*
X0002124886Y0003260016D01*
X0002124748Y0003259083D01*
X0002124519Y0003258168D01*
X0002124201Y0003257280D01*
X0002123798Y0003256427D01*
X0002123313Y0003255618D01*
X0002122751Y0003254860D01*
X0002122117Y0003254161D01*
X0002121418Y0003253528D01*
X0002120661Y0003252966D01*
X0002119852Y0003252481D01*
X0002118999Y0003252078D01*
X0002118111Y0003251760D01*
X0002117196Y0003251531D01*
X0002116263Y0003251392D01*
X0002115320Y0003251346D01*
X0002096096Y0003251346D01*
X0002095154Y0003251392D01*
X0002094221Y0003251531D01*
X0002093306Y0003251760D01*
X0002092418Y0003252078D01*
X0002091565Y0003252481D01*
X0002090756Y0003252966D01*
X0002089998Y0003253528D01*
X0002089299Y0003254161D01*
X0002088666Y0003254860D01*
X0002088104Y0003255618D01*
X0002087619Y0003256427D01*
X0002087215Y0003257280D01*
X0002086898Y0003258168D01*
X0002086668Y0003259083D01*
X0002086530Y0003260016D01*
X0002086484Y0003260958D01*
X0002086484Y0003283135D01*
X0002086530Y0003284077D01*
X0002086668Y0003285011D01*
X0002086898Y0003285926D01*
X0002087215Y0003286814D01*
X0002087619Y0003287667D01*
X0002088104Y0003288476D01*
X0002088666Y0003289233D01*
X0002089299Y0003289932D01*
X0002089998Y0003290566D01*
X0002090756Y0003291128D01*
X0002091565Y0003291613D01*
X0002092418Y0003292016D01*
X0002093306Y0003292334D01*
X0002094221Y0003292563D01*
X0002095154Y0003292701D01*
X0002096096Y0003292748D01*
X0002115320Y0003292748D01*
X0002116263Y0003292701D01*
G37*
G36*
X0002054255Y0003292701D02*
G01*
X0002055188Y0003292563D01*
X0002056103Y0003292334D01*
X0002056991Y0003292016D01*
X0002057844Y0003291613D01*
X0002058653Y0003291128D01*
X0002059410Y0003290566D01*
X0002060109Y0003289932D01*
X0002060743Y0003289233D01*
X0002061305Y0003288476D01*
X0002061790Y0003287667D01*
X0002062193Y0003286814D01*
X0002062511Y0003285926D01*
X0002062740Y0003285011D01*
X0002062878Y0003284077D01*
X0002062925Y0003283135D01*
X0002062925Y0003260958D01*
X0002062878Y0003260016D01*
X0002062740Y0003259083D01*
X0002062511Y0003258168D01*
X0002062193Y0003257280D01*
X0002061790Y0003256427D01*
X0002061305Y0003255618D01*
X0002060743Y0003254860D01*
X0002060109Y0003254161D01*
X0002059410Y0003253528D01*
X0002058653Y0003252966D01*
X0002057844Y0003252481D01*
X0002056991Y0003252078D01*
X0002056103Y0003251760D01*
X0002055188Y0003251531D01*
X0002054255Y0003251392D01*
X0002053312Y0003251346D01*
X0002034088Y0003251346D01*
X0002033146Y0003251392D01*
X0002032213Y0003251531D01*
X0002031298Y0003251760D01*
X0002030410Y0003252078D01*
X0002029557Y0003252481D01*
X0002028748Y0003252966D01*
X0002027990Y0003253528D01*
X0002027291Y0003254161D01*
X0002026658Y0003254860D01*
X0002026096Y0003255618D01*
X0002025611Y0003256427D01*
X0002025208Y0003257280D01*
X0002024890Y0003258168D01*
X0002024661Y0003259083D01*
X0002024522Y0003260016D01*
X0002024476Y0003260958D01*
X0002024476Y0003283135D01*
X0002024522Y0003284077D01*
X0002024661Y0003285011D01*
X0002024890Y0003285926D01*
X0002025208Y0003286814D01*
X0002025611Y0003287667D01*
X0002026096Y0003288476D01*
X0002026658Y0003289233D01*
X0002027291Y0003289932D01*
X0002027990Y0003290566D01*
X0002028748Y0003291128D01*
X0002029557Y0003291613D01*
X0002030410Y0003292016D01*
X0002031298Y0003292334D01*
X0002032213Y0003292563D01*
X0002033146Y0003292701D01*
X0002034088Y0003292748D01*
X0002053312Y0003292748D01*
X0002054255Y0003292701D01*
G37*
D72*
X0001557232Y0002972023D03*
X0001576917Y0002972023D03*
X0001596602Y0002972023D03*
X0001616287Y0002972023D03*
X0001635972Y0002972023D03*
X0001655657Y0002972023D03*
X0001675342Y0002972023D03*
X0001695027Y0002972023D03*
X0001714712Y0002972023D03*
X0001734397Y0002972023D03*
X0001754082Y0002972023D03*
X0001773767Y0002972023D03*
D73*
X0001834791Y0003033047D03*
X0001834791Y0003052732D03*
X0001834791Y0003072417D03*
X0001834791Y0003092102D03*
X0001834791Y0003111787D03*
X0001834791Y0003131472D03*
X0001834791Y0003151157D03*
X0001834791Y0003170842D03*
X0001834791Y0003190527D03*
X0001834791Y0003210212D03*
X0001834791Y0003229897D03*
X0001834791Y0003249582D03*
D72*
X0001773767Y0003310606D03*
X0001754082Y0003310606D03*
X0001734397Y0003310606D03*
X0001714712Y0003310606D03*
X0001695027Y0003310606D03*
X0001675342Y0003310606D03*
X0001655657Y0003310606D03*
X0001635972Y0003310606D03*
X0001616287Y0003310606D03*
X0001596602Y0003310606D03*
X0001576917Y0003310606D03*
X0001557232Y0003310606D03*
D73*
X0001496208Y0003249582D03*
X0001496208Y0003229897D03*
X0001496208Y0003210212D03*
X0001496208Y0003190527D03*
X0001496208Y0003170842D03*
X0001496208Y0003151157D03*
X0001496208Y0003131472D03*
X0001496208Y0003111787D03*
X0001496208Y0003092102D03*
X0001496208Y0003072417D03*
X0001496208Y0003052732D03*
X0001496208Y0003033047D03*
D74*
X0001665500Y0003141314D03*
D75*
X0001155039Y0002740314D03*
X0001284960Y0002740314D03*
X0002863779Y0002608267D03*
X0002733858Y0002608267D03*
M02*