%MOIN*%
%OFA0B0*%
%FSLAX46Y46*%
%IPPOS*%
%LPD*%
%ADD10C,0.01968503937007874*%
%ADD11R,0.068503937007874022X0.017322834645669291*%
%ADD12R,0.062992125984251982X0.011811023622047244*%
%ADD13R,0.094488188976377951X0.25433070866141733*%
%ADD14R,0.055000000000000007X0.055000000000000007*%
%ADD15C,0.055000000000000007*%
%ADD16R,0.029527559055118113X0.031496062992125991*%
%ADD17R,0.35433070866141736X0.055118110236220472*%
%ADD18C,0.005905511811023622*%
%ADD19R,0.062992125984251982X0.03937007874015748*%
%ADD20R,0.031496062992125991X0.029527559055118113*%
%ADD21R,0.03937007874015748X0.062992125984251982*%
%ADD22R,0.094500000000000015X0.1575*%
%ADD23R,0.01968503937007874X0.035433070866141732*%
%ADD24R,0.035433070866141732X0.01968503937007874*%
%ADD25R,0.017322834645669291X0.068503937007874022*%
%ADD26R,0.011811023622047244X0.062992125984251982*%
%ADD27R,0.25433070866141733X0.094488188976377951*%
%ADD28C,0.035*%
%ADD29R,0.042519685039370085X0.017716535433070866*%
%ADD30R,0.025590551181102365X0.017716535433070866*%
%ADD31R,0.1393700787401575X0.16771653543307086*%
%ADD32R,0.035433070866141732X0.066929133858267723*%
%ADD33C,0.07874015748031496*%
%ADD34R,0.14170000000000002X0.063*%
%ADD35C,0.0984251968503937*%
%ADD36R,0.068X0.08*%
%ADD37O,0.068X0.08*%
%ADD38R,0.062992125984251982X0.021653543307086617*%
%ADD39R,0.021653543307086617X0.062992125984251982*%
%ADD40R,0.0315X0.0315*%
%ADD41R,0.066929133858267723X0.035433070866141732*%
%ADD42O,0.066929133858267723X0.066929133858267723*%
%ADD43R,0.066929133858267723X0.066929133858267723*%
%ADD44R,0.011811023622047244X0.066929133858267723*%
%ADD45R,0.066929133858267723X0.011811023622047244*%
%ADD46R,0.19685039370078741X0.19685039370078741*%
%ADD47R,0.035433070866141732X0.047244094488188976*%
%ADD48C,0.03937007874015748*%
%ADD59C,0.01968503937007874*%
%ADD60R,0.068503937007874022X0.017322834645669291*%
%ADD61R,0.062992125984251982X0.011811023622047244*%
%ADD62R,0.094488188976377951X0.25433070866141733*%
%ADD63R,0.055000000000000007X0.055000000000000007*%
%ADD64C,0.055000000000000007*%
%ADD65R,0.029527559055118113X0.031496062992125991*%
%ADD66R,0.35433070866141736X0.055118110236220472*%
%ADD67C,0.005905511811023622*%
%ADD68R,0.062992125984251982X0.03937007874015748*%
%ADD69R,0.031496062992125991X0.029527559055118113*%
%ADD70R,0.03937007874015748X0.062992125984251982*%
%ADD71R,0.094500000000000015X0.1575*%
%ADD72R,0.01968503937007874X0.035433070866141732*%
%ADD73R,0.035433070866141732X0.01968503937007874*%
%ADD74R,0.017322834645669291X0.068503937007874022*%
%ADD75R,0.011811023622047244X0.062992125984251982*%
%ADD76R,0.25433070866141733X0.094488188976377951*%
%ADD77C,0.035*%
%ADD78R,0.042519685039370085X0.017716535433070866*%
%ADD79R,0.025590551181102365X0.017716535433070866*%
%ADD80R,0.1393700787401575X0.16771653543307086*%
%ADD81R,0.035433070866141732X0.066929133858267723*%
%ADD82C,0.07874015748031496*%
%ADD83R,0.14170000000000002X0.063*%
%ADD84C,0.0984251968503937*%
%ADD85R,0.068X0.08*%
%ADD86O,0.068X0.08*%
%ADD87R,0.062992125984251982X0.021653543307086617*%
%ADD88R,0.021653543307086617X0.062992125984251982*%
%ADD89R,0.0315X0.0315*%
%ADD90R,0.066929133858267723X0.035433070866141732*%
%ADD91O,0.066929133858267723X0.066929133858267723*%
%ADD92R,0.066929133858267723X0.066929133858267723*%
%ADD93R,0.011811023622047244X0.066929133858267723*%
%ADD94R,0.066929133858267723X0.011811023622047244*%
%ADD95R,0.19685039370078741X0.19685039370078741*%
%ADD96R,0.035433070866141732X0.047244094488188976*%
%ADD97C,0.03937007874015748*%
%LPD*%
D10*
X-0000000500Y-0000000500D02*
X0003331425Y0001045767D03*
X0003382606Y0001045767D03*
X0003331425Y0001096948D03*
X0003433787Y0001096948D03*
X0003382606Y0001096948D03*
X0003331425Y0001148129D03*
X0003433787Y0001148129D03*
X0003382606Y0001148129D03*
X0003433787Y0001352854D03*
X0003331425Y0001352854D03*
X0003382606Y0001352854D03*
X0003433787Y0001301673D03*
X0003331425Y0001301673D03*
X0003382606Y0001301673D03*
X0003331425Y0001250492D03*
X0003433787Y0001250492D03*
X0003382606Y0001250492D03*
X0003331425Y0001199311D03*
X0003433787Y0001199311D03*
X0003433787Y0001045767D03*
X0003382606Y0001199311D03*
D11*
X0003492842Y0001187500D03*
X0003492842Y0001213090D03*
X0003492842Y0001238681D03*
X0003492842Y0001264271D03*
X0003272370Y0001110728D03*
D12*
X0003492842Y0001110728D03*
X0003492842Y0001136318D03*
D11*
X0003492842Y0001161909D03*
X0003272370Y0001289862D03*
X0003272370Y0001264271D03*
X0003272370Y0001238681D03*
X0003272370Y0001213090D03*
X0003272370Y0001187500D03*
X0003272370Y0001161909D03*
X0003492842Y0001289862D03*
X0003272370Y0001136318D03*
D12*
X0003492842Y0001085137D03*
D11*
X0003492842Y0001315452D03*
X0003272370Y0001315452D03*
X0003272370Y0001085137D03*
D12*
X0003492842Y0001059547D03*
D11*
X0003492842Y0001341043D03*
X0003272370Y0001341043D03*
X0003272370Y0001059547D03*
D12*
X0003492842Y0001033956D03*
D11*
X0003492842Y0001366633D03*
X0003272370Y0001366633D03*
X0003272370Y0001033956D03*
D13*
X0003382606Y0001187500D03*
D14*
X0001085000Y0000151499D03*
D15*
X0001185000Y0000151499D03*
X0001284999Y0000151499D03*
X0001384999Y0000151499D03*
X0001484999Y0000151499D03*
X0001585000Y0000151499D03*
X0001685000Y0000151499D03*
X0001785000Y0000151499D03*
D16*
X0001719500Y0001960027D03*
X0001719500Y0001900972D03*
D17*
X0002754480Y0000997511D03*
X0002754480Y0000536488D03*
D16*
X0002087295Y0000328633D03*
X0002087295Y0000269578D03*
D18*
G36*
X0002890432Y0000795934D02*
G01*
X0002891268Y0000795810D01*
X0002892088Y0000795605D01*
X0002892884Y0000795320D01*
X0002893648Y0000794959D01*
X0002894373Y0000794524D01*
X0002895052Y0000794021D01*
X0002895678Y0000793453D01*
X0002896245Y0000792827D01*
X0002896749Y0000792148D01*
X0002897183Y0000791423D01*
X0002897545Y0000790659D01*
X0002897829Y0000789864D01*
X0002898035Y0000789044D01*
X0002898159Y0000788208D01*
X0002898200Y0000787364D01*
X0002898200Y0000770139D01*
X0002898159Y0000769295D01*
X0002898035Y0000768459D01*
X0002897829Y0000767639D01*
X0002897545Y0000766844D01*
X0002897183Y0000766080D01*
X0002896749Y0000765355D01*
X0002896245Y0000764676D01*
X0002895678Y0000764050D01*
X0002895052Y0000763482D01*
X0002894373Y0000762978D01*
X0002893648Y0000762544D01*
X0002892884Y0000762183D01*
X0002892088Y0000761898D01*
X0002891268Y0000761693D01*
X0002890432Y0000761569D01*
X0002889588Y0000761527D01*
X0002869411Y0000761527D01*
X0002868567Y0000761569D01*
X0002867731Y0000761693D01*
X0002866911Y0000761898D01*
X0002866115Y0000762183D01*
X0002865351Y0000762544D01*
X0002864626Y0000762978D01*
X0002863947Y0000763482D01*
X0002863321Y0000764050D01*
X0002862754Y0000764676D01*
X0002862250Y0000765355D01*
X0002861816Y0000766080D01*
X0002861454Y0000766844D01*
X0002861170Y0000767639D01*
X0002860964Y0000768459D01*
X0002860840Y0000769295D01*
X0002860799Y0000770139D01*
X0002860799Y0000787364D01*
X0002860840Y0000788208D01*
X0002860964Y0000789044D01*
X0002861170Y0000789864D01*
X0002861454Y0000790659D01*
X0002861816Y0000791423D01*
X0002862250Y0000792148D01*
X0002862754Y0000792827D01*
X0002863321Y0000793453D01*
X0002863947Y0000794021D01*
X0002864626Y0000794524D01*
X0002865351Y0000794959D01*
X0002866115Y0000795320D01*
X0002866911Y0000795605D01*
X0002867731Y0000795810D01*
X0002868567Y0000795934D01*
X0002869411Y0000795976D01*
X0002889588Y0000795976D01*
X0002890432Y0000795934D01*
G37*
G36*
X0002890432Y0000733927D02*
G01*
X0002891268Y0000733803D01*
X0002892088Y0000733597D01*
X0002892884Y0000733312D01*
X0002893648Y0000732951D01*
X0002894373Y0000732517D01*
X0002895052Y0000732013D01*
X0002895678Y0000731446D01*
X0002896245Y0000730819D01*
X0002896749Y0000730140D01*
X0002897183Y0000729416D01*
X0002897545Y0000728652D01*
X0002897829Y0000727856D01*
X0002898035Y0000727036D01*
X0002898159Y0000726200D01*
X0002898200Y0000725356D01*
X0002898200Y0000708131D01*
X0002898159Y0000707287D01*
X0002898035Y0000706451D01*
X0002897829Y0000705631D01*
X0002897545Y0000704836D01*
X0002897183Y0000704072D01*
X0002896749Y0000703347D01*
X0002896245Y0000702668D01*
X0002895678Y0000702042D01*
X0002895052Y0000701474D01*
X0002894373Y0000700971D01*
X0002893648Y0000700536D01*
X0002892884Y0000700175D01*
X0002892088Y0000699890D01*
X0002891268Y0000699685D01*
X0002890432Y0000699561D01*
X0002889588Y0000699519D01*
X0002869411Y0000699519D01*
X0002868567Y0000699561D01*
X0002867731Y0000699685D01*
X0002866911Y0000699890D01*
X0002866115Y0000700175D01*
X0002865351Y0000700536D01*
X0002864626Y0000700971D01*
X0002863947Y0000701474D01*
X0002863321Y0000702042D01*
X0002862754Y0000702668D01*
X0002862250Y0000703347D01*
X0002861816Y0000704072D01*
X0002861454Y0000704836D01*
X0002861170Y0000705631D01*
X0002860964Y0000706451D01*
X0002860840Y0000707287D01*
X0002860799Y0000708131D01*
X0002860799Y0000725356D01*
X0002860840Y0000726200D01*
X0002860964Y0000727036D01*
X0002861170Y0000727856D01*
X0002861454Y0000728652D01*
X0002861816Y0000729416D01*
X0002862250Y0000730140D01*
X0002862754Y0000730819D01*
X0002863321Y0000731446D01*
X0002863947Y0000732013D01*
X0002864626Y0000732517D01*
X0002865351Y0000732951D01*
X0002866115Y0000733312D01*
X0002866911Y0000733597D01*
X0002867731Y0000733803D01*
X0002868567Y0000733927D01*
X0002869411Y0000733968D01*
X0002889588Y0000733968D01*
X0002890432Y0000733927D01*
G37*
G36*
X0002770432Y0000795639D02*
G01*
X0002771268Y0000795515D01*
X0002772088Y0000795310D01*
X0002772884Y0000795025D01*
X0002773648Y0000794664D01*
X0002774373Y0000794229D01*
X0002775052Y0000793726D01*
X0002775678Y0000793158D01*
X0002776245Y0000792532D01*
X0002776749Y0000791853D01*
X0002777183Y0000791128D01*
X0002777545Y0000790364D01*
X0002777829Y0000789568D01*
X0002778035Y0000788749D01*
X0002778159Y0000787913D01*
X0002778200Y0000787068D01*
X0002778200Y0000769844D01*
X0002778159Y0000769000D01*
X0002778035Y0000768164D01*
X0002777829Y0000767344D01*
X0002777545Y0000766548D01*
X0002777183Y0000765784D01*
X0002776749Y0000765059D01*
X0002776245Y0000764380D01*
X0002775678Y0000763754D01*
X0002775052Y0000763187D01*
X0002774373Y0000762683D01*
X0002773648Y0000762249D01*
X0002772884Y0000761887D01*
X0002772088Y0000761603D01*
X0002771268Y0000761397D01*
X0002770432Y0000761273D01*
X0002769588Y0000761232D01*
X0002749411Y0000761232D01*
X0002748567Y0000761273D01*
X0002747731Y0000761397D01*
X0002746911Y0000761603D01*
X0002746115Y0000761887D01*
X0002745351Y0000762249D01*
X0002744626Y0000762683D01*
X0002743947Y0000763187D01*
X0002743321Y0000763754D01*
X0002742754Y0000764380D01*
X0002742250Y0000765059D01*
X0002741816Y0000765784D01*
X0002741454Y0000766548D01*
X0002741170Y0000767344D01*
X0002740964Y0000768164D01*
X0002740840Y0000769000D01*
X0002740799Y0000769844D01*
X0002740799Y0000787068D01*
X0002740840Y0000787913D01*
X0002740964Y0000788749D01*
X0002741170Y0000789568D01*
X0002741454Y0000790364D01*
X0002741816Y0000791128D01*
X0002742250Y0000791853D01*
X0002742754Y0000792532D01*
X0002743321Y0000793158D01*
X0002743947Y0000793726D01*
X0002744626Y0000794229D01*
X0002745351Y0000794664D01*
X0002746115Y0000795025D01*
X0002746911Y0000795310D01*
X0002747731Y0000795515D01*
X0002748567Y0000795639D01*
X0002749411Y0000795681D01*
X0002769588Y0000795681D01*
X0002770432Y0000795639D01*
G37*
G36*
X0002770432Y0000733631D02*
G01*
X0002771268Y0000733507D01*
X0002772088Y0000733302D01*
X0002772884Y0000733017D01*
X0002773648Y0000732656D01*
X0002774373Y0000732221D01*
X0002775052Y0000731718D01*
X0002775678Y0000731150D01*
X0002776245Y0000730524D01*
X0002776749Y0000729845D01*
X0002777183Y0000729120D01*
X0002777545Y0000728356D01*
X0002777829Y0000727561D01*
X0002778035Y0000726741D01*
X0002778159Y0000725905D01*
X0002778200Y0000725061D01*
X0002778200Y0000707836D01*
X0002778159Y0000706992D01*
X0002778035Y0000706156D01*
X0002777829Y0000705336D01*
X0002777545Y0000704540D01*
X0002777183Y0000703776D01*
X0002776749Y0000703051D01*
X0002776245Y0000702373D01*
X0002775678Y0000701746D01*
X0002775052Y0000701179D01*
X0002774373Y0000700675D01*
X0002773648Y0000700241D01*
X0002772884Y0000699879D01*
X0002772088Y0000699595D01*
X0002771268Y0000699389D01*
X0002770432Y0000699265D01*
X0002769588Y0000699224D01*
X0002749411Y0000699224D01*
X0002748567Y0000699265D01*
X0002747731Y0000699389D01*
X0002746911Y0000699595D01*
X0002746115Y0000699879D01*
X0002745351Y0000700241D01*
X0002744626Y0000700675D01*
X0002743947Y0000701179D01*
X0002743321Y0000701746D01*
X0002742754Y0000702373D01*
X0002742250Y0000703051D01*
X0002741816Y0000703776D01*
X0002741454Y0000704540D01*
X0002741170Y0000705336D01*
X0002740964Y0000706156D01*
X0002740840Y0000706992D01*
X0002740799Y0000707836D01*
X0002740799Y0000725061D01*
X0002740840Y0000725905D01*
X0002740964Y0000726741D01*
X0002741170Y0000727561D01*
X0002741454Y0000728356D01*
X0002741816Y0000729120D01*
X0002742250Y0000729845D01*
X0002742754Y0000730524D01*
X0002743321Y0000731150D01*
X0002743947Y0000731718D01*
X0002744626Y0000732221D01*
X0002745351Y0000732656D01*
X0002746115Y0000733017D01*
X0002746911Y0000733302D01*
X0002747731Y0000733507D01*
X0002748567Y0000733631D01*
X0002749411Y0000733673D01*
X0002769588Y0000733673D01*
X0002770432Y0000733631D01*
G37*
G36*
X0002640432Y0000733927D02*
G01*
X0002641268Y0000733803D01*
X0002642088Y0000733597D01*
X0002642884Y0000733312D01*
X0002643648Y0000732951D01*
X0002644373Y0000732517D01*
X0002645052Y0000732013D01*
X0002645678Y0000731446D01*
X0002646245Y0000730819D01*
X0002646749Y0000730140D01*
X0002647183Y0000729416D01*
X0002647545Y0000728652D01*
X0002647829Y0000727856D01*
X0002648035Y0000727036D01*
X0002648159Y0000726200D01*
X0002648200Y0000725356D01*
X0002648200Y0000708131D01*
X0002648159Y0000707287D01*
X0002648035Y0000706451D01*
X0002647829Y0000705631D01*
X0002647545Y0000704836D01*
X0002647183Y0000704072D01*
X0002646749Y0000703347D01*
X0002646245Y0000702668D01*
X0002645678Y0000702042D01*
X0002645052Y0000701474D01*
X0002644373Y0000700971D01*
X0002643648Y0000700536D01*
X0002642884Y0000700175D01*
X0002642088Y0000699890D01*
X0002641268Y0000699685D01*
X0002640432Y0000699561D01*
X0002639588Y0000699519D01*
X0002619411Y0000699519D01*
X0002618567Y0000699561D01*
X0002617731Y0000699685D01*
X0002616911Y0000699890D01*
X0002616115Y0000700175D01*
X0002615351Y0000700536D01*
X0002614626Y0000700971D01*
X0002613947Y0000701474D01*
X0002613321Y0000702042D01*
X0002612754Y0000702668D01*
X0002612250Y0000703347D01*
X0002611816Y0000704072D01*
X0002611454Y0000704836D01*
X0002611170Y0000705631D01*
X0002610964Y0000706451D01*
X0002610840Y0000707287D01*
X0002610799Y0000708131D01*
X0002610799Y0000725356D01*
X0002610840Y0000726200D01*
X0002610964Y0000727036D01*
X0002611170Y0000727856D01*
X0002611454Y0000728652D01*
X0002611816Y0000729416D01*
X0002612250Y0000730140D01*
X0002612754Y0000730819D01*
X0002613321Y0000731446D01*
X0002613947Y0000732013D01*
X0002614626Y0000732517D01*
X0002615351Y0000732951D01*
X0002616115Y0000733312D01*
X0002616911Y0000733597D01*
X0002617731Y0000733803D01*
X0002618567Y0000733927D01*
X0002619411Y0000733968D01*
X0002639588Y0000733968D01*
X0002640432Y0000733927D01*
G37*
G36*
X0002640432Y0000795934D02*
G01*
X0002641268Y0000795810D01*
X0002642088Y0000795605D01*
X0002642884Y0000795320D01*
X0002643648Y0000794959D01*
X0002644373Y0000794524D01*
X0002645052Y0000794021D01*
X0002645678Y0000793453D01*
X0002646245Y0000792827D01*
X0002646749Y0000792148D01*
X0002647183Y0000791423D01*
X0002647545Y0000790659D01*
X0002647829Y0000789864D01*
X0002648035Y0000789044D01*
X0002648159Y0000788208D01*
X0002648200Y0000787364D01*
X0002648200Y0000770139D01*
X0002648159Y0000769295D01*
X0002648035Y0000768459D01*
X0002647829Y0000767639D01*
X0002647545Y0000766844D01*
X0002647183Y0000766080D01*
X0002646749Y0000765355D01*
X0002646245Y0000764676D01*
X0002645678Y0000764050D01*
X0002645052Y0000763482D01*
X0002644373Y0000762978D01*
X0002643648Y0000762544D01*
X0002642884Y0000762183D01*
X0002642088Y0000761898D01*
X0002641268Y0000761693D01*
X0002640432Y0000761569D01*
X0002639588Y0000761527D01*
X0002619411Y0000761527D01*
X0002618567Y0000761569D01*
X0002617731Y0000761693D01*
X0002616911Y0000761898D01*
X0002616115Y0000762183D01*
X0002615351Y0000762544D01*
X0002614626Y0000762978D01*
X0002613947Y0000763482D01*
X0002613321Y0000764050D01*
X0002612754Y0000764676D01*
X0002612250Y0000765355D01*
X0002611816Y0000766080D01*
X0002611454Y0000766844D01*
X0002611170Y0000767639D01*
X0002610964Y0000768459D01*
X0002610840Y0000769295D01*
X0002610799Y0000770139D01*
X0002610799Y0000787364D01*
X0002610840Y0000788208D01*
X0002610964Y0000789044D01*
X0002611170Y0000789864D01*
X0002611454Y0000790659D01*
X0002611816Y0000791423D01*
X0002612250Y0000792148D01*
X0002612754Y0000792827D01*
X0002613321Y0000793453D01*
X0002613947Y0000794021D01*
X0002614626Y0000794524D01*
X0002615351Y0000794959D01*
X0002616115Y0000795320D01*
X0002616911Y0000795605D01*
X0002617731Y0000795810D01*
X0002618567Y0000795934D01*
X0002619411Y0000795976D01*
X0002639588Y0000795976D01*
X0002640432Y0000795934D01*
G37*
D16*
X0001381783Y0000217610D03*
X0001381783Y0000276665D03*
D19*
X0000521999Y0000982555D03*
X0000521999Y0000864444D03*
D20*
X0001619972Y0000304500D03*
X0001679027Y0000304500D03*
X0001948318Y0001036507D03*
X0001889263Y0001036507D03*
D16*
X0003594000Y0002162972D03*
X0003594000Y0002222027D03*
X0003603000Y0001403472D03*
X0003603000Y0001462527D03*
X0003616500Y0000625972D03*
X0003616500Y0000685027D03*
D20*
X0002461672Y0001167000D03*
X0002520727Y0001167000D03*
D16*
X0003712700Y0001849872D03*
X0003712700Y0001908927D03*
X0003716200Y0001103972D03*
X0003716200Y0001163027D03*
X0003713600Y0000335772D03*
X0003713600Y0000394827D03*
D20*
X0002158172Y0001053500D03*
X0002217227Y0001053500D03*
D16*
X0003712700Y0002026927D03*
X0003712700Y0001967872D03*
X0003715200Y0001284027D03*
X0003715200Y0001224972D03*
X0003713600Y0000515327D03*
X0003713600Y0000456272D03*
D20*
X0002334227Y0001053500D03*
X0002275172Y0001053500D03*
X0003134527Y0002009000D03*
X0003075472Y0002009000D03*
X0003137827Y0001254800D03*
X0003078772Y0001254800D03*
X0003138127Y0000502900D03*
X0003079072Y0000502900D03*
D16*
X0002311200Y0001632472D03*
X0002311200Y0001691527D03*
D20*
X0003135027Y0001952999D03*
X0003075972Y0001952999D03*
D16*
X0003122500Y0001896527D03*
X0003122500Y0001837472D03*
D20*
X0003137327Y0001194800D03*
X0003078272Y0001194800D03*
D16*
X0003125300Y0001135327D03*
X0003125300Y0001076272D03*
D20*
X0003137627Y0000440400D03*
X0003078572Y0000440400D03*
D16*
X0003121200Y0000384027D03*
X0003121200Y0000324972D03*
X0002254199Y0001632472D03*
X0002254199Y0001691527D03*
D20*
X0002199727Y0001647999D03*
X0002140672Y0001647999D03*
X0003248972Y0002195499D03*
X0003308027Y0002195499D03*
X0003264072Y0000953000D03*
X0003323127Y0000953000D03*
X0003262972Y0000697000D03*
X0003322027Y0000697000D03*
D16*
X0002008699Y0001504027D03*
X0002008699Y0001444972D03*
X0001420000Y0001960527D03*
X0001420000Y0001901472D03*
X0001048000Y0001961027D03*
X0001048000Y0001901972D03*
X0001601500Y0001961027D03*
X0001601500Y0001901972D03*
X0001237688Y0001960917D03*
X0001237688Y0001901862D03*
X0000927000Y0001901972D03*
X0000927000Y0001961027D03*
D20*
X0003250472Y0001448500D03*
X0003309527Y0001448500D03*
X0003272972Y0000197000D03*
X0003332027Y0000197000D03*
D16*
X0002498200Y0001502527D03*
X0002498200Y0001443472D03*
D20*
X0001564127Y0000422700D03*
X0001505072Y0000422700D03*
D21*
X0001560055Y0000348300D03*
X0001441944Y0000348300D03*
D16*
X0001451862Y0000516035D03*
X0001451862Y0000456980D03*
D20*
X0001315641Y0000784145D03*
X0001374696Y0000784145D03*
X0001301468Y0000595956D03*
X0001242413Y0000595956D03*
D16*
X0002559342Y0000102649D03*
X0002559342Y0000161704D03*
D21*
X0001442019Y0000237688D03*
X0001560129Y0000237688D03*
D16*
X0002619972Y0000103043D03*
X0002619972Y0000162098D03*
D22*
X0000250000Y0001647000D03*
X0000250000Y0001332000D03*
D21*
X0003198644Y0000865500D03*
X0003316755Y0000865500D03*
D19*
X0000620000Y0000982555D03*
X0000620000Y0000864444D03*
X0000520000Y0000414555D03*
X0000520000Y0000296444D03*
D22*
X0000248000Y0001085000D03*
X0000248000Y0000770000D03*
D19*
X0000630000Y0001546555D03*
X0000630000Y0001428444D03*
X0000526000Y0001548555D03*
X0000526000Y0001430444D03*
D22*
X0000248000Y0000518999D03*
X0000248000Y0000204000D03*
D21*
X0001991144Y0001740999D03*
X0002109255Y0001740999D03*
D19*
X0000620000Y0000414555D03*
X0000620000Y0000296444D03*
D20*
X0003265972Y0001707000D03*
X0003325027Y0001707000D03*
X0002349027Y0002129499D03*
X0002289972Y0002129499D03*
X0001619972Y0000359500D03*
X0001679027Y0000359500D03*
D23*
X0001855405Y0001156586D03*
X0001914460Y0001156586D03*
X0001948712Y0001095956D03*
X0001889657Y0001095956D03*
D24*
X0003648800Y0001855472D03*
X0003648800Y0001914527D03*
X0003651200Y0001108972D03*
X0003651200Y0001168027D03*
X0003649500Y0000340272D03*
X0003649500Y0000399327D03*
D23*
X0002163922Y0001113750D03*
X0002222977Y0001113750D03*
D24*
X0003648800Y0002019027D03*
X0003648800Y0001959972D03*
X0003651700Y0001278027D03*
X0003651700Y0001218972D03*
X0003649500Y0000509727D03*
X0003649500Y0000450672D03*
D23*
X0002327727Y0001113000D03*
X0002268672Y0001113000D03*
D24*
X0002409499Y0002129972D03*
X0002409499Y0002189027D03*
X0002229500Y0002189027D03*
X0002229500Y0002129972D03*
X0001298499Y0001906472D03*
X0001298499Y0001965527D03*
X0001661000Y0001906972D03*
X0001661000Y0001966027D03*
X0001362000Y0001906972D03*
X0001362000Y0001966027D03*
X0000987000Y0001907972D03*
X0000987000Y0001967027D03*
D23*
X0002401862Y0000649893D03*
X0002342807Y0000649893D03*
D24*
X0001541999Y0001967027D03*
X0001541999Y0001907972D03*
X0001176000Y0001967027D03*
X0001176000Y0001907972D03*
X0000863000Y0001968027D03*
X0000863000Y0001908972D03*
D23*
X0002402334Y0000539893D03*
X0002343279Y0000539893D03*
X0002402807Y0000429893D03*
X0002343751Y0000429893D03*
D24*
X0001479000Y0001967027D03*
X0001479000Y0001907972D03*
X0001112000Y0001967027D03*
X0001112000Y0001907972D03*
X0000814460Y0002012492D03*
X0000814460Y0002071547D03*
X0000915000Y0000674027D03*
X0000915000Y0000614972D03*
X0000984145Y0000503437D03*
X0000984145Y0000562492D03*
D23*
X0000819527Y0000103500D03*
X0000760472Y0000103500D03*
X0002544381Y0000222334D03*
X0002603437Y0000222334D03*
X0000707527Y0000103500D03*
X0000648472Y0000103500D03*
X0000917472Y0001227500D03*
X0000976527Y0001227500D03*
D24*
X0001005000Y0001107972D03*
X0001005000Y0001167027D03*
D23*
X0000813527Y0000669500D03*
X0000754472Y0000669500D03*
X0000837527Y0001229500D03*
X0000778472Y0001229500D03*
X0001063027Y0001704000D03*
X0001003972Y0001704000D03*
D24*
X0001014999Y0001584472D03*
X0001014999Y0001643527D03*
D23*
X0000701527Y0000669500D03*
X0000642472Y0000669500D03*
X0000721527Y0001229500D03*
X0000662472Y0001229500D03*
X0002569972Y0000288476D03*
X0002510917Y0000288476D03*
D24*
X0002489500Y0000390444D03*
X0002489500Y0000449500D03*
D10*
X0003331318Y0001798767D03*
X0003382500Y0001798767D03*
X0003331318Y0001849948D03*
X0003433681Y0001849948D03*
X0003382500Y0001849948D03*
X0003331318Y0001901129D03*
X0003433681Y0001901129D03*
X0003382500Y0001901129D03*
X0003433681Y0002105854D03*
X0003331318Y0002105854D03*
X0003382500Y0002105854D03*
X0003433681Y0002054673D03*
X0003331318Y0002054673D03*
X0003382500Y0002054673D03*
X0003331318Y0002003492D03*
X0003433681Y0002003492D03*
X0003382500Y0002003492D03*
X0003331318Y0001952310D03*
X0003433681Y0001952310D03*
X0003433681Y0001798767D03*
X0003382500Y0001952310D03*
D12*
X0003492736Y0001940500D03*
X0003492736Y0001966090D03*
X0003492736Y0001991681D03*
X0003492736Y0002017271D03*
X0003272263Y0001863728D03*
X0003492736Y0001863728D03*
X0003492736Y0001889318D03*
X0003492736Y0001914909D03*
X0003272263Y0002042862D03*
X0003272263Y0002017271D03*
X0003272263Y0001991681D03*
X0003272263Y0001966090D03*
X0003272263Y0001940500D03*
X0003272263Y0001914909D03*
X0003492736Y0002042862D03*
X0003272263Y0001889318D03*
X0003492736Y0001838137D03*
X0003492736Y0002068452D03*
X0003272263Y0002068452D03*
X0003272263Y0001838137D03*
X0003492736Y0001812547D03*
X0003492736Y0002094043D03*
X0003272263Y0002094043D03*
X0003272263Y0001812547D03*
X0003492736Y0001786956D03*
X0003492736Y0002119633D03*
X0003272263Y0002119633D03*
X0003272263Y0001786956D03*
D13*
X0003382500Y0001940500D03*
D10*
X0003331224Y0000289767D03*
X0003382405Y0000289767D03*
X0003331224Y0000340948D03*
X0003433586Y0000340948D03*
X0003382405Y0000340948D03*
X0003331224Y0000392129D03*
X0003433586Y0000392129D03*
X0003382405Y0000392129D03*
X0003433586Y0000596854D03*
X0003331224Y0000596854D03*
X0003382405Y0000596854D03*
X0003433586Y0000545673D03*
X0003331224Y0000545673D03*
X0003382405Y0000545673D03*
X0003331224Y0000494492D03*
X0003433586Y0000494492D03*
X0003382405Y0000494492D03*
X0003331224Y0000443311D03*
X0003433586Y0000443311D03*
X0003433586Y0000289767D03*
X0003382405Y0000443311D03*
D11*
X0003492641Y0000431499D03*
X0003492641Y0000457090D03*
X0003492641Y0000482681D03*
X0003492641Y0000508271D03*
X0003272169Y0000354728D03*
D12*
X0003492641Y0000354728D03*
X0003492641Y0000380318D03*
D11*
X0003492641Y0000405909D03*
X0003272169Y0000533862D03*
X0003272169Y0000508271D03*
X0003272169Y0000482681D03*
X0003272169Y0000457090D03*
X0003272169Y0000431499D03*
X0003272169Y0000405909D03*
X0003492641Y0000533862D03*
X0003272169Y0000380318D03*
D12*
X0003492641Y0000329137D03*
D11*
X0003492641Y0000559452D03*
X0003272169Y0000559452D03*
X0003272169Y0000329137D03*
D12*
X0003492641Y0000303547D03*
D11*
X0003492641Y0000585043D03*
X0003272169Y0000585043D03*
X0003272169Y0000303547D03*
D12*
X0003492641Y0000277956D03*
D11*
X0003492641Y0000610633D03*
X0003272169Y0000610633D03*
X0003272169Y0000277956D03*
D13*
X0003382405Y0000431499D03*
D10*
X0002098467Y0001427181D03*
X0002098467Y0001375999D03*
X0002149648Y0001427181D03*
X0002149648Y0001324818D03*
X0002149648Y0001375999D03*
X0002200829Y0001427181D03*
X0002200829Y0001324818D03*
X0002200829Y0001375999D03*
X0002405554Y0001324818D03*
X0002405554Y0001427181D03*
X0002405554Y0001375999D03*
X0002354373Y0001324818D03*
X0002354373Y0001427181D03*
X0002354373Y0001375999D03*
X0002303192Y0001427181D03*
X0002303192Y0001324818D03*
X0002303192Y0001375999D03*
X0002252011Y0001427181D03*
X0002252011Y0001324818D03*
X0002098467Y0001324818D03*
X0002252011Y0001375999D03*
D25*
X0002240200Y0001265763D03*
X0002265790Y0001265763D03*
X0002291381Y0001265763D03*
X0002316971Y0001265763D03*
X0002163428Y0001486236D03*
D26*
X0002163428Y0001265763D03*
X0002189018Y0001265763D03*
D25*
X0002214609Y0001265763D03*
X0002342562Y0001486236D03*
X0002316971Y0001486236D03*
X0002291381Y0001486236D03*
X0002265790Y0001486236D03*
X0002240200Y0001486236D03*
X0002214609Y0001486236D03*
X0002342562Y0001265763D03*
X0002189018Y0001486236D03*
D26*
X0002137837Y0001265763D03*
D25*
X0002368152Y0001265763D03*
X0002368152Y0001486236D03*
X0002137837Y0001486236D03*
D26*
X0002112247Y0001265763D03*
D25*
X0002393743Y0001265763D03*
X0002393743Y0001486236D03*
X0002112247Y0001486236D03*
D26*
X0002086656Y0001265763D03*
D25*
X0002419333Y0001265763D03*
X0002419333Y0001486236D03*
X0002086656Y0001486236D03*
D27*
X0002240200Y0001375999D03*
D14*
X0001985000Y0000151499D03*
D15*
X0002084999Y0000151499D03*
X0002184999Y0000151499D03*
X0002284999Y0000151499D03*
X0002385000Y0000151499D03*
X0002485000Y0000151499D03*
D14*
X0000737000Y0002162499D03*
D15*
X0000837000Y0002162499D03*
X0000937000Y0002162499D03*
X0001037000Y0002162499D03*
X0001137000Y0002162499D03*
X0001237000Y0002162499D03*
X0001336999Y0002162499D03*
X0001437000Y0002162499D03*
X0001537000Y0002162499D03*
D14*
X0000925000Y0002051500D03*
D15*
X0001025000Y0002051500D03*
X0001125000Y0002051500D03*
X0001225000Y0002051500D03*
X0001325000Y0002051500D03*
X0001425000Y0002051500D03*
X0001525000Y0002051500D03*
X0001625000Y0002051500D03*
D14*
X0001785000Y0002051500D03*
D15*
X0001885000Y0002051500D03*
X0001985000Y0002051500D03*
X0002084999Y0002051500D03*
X0002184999Y0002051500D03*
X0002284999Y0002051500D03*
X0002385000Y0002051500D03*
X0002485000Y0002051500D03*
D14*
X0000718791Y0001780208D03*
D15*
X0000718791Y0001880208D03*
D28*
X0000775842Y0000392917D03*
X0000775842Y0000570082D03*
X0000726629Y0000540555D03*
X0000775842Y0000511027D03*
X0000775842Y0000451972D03*
X0000825055Y0000422444D03*
X0000726629Y0000422444D03*
X0000726629Y0000481500D03*
X0000825055Y0000481500D03*
X0000825055Y0000540555D03*
D29*
X0000918362Y0000406499D03*
X0000918362Y0000456499D03*
X0000918362Y0000506500D03*
D30*
X0000696314Y0000456499D03*
X0000696314Y0000506500D03*
X0000696314Y0000556500D03*
D29*
X0000918362Y0000556500D03*
D31*
X0000778795Y0000481500D03*
D30*
X0000696314Y0000406499D03*
D28*
X0000848157Y0000340082D03*
X0000848157Y0000162917D03*
X0000897370Y0000192444D03*
X0000848157Y0000221972D03*
X0000848157Y0000281027D03*
X0000798944Y0000310555D03*
X0000897370Y0000310555D03*
X0000897370Y0000251500D03*
X0000798944Y0000251500D03*
X0000798944Y0000192444D03*
D29*
X0000705637Y0000326499D03*
X0000705637Y0000276500D03*
X0000705637Y0000226500D03*
D30*
X0000927685Y0000276500D03*
X0000927685Y0000226500D03*
X0000927685Y0000176500D03*
D29*
X0000705637Y0000176500D03*
D31*
X0000845204Y0000251500D03*
D30*
X0000927685Y0000326499D03*
D28*
X0000788842Y0000954917D03*
X0000788842Y0001132082D03*
X0000739629Y0001102555D03*
X0000788842Y0001073027D03*
X0000788842Y0001013972D03*
X0000838055Y0000984444D03*
X0000739629Y0000984444D03*
X0000739629Y0001043500D03*
X0000838055Y0001043500D03*
X0000838055Y0001102555D03*
D29*
X0000931362Y0000968500D03*
X0000931362Y0001018500D03*
X0000931362Y0001068500D03*
D30*
X0000709314Y0001018500D03*
X0000709314Y0001068500D03*
X0000709314Y0001118500D03*
D29*
X0000931362Y0001118500D03*
D31*
X0000791795Y0001043500D03*
D30*
X0000709314Y0000968500D03*
D28*
X0000860157Y0000908082D03*
X0000860157Y0000730917D03*
X0000909370Y0000760444D03*
X0000860157Y0000789972D03*
X0000860157Y0000849027D03*
X0000810944Y0000878555D03*
X0000909370Y0000878555D03*
X0000909370Y0000819500D03*
X0000810944Y0000819500D03*
X0000810944Y0000760444D03*
D29*
X0000717637Y0000894500D03*
X0000717637Y0000844500D03*
X0000717637Y0000794500D03*
D30*
X0000939685Y0000844500D03*
X0000939685Y0000794500D03*
X0000939685Y0000744500D03*
D29*
X0000717637Y0000744500D03*
D31*
X0000857204Y0000819500D03*
D30*
X0000939685Y0000894500D03*
D28*
X0000795842Y0001518917D03*
X0000795842Y0001696082D03*
X0000746629Y0001666555D03*
X0000795842Y0001637027D03*
X0000795842Y0001577972D03*
X0000845055Y0001548444D03*
X0000746629Y0001548444D03*
X0000746629Y0001607500D03*
X0000845055Y0001607500D03*
X0000845055Y0001666555D03*
D29*
X0000938362Y0001532500D03*
X0000938362Y0001582499D03*
X0000938362Y0001632500D03*
D30*
X0000716314Y0001582499D03*
X0000716314Y0001632500D03*
X0000716314Y0001682499D03*
D29*
X0000938362Y0001682499D03*
D31*
X0000798795Y0001607500D03*
D30*
X0000716314Y0001532500D03*
D28*
X0000868157Y0001466082D03*
X0000868157Y0001288917D03*
X0000917370Y0001318444D03*
X0000868157Y0001347972D03*
X0000868157Y0001407027D03*
X0000818944Y0001436555D03*
X0000917370Y0001436555D03*
X0000917370Y0001377499D03*
X0000818944Y0001377499D03*
X0000818944Y0001318444D03*
D29*
X0000725637Y0001452499D03*
X0000725637Y0001402500D03*
X0000725637Y0001352500D03*
D30*
X0000947685Y0001402500D03*
X0000947685Y0001352500D03*
X0000947685Y0001302500D03*
D29*
X0000725637Y0001302500D03*
D31*
X0000865204Y0001377499D03*
D30*
X0000947685Y0001452499D03*
D32*
X0000504913Y0000203500D03*
X0000619086Y0000203500D03*
X0000506913Y0000769500D03*
X0000621086Y0000769500D03*
X0000512913Y0001329499D03*
X0000627086Y0001329499D03*
D21*
X0000351389Y0001759500D03*
X0000469500Y0001759500D03*
D19*
X0000549500Y0001650444D03*
X0000549500Y0001768555D03*
D33*
X0003886500Y0000493409D03*
X0003886500Y0000593409D03*
X0003886500Y0000393409D03*
X0003886500Y0000293409D03*
X0003890200Y0001966400D03*
X0003890200Y0002066399D03*
X0003890200Y0001866400D03*
X0003890200Y0001766400D03*
X0003889100Y0001249200D03*
X0003889100Y0001349200D03*
X0003889100Y0001149200D03*
X0003889100Y0001049200D03*
D34*
X0002890800Y0002164500D03*
X0002674200Y0002164500D03*
X0002890300Y0001240500D03*
X0002673700Y0001240500D03*
X0002890300Y0000322500D03*
X0002673700Y0000322500D03*
X0002398500Y0001867000D03*
X0002181900Y0001867000D03*
D17*
X0002754480Y0001945511D03*
X0002754480Y0001484488D03*
D21*
X0003209644Y0000117499D03*
X0003327755Y0000117499D03*
X0003196944Y0001598500D03*
X0003315055Y0001598500D03*
D35*
X0000538700Y0002146500D03*
X0000341850Y0002146500D03*
X0000145000Y0002146500D03*
X0001112000Y0000728000D03*
X0001112000Y0000865795D03*
X0001112000Y0001003590D03*
D23*
X0001989027Y0000339499D03*
X0001929972Y0000339499D03*
X0001989027Y0000229500D03*
X0001929972Y0000229500D03*
D36*
X0002184539Y0000259736D03*
D37*
X0002284539Y0000259736D03*
X0002384539Y0000259736D03*
D16*
X0000754618Y0002012098D03*
X0000754618Y0002071153D03*
D38*
X0001740122Y0001289363D03*
X0001740122Y0001320859D03*
X0001740122Y0001352355D03*
X0001740122Y0001383851D03*
X0001740122Y0001415347D03*
X0001740122Y0001446844D03*
X0001740122Y0001478340D03*
X0001740122Y0001509836D03*
D39*
X0001683036Y0001566922D03*
X0001651540Y0001566922D03*
X0001620044Y0001566922D03*
X0001588548Y0001566922D03*
X0001557051Y0001566922D03*
X0001525555Y0001566922D03*
X0001494059Y0001566922D03*
X0001462563Y0001566922D03*
D38*
X0001405477Y0001509836D03*
X0001405477Y0001478340D03*
X0001405477Y0001446844D03*
X0001405477Y0001415347D03*
X0001405477Y0001383851D03*
X0001405477Y0001352355D03*
X0001405477Y0001320859D03*
X0001405477Y0001289363D03*
D39*
X0001462563Y0001232277D03*
X0001494059Y0001232277D03*
X0001525555Y0001232277D03*
X0001557051Y0001232277D03*
X0001588548Y0001232277D03*
X0001620044Y0001232277D03*
X0001651540Y0001232277D03*
X0001683036Y0001232277D03*
D18*
G36*
X0001702961Y0001698932D02*
G01*
X0001680690Y0001676661D01*
X0001655635Y0001701716D01*
X0001677906Y0001723987D01*
X0001702961Y0001698932D01*
G37*
G36*
X0001663987Y0001737906D02*
G01*
X0001641716Y0001715635D01*
X0001616661Y0001740690D01*
X0001638932Y0001762961D01*
X0001663987Y0001737906D01*
G37*
G36*
X0001633364Y0001707283D02*
G01*
X0001611093Y0001685012D01*
X0001586038Y0001710067D01*
X0001608309Y0001732338D01*
X0001633364Y0001707283D01*
G37*
G36*
X0001672338Y0001668309D02*
G01*
X0001650067Y0001646038D01*
X0001625012Y0001671093D01*
X0001647283Y0001693364D01*
X0001672338Y0001668309D01*
G37*
D20*
X0000453830Y0000063673D03*
X0000512885Y0000063673D03*
X0000464854Y0000642019D03*
X0000523909Y0000642019D03*
X0000482572Y0001203200D03*
X0000541627Y0001203200D03*
D24*
X0001347137Y0001135326D03*
X0001347137Y0001194381D03*
X0001290838Y0001643988D03*
X0001290838Y0001584933D03*
X0001256980Y0000384145D03*
X0001256980Y0000325090D03*
X0001195562Y0000384145D03*
X0001195562Y0000325090D03*
D23*
X0001601468Y0001007374D03*
X0001542413Y0001007374D03*
D24*
X0001410917Y0001092807D03*
X0001410917Y0001033751D03*
X0001165248Y0001518791D03*
X0001165248Y0001577846D03*
D23*
X0001162492Y0001626665D03*
X0001221547Y0001626665D03*
D24*
X0001319185Y0000325877D03*
X0001319185Y0000384933D03*
X0001490051Y0000991625D03*
X0001490051Y0000932570D03*
X0001227059Y0001518397D03*
X0001227059Y0001577452D03*
X0000570366Y0000119578D03*
X0000570366Y0000060523D03*
X0001380602Y0000384933D03*
X0001380602Y0000325877D03*
X0000583751Y0000688082D03*
X0000583751Y0000629027D03*
X0001425877Y0000932177D03*
X0001425877Y0000991232D03*
X0000602600Y0001250227D03*
X0000602600Y0001191172D03*
X0001218003Y0001414066D03*
X0001218003Y0001473122D03*
D18*
G36*
X0001716304Y0001726816D02*
G01*
X0001737183Y0001747695D01*
X0001759454Y0001725424D01*
X0001738575Y0001704545D01*
X0001716304Y0001726816D01*
G37*
G36*
X0001674545Y0001768575D02*
G01*
X0001695424Y0001789454D01*
X0001717695Y0001767183D01*
X0001696816Y0001746304D01*
X0001674545Y0001768575D01*
G37*
D16*
X0001541232Y0001736901D03*
X0001541232Y0001677846D03*
D20*
X0001275484Y0001466822D03*
X0001334539Y0001466822D03*
D16*
X0001304618Y0001354224D03*
X0001304618Y0001413279D03*
X0001825000Y0001423727D03*
X0001825000Y0001364672D03*
X0001888999Y0001424527D03*
X0001888999Y0001365472D03*
D20*
X0001429027Y0001697137D03*
X0001488082Y0001697137D03*
X0001794027Y0000334500D03*
X0001734972Y0000334500D03*
D21*
X0001740444Y0000264500D03*
X0001858555Y0000264500D03*
D40*
X0002477846Y0002135326D03*
X0002552649Y0002135326D03*
X0002515247Y0002214026D03*
D32*
X0003503586Y0002214999D03*
X0003389413Y0002214999D03*
X0003507086Y0001467499D03*
X0003392913Y0001467499D03*
X0003515586Y0000712000D03*
X0003401413Y0000712000D03*
D41*
X0002515200Y0001253413D03*
X0002515200Y0001367586D03*
D32*
X0003501586Y0001690500D03*
X0003387413Y0001690500D03*
X0003504586Y0000936500D03*
X0003390413Y0000936500D03*
X0003511886Y0000180500D03*
X0003397713Y0000180500D03*
D41*
X0001991700Y0001255413D03*
X0001991700Y0001369586D03*
D23*
X0001434933Y0001641232D03*
X0001493988Y0001641232D03*
X0001281389Y0001522728D03*
X0001340444Y0001522728D03*
D24*
X0001133751Y0000324696D03*
X0001133751Y0000383751D03*
D42*
X0002069500Y0000679500D03*
X0002169500Y0000679500D03*
X0002069500Y0000579499D03*
X0002169500Y0000579499D03*
X0002069500Y0000479500D03*
D43*
X0002169500Y0000479500D03*
X0002232570Y0000844775D03*
D42*
X0002232570Y0000944775D03*
X0002332570Y0000844775D03*
X0002332570Y0000944775D03*
D43*
X0001936507Y0002162885D03*
D42*
X0002036507Y0002162885D03*
X0002136507Y0002162885D03*
D18*
G36*
X0002570668Y0000405068D02*
G01*
X0002571504Y0000404944D01*
X0002572324Y0000404739D01*
X0002573120Y0000404454D01*
X0002573884Y0000404093D01*
X0002574609Y0000403658D01*
X0002575288Y0000403155D01*
X0002575914Y0000402587D01*
X0002576482Y0000401961D01*
X0002576985Y0000401282D01*
X0002577420Y0000400557D01*
X0002577781Y0000399793D01*
X0002578066Y0000398997D01*
X0002578271Y0000398178D01*
X0002578395Y0000397342D01*
X0002578437Y0000396498D01*
X0002578437Y0000379273D01*
X0002578395Y0000378429D01*
X0002578271Y0000377593D01*
X0002578066Y0000376773D01*
X0002577781Y0000375977D01*
X0002577420Y0000375213D01*
X0002576985Y0000374488D01*
X0002576482Y0000373810D01*
X0002575914Y0000373183D01*
X0002575288Y0000372616D01*
X0002574609Y0000372112D01*
X0002573884Y0000371678D01*
X0002573120Y0000371316D01*
X0002572324Y0000371032D01*
X0002571504Y0000370826D01*
X0002570668Y0000370702D01*
X0002569824Y0000370661D01*
X0002549647Y0000370661D01*
X0002548803Y0000370702D01*
X0002547967Y0000370826D01*
X0002547147Y0000371032D01*
X0002546351Y0000371316D01*
X0002545587Y0000371678D01*
X0002544862Y0000372112D01*
X0002544184Y0000372616D01*
X0002543557Y0000373183D01*
X0002542990Y0000373810D01*
X0002542486Y0000374488D01*
X0002542052Y0000375213D01*
X0002541690Y0000375977D01*
X0002541406Y0000376773D01*
X0002541200Y0000377593D01*
X0002541076Y0000378429D01*
X0002541035Y0000379273D01*
X0002541035Y0000396498D01*
X0002541076Y0000397342D01*
X0002541200Y0000398178D01*
X0002541406Y0000398997D01*
X0002541690Y0000399793D01*
X0002542052Y0000400557D01*
X0002542486Y0000401282D01*
X0002542990Y0000401961D01*
X0002543557Y0000402587D01*
X0002544184Y0000403155D01*
X0002544862Y0000403658D01*
X0002545587Y0000404093D01*
X0002546351Y0000404454D01*
X0002547147Y0000404739D01*
X0002547967Y0000404944D01*
X0002548803Y0000405068D01*
X0002549647Y0000405110D01*
X0002569824Y0000405110D01*
X0002570668Y0000405068D01*
G37*
G36*
X0002570668Y0000467076D02*
G01*
X0002571504Y0000466952D01*
X0002572324Y0000466747D01*
X0002573120Y0000466462D01*
X0002573884Y0000466101D01*
X0002574609Y0000465666D01*
X0002575288Y0000465163D01*
X0002575914Y0000464595D01*
X0002576482Y0000463969D01*
X0002576985Y0000463290D01*
X0002577420Y0000462565D01*
X0002577781Y0000461801D01*
X0002578066Y0000461005D01*
X0002578271Y0000460186D01*
X0002578395Y0000459350D01*
X0002578437Y0000458505D01*
X0002578437Y0000441281D01*
X0002578395Y0000440437D01*
X0002578271Y0000439601D01*
X0002578066Y0000438781D01*
X0002577781Y0000437985D01*
X0002577420Y0000437221D01*
X0002576985Y0000436496D01*
X0002576482Y0000435817D01*
X0002575914Y0000435191D01*
X0002575288Y0000434624D01*
X0002574609Y0000434120D01*
X0002573884Y0000433686D01*
X0002573120Y0000433324D01*
X0002572324Y0000433040D01*
X0002571504Y0000432834D01*
X0002570668Y0000432710D01*
X0002569824Y0000432669D01*
X0002549647Y0000432669D01*
X0002548803Y0000432710D01*
X0002547967Y0000432834D01*
X0002547147Y0000433040D01*
X0002546351Y0000433324D01*
X0002545587Y0000433686D01*
X0002544862Y0000434120D01*
X0002544184Y0000434624D01*
X0002543557Y0000435191D01*
X0002542990Y0000435817D01*
X0002542486Y0000436496D01*
X0002542052Y0000437221D01*
X0002541690Y0000437985D01*
X0002541406Y0000438781D01*
X0002541200Y0000439601D01*
X0002541076Y0000440437D01*
X0002541035Y0000441281D01*
X0002541035Y0000458505D01*
X0002541076Y0000459350D01*
X0002541200Y0000460186D01*
X0002541406Y0000461005D01*
X0002541690Y0000461801D01*
X0002542052Y0000462565D01*
X0002542486Y0000463290D01*
X0002542990Y0000463969D01*
X0002543557Y0000464595D01*
X0002544184Y0000465163D01*
X0002544862Y0000465666D01*
X0002545587Y0000466101D01*
X0002546351Y0000466462D01*
X0002547147Y0000466747D01*
X0002547967Y0000466952D01*
X0002548803Y0000467076D01*
X0002549647Y0000467118D01*
X0002569824Y0000467118D01*
X0002570668Y0000467076D01*
G37*
G36*
X0002460531Y0002259497D02*
G01*
X0002461367Y0002259373D01*
X0002462187Y0002259168D01*
X0002462982Y0002258883D01*
X0002463746Y0002258522D01*
X0002464471Y0002258087D01*
X0002465150Y0002257584D01*
X0002465776Y0002257016D01*
X0002466344Y0002256390D01*
X0002466847Y0002255711D01*
X0002467282Y0002254986D01*
X0002467643Y0002254222D01*
X0002467928Y0002253427D01*
X0002468133Y0002252607D01*
X0002468257Y0002251771D01*
X0002468299Y0002250927D01*
X0002468299Y0002230749D01*
X0002468257Y0002229905D01*
X0002468133Y0002229069D01*
X0002467928Y0002228250D01*
X0002467643Y0002227454D01*
X0002467282Y0002226690D01*
X0002466847Y0002225965D01*
X0002466344Y0002225286D01*
X0002465776Y0002224660D01*
X0002465150Y0002224092D01*
X0002464471Y0002223589D01*
X0002463746Y0002223154D01*
X0002462982Y0002222793D01*
X0002462187Y0002222508D01*
X0002461367Y0002222303D01*
X0002460531Y0002222179D01*
X0002459687Y0002222137D01*
X0002442462Y0002222137D01*
X0002441618Y0002222179D01*
X0002440782Y0002222303D01*
X0002439962Y0002222508D01*
X0002439166Y0002222793D01*
X0002438402Y0002223154D01*
X0002437677Y0002223589D01*
X0002436999Y0002224092D01*
X0002436372Y0002224660D01*
X0002435805Y0002225286D01*
X0002435301Y0002225965D01*
X0002434867Y0002226690D01*
X0002434505Y0002227454D01*
X0002434221Y0002228250D01*
X0002434015Y0002229069D01*
X0002433891Y0002229905D01*
X0002433850Y0002230749D01*
X0002433850Y0002250927D01*
X0002433891Y0002251771D01*
X0002434015Y0002252607D01*
X0002434221Y0002253427D01*
X0002434505Y0002254222D01*
X0002434867Y0002254986D01*
X0002435301Y0002255711D01*
X0002435805Y0002256390D01*
X0002436372Y0002257016D01*
X0002436999Y0002257584D01*
X0002437677Y0002258087D01*
X0002438402Y0002258522D01*
X0002439166Y0002258883D01*
X0002439962Y0002259168D01*
X0002440782Y0002259373D01*
X0002441618Y0002259497D01*
X0002442462Y0002259539D01*
X0002459687Y0002259539D01*
X0002460531Y0002259497D01*
G37*
G36*
X0002398523Y0002259497D02*
G01*
X0002399359Y0002259373D01*
X0002400179Y0002259168D01*
X0002400974Y0002258883D01*
X0002401738Y0002258522D01*
X0002402463Y0002258087D01*
X0002403142Y0002257584D01*
X0002403768Y0002257016D01*
X0002404336Y0002256390D01*
X0002404839Y0002255711D01*
X0002405274Y0002254986D01*
X0002405635Y0002254222D01*
X0002405920Y0002253427D01*
X0002406125Y0002252607D01*
X0002406249Y0002251771D01*
X0002406291Y0002250927D01*
X0002406291Y0002230749D01*
X0002406249Y0002229905D01*
X0002406125Y0002229069D01*
X0002405920Y0002228250D01*
X0002405635Y0002227454D01*
X0002405274Y0002226690D01*
X0002404839Y0002225965D01*
X0002404336Y0002225286D01*
X0002403768Y0002224660D01*
X0002403142Y0002224092D01*
X0002402463Y0002223589D01*
X0002401738Y0002223154D01*
X0002400974Y0002222793D01*
X0002400179Y0002222508D01*
X0002399359Y0002222303D01*
X0002398523Y0002222179D01*
X0002397679Y0002222137D01*
X0002380454Y0002222137D01*
X0002379610Y0002222179D01*
X0002378774Y0002222303D01*
X0002377954Y0002222508D01*
X0002377158Y0002222793D01*
X0002376394Y0002223154D01*
X0002375670Y0002223589D01*
X0002374991Y0002224092D01*
X0002374364Y0002224660D01*
X0002373797Y0002225286D01*
X0002373293Y0002225965D01*
X0002372859Y0002226690D01*
X0002372498Y0002227454D01*
X0002372213Y0002228250D01*
X0002372007Y0002229069D01*
X0002371883Y0002229905D01*
X0002371842Y0002230749D01*
X0002371842Y0002250927D01*
X0002371883Y0002251771D01*
X0002372007Y0002252607D01*
X0002372213Y0002253427D01*
X0002372498Y0002254222D01*
X0002372859Y0002254986D01*
X0002373293Y0002255711D01*
X0002373797Y0002256390D01*
X0002374364Y0002257016D01*
X0002374991Y0002257584D01*
X0002375670Y0002258087D01*
X0002376394Y0002258522D01*
X0002377158Y0002258883D01*
X0002377954Y0002259168D01*
X0002378774Y0002259373D01*
X0002379610Y0002259497D01*
X0002380454Y0002259539D01*
X0002397679Y0002259539D01*
X0002398523Y0002259497D01*
G37*
G36*
X0002648956Y0000878159D02*
G01*
X0002649792Y0000878035D01*
X0002650612Y0000877829D01*
X0002651407Y0000877545D01*
X0002652171Y0000877183D01*
X0002652896Y0000876749D01*
X0002653575Y0000876245D01*
X0002654201Y0000875678D01*
X0002654769Y0000875052D01*
X0002655272Y0000874373D01*
X0002655707Y0000873648D01*
X0002656068Y0000872884D01*
X0002656353Y0000872088D01*
X0002656558Y0000871268D01*
X0002656682Y0000870432D01*
X0002656724Y0000869588D01*
X0002656724Y0000849411D01*
X0002656682Y0000848567D01*
X0002656558Y0000847731D01*
X0002656353Y0000846911D01*
X0002656068Y0000846115D01*
X0002655707Y0000845351D01*
X0002655272Y0000844626D01*
X0002654769Y0000843947D01*
X0002654201Y0000843321D01*
X0002653575Y0000842754D01*
X0002652896Y0000842250D01*
X0002652171Y0000841816D01*
X0002651407Y0000841454D01*
X0002650612Y0000841170D01*
X0002649792Y0000840964D01*
X0002648956Y0000840840D01*
X0002648112Y0000840799D01*
X0002630887Y0000840799D01*
X0002630043Y0000840840D01*
X0002629207Y0000840964D01*
X0002628387Y0000841170D01*
X0002627592Y0000841454D01*
X0002626828Y0000841816D01*
X0002626103Y0000842250D01*
X0002625424Y0000842754D01*
X0002624798Y0000843321D01*
X0002624230Y0000843947D01*
X0002623727Y0000844626D01*
X0002623292Y0000845351D01*
X0002622931Y0000846115D01*
X0002622646Y0000846911D01*
X0002622441Y0000847731D01*
X0002622317Y0000848567D01*
X0002622275Y0000849411D01*
X0002622275Y0000869588D01*
X0002622317Y0000870432D01*
X0002622441Y0000871268D01*
X0002622646Y0000872088D01*
X0002622931Y0000872884D01*
X0002623292Y0000873648D01*
X0002623727Y0000874373D01*
X0002624230Y0000875052D01*
X0002624798Y0000875678D01*
X0002625424Y0000876245D01*
X0002626103Y0000876749D01*
X0002626828Y0000877183D01*
X0002627592Y0000877545D01*
X0002628387Y0000877829D01*
X0002629207Y0000878035D01*
X0002630043Y0000878159D01*
X0002630887Y0000878200D01*
X0002648112Y0000878200D01*
X0002648956Y0000878159D01*
G37*
G36*
X0002710964Y0000878159D02*
G01*
X0002711800Y0000878035D01*
X0002712620Y0000877829D01*
X0002713415Y0000877545D01*
X0002714179Y0000877183D01*
X0002714904Y0000876749D01*
X0002715583Y0000876245D01*
X0002716209Y0000875678D01*
X0002716777Y0000875052D01*
X0002717280Y0000874373D01*
X0002717715Y0000873648D01*
X0002718076Y0000872884D01*
X0002718361Y0000872088D01*
X0002718566Y0000871268D01*
X0002718690Y0000870432D01*
X0002718732Y0000869588D01*
X0002718732Y0000849411D01*
X0002718690Y0000848567D01*
X0002718566Y0000847731D01*
X0002718361Y0000846911D01*
X0002718076Y0000846115D01*
X0002717715Y0000845351D01*
X0002717280Y0000844626D01*
X0002716777Y0000843947D01*
X0002716209Y0000843321D01*
X0002715583Y0000842754D01*
X0002714904Y0000842250D01*
X0002714179Y0000841816D01*
X0002713415Y0000841454D01*
X0002712620Y0000841170D01*
X0002711800Y0000840964D01*
X0002710964Y0000840840D01*
X0002710120Y0000840799D01*
X0002692895Y0000840799D01*
X0002692051Y0000840840D01*
X0002691215Y0000840964D01*
X0002690395Y0000841170D01*
X0002689599Y0000841454D01*
X0002688835Y0000841816D01*
X0002688110Y0000842250D01*
X0002687432Y0000842754D01*
X0002686805Y0000843321D01*
X0002686238Y0000843947D01*
X0002685734Y0000844626D01*
X0002685300Y0000845351D01*
X0002684939Y0000846115D01*
X0002684654Y0000846911D01*
X0002684448Y0000847731D01*
X0002684324Y0000848567D01*
X0002684283Y0000849411D01*
X0002684283Y0000869588D01*
X0002684324Y0000870432D01*
X0002684448Y0000871268D01*
X0002684654Y0000872088D01*
X0002684939Y0000872884D01*
X0002685300Y0000873648D01*
X0002685734Y0000874373D01*
X0002686238Y0000875052D01*
X0002686805Y0000875678D01*
X0002687432Y0000876245D01*
X0002688110Y0000876749D01*
X0002688835Y0000877183D01*
X0002689599Y0000877545D01*
X0002690395Y0000877829D01*
X0002691215Y0000878035D01*
X0002692051Y0000878159D01*
X0002692895Y0000878200D01*
X0002710120Y0000878200D01*
X0002710964Y0000878159D01*
G37*
G36*
X0002359960Y0002208159D02*
G01*
X0002360796Y0002208035D01*
X0002361616Y0002207829D01*
X0002362411Y0002207545D01*
X0002363175Y0002207183D01*
X0002363900Y0002206749D01*
X0002364579Y0002206245D01*
X0002365205Y0002205678D01*
X0002365773Y0002205052D01*
X0002366276Y0002204373D01*
X0002366711Y0002203648D01*
X0002367072Y0002202884D01*
X0002367357Y0002202088D01*
X0002367562Y0002201268D01*
X0002367686Y0002200432D01*
X0002367728Y0002199588D01*
X0002367728Y0002179411D01*
X0002367686Y0002178567D01*
X0002367562Y0002177731D01*
X0002367357Y0002176911D01*
X0002367072Y0002176115D01*
X0002366711Y0002175351D01*
X0002366276Y0002174626D01*
X0002365773Y0002173947D01*
X0002365205Y0002173321D01*
X0002364579Y0002172754D01*
X0002363900Y0002172250D01*
X0002363175Y0002171816D01*
X0002362411Y0002171454D01*
X0002361616Y0002171170D01*
X0002360796Y0002170964D01*
X0002359960Y0002170840D01*
X0002359116Y0002170799D01*
X0002341891Y0002170799D01*
X0002341047Y0002170840D01*
X0002340211Y0002170964D01*
X0002339391Y0002171170D01*
X0002338595Y0002171454D01*
X0002337831Y0002171816D01*
X0002337107Y0002172250D01*
X0002336428Y0002172754D01*
X0002335801Y0002173321D01*
X0002335234Y0002173947D01*
X0002334730Y0002174626D01*
X0002334296Y0002175351D01*
X0002333935Y0002176115D01*
X0002333650Y0002176911D01*
X0002333445Y0002177731D01*
X0002333320Y0002178567D01*
X0002333279Y0002179411D01*
X0002333279Y0002199588D01*
X0002333320Y0002200432D01*
X0002333445Y0002201268D01*
X0002333650Y0002202088D01*
X0002333935Y0002202884D01*
X0002334296Y0002203648D01*
X0002334730Y0002204373D01*
X0002335234Y0002205052D01*
X0002335801Y0002205678D01*
X0002336428Y0002206245D01*
X0002337107Y0002206749D01*
X0002337831Y0002207183D01*
X0002338595Y0002207545D01*
X0002339391Y0002207829D01*
X0002340211Y0002208035D01*
X0002341047Y0002208159D01*
X0002341891Y0002208200D01*
X0002359116Y0002208200D01*
X0002359960Y0002208159D01*
G37*
G36*
X0002297952Y0002208159D02*
G01*
X0002298788Y0002208035D01*
X0002299608Y0002207829D01*
X0002300404Y0002207545D01*
X0002301167Y0002207183D01*
X0002301892Y0002206749D01*
X0002302571Y0002206245D01*
X0002303198Y0002205678D01*
X0002303765Y0002205052D01*
X0002304269Y0002204373D01*
X0002304703Y0002203648D01*
X0002305064Y0002202884D01*
X0002305349Y0002202088D01*
X0002305555Y0002201268D01*
X0002305678Y0002200432D01*
X0002305720Y0002199588D01*
X0002305720Y0002179411D01*
X0002305678Y0002178567D01*
X0002305555Y0002177731D01*
X0002305349Y0002176911D01*
X0002305064Y0002176115D01*
X0002304703Y0002175351D01*
X0002304269Y0002174626D01*
X0002303765Y0002173947D01*
X0002303198Y0002173321D01*
X0002302571Y0002172754D01*
X0002301892Y0002172250D01*
X0002301167Y0002171816D01*
X0002300404Y0002171454D01*
X0002299608Y0002171170D01*
X0002298788Y0002170964D01*
X0002297952Y0002170840D01*
X0002297108Y0002170799D01*
X0002279883Y0002170799D01*
X0002279039Y0002170840D01*
X0002278203Y0002170964D01*
X0002277383Y0002171170D01*
X0002276588Y0002171454D01*
X0002275824Y0002171816D01*
X0002275099Y0002172250D01*
X0002274420Y0002172754D01*
X0002273794Y0002173321D01*
X0002273226Y0002173947D01*
X0002272723Y0002174626D01*
X0002272288Y0002175351D01*
X0002271927Y0002176115D01*
X0002271642Y0002176911D01*
X0002271437Y0002177731D01*
X0002271313Y0002178567D01*
X0002271271Y0002179411D01*
X0002271271Y0002199588D01*
X0002271313Y0002200432D01*
X0002271437Y0002201268D01*
X0002271642Y0002202088D01*
X0002271927Y0002202884D01*
X0002272288Y0002203648D01*
X0002272723Y0002204373D01*
X0002273226Y0002205052D01*
X0002273794Y0002205678D01*
X0002274420Y0002206245D01*
X0002275099Y0002206749D01*
X0002275824Y0002207183D01*
X0002276588Y0002207545D01*
X0002277383Y0002207829D01*
X0002278203Y0002208035D01*
X0002279039Y0002208159D01*
X0002279883Y0002208200D01*
X0002297108Y0002208200D01*
X0002297952Y0002208159D01*
G37*
G36*
X0001787598Y0002207430D02*
G01*
X0001788434Y0002207306D01*
X0001789253Y0002207101D01*
X0001790049Y0002206816D01*
X0001790813Y0002206455D01*
X0001791538Y0002206021D01*
X0001792217Y0002205517D01*
X0001792843Y0002204950D01*
X0001793411Y0002204323D01*
X0001793914Y0002203644D01*
X0001794349Y0002202919D01*
X0001794710Y0002202155D01*
X0001794995Y0002201360D01*
X0001795200Y0002200540D01*
X0001795324Y0002199704D01*
X0001795366Y0002198860D01*
X0001795366Y0002181635D01*
X0001795324Y0002180791D01*
X0001795200Y0002179955D01*
X0001794995Y0002179135D01*
X0001794710Y0002178340D01*
X0001794349Y0002177576D01*
X0001793914Y0002176851D01*
X0001793411Y0002176172D01*
X0001792843Y0002175546D01*
X0001792217Y0002174978D01*
X0001791538Y0002174475D01*
X0001790813Y0002174040D01*
X0001790049Y0002173679D01*
X0001789253Y0002173394D01*
X0001788434Y0002173189D01*
X0001787598Y0002173065D01*
X0001786753Y0002173023D01*
X0001766576Y0002173023D01*
X0001765732Y0002173065D01*
X0001764896Y0002173189D01*
X0001764076Y0002173394D01*
X0001763281Y0002173679D01*
X0001762516Y0002174040D01*
X0001761792Y0002174475D01*
X0001761113Y0002174978D01*
X0001760487Y0002175546D01*
X0001759919Y0002176172D01*
X0001759415Y0002176851D01*
X0001758981Y0002177576D01*
X0001758620Y0002178340D01*
X0001758335Y0002179135D01*
X0001758130Y0002179955D01*
X0001758005Y0002180791D01*
X0001757964Y0002181635D01*
X0001757964Y0002198860D01*
X0001758005Y0002199704D01*
X0001758130Y0002200540D01*
X0001758335Y0002201360D01*
X0001758620Y0002202155D01*
X0001758981Y0002202919D01*
X0001759415Y0002203644D01*
X0001759919Y0002204323D01*
X0001760487Y0002204950D01*
X0001761113Y0002205517D01*
X0001761792Y0002206021D01*
X0001762516Y0002206455D01*
X0001763281Y0002206816D01*
X0001764076Y0002207101D01*
X0001764896Y0002207306D01*
X0001765732Y0002207430D01*
X0001766576Y0002207472D01*
X0001786753Y0002207472D01*
X0001787598Y0002207430D01*
G37*
G36*
X0001787598Y0002145423D02*
G01*
X0001788434Y0002145299D01*
X0001789253Y0002145093D01*
X0001790049Y0002144808D01*
X0001790813Y0002144447D01*
X0001791538Y0002144013D01*
X0001792217Y0002143509D01*
X0001792843Y0002142942D01*
X0001793411Y0002142315D01*
X0001793914Y0002141637D01*
X0001794349Y0002140912D01*
X0001794710Y0002140148D01*
X0001794995Y0002139352D01*
X0001795200Y0002138532D01*
X0001795324Y0002137696D01*
X0001795366Y0002136852D01*
X0001795366Y0002119627D01*
X0001795324Y0002118783D01*
X0001795200Y0002117947D01*
X0001794995Y0002117127D01*
X0001794710Y0002116332D01*
X0001794349Y0002115568D01*
X0001793914Y0002114843D01*
X0001793411Y0002114164D01*
X0001792843Y0002113538D01*
X0001792217Y0002112970D01*
X0001791538Y0002112467D01*
X0001790813Y0002112032D01*
X0001790049Y0002111671D01*
X0001789253Y0002111386D01*
X0001788434Y0002111181D01*
X0001787598Y0002111057D01*
X0001786753Y0002111015D01*
X0001766576Y0002111015D01*
X0001765732Y0002111057D01*
X0001764896Y0002111181D01*
X0001764076Y0002111386D01*
X0001763281Y0002111671D01*
X0001762516Y0002112032D01*
X0001761792Y0002112467D01*
X0001761113Y0002112970D01*
X0001760487Y0002113538D01*
X0001759919Y0002114164D01*
X0001759415Y0002114843D01*
X0001758981Y0002115568D01*
X0001758620Y0002116332D01*
X0001758335Y0002117127D01*
X0001758130Y0002117947D01*
X0001758005Y0002118783D01*
X0001757964Y0002119627D01*
X0001757964Y0002136852D01*
X0001758005Y0002137696D01*
X0001758130Y0002138532D01*
X0001758335Y0002139352D01*
X0001758620Y0002140148D01*
X0001758981Y0002140912D01*
X0001759415Y0002141637D01*
X0001759919Y0002142315D01*
X0001760487Y0002142942D01*
X0001761113Y0002143509D01*
X0001761792Y0002144013D01*
X0001762516Y0002144447D01*
X0001763281Y0002144808D01*
X0001764076Y0002145093D01*
X0001764896Y0002145299D01*
X0001765732Y0002145423D01*
X0001766576Y0002145464D01*
X0001786753Y0002145464D01*
X0001787598Y0002145423D01*
G37*
G36*
X0001720432Y0002145678D02*
G01*
X0001721268Y0002145555D01*
X0001722088Y0002145349D01*
X0001722884Y0002145064D01*
X0001723648Y0002144703D01*
X0001724373Y0002144269D01*
X0001725052Y0002143765D01*
X0001725678Y0002143198D01*
X0001726245Y0002142571D01*
X0001726749Y0002141892D01*
X0001727183Y0002141167D01*
X0001727545Y0002140404D01*
X0001727829Y0002139608D01*
X0001728035Y0002138788D01*
X0001728159Y0002137952D01*
X0001728200Y0002137108D01*
X0001728200Y0002119883D01*
X0001728159Y0002119039D01*
X0001728035Y0002118203D01*
X0001727829Y0002117383D01*
X0001727545Y0002116588D01*
X0001727183Y0002115824D01*
X0001726749Y0002115099D01*
X0001726245Y0002114420D01*
X0001725678Y0002113794D01*
X0001725052Y0002113226D01*
X0001724373Y0002112723D01*
X0001723648Y0002112288D01*
X0001722884Y0002111927D01*
X0001722088Y0002111642D01*
X0001721268Y0002111437D01*
X0001720432Y0002111313D01*
X0001719588Y0002111271D01*
X0001699411Y0002111271D01*
X0001698567Y0002111313D01*
X0001697731Y0002111437D01*
X0001696911Y0002111642D01*
X0001696115Y0002111927D01*
X0001695351Y0002112288D01*
X0001694626Y0002112723D01*
X0001693947Y0002113226D01*
X0001693321Y0002113794D01*
X0001692754Y0002114420D01*
X0001692250Y0002115099D01*
X0001691816Y0002115824D01*
X0001691454Y0002116588D01*
X0001691170Y0002117383D01*
X0001690964Y0002118203D01*
X0001690840Y0002119039D01*
X0001690799Y0002119883D01*
X0001690799Y0002137108D01*
X0001690840Y0002137952D01*
X0001690964Y0002138788D01*
X0001691170Y0002139608D01*
X0001691454Y0002140404D01*
X0001691816Y0002141167D01*
X0001692250Y0002141892D01*
X0001692754Y0002142571D01*
X0001693321Y0002143198D01*
X0001693947Y0002143765D01*
X0001694626Y0002144269D01*
X0001695351Y0002144703D01*
X0001696115Y0002145064D01*
X0001696911Y0002145349D01*
X0001697731Y0002145555D01*
X0001698567Y0002145678D01*
X0001699411Y0002145720D01*
X0001719588Y0002145720D01*
X0001720432Y0002145678D01*
G37*
G36*
X0001720432Y0002207686D02*
G01*
X0001721268Y0002207562D01*
X0001722088Y0002207357D01*
X0001722884Y0002207072D01*
X0001723648Y0002206711D01*
X0001724373Y0002206276D01*
X0001725052Y0002205773D01*
X0001725678Y0002205205D01*
X0001726245Y0002204579D01*
X0001726749Y0002203900D01*
X0001727183Y0002203175D01*
X0001727545Y0002202411D01*
X0001727829Y0002201616D01*
X0001728035Y0002200796D01*
X0001728159Y0002199960D01*
X0001728200Y0002199116D01*
X0001728200Y0002181891D01*
X0001728159Y0002181047D01*
X0001728035Y0002180211D01*
X0001727829Y0002179391D01*
X0001727545Y0002178595D01*
X0001727183Y0002177831D01*
X0001726749Y0002177107D01*
X0001726245Y0002176428D01*
X0001725678Y0002175801D01*
X0001725052Y0002175234D01*
X0001724373Y0002174730D01*
X0001723648Y0002174296D01*
X0001722884Y0002173935D01*
X0001722088Y0002173650D01*
X0001721268Y0002173445D01*
X0001720432Y0002173320D01*
X0001719588Y0002173279D01*
X0001699411Y0002173279D01*
X0001698567Y0002173320D01*
X0001697731Y0002173445D01*
X0001696911Y0002173650D01*
X0001696115Y0002173935D01*
X0001695351Y0002174296D01*
X0001694626Y0002174730D01*
X0001693947Y0002175234D01*
X0001693321Y0002175801D01*
X0001692754Y0002176428D01*
X0001692250Y0002177107D01*
X0001691816Y0002177831D01*
X0001691454Y0002178595D01*
X0001691170Y0002179391D01*
X0001690964Y0002180211D01*
X0001690840Y0002181047D01*
X0001690799Y0002181891D01*
X0001690799Y0002199116D01*
X0001690840Y0002199960D01*
X0001690964Y0002200796D01*
X0001691170Y0002201616D01*
X0001691454Y0002202411D01*
X0001691816Y0002203175D01*
X0001692250Y0002203900D01*
X0001692754Y0002204579D01*
X0001693321Y0002205205D01*
X0001693947Y0002205773D01*
X0001694626Y0002206276D01*
X0001695351Y0002206711D01*
X0001696115Y0002207072D01*
X0001696911Y0002207357D01*
X0001697731Y0002207562D01*
X0001698567Y0002207686D01*
X0001699411Y0002207728D01*
X0001719588Y0002207728D01*
X0001720432Y0002207686D01*
G37*
G36*
X0001830432Y0001926682D02*
G01*
X0001831268Y0001926558D01*
X0001832088Y0001926353D01*
X0001832884Y0001926068D01*
X0001833648Y0001925707D01*
X0001834373Y0001925272D01*
X0001835052Y0001924769D01*
X0001835678Y0001924201D01*
X0001836245Y0001923575D01*
X0001836749Y0001922896D01*
X0001837183Y0001922171D01*
X0001837545Y0001921407D01*
X0001837829Y0001920612D01*
X0001838035Y0001919792D01*
X0001838159Y0001918956D01*
X0001838200Y0001918112D01*
X0001838200Y0001900887D01*
X0001838159Y0001900043D01*
X0001838035Y0001899207D01*
X0001837829Y0001898387D01*
X0001837545Y0001897592D01*
X0001837183Y0001896828D01*
X0001836749Y0001896103D01*
X0001836245Y0001895424D01*
X0001835678Y0001894797D01*
X0001835052Y0001894230D01*
X0001834373Y0001893727D01*
X0001833648Y0001893292D01*
X0001832884Y0001892931D01*
X0001832088Y0001892646D01*
X0001831268Y0001892441D01*
X0001830432Y0001892317D01*
X0001829588Y0001892275D01*
X0001809411Y0001892275D01*
X0001808567Y0001892317D01*
X0001807731Y0001892441D01*
X0001806911Y0001892646D01*
X0001806115Y0001892931D01*
X0001805351Y0001893292D01*
X0001804626Y0001893727D01*
X0001803947Y0001894230D01*
X0001803321Y0001894797D01*
X0001802754Y0001895424D01*
X0001802250Y0001896103D01*
X0001801816Y0001896828D01*
X0001801454Y0001897592D01*
X0001801170Y0001898387D01*
X0001800964Y0001899207D01*
X0001800840Y0001900043D01*
X0001800799Y0001900887D01*
X0001800799Y0001918112D01*
X0001800840Y0001918956D01*
X0001800964Y0001919792D01*
X0001801170Y0001920612D01*
X0001801454Y0001921407D01*
X0001801816Y0001922171D01*
X0001802250Y0001922896D01*
X0001802754Y0001923575D01*
X0001803321Y0001924201D01*
X0001803947Y0001924769D01*
X0001804626Y0001925272D01*
X0001805351Y0001925707D01*
X0001806115Y0001926068D01*
X0001806911Y0001926353D01*
X0001807731Y0001926558D01*
X0001808567Y0001926682D01*
X0001809411Y0001926724D01*
X0001829588Y0001926724D01*
X0001830432Y0001926682D01*
G37*
G36*
X0001830432Y0001988690D02*
G01*
X0001831268Y0001988566D01*
X0001832088Y0001988361D01*
X0001832884Y0001988076D01*
X0001833648Y0001987715D01*
X0001834373Y0001987280D01*
X0001835052Y0001986777D01*
X0001835678Y0001986209D01*
X0001836245Y0001985583D01*
X0001836749Y0001984904D01*
X0001837183Y0001984179D01*
X0001837545Y0001983415D01*
X0001837829Y0001982620D01*
X0001838035Y0001981800D01*
X0001838159Y0001980964D01*
X0001838200Y0001980120D01*
X0001838200Y0001962895D01*
X0001838159Y0001962051D01*
X0001838035Y0001961215D01*
X0001837829Y0001960395D01*
X0001837545Y0001959599D01*
X0001837183Y0001958835D01*
X0001836749Y0001958110D01*
X0001836245Y0001957432D01*
X0001835678Y0001956805D01*
X0001835052Y0001956238D01*
X0001834373Y0001955734D01*
X0001833648Y0001955300D01*
X0001832884Y0001954939D01*
X0001832088Y0001954654D01*
X0001831268Y0001954448D01*
X0001830432Y0001954324D01*
X0001829588Y0001954283D01*
X0001809411Y0001954283D01*
X0001808567Y0001954324D01*
X0001807731Y0001954448D01*
X0001806911Y0001954654D01*
X0001806115Y0001954939D01*
X0001805351Y0001955300D01*
X0001804626Y0001955734D01*
X0001803947Y0001956238D01*
X0001803321Y0001956805D01*
X0001802754Y0001957432D01*
X0001802250Y0001958110D01*
X0001801816Y0001958835D01*
X0001801454Y0001959599D01*
X0001801170Y0001960395D01*
X0001800964Y0001961215D01*
X0001800840Y0001962051D01*
X0001800799Y0001962895D01*
X0001800799Y0001980120D01*
X0001800840Y0001980964D01*
X0001800964Y0001981800D01*
X0001801170Y0001982620D01*
X0001801454Y0001983415D01*
X0001801816Y0001984179D01*
X0001802250Y0001984904D01*
X0001802754Y0001985583D01*
X0001803321Y0001986209D01*
X0001803947Y0001986777D01*
X0001804626Y0001987280D01*
X0001805351Y0001987715D01*
X0001806115Y0001988076D01*
X0001806911Y0001988361D01*
X0001807731Y0001988566D01*
X0001808567Y0001988690D01*
X0001809411Y0001988732D01*
X0001829588Y0001988732D01*
X0001830432Y0001988690D01*
G37*
G36*
X0002114665Y0000809891D02*
G01*
X0002115501Y0000809767D01*
X0002116320Y0000809562D01*
X0002117116Y0000809277D01*
X0002117880Y0000808916D01*
X0002118605Y0000808481D01*
X0002119284Y0000807978D01*
X0002119910Y0000807410D01*
X0002120478Y0000806784D01*
X0002120981Y0000806105D01*
X0002121416Y0000805380D01*
X0002121777Y0000804616D01*
X0002122062Y0000803820D01*
X0002122267Y0000803001D01*
X0002122391Y0000802165D01*
X0002122433Y0000801320D01*
X0002122433Y0000781143D01*
X0002122391Y0000780299D01*
X0002122267Y0000779463D01*
X0002122062Y0000778643D01*
X0002121777Y0000777847D01*
X0002121416Y0000777083D01*
X0002120981Y0000776359D01*
X0002120478Y0000775680D01*
X0002119910Y0000775053D01*
X0002119284Y0000774486D01*
X0002118605Y0000773982D01*
X0002117880Y0000773548D01*
X0002117116Y0000773187D01*
X0002116320Y0000772902D01*
X0002115501Y0000772696D01*
X0002114665Y0000772572D01*
X0002113820Y0000772531D01*
X0002096596Y0000772531D01*
X0002095752Y0000772572D01*
X0002094916Y0000772696D01*
X0002094096Y0000772902D01*
X0002093300Y0000773187D01*
X0002092536Y0000773548D01*
X0002091811Y0000773982D01*
X0002091132Y0000774486D01*
X0002090506Y0000775053D01*
X0002089939Y0000775680D01*
X0002089435Y0000776359D01*
X0002089001Y0000777083D01*
X0002088639Y0000777847D01*
X0002088355Y0000778643D01*
X0002088149Y0000779463D01*
X0002088025Y0000780299D01*
X0002087984Y0000781143D01*
X0002087984Y0000801320D01*
X0002088025Y0000802165D01*
X0002088149Y0000803001D01*
X0002088355Y0000803820D01*
X0002088639Y0000804616D01*
X0002089001Y0000805380D01*
X0002089435Y0000806105D01*
X0002089939Y0000806784D01*
X0002090506Y0000807410D01*
X0002091132Y0000807978D01*
X0002091811Y0000808481D01*
X0002092536Y0000808916D01*
X0002093300Y0000809277D01*
X0002094096Y0000809562D01*
X0002094916Y0000809767D01*
X0002095752Y0000809891D01*
X0002096596Y0000809933D01*
X0002113820Y0000809933D01*
X0002114665Y0000809891D01*
G37*
G36*
X0002052657Y0000809891D02*
G01*
X0002053493Y0000809767D01*
X0002054312Y0000809562D01*
X0002055108Y0000809277D01*
X0002055872Y0000808916D01*
X0002056597Y0000808481D01*
X0002057276Y0000807978D01*
X0002057902Y0000807410D01*
X0002058470Y0000806784D01*
X0002058973Y0000806105D01*
X0002059408Y0000805380D01*
X0002059769Y0000804616D01*
X0002060054Y0000803820D01*
X0002060259Y0000803001D01*
X0002060383Y0000802165D01*
X0002060425Y0000801320D01*
X0002060425Y0000781143D01*
X0002060383Y0000780299D01*
X0002060259Y0000779463D01*
X0002060054Y0000778643D01*
X0002059769Y0000777847D01*
X0002059408Y0000777083D01*
X0002058973Y0000776359D01*
X0002058470Y0000775680D01*
X0002057902Y0000775053D01*
X0002057276Y0000774486D01*
X0002056597Y0000773982D01*
X0002055872Y0000773548D01*
X0002055108Y0000773187D01*
X0002054312Y0000772902D01*
X0002053493Y0000772696D01*
X0002052657Y0000772572D01*
X0002051812Y0000772531D01*
X0002034588Y0000772531D01*
X0002033744Y0000772572D01*
X0002032908Y0000772696D01*
X0002032088Y0000772902D01*
X0002031292Y0000773187D01*
X0002030528Y0000773548D01*
X0002029803Y0000773982D01*
X0002029125Y0000774486D01*
X0002028498Y0000775053D01*
X0002027931Y0000775680D01*
X0002027427Y0000776359D01*
X0002026993Y0000777083D01*
X0002026631Y0000777847D01*
X0002026347Y0000778643D01*
X0002026141Y0000779463D01*
X0002026017Y0000780299D01*
X0002025976Y0000781143D01*
X0002025976Y0000801320D01*
X0002026017Y0000802165D01*
X0002026141Y0000803001D01*
X0002026347Y0000803820D01*
X0002026631Y0000804616D01*
X0002026993Y0000805380D01*
X0002027427Y0000806105D01*
X0002027931Y0000806784D01*
X0002028498Y0000807410D01*
X0002029125Y0000807978D01*
X0002029803Y0000808481D01*
X0002030528Y0000808916D01*
X0002031292Y0000809277D01*
X0002032088Y0000809562D01*
X0002032908Y0000809767D01*
X0002033744Y0000809891D01*
X0002034588Y0000809933D01*
X0002051812Y0000809933D01*
X0002052657Y0000809891D01*
G37*
D44*
X0001556732Y0000491208D03*
X0001576417Y0000491208D03*
X0001596102Y0000491208D03*
X0001615787Y0000491208D03*
X0001635472Y0000491208D03*
X0001655157Y0000491208D03*
X0001674842Y0000491208D03*
X0001694527Y0000491208D03*
X0001714212Y0000491208D03*
X0001733897Y0000491208D03*
X0001753582Y0000491208D03*
X0001773267Y0000491208D03*
D45*
X0001834291Y0000552232D03*
X0001834291Y0000571917D03*
X0001834291Y0000591602D03*
X0001834291Y0000611287D03*
X0001834291Y0000630972D03*
X0001834291Y0000650657D03*
X0001834291Y0000670342D03*
X0001834291Y0000690027D03*
X0001834291Y0000709712D03*
X0001834291Y0000729397D03*
X0001834291Y0000749082D03*
X0001834291Y0000768767D03*
D44*
X0001773267Y0000829791D03*
X0001753582Y0000829791D03*
X0001733897Y0000829791D03*
X0001714212Y0000829791D03*
X0001694527Y0000829791D03*
X0001674842Y0000829791D03*
X0001655157Y0000829791D03*
X0001635472Y0000829791D03*
X0001615787Y0000829791D03*
X0001596102Y0000829791D03*
X0001576417Y0000829791D03*
X0001556732Y0000829791D03*
D45*
X0001495708Y0000768767D03*
X0001495708Y0000749082D03*
X0001495708Y0000729397D03*
X0001495708Y0000709712D03*
X0001495708Y0000690027D03*
X0001495708Y0000670342D03*
X0001495708Y0000650657D03*
X0001495708Y0000630972D03*
X0001495708Y0000611287D03*
X0001495708Y0000591602D03*
X0001495708Y0000571917D03*
X0001495708Y0000552232D03*
D46*
X0001665000Y0000660500D03*
D43*
X0002499893Y0000536114D03*
D42*
X0002499893Y0000636114D03*
X0002499893Y0000736114D03*
X0002499893Y0000836114D03*
X0002499893Y0000936114D03*
D47*
X0001154539Y0000259500D03*
X0001284460Y0000259500D03*
X0002863279Y0000127452D03*
X0002733358Y0000127452D03*
D48*
X0003375090Y0000067610D03*
X0000241232Y0000659736D03*
X0001857373Y0001821547D03*
G04 next file*
%LPD*%
G04 #@! TF.GenerationSoftware,KiCad,Pcbnew,(5.1.5-0)*
G04 #@! TF.CreationDate,2020-08-20T14:13:21-04:00*
G04 #@! TF.ProjectId,GrBLDC,4772424c-4443-42e6-9b69-6361645f7063,rev?*
G04 #@! TF.SameCoordinates,PX5a7646cPY8128a60*
G04 #@! TF.FileFunction,Soldermask,Top*
G04 #@! TF.FilePolarity,Negative*
G04 Gerber Fmt 4.6, Leading zero omitted, Abs format (unit mm)*
G04 Created by KiCad (PCBNEW (5.1.5-0)) date 2020-08-20 14:13:21*
G04 APERTURE LIST*
G04 APERTURE END LIST*
D59*
X0000000000Y0002480314D02*
X0003331925Y0003526582D03*
X0003383106Y0003526582D03*
X0003331925Y0003577763D03*
X0003434287Y0003577763D03*
X0003383106Y0003577763D03*
X0003331925Y0003628944D03*
X0003434287Y0003628944D03*
X0003383106Y0003628944D03*
X0003434287Y0003833669D03*
X0003331925Y0003833669D03*
X0003383106Y0003833669D03*
X0003434287Y0003782488D03*
X0003331925Y0003782488D03*
X0003383106Y0003782488D03*
X0003331925Y0003731307D03*
X0003434287Y0003731307D03*
X0003383106Y0003731307D03*
X0003331925Y0003680125D03*
X0003434287Y0003680125D03*
X0003434287Y0003526582D03*
X0003383106Y0003680125D03*
D60*
X0003493342Y0003668314D03*
X0003493342Y0003693905D03*
X0003493342Y0003719496D03*
X0003493342Y0003745086D03*
X0003272870Y0003591543D03*
D61*
X0003493342Y0003591543D03*
X0003493342Y0003617133D03*
D60*
X0003493342Y0003642724D03*
X0003272870Y0003770677D03*
X0003272870Y0003745086D03*
X0003272870Y0003719496D03*
X0003272870Y0003693905D03*
X0003272870Y0003668314D03*
X0003272870Y0003642724D03*
X0003493342Y0003770677D03*
X0003272870Y0003617133D03*
D61*
X0003493342Y0003565952D03*
D60*
X0003493342Y0003796267D03*
X0003272870Y0003796267D03*
X0003272870Y0003565952D03*
D61*
X0003493342Y0003540362D03*
D60*
X0003493342Y0003821858D03*
X0003272870Y0003821858D03*
X0003272870Y0003540362D03*
D61*
X0003493342Y0003514771D03*
D60*
X0003493342Y0003847448D03*
X0003272870Y0003847448D03*
X0003272870Y0003514771D03*
D62*
X0003383106Y0003668314D03*
D63*
X0001085500Y0002632314D03*
D64*
X0001185500Y0002632314D03*
X0001285500Y0002632314D03*
X0001385500Y0002632314D03*
X0001485500Y0002632314D03*
X0001585500Y0002632314D03*
X0001685500Y0002632314D03*
X0001785500Y0002632314D03*
D65*
X0001720000Y0004440842D03*
X0001720000Y0004381787D03*
D66*
X0002754980Y0003478326D03*
X0002754980Y0003017303D03*
D65*
X0002087795Y0002809448D03*
X0002087795Y0002750393D03*
D67*
G36*
X0002890932Y0003276749D02*
G01*
X0002891768Y0003276625D01*
X0002892588Y0003276420D01*
X0002893384Y0003276135D01*
X0002894148Y0003275774D01*
X0002894873Y0003275339D01*
X0002895552Y0003274836D01*
X0002896178Y0003274268D01*
X0002896745Y0003273642D01*
X0002897249Y0003272963D01*
X0002897683Y0003272238D01*
X0002898045Y0003271474D01*
X0002898329Y0003270679D01*
X0002898535Y0003269859D01*
X0002898659Y0003269023D01*
X0002898700Y0003268179D01*
X0002898700Y0003250954D01*
X0002898659Y0003250110D01*
X0002898535Y0003249274D01*
X0002898329Y0003248454D01*
X0002898045Y0003247658D01*
X0002897683Y0003246894D01*
X0002897249Y0003246170D01*
X0002896745Y0003245491D01*
X0002896178Y0003244864D01*
X0002895552Y0003244297D01*
X0002894873Y0003243793D01*
X0002894148Y0003243359D01*
X0002893384Y0003242998D01*
X0002892588Y0003242713D01*
X0002891768Y0003242507D01*
X0002890932Y0003242383D01*
X0002890088Y0003242342D01*
X0002869911Y0003242342D01*
X0002869067Y0003242383D01*
X0002868231Y0003242507D01*
X0002867411Y0003242713D01*
X0002866615Y0003242998D01*
X0002865851Y0003243359D01*
X0002865126Y0003243793D01*
X0002864447Y0003244297D01*
X0002863821Y0003244864D01*
X0002863254Y0003245491D01*
X0002862750Y0003246170D01*
X0002862316Y0003246894D01*
X0002861954Y0003247658D01*
X0002861670Y0003248454D01*
X0002861464Y0003249274D01*
X0002861340Y0003250110D01*
X0002861299Y0003250954D01*
X0002861299Y0003268179D01*
X0002861340Y0003269023D01*
X0002861464Y0003269859D01*
X0002861670Y0003270679D01*
X0002861954Y0003271474D01*
X0002862316Y0003272238D01*
X0002862750Y0003272963D01*
X0002863254Y0003273642D01*
X0002863821Y0003274268D01*
X0002864447Y0003274836D01*
X0002865126Y0003275339D01*
X0002865851Y0003275774D01*
X0002866615Y0003276135D01*
X0002867411Y0003276420D01*
X0002868231Y0003276625D01*
X0002869067Y0003276749D01*
X0002869911Y0003276791D01*
X0002890088Y0003276791D01*
X0002890932Y0003276749D01*
G37*
G36*
X0002890932Y0003214742D02*
G01*
X0002891768Y0003214617D01*
X0002892588Y0003214412D01*
X0002893384Y0003214127D01*
X0002894148Y0003213766D01*
X0002894873Y0003213332D01*
X0002895552Y0003212828D01*
X0002896178Y0003212261D01*
X0002896745Y0003211634D01*
X0002897249Y0003210955D01*
X0002897683Y0003210231D01*
X0002898045Y0003209467D01*
X0002898329Y0003208671D01*
X0002898535Y0003207851D01*
X0002898659Y0003207015D01*
X0002898700Y0003206171D01*
X0002898700Y0003188946D01*
X0002898659Y0003188102D01*
X0002898535Y0003187266D01*
X0002898329Y0003186446D01*
X0002898045Y0003185651D01*
X0002897683Y0003184887D01*
X0002897249Y0003184162D01*
X0002896745Y0003183483D01*
X0002896178Y0003182857D01*
X0002895552Y0003182289D01*
X0002894873Y0003181786D01*
X0002894148Y0003181351D01*
X0002893384Y0003180990D01*
X0002892588Y0003180705D01*
X0002891768Y0003180500D01*
X0002890932Y0003180376D01*
X0002890088Y0003180334D01*
X0002869911Y0003180334D01*
X0002869067Y0003180376D01*
X0002868231Y0003180500D01*
X0002867411Y0003180705D01*
X0002866615Y0003180990D01*
X0002865851Y0003181351D01*
X0002865126Y0003181786D01*
X0002864447Y0003182289D01*
X0002863821Y0003182857D01*
X0002863254Y0003183483D01*
X0002862750Y0003184162D01*
X0002862316Y0003184887D01*
X0002861954Y0003185651D01*
X0002861670Y0003186446D01*
X0002861464Y0003187266D01*
X0002861340Y0003188102D01*
X0002861299Y0003188946D01*
X0002861299Y0003206171D01*
X0002861340Y0003207015D01*
X0002861464Y0003207851D01*
X0002861670Y0003208671D01*
X0002861954Y0003209467D01*
X0002862316Y0003210231D01*
X0002862750Y0003210955D01*
X0002863254Y0003211634D01*
X0002863821Y0003212261D01*
X0002864447Y0003212828D01*
X0002865126Y0003213332D01*
X0002865851Y0003213766D01*
X0002866615Y0003214127D01*
X0002867411Y0003214412D01*
X0002868231Y0003214617D01*
X0002869067Y0003214742D01*
X0002869911Y0003214783D01*
X0002890088Y0003214783D01*
X0002890932Y0003214742D01*
G37*
G36*
X0002770932Y0003276454D02*
G01*
X0002771768Y0003276330D01*
X0002772588Y0003276125D01*
X0002773384Y0003275840D01*
X0002774148Y0003275479D01*
X0002774873Y0003275044D01*
X0002775552Y0003274541D01*
X0002776178Y0003273973D01*
X0002776745Y0003273347D01*
X0002777249Y0003272668D01*
X0002777683Y0003271943D01*
X0002778045Y0003271179D01*
X0002778329Y0003270383D01*
X0002778535Y0003269564D01*
X0002778659Y0003268727D01*
X0002778700Y0003267883D01*
X0002778700Y0003250659D01*
X0002778659Y0003249815D01*
X0002778535Y0003248979D01*
X0002778329Y0003248159D01*
X0002778045Y0003247363D01*
X0002777683Y0003246599D01*
X0002777249Y0003245874D01*
X0002776745Y0003245195D01*
X0002776178Y0003244569D01*
X0002775552Y0003244002D01*
X0002774873Y0003243498D01*
X0002774148Y0003243064D01*
X0002773384Y0003242702D01*
X0002772588Y0003242418D01*
X0002771768Y0003242212D01*
X0002770932Y0003242088D01*
X0002770088Y0003242047D01*
X0002749911Y0003242047D01*
X0002749067Y0003242088D01*
X0002748231Y0003242212D01*
X0002747411Y0003242418D01*
X0002746615Y0003242702D01*
X0002745851Y0003243064D01*
X0002745126Y0003243498D01*
X0002744447Y0003244002D01*
X0002743821Y0003244569D01*
X0002743254Y0003245195D01*
X0002742750Y0003245874D01*
X0002742316Y0003246599D01*
X0002741954Y0003247363D01*
X0002741670Y0003248159D01*
X0002741464Y0003248979D01*
X0002741340Y0003249815D01*
X0002741299Y0003250659D01*
X0002741299Y0003267883D01*
X0002741340Y0003268727D01*
X0002741464Y0003269564D01*
X0002741670Y0003270383D01*
X0002741954Y0003271179D01*
X0002742316Y0003271943D01*
X0002742750Y0003272668D01*
X0002743254Y0003273347D01*
X0002743821Y0003273973D01*
X0002744447Y0003274541D01*
X0002745126Y0003275044D01*
X0002745851Y0003275479D01*
X0002746615Y0003275840D01*
X0002747411Y0003276125D01*
X0002748231Y0003276330D01*
X0002749067Y0003276454D01*
X0002749911Y0003276496D01*
X0002770088Y0003276496D01*
X0002770932Y0003276454D01*
G37*
G36*
X0002770932Y0003214446D02*
G01*
X0002771768Y0003214322D01*
X0002772588Y0003214117D01*
X0002773384Y0003213832D01*
X0002774148Y0003213471D01*
X0002774873Y0003213036D01*
X0002775552Y0003212533D01*
X0002776178Y0003211965D01*
X0002776745Y0003211339D01*
X0002777249Y0003210660D01*
X0002777683Y0003209935D01*
X0002778045Y0003209171D01*
X0002778329Y0003208375D01*
X0002778535Y0003207556D01*
X0002778659Y0003206720D01*
X0002778700Y0003205875D01*
X0002778700Y0003188651D01*
X0002778659Y0003187807D01*
X0002778535Y0003186971D01*
X0002778329Y0003186151D01*
X0002778045Y0003185355D01*
X0002777683Y0003184591D01*
X0002777249Y0003183866D01*
X0002776745Y0003183188D01*
X0002776178Y0003182561D01*
X0002775552Y0003181994D01*
X0002774873Y0003181490D01*
X0002774148Y0003181056D01*
X0002773384Y0003180694D01*
X0002772588Y0003180410D01*
X0002771768Y0003180204D01*
X0002770932Y0003180080D01*
X0002770088Y0003180039D01*
X0002749911Y0003180039D01*
X0002749067Y0003180080D01*
X0002748231Y0003180204D01*
X0002747411Y0003180410D01*
X0002746615Y0003180694D01*
X0002745851Y0003181056D01*
X0002745126Y0003181490D01*
X0002744447Y0003181994D01*
X0002743821Y0003182561D01*
X0002743254Y0003183188D01*
X0002742750Y0003183866D01*
X0002742316Y0003184591D01*
X0002741954Y0003185355D01*
X0002741670Y0003186151D01*
X0002741464Y0003186971D01*
X0002741340Y0003187807D01*
X0002741299Y0003188651D01*
X0002741299Y0003205875D01*
X0002741340Y0003206720D01*
X0002741464Y0003207556D01*
X0002741670Y0003208375D01*
X0002741954Y0003209171D01*
X0002742316Y0003209935D01*
X0002742750Y0003210660D01*
X0002743254Y0003211339D01*
X0002743821Y0003211965D01*
X0002744447Y0003212533D01*
X0002745126Y0003213036D01*
X0002745851Y0003213471D01*
X0002746615Y0003213832D01*
X0002747411Y0003214117D01*
X0002748231Y0003214322D01*
X0002749067Y0003214446D01*
X0002749911Y0003214488D01*
X0002770088Y0003214488D01*
X0002770932Y0003214446D01*
G37*
G36*
X0002640932Y0003214742D02*
G01*
X0002641768Y0003214617D01*
X0002642588Y0003214412D01*
X0002643384Y0003214127D01*
X0002644148Y0003213766D01*
X0002644873Y0003213332D01*
X0002645552Y0003212828D01*
X0002646178Y0003212261D01*
X0002646745Y0003211634D01*
X0002647249Y0003210955D01*
X0002647683Y0003210231D01*
X0002648045Y0003209467D01*
X0002648329Y0003208671D01*
X0002648535Y0003207851D01*
X0002648659Y0003207015D01*
X0002648700Y0003206171D01*
X0002648700Y0003188946D01*
X0002648659Y0003188102D01*
X0002648535Y0003187266D01*
X0002648329Y0003186446D01*
X0002648045Y0003185651D01*
X0002647683Y0003184887D01*
X0002647249Y0003184162D01*
X0002646745Y0003183483D01*
X0002646178Y0003182857D01*
X0002645552Y0003182289D01*
X0002644873Y0003181786D01*
X0002644148Y0003181351D01*
X0002643384Y0003180990D01*
X0002642588Y0003180705D01*
X0002641768Y0003180500D01*
X0002640932Y0003180376D01*
X0002640088Y0003180334D01*
X0002619911Y0003180334D01*
X0002619067Y0003180376D01*
X0002618231Y0003180500D01*
X0002617411Y0003180705D01*
X0002616615Y0003180990D01*
X0002615851Y0003181351D01*
X0002615126Y0003181786D01*
X0002614447Y0003182289D01*
X0002613821Y0003182857D01*
X0002613254Y0003183483D01*
X0002612750Y0003184162D01*
X0002612316Y0003184887D01*
X0002611954Y0003185651D01*
X0002611670Y0003186446D01*
X0002611464Y0003187266D01*
X0002611340Y0003188102D01*
X0002611299Y0003188946D01*
X0002611299Y0003206171D01*
X0002611340Y0003207015D01*
X0002611464Y0003207851D01*
X0002611670Y0003208671D01*
X0002611954Y0003209467D01*
X0002612316Y0003210231D01*
X0002612750Y0003210955D01*
X0002613254Y0003211634D01*
X0002613821Y0003212261D01*
X0002614447Y0003212828D01*
X0002615126Y0003213332D01*
X0002615851Y0003213766D01*
X0002616615Y0003214127D01*
X0002617411Y0003214412D01*
X0002618231Y0003214617D01*
X0002619067Y0003214742D01*
X0002619911Y0003214783D01*
X0002640088Y0003214783D01*
X0002640932Y0003214742D01*
G37*
G36*
X0002640932Y0003276749D02*
G01*
X0002641768Y0003276625D01*
X0002642588Y0003276420D01*
X0002643384Y0003276135D01*
X0002644148Y0003275774D01*
X0002644873Y0003275339D01*
X0002645552Y0003274836D01*
X0002646178Y0003274268D01*
X0002646745Y0003273642D01*
X0002647249Y0003272963D01*
X0002647683Y0003272238D01*
X0002648045Y0003271474D01*
X0002648329Y0003270679D01*
X0002648535Y0003269859D01*
X0002648659Y0003269023D01*
X0002648700Y0003268179D01*
X0002648700Y0003250954D01*
X0002648659Y0003250110D01*
X0002648535Y0003249274D01*
X0002648329Y0003248454D01*
X0002648045Y0003247658D01*
X0002647683Y0003246894D01*
X0002647249Y0003246170D01*
X0002646745Y0003245491D01*
X0002646178Y0003244864D01*
X0002645552Y0003244297D01*
X0002644873Y0003243793D01*
X0002644148Y0003243359D01*
X0002643384Y0003242998D01*
X0002642588Y0003242713D01*
X0002641768Y0003242507D01*
X0002640932Y0003242383D01*
X0002640088Y0003242342D01*
X0002619911Y0003242342D01*
X0002619067Y0003242383D01*
X0002618231Y0003242507D01*
X0002617411Y0003242713D01*
X0002616615Y0003242998D01*
X0002615851Y0003243359D01*
X0002615126Y0003243793D01*
X0002614447Y0003244297D01*
X0002613821Y0003244864D01*
X0002613254Y0003245491D01*
X0002612750Y0003246170D01*
X0002612316Y0003246894D01*
X0002611954Y0003247658D01*
X0002611670Y0003248454D01*
X0002611464Y0003249274D01*
X0002611340Y0003250110D01*
X0002611299Y0003250954D01*
X0002611299Y0003268179D01*
X0002611340Y0003269023D01*
X0002611464Y0003269859D01*
X0002611670Y0003270679D01*
X0002611954Y0003271474D01*
X0002612316Y0003272238D01*
X0002612750Y0003272963D01*
X0002613254Y0003273642D01*
X0002613821Y0003274268D01*
X0002614447Y0003274836D01*
X0002615126Y0003275339D01*
X0002615851Y0003275774D01*
X0002616615Y0003276135D01*
X0002617411Y0003276420D01*
X0002618231Y0003276625D01*
X0002619067Y0003276749D01*
X0002619911Y0003276791D01*
X0002640088Y0003276791D01*
X0002640932Y0003276749D01*
G37*
D65*
X0001382283Y0002698425D03*
X0001382283Y0002757480D03*
D68*
X0000522499Y0003463370D03*
X0000522499Y0003345259D03*
D69*
X0001620472Y0002785314D03*
X0001679527Y0002785314D03*
X0001948818Y0003517322D03*
X0001889763Y0003517322D03*
D65*
X0003594500Y0004643787D03*
X0003594500Y0004702842D03*
X0003603500Y0003884287D03*
X0003603500Y0003943342D03*
X0003617000Y0003106787D03*
X0003617000Y0003165842D03*
D69*
X0002462172Y0003647814D03*
X0002521227Y0003647814D03*
D65*
X0003713200Y0004330687D03*
X0003713200Y0004389742D03*
X0003716700Y0003584787D03*
X0003716700Y0003643842D03*
X0003714100Y0002816587D03*
X0003714100Y0002875642D03*
D69*
X0002158672Y0003534314D03*
X0002217727Y0003534314D03*
D65*
X0003713200Y0004507742D03*
X0003713200Y0004448687D03*
X0003715700Y0003764842D03*
X0003715700Y0003705787D03*
X0003714100Y0002996142D03*
X0003714100Y0002937087D03*
D69*
X0002334727Y0003534314D03*
X0002275672Y0003534314D03*
X0003135027Y0004489814D03*
X0003075972Y0004489814D03*
X0003138327Y0003735614D03*
X0003079272Y0003735614D03*
X0003138627Y0002983714D03*
X0003079572Y0002983714D03*
D65*
X0002311700Y0004113287D03*
X0002311700Y0004172342D03*
D69*
X0003135527Y0004433814D03*
X0003076472Y0004433814D03*
D65*
X0003123000Y0004377342D03*
X0003123000Y0004318287D03*
D69*
X0003137827Y0003675614D03*
X0003078772Y0003675614D03*
D65*
X0003125800Y0003616142D03*
X0003125800Y0003557087D03*
D69*
X0003138127Y0002921214D03*
X0003079072Y0002921214D03*
D65*
X0003121700Y0002864842D03*
X0003121700Y0002805787D03*
X0002254700Y0004113287D03*
X0002254700Y0004172342D03*
D69*
X0002200227Y0004128814D03*
X0002141172Y0004128814D03*
X0003249472Y0004676314D03*
X0003308527Y0004676314D03*
X0003264572Y0003433814D03*
X0003323627Y0003433814D03*
X0003263472Y0003177814D03*
X0003322527Y0003177814D03*
D65*
X0002009199Y0003984842D03*
X0002009199Y0003925787D03*
X0001420500Y0004441342D03*
X0001420500Y0004382287D03*
X0001048500Y0004441842D03*
X0001048500Y0004382787D03*
X0001602000Y0004441842D03*
X0001602000Y0004382787D03*
X0001238188Y0004441732D03*
X0001238188Y0004382677D03*
X0000927500Y0004382787D03*
X0000927500Y0004441842D03*
D69*
X0003250972Y0003929314D03*
X0003310027Y0003929314D03*
X0003273472Y0002677814D03*
X0003332527Y0002677814D03*
D65*
X0002498700Y0003983342D03*
X0002498700Y0003924287D03*
D69*
X0001564627Y0002903514D03*
X0001505572Y0002903514D03*
D70*
X0001560555Y0002829114D03*
X0001442444Y0002829114D03*
D65*
X0001452362Y0002996850D03*
X0001452362Y0002937795D03*
D69*
X0001316141Y0003264960D03*
X0001375196Y0003264960D03*
X0001301968Y0003076771D03*
X0001242913Y0003076771D03*
D65*
X0002559842Y0002583464D03*
X0002559842Y0002642519D03*
D70*
X0001442519Y0002718503D03*
X0001560629Y0002718503D03*
D65*
X0002620472Y0002583858D03*
X0002620472Y0002642913D03*
D71*
X0000250500Y0004127814D03*
X0000250500Y0003812814D03*
D70*
X0003199144Y0003346314D03*
X0003317255Y0003346314D03*
D68*
X0000620500Y0003463370D03*
X0000620500Y0003345259D03*
X0000520500Y0002895370D03*
X0000520500Y0002777259D03*
D71*
X0000248500Y0003565814D03*
X0000248500Y0003250814D03*
D68*
X0000630500Y0004027370D03*
X0000630500Y0003909259D03*
X0000526500Y0004029370D03*
X0000526500Y0003911259D03*
D71*
X0000248500Y0002999814D03*
X0000248500Y0002684814D03*
D70*
X0001991644Y0004221814D03*
X0002109755Y0004221814D03*
D68*
X0000620500Y0002895370D03*
X0000620500Y0002777259D03*
D69*
X0003266472Y0004187814D03*
X0003325527Y0004187814D03*
X0002349527Y0004610314D03*
X0002290472Y0004610314D03*
X0001620472Y0002840314D03*
X0001679527Y0002840314D03*
D72*
X0001855905Y0003637401D03*
X0001914960Y0003637401D03*
X0001949212Y0003576771D03*
X0001890157Y0003576771D03*
D73*
X0003649300Y0004336287D03*
X0003649300Y0004395342D03*
X0003651700Y0003589787D03*
X0003651700Y0003648842D03*
X0003650000Y0002821087D03*
X0003650000Y0002880142D03*
D72*
X0002164422Y0003594564D03*
X0002223477Y0003594564D03*
D73*
X0003649300Y0004499842D03*
X0003649300Y0004440787D03*
X0003652200Y0003758842D03*
X0003652200Y0003699787D03*
X0003650000Y0002990542D03*
X0003650000Y0002931487D03*
D72*
X0002328227Y0003593814D03*
X0002269172Y0003593814D03*
D73*
X0002410000Y0004610787D03*
X0002410000Y0004669842D03*
X0002230000Y0004669842D03*
X0002230000Y0004610787D03*
X0001299000Y0004387287D03*
X0001299000Y0004446342D03*
X0001661500Y0004387787D03*
X0001661500Y0004446842D03*
X0001362500Y0004387787D03*
X0001362500Y0004446842D03*
X0000987500Y0004388787D03*
X0000987500Y0004447842D03*
D72*
X0002402362Y0003130708D03*
X0002343307Y0003130708D03*
D73*
X0001542500Y0004447842D03*
X0001542500Y0004388787D03*
X0001176500Y0004447842D03*
X0001176500Y0004388787D03*
X0000863500Y0004448842D03*
X0000863500Y0004389787D03*
D72*
X0002402834Y0003020708D03*
X0002343779Y0003020708D03*
X0002403307Y0002910708D03*
X0002344251Y0002910708D03*
D73*
X0001479500Y0004447842D03*
X0001479500Y0004388787D03*
X0001112500Y0004447842D03*
X0001112500Y0004388787D03*
X0000814960Y0004493307D03*
X0000814960Y0004552362D03*
X0000915500Y0003154842D03*
X0000915500Y0003095787D03*
X0000984645Y0002984251D03*
X0000984645Y0003043307D03*
D72*
X0000820027Y0002584314D03*
X0000760972Y0002584314D03*
X0002544881Y0002703149D03*
X0002603937Y0002703149D03*
X0000708027Y0002584314D03*
X0000648972Y0002584314D03*
X0000917972Y0003708314D03*
X0000977027Y0003708314D03*
D73*
X0001005500Y0003588787D03*
X0001005500Y0003647842D03*
D72*
X0000814027Y0003150314D03*
X0000754972Y0003150314D03*
X0000838027Y0003710314D03*
X0000778972Y0003710314D03*
X0001063527Y0004184814D03*
X0001004472Y0004184814D03*
D73*
X0001015500Y0004065287D03*
X0001015500Y0004124342D03*
D72*
X0000702027Y0003150314D03*
X0000642972Y0003150314D03*
X0000722027Y0003710314D03*
X0000662972Y0003710314D03*
X0002570472Y0002769291D03*
X0002511417Y0002769291D03*
D73*
X0002490000Y0002871259D03*
X0002490000Y0002930314D03*
D59*
X0003331818Y0004279582D03*
X0003383000Y0004279582D03*
X0003331818Y0004330763D03*
X0003434181Y0004330763D03*
X0003383000Y0004330763D03*
X0003331818Y0004381944D03*
X0003434181Y0004381944D03*
X0003383000Y0004381944D03*
X0003434181Y0004586669D03*
X0003331818Y0004586669D03*
X0003383000Y0004586669D03*
X0003434181Y0004535488D03*
X0003331818Y0004535488D03*
X0003383000Y0004535488D03*
X0003331818Y0004484307D03*
X0003434181Y0004484307D03*
X0003383000Y0004484307D03*
X0003331818Y0004433125D03*
X0003434181Y0004433125D03*
X0003434181Y0004279582D03*
X0003383000Y0004433125D03*
D61*
X0003493236Y0004421314D03*
X0003493236Y0004446905D03*
X0003493236Y0004472496D03*
X0003493236Y0004498086D03*
X0003272763Y0004344543D03*
X0003493236Y0004344543D03*
X0003493236Y0004370133D03*
X0003493236Y0004395724D03*
X0003272763Y0004523677D03*
X0003272763Y0004498086D03*
X0003272763Y0004472496D03*
X0003272763Y0004446905D03*
X0003272763Y0004421314D03*
X0003272763Y0004395724D03*
X0003493236Y0004523677D03*
X0003272763Y0004370133D03*
X0003493236Y0004318952D03*
X0003493236Y0004549267D03*
X0003272763Y0004549267D03*
X0003272763Y0004318952D03*
X0003493236Y0004293362D03*
X0003493236Y0004574858D03*
X0003272763Y0004574858D03*
X0003272763Y0004293362D03*
X0003493236Y0004267771D03*
X0003493236Y0004600448D03*
X0003272763Y0004600448D03*
X0003272763Y0004267771D03*
D62*
X0003383000Y0004421314D03*
D59*
X0003331724Y0002770582D03*
X0003382905Y0002770582D03*
X0003331724Y0002821763D03*
X0003434086Y0002821763D03*
X0003382905Y0002821763D03*
X0003331724Y0002872944D03*
X0003434086Y0002872944D03*
X0003382905Y0002872944D03*
X0003434086Y0003077669D03*
X0003331724Y0003077669D03*
X0003382905Y0003077669D03*
X0003434086Y0003026488D03*
X0003331724Y0003026488D03*
X0003382905Y0003026488D03*
X0003331724Y0002975307D03*
X0003434086Y0002975307D03*
X0003382905Y0002975307D03*
X0003331724Y0002924125D03*
X0003434086Y0002924125D03*
X0003434086Y0002770582D03*
X0003382905Y0002924125D03*
D60*
X0003493141Y0002912314D03*
X0003493141Y0002937905D03*
X0003493141Y0002963496D03*
X0003493141Y0002989086D03*
X0003272669Y0002835543D03*
D61*
X0003493141Y0002835543D03*
X0003493141Y0002861133D03*
D60*
X0003493141Y0002886724D03*
X0003272669Y0003014677D03*
X0003272669Y0002989086D03*
X0003272669Y0002963496D03*
X0003272669Y0002937905D03*
X0003272669Y0002912314D03*
X0003272669Y0002886724D03*
X0003493141Y0003014677D03*
X0003272669Y0002861133D03*
D61*
X0003493141Y0002809952D03*
D60*
X0003493141Y0003040267D03*
X0003272669Y0003040267D03*
X0003272669Y0002809952D03*
D61*
X0003493141Y0002784362D03*
D60*
X0003493141Y0003065858D03*
X0003272669Y0003065858D03*
X0003272669Y0002784362D03*
D61*
X0003493141Y0002758771D03*
D60*
X0003493141Y0003091448D03*
X0003272669Y0003091448D03*
X0003272669Y0002758771D03*
D62*
X0003382905Y0002912314D03*
D59*
X0002098967Y0003907996D03*
X0002098967Y0003856814D03*
X0002150148Y0003907996D03*
X0002150148Y0003805633D03*
X0002150148Y0003856814D03*
X0002201329Y0003907996D03*
X0002201329Y0003805633D03*
X0002201329Y0003856814D03*
X0002406054Y0003805633D03*
X0002406054Y0003907996D03*
X0002406054Y0003856814D03*
X0002354873Y0003805633D03*
X0002354873Y0003907996D03*
X0002354873Y0003856814D03*
X0002303692Y0003907996D03*
X0002303692Y0003805633D03*
X0002303692Y0003856814D03*
X0002252511Y0003907996D03*
X0002252511Y0003805633D03*
X0002098967Y0003805633D03*
X0002252511Y0003856814D03*
D74*
X0002240700Y0003746578D03*
X0002266290Y0003746578D03*
X0002291881Y0003746578D03*
X0002317471Y0003746578D03*
X0002163928Y0003967051D03*
D75*
X0002163928Y0003746578D03*
X0002189518Y0003746578D03*
D74*
X0002215109Y0003746578D03*
X0002343062Y0003967051D03*
X0002317471Y0003967051D03*
X0002291881Y0003967051D03*
X0002266290Y0003967051D03*
X0002240700Y0003967051D03*
X0002215109Y0003967051D03*
X0002343062Y0003746578D03*
X0002189518Y0003967051D03*
D75*
X0002138337Y0003746578D03*
D74*
X0002368652Y0003746578D03*
X0002368652Y0003967051D03*
X0002138337Y0003967051D03*
D75*
X0002112747Y0003746578D03*
D74*
X0002394243Y0003746578D03*
X0002394243Y0003967051D03*
X0002112747Y0003967051D03*
D75*
X0002087156Y0003746578D03*
D74*
X0002419833Y0003746578D03*
X0002419833Y0003967051D03*
X0002087156Y0003967051D03*
D76*
X0002240700Y0003856814D03*
D63*
X0001985500Y0002632314D03*
D64*
X0002085500Y0002632314D03*
X0002185500Y0002632314D03*
X0002285500Y0002632314D03*
X0002385500Y0002632314D03*
X0002485500Y0002632314D03*
D63*
X0000737500Y0004643314D03*
D64*
X0000837500Y0004643314D03*
X0000937500Y0004643314D03*
X0001037500Y0004643314D03*
X0001137500Y0004643314D03*
X0001237500Y0004643314D03*
X0001337500Y0004643314D03*
X0001437500Y0004643314D03*
X0001537500Y0004643314D03*
D63*
X0000925500Y0004532314D03*
D64*
X0001025500Y0004532314D03*
X0001125500Y0004532314D03*
X0001225500Y0004532314D03*
X0001325500Y0004532314D03*
X0001425500Y0004532314D03*
X0001525500Y0004532314D03*
X0001625500Y0004532314D03*
D63*
X0001785500Y0004532314D03*
D64*
X0001885500Y0004532314D03*
X0001985500Y0004532314D03*
X0002085500Y0004532314D03*
X0002185500Y0004532314D03*
X0002285500Y0004532314D03*
X0002385500Y0004532314D03*
X0002485500Y0004532314D03*
D63*
X0000719291Y0004261023D03*
D64*
X0000719291Y0004361023D03*
D77*
X0000776342Y0002873732D03*
X0000776342Y0003050897D03*
X0000727129Y0003021370D03*
X0000776342Y0002991842D03*
X0000776342Y0002932787D03*
X0000825555Y0002903259D03*
X0000727129Y0002903259D03*
X0000727129Y0002962314D03*
X0000825555Y0002962314D03*
X0000825555Y0003021370D03*
D78*
X0000918862Y0002887314D03*
X0000918862Y0002937314D03*
X0000918862Y0002987314D03*
D79*
X0000696814Y0002937314D03*
X0000696814Y0002987314D03*
X0000696814Y0003037314D03*
D78*
X0000918862Y0003037314D03*
D80*
X0000779295Y0002962314D03*
D79*
X0000696814Y0002887314D03*
D77*
X0000848657Y0002820897D03*
X0000848657Y0002643732D03*
X0000897870Y0002673259D03*
X0000848657Y0002702787D03*
X0000848657Y0002761842D03*
X0000799444Y0002791370D03*
X0000897870Y0002791370D03*
X0000897870Y0002732314D03*
X0000799444Y0002732314D03*
X0000799444Y0002673259D03*
D78*
X0000706137Y0002807314D03*
X0000706137Y0002757314D03*
X0000706137Y0002707314D03*
D79*
X0000928185Y0002757314D03*
X0000928185Y0002707314D03*
X0000928185Y0002657314D03*
D78*
X0000706137Y0002657314D03*
D80*
X0000845704Y0002732314D03*
D79*
X0000928185Y0002807314D03*
D77*
X0000789342Y0003435732D03*
X0000789342Y0003612897D03*
X0000740129Y0003583370D03*
X0000789342Y0003553842D03*
X0000789342Y0003494787D03*
X0000838555Y0003465259D03*
X0000740129Y0003465259D03*
X0000740129Y0003524314D03*
X0000838555Y0003524314D03*
X0000838555Y0003583370D03*
D78*
X0000931862Y0003449314D03*
X0000931862Y0003499314D03*
X0000931862Y0003549314D03*
D79*
X0000709814Y0003499314D03*
X0000709814Y0003549314D03*
X0000709814Y0003599314D03*
D78*
X0000931862Y0003599314D03*
D80*
X0000792295Y0003524314D03*
D79*
X0000709814Y0003449314D03*
D77*
X0000860657Y0003388897D03*
X0000860657Y0003211732D03*
X0000909870Y0003241259D03*
X0000860657Y0003270787D03*
X0000860657Y0003329842D03*
X0000811444Y0003359370D03*
X0000909870Y0003359370D03*
X0000909870Y0003300314D03*
X0000811444Y0003300314D03*
X0000811444Y0003241259D03*
D78*
X0000718137Y0003375314D03*
X0000718137Y0003325314D03*
X0000718137Y0003275314D03*
D79*
X0000940185Y0003325314D03*
X0000940185Y0003275314D03*
X0000940185Y0003225314D03*
D78*
X0000718137Y0003225314D03*
D80*
X0000857704Y0003300314D03*
D79*
X0000940185Y0003375314D03*
D77*
X0000796342Y0003999732D03*
X0000796342Y0004176897D03*
X0000747129Y0004147370D03*
X0000796342Y0004117842D03*
X0000796342Y0004058787D03*
X0000845555Y0004029259D03*
X0000747129Y0004029259D03*
X0000747129Y0004088314D03*
X0000845555Y0004088314D03*
X0000845555Y0004147370D03*
D78*
X0000938862Y0004013314D03*
X0000938862Y0004063314D03*
X0000938862Y0004113314D03*
D79*
X0000716814Y0004063314D03*
X0000716814Y0004113314D03*
X0000716814Y0004163314D03*
D78*
X0000938862Y0004163314D03*
D80*
X0000799295Y0004088314D03*
D79*
X0000716814Y0004013314D03*
D77*
X0000868657Y0003946897D03*
X0000868657Y0003769732D03*
X0000917870Y0003799259D03*
X0000868657Y0003828787D03*
X0000868657Y0003887842D03*
X0000819444Y0003917370D03*
X0000917870Y0003917370D03*
X0000917870Y0003858314D03*
X0000819444Y0003858314D03*
X0000819444Y0003799259D03*
D78*
X0000726137Y0003933314D03*
X0000726137Y0003883314D03*
X0000726137Y0003833314D03*
D79*
X0000948185Y0003883314D03*
X0000948185Y0003833314D03*
X0000948185Y0003783314D03*
D78*
X0000726137Y0003783314D03*
D80*
X0000865704Y0003858314D03*
D79*
X0000948185Y0003933314D03*
D81*
X0000505413Y0002684314D03*
X0000619586Y0002684314D03*
X0000507413Y0003250314D03*
X0000621586Y0003250314D03*
X0000513413Y0003810314D03*
X0000627586Y0003810314D03*
D70*
X0000351889Y0004240314D03*
X0000470000Y0004240314D03*
D68*
X0000550000Y0004131259D03*
X0000550000Y0004249370D03*
D82*
X0003887000Y0002974224D03*
X0003887000Y0003074224D03*
X0003887000Y0002874224D03*
X0003887000Y0002774224D03*
X0003890700Y0004447214D03*
X0003890700Y0004547214D03*
X0003890700Y0004347214D03*
X0003890700Y0004247214D03*
X0003889600Y0003730014D03*
X0003889600Y0003830014D03*
X0003889600Y0003630014D03*
X0003889600Y0003530014D03*
D83*
X0002891300Y0004645314D03*
X0002674700Y0004645314D03*
X0002890800Y0003721314D03*
X0002674200Y0003721314D03*
X0002890800Y0002803314D03*
X0002674200Y0002803314D03*
X0002399000Y0004347814D03*
X0002182400Y0004347814D03*
D66*
X0002754980Y0004426326D03*
X0002754980Y0003965303D03*
D70*
X0003210144Y0002598314D03*
X0003328255Y0002598314D03*
X0003197444Y0004079314D03*
X0003315555Y0004079314D03*
D84*
X0000539200Y0004627314D03*
X0000342350Y0004627314D03*
X0000145500Y0004627314D03*
X0001112500Y0003208814D03*
X0001112500Y0003346610D03*
X0001112500Y0003484405D03*
D72*
X0001989527Y0002820314D03*
X0001930472Y0002820314D03*
X0001989527Y0002710314D03*
X0001930472Y0002710314D03*
D85*
X0002185039Y0002740551D03*
D86*
X0002285039Y0002740551D03*
X0002385039Y0002740551D03*
D65*
X0000755118Y0004492913D03*
X0000755118Y0004551968D03*
D87*
X0001740622Y0003770178D03*
X0001740622Y0003801674D03*
X0001740622Y0003833170D03*
X0001740622Y0003864666D03*
X0001740622Y0003896162D03*
X0001740622Y0003927659D03*
X0001740622Y0003959155D03*
X0001740622Y0003990651D03*
D88*
X0001683536Y0004047737D03*
X0001652040Y0004047737D03*
X0001620544Y0004047737D03*
X0001589048Y0004047737D03*
X0001557551Y0004047737D03*
X0001526055Y0004047737D03*
X0001494559Y0004047737D03*
X0001463063Y0004047737D03*
D87*
X0001405977Y0003990651D03*
X0001405977Y0003959155D03*
X0001405977Y0003927659D03*
X0001405977Y0003896162D03*
X0001405977Y0003864666D03*
X0001405977Y0003833170D03*
X0001405977Y0003801674D03*
X0001405977Y0003770178D03*
D88*
X0001463063Y0003713092D03*
X0001494559Y0003713092D03*
X0001526055Y0003713092D03*
X0001557551Y0003713092D03*
X0001589048Y0003713092D03*
X0001620544Y0003713092D03*
X0001652040Y0003713092D03*
X0001683536Y0003713092D03*
D67*
G36*
X0001703461Y0004179747D02*
G01*
X0001681190Y0004157476D01*
X0001656135Y0004182531D01*
X0001678406Y0004204802D01*
X0001703461Y0004179747D01*
G37*
G36*
X0001664487Y0004218721D02*
G01*
X0001642216Y0004196450D01*
X0001617161Y0004221505D01*
X0001639432Y0004243776D01*
X0001664487Y0004218721D01*
G37*
G36*
X0001633864Y0004188098D02*
G01*
X0001611593Y0004165827D01*
X0001586538Y0004190882D01*
X0001608809Y0004213153D01*
X0001633864Y0004188098D01*
G37*
G36*
X0001672838Y0004149124D02*
G01*
X0001650567Y0004126853D01*
X0001625512Y0004151908D01*
X0001647783Y0004174179D01*
X0001672838Y0004149124D01*
G37*
D69*
X0000454330Y0002544488D03*
X0000513385Y0002544488D03*
X0000465354Y0003122834D03*
X0000524409Y0003122834D03*
X0000483072Y0003684014D03*
X0000542127Y0003684014D03*
D73*
X0001347637Y0003616141D03*
X0001347637Y0003675196D03*
X0001291338Y0004124803D03*
X0001291338Y0004065748D03*
X0001257480Y0002864960D03*
X0001257480Y0002805905D03*
X0001196062Y0002864960D03*
X0001196062Y0002805905D03*
D72*
X0001601968Y0003488188D03*
X0001542913Y0003488188D03*
D73*
X0001411417Y0003573622D03*
X0001411417Y0003514566D03*
X0001165748Y0003999606D03*
X0001165748Y0004058661D03*
D72*
X0001162992Y0004107480D03*
X0001222047Y0004107480D03*
D73*
X0001319685Y0002806692D03*
X0001319685Y0002865747D03*
X0001490551Y0003472440D03*
X0001490551Y0003413385D03*
X0001227559Y0003999212D03*
X0001227559Y0004058267D03*
X0000570866Y0002600393D03*
X0000570866Y0002541338D03*
X0001381102Y0002865747D03*
X0001381102Y0002806692D03*
X0000584251Y0003168897D03*
X0000584251Y0003109842D03*
X0001426377Y0003412992D03*
X0001426377Y0003472047D03*
X0000603100Y0003731042D03*
X0000603100Y0003671987D03*
X0001218503Y0003894881D03*
X0001218503Y0003953937D03*
D67*
G36*
X0001716804Y0004207631D02*
G01*
X0001737683Y0004228510D01*
X0001759954Y0004206239D01*
X0001739075Y0004185360D01*
X0001716804Y0004207631D01*
G37*
G36*
X0001675045Y0004249390D02*
G01*
X0001695924Y0004270269D01*
X0001718195Y0004247998D01*
X0001697316Y0004227118D01*
X0001675045Y0004249390D01*
G37*
D65*
X0001541732Y0004217716D03*
X0001541732Y0004158661D03*
D69*
X0001275984Y0003947637D03*
X0001335039Y0003947637D03*
D65*
X0001305118Y0003835039D03*
X0001305118Y0003894094D03*
X0001825500Y0003904542D03*
X0001825500Y0003845487D03*
X0001889500Y0003905342D03*
X0001889500Y0003846287D03*
D69*
X0001429527Y0004177952D03*
X0001488582Y0004177952D03*
X0001794527Y0002815314D03*
X0001735472Y0002815314D03*
D70*
X0001740944Y0002745314D03*
X0001859055Y0002745314D03*
D89*
X0002478346Y0004616141D03*
X0002553149Y0004616141D03*
X0002515748Y0004694841D03*
D81*
X0003504086Y0004695814D03*
X0003389913Y0004695814D03*
X0003507586Y0003948314D03*
X0003393413Y0003948314D03*
X0003516086Y0003192814D03*
X0003401913Y0003192814D03*
D90*
X0002515700Y0003734228D03*
X0002515700Y0003848401D03*
D81*
X0003502086Y0004171314D03*
X0003387913Y0004171314D03*
X0003505086Y0003417314D03*
X0003390913Y0003417314D03*
X0003512386Y0002661314D03*
X0003398213Y0002661314D03*
D90*
X0001992200Y0003736228D03*
X0001992200Y0003850401D03*
D72*
X0001435433Y0004122047D03*
X0001494488Y0004122047D03*
X0001281889Y0004003543D03*
X0001340944Y0004003543D03*
D73*
X0001134251Y0002805511D03*
X0001134251Y0002864566D03*
D91*
X0002070000Y0003160314D03*
X0002170000Y0003160314D03*
X0002070000Y0003060314D03*
X0002170000Y0003060314D03*
X0002070000Y0002960314D03*
D92*
X0002170000Y0002960314D03*
X0002233070Y0003325590D03*
D91*
X0002233070Y0003425590D03*
X0002333070Y0003325590D03*
X0002333070Y0003425590D03*
D92*
X0001937007Y0004643700D03*
D91*
X0002037007Y0004643700D03*
X0002137007Y0004643700D03*
D67*
G36*
X0002571168Y0002885883D02*
G01*
X0002572004Y0002885759D01*
X0002572824Y0002885554D01*
X0002573620Y0002885269D01*
X0002574384Y0002884908D01*
X0002575109Y0002884473D01*
X0002575788Y0002883970D01*
X0002576414Y0002883402D01*
X0002576982Y0002882776D01*
X0002577485Y0002882097D01*
X0002577920Y0002881372D01*
X0002578281Y0002880608D01*
X0002578566Y0002879812D01*
X0002578771Y0002878993D01*
X0002578895Y0002878157D01*
X0002578936Y0002877312D01*
X0002578936Y0002860088D01*
X0002578895Y0002859244D01*
X0002578771Y0002858408D01*
X0002578566Y0002857588D01*
X0002578281Y0002856792D01*
X0002577920Y0002856028D01*
X0002577485Y0002855303D01*
X0002576982Y0002854625D01*
X0002576414Y0002853998D01*
X0002575788Y0002853431D01*
X0002575109Y0002852927D01*
X0002574384Y0002852493D01*
X0002573620Y0002852131D01*
X0002572824Y0002851847D01*
X0002572004Y0002851641D01*
X0002571168Y0002851517D01*
X0002570324Y0002851476D01*
X0002550147Y0002851476D01*
X0002549303Y0002851517D01*
X0002548467Y0002851641D01*
X0002547647Y0002851847D01*
X0002546851Y0002852131D01*
X0002546087Y0002852493D01*
X0002545362Y0002852927D01*
X0002544684Y0002853431D01*
X0002544057Y0002853998D01*
X0002543490Y0002854625D01*
X0002542986Y0002855303D01*
X0002542552Y0002856028D01*
X0002542190Y0002856792D01*
X0002541906Y0002857588D01*
X0002541700Y0002858408D01*
X0002541576Y0002859244D01*
X0002541535Y0002860088D01*
X0002541535Y0002877312D01*
X0002541576Y0002878157D01*
X0002541700Y0002878993D01*
X0002541906Y0002879812D01*
X0002542190Y0002880608D01*
X0002542552Y0002881372D01*
X0002542986Y0002882097D01*
X0002543490Y0002882776D01*
X0002544057Y0002883402D01*
X0002544684Y0002883970D01*
X0002545362Y0002884473D01*
X0002546087Y0002884908D01*
X0002546851Y0002885269D01*
X0002547647Y0002885554D01*
X0002548467Y0002885759D01*
X0002549303Y0002885883D01*
X0002550147Y0002885925D01*
X0002570324Y0002885925D01*
X0002571168Y0002885883D01*
G37*
G36*
X0002571168Y0002947891D02*
G01*
X0002572004Y0002947767D01*
X0002572824Y0002947562D01*
X0002573620Y0002947277D01*
X0002574384Y0002946916D01*
X0002575109Y0002946481D01*
X0002575788Y0002945978D01*
X0002576414Y0002945410D01*
X0002576982Y0002944784D01*
X0002577485Y0002944105D01*
X0002577920Y0002943380D01*
X0002578281Y0002942616D01*
X0002578566Y0002941820D01*
X0002578771Y0002941001D01*
X0002578895Y0002940165D01*
X0002578936Y0002939320D01*
X0002578936Y0002922096D01*
X0002578895Y0002921252D01*
X0002578771Y0002920416D01*
X0002578566Y0002919596D01*
X0002578281Y0002918800D01*
X0002577920Y0002918036D01*
X0002577485Y0002917311D01*
X0002576982Y0002916632D01*
X0002576414Y0002916006D01*
X0002575788Y0002915439D01*
X0002575109Y0002914935D01*
X0002574384Y0002914501D01*
X0002573620Y0002914139D01*
X0002572824Y0002913855D01*
X0002572004Y0002913649D01*
X0002571168Y0002913525D01*
X0002570324Y0002913484D01*
X0002550147Y0002913484D01*
X0002549303Y0002913525D01*
X0002548467Y0002913649D01*
X0002547647Y0002913855D01*
X0002546851Y0002914139D01*
X0002546087Y0002914501D01*
X0002545362Y0002914935D01*
X0002544684Y0002915439D01*
X0002544057Y0002916006D01*
X0002543490Y0002916632D01*
X0002542986Y0002917311D01*
X0002542552Y0002918036D01*
X0002542190Y0002918800D01*
X0002541906Y0002919596D01*
X0002541700Y0002920416D01*
X0002541576Y0002921252D01*
X0002541535Y0002922096D01*
X0002541535Y0002939320D01*
X0002541576Y0002940165D01*
X0002541700Y0002941001D01*
X0002541906Y0002941820D01*
X0002542190Y0002942616D01*
X0002542552Y0002943380D01*
X0002542986Y0002944105D01*
X0002543490Y0002944784D01*
X0002544057Y0002945410D01*
X0002544684Y0002945978D01*
X0002545362Y0002946481D01*
X0002546087Y0002946916D01*
X0002546851Y0002947277D01*
X0002547647Y0002947562D01*
X0002548467Y0002947767D01*
X0002549303Y0002947891D01*
X0002550147Y0002947933D01*
X0002570324Y0002947933D01*
X0002571168Y0002947891D01*
G37*
G36*
X0002461031Y0004740312D02*
G01*
X0002461867Y0004740188D01*
X0002462687Y0004739983D01*
X0002463482Y0004739698D01*
X0002464246Y0004739337D01*
X0002464971Y0004738902D01*
X0002465650Y0004738399D01*
X0002466276Y0004737831D01*
X0002466844Y0004737205D01*
X0002467347Y0004736526D01*
X0002467782Y0004735801D01*
X0002468143Y0004735037D01*
X0002468428Y0004734242D01*
X0002468633Y0004733422D01*
X0002468757Y0004732586D01*
X0002468799Y0004731742D01*
X0002468799Y0004711564D01*
X0002468757Y0004710720D01*
X0002468633Y0004709884D01*
X0002468428Y0004709064D01*
X0002468143Y0004708269D01*
X0002467782Y0004707505D01*
X0002467347Y0004706780D01*
X0002466844Y0004706101D01*
X0002466276Y0004705475D01*
X0002465650Y0004704907D01*
X0002464971Y0004704404D01*
X0002464246Y0004703969D01*
X0002463482Y0004703608D01*
X0002462687Y0004703323D01*
X0002461867Y0004703118D01*
X0002461031Y0004702994D01*
X0002460187Y0004702952D01*
X0002442962Y0004702952D01*
X0002442118Y0004702994D01*
X0002441282Y0004703118D01*
X0002440462Y0004703323D01*
X0002439666Y0004703608D01*
X0002438902Y0004703969D01*
X0002438177Y0004704404D01*
X0002437499Y0004704907D01*
X0002436872Y0004705475D01*
X0002436305Y0004706101D01*
X0002435801Y0004706780D01*
X0002435367Y0004707505D01*
X0002435005Y0004708269D01*
X0002434721Y0004709064D01*
X0002434515Y0004709884D01*
X0002434391Y0004710720D01*
X0002434350Y0004711564D01*
X0002434350Y0004731742D01*
X0002434391Y0004732586D01*
X0002434515Y0004733422D01*
X0002434721Y0004734242D01*
X0002435005Y0004735037D01*
X0002435367Y0004735801D01*
X0002435801Y0004736526D01*
X0002436305Y0004737205D01*
X0002436872Y0004737831D01*
X0002437499Y0004738399D01*
X0002438177Y0004738902D01*
X0002438902Y0004739337D01*
X0002439666Y0004739698D01*
X0002440462Y0004739983D01*
X0002441282Y0004740188D01*
X0002442118Y0004740312D01*
X0002442962Y0004740354D01*
X0002460187Y0004740354D01*
X0002461031Y0004740312D01*
G37*
G36*
X0002399023Y0004740312D02*
G01*
X0002399859Y0004740188D01*
X0002400679Y0004739983D01*
X0002401474Y0004739698D01*
X0002402238Y0004739337D01*
X0002402963Y0004738902D01*
X0002403642Y0004738399D01*
X0002404268Y0004737831D01*
X0002404836Y0004737205D01*
X0002405339Y0004736526D01*
X0002405774Y0004735801D01*
X0002406135Y0004735037D01*
X0002406420Y0004734242D01*
X0002406625Y0004733422D01*
X0002406749Y0004732586D01*
X0002406791Y0004731742D01*
X0002406791Y0004711564D01*
X0002406749Y0004710720D01*
X0002406625Y0004709884D01*
X0002406420Y0004709064D01*
X0002406135Y0004708269D01*
X0002405774Y0004707505D01*
X0002405339Y0004706780D01*
X0002404836Y0004706101D01*
X0002404268Y0004705475D01*
X0002403642Y0004704907D01*
X0002402963Y0004704404D01*
X0002402238Y0004703969D01*
X0002401474Y0004703608D01*
X0002400679Y0004703323D01*
X0002399859Y0004703118D01*
X0002399023Y0004702994D01*
X0002398179Y0004702952D01*
X0002380954Y0004702952D01*
X0002380110Y0004702994D01*
X0002379274Y0004703118D01*
X0002378454Y0004703323D01*
X0002377658Y0004703608D01*
X0002376894Y0004703969D01*
X0002376170Y0004704404D01*
X0002375491Y0004704907D01*
X0002374864Y0004705475D01*
X0002374297Y0004706101D01*
X0002373793Y0004706780D01*
X0002373359Y0004707505D01*
X0002372998Y0004708269D01*
X0002372713Y0004709064D01*
X0002372507Y0004709884D01*
X0002372383Y0004710720D01*
X0002372342Y0004711564D01*
X0002372342Y0004731742D01*
X0002372383Y0004732586D01*
X0002372507Y0004733422D01*
X0002372713Y0004734242D01*
X0002372998Y0004735037D01*
X0002373359Y0004735801D01*
X0002373793Y0004736526D01*
X0002374297Y0004737205D01*
X0002374864Y0004737831D01*
X0002375491Y0004738399D01*
X0002376170Y0004738902D01*
X0002376894Y0004739337D01*
X0002377658Y0004739698D01*
X0002378454Y0004739983D01*
X0002379274Y0004740188D01*
X0002380110Y0004740312D01*
X0002380954Y0004740354D01*
X0002398179Y0004740354D01*
X0002399023Y0004740312D01*
G37*
G36*
X0002649456Y0003358974D02*
G01*
X0002650292Y0003358850D01*
X0002651112Y0003358644D01*
X0002651907Y0003358360D01*
X0002652671Y0003357998D01*
X0002653396Y0003357564D01*
X0002654075Y0003357060D01*
X0002654701Y0003356493D01*
X0002655269Y0003355867D01*
X0002655772Y0003355188D01*
X0002656207Y0003354463D01*
X0002656568Y0003353699D01*
X0002656853Y0003352903D01*
X0002657058Y0003352083D01*
X0002657182Y0003351247D01*
X0002657224Y0003350403D01*
X0002657224Y0003330226D01*
X0002657182Y0003329382D01*
X0002657058Y0003328546D01*
X0002656853Y0003327726D01*
X0002656568Y0003326930D01*
X0002656207Y0003326166D01*
X0002655772Y0003325441D01*
X0002655269Y0003324762D01*
X0002654701Y0003324136D01*
X0002654075Y0003323569D01*
X0002653396Y0003323065D01*
X0002652671Y0003322631D01*
X0002651907Y0003322269D01*
X0002651112Y0003321984D01*
X0002650292Y0003321779D01*
X0002649456Y0003321655D01*
X0002648612Y0003321614D01*
X0002631387Y0003321614D01*
X0002630543Y0003321655D01*
X0002629707Y0003321779D01*
X0002628887Y0003321984D01*
X0002628092Y0003322269D01*
X0002627328Y0003322631D01*
X0002626603Y0003323065D01*
X0002625924Y0003323569D01*
X0002625298Y0003324136D01*
X0002624730Y0003324762D01*
X0002624227Y0003325441D01*
X0002623792Y0003326166D01*
X0002623431Y0003326930D01*
X0002623146Y0003327726D01*
X0002622941Y0003328546D01*
X0002622817Y0003329382D01*
X0002622775Y0003330226D01*
X0002622775Y0003350403D01*
X0002622817Y0003351247D01*
X0002622941Y0003352083D01*
X0002623146Y0003352903D01*
X0002623431Y0003353699D01*
X0002623792Y0003354463D01*
X0002624227Y0003355188D01*
X0002624730Y0003355867D01*
X0002625298Y0003356493D01*
X0002625924Y0003357060D01*
X0002626603Y0003357564D01*
X0002627328Y0003357998D01*
X0002628092Y0003358360D01*
X0002628887Y0003358644D01*
X0002629707Y0003358850D01*
X0002630543Y0003358974D01*
X0002631387Y0003359015D01*
X0002648612Y0003359015D01*
X0002649456Y0003358974D01*
G37*
G36*
X0002711464Y0003358974D02*
G01*
X0002712300Y0003358850D01*
X0002713120Y0003358644D01*
X0002713915Y0003358360D01*
X0002714679Y0003357998D01*
X0002715404Y0003357564D01*
X0002716083Y0003357060D01*
X0002716709Y0003356493D01*
X0002717277Y0003355867D01*
X0002717780Y0003355188D01*
X0002718215Y0003354463D01*
X0002718576Y0003353699D01*
X0002718861Y0003352903D01*
X0002719066Y0003352083D01*
X0002719190Y0003351247D01*
X0002719232Y0003350403D01*
X0002719232Y0003330226D01*
X0002719190Y0003329382D01*
X0002719066Y0003328546D01*
X0002718861Y0003327726D01*
X0002718576Y0003326930D01*
X0002718215Y0003326166D01*
X0002717780Y0003325441D01*
X0002717277Y0003324762D01*
X0002716709Y0003324136D01*
X0002716083Y0003323569D01*
X0002715404Y0003323065D01*
X0002714679Y0003322631D01*
X0002713915Y0003322269D01*
X0002713120Y0003321984D01*
X0002712300Y0003321779D01*
X0002711464Y0003321655D01*
X0002710620Y0003321614D01*
X0002693395Y0003321614D01*
X0002692551Y0003321655D01*
X0002691715Y0003321779D01*
X0002690895Y0003321984D01*
X0002690099Y0003322269D01*
X0002689335Y0003322631D01*
X0002688610Y0003323065D01*
X0002687932Y0003323569D01*
X0002687305Y0003324136D01*
X0002686738Y0003324762D01*
X0002686234Y0003325441D01*
X0002685800Y0003326166D01*
X0002685439Y0003326930D01*
X0002685154Y0003327726D01*
X0002684948Y0003328546D01*
X0002684824Y0003329382D01*
X0002684783Y0003330226D01*
X0002684783Y0003350403D01*
X0002684824Y0003351247D01*
X0002684948Y0003352083D01*
X0002685154Y0003352903D01*
X0002685439Y0003353699D01*
X0002685800Y0003354463D01*
X0002686234Y0003355188D01*
X0002686738Y0003355867D01*
X0002687305Y0003356493D01*
X0002687932Y0003357060D01*
X0002688610Y0003357564D01*
X0002689335Y0003357998D01*
X0002690099Y0003358360D01*
X0002690895Y0003358644D01*
X0002691715Y0003358850D01*
X0002692551Y0003358974D01*
X0002693395Y0003359015D01*
X0002710620Y0003359015D01*
X0002711464Y0003358974D01*
G37*
G36*
X0002360460Y0004688974D02*
G01*
X0002361296Y0004688850D01*
X0002362116Y0004688644D01*
X0002362911Y0004688360D01*
X0002363675Y0004687998D01*
X0002364400Y0004687564D01*
X0002365079Y0004687060D01*
X0002365705Y0004686493D01*
X0002366273Y0004685867D01*
X0002366776Y0004685188D01*
X0002367211Y0004684463D01*
X0002367572Y0004683699D01*
X0002367857Y0004682903D01*
X0002368062Y0004682083D01*
X0002368186Y0004681247D01*
X0002368228Y0004680403D01*
X0002368228Y0004660226D01*
X0002368186Y0004659382D01*
X0002368062Y0004658546D01*
X0002367857Y0004657726D01*
X0002367572Y0004656930D01*
X0002367211Y0004656166D01*
X0002366776Y0004655441D01*
X0002366273Y0004654762D01*
X0002365705Y0004654136D01*
X0002365079Y0004653569D01*
X0002364400Y0004653065D01*
X0002363675Y0004652631D01*
X0002362911Y0004652269D01*
X0002362116Y0004651984D01*
X0002361296Y0004651779D01*
X0002360460Y0004651655D01*
X0002359616Y0004651614D01*
X0002342391Y0004651614D01*
X0002341547Y0004651655D01*
X0002340711Y0004651779D01*
X0002339891Y0004651984D01*
X0002339095Y0004652269D01*
X0002338331Y0004652631D01*
X0002337607Y0004653065D01*
X0002336928Y0004653569D01*
X0002336301Y0004654136D01*
X0002335734Y0004654762D01*
X0002335230Y0004655441D01*
X0002334796Y0004656166D01*
X0002334435Y0004656930D01*
X0002334150Y0004657726D01*
X0002333945Y0004658546D01*
X0002333820Y0004659382D01*
X0002333779Y0004660226D01*
X0002333779Y0004680403D01*
X0002333820Y0004681247D01*
X0002333945Y0004682083D01*
X0002334150Y0004682903D01*
X0002334435Y0004683699D01*
X0002334796Y0004684463D01*
X0002335230Y0004685188D01*
X0002335734Y0004685867D01*
X0002336301Y0004686493D01*
X0002336928Y0004687060D01*
X0002337607Y0004687564D01*
X0002338331Y0004687998D01*
X0002339095Y0004688360D01*
X0002339891Y0004688644D01*
X0002340711Y0004688850D01*
X0002341547Y0004688974D01*
X0002342391Y0004689015D01*
X0002359616Y0004689015D01*
X0002360460Y0004688974D01*
G37*
G36*
X0002298452Y0004688974D02*
G01*
X0002299288Y0004688850D01*
X0002300108Y0004688644D01*
X0002300904Y0004688360D01*
X0002301668Y0004687998D01*
X0002302392Y0004687564D01*
X0002303071Y0004687060D01*
X0002303698Y0004686493D01*
X0002304265Y0004685867D01*
X0002304769Y0004685188D01*
X0002305203Y0004684463D01*
X0002305564Y0004683699D01*
X0002305849Y0004682903D01*
X0002306055Y0004682083D01*
X0002306179Y0004681247D01*
X0002306220Y0004680403D01*
X0002306220Y0004660226D01*
X0002306179Y0004659382D01*
X0002306055Y0004658546D01*
X0002305849Y0004657726D01*
X0002305564Y0004656930D01*
X0002305203Y0004656166D01*
X0002304769Y0004655441D01*
X0002304265Y0004654762D01*
X0002303698Y0004654136D01*
X0002303071Y0004653569D01*
X0002302392Y0004653065D01*
X0002301668Y0004652631D01*
X0002300904Y0004652269D01*
X0002300108Y0004651984D01*
X0002299288Y0004651779D01*
X0002298452Y0004651655D01*
X0002297608Y0004651614D01*
X0002280383Y0004651614D01*
X0002279539Y0004651655D01*
X0002278703Y0004651779D01*
X0002277883Y0004651984D01*
X0002277088Y0004652269D01*
X0002276324Y0004652631D01*
X0002275599Y0004653065D01*
X0002274920Y0004653569D01*
X0002274294Y0004654136D01*
X0002273726Y0004654762D01*
X0002273223Y0004655441D01*
X0002272788Y0004656166D01*
X0002272427Y0004656930D01*
X0002272142Y0004657726D01*
X0002271937Y0004658546D01*
X0002271813Y0004659382D01*
X0002271771Y0004660226D01*
X0002271771Y0004680403D01*
X0002271813Y0004681247D01*
X0002271937Y0004682083D01*
X0002272142Y0004682903D01*
X0002272427Y0004683699D01*
X0002272788Y0004684463D01*
X0002273223Y0004685188D01*
X0002273726Y0004685867D01*
X0002274294Y0004686493D01*
X0002274920Y0004687060D01*
X0002275599Y0004687564D01*
X0002276324Y0004687998D01*
X0002277088Y0004688360D01*
X0002277883Y0004688644D01*
X0002278703Y0004688850D01*
X0002279539Y0004688974D01*
X0002280383Y0004689015D01*
X0002297608Y0004689015D01*
X0002298452Y0004688974D01*
G37*
G36*
X0001788098Y0004688245D02*
G01*
X0001788934Y0004688121D01*
X0001789753Y0004687916D01*
X0001790549Y0004687631D01*
X0001791313Y0004687270D01*
X0001792038Y0004686835D01*
X0001792717Y0004686332D01*
X0001793343Y0004685764D01*
X0001793911Y0004685138D01*
X0001794414Y0004684459D01*
X0001794849Y0004683734D01*
X0001795210Y0004682970D01*
X0001795495Y0004682175D01*
X0001795700Y0004681355D01*
X0001795824Y0004680519D01*
X0001795866Y0004679675D01*
X0001795866Y0004662450D01*
X0001795824Y0004661606D01*
X0001795700Y0004660770D01*
X0001795495Y0004659950D01*
X0001795210Y0004659155D01*
X0001794849Y0004658391D01*
X0001794414Y0004657666D01*
X0001793911Y0004656987D01*
X0001793343Y0004656361D01*
X0001792717Y0004655793D01*
X0001792038Y0004655290D01*
X0001791313Y0004654855D01*
X0001790549Y0004654494D01*
X0001789753Y0004654209D01*
X0001788934Y0004654004D01*
X0001788098Y0004653880D01*
X0001787253Y0004653838D01*
X0001767076Y0004653838D01*
X0001766232Y0004653880D01*
X0001765396Y0004654004D01*
X0001764576Y0004654209D01*
X0001763781Y0004654494D01*
X0001763017Y0004654855D01*
X0001762292Y0004655290D01*
X0001761613Y0004655793D01*
X0001760987Y0004656361D01*
X0001760419Y0004656987D01*
X0001759915Y0004657666D01*
X0001759481Y0004658391D01*
X0001759120Y0004659155D01*
X0001758835Y0004659950D01*
X0001758630Y0004660770D01*
X0001758506Y0004661606D01*
X0001758464Y0004662450D01*
X0001758464Y0004679675D01*
X0001758506Y0004680519D01*
X0001758630Y0004681355D01*
X0001758835Y0004682175D01*
X0001759120Y0004682970D01*
X0001759481Y0004683734D01*
X0001759915Y0004684459D01*
X0001760419Y0004685138D01*
X0001760987Y0004685764D01*
X0001761613Y0004686332D01*
X0001762292Y0004686835D01*
X0001763017Y0004687270D01*
X0001763781Y0004687631D01*
X0001764576Y0004687916D01*
X0001765396Y0004688121D01*
X0001766232Y0004688245D01*
X0001767076Y0004688287D01*
X0001787253Y0004688287D01*
X0001788098Y0004688245D01*
G37*
G36*
X0001788098Y0004626238D02*
G01*
X0001788934Y0004626114D01*
X0001789753Y0004625908D01*
X0001790549Y0004625623D01*
X0001791313Y0004625262D01*
X0001792038Y0004624828D01*
X0001792717Y0004624324D01*
X0001793343Y0004623757D01*
X0001793911Y0004623130D01*
X0001794414Y0004622452D01*
X0001794849Y0004621727D01*
X0001795210Y0004620963D01*
X0001795495Y0004620167D01*
X0001795700Y0004619347D01*
X0001795824Y0004618511D01*
X0001795866Y0004617667D01*
X0001795866Y0004600442D01*
X0001795824Y0004599598D01*
X0001795700Y0004598762D01*
X0001795495Y0004597942D01*
X0001795210Y0004597147D01*
X0001794849Y0004596383D01*
X0001794414Y0004595658D01*
X0001793911Y0004594979D01*
X0001793343Y0004594353D01*
X0001792717Y0004593785D01*
X0001792038Y0004593282D01*
X0001791313Y0004592847D01*
X0001790549Y0004592486D01*
X0001789753Y0004592201D01*
X0001788934Y0004591996D01*
X0001788098Y0004591872D01*
X0001787253Y0004591830D01*
X0001767076Y0004591830D01*
X0001766232Y0004591872D01*
X0001765396Y0004591996D01*
X0001764576Y0004592201D01*
X0001763781Y0004592486D01*
X0001763017Y0004592847D01*
X0001762292Y0004593282D01*
X0001761613Y0004593785D01*
X0001760987Y0004594353D01*
X0001760419Y0004594979D01*
X0001759915Y0004595658D01*
X0001759481Y0004596383D01*
X0001759120Y0004597147D01*
X0001758835Y0004597942D01*
X0001758630Y0004598762D01*
X0001758506Y0004599598D01*
X0001758464Y0004600442D01*
X0001758464Y0004617667D01*
X0001758506Y0004618511D01*
X0001758630Y0004619347D01*
X0001758835Y0004620167D01*
X0001759120Y0004620963D01*
X0001759481Y0004621727D01*
X0001759915Y0004622452D01*
X0001760419Y0004623130D01*
X0001760987Y0004623757D01*
X0001761613Y0004624324D01*
X0001762292Y0004624828D01*
X0001763017Y0004625262D01*
X0001763781Y0004625623D01*
X0001764576Y0004625908D01*
X0001765396Y0004626114D01*
X0001766232Y0004626238D01*
X0001767076Y0004626279D01*
X0001787253Y0004626279D01*
X0001788098Y0004626238D01*
G37*
G36*
X0001720932Y0004626493D02*
G01*
X0001721768Y0004626369D01*
X0001722588Y0004626164D01*
X0001723384Y0004625879D01*
X0001724148Y0004625518D01*
X0001724873Y0004625084D01*
X0001725552Y0004624580D01*
X0001726178Y0004624012D01*
X0001726745Y0004623386D01*
X0001727249Y0004622707D01*
X0001727683Y0004621982D01*
X0001728045Y0004621218D01*
X0001728329Y0004620423D01*
X0001728535Y0004619603D01*
X0001728659Y0004618767D01*
X0001728700Y0004617923D01*
X0001728700Y0004600698D01*
X0001728659Y0004599854D01*
X0001728535Y0004599018D01*
X0001728329Y0004598198D01*
X0001728045Y0004597403D01*
X0001727683Y0004596639D01*
X0001727249Y0004595914D01*
X0001726745Y0004595235D01*
X0001726178Y0004594609D01*
X0001725552Y0004594041D01*
X0001724873Y0004593538D01*
X0001724148Y0004593103D01*
X0001723384Y0004592742D01*
X0001722588Y0004592457D01*
X0001721768Y0004592252D01*
X0001720932Y0004592128D01*
X0001720088Y0004592086D01*
X0001699911Y0004592086D01*
X0001699067Y0004592128D01*
X0001698231Y0004592252D01*
X0001697411Y0004592457D01*
X0001696615Y0004592742D01*
X0001695851Y0004593103D01*
X0001695126Y0004593538D01*
X0001694447Y0004594041D01*
X0001693821Y0004594609D01*
X0001693254Y0004595235D01*
X0001692750Y0004595914D01*
X0001692316Y0004596639D01*
X0001691954Y0004597403D01*
X0001691670Y0004598198D01*
X0001691464Y0004599018D01*
X0001691340Y0004599854D01*
X0001691299Y0004600698D01*
X0001691299Y0004617923D01*
X0001691340Y0004618767D01*
X0001691464Y0004619603D01*
X0001691670Y0004620423D01*
X0001691954Y0004621218D01*
X0001692316Y0004621982D01*
X0001692750Y0004622707D01*
X0001693254Y0004623386D01*
X0001693821Y0004624012D01*
X0001694447Y0004624580D01*
X0001695126Y0004625084D01*
X0001695851Y0004625518D01*
X0001696615Y0004625879D01*
X0001697411Y0004626164D01*
X0001698231Y0004626369D01*
X0001699067Y0004626493D01*
X0001699911Y0004626535D01*
X0001720088Y0004626535D01*
X0001720932Y0004626493D01*
G37*
G36*
X0001720932Y0004688501D02*
G01*
X0001721768Y0004688377D01*
X0001722588Y0004688172D01*
X0001723384Y0004687887D01*
X0001724148Y0004687526D01*
X0001724873Y0004687091D01*
X0001725552Y0004686588D01*
X0001726178Y0004686020D01*
X0001726745Y0004685394D01*
X0001727249Y0004684715D01*
X0001727683Y0004683990D01*
X0001728045Y0004683226D01*
X0001728329Y0004682431D01*
X0001728535Y0004681611D01*
X0001728659Y0004680775D01*
X0001728700Y0004679931D01*
X0001728700Y0004662706D01*
X0001728659Y0004661862D01*
X0001728535Y0004661026D01*
X0001728329Y0004660206D01*
X0001728045Y0004659410D01*
X0001727683Y0004658646D01*
X0001727249Y0004657922D01*
X0001726745Y0004657243D01*
X0001726178Y0004656616D01*
X0001725552Y0004656049D01*
X0001724873Y0004655545D01*
X0001724148Y0004655111D01*
X0001723384Y0004654750D01*
X0001722588Y0004654465D01*
X0001721768Y0004654259D01*
X0001720932Y0004654135D01*
X0001720088Y0004654094D01*
X0001699911Y0004654094D01*
X0001699067Y0004654135D01*
X0001698231Y0004654259D01*
X0001697411Y0004654465D01*
X0001696615Y0004654750D01*
X0001695851Y0004655111D01*
X0001695126Y0004655545D01*
X0001694447Y0004656049D01*
X0001693821Y0004656616D01*
X0001693254Y0004657243D01*
X0001692750Y0004657922D01*
X0001692316Y0004658646D01*
X0001691954Y0004659410D01*
X0001691670Y0004660206D01*
X0001691464Y0004661026D01*
X0001691340Y0004661862D01*
X0001691299Y0004662706D01*
X0001691299Y0004679931D01*
X0001691340Y0004680775D01*
X0001691464Y0004681611D01*
X0001691670Y0004682431D01*
X0001691954Y0004683226D01*
X0001692316Y0004683990D01*
X0001692750Y0004684715D01*
X0001693254Y0004685394D01*
X0001693821Y0004686020D01*
X0001694447Y0004686588D01*
X0001695126Y0004687091D01*
X0001695851Y0004687526D01*
X0001696615Y0004687887D01*
X0001697411Y0004688172D01*
X0001698231Y0004688377D01*
X0001699067Y0004688501D01*
X0001699911Y0004688543D01*
X0001720088Y0004688543D01*
X0001720932Y0004688501D01*
G37*
G36*
X0001830932Y0004407497D02*
G01*
X0001831768Y0004407373D01*
X0001832588Y0004407168D01*
X0001833384Y0004406883D01*
X0001834148Y0004406522D01*
X0001834873Y0004406087D01*
X0001835552Y0004405584D01*
X0001836178Y0004405016D01*
X0001836745Y0004404390D01*
X0001837249Y0004403711D01*
X0001837683Y0004402986D01*
X0001838045Y0004402222D01*
X0001838329Y0004401427D01*
X0001838535Y0004400607D01*
X0001838659Y0004399771D01*
X0001838700Y0004398927D01*
X0001838700Y0004381702D01*
X0001838659Y0004380858D01*
X0001838535Y0004380022D01*
X0001838329Y0004379202D01*
X0001838045Y0004378406D01*
X0001837683Y0004377642D01*
X0001837249Y0004376918D01*
X0001836745Y0004376239D01*
X0001836178Y0004375612D01*
X0001835552Y0004375045D01*
X0001834873Y0004374541D01*
X0001834148Y0004374107D01*
X0001833384Y0004373746D01*
X0001832588Y0004373461D01*
X0001831768Y0004373256D01*
X0001830932Y0004373132D01*
X0001830088Y0004373090D01*
X0001809911Y0004373090D01*
X0001809067Y0004373132D01*
X0001808231Y0004373256D01*
X0001807411Y0004373461D01*
X0001806615Y0004373746D01*
X0001805851Y0004374107D01*
X0001805126Y0004374541D01*
X0001804447Y0004375045D01*
X0001803821Y0004375612D01*
X0001803254Y0004376239D01*
X0001802750Y0004376918D01*
X0001802316Y0004377642D01*
X0001801954Y0004378406D01*
X0001801670Y0004379202D01*
X0001801464Y0004380022D01*
X0001801340Y0004380858D01*
X0001801299Y0004381702D01*
X0001801299Y0004398927D01*
X0001801340Y0004399771D01*
X0001801464Y0004400607D01*
X0001801670Y0004401427D01*
X0001801954Y0004402222D01*
X0001802316Y0004402986D01*
X0001802750Y0004403711D01*
X0001803254Y0004404390D01*
X0001803821Y0004405016D01*
X0001804447Y0004405584D01*
X0001805126Y0004406087D01*
X0001805851Y0004406522D01*
X0001806615Y0004406883D01*
X0001807411Y0004407168D01*
X0001808231Y0004407373D01*
X0001809067Y0004407497D01*
X0001809911Y0004407539D01*
X0001830088Y0004407539D01*
X0001830932Y0004407497D01*
G37*
G36*
X0001830932Y0004469505D02*
G01*
X0001831768Y0004469381D01*
X0001832588Y0004469176D01*
X0001833384Y0004468891D01*
X0001834148Y0004468530D01*
X0001834873Y0004468095D01*
X0001835552Y0004467592D01*
X0001836178Y0004467024D01*
X0001836745Y0004466398D01*
X0001837249Y0004465719D01*
X0001837683Y0004464994D01*
X0001838045Y0004464230D01*
X0001838329Y0004463435D01*
X0001838535Y0004462615D01*
X0001838659Y0004461779D01*
X0001838700Y0004460935D01*
X0001838700Y0004443710D01*
X0001838659Y0004442866D01*
X0001838535Y0004442030D01*
X0001838329Y0004441210D01*
X0001838045Y0004440414D01*
X0001837683Y0004439650D01*
X0001837249Y0004438925D01*
X0001836745Y0004438247D01*
X0001836178Y0004437620D01*
X0001835552Y0004437053D01*
X0001834873Y0004436549D01*
X0001834148Y0004436115D01*
X0001833384Y0004435753D01*
X0001832588Y0004435469D01*
X0001831768Y0004435263D01*
X0001830932Y0004435139D01*
X0001830088Y0004435098D01*
X0001809911Y0004435098D01*
X0001809067Y0004435139D01*
X0001808231Y0004435263D01*
X0001807411Y0004435469D01*
X0001806615Y0004435753D01*
X0001805851Y0004436115D01*
X0001805126Y0004436549D01*
X0001804447Y0004437053D01*
X0001803821Y0004437620D01*
X0001803254Y0004438247D01*
X0001802750Y0004438925D01*
X0001802316Y0004439650D01*
X0001801954Y0004440414D01*
X0001801670Y0004441210D01*
X0001801464Y0004442030D01*
X0001801340Y0004442866D01*
X0001801299Y0004443710D01*
X0001801299Y0004460935D01*
X0001801340Y0004461779D01*
X0001801464Y0004462615D01*
X0001801670Y0004463435D01*
X0001801954Y0004464230D01*
X0001802316Y0004464994D01*
X0001802750Y0004465719D01*
X0001803254Y0004466398D01*
X0001803821Y0004467024D01*
X0001804447Y0004467592D01*
X0001805126Y0004468095D01*
X0001805851Y0004468530D01*
X0001806615Y0004468891D01*
X0001807411Y0004469176D01*
X0001808231Y0004469381D01*
X0001809067Y0004469505D01*
X0001809911Y0004469547D01*
X0001830088Y0004469547D01*
X0001830932Y0004469505D01*
G37*
G36*
X0002115165Y0003290706D02*
G01*
X0002116001Y0003290582D01*
X0002116820Y0003290377D01*
X0002117616Y0003290092D01*
X0002118380Y0003289731D01*
X0002119105Y0003289296D01*
X0002119784Y0003288793D01*
X0002120410Y0003288225D01*
X0002120978Y0003287599D01*
X0002121481Y0003286920D01*
X0002121916Y0003286195D01*
X0002122277Y0003285431D01*
X0002122562Y0003284635D01*
X0002122767Y0003283815D01*
X0002122891Y0003282979D01*
X0002122933Y0003282135D01*
X0002122933Y0003261958D01*
X0002122891Y0003261114D01*
X0002122767Y0003260278D01*
X0002122562Y0003259458D01*
X0002122277Y0003258662D01*
X0002121916Y0003257898D01*
X0002121481Y0003257173D01*
X0002120978Y0003256495D01*
X0002120410Y0003255868D01*
X0002119784Y0003255301D01*
X0002119105Y0003254797D01*
X0002118380Y0003254363D01*
X0002117616Y0003254002D01*
X0002116820Y0003253717D01*
X0002116001Y0003253511D01*
X0002115165Y0003253387D01*
X0002114320Y0003253346D01*
X0002097096Y0003253346D01*
X0002096252Y0003253387D01*
X0002095416Y0003253511D01*
X0002094596Y0003253717D01*
X0002093800Y0003254002D01*
X0002093036Y0003254363D01*
X0002092311Y0003254797D01*
X0002091632Y0003255301D01*
X0002091006Y0003255868D01*
X0002090439Y0003256495D01*
X0002089935Y0003257173D01*
X0002089501Y0003257898D01*
X0002089139Y0003258662D01*
X0002088855Y0003259458D01*
X0002088649Y0003260278D01*
X0002088525Y0003261114D01*
X0002088484Y0003261958D01*
X0002088484Y0003282135D01*
X0002088525Y0003282979D01*
X0002088649Y0003283815D01*
X0002088855Y0003284635D01*
X0002089139Y0003285431D01*
X0002089501Y0003286195D01*
X0002089935Y0003286920D01*
X0002090439Y0003287599D01*
X0002091006Y0003288225D01*
X0002091632Y0003288793D01*
X0002092311Y0003289296D01*
X0002093036Y0003289731D01*
X0002093800Y0003290092D01*
X0002094596Y0003290377D01*
X0002095416Y0003290582D01*
X0002096252Y0003290706D01*
X0002097096Y0003290748D01*
X0002114320Y0003290748D01*
X0002115165Y0003290706D01*
G37*
G36*
X0002053157Y0003290706D02*
G01*
X0002053993Y0003290582D01*
X0002054812Y0003290377D01*
X0002055608Y0003290092D01*
X0002056372Y0003289731D01*
X0002057097Y0003289296D01*
X0002057776Y0003288793D01*
X0002058402Y0003288225D01*
X0002058970Y0003287599D01*
X0002059473Y0003286920D01*
X0002059908Y0003286195D01*
X0002060269Y0003285431D01*
X0002060554Y0003284635D01*
X0002060759Y0003283815D01*
X0002060883Y0003282979D01*
X0002060925Y0003282135D01*
X0002060925Y0003261958D01*
X0002060883Y0003261114D01*
X0002060759Y0003260278D01*
X0002060554Y0003259458D01*
X0002060269Y0003258662D01*
X0002059908Y0003257898D01*
X0002059473Y0003257173D01*
X0002058970Y0003256495D01*
X0002058402Y0003255868D01*
X0002057776Y0003255301D01*
X0002057097Y0003254797D01*
X0002056372Y0003254363D01*
X0002055608Y0003254002D01*
X0002054812Y0003253717D01*
X0002053993Y0003253511D01*
X0002053157Y0003253387D01*
X0002052312Y0003253346D01*
X0002035088Y0003253346D01*
X0002034244Y0003253387D01*
X0002033408Y0003253511D01*
X0002032588Y0003253717D01*
X0002031792Y0003254002D01*
X0002031028Y0003254363D01*
X0002030303Y0003254797D01*
X0002029625Y0003255301D01*
X0002028998Y0003255868D01*
X0002028431Y0003256495D01*
X0002027927Y0003257173D01*
X0002027493Y0003257898D01*
X0002027131Y0003258662D01*
X0002026847Y0003259458D01*
X0002026641Y0003260278D01*
X0002026517Y0003261114D01*
X0002026476Y0003261958D01*
X0002026476Y0003282135D01*
X0002026517Y0003282979D01*
X0002026641Y0003283815D01*
X0002026847Y0003284635D01*
X0002027131Y0003285431D01*
X0002027493Y0003286195D01*
X0002027927Y0003286920D01*
X0002028431Y0003287599D01*
X0002028998Y0003288225D01*
X0002029625Y0003288793D01*
X0002030303Y0003289296D01*
X0002031028Y0003289731D01*
X0002031792Y0003290092D01*
X0002032588Y0003290377D01*
X0002033408Y0003290582D01*
X0002034244Y0003290706D01*
X0002035088Y0003290748D01*
X0002052312Y0003290748D01*
X0002053157Y0003290706D01*
G37*
D93*
X0001557232Y0002972023D03*
X0001576917Y0002972023D03*
X0001596602Y0002972023D03*
X0001616287Y0002972023D03*
X0001635972Y0002972023D03*
X0001655657Y0002972023D03*
X0001675342Y0002972023D03*
X0001695027Y0002972023D03*
X0001714712Y0002972023D03*
X0001734397Y0002972023D03*
X0001754082Y0002972023D03*
X0001773767Y0002972023D03*
D94*
X0001834791Y0003033047D03*
X0001834791Y0003052732D03*
X0001834791Y0003072417D03*
X0001834791Y0003092102D03*
X0001834791Y0003111787D03*
X0001834791Y0003131472D03*
X0001834791Y0003151157D03*
X0001834791Y0003170842D03*
X0001834791Y0003190527D03*
X0001834791Y0003210212D03*
X0001834791Y0003229897D03*
X0001834791Y0003249582D03*
D93*
X0001773767Y0003310606D03*
X0001754082Y0003310606D03*
X0001734397Y0003310606D03*
X0001714712Y0003310606D03*
X0001695027Y0003310606D03*
X0001675342Y0003310606D03*
X0001655657Y0003310606D03*
X0001635972Y0003310606D03*
X0001616287Y0003310606D03*
X0001596602Y0003310606D03*
X0001576917Y0003310606D03*
X0001557232Y0003310606D03*
D94*
X0001496208Y0003249582D03*
X0001496208Y0003229897D03*
X0001496208Y0003210212D03*
X0001496208Y0003190527D03*
X0001496208Y0003170842D03*
X0001496208Y0003151157D03*
X0001496208Y0003131472D03*
X0001496208Y0003111787D03*
X0001496208Y0003092102D03*
X0001496208Y0003072417D03*
X0001496208Y0003052732D03*
X0001496208Y0003033047D03*
D95*
X0001665500Y0003141314D03*
D92*
X0002500393Y0003016929D03*
D91*
X0002500393Y0003116929D03*
X0002500393Y0003216929D03*
X0002500393Y0003316929D03*
X0002500393Y0003416929D03*
D96*
X0001155039Y0002740314D03*
X0001284960Y0002740314D03*
X0002863779Y0002608267D03*
X0002733858Y0002608267D03*
D97*
X0003375590Y0002548425D03*
X0000241732Y0003140551D03*
X0001857874Y0004302362D03*
M02*