%
M48
METRIC,000.000
T01C0.30
T02C0.30
T03C0.64
T04C0.81
T05C1.00
T06C1.02
T07C1.10
T08C1.30
%
T01
X084615Y053489
X084615Y052189
X084615Y050888
X084615Y049588
X084615Y048287
X084615Y046987
X084615Y045689
X085915Y053489
X085915Y052189
X085915Y050888
X085915Y049588
X085915Y048287
X085915Y046987
X085915Y045689
X087215Y053489
X087215Y052189
X087215Y050888
X087215Y049588
X087215Y048287
X087215Y046987
X087215Y045689
X084612Y015161
X084612Y013860
X084612Y012560
X084612Y011259
X084612Y009959
X084612Y008658
X084612Y007360
X085912Y015161
X085912Y013860
X085912Y012560
X085912Y011259
X085912Y009959
X085912Y008658
X085912Y007360
X087213Y015161
X087213Y013860
X087213Y012560
X087213Y011259
X087213Y009959
X087213Y008658
X087213Y007360
X053301Y036250
X053301Y034950
X053301Y033649
X054599Y036250
X054599Y034950
X054599Y033649
X055900Y036250
X055900Y034950
X055900Y033649
X057200Y036250
X057200Y034950
X057200Y033649
X058501Y036250
X058501Y034950
X058501Y033649
X059801Y036250
X059801Y034950
X059801Y033649
X061102Y036250
X061102Y034950
X061102Y033649
X084617Y034363
X084617Y033063
X084617Y031762
X084617Y030462
X084617Y029161
X084617Y027861
X084617Y026563
X085918Y034363
X085918Y033063
X085918Y031762
X085918Y030462
X085918Y029161
X085918Y027861
X085918Y026563
X087218Y034363
X087218Y033063
X087218Y031762
X087218Y030462
X087218Y029161
X087218Y027861
X087218Y026563
X084627Y116502
X084627Y115202
X084627Y113901
X084627Y112601
X084627Y111300
X084627Y110000
X084627Y108702
X085928Y116502
X085928Y115202
X085928Y113901
X085928Y112601
X085928Y111300
X085928Y110000
X085928Y108702
X087228Y116502
X087228Y115202
X087228Y113901
X087228Y112601
X087228Y111300
X087228Y110000
X087228Y108702
X084625Y078173
X084625Y076873
X084625Y075573
X084625Y074272
X084625Y072972
X084625Y071671
X084625Y070373
X085925Y078173
X085925Y076873
X085925Y075573
X085925Y074272
X085925Y072972
X085925Y071671
X085925Y070373
X087226Y078173
X087226Y076873
X087226Y075573
X087226Y074272
X087226Y072972
X087226Y071671
X087226Y070373
X053314Y099263
X053314Y097963
X053314Y096662
X054612Y099263
X054612Y097963
X054612Y096662
X055913Y099263
X055913Y097963
X055913Y096662
X057213Y099263
X057213Y097963
X057213Y096662
X058513Y099263
X058513Y097963
X058513Y096662
X059814Y099263
X059814Y097963
X059814Y096662
X061114Y099263
X061114Y097963
X061114Y096662
X084630Y097376
X084630Y096075
X084630Y094775
X084630Y093474
X084630Y092174
X084630Y090873
X084630Y089576
X085930Y097376
X085930Y096075
X085930Y094775
X085930Y093474
X085930Y092174
X085930Y090873
X085930Y089576
X087231Y097376
X087231Y096075
X087231Y094775
X087231Y093474
X087231Y092174
X087231Y090873
X087231Y089576
X020609Y085329
X020609Y083828
X020609Y082326
X021861Y086078
X021861Y084577
X021861Y083078
X021861Y081577
X023111Y085329
X023111Y083828
X023111Y082326
X020812Y099502
X020812Y098001
X020812Y096500
X022064Y100251
X022064Y098750
X022064Y097251
X022064Y095750
X023314Y099502
X023314Y098001
X023314Y096500
X020304Y070901
X020304Y069400
X020304Y067899
X021556Y071651
X021556Y070150
X021556Y068651
X021556Y067150
X022806Y070901
X022806Y069400
X022806Y067899
X018468Y076743
X018468Y075242
X018468Y073741
X019718Y077493
X019718Y075992
X019718Y074493
X019718Y072992
X020970Y076743
X020970Y075242
X020970Y073741
X018798Y091018
X018798Y089517
X018798Y088016
X020048Y091768
X020048Y090266
X020048Y088768
X020048Y087267
X021300Y091018
X021300Y089517
X021300Y088016
X018976Y105344
X018976Y103843
X018976Y102342
X020226Y106093
X020226Y104592
X020226Y103093
X020226Y101592
X021478Y105344
X021478Y103843
X021478Y102342
T02
X020596Y022316
X020596Y020815
X020596Y019314
X021849Y023065
X021849Y021564
X021849Y020066
X021849Y018564
X023098Y022316
X023098Y020815
X023098Y019314
X020800Y036489
X020800Y034988
X020800Y033487
X022052Y037238
X022052Y035737
X022052Y034239
X022052Y032738
X023301Y036489
X023301Y034988
X023301Y033487
X020292Y007889
X020292Y006388
X020292Y004886
X021544Y008638
X021544Y007137
X021544Y005638
X021544Y004137
X022793Y007889
X022793Y006388
X022793Y004886
X018455Y013731
X018455Y012230
X018455Y010728
X019705Y014480
X019705Y012979
X019705Y011480
X019705Y009979
X020957Y013731
X020957Y012230
X020957Y010728
X018785Y028006
X018785Y026504
X018785Y025003
X020035Y028755
X020035Y027254
X020035Y025755
X020035Y024254
X021287Y028006
X021287Y026504
X021287Y025003
X018963Y042331
X018963Y040830
X018963Y039329
X020213Y043080
X020213Y041579
X020213Y040081
X020213Y038580
X021465Y042331
X021465Y040830
X021465Y039329
T03
X002667Y007668
X003949Y025615
X003949Y024295
X003975Y026847
X004013Y029337
X004025Y028105
X004064Y015100
X004127Y011531
X004165Y012826
X004191Y013969
X004254Y010325
X007645Y030861
X007874Y033832
X008013Y032397
X008178Y018707
X008216Y019951
X008216Y017399
X008254Y021221
X008285Y004589
X008293Y007099
X008293Y005854
X008293Y003454
X008534Y031623
X008788Y030441
X008864Y032842
X008915Y034239
X009156Y019202
X009169Y018084
X009232Y006464
X009245Y020586
X009245Y002933
X009309Y021818
X009347Y004038
X009372Y005168
X009499Y031737
X009829Y033083
X011666Y002456
X012346Y017106
X012438Y040507
X012776Y015496
X012816Y029738
X012826Y002456
X013207Y011937
X013258Y026212
X013416Y031407
X013749Y005173
X013804Y019514
X013962Y033723
X015735Y026149
X015748Y011937
X015938Y040589
X016746Y006078
X016997Y020736
X017099Y033578
X021976Y016238
X022326Y029959
X023027Y001976
X023749Y029705
X025176Y015247
X027292Y041821
X027419Y047485
X028836Y039136
X028943Y047485
X028958Y004706
X030038Y037416
X030086Y010726
X031236Y035217
X031488Y031478
X031757Y010716
X032244Y047485
X032766Y018554
X032766Y017399
X033187Y039497
X033416Y010736
X033558Y031046
X033817Y016857
X033934Y002730
X034018Y007327
X034023Y005575
X034038Y014348
X034277Y008846
X035067Y025356
X035118Y013817
X035288Y029738
X035293Y047485
X035316Y028478
X035626Y022738
X035707Y031996
X035796Y012936
X036116Y039466
X036136Y030688
X036377Y010457
X037071Y047485
X037198Y020487
X037208Y032776
X037256Y029786
X037327Y035481
X037416Y022727
X037978Y033726
X038056Y021666
X038158Y009898
X038356Y020457
X038577Y022776
X038638Y027838
X039197Y035016
X039557Y023368
X039560Y036700
X039738Y041318
X039817Y032837
X039877Y034018
X039936Y028907
X041376Y047576
X041437Y041658
X041478Y025036
X042042Y013957
X042377Y038287
X042796Y036616
X042877Y034356
X042913Y051041
X043146Y023347
X043548Y039992
X043548Y013957
X043667Y030177
X044564Y009639
X044691Y010782
X044757Y047127
X045072Y019527
X045298Y007277
X045707Y009639
X045897Y012887
X045935Y010769
X045956Y020426
X046088Y033528
X046418Y011808
X046456Y028158
X046466Y037017
X046558Y022156
X046936Y003967
X046997Y020937
X047096Y027017
X047137Y038107
X047157Y034038
X047523Y008280
X047624Y009702
X047947Y003416
X048229Y002260
X048958Y042616
X049176Y015717
X049275Y014122
X049484Y045821
X049588Y029428
X049644Y030594
X050055Y046608
X052163Y039052
X052417Y040170
X053141Y041757
X053548Y040525
X053853Y045732
X054640Y039814
X054681Y025547
X055097Y045643
X056240Y045593
X056883Y053073
X056956Y028287
X057015Y027419
X057536Y029425
X058046Y016817
X058094Y027546
X058679Y040068
X059258Y002738
X059319Y029466
X059677Y056883
X059796Y045148
X059847Y039776
X060063Y042024
X060101Y040881
X060406Y017246
X060914Y045186
X060926Y039387
X061257Y042052
X061607Y012397
X062044Y030734
X062095Y038544
X062222Y044970
X063238Y009067
X064602Y026347
X065171Y027602
X065659Y047751
X065824Y023799
X066509Y053289
X066789Y043929
X066789Y042405
X066802Y047764
X066807Y026807
X066954Y023812
X067195Y015011
X067226Y009677
X067271Y006553
X067424Y005143
X067627Y033596
X067627Y029176
X067792Y053306
X067881Y047802
X067983Y023799
X067995Y039115
X068326Y014947
X068326Y006540
X068440Y009664
X068529Y029895
X068541Y033019
X068922Y047853
X068948Y053200
X069024Y023799
X069138Y039103
X069392Y014897
X069456Y006502
X069557Y032943
X069596Y029933
X069608Y009728
X070091Y053225
X070142Y047815
X070218Y039090
X070485Y014947
X070586Y007838
X070698Y005387
X071259Y047929
X071272Y039103
X071577Y014922
X071615Y032880
X071780Y053251
X071818Y030035
X071856Y009613
X071856Y006743
X072288Y047917
X072339Y039090
X072453Y023863
X072593Y032880
X072771Y014960
X072847Y053289
X072859Y030099
X072872Y006743
X072948Y009613
X073367Y047929
X073380Y042494
X073400Y043878
X073507Y039141
X073507Y023914
X073558Y032880
X073863Y053289
X073888Y030099
X073939Y006781
X073977Y014960
X073987Y002677
X074079Y009677
X074599Y032918
X074917Y053251
X074955Y030175
X075018Y006819
X075171Y009690
X075907Y047917
X077396Y032496
X078384Y052146
X078488Y013807
X078798Y041607
X078836Y053456
X078892Y022402
X078930Y020459
X079418Y036456
X079717Y021475
X079743Y026111
X079819Y052400
X079888Y006863
X079936Y039408
X079987Y034457
X080027Y041597
X080131Y016860
X080200Y033243
X080246Y013858
X080482Y007876
X080497Y014808
X080505Y053327
X080518Y046037
X080538Y045016
X080543Y027010
X080551Y025265
X080566Y043827
X080657Y005902
X081000Y052400
X081000Y051079
X081092Y032009
X081102Y047091
X081153Y008783
X081191Y027978
X081229Y013842
X081234Y012692
X081358Y033129
X081701Y025242
X081808Y005925
X082128Y044297
X082537Y054838
X085521Y021297
X086918Y021285
X088379Y002273
X090500Y035674
X090551Y015836
X091033Y001777
X091269Y051808
X091363Y030767
X091455Y011595
X091470Y032717
X091508Y049888
X091508Y013324
X092049Y056959
X092100Y041338
X092405Y040220
X092547Y055902
X092557Y021513
X092684Y049174
X092697Y010769
X092722Y030302
X093522Y010807
X093535Y049212
X093599Y030391
X093903Y039852
X094551Y056984
X095590Y028046
X095615Y008524
X095669Y047144
X096012Y038353
X096418Y056934
X096568Y001628
X097358Y020485
X098285Y056883
X098958Y021297
X099504Y055956
X099898Y037591
X100253Y054902
X100304Y042748
X100330Y036360
X100406Y019024
X100469Y022961
X100736Y007061
X101318Y004366
X002679Y070680
X003962Y088628
X003962Y087307
X003987Y089860
X004025Y092349
X004038Y091117
X004075Y078113
X004140Y074544
X004178Y075839
X004203Y076982
X004267Y073337
X007658Y093873
X007886Y096845
X008026Y095410
X008191Y081719
X008229Y082964
X008229Y080411
X008267Y084234
X008298Y067602
X008305Y070112
X008305Y068867
X008305Y066467
X008547Y094635
X008801Y093454
X008877Y095854
X008928Y097251
X009169Y082215
X009182Y081097
X009245Y069477
X009258Y083599
X009258Y065946
X009321Y084831
X009359Y067051
X009385Y068181
X009512Y094750
X009842Y096096
X011678Y065468
X012359Y080119
X012451Y103520
X012788Y078509
X012829Y092751
X012839Y065468
X013220Y074950
X013271Y089225
X013428Y094419
X013761Y068186
X013817Y082527
X013975Y096736
X015748Y089162
X015760Y074950
X015951Y103601
X016758Y069090
X017010Y083749
X017111Y096591
X021988Y079250
X022339Y092972
X023040Y064988
X023761Y092717
X025189Y078260
X027304Y104833
X027432Y110497
X028849Y102149
X028955Y110497
X028971Y067719
X030050Y100429
X030099Y073739
X031249Y098229
X031501Y094490
X031770Y073728
X032256Y110497
X032778Y081567
X032778Y080411
X033200Y102509
X033428Y073749
X033571Y094059
X033830Y079870
X033947Y065743
X034030Y070340
X034036Y068588
X034051Y077361
X034290Y071859
X035079Y088369
X035130Y076830
X035300Y092751
X035306Y110497
X035328Y091491
X035638Y085750
X035720Y095009
X035808Y075948
X036128Y102479
X036149Y093700
X036390Y073469
X037083Y110497
X037211Y083500
X037221Y095788
X037269Y092799
X037340Y098493
X037429Y085740
X037990Y096738
X038069Y084678
X038171Y072911
X038369Y083469
X038590Y085788
X038651Y090851
X039209Y098029
X039570Y086380
X039573Y099713
X039751Y104330
X039829Y095849
X039890Y097030
X039949Y091920
X041389Y110589
X041450Y104671
X041490Y088049
X042054Y076970
X042390Y101300
X042809Y099629
X042890Y097368
X042925Y114054
X043159Y086360
X043561Y103005
X043561Y076970
X043680Y093190
X044577Y072652
X044704Y073795
X044770Y110139
X045084Y082540
X045311Y070289
X045720Y072652
X045910Y075900
X045948Y073782
X045968Y083439
X046101Y096540
X046431Y074821
X046469Y091171
X046479Y100030
X046570Y085169
X046949Y066980
X047010Y083949
X047109Y090030
X047150Y101120
X047170Y097051
X047536Y071293
X047637Y072715
X047960Y066429
X048242Y065272
X048971Y105628
X049189Y078730
X049288Y077135
X049496Y108834
X049601Y092441
X049657Y093607
X050068Y109621
X052176Y102065
X052430Y103182
X053154Y104770
X053560Y103538
X053865Y108745
X054653Y102827
X054693Y088560
X055110Y108656
X056253Y108605
X056896Y116085
X056969Y091300
X057028Y090432
X057548Y092438
X058059Y079830
X058107Y090559
X058691Y103081
X059270Y065750
X059331Y092479
X059690Y119896
X059809Y108161
X059860Y102789
X060076Y105037
X060114Y103894
X060418Y080259
X060926Y108199
X060939Y102400
X061269Y105064
X061620Y075410
X062057Y093746
X062108Y101557
X062235Y107983
X063251Y072080
X064614Y089360
X065184Y090614
X065671Y110764
X065836Y086812
X066522Y116301
X066801Y106942
X066801Y105418
X066814Y110777
X066819Y089819
X066967Y086825
X067208Y078024
X067238Y072690
X067284Y069565
X067437Y068156
X067640Y096609
X067640Y092189
X067805Y116319
X067894Y110815
X067995Y086812
X068008Y102128
X068338Y077960
X068338Y069553
X068452Y072677
X068541Y092908
X068554Y096032
X068935Y110866
X068961Y116213
X069037Y086812
X069151Y102116
X069405Y077909
X069469Y069515
X069570Y095956
X069608Y092946
X069621Y072740
X070103Y116238
X070154Y110828
X070231Y102103
X070497Y077960
X070599Y070851
X070711Y068400
X071272Y110942
X071285Y102116
X071589Y077935
X071627Y095893
X071793Y116263
X071831Y093048
X071869Y072626
X071869Y069756
X072301Y110929
X072351Y102103
X072466Y086876
X072605Y095893
X072783Y077973
X072859Y116301
X072872Y093111
X072885Y069756
X072961Y072626
X073380Y110942
X073393Y105506
X073413Y106891
X073520Y102154
X073520Y086926
X073571Y095893
X073875Y116301
X073901Y093111
X073952Y069794
X073990Y077973
X074000Y065689
X074091Y072690
X074612Y095931
X074930Y116263
X074968Y093187
X075031Y069832
X075184Y072702
X075920Y110929
X077409Y095509
X078397Y115158
X078501Y076820
X078811Y104620
X078849Y116469
X078905Y085415
X078943Y083472
X079430Y099469
X079730Y084488
X079756Y089123
X079832Y115412
X079900Y069875
X079949Y102420
X079999Y097470
X080040Y104610
X080144Y079873
X080213Y096256
X080258Y076870
X080495Y070889
X080510Y077820
X080518Y116340
X080530Y109050
X080551Y108029
X080556Y090023
X080563Y088278
X080578Y106840
X080670Y068915
X081013Y115412
X081013Y114092
X081104Y095021
X081114Y110104
X081165Y071796
X081203Y090990
X081241Y076855
X081246Y075705
X081371Y096141
X081714Y088255
X081821Y068938
X082141Y107310
X082550Y117851
X085534Y084310
X086931Y084297
X088392Y065286
X090512Y098687
X090563Y078849
X091046Y064790
X091282Y114821
X091376Y093779
X091467Y074607
X091483Y095730
X091521Y112900
X091521Y076337
X092062Y119972
X092113Y104351
X092417Y103233
X092560Y118915
X092570Y084526
X092697Y112187
X092710Y073782
X092735Y093314
X093535Y073820
X093548Y112225
X093611Y093403
X093916Y102865
X094564Y119997
X095603Y091059
X095628Y071536
X095681Y110157
X096024Y101366
X096431Y119946
X096580Y064640
X097370Y083497
X098298Y119896
X098971Y084310
X099517Y118968
X099910Y100604
X100266Y117914
X100317Y105760
X100342Y099372
X100418Y082037
X100482Y085974
X100749Y070073
X101330Y067378
T04
X027558Y003848
X030099Y003848
X032637Y003848
X035178Y003848
X037718Y003848
X040258Y003848
X042798Y003848
X045339Y003848
X018257Y047757
X018257Y045217
X018719Y054927
X021259Y054927
X023799Y054927
X026339Y054927
X028879Y054927
X031419Y054927
X033959Y054927
X036499Y054927
X039039Y054927
X045339Y052108
X047878Y052108
X050419Y052108
X052958Y052108
X055499Y052108
X058038Y052108
X060578Y052108
X063118Y052108
X050419Y003848
X052958Y003848
X055499Y003848
X058038Y003848
X060578Y003848
X063118Y003848
X023495Y052108
X026035Y052108
X028575Y052108
X031115Y052108
X033654Y052108
X036194Y052108
X038735Y052108
X041274Y052108
X027571Y066860
X030111Y066860
X032651Y066860
X035191Y066860
X037731Y066860
X040271Y066860
X042811Y066860
X045351Y066860
X018270Y110769
X018270Y108229
X018732Y117940
X021272Y117940
X023812Y117940
X026352Y117940
X028892Y117940
X031432Y117940
X033972Y117940
X036512Y117940
X039052Y117940
X045351Y115120
X047891Y115120
X050431Y115120
X052971Y115120
X055511Y115120
X058051Y115120
X060591Y115120
X063131Y115120
X050431Y066860
X052971Y066860
X055511Y066860
X058051Y066860
X060591Y066860
X063131Y066860
X023507Y115120
X026047Y115120
X028587Y115120
X031127Y115120
X033667Y115120
X036207Y115120
X038747Y115120
X041287Y115120
T05
X052565Y017259
X052565Y014719
X052565Y012179
X055105Y017259
X055105Y014719
X055105Y012179
X063497Y023776
X063497Y021236
X063497Y018696
X063497Y016155
X063497Y013616
X056708Y023997
X056708Y021457
X059248Y023997
X059248Y021457
X049187Y054937
X051727Y054937
X054267Y054937
X052577Y080272
X052577Y077732
X052577Y075192
X055117Y080272
X055117Y077732
X055117Y075192
X063510Y086789
X063510Y084249
X063510Y081709
X063510Y079169
X063510Y076629
X056720Y087010
X056720Y084470
X059260Y087010
X059260Y084470
X049199Y117950
X051739Y117950
X054279Y117950
T06
X055486Y006596
X058026Y006596
X060566Y006596
X055498Y069609
X058039Y069609
X060578Y069609
T07
X028244Y025491
X028244Y021991
X028244Y018491
X098783Y034269
X098783Y031729
X098783Y029189
X098783Y026649
X098811Y052486
X098811Y049946
X098811Y047406
X098811Y044866
X098717Y015072
X098717Y012532
X098717Y009992
X098717Y007452
X028257Y088504
X028257Y085004
X028257Y081503
X098795Y097282
X098795Y094742
X098795Y092202
X098795Y089662
X098823Y115499
X098823Y112959
X098823Y110419
X098823Y107879
X098729Y078085
X098729Y075545
X098729Y073005
X098729Y070465
T08
X003682Y054521
X008684Y054521
X013682Y054521
X003695Y117533
X008696Y117533
X013695Y117533
M30