%MOIN*%
%OFA0B0*%
%FSLAX36Y36*%
%IPPOS*%
%LPD*%
%ADD10C,0*%
D10*
X001903128Y002346999D02*
X001903128Y002346999D01*
X000262225Y002346999D01*
X000259729Y002347079D01*
X000257244Y002347316D01*
X000254778Y002347710D01*
X000252342Y002348260D01*
X000249946Y002348963D01*
X000247599Y002349817D01*
X000245312Y002350818D01*
X000243092Y002351961D01*
X000240949Y002353244D01*
X000238892Y002354659D01*
X000236929Y002356202D01*
X000235067Y002357866D01*
X000233315Y002359645D01*
X000231679Y002361532D01*
X000230166Y002363518D01*
X000228781Y002365597D01*
X000227532Y002367759D01*
X000226422Y002369995D01*
X000225456Y002372298D01*
X000224638Y002374657D01*
X000207477Y002429732D01*
X000206546Y002433298D01*
X000205953Y002436936D01*
X000205703Y002440612D01*
X000205798Y002444297D01*
X000206236Y002447956D01*
X000207015Y002451558D01*
X000208128Y002455071D01*
X000209564Y002458465D01*
X000211311Y002461710D01*
X000213354Y002464778D01*
X000215674Y002467641D01*
X000218253Y002470274D01*
X000221066Y002472655D01*
X000224089Y002474762D01*
X000227297Y002476577D01*
X000230660Y002478085D01*
X000234149Y002479271D01*
X000237734Y002480126D01*
X000241383Y002480642D01*
X000245064Y002480814D01*
X001920289Y002480814D01*
X001923970Y002480642D01*
X001927620Y002480126D01*
X001931204Y002479271D01*
X001934694Y002478085D01*
X001938057Y002476577D01*
X001941264Y002474762D01*
X001944287Y002472655D01*
X001947101Y002470274D01*
X001949679Y002467641D01*
X001952000Y002464778D01*
X001954043Y002461710D01*
X001955790Y002458465D01*
X001957226Y002455071D01*
X001958338Y002451558D01*
X001959117Y002447956D01*
X001959556Y002444297D01*
X001959650Y002440612D01*
X001959400Y002436936D01*
X001958807Y002433298D01*
X001957877Y002429732D01*
X001940716Y002374657D01*
X001939898Y002372298D01*
X001938932Y002369995D01*
X001937822Y002367759D01*
X001936572Y002365597D01*
X001935188Y002363518D01*
X001933675Y002361532D01*
X001932039Y002359645D01*
X001930286Y002357866D01*
X001928425Y002356202D01*
X001926461Y002354659D01*
X001924404Y002353244D01*
X001922261Y002351961D01*
X001920042Y002350818D01*
X001917754Y002349817D01*
X001915407Y002348963D01*
X001913011Y002348260D01*
X001910575Y002347710D01*
X001908110Y002347316D01*
X001905624Y002347079D01*
X001903128Y002346999D01*
X002112619Y002346999D02*
X002112619Y002346999D01*
X002110123Y002347079D01*
X002107637Y002347316D01*
X002105172Y002347710D01*
X002102736Y002348260D01*
X002100340Y002348963D01*
X002097993Y002349817D01*
X002095705Y002350818D01*
X002093486Y002351961D01*
X002091343Y002353244D01*
X002089286Y002354659D01*
X002087322Y002356202D01*
X002085461Y002357866D01*
X002083708Y002359645D01*
X002082072Y002361532D01*
X002080559Y002363518D01*
X002079175Y002365597D01*
X002077926Y002367759D01*
X002076815Y002369995D01*
X002075849Y002372298D01*
X002075031Y002374657D01*
X002057870Y002429732D01*
X002056940Y002433298D01*
X002056347Y002436936D01*
X002056097Y002440612D01*
X002056191Y002444297D01*
X002056630Y002447956D01*
X002057409Y002451558D01*
X002058521Y002455071D01*
X002059957Y002458465D01*
X002061705Y002461710D01*
X002063747Y002464778D01*
X002066068Y002467641D01*
X002068646Y002470274D01*
X002071460Y002472655D01*
X002074483Y002474762D01*
X002077690Y002476577D01*
X002081053Y002478085D01*
X002084543Y002479271D01*
X002088127Y002480126D01*
X002091777Y002480642D01*
X002095458Y002480814D01*
X003810053Y002480814D01*
X003813734Y002480642D01*
X003817383Y002480126D01*
X003820968Y002479271D01*
X003824457Y002478085D01*
X003827820Y002476577D01*
X003831028Y002474762D01*
X003834051Y002472655D01*
X003836864Y002470274D01*
X003839443Y002467641D01*
X003841763Y002464778D01*
X003843806Y002461710D01*
X003845553Y002458465D01*
X003846989Y002455071D01*
X003848102Y002451558D01*
X003848881Y002447956D01*
X003849320Y002444297D01*
X003849414Y002440612D01*
X003849164Y002436936D01*
X003848571Y002433298D01*
X003847641Y002429732D01*
X003830479Y002374657D01*
X003829661Y002372298D01*
X003828695Y002369995D01*
X003827585Y002367759D01*
X003826336Y002365597D01*
X003824952Y002363518D01*
X003823438Y002361532D01*
X003821802Y002359645D01*
X003820050Y002357866D01*
X003818189Y002356202D01*
X003816225Y002354659D01*
X003814168Y002353244D01*
X003812025Y002351961D01*
X003809805Y002350818D01*
X003807518Y002349817D01*
X003805171Y002348963D01*
X003802775Y002348260D01*
X003800339Y002347710D01*
X003797873Y002347316D01*
X003795388Y002347079D01*
X003792892Y002346999D01*
X002112619Y002346999D01*
X000069895Y002480814D02*
X000069895Y002480814D01*
X000073577Y002480642D01*
X000077226Y002480126D01*
X000080811Y002479271D01*
X000084300Y002478085D01*
X000087663Y002476577D01*
X000090870Y002474762D01*
X000093894Y002472655D01*
X000096707Y002470274D01*
X000099285Y002467641D01*
X000101606Y002464778D01*
X000103649Y002461710D01*
X000105396Y002458465D01*
X000106832Y002455071D01*
X000107944Y002451558D01*
X000108723Y002447956D01*
X000109162Y002444297D01*
X000109257Y002440612D01*
X000109006Y002436936D01*
X000108414Y002433298D01*
X000107483Y002429732D01*
X000090322Y002374657D01*
X000089504Y002372298D01*
X000088538Y002369995D01*
X000087428Y002367759D01*
X000086178Y002365597D01*
X000084794Y002363518D01*
X000083281Y002361532D01*
X000081645Y002359645D01*
X000079893Y002357866D01*
X000078031Y002356202D01*
X000076068Y002354659D01*
X000074011Y002353244D01*
X000071868Y002351961D01*
X000069648Y002350818D01*
X000067360Y002349817D01*
X000065014Y002348963D01*
X000062618Y002348260D01*
X000060182Y002347710D01*
X000057716Y002347316D01*
X000055230Y002347079D01*
X000052734Y002346999D01*
X000000000Y002346999D01*
X000000000Y000000000D01*
X004058500Y000000000D01*
X004058500Y002346999D01*
X004002383Y002346999D01*
X003999887Y002347079D01*
X003997401Y002347316D01*
X003994935Y002347710D01*
X003992500Y002348260D01*
X003990104Y002348963D01*
X003987757Y002349817D01*
X003985469Y002350818D01*
X003983249Y002351961D01*
X003981107Y002353244D01*
X003979049Y002354659D01*
X003977086Y002356202D01*
X003975224Y002357866D01*
X003973472Y002359645D01*
X003971836Y002361532D01*
X003970323Y002363518D01*
X003968939Y002365597D01*
X003967689Y002367759D01*
X003966579Y002369995D01*
X003965613Y002372298D01*
X003964795Y002374657D01*
X003947634Y002429732D01*
X003946704Y002433298D01*
X003946111Y002436936D01*
X003945860Y002440612D01*
X003945955Y002444297D01*
X003946394Y002447956D01*
X003947173Y002451558D01*
X003948285Y002455071D01*
X003949721Y002458465D01*
X003951468Y002461710D01*
X003953511Y002464778D01*
X003955832Y002467641D01*
X003958410Y002470274D01*
X003961223Y002472655D01*
X003964247Y002474762D01*
X003967454Y002476577D01*
X003970817Y002478085D01*
X003974306Y002479271D01*
X003977891Y002480126D01*
X003981540Y002480642D01*
X003985222Y002480814D01*
X004059000Y002480814D01*
X004059000Y004827814D01*
X000000499Y004827814D01*
X000000499Y002480814D01*
X000069895Y002480814D01*
M02*