%MOIN*%
%OFA0B0*%
%FSLAX46Y46*%
%IPPOS*%
%LPD*%
%ADD10O,0.11874015748031497X0.059370078740157484*%
%ADD11O,0.059370078740157484X0.11874015748031497*%
%ADD12R,0.066929133858267723X0.066929133858267723*%
%ADD13O,0.066929133858267723X0.066929133858267723*%
%ADD14C,0.031496062992125991*%
%ADD15C,0.01*%
%ADD26O,0.11874015748031497X0.059370078740157484*%
%ADD27O,0.059370078740157484X0.11874015748031497*%
%ADD28R,0.066929133858267723X0.066929133858267723*%
%ADD29O,0.066929133858267723X0.066929133858267723*%
%ADD30C,0.031496062992125991*%
%ADD31C,0.01*%
%ADD32O,0.11874015748031497X0.059370078740157484*%
%ADD33O,0.059370078740157484X0.11874015748031497*%
%ADD34R,0.066929133858267723X0.066929133858267723*%
%ADD35O,0.066929133858267723X0.066929133858267723*%
%ADD36C,0.031496062992125991*%
%ADD37C,0.01*%
%ADD38O,0.11874015748031497X0.059370078740157484*%
%ADD39O,0.059370078740157484X0.11874015748031497*%
%ADD40R,0.066929133858267723X0.066929133858267723*%
%ADD41O,0.066929133858267723X0.066929133858267723*%
%ADD42C,0.031496062992125991*%
%ADD43C,0.01*%
%ADD44O,0.11874015748031497X0.059370078740157484*%
%ADD45O,0.059370078740157484X0.11874015748031497*%
%ADD46R,0.066929133858267723X0.066929133858267723*%
%ADD47O,0.066929133858267723X0.066929133858267723*%
%ADD48C,0.031496062992125991*%
%ADD49C,0.01*%
%ADD50O,0.11874015748031497X0.059370078740157484*%
%ADD51O,0.059370078740157484X0.11874015748031497*%
%ADD52R,0.066929133858267723X0.066929133858267723*%
%ADD53O,0.066929133858267723X0.066929133858267723*%
%ADD54C,0.031496062992125991*%
%ADD55C,0.01*%
%ADD56O,0.11874015748031497X0.059370078740157484*%
%ADD57O,0.059370078740157484X0.11874015748031497*%
%ADD58R,0.066929133858267723X0.066929133858267723*%
%ADD59O,0.066929133858267723X0.066929133858267723*%
%ADD60C,0.031496062992125991*%
%ADD61C,0.01*%
%ADD62O,0.11874015748031497X0.059370078740157484*%
%ADD63O,0.059370078740157484X0.11874015748031497*%
%ADD64R,0.066929133858267723X0.066929133858267723*%
%ADD65O,0.066929133858267723X0.066929133858267723*%
%ADD66C,0.031496062992125991*%
%ADD67C,0.01*%
%ADD68O,0.11874015748031497X0.059370078740157484*%
%ADD69O,0.059370078740157484X0.11874015748031497*%
%ADD70R,0.066929133858267723X0.066929133858267723*%
%ADD71O,0.066929133858267723X0.066929133858267723*%
%ADD72C,0.031496062992125991*%
%ADD73C,0.01*%
%ADD74O,0.11874015748031497X0.059370078740157484*%
%ADD75O,0.059370078740157484X0.11874015748031497*%
%ADD76R,0.066929133858267723X0.066929133858267723*%
%ADD77O,0.066929133858267723X0.066929133858267723*%
%ADD78C,0.031496062992125991*%
%ADD79C,0.01*%
D10*
X-0000482283Y0004960629D02*
X0001307874Y0000059842D03*
D11*
X0001429921Y0000099212D03*
X0001512598Y0000099212D03*
X0001174015Y0000099212D03*
X0001548031Y0000386614D03*
X0001162204Y0000386614D03*
D12*
X0000598818Y0000399212D03*
D13*
X0000698818Y0000399212D03*
X0000798818Y0000399212D03*
X0000898818Y0000399212D03*
X0000998818Y0000399212D03*
D14*
X0002407480Y0000117125D03*
X0001879921Y0000069881D03*
X0000744488Y0000181102D03*
X0002464566Y0000280511D03*
X0003410433Y0000364173D03*
X0003590157Y0000384645D03*
D15*
X0001098425Y0000322834D02*
X0001162204Y0000386614D01*
X0000935433Y0000322834D02*
X0001098425Y0000322834D01*
X0000898818Y0000359448D02*
X0000935433Y0000322834D01*
X0000898818Y0000399212D02*
X0000898818Y0000359448D01*
X0001472047Y0000386614D02*
X0001548031Y0000386614D01*
X0001431889Y0000426771D02*
X0001472047Y0000386614D01*
X0001239763Y0000426771D02*
X0001431889Y0000426771D01*
X0001199606Y0000386614D02*
X0001239763Y0000426771D01*
X0001162204Y0000386614D02*
X0001199606Y0000386614D01*
X0000744488Y0000181102D02*
X0000792716Y0000229330D01*
X0002413385Y0000229330D02*
X0002405511Y0000229330D01*
X0002464566Y0000280511D02*
X0002413385Y0000229330D01*
X0000792716Y0000229330D02*
X0002405511Y0000229330D01*
X0001390551Y0000059842D02*
X0001429921Y0000099212D01*
X0001307874Y0000059842D02*
X0001390551Y0000059842D01*
X0001307874Y0000123622D02*
X0001307874Y0000059842D01*
X0001248425Y0000183070D02*
X0001307874Y0000123622D01*
X0000831889Y0000183070D02*
X0001248425Y0000183070D01*
X0000784251Y0000135433D02*
X0000831889Y0000183070D01*
X0000716141Y0000135433D02*
X0000784251Y0000135433D01*
X0000598818Y0000252755D02*
X0000716141Y0000135433D01*
X0000598818Y0000399212D02*
X0000598818Y0000252755D01*
X0003229330Y0000183070D02*
X0003410433Y0000364173D01*
X0001448031Y0000183070D02*
X0003229330Y0000183070D01*
X0001429921Y0000164960D02*
X0001448031Y0000183070D01*
X0001429921Y0000099212D02*
X0001429921Y0000164960D01*
X0003564173Y0000410629D02*
X0003590157Y0000384645D01*
X0003563779Y0000410629D02*
X0003564173Y0000410629D01*
X0003560039Y0000414370D02*
X0003563779Y0000410629D01*
X0002377952Y0000414370D02*
X0003560039Y0000414370D01*
X0002238188Y0000274606D02*
X0002377952Y0000414370D01*
X0000698818Y0000356692D02*
X0000780905Y0000274606D01*
X0000780905Y0000274606D02*
X0002238188Y0000274606D01*
X0000698818Y0000399212D02*
X0000698818Y0000356692D01*
G36*
X0000520769Y0000365748D02*
G01*
X0000521626Y0000357049D01*
X0000524163Y0000348686D01*
X0000528283Y0000340978D01*
X0000533828Y0000334221D01*
X0000540584Y0000328677D01*
X0000548292Y0000324557D01*
X0000549448Y0000324206D01*
X0000549448Y0000255181D01*
X0000549209Y0000252755D01*
X0000550163Y0000243077D01*
X0000552986Y0000233771D01*
X0000557570Y0000225194D01*
X0000557732Y0000224997D01*
X0000563740Y0000217677D01*
X0000565624Y0000216130D01*
X0000679516Y0000102237D01*
X0000681062Y0000100354D01*
X0000688580Y0000094184D01*
X0000697157Y0000089600D01*
X0000706463Y0000086777D01*
X0000713716Y0000086062D01*
X0000713716Y0000086062D01*
X0000716141Y0000085824D01*
X0000718566Y0000086062D01*
X0000781826Y0000086062D01*
X0000784251Y0000085824D01*
X0000786677Y0000086062D01*
X0000793930Y0000086777D01*
X0000803236Y0000089600D01*
X0000811813Y0000094184D01*
X0000819330Y0000100354D01*
X0000820877Y0000102238D01*
X0000852339Y0000133700D01*
X0001227975Y0000133700D01*
X0001238876Y0000122799D01*
X0001236847Y0000121715D01*
X0001225570Y0000112460D01*
X0001216316Y0000101184D01*
X0001209439Y0000088319D01*
X0001205205Y0000074359D01*
X0001203775Y0000059842D01*
X0001205183Y0000045551D01*
X0000045551Y0000045551D01*
X0000045551Y0000246794D01*
X0000266653Y0000246794D01*
X0000266653Y0000225646D01*
X0000270779Y0000204904D01*
X0000278872Y0000185365D01*
X0000290622Y0000167781D01*
X0000305576Y0000152826D01*
X0000323160Y0000141077D01*
X0000342699Y0000132984D01*
X0000363441Y0000128858D01*
X0000384590Y0000128858D01*
X0000405332Y0000132984D01*
X0000424870Y0000141077D01*
X0000442455Y0000152826D01*
X0000457409Y0000167781D01*
X0000469158Y0000185365D01*
X0000477252Y0000204904D01*
X0000481377Y0000225646D01*
X0000481377Y0000246794D01*
X0000477252Y0000267536D01*
X0000469158Y0000287075D01*
X0000457409Y0000304659D01*
X0000442455Y0000319614D01*
X0000424870Y0000331363D01*
X0000405332Y0000339456D01*
X0000384590Y0000343582D01*
X0000363441Y0000343582D01*
X0000342699Y0000339456D01*
X0000323160Y0000331363D01*
X0000305576Y0000319614D01*
X0000290622Y0000304659D01*
X0000278872Y0000287075D01*
X0000270779Y0000267536D01*
X0000266653Y0000246794D01*
X0000045551Y0000246794D01*
X0000045551Y0000426889D01*
X0000520769Y0000426907D01*
X0000520769Y0000365748D01*
G37*
X0000520769Y0000365748D02*
X0000521626Y0000357049D01*
X0000524163Y0000348686D01*
X0000528283Y0000340978D01*
X0000533828Y0000334221D01*
X0000540584Y0000328677D01*
X0000548292Y0000324557D01*
X0000549448Y0000324206D01*
X0000549448Y0000255181D01*
X0000549209Y0000252755D01*
X0000550163Y0000243077D01*
X0000552986Y0000233771D01*
X0000557570Y0000225194D01*
X0000557732Y0000224997D01*
X0000563740Y0000217677D01*
X0000565624Y0000216130D01*
X0000679516Y0000102237D01*
X0000681062Y0000100354D01*
X0000688580Y0000094184D01*
X0000697157Y0000089600D01*
X0000706463Y0000086777D01*
X0000713716Y0000086062D01*
X0000713716Y0000086062D01*
X0000716141Y0000085824D01*
X0000718566Y0000086062D01*
X0000781826Y0000086062D01*
X0000784251Y0000085824D01*
X0000786677Y0000086062D01*
X0000793930Y0000086777D01*
X0000803236Y0000089600D01*
X0000811813Y0000094184D01*
X0000819330Y0000100354D01*
X0000820877Y0000102238D01*
X0000852339Y0000133700D01*
X0001227975Y0000133700D01*
X0001238876Y0000122799D01*
X0001236847Y0000121715D01*
X0001225570Y0000112460D01*
X0001216316Y0000101184D01*
X0001209439Y0000088319D01*
X0001205205Y0000074359D01*
X0001203775Y0000059842D01*
X0001205183Y0000045551D01*
X0000045551Y0000045551D01*
X0000045551Y0000246794D01*
X0000266653Y0000246794D01*
X0000266653Y0000225646D01*
X0000270779Y0000204904D01*
X0000278872Y0000185365D01*
X0000290622Y0000167781D01*
X0000305576Y0000152826D01*
X0000323160Y0000141077D01*
X0000342699Y0000132984D01*
X0000363441Y0000128858D01*
X0000384590Y0000128858D01*
X0000405332Y0000132984D01*
X0000424870Y0000141077D01*
X0000442455Y0000152826D01*
X0000457409Y0000167781D01*
X0000469158Y0000185365D01*
X0000477252Y0000204904D01*
X0000481377Y0000225646D01*
X0000481377Y0000246794D01*
X0000477252Y0000267536D01*
X0000469158Y0000287075D01*
X0000457409Y0000304659D01*
X0000442455Y0000319614D01*
X0000424870Y0000331363D01*
X0000405332Y0000339456D01*
X0000384590Y0000343582D01*
X0000363441Y0000343582D01*
X0000342699Y0000339456D01*
X0000323160Y0000331363D01*
X0000305576Y0000319614D01*
X0000290622Y0000304659D01*
X0000278872Y0000287075D01*
X0000270779Y0000267536D01*
X0000266653Y0000246794D01*
X0000045551Y0000246794D01*
X0000045551Y0000426889D01*
X0000520769Y0000426907D01*
X0000520769Y0000365748D01*
G36*
X0010682795Y0000045551D02*
G01*
X0001582712Y0000045551D01*
X0001585582Y0000055010D01*
X0001586653Y0000065889D01*
X0001586653Y0000132535D01*
X0001586538Y0000133700D01*
X0003226905Y0000133700D01*
X0003229330Y0000133461D01*
X0003231755Y0000133700D01*
X0003239008Y0000134415D01*
X0003248315Y0000137238D01*
X0003256891Y0000141822D01*
X0003264409Y0000147992D01*
X0003265955Y0000149876D01*
X0003362874Y0000246794D01*
X0005266653Y0000246794D01*
X0005266653Y0000225646D01*
X0005270779Y0000204904D01*
X0005278872Y0000185365D01*
X0005290622Y0000167781D01*
X0005305576Y0000152826D01*
X0005323160Y0000141077D01*
X0005342699Y0000132984D01*
X0005363441Y0000128858D01*
X0005384590Y0000128858D01*
X0005405332Y0000132984D01*
X0005424870Y0000141077D01*
X0005442455Y0000152826D01*
X0005457409Y0000167781D01*
X0005469158Y0000185365D01*
X0005477252Y0000204904D01*
X0005481377Y0000225646D01*
X0005481377Y0000246794D01*
X0010266653Y0000246794D01*
X0010266653Y0000225646D01*
X0010270779Y0000204904D01*
X0010278872Y0000185365D01*
X0010290622Y0000167781D01*
X0010305576Y0000152826D01*
X0010323160Y0000141077D01*
X0010342699Y0000132984D01*
X0010363441Y0000128858D01*
X0010384590Y0000128858D01*
X0010405332Y0000132984D01*
X0010424870Y0000141077D01*
X0010442455Y0000152826D01*
X0010457409Y0000167781D01*
X0010469158Y0000185365D01*
X0010477252Y0000204904D01*
X0010481377Y0000225646D01*
X0010481377Y0000246794D01*
X0010477252Y0000267536D01*
X0010469158Y0000287075D01*
X0010457409Y0000304659D01*
X0010442455Y0000319614D01*
X0010424870Y0000331363D01*
X0010405332Y0000339456D01*
X0010384590Y0000343582D01*
X0010363441Y0000343582D01*
X0010342699Y0000339456D01*
X0010323160Y0000331363D01*
X0010305576Y0000319614D01*
X0010290622Y0000304659D01*
X0010278872Y0000287075D01*
X0010270779Y0000267536D01*
X0010266653Y0000246794D01*
X0005481377Y0000246794D01*
X0005477252Y0000267536D01*
X0005469158Y0000287075D01*
X0005457409Y0000304659D01*
X0005442455Y0000319614D01*
X0005424870Y0000331363D01*
X0005405332Y0000339456D01*
X0005384590Y0000343582D01*
X0005363441Y0000343582D01*
X0005342699Y0000339456D01*
X0005323160Y0000331363D01*
X0005305576Y0000319614D01*
X0005290622Y0000304659D01*
X0005278872Y0000287075D01*
X0005270779Y0000267536D01*
X0005266653Y0000246794D01*
X0003362874Y0000246794D01*
X0003421073Y0000304993D01*
X0003427968Y0000306365D01*
X0003438909Y0000310897D01*
X0003448756Y0000317476D01*
X0003457129Y0000325850D01*
X0003463709Y0000335696D01*
X0003468240Y0000346637D01*
X0003470551Y0000358252D01*
X0003470551Y0000365000D01*
X0003533223Y0000365000D01*
X0003536881Y0000356169D01*
X0003543460Y0000346322D01*
X0003551834Y0000337948D01*
X0003561680Y0000331369D01*
X0003572621Y0000326837D01*
X0003584236Y0000324527D01*
X0003596078Y0000324527D01*
X0003607693Y0000326837D01*
X0003618634Y0000331369D01*
X0003628480Y0000337948D01*
X0003636854Y0000346322D01*
X0003643433Y0000356169D01*
X0003647965Y0000367109D01*
X0003650275Y0000378724D01*
X0003650275Y0000390566D01*
X0003647965Y0000402181D01*
X0003643433Y0000413122D01*
X0003636854Y0000422968D01*
X0003632800Y0000427022D01*
X0005364173Y0000427086D01*
X0010682795Y0000427086D01*
X0010682795Y0000045551D01*
G37*
X0010682795Y0000045551D02*
X0001582712Y0000045551D01*
X0001585582Y0000055010D01*
X0001586653Y0000065889D01*
X0001586653Y0000132535D01*
X0001586538Y0000133700D01*
X0003226905Y0000133700D01*
X0003229330Y0000133461D01*
X0003231755Y0000133700D01*
X0003239008Y0000134415D01*
X0003248315Y0000137238D01*
X0003256891Y0000141822D01*
X0003264409Y0000147992D01*
X0003265955Y0000149876D01*
X0003362874Y0000246794D01*
X0005266653Y0000246794D01*
X0005266653Y0000225646D01*
X0005270779Y0000204904D01*
X0005278872Y0000185365D01*
X0005290622Y0000167781D01*
X0005305576Y0000152826D01*
X0005323160Y0000141077D01*
X0005342699Y0000132984D01*
X0005363441Y0000128858D01*
X0005384590Y0000128858D01*
X0005405332Y0000132984D01*
X0005424870Y0000141077D01*
X0005442455Y0000152826D01*
X0005457409Y0000167781D01*
X0005469158Y0000185365D01*
X0005477252Y0000204904D01*
X0005481377Y0000225646D01*
X0005481377Y0000246794D01*
X0010266653Y0000246794D01*
X0010266653Y0000225646D01*
X0010270779Y0000204904D01*
X0010278872Y0000185365D01*
X0010290622Y0000167781D01*
X0010305576Y0000152826D01*
X0010323160Y0000141077D01*
X0010342699Y0000132984D01*
X0010363441Y0000128858D01*
X0010384590Y0000128858D01*
X0010405332Y0000132984D01*
X0010424870Y0000141077D01*
X0010442455Y0000152826D01*
X0010457409Y0000167781D01*
X0010469158Y0000185365D01*
X0010477252Y0000204904D01*
X0010481377Y0000225646D01*
X0010481377Y0000246794D01*
X0010477252Y0000267536D01*
X0010469158Y0000287075D01*
X0010457409Y0000304659D01*
X0010442455Y0000319614D01*
X0010424870Y0000331363D01*
X0010405332Y0000339456D01*
X0010384590Y0000343582D01*
X0010363441Y0000343582D01*
X0010342699Y0000339456D01*
X0010323160Y0000331363D01*
X0010305576Y0000319614D01*
X0010290622Y0000304659D01*
X0010278872Y0000287075D01*
X0010270779Y0000267536D01*
X0010266653Y0000246794D01*
X0005481377Y0000246794D01*
X0005477252Y0000267536D01*
X0005469158Y0000287075D01*
X0005457409Y0000304659D01*
X0005442455Y0000319614D01*
X0005424870Y0000331363D01*
X0005405332Y0000339456D01*
X0005384590Y0000343582D01*
X0005363441Y0000343582D01*
X0005342699Y0000339456D01*
X0005323160Y0000331363D01*
X0005305576Y0000319614D01*
X0005290622Y0000304659D01*
X0005278872Y0000287075D01*
X0005270779Y0000267536D01*
X0005266653Y0000246794D01*
X0003362874Y0000246794D01*
X0003421073Y0000304993D01*
X0003427968Y0000306365D01*
X0003438909Y0000310897D01*
X0003448756Y0000317476D01*
X0003457129Y0000325850D01*
X0003463709Y0000335696D01*
X0003468240Y0000346637D01*
X0003470551Y0000358252D01*
X0003470551Y0000365000D01*
X0003533223Y0000365000D01*
X0003536881Y0000356169D01*
X0003543460Y0000346322D01*
X0003551834Y0000337948D01*
X0003561680Y0000331369D01*
X0003572621Y0000326837D01*
X0003584236Y0000324527D01*
X0003596078Y0000324527D01*
X0003607693Y0000326837D01*
X0003618634Y0000331369D01*
X0003628480Y0000337948D01*
X0003636854Y0000346322D01*
X0003643433Y0000356169D01*
X0003647965Y0000367109D01*
X0003650275Y0000378724D01*
X0003650275Y0000390566D01*
X0003647965Y0000402181D01*
X0003643433Y0000413122D01*
X0003636854Y0000422968D01*
X0003632800Y0000427022D01*
X0005364173Y0000427086D01*
X0010682795Y0000427086D01*
X0010682795Y0000045551D01*
G36*
X0000923975Y0000421916D02*
G01*
X0000920984Y0000406878D01*
X0000920984Y0000391546D01*
X0000923975Y0000376509D01*
X0000929842Y0000362344D01*
X0000938360Y0000349595D01*
X0000949202Y0000338754D01*
X0000961950Y0000330236D01*
X0000976115Y0000324369D01*
X0000978089Y0000323976D01*
X0000819548Y0000323976D01*
X0000821522Y0000324369D01*
X0000835687Y0000330236D01*
X0000848435Y0000338754D01*
X0000859277Y0000349595D01*
X0000867795Y0000362344D01*
X0000873662Y0000376509D01*
X0000876653Y0000391546D01*
X0000876653Y0000406878D01*
X0000873662Y0000421916D01*
X0000871589Y0000426920D01*
X0000926049Y0000426922D01*
X0000923975Y0000421916D01*
G37*
X0000923975Y0000421916D02*
X0000920984Y0000406878D01*
X0000920984Y0000391546D01*
X0000923975Y0000376509D01*
X0000929842Y0000362344D01*
X0000938360Y0000349595D01*
X0000949202Y0000338754D01*
X0000961950Y0000330236D01*
X0000976115Y0000324369D01*
X0000978089Y0000323976D01*
X0000819548Y0000323976D01*
X0000821522Y0000324369D01*
X0000835687Y0000330236D01*
X0000848435Y0000338754D01*
X0000859277Y0000349595D01*
X0000867795Y0000362344D01*
X0000873662Y0000376509D01*
X0000876653Y0000391546D01*
X0000876653Y0000406878D01*
X0000873662Y0000421916D01*
X0000871589Y0000426920D01*
X0000926049Y0000426922D01*
X0000923975Y0000421916D01*
G36*
X0001249473Y0000418405D02*
G01*
X0001236712Y0000405644D01*
X0001226686Y0000390639D01*
X0001219780Y0000373966D01*
X0001216259Y0000356267D01*
X0001216259Y0000338220D01*
X0001219093Y0000323976D01*
X0001019548Y0000323976D01*
X0001021522Y0000324369D01*
X0001035687Y0000330236D01*
X0001048435Y0000338754D01*
X0001059277Y0000349595D01*
X0001067795Y0000362344D01*
X0001073662Y0000376509D01*
X0001076653Y0000391546D01*
X0001076653Y0000406878D01*
X0001073662Y0000421916D01*
X0001071586Y0000426927D01*
X0001262238Y0000426934D01*
X0001249473Y0000418405D01*
G37*
X0001249473Y0000418405D02*
X0001236712Y0000405644D01*
X0001226686Y0000390639D01*
X0001219780Y0000373966D01*
X0001216259Y0000356267D01*
X0001216259Y0000338220D01*
X0001219093Y0000323976D01*
X0001019548Y0000323976D01*
X0001021522Y0000324369D01*
X0001035687Y0000330236D01*
X0001048435Y0000338754D01*
X0001059277Y0000349595D01*
X0001067795Y0000362344D01*
X0001073662Y0000376509D01*
X0001076653Y0000391546D01*
X0001076653Y0000406878D01*
X0001073662Y0000421916D01*
X0001071586Y0000426927D01*
X0001262238Y0000426934D01*
X0001249473Y0000418405D01*
G36*
X0002217739Y0000323976D02*
G01*
X0001396654Y0000323976D01*
X0001399488Y0000338220D01*
X0001399488Y0000356267D01*
X0001395967Y0000373966D01*
X0001389061Y0000390639D01*
X0001379035Y0000405644D01*
X0001366274Y0000418405D01*
X0001353504Y0000426938D01*
X0002320736Y0000426974D01*
X0002217739Y0000323976D01*
G37*
X0002217739Y0000323976D02*
X0001396654Y0000323976D01*
X0001399488Y0000338220D01*
X0001399488Y0000356267D01*
X0001395967Y0000373966D01*
X0001389061Y0000390639D01*
X0001379035Y0000405644D01*
X0001366274Y0000418405D01*
X0001353504Y0000426938D01*
X0002320736Y0000426974D01*
X0002217739Y0000323976D01*
G04 next file*
G04 #@! TF.GenerationSoftware,KiCad,Pcbnew,(5.1.5-0)*
G04 #@! TF.CreationDate,2020-08-20T15:01:18-04:00*
G04 #@! TF.ProjectId,LEDIO,4c454449-4f2e-46b6-9963-61645f706362,rev?*
G04 #@! TF.SameCoordinates,Original*
G04 #@! TF.FileFunction,Copper,L2,Bot*
G04 #@! TF.FilePolarity,Positive*
G04 Gerber Fmt 4.6, Leading zero omitted, Abs format (unit mm)*
G04 Created by KiCad (PCBNEW (5.1.5-0)) date 2020-08-20 15:01:18*
G04 APERTURE LIST*
G04 APERTURE END LIST*
D26*
X-0000482283Y0005551181D02*
X0001307874Y0000650393D03*
D27*
X0001429921Y0000689763D03*
X0001512598Y0000689763D03*
X0001174015Y0000689763D03*
X0001548031Y0000977165D03*
X0001162204Y0000977165D03*
D28*
X0000598818Y0000989763D03*
D29*
X0000698818Y0000989763D03*
X0000798818Y0000989763D03*
X0000898818Y0000989763D03*
X0000998818Y0000989763D03*
D30*
X0002407480Y0000707677D03*
X0001879921Y0000660433D03*
X0000744488Y0000771653D03*
X0002464566Y0000871062D03*
X0003410433Y0000954724D03*
X0003590157Y0000975196D03*
D31*
X0001098425Y0000913385D02*
X0001162204Y0000977165D01*
X0000935433Y0000913385D02*
X0001098425Y0000913385D01*
X0000898818Y0000949999D02*
X0000935433Y0000913385D01*
X0000898818Y0000989763D02*
X0000898818Y0000949999D01*
X0001472047Y0000977165D02*
X0001548031Y0000977165D01*
X0001431889Y0001017322D02*
X0001472047Y0000977165D01*
X0001239763Y0001017322D02*
X0001431889Y0001017322D01*
X0001199606Y0000977165D02*
X0001239763Y0001017322D01*
X0001162204Y0000977165D02*
X0001199606Y0000977165D01*
X0000744488Y0000771653D02*
X0000792716Y0000819881D01*
X0002413385Y0000819881D02*
X0002405511Y0000819881D01*
X0002464566Y0000871062D02*
X0002413385Y0000819881D01*
X0000792716Y0000819881D02*
X0002405511Y0000819881D01*
X0001390551Y0000650393D02*
X0001429921Y0000689763D01*
X0001307874Y0000650393D02*
X0001390551Y0000650393D01*
X0001307874Y0000714173D02*
X0001307874Y0000650393D01*
X0001248425Y0000773622D02*
X0001307874Y0000714173D01*
X0000831889Y0000773622D02*
X0001248425Y0000773622D01*
X0000784251Y0000725984D02*
X0000831889Y0000773622D01*
X0000716141Y0000725984D02*
X0000784251Y0000725984D01*
X0000598818Y0000843307D02*
X0000716141Y0000725984D01*
X0000598818Y0000989763D02*
X0000598818Y0000843307D01*
X0003229330Y0000773622D02*
X0003410433Y0000954724D01*
X0001448031Y0000773622D02*
X0003229330Y0000773622D01*
X0001429921Y0000755511D02*
X0001448031Y0000773622D01*
X0001429921Y0000689763D02*
X0001429921Y0000755511D01*
X0003564173Y0001001181D02*
X0003590157Y0000975196D01*
X0003563779Y0001001181D02*
X0003564173Y0001001181D01*
X0003560039Y0001004921D02*
X0003563779Y0001001181D01*
X0002377952Y0001004921D02*
X0003560039Y0001004921D01*
X0002238188Y0000865157D02*
X0002377952Y0001004921D01*
X0000698818Y0000947244D02*
X0000780905Y0000865157D01*
X0000780905Y0000865157D02*
X0002238188Y0000865157D01*
X0000698818Y0000989763D02*
X0000698818Y0000947244D01*
G36*
X0000520769Y0000956299D02*
G01*
X0000521626Y0000947601D01*
X0000524163Y0000939237D01*
X0000528283Y0000931529D01*
X0000533828Y0000924772D01*
X0000540584Y0000919228D01*
X0000548292Y0000915108D01*
X0000549448Y0000914757D01*
X0000549448Y0000845732D01*
X0000549209Y0000843307D01*
X0000550163Y0000833628D01*
X0000552986Y0000824322D01*
X0000557570Y0000815745D01*
X0000557732Y0000815548D01*
X0000563740Y0000808228D01*
X0000565624Y0000806682D01*
X0000679516Y0000692789D01*
X0000681062Y0000690905D01*
X0000688580Y0000684735D01*
X0000697157Y0000680151D01*
X0000706463Y0000677328D01*
X0000713716Y0000676614D01*
X0000713716Y0000676614D01*
X0000716141Y0000676375D01*
X0000718566Y0000676614D01*
X0000781826Y0000676614D01*
X0000784251Y0000676375D01*
X0000786677Y0000676614D01*
X0000793930Y0000677328D01*
X0000803236Y0000680151D01*
X0000811813Y0000684735D01*
X0000819330Y0000690905D01*
X0000820877Y0000692789D01*
X0000852339Y0000724251D01*
X0001227975Y0000724251D01*
X0001238876Y0000713350D01*
X0001236847Y0000712266D01*
X0001225570Y0000703011D01*
X0001216316Y0000691735D01*
X0001209439Y0000678870D01*
X0001205205Y0000664911D01*
X0001203775Y0000650393D01*
X0001205183Y0000636102D01*
X0000045551Y0000636102D01*
X0000045551Y0000837345D01*
X0000266653Y0000837345D01*
X0000266653Y0000816197D01*
X0000270779Y0000795455D01*
X0000278872Y0000775916D01*
X0000290622Y0000758332D01*
X0000305576Y0000743377D01*
X0000323160Y0000731628D01*
X0000342699Y0000723535D01*
X0000363441Y0000719409D01*
X0000384590Y0000719409D01*
X0000405332Y0000723535D01*
X0000424870Y0000731628D01*
X0000442455Y0000743377D01*
X0000457409Y0000758332D01*
X0000469158Y0000775916D01*
X0000477252Y0000795455D01*
X0000481377Y0000816197D01*
X0000481377Y0000837345D01*
X0000477252Y0000858088D01*
X0000469158Y0000877626D01*
X0000457409Y0000895211D01*
X0000442455Y0000910165D01*
X0000424870Y0000921914D01*
X0000405332Y0000930007D01*
X0000384590Y0000934133D01*
X0000363441Y0000934133D01*
X0000342699Y0000930007D01*
X0000323160Y0000921914D01*
X0000305576Y0000910165D01*
X0000290622Y0000895211D01*
X0000278872Y0000877626D01*
X0000270779Y0000858088D01*
X0000266653Y0000837345D01*
X0000045551Y0000837345D01*
X0000045551Y0001017441D01*
X0000520769Y0001017458D01*
X0000520769Y0000956299D01*
G37*
X0000520769Y0000956299D02*
X0000521626Y0000947601D01*
X0000524163Y0000939237D01*
X0000528283Y0000931529D01*
X0000533828Y0000924772D01*
X0000540584Y0000919228D01*
X0000548292Y0000915108D01*
X0000549448Y0000914757D01*
X0000549448Y0000845732D01*
X0000549209Y0000843307D01*
X0000550163Y0000833628D01*
X0000552986Y0000824322D01*
X0000557570Y0000815745D01*
X0000557732Y0000815548D01*
X0000563740Y0000808228D01*
X0000565624Y0000806682D01*
X0000679516Y0000692789D01*
X0000681062Y0000690905D01*
X0000688580Y0000684735D01*
X0000697157Y0000680151D01*
X0000706463Y0000677328D01*
X0000713716Y0000676614D01*
X0000713716Y0000676614D01*
X0000716141Y0000676375D01*
X0000718566Y0000676614D01*
X0000781826Y0000676614D01*
X0000784251Y0000676375D01*
X0000786677Y0000676614D01*
X0000793930Y0000677328D01*
X0000803236Y0000680151D01*
X0000811813Y0000684735D01*
X0000819330Y0000690905D01*
X0000820877Y0000692789D01*
X0000852339Y0000724251D01*
X0001227975Y0000724251D01*
X0001238876Y0000713350D01*
X0001236847Y0000712266D01*
X0001225570Y0000703011D01*
X0001216316Y0000691735D01*
X0001209439Y0000678870D01*
X0001205205Y0000664911D01*
X0001203775Y0000650393D01*
X0001205183Y0000636102D01*
X0000045551Y0000636102D01*
X0000045551Y0000837345D01*
X0000266653Y0000837345D01*
X0000266653Y0000816197D01*
X0000270779Y0000795455D01*
X0000278872Y0000775916D01*
X0000290622Y0000758332D01*
X0000305576Y0000743377D01*
X0000323160Y0000731628D01*
X0000342699Y0000723535D01*
X0000363441Y0000719409D01*
X0000384590Y0000719409D01*
X0000405332Y0000723535D01*
X0000424870Y0000731628D01*
X0000442455Y0000743377D01*
X0000457409Y0000758332D01*
X0000469158Y0000775916D01*
X0000477252Y0000795455D01*
X0000481377Y0000816197D01*
X0000481377Y0000837345D01*
X0000477252Y0000858088D01*
X0000469158Y0000877626D01*
X0000457409Y0000895211D01*
X0000442455Y0000910165D01*
X0000424870Y0000921914D01*
X0000405332Y0000930007D01*
X0000384590Y0000934133D01*
X0000363441Y0000934133D01*
X0000342699Y0000930007D01*
X0000323160Y0000921914D01*
X0000305576Y0000910165D01*
X0000290622Y0000895211D01*
X0000278872Y0000877626D01*
X0000270779Y0000858088D01*
X0000266653Y0000837345D01*
X0000045551Y0000837345D01*
X0000045551Y0001017441D01*
X0000520769Y0001017458D01*
X0000520769Y0000956299D01*
G36*
X0010682795Y0000636102D02*
G01*
X0001582712Y0000636102D01*
X0001585582Y0000645561D01*
X0001586653Y0000656440D01*
X0001586653Y0000723086D01*
X0001586538Y0000724251D01*
X0003226905Y0000724251D01*
X0003229330Y0000724013D01*
X0003231755Y0000724251D01*
X0003239008Y0000724966D01*
X0003248315Y0000727789D01*
X0003256891Y0000732373D01*
X0003264409Y0000738543D01*
X0003265955Y0000740427D01*
X0003362874Y0000837345D01*
X0005266653Y0000837345D01*
X0005266653Y0000816197D01*
X0005270779Y0000795455D01*
X0005278872Y0000775916D01*
X0005290622Y0000758332D01*
X0005305576Y0000743377D01*
X0005323160Y0000731628D01*
X0005342699Y0000723535D01*
X0005363441Y0000719409D01*
X0005384590Y0000719409D01*
X0005405332Y0000723535D01*
X0005424870Y0000731628D01*
X0005442455Y0000743377D01*
X0005457409Y0000758332D01*
X0005469158Y0000775916D01*
X0005477252Y0000795455D01*
X0005481377Y0000816197D01*
X0005481377Y0000837345D01*
X0010266653Y0000837345D01*
X0010266653Y0000816197D01*
X0010270779Y0000795455D01*
X0010278872Y0000775916D01*
X0010290622Y0000758332D01*
X0010305576Y0000743377D01*
X0010323160Y0000731628D01*
X0010342699Y0000723535D01*
X0010363441Y0000719409D01*
X0010384590Y0000719409D01*
X0010405332Y0000723535D01*
X0010424870Y0000731628D01*
X0010442455Y0000743377D01*
X0010457409Y0000758332D01*
X0010469158Y0000775916D01*
X0010477252Y0000795455D01*
X0010481377Y0000816197D01*
X0010481377Y0000837345D01*
X0010477252Y0000858088D01*
X0010469158Y0000877626D01*
X0010457409Y0000895211D01*
X0010442455Y0000910165D01*
X0010424870Y0000921914D01*
X0010405332Y0000930007D01*
X0010384590Y0000934133D01*
X0010363441Y0000934133D01*
X0010342699Y0000930007D01*
X0010323160Y0000921914D01*
X0010305576Y0000910165D01*
X0010290622Y0000895211D01*
X0010278872Y0000877626D01*
X0010270779Y0000858088D01*
X0010266653Y0000837345D01*
X0005481377Y0000837345D01*
X0005477252Y0000858088D01*
X0005469158Y0000877626D01*
X0005457409Y0000895211D01*
X0005442455Y0000910165D01*
X0005424870Y0000921914D01*
X0005405332Y0000930007D01*
X0005384590Y0000934133D01*
X0005363441Y0000934133D01*
X0005342699Y0000930007D01*
X0005323160Y0000921914D01*
X0005305576Y0000910165D01*
X0005290622Y0000895211D01*
X0005278872Y0000877626D01*
X0005270779Y0000858088D01*
X0005266653Y0000837345D01*
X0003362874Y0000837345D01*
X0003421073Y0000895545D01*
X0003427968Y0000896916D01*
X0003438909Y0000901448D01*
X0003448756Y0000908027D01*
X0003457129Y0000916401D01*
X0003463709Y0000926247D01*
X0003468240Y0000937188D01*
X0003470551Y0000948803D01*
X0003470551Y0000955551D01*
X0003533223Y0000955551D01*
X0003536881Y0000946720D01*
X0003543460Y0000936873D01*
X0003551834Y0000928500D01*
X0003561680Y0000921920D01*
X0003572621Y0000917389D01*
X0003584236Y0000915078D01*
X0003596078Y0000915078D01*
X0003607693Y0000917389D01*
X0003618634Y0000921920D01*
X0003628480Y0000928500D01*
X0003636854Y0000936873D01*
X0003643433Y0000946720D01*
X0003647965Y0000957661D01*
X0003650275Y0000969275D01*
X0003650275Y0000981117D01*
X0003647965Y0000992732D01*
X0003643433Y0001003673D01*
X0003636854Y0001013519D01*
X0003632800Y0001017573D01*
X0005364173Y0001017637D01*
X0010682795Y0001017637D01*
X0010682795Y0000636102D01*
G37*
X0010682795Y0000636102D02*
X0001582712Y0000636102D01*
X0001585582Y0000645561D01*
X0001586653Y0000656440D01*
X0001586653Y0000723086D01*
X0001586538Y0000724251D01*
X0003226905Y0000724251D01*
X0003229330Y0000724013D01*
X0003231755Y0000724251D01*
X0003239008Y0000724966D01*
X0003248315Y0000727789D01*
X0003256891Y0000732373D01*
X0003264409Y0000738543D01*
X0003265955Y0000740427D01*
X0003362874Y0000837345D01*
X0005266653Y0000837345D01*
X0005266653Y0000816197D01*
X0005270779Y0000795455D01*
X0005278872Y0000775916D01*
X0005290622Y0000758332D01*
X0005305576Y0000743377D01*
X0005323160Y0000731628D01*
X0005342699Y0000723535D01*
X0005363441Y0000719409D01*
X0005384590Y0000719409D01*
X0005405332Y0000723535D01*
X0005424870Y0000731628D01*
X0005442455Y0000743377D01*
X0005457409Y0000758332D01*
X0005469158Y0000775916D01*
X0005477252Y0000795455D01*
X0005481377Y0000816197D01*
X0005481377Y0000837345D01*
X0010266653Y0000837345D01*
X0010266653Y0000816197D01*
X0010270779Y0000795455D01*
X0010278872Y0000775916D01*
X0010290622Y0000758332D01*
X0010305576Y0000743377D01*
X0010323160Y0000731628D01*
X0010342699Y0000723535D01*
X0010363441Y0000719409D01*
X0010384590Y0000719409D01*
X0010405332Y0000723535D01*
X0010424870Y0000731628D01*
X0010442455Y0000743377D01*
X0010457409Y0000758332D01*
X0010469158Y0000775916D01*
X0010477252Y0000795455D01*
X0010481377Y0000816197D01*
X0010481377Y0000837345D01*
X0010477252Y0000858088D01*
X0010469158Y0000877626D01*
X0010457409Y0000895211D01*
X0010442455Y0000910165D01*
X0010424870Y0000921914D01*
X0010405332Y0000930007D01*
X0010384590Y0000934133D01*
X0010363441Y0000934133D01*
X0010342699Y0000930007D01*
X0010323160Y0000921914D01*
X0010305576Y0000910165D01*
X0010290622Y0000895211D01*
X0010278872Y0000877626D01*
X0010270779Y0000858088D01*
X0010266653Y0000837345D01*
X0005481377Y0000837345D01*
X0005477252Y0000858088D01*
X0005469158Y0000877626D01*
X0005457409Y0000895211D01*
X0005442455Y0000910165D01*
X0005424870Y0000921914D01*
X0005405332Y0000930007D01*
X0005384590Y0000934133D01*
X0005363441Y0000934133D01*
X0005342699Y0000930007D01*
X0005323160Y0000921914D01*
X0005305576Y0000910165D01*
X0005290622Y0000895211D01*
X0005278872Y0000877626D01*
X0005270779Y0000858088D01*
X0005266653Y0000837345D01*
X0003362874Y0000837345D01*
X0003421073Y0000895545D01*
X0003427968Y0000896916D01*
X0003438909Y0000901448D01*
X0003448756Y0000908027D01*
X0003457129Y0000916401D01*
X0003463709Y0000926247D01*
X0003468240Y0000937188D01*
X0003470551Y0000948803D01*
X0003470551Y0000955551D01*
X0003533223Y0000955551D01*
X0003536881Y0000946720D01*
X0003543460Y0000936873D01*
X0003551834Y0000928500D01*
X0003561680Y0000921920D01*
X0003572621Y0000917389D01*
X0003584236Y0000915078D01*
X0003596078Y0000915078D01*
X0003607693Y0000917389D01*
X0003618634Y0000921920D01*
X0003628480Y0000928500D01*
X0003636854Y0000936873D01*
X0003643433Y0000946720D01*
X0003647965Y0000957661D01*
X0003650275Y0000969275D01*
X0003650275Y0000981117D01*
X0003647965Y0000992732D01*
X0003643433Y0001003673D01*
X0003636854Y0001013519D01*
X0003632800Y0001017573D01*
X0005364173Y0001017637D01*
X0010682795Y0001017637D01*
X0010682795Y0000636102D01*
G36*
X0000923975Y0001012467D02*
G01*
X0000920984Y0000997429D01*
X0000920984Y0000982097D01*
X0000923975Y0000967060D01*
X0000929842Y0000952895D01*
X0000938360Y0000940147D01*
X0000949202Y0000929305D01*
X0000961950Y0000920787D01*
X0000976115Y0000914920D01*
X0000978089Y0000914527D01*
X0000819548Y0000914527D01*
X0000821522Y0000914920D01*
X0000835687Y0000920787D01*
X0000848435Y0000929305D01*
X0000859277Y0000940147D01*
X0000867795Y0000952895D01*
X0000873662Y0000967060D01*
X0000876653Y0000982097D01*
X0000876653Y0000997429D01*
X0000873662Y0001012467D01*
X0000871589Y0001017471D01*
X0000926049Y0001017473D01*
X0000923975Y0001012467D01*
G37*
X0000923975Y0001012467D02*
X0000920984Y0000997429D01*
X0000920984Y0000982097D01*
X0000923975Y0000967060D01*
X0000929842Y0000952895D01*
X0000938360Y0000940147D01*
X0000949202Y0000929305D01*
X0000961950Y0000920787D01*
X0000976115Y0000914920D01*
X0000978089Y0000914527D01*
X0000819548Y0000914527D01*
X0000821522Y0000914920D01*
X0000835687Y0000920787D01*
X0000848435Y0000929305D01*
X0000859277Y0000940147D01*
X0000867795Y0000952895D01*
X0000873662Y0000967060D01*
X0000876653Y0000982097D01*
X0000876653Y0000997429D01*
X0000873662Y0001012467D01*
X0000871589Y0001017471D01*
X0000926049Y0001017473D01*
X0000923975Y0001012467D01*
G36*
X0001249473Y0001008956D02*
G01*
X0001236712Y0000996195D01*
X0001226686Y0000981190D01*
X0001219780Y0000964518D01*
X0001216259Y0000946818D01*
X0001216259Y0000928772D01*
X0001219093Y0000914527D01*
X0001019548Y0000914527D01*
X0001021522Y0000914920D01*
X0001035687Y0000920787D01*
X0001048435Y0000929305D01*
X0001059277Y0000940147D01*
X0001067795Y0000952895D01*
X0001073662Y0000967060D01*
X0001076653Y0000982097D01*
X0001076653Y0000997429D01*
X0001073662Y0001012467D01*
X0001071586Y0001017479D01*
X0001262238Y0001017486D01*
X0001249473Y0001008956D01*
G37*
X0001249473Y0001008956D02*
X0001236712Y0000996195D01*
X0001226686Y0000981190D01*
X0001219780Y0000964518D01*
X0001216259Y0000946818D01*
X0001216259Y0000928772D01*
X0001219093Y0000914527D01*
X0001019548Y0000914527D01*
X0001021522Y0000914920D01*
X0001035687Y0000920787D01*
X0001048435Y0000929305D01*
X0001059277Y0000940147D01*
X0001067795Y0000952895D01*
X0001073662Y0000967060D01*
X0001076653Y0000982097D01*
X0001076653Y0000997429D01*
X0001073662Y0001012467D01*
X0001071586Y0001017479D01*
X0001262238Y0001017486D01*
X0001249473Y0001008956D01*
G36*
X0002217739Y0000914527D02*
G01*
X0001396654Y0000914527D01*
X0001399488Y0000928772D01*
X0001399488Y0000946818D01*
X0001395967Y0000964518D01*
X0001389061Y0000981190D01*
X0001379035Y0000996195D01*
X0001366274Y0001008956D01*
X0001353504Y0001017489D01*
X0002320736Y0001017525D01*
X0002217739Y0000914527D01*
G37*
X0002217739Y0000914527D02*
X0001396654Y0000914527D01*
X0001399488Y0000928772D01*
X0001399488Y0000946818D01*
X0001395967Y0000964518D01*
X0001389061Y0000981190D01*
X0001379035Y0000996195D01*
X0001366274Y0001008956D01*
X0001353504Y0001017489D01*
X0002320736Y0001017525D01*
X0002217739Y0000914527D01*
G04 next file*
G04 #@! TF.GenerationSoftware,KiCad,Pcbnew,(5.1.5-0)*
G04 #@! TF.CreationDate,2020-08-20T15:01:18-04:00*
G04 #@! TF.ProjectId,LEDIO,4c454449-4f2e-46b6-9963-61645f706362,rev?*
G04 #@! TF.SameCoordinates,Original*
G04 #@! TF.FileFunction,Copper,L2,Bot*
G04 #@! TF.FilePolarity,Positive*
G04 Gerber Fmt 4.6, Leading zero omitted, Abs format (unit mm)*
G04 Created by KiCad (PCBNEW (5.1.5-0)) date 2020-08-20 15:01:18*
G04 APERTURE LIST*
G04 APERTURE END LIST*
D32*
X-0000482283Y0006141732D02*
X0001307874Y0001240944D03*
D33*
X0001429921Y0001280314D03*
X0001512598Y0001280314D03*
X0001174015Y0001280314D03*
X0001548031Y0001567716D03*
X0001162204Y0001567716D03*
D34*
X0000598818Y0001580314D03*
D35*
X0000698818Y0001580314D03*
X0000798818Y0001580314D03*
X0000898818Y0001580314D03*
X0000998818Y0001580314D03*
D36*
X0002407480Y0001298228D03*
X0001879921Y0001250984D03*
X0000744488Y0001362204D03*
X0002464566Y0001461614D03*
X0003410433Y0001545275D03*
X0003590157Y0001565747D03*
D37*
X0001098425Y0001503937D02*
X0001162204Y0001567716D01*
X0000935433Y0001503937D02*
X0001098425Y0001503937D01*
X0000898818Y0001540551D02*
X0000935433Y0001503937D01*
X0000898818Y0001580314D02*
X0000898818Y0001540551D01*
X0001472047Y0001567716D02*
X0001548031Y0001567716D01*
X0001431889Y0001607874D02*
X0001472047Y0001567716D01*
X0001239763Y0001607874D02*
X0001431889Y0001607874D01*
X0001199606Y0001567716D02*
X0001239763Y0001607874D01*
X0001162204Y0001567716D02*
X0001199606Y0001567716D01*
X0000744488Y0001362204D02*
X0000792716Y0001410433D01*
X0002413385Y0001410433D02*
X0002405511Y0001410433D01*
X0002464566Y0001461614D02*
X0002413385Y0001410433D01*
X0000792716Y0001410433D02*
X0002405511Y0001410433D01*
X0001390551Y0001240944D02*
X0001429921Y0001280314D01*
X0001307874Y0001240944D02*
X0001390551Y0001240944D01*
X0001307874Y0001304724D02*
X0001307874Y0001240944D01*
X0001248425Y0001364173D02*
X0001307874Y0001304724D01*
X0000831889Y0001364173D02*
X0001248425Y0001364173D01*
X0000784251Y0001316535D02*
X0000831889Y0001364173D01*
X0000716141Y0001316535D02*
X0000784251Y0001316535D01*
X0000598818Y0001433858D02*
X0000716141Y0001316535D01*
X0000598818Y0001580314D02*
X0000598818Y0001433858D01*
X0003229330Y0001364173D02*
X0003410433Y0001545275D01*
X0001448031Y0001364173D02*
X0003229330Y0001364173D01*
X0001429921Y0001346062D02*
X0001448031Y0001364173D01*
X0001429921Y0001280314D02*
X0001429921Y0001346062D01*
X0003564173Y0001591732D02*
X0003590157Y0001565747D01*
X0003563779Y0001591732D02*
X0003564173Y0001591732D01*
X0003560039Y0001595472D02*
X0003563779Y0001591732D01*
X0002377952Y0001595472D02*
X0003560039Y0001595472D01*
X0002238188Y0001455708D02*
X0002377952Y0001595472D01*
X0000698818Y0001537795D02*
X0000780905Y0001455708D01*
X0000780905Y0001455708D02*
X0002238188Y0001455708D01*
X0000698818Y0001580314D02*
X0000698818Y0001537795D01*
G36*
X0000520769Y0001546850D02*
G01*
X0000521626Y0001538152D01*
X0000524163Y0001529788D01*
X0000528283Y0001522080D01*
X0000533828Y0001515324D01*
X0000540584Y0001509779D01*
X0000548292Y0001505659D01*
X0000549448Y0001505308D01*
X0000549448Y0001436283D01*
X0000549209Y0001433858D01*
X0000550163Y0001424180D01*
X0000552986Y0001414873D01*
X0000557570Y0001406297D01*
X0000557732Y0001406099D01*
X0000563740Y0001398779D01*
X0000565624Y0001397233D01*
X0000679516Y0001283340D01*
X0000681062Y0001281456D01*
X0000688580Y0001275287D01*
X0000697157Y0001270702D01*
X0000706463Y0001267879D01*
X0000713716Y0001267165D01*
X0000713716Y0001267165D01*
X0000716141Y0001266926D01*
X0000718566Y0001267165D01*
X0000781826Y0001267165D01*
X0000784251Y0001266926D01*
X0000786677Y0001267165D01*
X0000793930Y0001267879D01*
X0000803236Y0001270702D01*
X0000811813Y0001275287D01*
X0000819330Y0001281456D01*
X0000820877Y0001283340D01*
X0000852339Y0001314803D01*
X0001227975Y0001314803D01*
X0001238876Y0001303902D01*
X0001236847Y0001302817D01*
X0001225570Y0001293563D01*
X0001216316Y0001282286D01*
X0001209439Y0001269421D01*
X0001205205Y0001255462D01*
X0001203775Y0001240944D01*
X0001205183Y0001226653D01*
X0000045551Y0001226653D01*
X0000045551Y0001427897D01*
X0000266653Y0001427897D01*
X0000266653Y0001406748D01*
X0000270779Y0001386006D01*
X0000278872Y0001366467D01*
X0000290622Y0001348883D01*
X0000305576Y0001333929D01*
X0000323160Y0001322179D01*
X0000342699Y0001314086D01*
X0000363441Y0001309960D01*
X0000384590Y0001309960D01*
X0000405332Y0001314086D01*
X0000424870Y0001322179D01*
X0000442455Y0001333929D01*
X0000457409Y0001348883D01*
X0000469158Y0001366467D01*
X0000477252Y0001386006D01*
X0000481377Y0001406748D01*
X0000481377Y0001427897D01*
X0000477252Y0001448639D01*
X0000469158Y0001468177D01*
X0000457409Y0001485762D01*
X0000442455Y0001500716D01*
X0000424870Y0001512465D01*
X0000405332Y0001520559D01*
X0000384590Y0001524685D01*
X0000363441Y0001524685D01*
X0000342699Y0001520559D01*
X0000323160Y0001512465D01*
X0000305576Y0001500716D01*
X0000290622Y0001485762D01*
X0000278872Y0001468177D01*
X0000270779Y0001448639D01*
X0000266653Y0001427897D01*
X0000045551Y0001427897D01*
X0000045551Y0001607992D01*
X0000520769Y0001608009D01*
X0000520769Y0001546850D01*
G37*
X0000520769Y0001546850D02*
X0000521626Y0001538152D01*
X0000524163Y0001529788D01*
X0000528283Y0001522080D01*
X0000533828Y0001515324D01*
X0000540584Y0001509779D01*
X0000548292Y0001505659D01*
X0000549448Y0001505308D01*
X0000549448Y0001436283D01*
X0000549209Y0001433858D01*
X0000550163Y0001424180D01*
X0000552986Y0001414873D01*
X0000557570Y0001406297D01*
X0000557732Y0001406099D01*
X0000563740Y0001398779D01*
X0000565624Y0001397233D01*
X0000679516Y0001283340D01*
X0000681062Y0001281456D01*
X0000688580Y0001275287D01*
X0000697157Y0001270702D01*
X0000706463Y0001267879D01*
X0000713716Y0001267165D01*
X0000713716Y0001267165D01*
X0000716141Y0001266926D01*
X0000718566Y0001267165D01*
X0000781826Y0001267165D01*
X0000784251Y0001266926D01*
X0000786677Y0001267165D01*
X0000793930Y0001267879D01*
X0000803236Y0001270702D01*
X0000811813Y0001275287D01*
X0000819330Y0001281456D01*
X0000820877Y0001283340D01*
X0000852339Y0001314803D01*
X0001227975Y0001314803D01*
X0001238876Y0001303902D01*
X0001236847Y0001302817D01*
X0001225570Y0001293563D01*
X0001216316Y0001282286D01*
X0001209439Y0001269421D01*
X0001205205Y0001255462D01*
X0001203775Y0001240944D01*
X0001205183Y0001226653D01*
X0000045551Y0001226653D01*
X0000045551Y0001427897D01*
X0000266653Y0001427897D01*
X0000266653Y0001406748D01*
X0000270779Y0001386006D01*
X0000278872Y0001366467D01*
X0000290622Y0001348883D01*
X0000305576Y0001333929D01*
X0000323160Y0001322179D01*
X0000342699Y0001314086D01*
X0000363441Y0001309960D01*
X0000384590Y0001309960D01*
X0000405332Y0001314086D01*
X0000424870Y0001322179D01*
X0000442455Y0001333929D01*
X0000457409Y0001348883D01*
X0000469158Y0001366467D01*
X0000477252Y0001386006D01*
X0000481377Y0001406748D01*
X0000481377Y0001427897D01*
X0000477252Y0001448639D01*
X0000469158Y0001468177D01*
X0000457409Y0001485762D01*
X0000442455Y0001500716D01*
X0000424870Y0001512465D01*
X0000405332Y0001520559D01*
X0000384590Y0001524685D01*
X0000363441Y0001524685D01*
X0000342699Y0001520559D01*
X0000323160Y0001512465D01*
X0000305576Y0001500716D01*
X0000290622Y0001485762D01*
X0000278872Y0001468177D01*
X0000270779Y0001448639D01*
X0000266653Y0001427897D01*
X0000045551Y0001427897D01*
X0000045551Y0001607992D01*
X0000520769Y0001608009D01*
X0000520769Y0001546850D01*
G36*
X0010682795Y0001226653D02*
G01*
X0001582712Y0001226653D01*
X0001585582Y0001236112D01*
X0001586653Y0001246992D01*
X0001586653Y0001313637D01*
X0001586538Y0001314803D01*
X0003226905Y0001314803D01*
X0003229330Y0001314564D01*
X0003231755Y0001314803D01*
X0003239008Y0001315517D01*
X0003248315Y0001318340D01*
X0003256891Y0001322924D01*
X0003264409Y0001329094D01*
X0003265955Y0001330978D01*
X0003362874Y0001427897D01*
X0005266653Y0001427897D01*
X0005266653Y0001406748D01*
X0005270779Y0001386006D01*
X0005278872Y0001366467D01*
X0005290622Y0001348883D01*
X0005305576Y0001333929D01*
X0005323160Y0001322179D01*
X0005342699Y0001314086D01*
X0005363441Y0001309960D01*
X0005384590Y0001309960D01*
X0005405332Y0001314086D01*
X0005424870Y0001322179D01*
X0005442455Y0001333929D01*
X0005457409Y0001348883D01*
X0005469158Y0001366467D01*
X0005477252Y0001386006D01*
X0005481377Y0001406748D01*
X0005481377Y0001427897D01*
X0010266653Y0001427897D01*
X0010266653Y0001406748D01*
X0010270779Y0001386006D01*
X0010278872Y0001366467D01*
X0010290622Y0001348883D01*
X0010305576Y0001333929D01*
X0010323160Y0001322179D01*
X0010342699Y0001314086D01*
X0010363441Y0001309960D01*
X0010384590Y0001309960D01*
X0010405332Y0001314086D01*
X0010424870Y0001322179D01*
X0010442455Y0001333929D01*
X0010457409Y0001348883D01*
X0010469158Y0001366467D01*
X0010477252Y0001386006D01*
X0010481377Y0001406748D01*
X0010481377Y0001427897D01*
X0010477252Y0001448639D01*
X0010469158Y0001468177D01*
X0010457409Y0001485762D01*
X0010442455Y0001500716D01*
X0010424870Y0001512465D01*
X0010405332Y0001520559D01*
X0010384590Y0001524685D01*
X0010363441Y0001524685D01*
X0010342699Y0001520559D01*
X0010323160Y0001512465D01*
X0010305576Y0001500716D01*
X0010290622Y0001485762D01*
X0010278872Y0001468177D01*
X0010270779Y0001448639D01*
X0010266653Y0001427897D01*
X0005481377Y0001427897D01*
X0005477252Y0001448639D01*
X0005469158Y0001468177D01*
X0005457409Y0001485762D01*
X0005442455Y0001500716D01*
X0005424870Y0001512465D01*
X0005405332Y0001520559D01*
X0005384590Y0001524685D01*
X0005363441Y0001524685D01*
X0005342699Y0001520559D01*
X0005323160Y0001512465D01*
X0005305576Y0001500716D01*
X0005290622Y0001485762D01*
X0005278872Y0001468177D01*
X0005270779Y0001448639D01*
X0005266653Y0001427897D01*
X0003362874Y0001427897D01*
X0003421073Y0001486096D01*
X0003427968Y0001487467D01*
X0003438909Y0001491999D01*
X0003448756Y0001498578D01*
X0003457129Y0001506952D01*
X0003463709Y0001516798D01*
X0003468240Y0001527739D01*
X0003470551Y0001539354D01*
X0003470551Y0001546102D01*
X0003533223Y0001546102D01*
X0003536881Y0001537271D01*
X0003543460Y0001527424D01*
X0003551834Y0001519051D01*
X0003561680Y0001512472D01*
X0003572621Y0001507940D01*
X0003584236Y0001505629D01*
X0003596078Y0001505629D01*
X0003607693Y0001507940D01*
X0003618634Y0001512472D01*
X0003628480Y0001519051D01*
X0003636854Y0001527424D01*
X0003643433Y0001537271D01*
X0003647965Y0001548212D01*
X0003650275Y0001559826D01*
X0003650275Y0001571669D01*
X0003647965Y0001583283D01*
X0003643433Y0001594224D01*
X0003636854Y0001604071D01*
X0003632800Y0001608124D01*
X0005364173Y0001608188D01*
X0010682795Y0001608188D01*
X0010682795Y0001226653D01*
G37*
X0010682795Y0001226653D02*
X0001582712Y0001226653D01*
X0001585582Y0001236112D01*
X0001586653Y0001246992D01*
X0001586653Y0001313637D01*
X0001586538Y0001314803D01*
X0003226905Y0001314803D01*
X0003229330Y0001314564D01*
X0003231755Y0001314803D01*
X0003239008Y0001315517D01*
X0003248315Y0001318340D01*
X0003256891Y0001322924D01*
X0003264409Y0001329094D01*
X0003265955Y0001330978D01*
X0003362874Y0001427897D01*
X0005266653Y0001427897D01*
X0005266653Y0001406748D01*
X0005270779Y0001386006D01*
X0005278872Y0001366467D01*
X0005290622Y0001348883D01*
X0005305576Y0001333929D01*
X0005323160Y0001322179D01*
X0005342699Y0001314086D01*
X0005363441Y0001309960D01*
X0005384590Y0001309960D01*
X0005405332Y0001314086D01*
X0005424870Y0001322179D01*
X0005442455Y0001333929D01*
X0005457409Y0001348883D01*
X0005469158Y0001366467D01*
X0005477252Y0001386006D01*
X0005481377Y0001406748D01*
X0005481377Y0001427897D01*
X0010266653Y0001427897D01*
X0010266653Y0001406748D01*
X0010270779Y0001386006D01*
X0010278872Y0001366467D01*
X0010290622Y0001348883D01*
X0010305576Y0001333929D01*
X0010323160Y0001322179D01*
X0010342699Y0001314086D01*
X0010363441Y0001309960D01*
X0010384590Y0001309960D01*
X0010405332Y0001314086D01*
X0010424870Y0001322179D01*
X0010442455Y0001333929D01*
X0010457409Y0001348883D01*
X0010469158Y0001366467D01*
X0010477252Y0001386006D01*
X0010481377Y0001406748D01*
X0010481377Y0001427897D01*
X0010477252Y0001448639D01*
X0010469158Y0001468177D01*
X0010457409Y0001485762D01*
X0010442455Y0001500716D01*
X0010424870Y0001512465D01*
X0010405332Y0001520559D01*
X0010384590Y0001524685D01*
X0010363441Y0001524685D01*
X0010342699Y0001520559D01*
X0010323160Y0001512465D01*
X0010305576Y0001500716D01*
X0010290622Y0001485762D01*
X0010278872Y0001468177D01*
X0010270779Y0001448639D01*
X0010266653Y0001427897D01*
X0005481377Y0001427897D01*
X0005477252Y0001448639D01*
X0005469158Y0001468177D01*
X0005457409Y0001485762D01*
X0005442455Y0001500716D01*
X0005424870Y0001512465D01*
X0005405332Y0001520559D01*
X0005384590Y0001524685D01*
X0005363441Y0001524685D01*
X0005342699Y0001520559D01*
X0005323160Y0001512465D01*
X0005305576Y0001500716D01*
X0005290622Y0001485762D01*
X0005278872Y0001468177D01*
X0005270779Y0001448639D01*
X0005266653Y0001427897D01*
X0003362874Y0001427897D01*
X0003421073Y0001486096D01*
X0003427968Y0001487467D01*
X0003438909Y0001491999D01*
X0003448756Y0001498578D01*
X0003457129Y0001506952D01*
X0003463709Y0001516798D01*
X0003468240Y0001527739D01*
X0003470551Y0001539354D01*
X0003470551Y0001546102D01*
X0003533223Y0001546102D01*
X0003536881Y0001537271D01*
X0003543460Y0001527424D01*
X0003551834Y0001519051D01*
X0003561680Y0001512472D01*
X0003572621Y0001507940D01*
X0003584236Y0001505629D01*
X0003596078Y0001505629D01*
X0003607693Y0001507940D01*
X0003618634Y0001512472D01*
X0003628480Y0001519051D01*
X0003636854Y0001527424D01*
X0003643433Y0001537271D01*
X0003647965Y0001548212D01*
X0003650275Y0001559826D01*
X0003650275Y0001571669D01*
X0003647965Y0001583283D01*
X0003643433Y0001594224D01*
X0003636854Y0001604071D01*
X0003632800Y0001608124D01*
X0005364173Y0001608188D01*
X0010682795Y0001608188D01*
X0010682795Y0001226653D01*
G36*
X0000923975Y0001603018D02*
G01*
X0000920984Y0001587980D01*
X0000920984Y0001572648D01*
X0000923975Y0001557611D01*
X0000929842Y0001543446D01*
X0000938360Y0001530698D01*
X0000949202Y0001519856D01*
X0000961950Y0001511338D01*
X0000976115Y0001505471D01*
X0000978089Y0001505078D01*
X0000819548Y0001505078D01*
X0000821522Y0001505471D01*
X0000835687Y0001511338D01*
X0000848435Y0001519856D01*
X0000859277Y0001530698D01*
X0000867795Y0001543446D01*
X0000873662Y0001557611D01*
X0000876653Y0001572648D01*
X0000876653Y0001587980D01*
X0000873662Y0001603018D01*
X0000871589Y0001608022D01*
X0000926049Y0001608024D01*
X0000923975Y0001603018D01*
G37*
X0000923975Y0001603018D02*
X0000920984Y0001587980D01*
X0000920984Y0001572648D01*
X0000923975Y0001557611D01*
X0000929842Y0001543446D01*
X0000938360Y0001530698D01*
X0000949202Y0001519856D01*
X0000961950Y0001511338D01*
X0000976115Y0001505471D01*
X0000978089Y0001505078D01*
X0000819548Y0001505078D01*
X0000821522Y0001505471D01*
X0000835687Y0001511338D01*
X0000848435Y0001519856D01*
X0000859277Y0001530698D01*
X0000867795Y0001543446D01*
X0000873662Y0001557611D01*
X0000876653Y0001572648D01*
X0000876653Y0001587980D01*
X0000873662Y0001603018D01*
X0000871589Y0001608022D01*
X0000926049Y0001608024D01*
X0000923975Y0001603018D01*
G36*
X0001249473Y0001599507D02*
G01*
X0001236712Y0001586747D01*
X0001226686Y0001571742D01*
X0001219780Y0001555069D01*
X0001216259Y0001537369D01*
X0001216259Y0001519323D01*
X0001219093Y0001505078D01*
X0001019548Y0001505078D01*
X0001021522Y0001505471D01*
X0001035687Y0001511338D01*
X0001048435Y0001519856D01*
X0001059277Y0001530698D01*
X0001067795Y0001543446D01*
X0001073662Y0001557611D01*
X0001076653Y0001572648D01*
X0001076653Y0001587980D01*
X0001073662Y0001603018D01*
X0001071586Y0001608030D01*
X0001262238Y0001608037D01*
X0001249473Y0001599507D01*
G37*
X0001249473Y0001599507D02*
X0001236712Y0001586747D01*
X0001226686Y0001571742D01*
X0001219780Y0001555069D01*
X0001216259Y0001537369D01*
X0001216259Y0001519323D01*
X0001219093Y0001505078D01*
X0001019548Y0001505078D01*
X0001021522Y0001505471D01*
X0001035687Y0001511338D01*
X0001048435Y0001519856D01*
X0001059277Y0001530698D01*
X0001067795Y0001543446D01*
X0001073662Y0001557611D01*
X0001076653Y0001572648D01*
X0001076653Y0001587980D01*
X0001073662Y0001603018D01*
X0001071586Y0001608030D01*
X0001262238Y0001608037D01*
X0001249473Y0001599507D01*
G36*
X0002217739Y0001505078D02*
G01*
X0001396654Y0001505078D01*
X0001399488Y0001519323D01*
X0001399488Y0001537369D01*
X0001395967Y0001555069D01*
X0001389061Y0001571742D01*
X0001379035Y0001586747D01*
X0001366274Y0001599507D01*
X0001353504Y0001608040D01*
X0002320736Y0001608076D01*
X0002217739Y0001505078D01*
G37*
X0002217739Y0001505078D02*
X0001396654Y0001505078D01*
X0001399488Y0001519323D01*
X0001399488Y0001537369D01*
X0001395967Y0001555069D01*
X0001389061Y0001571742D01*
X0001379035Y0001586747D01*
X0001366274Y0001599507D01*
X0001353504Y0001608040D01*
X0002320736Y0001608076D01*
X0002217739Y0001505078D01*
G04 next file*
G04 #@! TF.GenerationSoftware,KiCad,Pcbnew,(5.1.5-0)*
G04 #@! TF.CreationDate,2020-08-20T15:01:18-04:00*
G04 #@! TF.ProjectId,LEDIO,4c454449-4f2e-46b6-9963-61645f706362,rev?*
G04 #@! TF.SameCoordinates,Original*
G04 #@! TF.FileFunction,Copper,L2,Bot*
G04 #@! TF.FilePolarity,Positive*
G04 Gerber Fmt 4.6, Leading zero omitted, Abs format (unit mm)*
G04 Created by KiCad (PCBNEW (5.1.5-0)) date 2020-08-20 15:01:18*
G04 APERTURE LIST*
G04 APERTURE END LIST*
D38*
X-0000482283Y0006732283D02*
X0001307874Y0001831496D03*
D39*
X0001429921Y0001870866D03*
X0001512598Y0001870866D03*
X0001174015Y0001870866D03*
X0001548031Y0002158267D03*
X0001162204Y0002158267D03*
D40*
X0000598818Y0002170866D03*
D41*
X0000698818Y0002170866D03*
X0000798818Y0002170866D03*
X0000898818Y0002170866D03*
X0000998818Y0002170866D03*
D42*
X0002407480Y0001888779D03*
X0001879921Y0001841535D03*
X0000744488Y0001952755D03*
X0002464566Y0002052165D03*
X0003410433Y0002135826D03*
X0003590157Y0002156299D03*
D43*
X0001098425Y0002094488D02*
X0001162204Y0002158267D01*
X0000935433Y0002094488D02*
X0001098425Y0002094488D01*
X0000898818Y0002131102D02*
X0000935433Y0002094488D01*
X0000898818Y0002170866D02*
X0000898818Y0002131102D01*
X0001472047Y0002158267D02*
X0001548031Y0002158267D01*
X0001431889Y0002198425D02*
X0001472047Y0002158267D01*
X0001239763Y0002198425D02*
X0001431889Y0002198425D01*
X0001199606Y0002158267D02*
X0001239763Y0002198425D01*
X0001162204Y0002158267D02*
X0001199606Y0002158267D01*
X0000744488Y0001952755D02*
X0000792716Y0002000984D01*
X0002413385Y0002000984D02*
X0002405511Y0002000984D01*
X0002464566Y0002052165D02*
X0002413385Y0002000984D01*
X0000792716Y0002000984D02*
X0002405511Y0002000984D01*
X0001390551Y0001831496D02*
X0001429921Y0001870866D01*
X0001307874Y0001831496D02*
X0001390551Y0001831496D01*
X0001307874Y0001895275D02*
X0001307874Y0001831496D01*
X0001248425Y0001954724D02*
X0001307874Y0001895275D01*
X0000831889Y0001954724D02*
X0001248425Y0001954724D01*
X0000784251Y0001907086D02*
X0000831889Y0001954724D01*
X0000716141Y0001907086D02*
X0000784251Y0001907086D01*
X0000598818Y0002024409D02*
X0000716141Y0001907086D01*
X0000598818Y0002170866D02*
X0000598818Y0002024409D01*
X0003229330Y0001954724D02*
X0003410433Y0002135826D01*
X0001448031Y0001954724D02*
X0003229330Y0001954724D01*
X0001429921Y0001936614D02*
X0001448031Y0001954724D01*
X0001429921Y0001870866D02*
X0001429921Y0001936614D01*
X0003564173Y0002182283D02*
X0003590157Y0002156299D01*
X0003563779Y0002182283D02*
X0003564173Y0002182283D01*
X0003560039Y0002186023D02*
X0003563779Y0002182283D01*
X0002377952Y0002186023D02*
X0003560039Y0002186023D01*
X0002238188Y0002046259D02*
X0002377952Y0002186023D01*
X0000698818Y0002128346D02*
X0000780905Y0002046259D01*
X0000780905Y0002046259D02*
X0002238188Y0002046259D01*
X0000698818Y0002170866D02*
X0000698818Y0002128346D01*
G36*
X0000520769Y0002137401D02*
G01*
X0000521626Y0002128703D01*
X0000524163Y0002120339D01*
X0000528283Y0002112631D01*
X0000533828Y0002105875D01*
X0000540584Y0002100330D01*
X0000548292Y0002096210D01*
X0000549448Y0002095859D01*
X0000549448Y0002026834D01*
X0000549209Y0002024409D01*
X0000550163Y0002014731D01*
X0000552986Y0002005424D01*
X0000557570Y0001996848D01*
X0000557732Y0001996650D01*
X0000563740Y0001989330D01*
X0000565624Y0001987784D01*
X0000679516Y0001873891D01*
X0000681062Y0001872007D01*
X0000688580Y0001865838D01*
X0000697157Y0001861253D01*
X0000706463Y0001858430D01*
X0000713716Y0001857716D01*
X0000713716Y0001857716D01*
X0000716141Y0001857477D01*
X0000718566Y0001857716D01*
X0000781826Y0001857716D01*
X0000784251Y0001857477D01*
X0000786677Y0001857716D01*
X0000793930Y0001858430D01*
X0000803236Y0001861253D01*
X0000811813Y0001865838D01*
X0000819330Y0001872007D01*
X0000820877Y0001873891D01*
X0000852339Y0001905354D01*
X0001227975Y0001905354D01*
X0001238876Y0001894453D01*
X0001236847Y0001893368D01*
X0001225570Y0001884114D01*
X0001216316Y0001872837D01*
X0001209439Y0001859972D01*
X0001205205Y0001846013D01*
X0001203775Y0001831496D01*
X0001205183Y0001817204D01*
X0000045551Y0001817204D01*
X0000045551Y0002018448D01*
X0000266653Y0002018448D01*
X0000266653Y0001997299D01*
X0000270779Y0001976557D01*
X0000278872Y0001957018D01*
X0000290622Y0001939434D01*
X0000305576Y0001924480D01*
X0000323160Y0001912730D01*
X0000342699Y0001904637D01*
X0000363441Y0001900511D01*
X0000384590Y0001900511D01*
X0000405332Y0001904637D01*
X0000424870Y0001912730D01*
X0000442455Y0001924480D01*
X0000457409Y0001939434D01*
X0000469158Y0001957018D01*
X0000477252Y0001976557D01*
X0000481377Y0001997299D01*
X0000481377Y0002018448D01*
X0000477252Y0002039190D01*
X0000469158Y0002058729D01*
X0000457409Y0002076313D01*
X0000442455Y0002091267D01*
X0000424870Y0002103017D01*
X0000405332Y0002111110D01*
X0000384590Y0002115236D01*
X0000363441Y0002115236D01*
X0000342699Y0002111110D01*
X0000323160Y0002103017D01*
X0000305576Y0002091267D01*
X0000290622Y0002076313D01*
X0000278872Y0002058729D01*
X0000270779Y0002039190D01*
X0000266653Y0002018448D01*
X0000045551Y0002018448D01*
X0000045551Y0002198543D01*
X0000520769Y0002198561D01*
X0000520769Y0002137401D01*
G37*
X0000520769Y0002137401D02*
X0000521626Y0002128703D01*
X0000524163Y0002120339D01*
X0000528283Y0002112631D01*
X0000533828Y0002105875D01*
X0000540584Y0002100330D01*
X0000548292Y0002096210D01*
X0000549448Y0002095859D01*
X0000549448Y0002026834D01*
X0000549209Y0002024409D01*
X0000550163Y0002014731D01*
X0000552986Y0002005424D01*
X0000557570Y0001996848D01*
X0000557732Y0001996650D01*
X0000563740Y0001989330D01*
X0000565624Y0001987784D01*
X0000679516Y0001873891D01*
X0000681062Y0001872007D01*
X0000688580Y0001865838D01*
X0000697157Y0001861253D01*
X0000706463Y0001858430D01*
X0000713716Y0001857716D01*
X0000713716Y0001857716D01*
X0000716141Y0001857477D01*
X0000718566Y0001857716D01*
X0000781826Y0001857716D01*
X0000784251Y0001857477D01*
X0000786677Y0001857716D01*
X0000793930Y0001858430D01*
X0000803236Y0001861253D01*
X0000811813Y0001865838D01*
X0000819330Y0001872007D01*
X0000820877Y0001873891D01*
X0000852339Y0001905354D01*
X0001227975Y0001905354D01*
X0001238876Y0001894453D01*
X0001236847Y0001893368D01*
X0001225570Y0001884114D01*
X0001216316Y0001872837D01*
X0001209439Y0001859972D01*
X0001205205Y0001846013D01*
X0001203775Y0001831496D01*
X0001205183Y0001817204D01*
X0000045551Y0001817204D01*
X0000045551Y0002018448D01*
X0000266653Y0002018448D01*
X0000266653Y0001997299D01*
X0000270779Y0001976557D01*
X0000278872Y0001957018D01*
X0000290622Y0001939434D01*
X0000305576Y0001924480D01*
X0000323160Y0001912730D01*
X0000342699Y0001904637D01*
X0000363441Y0001900511D01*
X0000384590Y0001900511D01*
X0000405332Y0001904637D01*
X0000424870Y0001912730D01*
X0000442455Y0001924480D01*
X0000457409Y0001939434D01*
X0000469158Y0001957018D01*
X0000477252Y0001976557D01*
X0000481377Y0001997299D01*
X0000481377Y0002018448D01*
X0000477252Y0002039190D01*
X0000469158Y0002058729D01*
X0000457409Y0002076313D01*
X0000442455Y0002091267D01*
X0000424870Y0002103017D01*
X0000405332Y0002111110D01*
X0000384590Y0002115236D01*
X0000363441Y0002115236D01*
X0000342699Y0002111110D01*
X0000323160Y0002103017D01*
X0000305576Y0002091267D01*
X0000290622Y0002076313D01*
X0000278872Y0002058729D01*
X0000270779Y0002039190D01*
X0000266653Y0002018448D01*
X0000045551Y0002018448D01*
X0000045551Y0002198543D01*
X0000520769Y0002198561D01*
X0000520769Y0002137401D01*
G36*
X0010682795Y0001817204D02*
G01*
X0001582712Y0001817204D01*
X0001585582Y0001826663D01*
X0001586653Y0001837543D01*
X0001586653Y0001904189D01*
X0001586538Y0001905354D01*
X0003226905Y0001905354D01*
X0003229330Y0001905115D01*
X0003231755Y0001905354D01*
X0003239008Y0001906068D01*
X0003248315Y0001908891D01*
X0003256891Y0001913476D01*
X0003264409Y0001919645D01*
X0003265955Y0001921529D01*
X0003362874Y0002018448D01*
X0005266653Y0002018448D01*
X0005266653Y0001997299D01*
X0005270779Y0001976557D01*
X0005278872Y0001957018D01*
X0005290622Y0001939434D01*
X0005305576Y0001924480D01*
X0005323160Y0001912730D01*
X0005342699Y0001904637D01*
X0005363441Y0001900511D01*
X0005384590Y0001900511D01*
X0005405332Y0001904637D01*
X0005424870Y0001912730D01*
X0005442455Y0001924480D01*
X0005457409Y0001939434D01*
X0005469158Y0001957018D01*
X0005477252Y0001976557D01*
X0005481377Y0001997299D01*
X0005481377Y0002018448D01*
X0010266653Y0002018448D01*
X0010266653Y0001997299D01*
X0010270779Y0001976557D01*
X0010278872Y0001957018D01*
X0010290622Y0001939434D01*
X0010305576Y0001924480D01*
X0010323160Y0001912730D01*
X0010342699Y0001904637D01*
X0010363441Y0001900511D01*
X0010384590Y0001900511D01*
X0010405332Y0001904637D01*
X0010424870Y0001912730D01*
X0010442455Y0001924480D01*
X0010457409Y0001939434D01*
X0010469158Y0001957018D01*
X0010477252Y0001976557D01*
X0010481377Y0001997299D01*
X0010481377Y0002018448D01*
X0010477252Y0002039190D01*
X0010469158Y0002058729D01*
X0010457409Y0002076313D01*
X0010442455Y0002091267D01*
X0010424870Y0002103017D01*
X0010405332Y0002111110D01*
X0010384590Y0002115236D01*
X0010363441Y0002115236D01*
X0010342699Y0002111110D01*
X0010323160Y0002103017D01*
X0010305576Y0002091267D01*
X0010290622Y0002076313D01*
X0010278872Y0002058729D01*
X0010270779Y0002039190D01*
X0010266653Y0002018448D01*
X0005481377Y0002018448D01*
X0005477252Y0002039190D01*
X0005469158Y0002058729D01*
X0005457409Y0002076313D01*
X0005442455Y0002091267D01*
X0005424870Y0002103017D01*
X0005405332Y0002111110D01*
X0005384590Y0002115236D01*
X0005363441Y0002115236D01*
X0005342699Y0002111110D01*
X0005323160Y0002103017D01*
X0005305576Y0002091267D01*
X0005290622Y0002076313D01*
X0005278872Y0002058729D01*
X0005270779Y0002039190D01*
X0005266653Y0002018448D01*
X0003362874Y0002018448D01*
X0003421073Y0002076647D01*
X0003427968Y0002078018D01*
X0003438909Y0002082550D01*
X0003448756Y0002089129D01*
X0003457129Y0002097503D01*
X0003463709Y0002107350D01*
X0003468240Y0002118290D01*
X0003470551Y0002129905D01*
X0003470551Y0002136653D01*
X0003533223Y0002136653D01*
X0003536881Y0002127822D01*
X0003543460Y0002117976D01*
X0003551834Y0002109602D01*
X0003561680Y0002103023D01*
X0003572621Y0002098491D01*
X0003584236Y0002096181D01*
X0003596078Y0002096181D01*
X0003607693Y0002098491D01*
X0003618634Y0002103023D01*
X0003628480Y0002109602D01*
X0003636854Y0002117976D01*
X0003643433Y0002127822D01*
X0003647965Y0002138763D01*
X0003650275Y0002150378D01*
X0003650275Y0002162220D01*
X0003647965Y0002173835D01*
X0003643433Y0002184775D01*
X0003636854Y0002194622D01*
X0003632800Y0002198676D01*
X0005364173Y0002198740D01*
X0010682795Y0002198740D01*
X0010682795Y0001817204D01*
G37*
X0010682795Y0001817204D02*
X0001582712Y0001817204D01*
X0001585582Y0001826663D01*
X0001586653Y0001837543D01*
X0001586653Y0001904189D01*
X0001586538Y0001905354D01*
X0003226905Y0001905354D01*
X0003229330Y0001905115D01*
X0003231755Y0001905354D01*
X0003239008Y0001906068D01*
X0003248315Y0001908891D01*
X0003256891Y0001913476D01*
X0003264409Y0001919645D01*
X0003265955Y0001921529D01*
X0003362874Y0002018448D01*
X0005266653Y0002018448D01*
X0005266653Y0001997299D01*
X0005270779Y0001976557D01*
X0005278872Y0001957018D01*
X0005290622Y0001939434D01*
X0005305576Y0001924480D01*
X0005323160Y0001912730D01*
X0005342699Y0001904637D01*
X0005363441Y0001900511D01*
X0005384590Y0001900511D01*
X0005405332Y0001904637D01*
X0005424870Y0001912730D01*
X0005442455Y0001924480D01*
X0005457409Y0001939434D01*
X0005469158Y0001957018D01*
X0005477252Y0001976557D01*
X0005481377Y0001997299D01*
X0005481377Y0002018448D01*
X0010266653Y0002018448D01*
X0010266653Y0001997299D01*
X0010270779Y0001976557D01*
X0010278872Y0001957018D01*
X0010290622Y0001939434D01*
X0010305576Y0001924480D01*
X0010323160Y0001912730D01*
X0010342699Y0001904637D01*
X0010363441Y0001900511D01*
X0010384590Y0001900511D01*
X0010405332Y0001904637D01*
X0010424870Y0001912730D01*
X0010442455Y0001924480D01*
X0010457409Y0001939434D01*
X0010469158Y0001957018D01*
X0010477252Y0001976557D01*
X0010481377Y0001997299D01*
X0010481377Y0002018448D01*
X0010477252Y0002039190D01*
X0010469158Y0002058729D01*
X0010457409Y0002076313D01*
X0010442455Y0002091267D01*
X0010424870Y0002103017D01*
X0010405332Y0002111110D01*
X0010384590Y0002115236D01*
X0010363441Y0002115236D01*
X0010342699Y0002111110D01*
X0010323160Y0002103017D01*
X0010305576Y0002091267D01*
X0010290622Y0002076313D01*
X0010278872Y0002058729D01*
X0010270779Y0002039190D01*
X0010266653Y0002018448D01*
X0005481377Y0002018448D01*
X0005477252Y0002039190D01*
X0005469158Y0002058729D01*
X0005457409Y0002076313D01*
X0005442455Y0002091267D01*
X0005424870Y0002103017D01*
X0005405332Y0002111110D01*
X0005384590Y0002115236D01*
X0005363441Y0002115236D01*
X0005342699Y0002111110D01*
X0005323160Y0002103017D01*
X0005305576Y0002091267D01*
X0005290622Y0002076313D01*
X0005278872Y0002058729D01*
X0005270779Y0002039190D01*
X0005266653Y0002018448D01*
X0003362874Y0002018448D01*
X0003421073Y0002076647D01*
X0003427968Y0002078018D01*
X0003438909Y0002082550D01*
X0003448756Y0002089129D01*
X0003457129Y0002097503D01*
X0003463709Y0002107350D01*
X0003468240Y0002118290D01*
X0003470551Y0002129905D01*
X0003470551Y0002136653D01*
X0003533223Y0002136653D01*
X0003536881Y0002127822D01*
X0003543460Y0002117976D01*
X0003551834Y0002109602D01*
X0003561680Y0002103023D01*
X0003572621Y0002098491D01*
X0003584236Y0002096181D01*
X0003596078Y0002096181D01*
X0003607693Y0002098491D01*
X0003618634Y0002103023D01*
X0003628480Y0002109602D01*
X0003636854Y0002117976D01*
X0003643433Y0002127822D01*
X0003647965Y0002138763D01*
X0003650275Y0002150378D01*
X0003650275Y0002162220D01*
X0003647965Y0002173835D01*
X0003643433Y0002184775D01*
X0003636854Y0002194622D01*
X0003632800Y0002198676D01*
X0005364173Y0002198740D01*
X0010682795Y0002198740D01*
X0010682795Y0001817204D01*
G36*
X0000923975Y0002193569D02*
G01*
X0000920984Y0002178532D01*
X0000920984Y0002163200D01*
X0000923975Y0002148162D01*
X0000929842Y0002133997D01*
X0000938360Y0002121249D01*
X0000949202Y0002110408D01*
X0000961950Y0002101889D01*
X0000976115Y0002096022D01*
X0000978089Y0002095629D01*
X0000819548Y0002095629D01*
X0000821522Y0002096022D01*
X0000835687Y0002101889D01*
X0000848435Y0002110408D01*
X0000859277Y0002121249D01*
X0000867795Y0002133997D01*
X0000873662Y0002148162D01*
X0000876653Y0002163200D01*
X0000876653Y0002178532D01*
X0000873662Y0002193569D01*
X0000871589Y0002198574D01*
X0000926049Y0002198576D01*
X0000923975Y0002193569D01*
G37*
X0000923975Y0002193569D02*
X0000920984Y0002178532D01*
X0000920984Y0002163200D01*
X0000923975Y0002148162D01*
X0000929842Y0002133997D01*
X0000938360Y0002121249D01*
X0000949202Y0002110408D01*
X0000961950Y0002101889D01*
X0000976115Y0002096022D01*
X0000978089Y0002095629D01*
X0000819548Y0002095629D01*
X0000821522Y0002096022D01*
X0000835687Y0002101889D01*
X0000848435Y0002110408D01*
X0000859277Y0002121249D01*
X0000867795Y0002133997D01*
X0000873662Y0002148162D01*
X0000876653Y0002163200D01*
X0000876653Y0002178532D01*
X0000873662Y0002193569D01*
X0000871589Y0002198574D01*
X0000926049Y0002198576D01*
X0000923975Y0002193569D01*
G36*
X0001249473Y0002190059D02*
G01*
X0001236712Y0002177298D01*
X0001226686Y0002162293D01*
X0001219780Y0002145620D01*
X0001216259Y0002127920D01*
X0001216259Y0002109874D01*
X0001219093Y0002095629D01*
X0001019548Y0002095629D01*
X0001021522Y0002096022D01*
X0001035687Y0002101889D01*
X0001048435Y0002110408D01*
X0001059277Y0002121249D01*
X0001067795Y0002133997D01*
X0001073662Y0002148162D01*
X0001076653Y0002163200D01*
X0001076653Y0002178532D01*
X0001073662Y0002193569D01*
X0001071586Y0002198581D01*
X0001262238Y0002198588D01*
X0001249473Y0002190059D01*
G37*
X0001249473Y0002190059D02*
X0001236712Y0002177298D01*
X0001226686Y0002162293D01*
X0001219780Y0002145620D01*
X0001216259Y0002127920D01*
X0001216259Y0002109874D01*
X0001219093Y0002095629D01*
X0001019548Y0002095629D01*
X0001021522Y0002096022D01*
X0001035687Y0002101889D01*
X0001048435Y0002110408D01*
X0001059277Y0002121249D01*
X0001067795Y0002133997D01*
X0001073662Y0002148162D01*
X0001076653Y0002163200D01*
X0001076653Y0002178532D01*
X0001073662Y0002193569D01*
X0001071586Y0002198581D01*
X0001262238Y0002198588D01*
X0001249473Y0002190059D01*
G36*
X0002217739Y0002095629D02*
G01*
X0001396654Y0002095629D01*
X0001399488Y0002109874D01*
X0001399488Y0002127920D01*
X0001395967Y0002145620D01*
X0001389061Y0002162293D01*
X0001379035Y0002177298D01*
X0001366274Y0002190059D01*
X0001353504Y0002198591D01*
X0002320736Y0002198627D01*
X0002217739Y0002095629D01*
G37*
X0002217739Y0002095629D02*
X0001396654Y0002095629D01*
X0001399488Y0002109874D01*
X0001399488Y0002127920D01*
X0001395967Y0002145620D01*
X0001389061Y0002162293D01*
X0001379035Y0002177298D01*
X0001366274Y0002190059D01*
X0001353504Y0002198591D01*
X0002320736Y0002198627D01*
X0002217739Y0002095629D01*
G04 next file*
G04 #@! TF.GenerationSoftware,KiCad,Pcbnew,(5.1.5-0)*
G04 #@! TF.CreationDate,2020-08-20T15:01:18-04:00*
G04 #@! TF.ProjectId,LEDIO,4c454449-4f2e-46b6-9963-61645f706362,rev?*
G04 #@! TF.SameCoordinates,Original*
G04 #@! TF.FileFunction,Copper,L2,Bot*
G04 #@! TF.FilePolarity,Positive*
G04 Gerber Fmt 4.6, Leading zero omitted, Abs format (unit mm)*
G04 Created by KiCad (PCBNEW (5.1.5-0)) date 2020-08-20 15:01:18*
G04 APERTURE LIST*
G04 APERTURE END LIST*
D44*
X-0000482283Y0007322834D02*
X0001307874Y0002422047D03*
D45*
X0001429921Y0002461417D03*
X0001512598Y0002461417D03*
X0001174015Y0002461417D03*
X0001548031Y0002748818D03*
X0001162204Y0002748818D03*
D46*
X0000598818Y0002761417D03*
D47*
X0000698818Y0002761417D03*
X0000798818Y0002761417D03*
X0000898818Y0002761417D03*
X0000998818Y0002761417D03*
D48*
X0002407480Y0002479330D03*
X0001879921Y0002432086D03*
X0000744488Y0002543307D03*
X0002464566Y0002642716D03*
X0003410433Y0002726377D03*
X0003590157Y0002746850D03*
D49*
X0001098425Y0002685039D02*
X0001162204Y0002748818D01*
X0000935433Y0002685039D02*
X0001098425Y0002685039D01*
X0000898818Y0002721653D02*
X0000935433Y0002685039D01*
X0000898818Y0002761417D02*
X0000898818Y0002721653D01*
X0001472047Y0002748818D02*
X0001548031Y0002748818D01*
X0001431889Y0002788976D02*
X0001472047Y0002748818D01*
X0001239763Y0002788976D02*
X0001431889Y0002788976D01*
X0001199606Y0002748818D02*
X0001239763Y0002788976D01*
X0001162204Y0002748818D02*
X0001199606Y0002748818D01*
X0000744488Y0002543307D02*
X0000792716Y0002591535D01*
X0002413385Y0002591535D02*
X0002405511Y0002591535D01*
X0002464566Y0002642716D02*
X0002413385Y0002591535D01*
X0000792716Y0002591535D02*
X0002405511Y0002591535D01*
X0001390551Y0002422047D02*
X0001429921Y0002461417D01*
X0001307874Y0002422047D02*
X0001390551Y0002422047D01*
X0001307874Y0002485826D02*
X0001307874Y0002422047D01*
X0001248425Y0002545275D02*
X0001307874Y0002485826D01*
X0000831889Y0002545275D02*
X0001248425Y0002545275D01*
X0000784251Y0002497637D02*
X0000831889Y0002545275D01*
X0000716141Y0002497637D02*
X0000784251Y0002497637D01*
X0000598818Y0002614960D02*
X0000716141Y0002497637D01*
X0000598818Y0002761417D02*
X0000598818Y0002614960D01*
X0003229330Y0002545275D02*
X0003410433Y0002726377D01*
X0001448031Y0002545275D02*
X0003229330Y0002545275D01*
X0001429921Y0002527165D02*
X0001448031Y0002545275D01*
X0001429921Y0002461417D02*
X0001429921Y0002527165D01*
X0003564173Y0002772834D02*
X0003590157Y0002746850D01*
X0003563779Y0002772834D02*
X0003564173Y0002772834D01*
X0003560039Y0002776574D02*
X0003563779Y0002772834D01*
X0002377952Y0002776574D02*
X0003560039Y0002776574D01*
X0002238188Y0002636810D02*
X0002377952Y0002776574D01*
X0000698818Y0002718897D02*
X0000780905Y0002636810D01*
X0000780905Y0002636810D02*
X0002238188Y0002636810D01*
X0000698818Y0002761417D02*
X0000698818Y0002718897D01*
G36*
X0000520769Y0002727952D02*
G01*
X0000521626Y0002719254D01*
X0000524163Y0002710890D01*
X0000528283Y0002703182D01*
X0000533828Y0002696426D01*
X0000540584Y0002690881D01*
X0000548292Y0002686761D01*
X0000549448Y0002686411D01*
X0000549448Y0002617386D01*
X0000549209Y0002614960D01*
X0000550163Y0002605282D01*
X0000552986Y0002595976D01*
X0000557570Y0002587399D01*
X0000557732Y0002587202D01*
X0000563740Y0002579881D01*
X0000565624Y0002578335D01*
X0000679516Y0002464442D01*
X0000681062Y0002462558D01*
X0000688580Y0002456389D01*
X0000697157Y0002451805D01*
X0000706463Y0002448982D01*
X0000713716Y0002448267D01*
X0000713716Y0002448267D01*
X0000716141Y0002448028D01*
X0000718566Y0002448267D01*
X0000781826Y0002448267D01*
X0000784251Y0002448028D01*
X0000786677Y0002448267D01*
X0000793930Y0002448982D01*
X0000803236Y0002451805D01*
X0000811813Y0002456389D01*
X0000819330Y0002462558D01*
X0000820877Y0002464443D01*
X0000852339Y0002495905D01*
X0001227975Y0002495905D01*
X0001238876Y0002485004D01*
X0001236847Y0002483919D01*
X0001225570Y0002474665D01*
X0001216316Y0002463389D01*
X0001209439Y0002450523D01*
X0001205205Y0002436564D01*
X0001203775Y0002422047D01*
X0001205183Y0002407755D01*
X0000045551Y0002407755D01*
X0000045551Y0002608999D01*
X0000266653Y0002608999D01*
X0000266653Y0002587850D01*
X0000270779Y0002567108D01*
X0000278872Y0002547570D01*
X0000290622Y0002529985D01*
X0000305576Y0002515031D01*
X0000323160Y0002503282D01*
X0000342699Y0002495188D01*
X0000363441Y0002491062D01*
X0000384590Y0002491062D01*
X0000405332Y0002495188D01*
X0000424870Y0002503282D01*
X0000442455Y0002515031D01*
X0000457409Y0002529985D01*
X0000469158Y0002547570D01*
X0000477252Y0002567108D01*
X0000481377Y0002587850D01*
X0000481377Y0002608999D01*
X0000477252Y0002629741D01*
X0000469158Y0002649280D01*
X0000457409Y0002666864D01*
X0000442455Y0002681818D01*
X0000424870Y0002693568D01*
X0000405332Y0002701661D01*
X0000384590Y0002705787D01*
X0000363441Y0002705787D01*
X0000342699Y0002701661D01*
X0000323160Y0002693568D01*
X0000305576Y0002681818D01*
X0000290622Y0002666864D01*
X0000278872Y0002649280D01*
X0000270779Y0002629741D01*
X0000266653Y0002608999D01*
X0000045551Y0002608999D01*
X0000045551Y0002789094D01*
X0000520769Y0002789112D01*
X0000520769Y0002727952D01*
G37*
X0000520769Y0002727952D02*
X0000521626Y0002719254D01*
X0000524163Y0002710890D01*
X0000528283Y0002703182D01*
X0000533828Y0002696426D01*
X0000540584Y0002690881D01*
X0000548292Y0002686761D01*
X0000549448Y0002686411D01*
X0000549448Y0002617386D01*
X0000549209Y0002614960D01*
X0000550163Y0002605282D01*
X0000552986Y0002595976D01*
X0000557570Y0002587399D01*
X0000557732Y0002587202D01*
X0000563740Y0002579881D01*
X0000565624Y0002578335D01*
X0000679516Y0002464442D01*
X0000681062Y0002462558D01*
X0000688580Y0002456389D01*
X0000697157Y0002451805D01*
X0000706463Y0002448982D01*
X0000713716Y0002448267D01*
X0000713716Y0002448267D01*
X0000716141Y0002448028D01*
X0000718566Y0002448267D01*
X0000781826Y0002448267D01*
X0000784251Y0002448028D01*
X0000786677Y0002448267D01*
X0000793930Y0002448982D01*
X0000803236Y0002451805D01*
X0000811813Y0002456389D01*
X0000819330Y0002462558D01*
X0000820877Y0002464443D01*
X0000852339Y0002495905D01*
X0001227975Y0002495905D01*
X0001238876Y0002485004D01*
X0001236847Y0002483919D01*
X0001225570Y0002474665D01*
X0001216316Y0002463389D01*
X0001209439Y0002450523D01*
X0001205205Y0002436564D01*
X0001203775Y0002422047D01*
X0001205183Y0002407755D01*
X0000045551Y0002407755D01*
X0000045551Y0002608999D01*
X0000266653Y0002608999D01*
X0000266653Y0002587850D01*
X0000270779Y0002567108D01*
X0000278872Y0002547570D01*
X0000290622Y0002529985D01*
X0000305576Y0002515031D01*
X0000323160Y0002503282D01*
X0000342699Y0002495188D01*
X0000363441Y0002491062D01*
X0000384590Y0002491062D01*
X0000405332Y0002495188D01*
X0000424870Y0002503282D01*
X0000442455Y0002515031D01*
X0000457409Y0002529985D01*
X0000469158Y0002547570D01*
X0000477252Y0002567108D01*
X0000481377Y0002587850D01*
X0000481377Y0002608999D01*
X0000477252Y0002629741D01*
X0000469158Y0002649280D01*
X0000457409Y0002666864D01*
X0000442455Y0002681818D01*
X0000424870Y0002693568D01*
X0000405332Y0002701661D01*
X0000384590Y0002705787D01*
X0000363441Y0002705787D01*
X0000342699Y0002701661D01*
X0000323160Y0002693568D01*
X0000305576Y0002681818D01*
X0000290622Y0002666864D01*
X0000278872Y0002649280D01*
X0000270779Y0002629741D01*
X0000266653Y0002608999D01*
X0000045551Y0002608999D01*
X0000045551Y0002789094D01*
X0000520769Y0002789112D01*
X0000520769Y0002727952D01*
G36*
X0010682795Y0002407755D02*
G01*
X0001582712Y0002407755D01*
X0001585582Y0002417214D01*
X0001586653Y0002428094D01*
X0001586653Y0002494740D01*
X0001586538Y0002495905D01*
X0003226905Y0002495905D01*
X0003229330Y0002495666D01*
X0003231755Y0002495905D01*
X0003239008Y0002496619D01*
X0003248315Y0002499442D01*
X0003256891Y0002504027D01*
X0003264409Y0002510196D01*
X0003265955Y0002512080D01*
X0003362874Y0002608999D01*
X0005266653Y0002608999D01*
X0005266653Y0002587850D01*
X0005270779Y0002567108D01*
X0005278872Y0002547570D01*
X0005290622Y0002529985D01*
X0005305576Y0002515031D01*
X0005323160Y0002503282D01*
X0005342699Y0002495188D01*
X0005363441Y0002491062D01*
X0005384590Y0002491062D01*
X0005405332Y0002495188D01*
X0005424870Y0002503282D01*
X0005442455Y0002515031D01*
X0005457409Y0002529985D01*
X0005469158Y0002547570D01*
X0005477252Y0002567108D01*
X0005481377Y0002587850D01*
X0005481377Y0002608999D01*
X0010266653Y0002608999D01*
X0010266653Y0002587850D01*
X0010270779Y0002567108D01*
X0010278872Y0002547570D01*
X0010290622Y0002529985D01*
X0010305576Y0002515031D01*
X0010323160Y0002503282D01*
X0010342699Y0002495188D01*
X0010363441Y0002491062D01*
X0010384590Y0002491062D01*
X0010405332Y0002495188D01*
X0010424870Y0002503282D01*
X0010442455Y0002515031D01*
X0010457409Y0002529985D01*
X0010469158Y0002547570D01*
X0010477252Y0002567108D01*
X0010481377Y0002587850D01*
X0010481377Y0002608999D01*
X0010477252Y0002629741D01*
X0010469158Y0002649280D01*
X0010457409Y0002666864D01*
X0010442455Y0002681818D01*
X0010424870Y0002693568D01*
X0010405332Y0002701661D01*
X0010384590Y0002705787D01*
X0010363441Y0002705787D01*
X0010342699Y0002701661D01*
X0010323160Y0002693568D01*
X0010305576Y0002681818D01*
X0010290622Y0002666864D01*
X0010278872Y0002649280D01*
X0010270779Y0002629741D01*
X0010266653Y0002608999D01*
X0005481377Y0002608999D01*
X0005477252Y0002629741D01*
X0005469158Y0002649280D01*
X0005457409Y0002666864D01*
X0005442455Y0002681818D01*
X0005424870Y0002693568D01*
X0005405332Y0002701661D01*
X0005384590Y0002705787D01*
X0005363441Y0002705787D01*
X0005342699Y0002701661D01*
X0005323160Y0002693568D01*
X0005305576Y0002681818D01*
X0005290622Y0002666864D01*
X0005278872Y0002649280D01*
X0005270779Y0002629741D01*
X0005266653Y0002608999D01*
X0003362874Y0002608999D01*
X0003421073Y0002667198D01*
X0003427968Y0002668570D01*
X0003438909Y0002673101D01*
X0003448756Y0002679681D01*
X0003457129Y0002688054D01*
X0003463709Y0002697901D01*
X0003468240Y0002708842D01*
X0003470551Y0002720456D01*
X0003470551Y0002727204D01*
X0003533223Y0002727204D01*
X0003536881Y0002718373D01*
X0003543460Y0002708527D01*
X0003551834Y0002700153D01*
X0003561680Y0002693574D01*
X0003572621Y0002689042D01*
X0003584236Y0002686732D01*
X0003596078Y0002686732D01*
X0003607693Y0002689042D01*
X0003618634Y0002693574D01*
X0003628480Y0002700153D01*
X0003636854Y0002708527D01*
X0003643433Y0002718373D01*
X0003647965Y0002729314D01*
X0003650275Y0002740929D01*
X0003650275Y0002752771D01*
X0003647965Y0002764386D01*
X0003643433Y0002775327D01*
X0003636854Y0002785173D01*
X0003632800Y0002789227D01*
X0005364173Y0002789291D01*
X0010682795Y0002789291D01*
X0010682795Y0002407755D01*
G37*
X0010682795Y0002407755D02*
X0001582712Y0002407755D01*
X0001585582Y0002417214D01*
X0001586653Y0002428094D01*
X0001586653Y0002494740D01*
X0001586538Y0002495905D01*
X0003226905Y0002495905D01*
X0003229330Y0002495666D01*
X0003231755Y0002495905D01*
X0003239008Y0002496619D01*
X0003248315Y0002499442D01*
X0003256891Y0002504027D01*
X0003264409Y0002510196D01*
X0003265955Y0002512080D01*
X0003362874Y0002608999D01*
X0005266653Y0002608999D01*
X0005266653Y0002587850D01*
X0005270779Y0002567108D01*
X0005278872Y0002547570D01*
X0005290622Y0002529985D01*
X0005305576Y0002515031D01*
X0005323160Y0002503282D01*
X0005342699Y0002495188D01*
X0005363441Y0002491062D01*
X0005384590Y0002491062D01*
X0005405332Y0002495188D01*
X0005424870Y0002503282D01*
X0005442455Y0002515031D01*
X0005457409Y0002529985D01*
X0005469158Y0002547570D01*
X0005477252Y0002567108D01*
X0005481377Y0002587850D01*
X0005481377Y0002608999D01*
X0010266653Y0002608999D01*
X0010266653Y0002587850D01*
X0010270779Y0002567108D01*
X0010278872Y0002547570D01*
X0010290622Y0002529985D01*
X0010305576Y0002515031D01*
X0010323160Y0002503282D01*
X0010342699Y0002495188D01*
X0010363441Y0002491062D01*
X0010384590Y0002491062D01*
X0010405332Y0002495188D01*
X0010424870Y0002503282D01*
X0010442455Y0002515031D01*
X0010457409Y0002529985D01*
X0010469158Y0002547570D01*
X0010477252Y0002567108D01*
X0010481377Y0002587850D01*
X0010481377Y0002608999D01*
X0010477252Y0002629741D01*
X0010469158Y0002649280D01*
X0010457409Y0002666864D01*
X0010442455Y0002681818D01*
X0010424870Y0002693568D01*
X0010405332Y0002701661D01*
X0010384590Y0002705787D01*
X0010363441Y0002705787D01*
X0010342699Y0002701661D01*
X0010323160Y0002693568D01*
X0010305576Y0002681818D01*
X0010290622Y0002666864D01*
X0010278872Y0002649280D01*
X0010270779Y0002629741D01*
X0010266653Y0002608999D01*
X0005481377Y0002608999D01*
X0005477252Y0002629741D01*
X0005469158Y0002649280D01*
X0005457409Y0002666864D01*
X0005442455Y0002681818D01*
X0005424870Y0002693568D01*
X0005405332Y0002701661D01*
X0005384590Y0002705787D01*
X0005363441Y0002705787D01*
X0005342699Y0002701661D01*
X0005323160Y0002693568D01*
X0005305576Y0002681818D01*
X0005290622Y0002666864D01*
X0005278872Y0002649280D01*
X0005270779Y0002629741D01*
X0005266653Y0002608999D01*
X0003362874Y0002608999D01*
X0003421073Y0002667198D01*
X0003427968Y0002668570D01*
X0003438909Y0002673101D01*
X0003448756Y0002679681D01*
X0003457129Y0002688054D01*
X0003463709Y0002697901D01*
X0003468240Y0002708842D01*
X0003470551Y0002720456D01*
X0003470551Y0002727204D01*
X0003533223Y0002727204D01*
X0003536881Y0002718373D01*
X0003543460Y0002708527D01*
X0003551834Y0002700153D01*
X0003561680Y0002693574D01*
X0003572621Y0002689042D01*
X0003584236Y0002686732D01*
X0003596078Y0002686732D01*
X0003607693Y0002689042D01*
X0003618634Y0002693574D01*
X0003628480Y0002700153D01*
X0003636854Y0002708527D01*
X0003643433Y0002718373D01*
X0003647965Y0002729314D01*
X0003650275Y0002740929D01*
X0003650275Y0002752771D01*
X0003647965Y0002764386D01*
X0003643433Y0002775327D01*
X0003636854Y0002785173D01*
X0003632800Y0002789227D01*
X0005364173Y0002789291D01*
X0010682795Y0002789291D01*
X0010682795Y0002407755D01*
G36*
X0000923975Y0002784120D02*
G01*
X0000920984Y0002769083D01*
X0000920984Y0002753751D01*
X0000923975Y0002738713D01*
X0000929842Y0002724548D01*
X0000938360Y0002711800D01*
X0000949202Y0002700959D01*
X0000961950Y0002692441D01*
X0000976115Y0002686573D01*
X0000978089Y0002686181D01*
X0000819548Y0002686181D01*
X0000821522Y0002686573D01*
X0000835687Y0002692441D01*
X0000848435Y0002700959D01*
X0000859277Y0002711800D01*
X0000867795Y0002724548D01*
X0000873662Y0002738713D01*
X0000876653Y0002753751D01*
X0000876653Y0002769083D01*
X0000873662Y0002784120D01*
X0000871589Y0002789125D01*
X0000926049Y0002789127D01*
X0000923975Y0002784120D01*
G37*
X0000923975Y0002784120D02*
X0000920984Y0002769083D01*
X0000920984Y0002753751D01*
X0000923975Y0002738713D01*
X0000929842Y0002724548D01*
X0000938360Y0002711800D01*
X0000949202Y0002700959D01*
X0000961950Y0002692441D01*
X0000976115Y0002686573D01*
X0000978089Y0002686181D01*
X0000819548Y0002686181D01*
X0000821522Y0002686573D01*
X0000835687Y0002692441D01*
X0000848435Y0002700959D01*
X0000859277Y0002711800D01*
X0000867795Y0002724548D01*
X0000873662Y0002738713D01*
X0000876653Y0002753751D01*
X0000876653Y0002769083D01*
X0000873662Y0002784120D01*
X0000871589Y0002789125D01*
X0000926049Y0002789127D01*
X0000923975Y0002784120D01*
G36*
X0001249473Y0002780610D02*
G01*
X0001236712Y0002767849D01*
X0001226686Y0002752844D01*
X0001219780Y0002736171D01*
X0001216259Y0002718472D01*
X0001216259Y0002700425D01*
X0001219093Y0002686181D01*
X0001019548Y0002686181D01*
X0001021522Y0002686573D01*
X0001035687Y0002692441D01*
X0001048435Y0002700959D01*
X0001059277Y0002711800D01*
X0001067795Y0002724548D01*
X0001073662Y0002738713D01*
X0001076653Y0002753751D01*
X0001076653Y0002769083D01*
X0001073662Y0002784120D01*
X0001071586Y0002789132D01*
X0001262238Y0002789139D01*
X0001249473Y0002780610D01*
G37*
X0001249473Y0002780610D02*
X0001236712Y0002767849D01*
X0001226686Y0002752844D01*
X0001219780Y0002736171D01*
X0001216259Y0002718472D01*
X0001216259Y0002700425D01*
X0001219093Y0002686181D01*
X0001019548Y0002686181D01*
X0001021522Y0002686573D01*
X0001035687Y0002692441D01*
X0001048435Y0002700959D01*
X0001059277Y0002711800D01*
X0001067795Y0002724548D01*
X0001073662Y0002738713D01*
X0001076653Y0002753751D01*
X0001076653Y0002769083D01*
X0001073662Y0002784120D01*
X0001071586Y0002789132D01*
X0001262238Y0002789139D01*
X0001249473Y0002780610D01*
G36*
X0002217739Y0002686181D02*
G01*
X0001396654Y0002686181D01*
X0001399488Y0002700425D01*
X0001399488Y0002718472D01*
X0001395967Y0002736171D01*
X0001389061Y0002752844D01*
X0001379035Y0002767849D01*
X0001366274Y0002780610D01*
X0001353504Y0002789143D01*
X0002320736Y0002789178D01*
X0002217739Y0002686181D01*
G37*
X0002217739Y0002686181D02*
X0001396654Y0002686181D01*
X0001399488Y0002700425D01*
X0001399488Y0002718472D01*
X0001395967Y0002736171D01*
X0001389061Y0002752844D01*
X0001379035Y0002767849D01*
X0001366274Y0002780610D01*
X0001353504Y0002789143D01*
X0002320736Y0002789178D01*
X0002217739Y0002686181D01*
G04 next file*
G04 #@! TF.GenerationSoftware,KiCad,Pcbnew,(5.1.5-0)*
G04 #@! TF.CreationDate,2020-08-20T15:01:18-04:00*
G04 #@! TF.ProjectId,LEDIO,4c454449-4f2e-46b6-9963-61645f706362,rev?*
G04 #@! TF.SameCoordinates,Original*
G04 #@! TF.FileFunction,Copper,L2,Bot*
G04 #@! TF.FilePolarity,Positive*
G04 Gerber Fmt 4.6, Leading zero omitted, Abs format (unit mm)*
G04 Created by KiCad (PCBNEW (5.1.5-0)) date 2020-08-20 15:01:18*
G04 APERTURE LIST*
G04 APERTURE END LIST*
D50*
X-0000482283Y0007913385D02*
X0001307874Y0003012598D03*
D51*
X0001429921Y0003051968D03*
X0001512598Y0003051968D03*
X0001174015Y0003051968D03*
X0001548031Y0003339370D03*
X0001162204Y0003339370D03*
D52*
X0000598818Y0003351968D03*
D53*
X0000698818Y0003351968D03*
X0000798818Y0003351968D03*
X0000898818Y0003351968D03*
X0000998818Y0003351968D03*
D54*
X0002407480Y0003069881D03*
X0001879921Y0003022637D03*
X0000744488Y0003133858D03*
X0002464566Y0003233267D03*
X0003410433Y0003316929D03*
X0003590157Y0003337401D03*
D55*
X0001098425Y0003275590D02*
X0001162204Y0003339370D01*
X0000935433Y0003275590D02*
X0001098425Y0003275590D01*
X0000898818Y0003312204D02*
X0000935433Y0003275590D01*
X0000898818Y0003351968D02*
X0000898818Y0003312204D01*
X0001472047Y0003339370D02*
X0001548031Y0003339370D01*
X0001431889Y0003379527D02*
X0001472047Y0003339370D01*
X0001239763Y0003379527D02*
X0001431889Y0003379527D01*
X0001199606Y0003339370D02*
X0001239763Y0003379527D01*
X0001162204Y0003339370D02*
X0001199606Y0003339370D01*
X0000744488Y0003133858D02*
X0000792716Y0003182086D01*
X0002413385Y0003182086D02*
X0002405511Y0003182086D01*
X0002464566Y0003233267D02*
X0002413385Y0003182086D01*
X0000792716Y0003182086D02*
X0002405511Y0003182086D01*
X0001390551Y0003012598D02*
X0001429921Y0003051968D01*
X0001307874Y0003012598D02*
X0001390551Y0003012598D01*
X0001307874Y0003076377D02*
X0001307874Y0003012598D01*
X0001248425Y0003135826D02*
X0001307874Y0003076377D01*
X0000831889Y0003135826D02*
X0001248425Y0003135826D01*
X0000784251Y0003088188D02*
X0000831889Y0003135826D01*
X0000716141Y0003088188D02*
X0000784251Y0003088188D01*
X0000598818Y0003205511D02*
X0000716141Y0003088188D01*
X0000598818Y0003351968D02*
X0000598818Y0003205511D01*
X0003229330Y0003135826D02*
X0003410433Y0003316929D01*
X0001448031Y0003135826D02*
X0003229330Y0003135826D01*
X0001429921Y0003117716D02*
X0001448031Y0003135826D01*
X0001429921Y0003051968D02*
X0001429921Y0003117716D01*
X0003564173Y0003363385D02*
X0003590157Y0003337401D01*
X0003563779Y0003363385D02*
X0003564173Y0003363385D01*
X0003560039Y0003367125D02*
X0003563779Y0003363385D01*
X0002377952Y0003367125D02*
X0003560039Y0003367125D01*
X0002238188Y0003227362D02*
X0002377952Y0003367125D01*
X0000698818Y0003309448D02*
X0000780905Y0003227362D01*
X0000780905Y0003227362D02*
X0002238188Y0003227362D01*
X0000698818Y0003351968D02*
X0000698818Y0003309448D01*
G36*
X0000520769Y0003318503D02*
G01*
X0000521626Y0003309805D01*
X0000524163Y0003301442D01*
X0000528283Y0003293733D01*
X0000533828Y0003286977D01*
X0000540584Y0003281433D01*
X0000548292Y0003277312D01*
X0000549448Y0003276962D01*
X0000549448Y0003207937D01*
X0000549209Y0003205511D01*
X0000550163Y0003195833D01*
X0000552986Y0003186527D01*
X0000557570Y0003177950D01*
X0000557732Y0003177753D01*
X0000563740Y0003170432D01*
X0000565624Y0003168886D01*
X0000679516Y0003054993D01*
X0000681062Y0003053110D01*
X0000688580Y0003046940D01*
X0000697157Y0003042356D01*
X0000706463Y0003039533D01*
X0000713716Y0003038818D01*
X0000713716Y0003038818D01*
X0000716141Y0003038580D01*
X0000718566Y0003038818D01*
X0000781826Y0003038818D01*
X0000784251Y0003038580D01*
X0000786677Y0003038818D01*
X0000793930Y0003039533D01*
X0000803236Y0003042356D01*
X0000811813Y0003046940D01*
X0000819330Y0003053110D01*
X0000820877Y0003054994D01*
X0000852339Y0003086456D01*
X0001227975Y0003086456D01*
X0001238876Y0003075555D01*
X0001236847Y0003074470D01*
X0001225570Y0003065216D01*
X0001216316Y0003053940D01*
X0001209439Y0003041075D01*
X0001205205Y0003027115D01*
X0001203775Y0003012598D01*
X0001205183Y0002998307D01*
X0000045551Y0002998307D01*
X0000045551Y0003199550D01*
X0000266653Y0003199550D01*
X0000266653Y0003178402D01*
X0000270779Y0003157659D01*
X0000278872Y0003138121D01*
X0000290622Y0003120536D01*
X0000305576Y0003105582D01*
X0000323160Y0003093833D01*
X0000342699Y0003085740D01*
X0000363441Y0003081614D01*
X0000384590Y0003081614D01*
X0000405332Y0003085740D01*
X0000424870Y0003093833D01*
X0000442455Y0003105582D01*
X0000457409Y0003120536D01*
X0000469158Y0003138121D01*
X0000477252Y0003157659D01*
X0000481377Y0003178402D01*
X0000481377Y0003199550D01*
X0000477252Y0003220292D01*
X0000469158Y0003239831D01*
X0000457409Y0003257415D01*
X0000442455Y0003272370D01*
X0000424870Y0003284119D01*
X0000405332Y0003292212D01*
X0000384590Y0003296338D01*
X0000363441Y0003296338D01*
X0000342699Y0003292212D01*
X0000323160Y0003284119D01*
X0000305576Y0003272370D01*
X0000290622Y0003257415D01*
X0000278872Y0003239831D01*
X0000270779Y0003220292D01*
X0000266653Y0003199550D01*
X0000045551Y0003199550D01*
X0000045551Y0003379645D01*
X0000520769Y0003379663D01*
X0000520769Y0003318503D01*
G37*
X0000520769Y0003318503D02*
X0000521626Y0003309805D01*
X0000524163Y0003301442D01*
X0000528283Y0003293733D01*
X0000533828Y0003286977D01*
X0000540584Y0003281433D01*
X0000548292Y0003277312D01*
X0000549448Y0003276962D01*
X0000549448Y0003207937D01*
X0000549209Y0003205511D01*
X0000550163Y0003195833D01*
X0000552986Y0003186527D01*
X0000557570Y0003177950D01*
X0000557732Y0003177753D01*
X0000563740Y0003170432D01*
X0000565624Y0003168886D01*
X0000679516Y0003054993D01*
X0000681062Y0003053110D01*
X0000688580Y0003046940D01*
X0000697157Y0003042356D01*
X0000706463Y0003039533D01*
X0000713716Y0003038818D01*
X0000713716Y0003038818D01*
X0000716141Y0003038580D01*
X0000718566Y0003038818D01*
X0000781826Y0003038818D01*
X0000784251Y0003038580D01*
X0000786677Y0003038818D01*
X0000793930Y0003039533D01*
X0000803236Y0003042356D01*
X0000811813Y0003046940D01*
X0000819330Y0003053110D01*
X0000820877Y0003054994D01*
X0000852339Y0003086456D01*
X0001227975Y0003086456D01*
X0001238876Y0003075555D01*
X0001236847Y0003074470D01*
X0001225570Y0003065216D01*
X0001216316Y0003053940D01*
X0001209439Y0003041075D01*
X0001205205Y0003027115D01*
X0001203775Y0003012598D01*
X0001205183Y0002998307D01*
X0000045551Y0002998307D01*
X0000045551Y0003199550D01*
X0000266653Y0003199550D01*
X0000266653Y0003178402D01*
X0000270779Y0003157659D01*
X0000278872Y0003138121D01*
X0000290622Y0003120536D01*
X0000305576Y0003105582D01*
X0000323160Y0003093833D01*
X0000342699Y0003085740D01*
X0000363441Y0003081614D01*
X0000384590Y0003081614D01*
X0000405332Y0003085740D01*
X0000424870Y0003093833D01*
X0000442455Y0003105582D01*
X0000457409Y0003120536D01*
X0000469158Y0003138121D01*
X0000477252Y0003157659D01*
X0000481377Y0003178402D01*
X0000481377Y0003199550D01*
X0000477252Y0003220292D01*
X0000469158Y0003239831D01*
X0000457409Y0003257415D01*
X0000442455Y0003272370D01*
X0000424870Y0003284119D01*
X0000405332Y0003292212D01*
X0000384590Y0003296338D01*
X0000363441Y0003296338D01*
X0000342699Y0003292212D01*
X0000323160Y0003284119D01*
X0000305576Y0003272370D01*
X0000290622Y0003257415D01*
X0000278872Y0003239831D01*
X0000270779Y0003220292D01*
X0000266653Y0003199550D01*
X0000045551Y0003199550D01*
X0000045551Y0003379645D01*
X0000520769Y0003379663D01*
X0000520769Y0003318503D01*
G36*
X0010682795Y0002998307D02*
G01*
X0001582712Y0002998307D01*
X0001585582Y0003007766D01*
X0001586653Y0003018645D01*
X0001586653Y0003085291D01*
X0001586538Y0003086456D01*
X0003226905Y0003086456D01*
X0003229330Y0003086217D01*
X0003231755Y0003086456D01*
X0003239008Y0003087171D01*
X0003248315Y0003089994D01*
X0003256891Y0003094578D01*
X0003264409Y0003100747D01*
X0003265955Y0003102632D01*
X0003362874Y0003199550D01*
X0005266653Y0003199550D01*
X0005266653Y0003178402D01*
X0005270779Y0003157659D01*
X0005278872Y0003138121D01*
X0005290622Y0003120536D01*
X0005305576Y0003105582D01*
X0005323160Y0003093833D01*
X0005342699Y0003085740D01*
X0005363441Y0003081614D01*
X0005384590Y0003081614D01*
X0005405332Y0003085740D01*
X0005424870Y0003093833D01*
X0005442455Y0003105582D01*
X0005457409Y0003120536D01*
X0005469158Y0003138121D01*
X0005477252Y0003157659D01*
X0005481377Y0003178402D01*
X0005481377Y0003199550D01*
X0010266653Y0003199550D01*
X0010266653Y0003178402D01*
X0010270779Y0003157659D01*
X0010278872Y0003138121D01*
X0010290622Y0003120536D01*
X0010305576Y0003105582D01*
X0010323160Y0003093833D01*
X0010342699Y0003085740D01*
X0010363441Y0003081614D01*
X0010384590Y0003081614D01*
X0010405332Y0003085740D01*
X0010424870Y0003093833D01*
X0010442455Y0003105582D01*
X0010457409Y0003120536D01*
X0010469158Y0003138121D01*
X0010477252Y0003157659D01*
X0010481377Y0003178402D01*
X0010481377Y0003199550D01*
X0010477252Y0003220292D01*
X0010469158Y0003239831D01*
X0010457409Y0003257415D01*
X0010442455Y0003272370D01*
X0010424870Y0003284119D01*
X0010405332Y0003292212D01*
X0010384590Y0003296338D01*
X0010363441Y0003296338D01*
X0010342699Y0003292212D01*
X0010323160Y0003284119D01*
X0010305576Y0003272370D01*
X0010290622Y0003257415D01*
X0010278872Y0003239831D01*
X0010270779Y0003220292D01*
X0010266653Y0003199550D01*
X0005481377Y0003199550D01*
X0005477252Y0003220292D01*
X0005469158Y0003239831D01*
X0005457409Y0003257415D01*
X0005442455Y0003272370D01*
X0005424870Y0003284119D01*
X0005405332Y0003292212D01*
X0005384590Y0003296338D01*
X0005363441Y0003296338D01*
X0005342699Y0003292212D01*
X0005323160Y0003284119D01*
X0005305576Y0003272370D01*
X0005290622Y0003257415D01*
X0005278872Y0003239831D01*
X0005270779Y0003220292D01*
X0005266653Y0003199550D01*
X0003362874Y0003199550D01*
X0003421073Y0003257749D01*
X0003427968Y0003259121D01*
X0003438909Y0003263653D01*
X0003448756Y0003270232D01*
X0003457129Y0003278606D01*
X0003463709Y0003288452D01*
X0003468240Y0003299393D01*
X0003470551Y0003311008D01*
X0003470551Y0003317755D01*
X0003533223Y0003317755D01*
X0003536881Y0003308924D01*
X0003543460Y0003299078D01*
X0003551834Y0003290704D01*
X0003561680Y0003284125D01*
X0003572621Y0003279593D01*
X0003584236Y0003277283D01*
X0003596078Y0003277283D01*
X0003607693Y0003279593D01*
X0003618634Y0003284125D01*
X0003628480Y0003290704D01*
X0003636854Y0003299078D01*
X0003643433Y0003308924D01*
X0003647965Y0003319865D01*
X0003650275Y0003331480D01*
X0003650275Y0003343322D01*
X0003647965Y0003354937D01*
X0003643433Y0003365878D01*
X0003636854Y0003375724D01*
X0003632800Y0003379778D01*
X0005364173Y0003379842D01*
X0010682795Y0003379842D01*
X0010682795Y0002998307D01*
G37*
X0010682795Y0002998307D02*
X0001582712Y0002998307D01*
X0001585582Y0003007766D01*
X0001586653Y0003018645D01*
X0001586653Y0003085291D01*
X0001586538Y0003086456D01*
X0003226905Y0003086456D01*
X0003229330Y0003086217D01*
X0003231755Y0003086456D01*
X0003239008Y0003087171D01*
X0003248315Y0003089994D01*
X0003256891Y0003094578D01*
X0003264409Y0003100747D01*
X0003265955Y0003102632D01*
X0003362874Y0003199550D01*
X0005266653Y0003199550D01*
X0005266653Y0003178402D01*
X0005270779Y0003157659D01*
X0005278872Y0003138121D01*
X0005290622Y0003120536D01*
X0005305576Y0003105582D01*
X0005323160Y0003093833D01*
X0005342699Y0003085740D01*
X0005363441Y0003081614D01*
X0005384590Y0003081614D01*
X0005405332Y0003085740D01*
X0005424870Y0003093833D01*
X0005442455Y0003105582D01*
X0005457409Y0003120536D01*
X0005469158Y0003138121D01*
X0005477252Y0003157659D01*
X0005481377Y0003178402D01*
X0005481377Y0003199550D01*
X0010266653Y0003199550D01*
X0010266653Y0003178402D01*
X0010270779Y0003157659D01*
X0010278872Y0003138121D01*
X0010290622Y0003120536D01*
X0010305576Y0003105582D01*
X0010323160Y0003093833D01*
X0010342699Y0003085740D01*
X0010363441Y0003081614D01*
X0010384590Y0003081614D01*
X0010405332Y0003085740D01*
X0010424870Y0003093833D01*
X0010442455Y0003105582D01*
X0010457409Y0003120536D01*
X0010469158Y0003138121D01*
X0010477252Y0003157659D01*
X0010481377Y0003178402D01*
X0010481377Y0003199550D01*
X0010477252Y0003220292D01*
X0010469158Y0003239831D01*
X0010457409Y0003257415D01*
X0010442455Y0003272370D01*
X0010424870Y0003284119D01*
X0010405332Y0003292212D01*
X0010384590Y0003296338D01*
X0010363441Y0003296338D01*
X0010342699Y0003292212D01*
X0010323160Y0003284119D01*
X0010305576Y0003272370D01*
X0010290622Y0003257415D01*
X0010278872Y0003239831D01*
X0010270779Y0003220292D01*
X0010266653Y0003199550D01*
X0005481377Y0003199550D01*
X0005477252Y0003220292D01*
X0005469158Y0003239831D01*
X0005457409Y0003257415D01*
X0005442455Y0003272370D01*
X0005424870Y0003284119D01*
X0005405332Y0003292212D01*
X0005384590Y0003296338D01*
X0005363441Y0003296338D01*
X0005342699Y0003292212D01*
X0005323160Y0003284119D01*
X0005305576Y0003272370D01*
X0005290622Y0003257415D01*
X0005278872Y0003239831D01*
X0005270779Y0003220292D01*
X0005266653Y0003199550D01*
X0003362874Y0003199550D01*
X0003421073Y0003257749D01*
X0003427968Y0003259121D01*
X0003438909Y0003263653D01*
X0003448756Y0003270232D01*
X0003457129Y0003278606D01*
X0003463709Y0003288452D01*
X0003468240Y0003299393D01*
X0003470551Y0003311008D01*
X0003470551Y0003317755D01*
X0003533223Y0003317755D01*
X0003536881Y0003308924D01*
X0003543460Y0003299078D01*
X0003551834Y0003290704D01*
X0003561680Y0003284125D01*
X0003572621Y0003279593D01*
X0003584236Y0003277283D01*
X0003596078Y0003277283D01*
X0003607693Y0003279593D01*
X0003618634Y0003284125D01*
X0003628480Y0003290704D01*
X0003636854Y0003299078D01*
X0003643433Y0003308924D01*
X0003647965Y0003319865D01*
X0003650275Y0003331480D01*
X0003650275Y0003343322D01*
X0003647965Y0003354937D01*
X0003643433Y0003365878D01*
X0003636854Y0003375724D01*
X0003632800Y0003379778D01*
X0005364173Y0003379842D01*
X0010682795Y0003379842D01*
X0010682795Y0002998307D01*
G36*
X0000923975Y0003374672D02*
G01*
X0000920984Y0003359634D01*
X0000920984Y0003344302D01*
X0000923975Y0003329264D01*
X0000929842Y0003315099D01*
X0000938360Y0003302351D01*
X0000949202Y0003291510D01*
X0000961950Y0003282992D01*
X0000976115Y0003277125D01*
X0000978089Y0003276732D01*
X0000819548Y0003276732D01*
X0000821522Y0003277125D01*
X0000835687Y0003282992D01*
X0000848435Y0003291510D01*
X0000859277Y0003302351D01*
X0000867795Y0003315099D01*
X0000873662Y0003329264D01*
X0000876653Y0003344302D01*
X0000876653Y0003359634D01*
X0000873662Y0003374672D01*
X0000871589Y0003379676D01*
X0000926049Y0003379678D01*
X0000923975Y0003374672D01*
G37*
X0000923975Y0003374672D02*
X0000920984Y0003359634D01*
X0000920984Y0003344302D01*
X0000923975Y0003329264D01*
X0000929842Y0003315099D01*
X0000938360Y0003302351D01*
X0000949202Y0003291510D01*
X0000961950Y0003282992D01*
X0000976115Y0003277125D01*
X0000978089Y0003276732D01*
X0000819548Y0003276732D01*
X0000821522Y0003277125D01*
X0000835687Y0003282992D01*
X0000848435Y0003291510D01*
X0000859277Y0003302351D01*
X0000867795Y0003315099D01*
X0000873662Y0003329264D01*
X0000876653Y0003344302D01*
X0000876653Y0003359634D01*
X0000873662Y0003374672D01*
X0000871589Y0003379676D01*
X0000926049Y0003379678D01*
X0000923975Y0003374672D01*
G36*
X0001249473Y0003371161D02*
G01*
X0001236712Y0003358400D01*
X0001226686Y0003343395D01*
X0001219780Y0003326722D01*
X0001216259Y0003309023D01*
X0001216259Y0003290976D01*
X0001219093Y0003276732D01*
X0001019548Y0003276732D01*
X0001021522Y0003277125D01*
X0001035687Y0003282992D01*
X0001048435Y0003291510D01*
X0001059277Y0003302351D01*
X0001067795Y0003315099D01*
X0001073662Y0003329264D01*
X0001076653Y0003344302D01*
X0001076653Y0003359634D01*
X0001073662Y0003374672D01*
X0001071586Y0003379683D01*
X0001262238Y0003379690D01*
X0001249473Y0003371161D01*
G37*
X0001249473Y0003371161D02*
X0001236712Y0003358400D01*
X0001226686Y0003343395D01*
X0001219780Y0003326722D01*
X0001216259Y0003309023D01*
X0001216259Y0003290976D01*
X0001219093Y0003276732D01*
X0001019548Y0003276732D01*
X0001021522Y0003277125D01*
X0001035687Y0003282992D01*
X0001048435Y0003291510D01*
X0001059277Y0003302351D01*
X0001067795Y0003315099D01*
X0001073662Y0003329264D01*
X0001076653Y0003344302D01*
X0001076653Y0003359634D01*
X0001073662Y0003374672D01*
X0001071586Y0003379683D01*
X0001262238Y0003379690D01*
X0001249473Y0003371161D01*
G36*
X0002217739Y0003276732D02*
G01*
X0001396654Y0003276732D01*
X0001399488Y0003290976D01*
X0001399488Y0003309023D01*
X0001395967Y0003326722D01*
X0001389061Y0003343395D01*
X0001379035Y0003358400D01*
X0001366274Y0003371161D01*
X0001353504Y0003379694D01*
X0002320736Y0003379730D01*
X0002217739Y0003276732D01*
G37*
X0002217739Y0003276732D02*
X0001396654Y0003276732D01*
X0001399488Y0003290976D01*
X0001399488Y0003309023D01*
X0001395967Y0003326722D01*
X0001389061Y0003343395D01*
X0001379035Y0003358400D01*
X0001366274Y0003371161D01*
X0001353504Y0003379694D01*
X0002320736Y0003379730D01*
X0002217739Y0003276732D01*
G04 next file*
G04 #@! TF.GenerationSoftware,KiCad,Pcbnew,(5.1.5-0)*
G04 #@! TF.CreationDate,2020-08-20T15:01:18-04:00*
G04 #@! TF.ProjectId,LEDIO,4c454449-4f2e-46b6-9963-61645f706362,rev?*
G04 #@! TF.SameCoordinates,Original*
G04 #@! TF.FileFunction,Copper,L2,Bot*
G04 #@! TF.FilePolarity,Positive*
G04 Gerber Fmt 4.6, Leading zero omitted, Abs format (unit mm)*
G04 Created by KiCad (PCBNEW (5.1.5-0)) date 2020-08-20 15:01:18*
G04 APERTURE LIST*
G04 APERTURE END LIST*
D56*
X-0000482283Y0008503937D02*
X0001307874Y0003603149D03*
D57*
X0001429921Y0003642519D03*
X0001512598Y0003642519D03*
X0001174015Y0003642519D03*
X0001548031Y0003929921D03*
X0001162204Y0003929921D03*
D58*
X0000598818Y0003942519D03*
D59*
X0000698818Y0003942519D03*
X0000798818Y0003942519D03*
X0000898818Y0003942519D03*
X0000998818Y0003942519D03*
D60*
X0002407480Y0003660433D03*
X0001879921Y0003613188D03*
X0000744488Y0003724409D03*
X0002464566Y0003823818D03*
X0003410433Y0003907480D03*
X0003590157Y0003927952D03*
D61*
X0001098425Y0003866141D02*
X0001162204Y0003929921D01*
X0000935433Y0003866141D02*
X0001098425Y0003866141D01*
X0000898818Y0003902755D02*
X0000935433Y0003866141D01*
X0000898818Y0003942519D02*
X0000898818Y0003902755D01*
X0001472047Y0003929921D02*
X0001548031Y0003929921D01*
X0001431889Y0003970078D02*
X0001472047Y0003929921D01*
X0001239763Y0003970078D02*
X0001431889Y0003970078D01*
X0001199606Y0003929921D02*
X0001239763Y0003970078D01*
X0001162204Y0003929921D02*
X0001199606Y0003929921D01*
X0000744488Y0003724409D02*
X0000792716Y0003772637D01*
X0002413385Y0003772637D02*
X0002405511Y0003772637D01*
X0002464566Y0003823818D02*
X0002413385Y0003772637D01*
X0000792716Y0003772637D02*
X0002405511Y0003772637D01*
X0001390551Y0003603149D02*
X0001429921Y0003642519D01*
X0001307874Y0003603149D02*
X0001390551Y0003603149D01*
X0001307874Y0003666929D02*
X0001307874Y0003603149D01*
X0001248425Y0003726377D02*
X0001307874Y0003666929D01*
X0000831889Y0003726377D02*
X0001248425Y0003726377D01*
X0000784251Y0003678740D02*
X0000831889Y0003726377D01*
X0000716141Y0003678740D02*
X0000784251Y0003678740D01*
X0000598818Y0003796062D02*
X0000716141Y0003678740D01*
X0000598818Y0003942519D02*
X0000598818Y0003796062D01*
X0003229330Y0003726377D02*
X0003410433Y0003907480D01*
X0001448031Y0003726377D02*
X0003229330Y0003726377D01*
X0001429921Y0003708267D02*
X0001448031Y0003726377D01*
X0001429921Y0003642519D02*
X0001429921Y0003708267D01*
X0003564173Y0003953937D02*
X0003590157Y0003927952D01*
X0003563779Y0003953937D02*
X0003564173Y0003953937D01*
X0003560039Y0003957677D02*
X0003563779Y0003953937D01*
X0002377952Y0003957677D02*
X0003560039Y0003957677D01*
X0002238188Y0003817913D02*
X0002377952Y0003957677D01*
X0000698818Y0003900000D02*
X0000780905Y0003817913D01*
X0000780905Y0003817913D02*
X0002238188Y0003817913D01*
X0000698818Y0003942519D02*
X0000698818Y0003900000D01*
G36*
X0000520769Y0003909055D02*
G01*
X0000521626Y0003900357D01*
X0000524163Y0003891993D01*
X0000528283Y0003884285D01*
X0000533828Y0003877528D01*
X0000540584Y0003871984D01*
X0000548292Y0003867864D01*
X0000549448Y0003867513D01*
X0000549448Y0003798488D01*
X0000549209Y0003796062D01*
X0000550163Y0003786384D01*
X0000552986Y0003777078D01*
X0000557570Y0003768501D01*
X0000557732Y0003768304D01*
X0000563740Y0003760984D01*
X0000565624Y0003759438D01*
X0000679516Y0003645545D01*
X0000681062Y0003643661D01*
X0000688580Y0003637491D01*
X0000697157Y0003632907D01*
X0000706463Y0003630084D01*
X0000713716Y0003629370D01*
X0000713716Y0003629370D01*
X0000716141Y0003629131D01*
X0000718566Y0003629370D01*
X0000781826Y0003629370D01*
X0000784251Y0003629131D01*
X0000786677Y0003629370D01*
X0000793930Y0003630084D01*
X0000803236Y0003632907D01*
X0000811813Y0003637491D01*
X0000819330Y0003643661D01*
X0000820877Y0003645545D01*
X0000852339Y0003677007D01*
X0001227975Y0003677007D01*
X0001238876Y0003666106D01*
X0001236847Y0003665022D01*
X0001225570Y0003655767D01*
X0001216316Y0003644491D01*
X0001209439Y0003631626D01*
X0001205205Y0003617666D01*
X0001203775Y0003603149D01*
X0001205183Y0003588858D01*
X0000045551Y0003588858D01*
X0000045551Y0003790101D01*
X0000266653Y0003790101D01*
X0000266653Y0003768953D01*
X0000270779Y0003748211D01*
X0000278872Y0003728672D01*
X0000290622Y0003711088D01*
X0000305576Y0003696133D01*
X0000323160Y0003684384D01*
X0000342699Y0003676291D01*
X0000363441Y0003672165D01*
X0000384590Y0003672165D01*
X0000405332Y0003676291D01*
X0000424870Y0003684384D01*
X0000442455Y0003696133D01*
X0000457409Y0003711088D01*
X0000469158Y0003728672D01*
X0000477252Y0003748211D01*
X0000481377Y0003768953D01*
X0000481377Y0003790101D01*
X0000477252Y0003810843D01*
X0000469158Y0003830382D01*
X0000457409Y0003847966D01*
X0000442455Y0003862921D01*
X0000424870Y0003874670D01*
X0000405332Y0003882763D01*
X0000384590Y0003886889D01*
X0000363441Y0003886889D01*
X0000342699Y0003882763D01*
X0000323160Y0003874670D01*
X0000305576Y0003862921D01*
X0000290622Y0003847966D01*
X0000278872Y0003830382D01*
X0000270779Y0003810843D01*
X0000266653Y0003790101D01*
X0000045551Y0003790101D01*
X0000045551Y0003970197D01*
X0000520769Y0003970214D01*
X0000520769Y0003909055D01*
G37*
X0000520769Y0003909055D02*
X0000521626Y0003900357D01*
X0000524163Y0003891993D01*
X0000528283Y0003884285D01*
X0000533828Y0003877528D01*
X0000540584Y0003871984D01*
X0000548292Y0003867864D01*
X0000549448Y0003867513D01*
X0000549448Y0003798488D01*
X0000549209Y0003796062D01*
X0000550163Y0003786384D01*
X0000552986Y0003777078D01*
X0000557570Y0003768501D01*
X0000557732Y0003768304D01*
X0000563740Y0003760984D01*
X0000565624Y0003759438D01*
X0000679516Y0003645545D01*
X0000681062Y0003643661D01*
X0000688580Y0003637491D01*
X0000697157Y0003632907D01*
X0000706463Y0003630084D01*
X0000713716Y0003629370D01*
X0000713716Y0003629370D01*
X0000716141Y0003629131D01*
X0000718566Y0003629370D01*
X0000781826Y0003629370D01*
X0000784251Y0003629131D01*
X0000786677Y0003629370D01*
X0000793930Y0003630084D01*
X0000803236Y0003632907D01*
X0000811813Y0003637491D01*
X0000819330Y0003643661D01*
X0000820877Y0003645545D01*
X0000852339Y0003677007D01*
X0001227975Y0003677007D01*
X0001238876Y0003666106D01*
X0001236847Y0003665022D01*
X0001225570Y0003655767D01*
X0001216316Y0003644491D01*
X0001209439Y0003631626D01*
X0001205205Y0003617666D01*
X0001203775Y0003603149D01*
X0001205183Y0003588858D01*
X0000045551Y0003588858D01*
X0000045551Y0003790101D01*
X0000266653Y0003790101D01*
X0000266653Y0003768953D01*
X0000270779Y0003748211D01*
X0000278872Y0003728672D01*
X0000290622Y0003711088D01*
X0000305576Y0003696133D01*
X0000323160Y0003684384D01*
X0000342699Y0003676291D01*
X0000363441Y0003672165D01*
X0000384590Y0003672165D01*
X0000405332Y0003676291D01*
X0000424870Y0003684384D01*
X0000442455Y0003696133D01*
X0000457409Y0003711088D01*
X0000469158Y0003728672D01*
X0000477252Y0003748211D01*
X0000481377Y0003768953D01*
X0000481377Y0003790101D01*
X0000477252Y0003810843D01*
X0000469158Y0003830382D01*
X0000457409Y0003847966D01*
X0000442455Y0003862921D01*
X0000424870Y0003874670D01*
X0000405332Y0003882763D01*
X0000384590Y0003886889D01*
X0000363441Y0003886889D01*
X0000342699Y0003882763D01*
X0000323160Y0003874670D01*
X0000305576Y0003862921D01*
X0000290622Y0003847966D01*
X0000278872Y0003830382D01*
X0000270779Y0003810843D01*
X0000266653Y0003790101D01*
X0000045551Y0003790101D01*
X0000045551Y0003970197D01*
X0000520769Y0003970214D01*
X0000520769Y0003909055D01*
G36*
X0010682795Y0003588858D02*
G01*
X0001582712Y0003588858D01*
X0001585582Y0003598317D01*
X0001586653Y0003609196D01*
X0001586653Y0003675842D01*
X0001586538Y0003677007D01*
X0003226905Y0003677007D01*
X0003229330Y0003676769D01*
X0003231755Y0003677007D01*
X0003239008Y0003677722D01*
X0003248315Y0003680545D01*
X0003256891Y0003685129D01*
X0003264409Y0003691299D01*
X0003265955Y0003693183D01*
X0003362874Y0003790101D01*
X0005266653Y0003790101D01*
X0005266653Y0003768953D01*
X0005270779Y0003748211D01*
X0005278872Y0003728672D01*
X0005290622Y0003711088D01*
X0005305576Y0003696133D01*
X0005323160Y0003684384D01*
X0005342699Y0003676291D01*
X0005363441Y0003672165D01*
X0005384590Y0003672165D01*
X0005405332Y0003676291D01*
X0005424870Y0003684384D01*
X0005442455Y0003696133D01*
X0005457409Y0003711088D01*
X0005469158Y0003728672D01*
X0005477252Y0003748211D01*
X0005481377Y0003768953D01*
X0005481377Y0003790101D01*
X0010266653Y0003790101D01*
X0010266653Y0003768953D01*
X0010270779Y0003748211D01*
X0010278872Y0003728672D01*
X0010290622Y0003711088D01*
X0010305576Y0003696133D01*
X0010323160Y0003684384D01*
X0010342699Y0003676291D01*
X0010363441Y0003672165D01*
X0010384590Y0003672165D01*
X0010405332Y0003676291D01*
X0010424870Y0003684384D01*
X0010442455Y0003696133D01*
X0010457409Y0003711088D01*
X0010469158Y0003728672D01*
X0010477252Y0003748211D01*
X0010481377Y0003768953D01*
X0010481377Y0003790101D01*
X0010477252Y0003810843D01*
X0010469158Y0003830382D01*
X0010457409Y0003847966D01*
X0010442455Y0003862921D01*
X0010424870Y0003874670D01*
X0010405332Y0003882763D01*
X0010384590Y0003886889D01*
X0010363441Y0003886889D01*
X0010342699Y0003882763D01*
X0010323160Y0003874670D01*
X0010305576Y0003862921D01*
X0010290622Y0003847966D01*
X0010278872Y0003830382D01*
X0010270779Y0003810843D01*
X0010266653Y0003790101D01*
X0005481377Y0003790101D01*
X0005477252Y0003810843D01*
X0005469158Y0003830382D01*
X0005457409Y0003847966D01*
X0005442455Y0003862921D01*
X0005424870Y0003874670D01*
X0005405332Y0003882763D01*
X0005384590Y0003886889D01*
X0005363441Y0003886889D01*
X0005342699Y0003882763D01*
X0005323160Y0003874670D01*
X0005305576Y0003862921D01*
X0005290622Y0003847966D01*
X0005278872Y0003830382D01*
X0005270779Y0003810843D01*
X0005266653Y0003790101D01*
X0003362874Y0003790101D01*
X0003421073Y0003848300D01*
X0003427968Y0003849672D01*
X0003438909Y0003854204D01*
X0003448756Y0003860783D01*
X0003457129Y0003869157D01*
X0003463709Y0003879003D01*
X0003468240Y0003889944D01*
X0003470551Y0003901559D01*
X0003470551Y0003908307D01*
X0003533223Y0003908307D01*
X0003536881Y0003899476D01*
X0003543460Y0003889629D01*
X0003551834Y0003881255D01*
X0003561680Y0003874676D01*
X0003572621Y0003870144D01*
X0003584236Y0003867834D01*
X0003596078Y0003867834D01*
X0003607693Y0003870144D01*
X0003618634Y0003874676D01*
X0003628480Y0003881255D01*
X0003636854Y0003889629D01*
X0003643433Y0003899476D01*
X0003647965Y0003910416D01*
X0003650275Y0003922031D01*
X0003650275Y0003933873D01*
X0003647965Y0003945488D01*
X0003643433Y0003956429D01*
X0003636854Y0003966275D01*
X0003632800Y0003970329D01*
X0005364173Y0003970393D01*
X0010682795Y0003970393D01*
X0010682795Y0003588858D01*
G37*
X0010682795Y0003588858D02*
X0001582712Y0003588858D01*
X0001585582Y0003598317D01*
X0001586653Y0003609196D01*
X0001586653Y0003675842D01*
X0001586538Y0003677007D01*
X0003226905Y0003677007D01*
X0003229330Y0003676769D01*
X0003231755Y0003677007D01*
X0003239008Y0003677722D01*
X0003248315Y0003680545D01*
X0003256891Y0003685129D01*
X0003264409Y0003691299D01*
X0003265955Y0003693183D01*
X0003362874Y0003790101D01*
X0005266653Y0003790101D01*
X0005266653Y0003768953D01*
X0005270779Y0003748211D01*
X0005278872Y0003728672D01*
X0005290622Y0003711088D01*
X0005305576Y0003696133D01*
X0005323160Y0003684384D01*
X0005342699Y0003676291D01*
X0005363441Y0003672165D01*
X0005384590Y0003672165D01*
X0005405332Y0003676291D01*
X0005424870Y0003684384D01*
X0005442455Y0003696133D01*
X0005457409Y0003711088D01*
X0005469158Y0003728672D01*
X0005477252Y0003748211D01*
X0005481377Y0003768953D01*
X0005481377Y0003790101D01*
X0010266653Y0003790101D01*
X0010266653Y0003768953D01*
X0010270779Y0003748211D01*
X0010278872Y0003728672D01*
X0010290622Y0003711088D01*
X0010305576Y0003696133D01*
X0010323160Y0003684384D01*
X0010342699Y0003676291D01*
X0010363441Y0003672165D01*
X0010384590Y0003672165D01*
X0010405332Y0003676291D01*
X0010424870Y0003684384D01*
X0010442455Y0003696133D01*
X0010457409Y0003711088D01*
X0010469158Y0003728672D01*
X0010477252Y0003748211D01*
X0010481377Y0003768953D01*
X0010481377Y0003790101D01*
X0010477252Y0003810843D01*
X0010469158Y0003830382D01*
X0010457409Y0003847966D01*
X0010442455Y0003862921D01*
X0010424870Y0003874670D01*
X0010405332Y0003882763D01*
X0010384590Y0003886889D01*
X0010363441Y0003886889D01*
X0010342699Y0003882763D01*
X0010323160Y0003874670D01*
X0010305576Y0003862921D01*
X0010290622Y0003847966D01*
X0010278872Y0003830382D01*
X0010270779Y0003810843D01*
X0010266653Y0003790101D01*
X0005481377Y0003790101D01*
X0005477252Y0003810843D01*
X0005469158Y0003830382D01*
X0005457409Y0003847966D01*
X0005442455Y0003862921D01*
X0005424870Y0003874670D01*
X0005405332Y0003882763D01*
X0005384590Y0003886889D01*
X0005363441Y0003886889D01*
X0005342699Y0003882763D01*
X0005323160Y0003874670D01*
X0005305576Y0003862921D01*
X0005290622Y0003847966D01*
X0005278872Y0003830382D01*
X0005270779Y0003810843D01*
X0005266653Y0003790101D01*
X0003362874Y0003790101D01*
X0003421073Y0003848300D01*
X0003427968Y0003849672D01*
X0003438909Y0003854204D01*
X0003448756Y0003860783D01*
X0003457129Y0003869157D01*
X0003463709Y0003879003D01*
X0003468240Y0003889944D01*
X0003470551Y0003901559D01*
X0003470551Y0003908307D01*
X0003533223Y0003908307D01*
X0003536881Y0003899476D01*
X0003543460Y0003889629D01*
X0003551834Y0003881255D01*
X0003561680Y0003874676D01*
X0003572621Y0003870144D01*
X0003584236Y0003867834D01*
X0003596078Y0003867834D01*
X0003607693Y0003870144D01*
X0003618634Y0003874676D01*
X0003628480Y0003881255D01*
X0003636854Y0003889629D01*
X0003643433Y0003899476D01*
X0003647965Y0003910416D01*
X0003650275Y0003922031D01*
X0003650275Y0003933873D01*
X0003647965Y0003945488D01*
X0003643433Y0003956429D01*
X0003636854Y0003966275D01*
X0003632800Y0003970329D01*
X0005364173Y0003970393D01*
X0010682795Y0003970393D01*
X0010682795Y0003588858D01*
G36*
X0000923975Y0003965223D02*
G01*
X0000920984Y0003950185D01*
X0000920984Y0003934853D01*
X0000923975Y0003919816D01*
X0000929842Y0003905651D01*
X0000938360Y0003892902D01*
X0000949202Y0003882061D01*
X0000961950Y0003873543D01*
X0000976115Y0003867676D01*
X0000978089Y0003867283D01*
X0000819548Y0003867283D01*
X0000821522Y0003867676D01*
X0000835687Y0003873543D01*
X0000848435Y0003882061D01*
X0000859277Y0003892902D01*
X0000867795Y0003905651D01*
X0000873662Y0003919816D01*
X0000876653Y0003934853D01*
X0000876653Y0003950185D01*
X0000873662Y0003965223D01*
X0000871589Y0003970227D01*
X0000926049Y0003970229D01*
X0000923975Y0003965223D01*
G37*
X0000923975Y0003965223D02*
X0000920984Y0003950185D01*
X0000920984Y0003934853D01*
X0000923975Y0003919816D01*
X0000929842Y0003905651D01*
X0000938360Y0003892902D01*
X0000949202Y0003882061D01*
X0000961950Y0003873543D01*
X0000976115Y0003867676D01*
X0000978089Y0003867283D01*
X0000819548Y0003867283D01*
X0000821522Y0003867676D01*
X0000835687Y0003873543D01*
X0000848435Y0003882061D01*
X0000859277Y0003892902D01*
X0000867795Y0003905651D01*
X0000873662Y0003919816D01*
X0000876653Y0003934853D01*
X0000876653Y0003950185D01*
X0000873662Y0003965223D01*
X0000871589Y0003970227D01*
X0000926049Y0003970229D01*
X0000923975Y0003965223D01*
G36*
X0001249473Y0003961712D02*
G01*
X0001236712Y0003948951D01*
X0001226686Y0003933946D01*
X0001219780Y0003917274D01*
X0001216259Y0003899574D01*
X0001216259Y0003881527D01*
X0001219093Y0003867283D01*
X0001019548Y0003867283D01*
X0001021522Y0003867676D01*
X0001035687Y0003873543D01*
X0001048435Y0003882061D01*
X0001059277Y0003892902D01*
X0001067795Y0003905651D01*
X0001073662Y0003919816D01*
X0001076653Y0003934853D01*
X0001076653Y0003950185D01*
X0001073662Y0003965223D01*
X0001071586Y0003970235D01*
X0001262238Y0003970242D01*
X0001249473Y0003961712D01*
G37*
X0001249473Y0003961712D02*
X0001236712Y0003948951D01*
X0001226686Y0003933946D01*
X0001219780Y0003917274D01*
X0001216259Y0003899574D01*
X0001216259Y0003881527D01*
X0001219093Y0003867283D01*
X0001019548Y0003867283D01*
X0001021522Y0003867676D01*
X0001035687Y0003873543D01*
X0001048435Y0003882061D01*
X0001059277Y0003892902D01*
X0001067795Y0003905651D01*
X0001073662Y0003919816D01*
X0001076653Y0003934853D01*
X0001076653Y0003950185D01*
X0001073662Y0003965223D01*
X0001071586Y0003970235D01*
X0001262238Y0003970242D01*
X0001249473Y0003961712D01*
G36*
X0002217739Y0003867283D02*
G01*
X0001396654Y0003867283D01*
X0001399488Y0003881527D01*
X0001399488Y0003899574D01*
X0001395967Y0003917274D01*
X0001389061Y0003933946D01*
X0001379035Y0003948951D01*
X0001366274Y0003961712D01*
X0001353504Y0003970245D01*
X0002320736Y0003970281D01*
X0002217739Y0003867283D01*
G37*
X0002217739Y0003867283D02*
X0001396654Y0003867283D01*
X0001399488Y0003881527D01*
X0001399488Y0003899574D01*
X0001395967Y0003917274D01*
X0001389061Y0003933946D01*
X0001379035Y0003948951D01*
X0001366274Y0003961712D01*
X0001353504Y0003970245D01*
X0002320736Y0003970281D01*
X0002217739Y0003867283D01*
G04 next file*
G04 #@! TF.GenerationSoftware,KiCad,Pcbnew,(5.1.5-0)*
G04 #@! TF.CreationDate,2020-08-20T15:01:18-04:00*
G04 #@! TF.ProjectId,LEDIO,4c454449-4f2e-46b6-9963-61645f706362,rev?*
G04 #@! TF.SameCoordinates,Original*
G04 #@! TF.FileFunction,Copper,L2,Bot*
G04 #@! TF.FilePolarity,Positive*
G04 Gerber Fmt 4.6, Leading zero omitted, Abs format (unit mm)*
G04 Created by KiCad (PCBNEW (5.1.5-0)) date 2020-08-20 15:01:18*
G04 APERTURE LIST*
G04 APERTURE END LIST*
D62*
X-0000482283Y0009094488D02*
X0001307874Y0004193700D03*
D63*
X0001429921Y0004233070D03*
X0001512598Y0004233070D03*
X0001174015Y0004233070D03*
X0001548031Y0004520472D03*
X0001162204Y0004520472D03*
D64*
X0000598818Y0004533070D03*
D65*
X0000698818Y0004533070D03*
X0000798818Y0004533070D03*
X0000898818Y0004533070D03*
X0000998818Y0004533070D03*
D66*
X0002407480Y0004250984D03*
X0001879921Y0004203740D03*
X0000744488Y0004314960D03*
X0002464566Y0004414370D03*
X0003410433Y0004498031D03*
X0003590157Y0004518503D03*
D67*
X0001098425Y0004456692D02*
X0001162204Y0004520472D01*
X0000935433Y0004456692D02*
X0001098425Y0004456692D01*
X0000898818Y0004493307D02*
X0000935433Y0004456692D01*
X0000898818Y0004533070D02*
X0000898818Y0004493307D01*
X0001472047Y0004520472D02*
X0001548031Y0004520472D01*
X0001431889Y0004560629D02*
X0001472047Y0004520472D01*
X0001239763Y0004560629D02*
X0001431889Y0004560629D01*
X0001199606Y0004520472D02*
X0001239763Y0004560629D01*
X0001162204Y0004520472D02*
X0001199606Y0004520472D01*
X0000744488Y0004314960D02*
X0000792716Y0004363188D01*
X0002413385Y0004363188D02*
X0002405511Y0004363188D01*
X0002464566Y0004414370D02*
X0002413385Y0004363188D01*
X0000792716Y0004363188D02*
X0002405511Y0004363188D01*
X0001390551Y0004193700D02*
X0001429921Y0004233070D01*
X0001307874Y0004193700D02*
X0001390551Y0004193700D01*
X0001307874Y0004257480D02*
X0001307874Y0004193700D01*
X0001248425Y0004316929D02*
X0001307874Y0004257480D01*
X0000831889Y0004316929D02*
X0001248425Y0004316929D01*
X0000784251Y0004269291D02*
X0000831889Y0004316929D01*
X0000716141Y0004269291D02*
X0000784251Y0004269291D01*
X0000598818Y0004386614D02*
X0000716141Y0004269291D01*
X0000598818Y0004533070D02*
X0000598818Y0004386614D01*
X0003229330Y0004316929D02*
X0003410433Y0004498031D01*
X0001448031Y0004316929D02*
X0003229330Y0004316929D01*
X0001429921Y0004298818D02*
X0001448031Y0004316929D01*
X0001429921Y0004233070D02*
X0001429921Y0004298818D01*
X0003564173Y0004544488D02*
X0003590157Y0004518503D01*
X0003563779Y0004544488D02*
X0003564173Y0004544488D01*
X0003560039Y0004548228D02*
X0003563779Y0004544488D01*
X0002377952Y0004548228D02*
X0003560039Y0004548228D01*
X0002238188Y0004408464D02*
X0002377952Y0004548228D01*
X0000698818Y0004490551D02*
X0000780905Y0004408464D01*
X0000780905Y0004408464D02*
X0002238188Y0004408464D01*
X0000698818Y0004533070D02*
X0000698818Y0004490551D01*
G36*
X0000520769Y0004499606D02*
G01*
X0000521626Y0004490908D01*
X0000524163Y0004482544D01*
X0000528283Y0004474836D01*
X0000533828Y0004468080D01*
X0000540584Y0004462535D01*
X0000548292Y0004458415D01*
X0000549448Y0004458064D01*
X0000549448Y0004389039D01*
X0000549209Y0004386614D01*
X0000550163Y0004376935D01*
X0000552986Y0004367629D01*
X0000557570Y0004359052D01*
X0000557732Y0004358855D01*
X0000563740Y0004351535D01*
X0000565624Y0004349989D01*
X0000679516Y0004236096D01*
X0000681062Y0004234212D01*
X0000688580Y0004228043D01*
X0000697157Y0004223458D01*
X0000706463Y0004220635D01*
X0000713716Y0004219921D01*
X0000713716Y0004219921D01*
X0000716141Y0004219682D01*
X0000718566Y0004219921D01*
X0000781826Y0004219921D01*
X0000784251Y0004219682D01*
X0000786677Y0004219921D01*
X0000793930Y0004220635D01*
X0000803236Y0004223458D01*
X0000811813Y0004228043D01*
X0000819330Y0004234212D01*
X0000820877Y0004236096D01*
X0000852339Y0004267559D01*
X0001227975Y0004267559D01*
X0001238876Y0004256658D01*
X0001236847Y0004255573D01*
X0001225570Y0004246319D01*
X0001216316Y0004235042D01*
X0001209439Y0004222177D01*
X0001205205Y0004208218D01*
X0001203775Y0004193700D01*
X0001205183Y0004179409D01*
X0000045551Y0004179409D01*
X0000045551Y0004380652D01*
X0000266653Y0004380652D01*
X0000266653Y0004359504D01*
X0000270779Y0004338762D01*
X0000278872Y0004319223D01*
X0000290622Y0004301639D01*
X0000305576Y0004286685D01*
X0000323160Y0004274935D01*
X0000342699Y0004266842D01*
X0000363441Y0004262716D01*
X0000384590Y0004262716D01*
X0000405332Y0004266842D01*
X0000424870Y0004274935D01*
X0000442455Y0004286685D01*
X0000457409Y0004301639D01*
X0000469158Y0004319223D01*
X0000477252Y0004338762D01*
X0000481377Y0004359504D01*
X0000481377Y0004380652D01*
X0000477252Y0004401395D01*
X0000469158Y0004420933D01*
X0000457409Y0004438518D01*
X0000442455Y0004453472D01*
X0000424870Y0004465221D01*
X0000405332Y0004473315D01*
X0000384590Y0004477440D01*
X0000363441Y0004477440D01*
X0000342699Y0004473315D01*
X0000323160Y0004465221D01*
X0000305576Y0004453472D01*
X0000290622Y0004438518D01*
X0000278872Y0004420933D01*
X0000270779Y0004401395D01*
X0000266653Y0004380652D01*
X0000045551Y0004380652D01*
X0000045551Y0004560748D01*
X0000520769Y0004560765D01*
X0000520769Y0004499606D01*
G37*
X0000520769Y0004499606D02*
X0000521626Y0004490908D01*
X0000524163Y0004482544D01*
X0000528283Y0004474836D01*
X0000533828Y0004468080D01*
X0000540584Y0004462535D01*
X0000548292Y0004458415D01*
X0000549448Y0004458064D01*
X0000549448Y0004389039D01*
X0000549209Y0004386614D01*
X0000550163Y0004376935D01*
X0000552986Y0004367629D01*
X0000557570Y0004359052D01*
X0000557732Y0004358855D01*
X0000563740Y0004351535D01*
X0000565624Y0004349989D01*
X0000679516Y0004236096D01*
X0000681062Y0004234212D01*
X0000688580Y0004228043D01*
X0000697157Y0004223458D01*
X0000706463Y0004220635D01*
X0000713716Y0004219921D01*
X0000713716Y0004219921D01*
X0000716141Y0004219682D01*
X0000718566Y0004219921D01*
X0000781826Y0004219921D01*
X0000784251Y0004219682D01*
X0000786677Y0004219921D01*
X0000793930Y0004220635D01*
X0000803236Y0004223458D01*
X0000811813Y0004228043D01*
X0000819330Y0004234212D01*
X0000820877Y0004236096D01*
X0000852339Y0004267559D01*
X0001227975Y0004267559D01*
X0001238876Y0004256658D01*
X0001236847Y0004255573D01*
X0001225570Y0004246319D01*
X0001216316Y0004235042D01*
X0001209439Y0004222177D01*
X0001205205Y0004208218D01*
X0001203775Y0004193700D01*
X0001205183Y0004179409D01*
X0000045551Y0004179409D01*
X0000045551Y0004380652D01*
X0000266653Y0004380652D01*
X0000266653Y0004359504D01*
X0000270779Y0004338762D01*
X0000278872Y0004319223D01*
X0000290622Y0004301639D01*
X0000305576Y0004286685D01*
X0000323160Y0004274935D01*
X0000342699Y0004266842D01*
X0000363441Y0004262716D01*
X0000384590Y0004262716D01*
X0000405332Y0004266842D01*
X0000424870Y0004274935D01*
X0000442455Y0004286685D01*
X0000457409Y0004301639D01*
X0000469158Y0004319223D01*
X0000477252Y0004338762D01*
X0000481377Y0004359504D01*
X0000481377Y0004380652D01*
X0000477252Y0004401395D01*
X0000469158Y0004420933D01*
X0000457409Y0004438518D01*
X0000442455Y0004453472D01*
X0000424870Y0004465221D01*
X0000405332Y0004473315D01*
X0000384590Y0004477440D01*
X0000363441Y0004477440D01*
X0000342699Y0004473315D01*
X0000323160Y0004465221D01*
X0000305576Y0004453472D01*
X0000290622Y0004438518D01*
X0000278872Y0004420933D01*
X0000270779Y0004401395D01*
X0000266653Y0004380652D01*
X0000045551Y0004380652D01*
X0000045551Y0004560748D01*
X0000520769Y0004560765D01*
X0000520769Y0004499606D01*
G36*
X0010682795Y0004179409D02*
G01*
X0001582712Y0004179409D01*
X0001585582Y0004188868D01*
X0001586653Y0004199747D01*
X0001586653Y0004266393D01*
X0001586538Y0004267559D01*
X0003226905Y0004267559D01*
X0003229330Y0004267320D01*
X0003231755Y0004267559D01*
X0003239008Y0004268273D01*
X0003248315Y0004271096D01*
X0003256891Y0004275680D01*
X0003264409Y0004281850D01*
X0003265955Y0004283734D01*
X0003362874Y0004380652D01*
X0005266653Y0004380652D01*
X0005266653Y0004359504D01*
X0005270779Y0004338762D01*
X0005278872Y0004319223D01*
X0005290622Y0004301639D01*
X0005305576Y0004286685D01*
X0005323160Y0004274935D01*
X0005342699Y0004266842D01*
X0005363441Y0004262716D01*
X0005384590Y0004262716D01*
X0005405332Y0004266842D01*
X0005424870Y0004274935D01*
X0005442455Y0004286685D01*
X0005457409Y0004301639D01*
X0005469158Y0004319223D01*
X0005477252Y0004338762D01*
X0005481377Y0004359504D01*
X0005481377Y0004380652D01*
X0010266653Y0004380652D01*
X0010266653Y0004359504D01*
X0010270779Y0004338762D01*
X0010278872Y0004319223D01*
X0010290622Y0004301639D01*
X0010305576Y0004286685D01*
X0010323160Y0004274935D01*
X0010342699Y0004266842D01*
X0010363441Y0004262716D01*
X0010384590Y0004262716D01*
X0010405332Y0004266842D01*
X0010424870Y0004274935D01*
X0010442455Y0004286685D01*
X0010457409Y0004301639D01*
X0010469158Y0004319223D01*
X0010477252Y0004338762D01*
X0010481377Y0004359504D01*
X0010481377Y0004380652D01*
X0010477252Y0004401395D01*
X0010469158Y0004420933D01*
X0010457409Y0004438518D01*
X0010442455Y0004453472D01*
X0010424870Y0004465221D01*
X0010405332Y0004473315D01*
X0010384590Y0004477440D01*
X0010363441Y0004477440D01*
X0010342699Y0004473315D01*
X0010323160Y0004465221D01*
X0010305576Y0004453472D01*
X0010290622Y0004438518D01*
X0010278872Y0004420933D01*
X0010270779Y0004401395D01*
X0010266653Y0004380652D01*
X0005481377Y0004380652D01*
X0005477252Y0004401395D01*
X0005469158Y0004420933D01*
X0005457409Y0004438518D01*
X0005442455Y0004453472D01*
X0005424870Y0004465221D01*
X0005405332Y0004473315D01*
X0005384590Y0004477440D01*
X0005363441Y0004477440D01*
X0005342699Y0004473315D01*
X0005323160Y0004465221D01*
X0005305576Y0004453472D01*
X0005290622Y0004438518D01*
X0005278872Y0004420933D01*
X0005270779Y0004401395D01*
X0005266653Y0004380652D01*
X0003362874Y0004380652D01*
X0003421073Y0004438852D01*
X0003427968Y0004440223D01*
X0003438909Y0004444755D01*
X0003448756Y0004451334D01*
X0003457129Y0004459708D01*
X0003463709Y0004469554D01*
X0003468240Y0004480495D01*
X0003470551Y0004492110D01*
X0003470551Y0004498858D01*
X0003533223Y0004498858D01*
X0003536881Y0004490027D01*
X0003543460Y0004480180D01*
X0003551834Y0004471807D01*
X0003561680Y0004465227D01*
X0003572621Y0004460696D01*
X0003584236Y0004458385D01*
X0003596078Y0004458385D01*
X0003607693Y0004460696D01*
X0003618634Y0004465227D01*
X0003628480Y0004471807D01*
X0003636854Y0004480180D01*
X0003643433Y0004490027D01*
X0003647965Y0004500968D01*
X0003650275Y0004512582D01*
X0003650275Y0004524425D01*
X0003647965Y0004536039D01*
X0003643433Y0004546980D01*
X0003636854Y0004556827D01*
X0003632800Y0004560880D01*
X0005364173Y0004560944D01*
X0010682795Y0004560944D01*
X0010682795Y0004179409D01*
G37*
X0010682795Y0004179409D02*
X0001582712Y0004179409D01*
X0001585582Y0004188868D01*
X0001586653Y0004199747D01*
X0001586653Y0004266393D01*
X0001586538Y0004267559D01*
X0003226905Y0004267559D01*
X0003229330Y0004267320D01*
X0003231755Y0004267559D01*
X0003239008Y0004268273D01*
X0003248315Y0004271096D01*
X0003256891Y0004275680D01*
X0003264409Y0004281850D01*
X0003265955Y0004283734D01*
X0003362874Y0004380652D01*
X0005266653Y0004380652D01*
X0005266653Y0004359504D01*
X0005270779Y0004338762D01*
X0005278872Y0004319223D01*
X0005290622Y0004301639D01*
X0005305576Y0004286685D01*
X0005323160Y0004274935D01*
X0005342699Y0004266842D01*
X0005363441Y0004262716D01*
X0005384590Y0004262716D01*
X0005405332Y0004266842D01*
X0005424870Y0004274935D01*
X0005442455Y0004286685D01*
X0005457409Y0004301639D01*
X0005469158Y0004319223D01*
X0005477252Y0004338762D01*
X0005481377Y0004359504D01*
X0005481377Y0004380652D01*
X0010266653Y0004380652D01*
X0010266653Y0004359504D01*
X0010270779Y0004338762D01*
X0010278872Y0004319223D01*
X0010290622Y0004301639D01*
X0010305576Y0004286685D01*
X0010323160Y0004274935D01*
X0010342699Y0004266842D01*
X0010363441Y0004262716D01*
X0010384590Y0004262716D01*
X0010405332Y0004266842D01*
X0010424870Y0004274935D01*
X0010442455Y0004286685D01*
X0010457409Y0004301639D01*
X0010469158Y0004319223D01*
X0010477252Y0004338762D01*
X0010481377Y0004359504D01*
X0010481377Y0004380652D01*
X0010477252Y0004401395D01*
X0010469158Y0004420933D01*
X0010457409Y0004438518D01*
X0010442455Y0004453472D01*
X0010424870Y0004465221D01*
X0010405332Y0004473315D01*
X0010384590Y0004477440D01*
X0010363441Y0004477440D01*
X0010342699Y0004473315D01*
X0010323160Y0004465221D01*
X0010305576Y0004453472D01*
X0010290622Y0004438518D01*
X0010278872Y0004420933D01*
X0010270779Y0004401395D01*
X0010266653Y0004380652D01*
X0005481377Y0004380652D01*
X0005477252Y0004401395D01*
X0005469158Y0004420933D01*
X0005457409Y0004438518D01*
X0005442455Y0004453472D01*
X0005424870Y0004465221D01*
X0005405332Y0004473315D01*
X0005384590Y0004477440D01*
X0005363441Y0004477440D01*
X0005342699Y0004473315D01*
X0005323160Y0004465221D01*
X0005305576Y0004453472D01*
X0005290622Y0004438518D01*
X0005278872Y0004420933D01*
X0005270779Y0004401395D01*
X0005266653Y0004380652D01*
X0003362874Y0004380652D01*
X0003421073Y0004438852D01*
X0003427968Y0004440223D01*
X0003438909Y0004444755D01*
X0003448756Y0004451334D01*
X0003457129Y0004459708D01*
X0003463709Y0004469554D01*
X0003468240Y0004480495D01*
X0003470551Y0004492110D01*
X0003470551Y0004498858D01*
X0003533223Y0004498858D01*
X0003536881Y0004490027D01*
X0003543460Y0004480180D01*
X0003551834Y0004471807D01*
X0003561680Y0004465227D01*
X0003572621Y0004460696D01*
X0003584236Y0004458385D01*
X0003596078Y0004458385D01*
X0003607693Y0004460696D01*
X0003618634Y0004465227D01*
X0003628480Y0004471807D01*
X0003636854Y0004480180D01*
X0003643433Y0004490027D01*
X0003647965Y0004500968D01*
X0003650275Y0004512582D01*
X0003650275Y0004524425D01*
X0003647965Y0004536039D01*
X0003643433Y0004546980D01*
X0003636854Y0004556827D01*
X0003632800Y0004560880D01*
X0005364173Y0004560944D01*
X0010682795Y0004560944D01*
X0010682795Y0004179409D01*
G36*
X0000923975Y0004555774D02*
G01*
X0000920984Y0004540736D01*
X0000920984Y0004525404D01*
X0000923975Y0004510367D01*
X0000929842Y0004496202D01*
X0000938360Y0004483454D01*
X0000949202Y0004472612D01*
X0000961950Y0004464094D01*
X0000976115Y0004458227D01*
X0000978089Y0004457834D01*
X0000819548Y0004457834D01*
X0000821522Y0004458227D01*
X0000835687Y0004464094D01*
X0000848435Y0004472612D01*
X0000859277Y0004483454D01*
X0000867795Y0004496202D01*
X0000873662Y0004510367D01*
X0000876653Y0004525404D01*
X0000876653Y0004540736D01*
X0000873662Y0004555774D01*
X0000871589Y0004560778D01*
X0000926049Y0004560780D01*
X0000923975Y0004555774D01*
G37*
X0000923975Y0004555774D02*
X0000920984Y0004540736D01*
X0000920984Y0004525404D01*
X0000923975Y0004510367D01*
X0000929842Y0004496202D01*
X0000938360Y0004483454D01*
X0000949202Y0004472612D01*
X0000961950Y0004464094D01*
X0000976115Y0004458227D01*
X0000978089Y0004457834D01*
X0000819548Y0004457834D01*
X0000821522Y0004458227D01*
X0000835687Y0004464094D01*
X0000848435Y0004472612D01*
X0000859277Y0004483454D01*
X0000867795Y0004496202D01*
X0000873662Y0004510367D01*
X0000876653Y0004525404D01*
X0000876653Y0004540736D01*
X0000873662Y0004555774D01*
X0000871589Y0004560778D01*
X0000926049Y0004560780D01*
X0000923975Y0004555774D01*
G36*
X0001249473Y0004552263D02*
G01*
X0001236712Y0004539502D01*
X0001226686Y0004524497D01*
X0001219780Y0004507825D01*
X0001216259Y0004490125D01*
X0001216259Y0004472079D01*
X0001219093Y0004457834D01*
X0001019548Y0004457834D01*
X0001021522Y0004458227D01*
X0001035687Y0004464094D01*
X0001048435Y0004472612D01*
X0001059277Y0004483454D01*
X0001067795Y0004496202D01*
X0001073662Y0004510367D01*
X0001076653Y0004525404D01*
X0001076653Y0004540736D01*
X0001073662Y0004555774D01*
X0001071586Y0004560786D01*
X0001262238Y0004560793D01*
X0001249473Y0004552263D01*
G37*
X0001249473Y0004552263D02*
X0001236712Y0004539502D01*
X0001226686Y0004524497D01*
X0001219780Y0004507825D01*
X0001216259Y0004490125D01*
X0001216259Y0004472079D01*
X0001219093Y0004457834D01*
X0001019548Y0004457834D01*
X0001021522Y0004458227D01*
X0001035687Y0004464094D01*
X0001048435Y0004472612D01*
X0001059277Y0004483454D01*
X0001067795Y0004496202D01*
X0001073662Y0004510367D01*
X0001076653Y0004525404D01*
X0001076653Y0004540736D01*
X0001073662Y0004555774D01*
X0001071586Y0004560786D01*
X0001262238Y0004560793D01*
X0001249473Y0004552263D01*
G36*
X0002217739Y0004457834D02*
G01*
X0001396654Y0004457834D01*
X0001399488Y0004472079D01*
X0001399488Y0004490125D01*
X0001395967Y0004507825D01*
X0001389061Y0004524497D01*
X0001379035Y0004539502D01*
X0001366274Y0004552263D01*
X0001353504Y0004560796D01*
X0002320736Y0004560832D01*
X0002217739Y0004457834D01*
G37*
X0002217739Y0004457834D02*
X0001396654Y0004457834D01*
X0001399488Y0004472079D01*
X0001399488Y0004490125D01*
X0001395967Y0004507825D01*
X0001389061Y0004524497D01*
X0001379035Y0004539502D01*
X0001366274Y0004552263D01*
X0001353504Y0004560796D01*
X0002320736Y0004560832D01*
X0002217739Y0004457834D01*
G04 next file*
G04 #@! TF.GenerationSoftware,KiCad,Pcbnew,(5.1.5-0)*
G04 #@! TF.CreationDate,2020-08-20T15:01:18-04:00*
G04 #@! TF.ProjectId,LEDIO,4c454449-4f2e-46b6-9963-61645f706362,rev?*
G04 #@! TF.SameCoordinates,Original*
G04 #@! TF.FileFunction,Copper,L2,Bot*
G04 #@! TF.FilePolarity,Positive*
G04 Gerber Fmt 4.6, Leading zero omitted, Abs format (unit mm)*
G04 Created by KiCad (PCBNEW (5.1.5-0)) date 2020-08-20 15:01:18*
G04 APERTURE LIST*
G04 APERTURE END LIST*
D68*
X-0000482283Y0009685039D02*
X0001307874Y0004784251D03*
D69*
X0001429921Y0004823622D03*
X0001512598Y0004823622D03*
X0001174015Y0004823622D03*
X0001548031Y0005111023D03*
X0001162204Y0005111023D03*
D70*
X0000598818Y0005123622D03*
D71*
X0000698818Y0005123622D03*
X0000798818Y0005123622D03*
X0000898818Y0005123622D03*
X0000998818Y0005123622D03*
D72*
X0002407480Y0004841535D03*
X0001879921Y0004794291D03*
X0000744488Y0004905511D03*
X0002464566Y0005004921D03*
X0003410433Y0005088582D03*
X0003590157Y0005109055D03*
D73*
X0001098425Y0005047244D02*
X0001162204Y0005111023D01*
X0000935433Y0005047244D02*
X0001098425Y0005047244D01*
X0000898818Y0005083858D02*
X0000935433Y0005047244D01*
X0000898818Y0005123622D02*
X0000898818Y0005083858D01*
X0001472047Y0005111023D02*
X0001548031Y0005111023D01*
X0001431889Y0005151181D02*
X0001472047Y0005111023D01*
X0001239763Y0005151181D02*
X0001431889Y0005151181D01*
X0001199606Y0005111023D02*
X0001239763Y0005151181D01*
X0001162204Y0005111023D02*
X0001199606Y0005111023D01*
X0000744488Y0004905511D02*
X0000792716Y0004953740D01*
X0002413385Y0004953740D02*
X0002405511Y0004953740D01*
X0002464566Y0005004921D02*
X0002413385Y0004953740D01*
X0000792716Y0004953740D02*
X0002405511Y0004953740D01*
X0001390551Y0004784251D02*
X0001429921Y0004823622D01*
X0001307874Y0004784251D02*
X0001390551Y0004784251D01*
X0001307874Y0004848031D02*
X0001307874Y0004784251D01*
X0001248425Y0004907480D02*
X0001307874Y0004848031D01*
X0000831889Y0004907480D02*
X0001248425Y0004907480D01*
X0000784251Y0004859842D02*
X0000831889Y0004907480D01*
X0000716141Y0004859842D02*
X0000784251Y0004859842D01*
X0000598818Y0004977165D02*
X0000716141Y0004859842D01*
X0000598818Y0005123622D02*
X0000598818Y0004977165D01*
X0003229330Y0004907480D02*
X0003410433Y0005088582D01*
X0001448031Y0004907480D02*
X0003229330Y0004907480D01*
X0001429921Y0004889370D02*
X0001448031Y0004907480D01*
X0001429921Y0004823622D02*
X0001429921Y0004889370D01*
X0003564173Y0005135039D02*
X0003590157Y0005109055D01*
X0003563779Y0005135039D02*
X0003564173Y0005135039D01*
X0003560039Y0005138779D02*
X0003563779Y0005135039D01*
X0002377952Y0005138779D02*
X0003560039Y0005138779D01*
X0002238188Y0004999015D02*
X0002377952Y0005138779D01*
X0000698818Y0005081102D02*
X0000780905Y0004999015D01*
X0000780905Y0004999015D02*
X0002238188Y0004999015D01*
X0000698818Y0005123622D02*
X0000698818Y0005081102D01*
G36*
X0000520769Y0005090157D02*
G01*
X0000521626Y0005081459D01*
X0000524163Y0005073095D01*
X0000528283Y0005065387D01*
X0000533828Y0005058631D01*
X0000540584Y0005053086D01*
X0000548292Y0005048966D01*
X0000549448Y0005048615D01*
X0000549448Y0004979590D01*
X0000549209Y0004977165D01*
X0000550163Y0004967487D01*
X0000552986Y0004958180D01*
X0000557570Y0004949604D01*
X0000557732Y0004949406D01*
X0000563740Y0004942086D01*
X0000565624Y0004940540D01*
X0000679516Y0004826647D01*
X0000681062Y0004824763D01*
X0000688580Y0004818594D01*
X0000697157Y0004814009D01*
X0000706463Y0004811186D01*
X0000713716Y0004810472D01*
X0000713716Y0004810472D01*
X0000716141Y0004810233D01*
X0000718566Y0004810472D01*
X0000781826Y0004810472D01*
X0000784251Y0004810233D01*
X0000786677Y0004810472D01*
X0000793930Y0004811186D01*
X0000803236Y0004814009D01*
X0000811813Y0004818594D01*
X0000819330Y0004824763D01*
X0000820877Y0004826647D01*
X0000852339Y0004858110D01*
X0001227975Y0004858110D01*
X0001238876Y0004847209D01*
X0001236847Y0004846124D01*
X0001225570Y0004836870D01*
X0001216316Y0004825593D01*
X0001209439Y0004812728D01*
X0001205205Y0004798769D01*
X0001203775Y0004784251D01*
X0001205183Y0004769960D01*
X0000045551Y0004769960D01*
X0000045551Y0004971204D01*
X0000266653Y0004971204D01*
X0000266653Y0004950055D01*
X0000270779Y0004929313D01*
X0000278872Y0004909774D01*
X0000290622Y0004892190D01*
X0000305576Y0004877236D01*
X0000323160Y0004865486D01*
X0000342699Y0004857393D01*
X0000363441Y0004853267D01*
X0000384590Y0004853267D01*
X0000405332Y0004857393D01*
X0000424870Y0004865486D01*
X0000442455Y0004877236D01*
X0000457409Y0004892190D01*
X0000469158Y0004909774D01*
X0000477252Y0004929313D01*
X0000481377Y0004950055D01*
X0000481377Y0004971204D01*
X0000477252Y0004991946D01*
X0000469158Y0005011485D01*
X0000457409Y0005029069D01*
X0000442455Y0005044023D01*
X0000424870Y0005055773D01*
X0000405332Y0005063866D01*
X0000384590Y0005067992D01*
X0000363441Y0005067992D01*
X0000342699Y0005063866D01*
X0000323160Y0005055773D01*
X0000305576Y0005044023D01*
X0000290622Y0005029069D01*
X0000278872Y0005011485D01*
X0000270779Y0004991946D01*
X0000266653Y0004971204D01*
X0000045551Y0004971204D01*
X0000045551Y0005151299D01*
X0000520769Y0005151316D01*
X0000520769Y0005090157D01*
G37*
X0000520769Y0005090157D02*
X0000521626Y0005081459D01*
X0000524163Y0005073095D01*
X0000528283Y0005065387D01*
X0000533828Y0005058631D01*
X0000540584Y0005053086D01*
X0000548292Y0005048966D01*
X0000549448Y0005048615D01*
X0000549448Y0004979590D01*
X0000549209Y0004977165D01*
X0000550163Y0004967487D01*
X0000552986Y0004958180D01*
X0000557570Y0004949604D01*
X0000557732Y0004949406D01*
X0000563740Y0004942086D01*
X0000565624Y0004940540D01*
X0000679516Y0004826647D01*
X0000681062Y0004824763D01*
X0000688580Y0004818594D01*
X0000697157Y0004814009D01*
X0000706463Y0004811186D01*
X0000713716Y0004810472D01*
X0000713716Y0004810472D01*
X0000716141Y0004810233D01*
X0000718566Y0004810472D01*
X0000781826Y0004810472D01*
X0000784251Y0004810233D01*
X0000786677Y0004810472D01*
X0000793930Y0004811186D01*
X0000803236Y0004814009D01*
X0000811813Y0004818594D01*
X0000819330Y0004824763D01*
X0000820877Y0004826647D01*
X0000852339Y0004858110D01*
X0001227975Y0004858110D01*
X0001238876Y0004847209D01*
X0001236847Y0004846124D01*
X0001225570Y0004836870D01*
X0001216316Y0004825593D01*
X0001209439Y0004812728D01*
X0001205205Y0004798769D01*
X0001203775Y0004784251D01*
X0001205183Y0004769960D01*
X0000045551Y0004769960D01*
X0000045551Y0004971204D01*
X0000266653Y0004971204D01*
X0000266653Y0004950055D01*
X0000270779Y0004929313D01*
X0000278872Y0004909774D01*
X0000290622Y0004892190D01*
X0000305576Y0004877236D01*
X0000323160Y0004865486D01*
X0000342699Y0004857393D01*
X0000363441Y0004853267D01*
X0000384590Y0004853267D01*
X0000405332Y0004857393D01*
X0000424870Y0004865486D01*
X0000442455Y0004877236D01*
X0000457409Y0004892190D01*
X0000469158Y0004909774D01*
X0000477252Y0004929313D01*
X0000481377Y0004950055D01*
X0000481377Y0004971204D01*
X0000477252Y0004991946D01*
X0000469158Y0005011485D01*
X0000457409Y0005029069D01*
X0000442455Y0005044023D01*
X0000424870Y0005055773D01*
X0000405332Y0005063866D01*
X0000384590Y0005067992D01*
X0000363441Y0005067992D01*
X0000342699Y0005063866D01*
X0000323160Y0005055773D01*
X0000305576Y0005044023D01*
X0000290622Y0005029069D01*
X0000278872Y0005011485D01*
X0000270779Y0004991946D01*
X0000266653Y0004971204D01*
X0000045551Y0004971204D01*
X0000045551Y0005151299D01*
X0000520769Y0005151316D01*
X0000520769Y0005090157D01*
G36*
X0010682795Y0004769960D02*
G01*
X0001582712Y0004769960D01*
X0001585582Y0004779419D01*
X0001586653Y0004790299D01*
X0001586653Y0004856945D01*
X0001586538Y0004858110D01*
X0003226905Y0004858110D01*
X0003229330Y0004857871D01*
X0003231755Y0004858110D01*
X0003239008Y0004858824D01*
X0003248315Y0004861647D01*
X0003256891Y0004866232D01*
X0003264409Y0004872401D01*
X0003265955Y0004874285D01*
X0003362874Y0004971204D01*
X0005266653Y0004971204D01*
X0005266653Y0004950055D01*
X0005270779Y0004929313D01*
X0005278872Y0004909774D01*
X0005290622Y0004892190D01*
X0005305576Y0004877236D01*
X0005323160Y0004865486D01*
X0005342699Y0004857393D01*
X0005363441Y0004853267D01*
X0005384590Y0004853267D01*
X0005405332Y0004857393D01*
X0005424870Y0004865486D01*
X0005442455Y0004877236D01*
X0005457409Y0004892190D01*
X0005469158Y0004909774D01*
X0005477252Y0004929313D01*
X0005481377Y0004950055D01*
X0005481377Y0004971204D01*
X0010266653Y0004971204D01*
X0010266653Y0004950055D01*
X0010270779Y0004929313D01*
X0010278872Y0004909774D01*
X0010290622Y0004892190D01*
X0010305576Y0004877236D01*
X0010323160Y0004865486D01*
X0010342699Y0004857393D01*
X0010363441Y0004853267D01*
X0010384590Y0004853267D01*
X0010405332Y0004857393D01*
X0010424870Y0004865486D01*
X0010442455Y0004877236D01*
X0010457409Y0004892190D01*
X0010469158Y0004909774D01*
X0010477252Y0004929313D01*
X0010481377Y0004950055D01*
X0010481377Y0004971204D01*
X0010477252Y0004991946D01*
X0010469158Y0005011485D01*
X0010457409Y0005029069D01*
X0010442455Y0005044023D01*
X0010424870Y0005055773D01*
X0010405332Y0005063866D01*
X0010384590Y0005067992D01*
X0010363441Y0005067992D01*
X0010342699Y0005063866D01*
X0010323160Y0005055773D01*
X0010305576Y0005044023D01*
X0010290622Y0005029069D01*
X0010278872Y0005011485D01*
X0010270779Y0004991946D01*
X0010266653Y0004971204D01*
X0005481377Y0004971204D01*
X0005477252Y0004991946D01*
X0005469158Y0005011485D01*
X0005457409Y0005029069D01*
X0005442455Y0005044023D01*
X0005424870Y0005055773D01*
X0005405332Y0005063866D01*
X0005384590Y0005067992D01*
X0005363441Y0005067992D01*
X0005342699Y0005063866D01*
X0005323160Y0005055773D01*
X0005305576Y0005044023D01*
X0005290622Y0005029069D01*
X0005278872Y0005011485D01*
X0005270779Y0004991946D01*
X0005266653Y0004971204D01*
X0003362874Y0004971204D01*
X0003421073Y0005029403D01*
X0003427968Y0005030774D01*
X0003438909Y0005035306D01*
X0003448756Y0005041885D01*
X0003457129Y0005050259D01*
X0003463709Y0005060106D01*
X0003468240Y0005071046D01*
X0003470551Y0005082661D01*
X0003470551Y0005089409D01*
X0003533223Y0005089409D01*
X0003536881Y0005080578D01*
X0003543460Y0005070732D01*
X0003551834Y0005062358D01*
X0003561680Y0005055779D01*
X0003572621Y0005051247D01*
X0003584236Y0005048937D01*
X0003596078Y0005048937D01*
X0003607693Y0005051247D01*
X0003618634Y0005055779D01*
X0003628480Y0005062358D01*
X0003636854Y0005070732D01*
X0003643433Y0005080578D01*
X0003647965Y0005091519D01*
X0003650275Y0005103133D01*
X0003650275Y0005114976D01*
X0003647965Y0005126590D01*
X0003643433Y0005137531D01*
X0003636854Y0005147378D01*
X0003632800Y0005151432D01*
X0005364173Y0005151496D01*
X0010682795Y0005151496D01*
X0010682795Y0004769960D01*
G37*
X0010682795Y0004769960D02*
X0001582712Y0004769960D01*
X0001585582Y0004779419D01*
X0001586653Y0004790299D01*
X0001586653Y0004856945D01*
X0001586538Y0004858110D01*
X0003226905Y0004858110D01*
X0003229330Y0004857871D01*
X0003231755Y0004858110D01*
X0003239008Y0004858824D01*
X0003248315Y0004861647D01*
X0003256891Y0004866232D01*
X0003264409Y0004872401D01*
X0003265955Y0004874285D01*
X0003362874Y0004971204D01*
X0005266653Y0004971204D01*
X0005266653Y0004950055D01*
X0005270779Y0004929313D01*
X0005278872Y0004909774D01*
X0005290622Y0004892190D01*
X0005305576Y0004877236D01*
X0005323160Y0004865486D01*
X0005342699Y0004857393D01*
X0005363441Y0004853267D01*
X0005384590Y0004853267D01*
X0005405332Y0004857393D01*
X0005424870Y0004865486D01*
X0005442455Y0004877236D01*
X0005457409Y0004892190D01*
X0005469158Y0004909774D01*
X0005477252Y0004929313D01*
X0005481377Y0004950055D01*
X0005481377Y0004971204D01*
X0010266653Y0004971204D01*
X0010266653Y0004950055D01*
X0010270779Y0004929313D01*
X0010278872Y0004909774D01*
X0010290622Y0004892190D01*
X0010305576Y0004877236D01*
X0010323160Y0004865486D01*
X0010342699Y0004857393D01*
X0010363441Y0004853267D01*
X0010384590Y0004853267D01*
X0010405332Y0004857393D01*
X0010424870Y0004865486D01*
X0010442455Y0004877236D01*
X0010457409Y0004892190D01*
X0010469158Y0004909774D01*
X0010477252Y0004929313D01*
X0010481377Y0004950055D01*
X0010481377Y0004971204D01*
X0010477252Y0004991946D01*
X0010469158Y0005011485D01*
X0010457409Y0005029069D01*
X0010442455Y0005044023D01*
X0010424870Y0005055773D01*
X0010405332Y0005063866D01*
X0010384590Y0005067992D01*
X0010363441Y0005067992D01*
X0010342699Y0005063866D01*
X0010323160Y0005055773D01*
X0010305576Y0005044023D01*
X0010290622Y0005029069D01*
X0010278872Y0005011485D01*
X0010270779Y0004991946D01*
X0010266653Y0004971204D01*
X0005481377Y0004971204D01*
X0005477252Y0004991946D01*
X0005469158Y0005011485D01*
X0005457409Y0005029069D01*
X0005442455Y0005044023D01*
X0005424870Y0005055773D01*
X0005405332Y0005063866D01*
X0005384590Y0005067992D01*
X0005363441Y0005067992D01*
X0005342699Y0005063866D01*
X0005323160Y0005055773D01*
X0005305576Y0005044023D01*
X0005290622Y0005029069D01*
X0005278872Y0005011485D01*
X0005270779Y0004991946D01*
X0005266653Y0004971204D01*
X0003362874Y0004971204D01*
X0003421073Y0005029403D01*
X0003427968Y0005030774D01*
X0003438909Y0005035306D01*
X0003448756Y0005041885D01*
X0003457129Y0005050259D01*
X0003463709Y0005060106D01*
X0003468240Y0005071046D01*
X0003470551Y0005082661D01*
X0003470551Y0005089409D01*
X0003533223Y0005089409D01*
X0003536881Y0005080578D01*
X0003543460Y0005070732D01*
X0003551834Y0005062358D01*
X0003561680Y0005055779D01*
X0003572621Y0005051247D01*
X0003584236Y0005048937D01*
X0003596078Y0005048937D01*
X0003607693Y0005051247D01*
X0003618634Y0005055779D01*
X0003628480Y0005062358D01*
X0003636854Y0005070732D01*
X0003643433Y0005080578D01*
X0003647965Y0005091519D01*
X0003650275Y0005103133D01*
X0003650275Y0005114976D01*
X0003647965Y0005126590D01*
X0003643433Y0005137531D01*
X0003636854Y0005147378D01*
X0003632800Y0005151432D01*
X0005364173Y0005151496D01*
X0010682795Y0005151496D01*
X0010682795Y0004769960D01*
G36*
X0000923975Y0005146325D02*
G01*
X0000920984Y0005131288D01*
X0000920984Y0005115955D01*
X0000923975Y0005100918D01*
X0000929842Y0005086753D01*
X0000938360Y0005074005D01*
X0000949202Y0005063163D01*
X0000961950Y0005054645D01*
X0000976115Y0005048778D01*
X0000978089Y0005048385D01*
X0000819548Y0005048385D01*
X0000821522Y0005048778D01*
X0000835687Y0005054645D01*
X0000848435Y0005063163D01*
X0000859277Y0005074005D01*
X0000867795Y0005086753D01*
X0000873662Y0005100918D01*
X0000876653Y0005115955D01*
X0000876653Y0005131288D01*
X0000873662Y0005146325D01*
X0000871589Y0005151329D01*
X0000926049Y0005151331D01*
X0000923975Y0005146325D01*
G37*
X0000923975Y0005146325D02*
X0000920984Y0005131288D01*
X0000920984Y0005115955D01*
X0000923975Y0005100918D01*
X0000929842Y0005086753D01*
X0000938360Y0005074005D01*
X0000949202Y0005063163D01*
X0000961950Y0005054645D01*
X0000976115Y0005048778D01*
X0000978089Y0005048385D01*
X0000819548Y0005048385D01*
X0000821522Y0005048778D01*
X0000835687Y0005054645D01*
X0000848435Y0005063163D01*
X0000859277Y0005074005D01*
X0000867795Y0005086753D01*
X0000873662Y0005100918D01*
X0000876653Y0005115955D01*
X0000876653Y0005131288D01*
X0000873662Y0005146325D01*
X0000871589Y0005151329D01*
X0000926049Y0005151331D01*
X0000923975Y0005146325D01*
G36*
X0001249473Y0005142814D02*
G01*
X0001236712Y0005130054D01*
X0001226686Y0005115049D01*
X0001219780Y0005098376D01*
X0001216259Y0005080676D01*
X0001216259Y0005062630D01*
X0001219093Y0005048385D01*
X0001019548Y0005048385D01*
X0001021522Y0005048778D01*
X0001035687Y0005054645D01*
X0001048435Y0005063163D01*
X0001059277Y0005074005D01*
X0001067795Y0005086753D01*
X0001073662Y0005100918D01*
X0001076653Y0005115955D01*
X0001076653Y0005131288D01*
X0001073662Y0005146325D01*
X0001071586Y0005151337D01*
X0001262238Y0005151344D01*
X0001249473Y0005142814D01*
G37*
X0001249473Y0005142814D02*
X0001236712Y0005130054D01*
X0001226686Y0005115049D01*
X0001219780Y0005098376D01*
X0001216259Y0005080676D01*
X0001216259Y0005062630D01*
X0001219093Y0005048385D01*
X0001019548Y0005048385D01*
X0001021522Y0005048778D01*
X0001035687Y0005054645D01*
X0001048435Y0005063163D01*
X0001059277Y0005074005D01*
X0001067795Y0005086753D01*
X0001073662Y0005100918D01*
X0001076653Y0005115955D01*
X0001076653Y0005131288D01*
X0001073662Y0005146325D01*
X0001071586Y0005151337D01*
X0001262238Y0005151344D01*
X0001249473Y0005142814D01*
G36*
X0002217739Y0005048385D02*
G01*
X0001396654Y0005048385D01*
X0001399488Y0005062630D01*
X0001399488Y0005080676D01*
X0001395967Y0005098376D01*
X0001389061Y0005115049D01*
X0001379035Y0005130054D01*
X0001366274Y0005142814D01*
X0001353504Y0005151347D01*
X0002320736Y0005151383D01*
X0002217739Y0005048385D01*
G37*
X0002217739Y0005048385D02*
X0001396654Y0005048385D01*
X0001399488Y0005062630D01*
X0001399488Y0005080676D01*
X0001395967Y0005098376D01*
X0001389061Y0005115049D01*
X0001379035Y0005130054D01*
X0001366274Y0005142814D01*
X0001353504Y0005151347D01*
X0002320736Y0005151383D01*
X0002217739Y0005048385D01*
G04 next file*
G04 #@! TF.GenerationSoftware,KiCad,Pcbnew,(5.1.5-0)*
G04 #@! TF.CreationDate,2020-08-20T15:01:18-04:00*
G04 #@! TF.ProjectId,LEDIO,4c454449-4f2e-46b6-9963-61645f706362,rev?*
G04 #@! TF.SameCoordinates,Original*
G04 #@! TF.FileFunction,Copper,L2,Bot*
G04 #@! TF.FilePolarity,Positive*
G04 Gerber Fmt 4.6, Leading zero omitted, Abs format (unit mm)*
G04 Created by KiCad (PCBNEW (5.1.5-0)) date 2020-08-20 15:01:18*
G04 APERTURE LIST*
G04 APERTURE END LIST*
D74*
X-0000482283Y0010275590D02*
X0001307874Y0005374803D03*
D75*
X0001429921Y0005414173D03*
X0001512598Y0005414173D03*
X0001174015Y0005414173D03*
X0001548031Y0005701574D03*
X0001162204Y0005701574D03*
D76*
X0000598818Y0005714173D03*
D77*
X0000698818Y0005714173D03*
X0000798818Y0005714173D03*
X0000898818Y0005714173D03*
X0000998818Y0005714173D03*
D78*
X0002407480Y0005432086D03*
X0001879921Y0005384842D03*
X0000744488Y0005496062D03*
X0002464566Y0005595472D03*
X0003410433Y0005679133D03*
X0003590157Y0005699606D03*
D79*
X0001098425Y0005637795D02*
X0001162204Y0005701574D01*
X0000935433Y0005637795D02*
X0001098425Y0005637795D01*
X0000898818Y0005674409D02*
X0000935433Y0005637795D01*
X0000898818Y0005714173D02*
X0000898818Y0005674409D01*
X0001472047Y0005701574D02*
X0001548031Y0005701574D01*
X0001431889Y0005741732D02*
X0001472047Y0005701574D01*
X0001239763Y0005741732D02*
X0001431889Y0005741732D01*
X0001199606Y0005701574D02*
X0001239763Y0005741732D01*
X0001162204Y0005701574D02*
X0001199606Y0005701574D01*
X0000744488Y0005496062D02*
X0000792716Y0005544291D01*
X0002413385Y0005544291D02*
X0002405511Y0005544291D01*
X0002464566Y0005595472D02*
X0002413385Y0005544291D01*
X0000792716Y0005544291D02*
X0002405511Y0005544291D01*
X0001390551Y0005374803D02*
X0001429921Y0005414173D01*
X0001307874Y0005374803D02*
X0001390551Y0005374803D01*
X0001307874Y0005438582D02*
X0001307874Y0005374803D01*
X0001248425Y0005498031D02*
X0001307874Y0005438582D01*
X0000831889Y0005498031D02*
X0001248425Y0005498031D01*
X0000784251Y0005450393D02*
X0000831889Y0005498031D01*
X0000716141Y0005450393D02*
X0000784251Y0005450393D01*
X0000598818Y0005567716D02*
X0000716141Y0005450393D01*
X0000598818Y0005714173D02*
X0000598818Y0005567716D01*
X0003229330Y0005498031D02*
X0003410433Y0005679133D01*
X0001448031Y0005498031D02*
X0003229330Y0005498031D01*
X0001429921Y0005479921D02*
X0001448031Y0005498031D01*
X0001429921Y0005414173D02*
X0001429921Y0005479921D01*
X0003564173Y0005725590D02*
X0003590157Y0005699606D01*
X0003563779Y0005725590D02*
X0003564173Y0005725590D01*
X0003560039Y0005729330D02*
X0003563779Y0005725590D01*
X0002377952Y0005729330D02*
X0003560039Y0005729330D01*
X0002238188Y0005589566D02*
X0002377952Y0005729330D01*
X0000698818Y0005671653D02*
X0000780905Y0005589566D01*
X0000780905Y0005589566D02*
X0002238188Y0005589566D01*
X0000698818Y0005714173D02*
X0000698818Y0005671653D01*
G36*
X0000520769Y0005680708D02*
G01*
X0000521626Y0005672010D01*
X0000524163Y0005663646D01*
X0000528283Y0005655938D01*
X0000533828Y0005649182D01*
X0000540584Y0005643637D01*
X0000548292Y0005639517D01*
X0000549448Y0005639166D01*
X0000549448Y0005570142D01*
X0000549209Y0005567716D01*
X0000550163Y0005558038D01*
X0000552986Y0005548732D01*
X0000557570Y0005540155D01*
X0000557732Y0005539957D01*
X0000563740Y0005532637D01*
X0000565624Y0005531091D01*
X0000679516Y0005417198D01*
X0000681062Y0005415314D01*
X0000688580Y0005409145D01*
X0000697157Y0005404561D01*
X0000706463Y0005401737D01*
X0000713716Y0005401023D01*
X0000713716Y0005401023D01*
X0000716141Y0005400784D01*
X0000718566Y0005401023D01*
X0000781826Y0005401023D01*
X0000784251Y0005400784D01*
X0000786677Y0005401023D01*
X0000793930Y0005401737D01*
X0000803236Y0005404561D01*
X0000811813Y0005409145D01*
X0000819330Y0005415314D01*
X0000820877Y0005417199D01*
X0000852339Y0005448661D01*
X0001227975Y0005448661D01*
X0001238876Y0005437760D01*
X0001236847Y0005436675D01*
X0001225570Y0005427421D01*
X0001216316Y0005416145D01*
X0001209439Y0005403279D01*
X0001205205Y0005389320D01*
X0001203775Y0005374803D01*
X0001205183Y0005360511D01*
X0000045551Y0005360511D01*
X0000045551Y0005561755D01*
X0000266653Y0005561755D01*
X0000266653Y0005540606D01*
X0000270779Y0005519864D01*
X0000278872Y0005500326D01*
X0000290622Y0005482741D01*
X0000305576Y0005467787D01*
X0000323160Y0005456037D01*
X0000342699Y0005447944D01*
X0000363441Y0005443818D01*
X0000384590Y0005443818D01*
X0000405332Y0005447944D01*
X0000424870Y0005456037D01*
X0000442455Y0005467787D01*
X0000457409Y0005482741D01*
X0000469158Y0005500326D01*
X0000477252Y0005519864D01*
X0000481377Y0005540606D01*
X0000481377Y0005561755D01*
X0000477252Y0005582497D01*
X0000469158Y0005602036D01*
X0000457409Y0005619620D01*
X0000442455Y0005634574D01*
X0000424870Y0005646324D01*
X0000405332Y0005654417D01*
X0000384590Y0005658543D01*
X0000363441Y0005658543D01*
X0000342699Y0005654417D01*
X0000323160Y0005646324D01*
X0000305576Y0005634574D01*
X0000290622Y0005619620D01*
X0000278872Y0005602036D01*
X0000270779Y0005582497D01*
X0000266653Y0005561755D01*
X0000045551Y0005561755D01*
X0000045551Y0005741850D01*
X0000520769Y0005741868D01*
X0000520769Y0005680708D01*
G37*
X0000520769Y0005680708D02*
X0000521626Y0005672010D01*
X0000524163Y0005663646D01*
X0000528283Y0005655938D01*
X0000533828Y0005649182D01*
X0000540584Y0005643637D01*
X0000548292Y0005639517D01*
X0000549448Y0005639166D01*
X0000549448Y0005570142D01*
X0000549209Y0005567716D01*
X0000550163Y0005558038D01*
X0000552986Y0005548732D01*
X0000557570Y0005540155D01*
X0000557732Y0005539957D01*
X0000563740Y0005532637D01*
X0000565624Y0005531091D01*
X0000679516Y0005417198D01*
X0000681062Y0005415314D01*
X0000688580Y0005409145D01*
X0000697157Y0005404561D01*
X0000706463Y0005401737D01*
X0000713716Y0005401023D01*
X0000713716Y0005401023D01*
X0000716141Y0005400784D01*
X0000718566Y0005401023D01*
X0000781826Y0005401023D01*
X0000784251Y0005400784D01*
X0000786677Y0005401023D01*
X0000793930Y0005401737D01*
X0000803236Y0005404561D01*
X0000811813Y0005409145D01*
X0000819330Y0005415314D01*
X0000820877Y0005417199D01*
X0000852339Y0005448661D01*
X0001227975Y0005448661D01*
X0001238876Y0005437760D01*
X0001236847Y0005436675D01*
X0001225570Y0005427421D01*
X0001216316Y0005416145D01*
X0001209439Y0005403279D01*
X0001205205Y0005389320D01*
X0001203775Y0005374803D01*
X0001205183Y0005360511D01*
X0000045551Y0005360511D01*
X0000045551Y0005561755D01*
X0000266653Y0005561755D01*
X0000266653Y0005540606D01*
X0000270779Y0005519864D01*
X0000278872Y0005500326D01*
X0000290622Y0005482741D01*
X0000305576Y0005467787D01*
X0000323160Y0005456037D01*
X0000342699Y0005447944D01*
X0000363441Y0005443818D01*
X0000384590Y0005443818D01*
X0000405332Y0005447944D01*
X0000424870Y0005456037D01*
X0000442455Y0005467787D01*
X0000457409Y0005482741D01*
X0000469158Y0005500326D01*
X0000477252Y0005519864D01*
X0000481377Y0005540606D01*
X0000481377Y0005561755D01*
X0000477252Y0005582497D01*
X0000469158Y0005602036D01*
X0000457409Y0005619620D01*
X0000442455Y0005634574D01*
X0000424870Y0005646324D01*
X0000405332Y0005654417D01*
X0000384590Y0005658543D01*
X0000363441Y0005658543D01*
X0000342699Y0005654417D01*
X0000323160Y0005646324D01*
X0000305576Y0005634574D01*
X0000290622Y0005619620D01*
X0000278872Y0005602036D01*
X0000270779Y0005582497D01*
X0000266653Y0005561755D01*
X0000045551Y0005561755D01*
X0000045551Y0005741850D01*
X0000520769Y0005741868D01*
X0000520769Y0005680708D01*
G36*
X0010682795Y0005360511D02*
G01*
X0001582712Y0005360511D01*
X0001585582Y0005369970D01*
X0001586653Y0005380850D01*
X0001586653Y0005447496D01*
X0001586538Y0005448661D01*
X0003226905Y0005448661D01*
X0003229330Y0005448422D01*
X0003231755Y0005448661D01*
X0003239008Y0005449375D01*
X0003248315Y0005452198D01*
X0003256891Y0005456783D01*
X0003264409Y0005462952D01*
X0003265955Y0005464836D01*
X0003362874Y0005561755D01*
X0005266653Y0005561755D01*
X0005266653Y0005540606D01*
X0005270779Y0005519864D01*
X0005278872Y0005500326D01*
X0005290622Y0005482741D01*
X0005305576Y0005467787D01*
X0005323160Y0005456037D01*
X0005342699Y0005447944D01*
X0005363441Y0005443818D01*
X0005384590Y0005443818D01*
X0005405332Y0005447944D01*
X0005424870Y0005456037D01*
X0005442455Y0005467787D01*
X0005457409Y0005482741D01*
X0005469158Y0005500326D01*
X0005477252Y0005519864D01*
X0005481377Y0005540606D01*
X0005481377Y0005561755D01*
X0010266653Y0005561755D01*
X0010266653Y0005540606D01*
X0010270779Y0005519864D01*
X0010278872Y0005500326D01*
X0010290622Y0005482741D01*
X0010305576Y0005467787D01*
X0010323160Y0005456037D01*
X0010342699Y0005447944D01*
X0010363441Y0005443818D01*
X0010384590Y0005443818D01*
X0010405332Y0005447944D01*
X0010424870Y0005456037D01*
X0010442455Y0005467787D01*
X0010457409Y0005482741D01*
X0010469158Y0005500326D01*
X0010477252Y0005519864D01*
X0010481377Y0005540606D01*
X0010481377Y0005561755D01*
X0010477252Y0005582497D01*
X0010469158Y0005602036D01*
X0010457409Y0005619620D01*
X0010442455Y0005634574D01*
X0010424870Y0005646324D01*
X0010405332Y0005654417D01*
X0010384590Y0005658543D01*
X0010363441Y0005658543D01*
X0010342699Y0005654417D01*
X0010323160Y0005646324D01*
X0010305576Y0005634574D01*
X0010290622Y0005619620D01*
X0010278872Y0005602036D01*
X0010270779Y0005582497D01*
X0010266653Y0005561755D01*
X0005481377Y0005561755D01*
X0005477252Y0005582497D01*
X0005469158Y0005602036D01*
X0005457409Y0005619620D01*
X0005442455Y0005634574D01*
X0005424870Y0005646324D01*
X0005405332Y0005654417D01*
X0005384590Y0005658543D01*
X0005363441Y0005658543D01*
X0005342699Y0005654417D01*
X0005323160Y0005646324D01*
X0005305576Y0005634574D01*
X0005290622Y0005619620D01*
X0005278872Y0005602036D01*
X0005270779Y0005582497D01*
X0005266653Y0005561755D01*
X0003362874Y0005561755D01*
X0003421073Y0005619954D01*
X0003427968Y0005621326D01*
X0003438909Y0005625857D01*
X0003448756Y0005632437D01*
X0003457129Y0005640810D01*
X0003463709Y0005650657D01*
X0003468240Y0005661598D01*
X0003470551Y0005673212D01*
X0003470551Y0005679960D01*
X0003533223Y0005679960D01*
X0003536881Y0005671129D01*
X0003543460Y0005661283D01*
X0003551834Y0005652909D01*
X0003561680Y0005646330D01*
X0003572621Y0005641798D01*
X0003584236Y0005639488D01*
X0003596078Y0005639488D01*
X0003607693Y0005641798D01*
X0003618634Y0005646330D01*
X0003628480Y0005652909D01*
X0003636854Y0005661283D01*
X0003643433Y0005671129D01*
X0003647965Y0005682070D01*
X0003650275Y0005693685D01*
X0003650275Y0005705527D01*
X0003647965Y0005717142D01*
X0003643433Y0005728082D01*
X0003636854Y0005737929D01*
X0003632800Y0005741983D01*
X0005364173Y0005742047D01*
X0010682795Y0005742047D01*
X0010682795Y0005360511D01*
G37*
X0010682795Y0005360511D02*
X0001582712Y0005360511D01*
X0001585582Y0005369970D01*
X0001586653Y0005380850D01*
X0001586653Y0005447496D01*
X0001586538Y0005448661D01*
X0003226905Y0005448661D01*
X0003229330Y0005448422D01*
X0003231755Y0005448661D01*
X0003239008Y0005449375D01*
X0003248315Y0005452198D01*
X0003256891Y0005456783D01*
X0003264409Y0005462952D01*
X0003265955Y0005464836D01*
X0003362874Y0005561755D01*
X0005266653Y0005561755D01*
X0005266653Y0005540606D01*
X0005270779Y0005519864D01*
X0005278872Y0005500326D01*
X0005290622Y0005482741D01*
X0005305576Y0005467787D01*
X0005323160Y0005456037D01*
X0005342699Y0005447944D01*
X0005363441Y0005443818D01*
X0005384590Y0005443818D01*
X0005405332Y0005447944D01*
X0005424870Y0005456037D01*
X0005442455Y0005467787D01*
X0005457409Y0005482741D01*
X0005469158Y0005500326D01*
X0005477252Y0005519864D01*
X0005481377Y0005540606D01*
X0005481377Y0005561755D01*
X0010266653Y0005561755D01*
X0010266653Y0005540606D01*
X0010270779Y0005519864D01*
X0010278872Y0005500326D01*
X0010290622Y0005482741D01*
X0010305576Y0005467787D01*
X0010323160Y0005456037D01*
X0010342699Y0005447944D01*
X0010363441Y0005443818D01*
X0010384590Y0005443818D01*
X0010405332Y0005447944D01*
X0010424870Y0005456037D01*
X0010442455Y0005467787D01*
X0010457409Y0005482741D01*
X0010469158Y0005500326D01*
X0010477252Y0005519864D01*
X0010481377Y0005540606D01*
X0010481377Y0005561755D01*
X0010477252Y0005582497D01*
X0010469158Y0005602036D01*
X0010457409Y0005619620D01*
X0010442455Y0005634574D01*
X0010424870Y0005646324D01*
X0010405332Y0005654417D01*
X0010384590Y0005658543D01*
X0010363441Y0005658543D01*
X0010342699Y0005654417D01*
X0010323160Y0005646324D01*
X0010305576Y0005634574D01*
X0010290622Y0005619620D01*
X0010278872Y0005602036D01*
X0010270779Y0005582497D01*
X0010266653Y0005561755D01*
X0005481377Y0005561755D01*
X0005477252Y0005582497D01*
X0005469158Y0005602036D01*
X0005457409Y0005619620D01*
X0005442455Y0005634574D01*
X0005424870Y0005646324D01*
X0005405332Y0005654417D01*
X0005384590Y0005658543D01*
X0005363441Y0005658543D01*
X0005342699Y0005654417D01*
X0005323160Y0005646324D01*
X0005305576Y0005634574D01*
X0005290622Y0005619620D01*
X0005278872Y0005602036D01*
X0005270779Y0005582497D01*
X0005266653Y0005561755D01*
X0003362874Y0005561755D01*
X0003421073Y0005619954D01*
X0003427968Y0005621326D01*
X0003438909Y0005625857D01*
X0003448756Y0005632437D01*
X0003457129Y0005640810D01*
X0003463709Y0005650657D01*
X0003468240Y0005661598D01*
X0003470551Y0005673212D01*
X0003470551Y0005679960D01*
X0003533223Y0005679960D01*
X0003536881Y0005671129D01*
X0003543460Y0005661283D01*
X0003551834Y0005652909D01*
X0003561680Y0005646330D01*
X0003572621Y0005641798D01*
X0003584236Y0005639488D01*
X0003596078Y0005639488D01*
X0003607693Y0005641798D01*
X0003618634Y0005646330D01*
X0003628480Y0005652909D01*
X0003636854Y0005661283D01*
X0003643433Y0005671129D01*
X0003647965Y0005682070D01*
X0003650275Y0005693685D01*
X0003650275Y0005705527D01*
X0003647965Y0005717142D01*
X0003643433Y0005728082D01*
X0003636854Y0005737929D01*
X0003632800Y0005741983D01*
X0005364173Y0005742047D01*
X0010682795Y0005742047D01*
X0010682795Y0005360511D01*
G36*
X0000923975Y0005736876D02*
G01*
X0000920984Y0005721839D01*
X0000920984Y0005706507D01*
X0000923975Y0005691469D01*
X0000929842Y0005677304D01*
X0000938360Y0005664556D01*
X0000949202Y0005653715D01*
X0000961950Y0005645197D01*
X0000976115Y0005639329D01*
X0000978089Y0005638936D01*
X0000819548Y0005638936D01*
X0000821522Y0005639329D01*
X0000835687Y0005645197D01*
X0000848435Y0005653715D01*
X0000859277Y0005664556D01*
X0000867795Y0005677304D01*
X0000873662Y0005691469D01*
X0000876653Y0005706507D01*
X0000876653Y0005721839D01*
X0000873662Y0005736876D01*
X0000871589Y0005741881D01*
X0000926049Y0005741883D01*
X0000923975Y0005736876D01*
G37*
X0000923975Y0005736876D02*
X0000920984Y0005721839D01*
X0000920984Y0005706507D01*
X0000923975Y0005691469D01*
X0000929842Y0005677304D01*
X0000938360Y0005664556D01*
X0000949202Y0005653715D01*
X0000961950Y0005645197D01*
X0000976115Y0005639329D01*
X0000978089Y0005638936D01*
X0000819548Y0005638936D01*
X0000821522Y0005639329D01*
X0000835687Y0005645197D01*
X0000848435Y0005653715D01*
X0000859277Y0005664556D01*
X0000867795Y0005677304D01*
X0000873662Y0005691469D01*
X0000876653Y0005706507D01*
X0000876653Y0005721839D01*
X0000873662Y0005736876D01*
X0000871589Y0005741881D01*
X0000926049Y0005741883D01*
X0000923975Y0005736876D01*
G36*
X0001249473Y0005733366D02*
G01*
X0001236712Y0005720605D01*
X0001226686Y0005705600D01*
X0001219780Y0005688927D01*
X0001216259Y0005671227D01*
X0001216259Y0005653181D01*
X0001219093Y0005638936D01*
X0001019548Y0005638936D01*
X0001021522Y0005639329D01*
X0001035687Y0005645197D01*
X0001048435Y0005653715D01*
X0001059277Y0005664556D01*
X0001067795Y0005677304D01*
X0001073662Y0005691469D01*
X0001076653Y0005706507D01*
X0001076653Y0005721839D01*
X0001073662Y0005736876D01*
X0001071586Y0005741888D01*
X0001262238Y0005741895D01*
X0001249473Y0005733366D01*
G37*
X0001249473Y0005733366D02*
X0001236712Y0005720605D01*
X0001226686Y0005705600D01*
X0001219780Y0005688927D01*
X0001216259Y0005671227D01*
X0001216259Y0005653181D01*
X0001219093Y0005638936D01*
X0001019548Y0005638936D01*
X0001021522Y0005639329D01*
X0001035687Y0005645197D01*
X0001048435Y0005653715D01*
X0001059277Y0005664556D01*
X0001067795Y0005677304D01*
X0001073662Y0005691469D01*
X0001076653Y0005706507D01*
X0001076653Y0005721839D01*
X0001073662Y0005736876D01*
X0001071586Y0005741888D01*
X0001262238Y0005741895D01*
X0001249473Y0005733366D01*
G36*
X0002217739Y0005638936D02*
G01*
X0001396654Y0005638936D01*
X0001399488Y0005653181D01*
X0001399488Y0005671227D01*
X0001395967Y0005688927D01*
X0001389061Y0005705600D01*
X0001379035Y0005720605D01*
X0001366274Y0005733366D01*
X0001353504Y0005741898D01*
X0002320736Y0005741934D01*
X0002217739Y0005638936D01*
G37*
X0002217739Y0005638936D02*
X0001396654Y0005638936D01*
X0001399488Y0005653181D01*
X0001399488Y0005671227D01*
X0001395967Y0005688927D01*
X0001389061Y0005705600D01*
X0001379035Y0005720605D01*
X0001366274Y0005733366D01*
X0001353504Y0005741898D01*
X0002320736Y0005741934D01*
X0002217739Y0005638936D01*
M02*