%
M48
METRIC,000.000
T01C0.40
T02C1.00
T03C2.40
T04C3.20
%
T01
X018910Y004600
X047749Y001776
X061150Y002975
X062601Y007125
X086624Y009248
X091188Y009769
X018910Y019600
X047749Y016776
X061150Y017975
X062601Y022125
X086624Y024248
X091188Y024769
X018910Y034600
X047749Y031776
X061150Y032975
X062601Y037125
X086624Y039248
X091188Y039769
X018910Y049600
X047749Y046776
X061150Y047975
X062601Y052125
X086624Y054248
X091188Y054769
X018910Y064599
X047749Y061776
X061150Y062975
X062601Y067125
X086624Y069248
X091188Y069769
X018910Y079600
X047749Y076776
X061150Y077975
X062601Y082125
X086624Y084248
X091188Y084769
X018910Y094600
X047749Y091776
X061150Y092975
X062601Y097125
X086624Y099248
X091188Y099769
X018910Y109600
X047749Y106776
X061150Y107975
X062601Y112125
X086624Y114248
X091188Y114769
X018910Y124600
X047749Y121776
X061150Y122975
X062601Y127125
X086624Y129247
X091188Y129769
X018910Y139600
X047749Y136776
X061150Y137975
X062601Y142125
X086624Y144248
X091188Y144769
T02
X015209Y010140
X017749Y010140
X020289Y010140
X022829Y010140
X025369Y010140
X015209Y025140
X017749Y025140
X020289Y025140
X022829Y025140
X025369Y025140
X015209Y040140
X017749Y040140
X020289Y040140
X022829Y040140
X025369Y040140
X015209Y055140
X017749Y055140
X020289Y055140
X022829Y055140
X025369Y055140
X015209Y070140
X017749Y070140
X020289Y070140
X022829Y070140
X025369Y070140
X015209Y085140
X017749Y085140
X020289Y085140
X022829Y085140
X025369Y085140
X015209Y100140
X017749Y100140
X020289Y100140
X022829Y100140
X025369Y100140
X015209Y115140
X017749Y115140
X020289Y115140
X022829Y115140
X025369Y115140
X015209Y130139
X017749Y130139
X020289Y130139
X022829Y130139
X025369Y130139
X015209Y145140
X017749Y145140
X020289Y145140
X022829Y145140
X025369Y145140
X029520Y009170G85X029520Y010470
X029820Y002020G85X029820Y003020
X033718Y001519G85X032720Y001519
X036319Y002020G85X036319Y003020
X038420Y002020G85X038420Y003020
X039319Y009170G85X039319Y010470
X029520Y024170G85X029520Y025470
X029820Y017020G85X029820Y018020
X033718Y016519G85X032720Y016519
X036319Y017020G85X036319Y018020
X038420Y017020G85X038420Y018020
X039319Y024170G85X039319Y025470
X029520Y039170G85X029520Y040470
X029820Y032020G85X029820Y033020
X033718Y031519G85X032720Y031519
X036319Y032020G85X036319Y033020
X038420Y032020G85X038420Y033020
X039319Y039170G85X039319Y040470
X029520Y054170G85X029520Y055470
X029820Y047020G85X029820Y048020
X033718Y046519G85X032720Y046519
X036319Y047020G85X036319Y048020
X038420Y047020G85X038420Y048020
X039319Y054170G85X039319Y055470
X029520Y069170G85X029520Y070470
X029820Y062020G85X029820Y063020
X033718Y061519G85X032720Y061519
X036319Y062020G85X036319Y063020
X038420Y062020G85X038420Y063020
X039319Y069170G85X039319Y070470
X029520Y084170G85X029520Y085470
X029820Y077020G85X029820Y078020
X033718Y076519G85X032720Y076519
X036319Y077020G85X036319Y078020
X038420Y077020G85X038420Y078020
X039319Y084170G85X039319Y085470
X029520Y099170G85X029520Y100470
X029820Y092020G85X029820Y093020
X033718Y091519G85X032720Y091519
X036319Y092020G85X036319Y093020
X038420Y092020G85X038420Y093020
X039319Y099170G85X039319Y100470
X029520Y114170G85X029520Y115470
X029820Y107020G85X029820Y108020
X033718Y106519G85X032720Y106519
X036319Y107020G85X036319Y108020
X038420Y107020G85X038420Y108020
X039319Y114170G85X039319Y115470
X029520Y129169G85X029520Y130470
X029820Y122020G85X029820Y123020
X033718Y121519G85X032720Y121519
X036319Y122020G85X036319Y123020
X038420Y122020G85X038420Y123020
X039319Y129169G85X039319Y130470
X029520Y144170G85X029520Y145470
X029820Y137020G85X029820Y138020
X033718Y136519G85X032720Y136519
X036319Y137020G85X036319Y138020
X038420Y137020G85X038420Y138020
X039319Y144170G85X039319Y145470
T03
X033221Y008819
X033221Y023819
X033221Y038819
X033221Y053819
X033221Y068819
X033221Y083819
X033221Y098819
X033221Y113819
X033221Y128818
X033221Y143819
T04
X136500Y006000
X009500Y006000
X263500Y006000
X136500Y021000
X009500Y021000
X263500Y021000
X136500Y036000
X009500Y036000
X263500Y036000
X136500Y051000
X009500Y051000
X263500Y051000
X136500Y066000
X009500Y066000
X263500Y066000
X136500Y081000
X009500Y081000
X263500Y081000
X136500Y096000
X009500Y096000
X263500Y096000
X136500Y111000
X009500Y111000
X263500Y111000
X136500Y126000
X009500Y126000
X263500Y126000
X136500Y141000
X009500Y141000
X263500Y141000
M30