%MOIN*%
%OFA0B0*%
%FSLAX46Y46*%
%IPPOS*%
%LPD*%
%ADD10C,0.0039370078740157488*%
%ADD21C,0.0039370078740157488*%
%ADD22C,0.0039370078740157488*%
%ADD23C,0.0039370078740157488*%
%ADD24C,0.0039370078740157488*%
%ADD25C,0.0039370078740157488*%
%ADD26C,0.0039370078740157488*%
%ADD27C,0.0039370078740157488*%
%ADD28C,0.0039370078740157488*%
%ADD29C,0.0039370078740157488*%
D10*
G36*
X0001343771Y0000091076D02*
G01*
X0001349746Y0000089264D01*
X0001355251Y0000086321D01*
X0001360077Y0000082361D01*
X0001364038Y0000077535D01*
X0001366981Y0000072029D01*
X0001368793Y0000066055D01*
X0001369405Y0000059842D01*
X0001368793Y0000053629D01*
X0001366981Y0000047655D01*
X0001364038Y0000042149D01*
X0001360077Y0000037323D01*
X0001355251Y0000033363D01*
X0001349746Y0000030420D01*
X0001343771Y0000028608D01*
X0001339115Y0000028149D01*
X0001276632Y0000028149D01*
X0001271976Y0000028608D01*
X0001266001Y0000030420D01*
X0001260496Y0000033363D01*
X0001255670Y0000037323D01*
X0001251709Y0000042149D01*
X0001248766Y0000047655D01*
X0001246954Y0000053629D01*
X0001246342Y0000059842D01*
X0001246954Y0000066055D01*
X0001248766Y0000072029D01*
X0001251709Y0000077535D01*
X0001255670Y0000082361D01*
X0001260496Y0000086321D01*
X0001266001Y0000089264D01*
X0001271976Y0000091076D01*
X0001276632Y0000091535D01*
X0001339115Y0000091535D01*
X0001343771Y0000091076D01*
G37*
G36*
X0001436134Y0000160131D02*
G01*
X0001442108Y0000158319D01*
X0001447614Y0000155376D01*
X0001452439Y0000151416D01*
X0001456400Y0000146590D01*
X0001459343Y0000141084D01*
X0001461155Y0000135110D01*
X0001461614Y0000130454D01*
X0001461614Y0000067970D01*
X0001461155Y0000063314D01*
X0001459343Y0000057340D01*
X0001456400Y0000051834D01*
X0001452439Y0000047008D01*
X0001447614Y0000043048D01*
X0001442108Y0000040105D01*
X0001436134Y0000038293D01*
X0001429921Y0000037681D01*
X0001423708Y0000038293D01*
X0001417734Y0000040105D01*
X0001412228Y0000043048D01*
X0001407402Y0000047008D01*
X0001403442Y0000051834D01*
X0001400499Y0000057340D01*
X0001398686Y0000063314D01*
X0001398228Y0000067970D01*
X0001398228Y0000130454D01*
X0001398686Y0000135110D01*
X0001400499Y0000141084D01*
X0001403442Y0000146590D01*
X0001407402Y0000151416D01*
X0001412228Y0000155376D01*
X0001417734Y0000158319D01*
X0001423708Y0000160131D01*
X0001429921Y0000160743D01*
X0001436134Y0000160131D01*
G37*
G36*
X0001518811Y0000160131D02*
G01*
X0001524785Y0000158319D01*
X0001530291Y0000155376D01*
X0001535117Y0000151416D01*
X0001539077Y0000146590D01*
X0001542020Y0000141084D01*
X0001543832Y0000135110D01*
X0001544291Y0000130454D01*
X0001544291Y0000067970D01*
X0001543832Y0000063314D01*
X0001542020Y0000057340D01*
X0001539077Y0000051834D01*
X0001535117Y0000047008D01*
X0001530291Y0000043048D01*
X0001524785Y0000040105D01*
X0001518811Y0000038293D01*
X0001512598Y0000037681D01*
X0001506385Y0000038293D01*
X0001500411Y0000040105D01*
X0001494905Y0000043048D01*
X0001490079Y0000047008D01*
X0001486119Y0000051834D01*
X0001483176Y0000057340D01*
X0001481364Y0000063314D01*
X0001480905Y0000067970D01*
X0001480905Y0000130454D01*
X0001481364Y0000135110D01*
X0001483176Y0000141084D01*
X0001486119Y0000146590D01*
X0001490079Y0000151416D01*
X0001494905Y0000155376D01*
X0001500411Y0000158319D01*
X0001506385Y0000160131D01*
X0001512598Y0000160743D01*
X0001518811Y0000160131D01*
G37*
G36*
X0001180228Y0000160131D02*
G01*
X0001186202Y0000158319D01*
X0001191708Y0000155376D01*
X0001196534Y0000151416D01*
X0001200494Y0000146590D01*
X0001203437Y0000141084D01*
X0001205250Y0000135110D01*
X0001205708Y0000130454D01*
X0001205708Y0000067970D01*
X0001205250Y0000063314D01*
X0001203437Y0000057340D01*
X0001200494Y0000051834D01*
X0001196534Y0000047008D01*
X0001191708Y0000043048D01*
X0001186202Y0000040105D01*
X0001180228Y0000038293D01*
X0001174015Y0000037681D01*
X0001167802Y0000038293D01*
X0001161828Y0000040105D01*
X0001156322Y0000043048D01*
X0001151497Y0000047008D01*
X0001147536Y0000051834D01*
X0001144593Y0000057340D01*
X0001142781Y0000063314D01*
X0001142322Y0000067970D01*
X0001142322Y0000130454D01*
X0001142781Y0000135110D01*
X0001144593Y0000141084D01*
X0001147536Y0000146590D01*
X0001151497Y0000151416D01*
X0001156322Y0000155376D01*
X0001161828Y0000158319D01*
X0001167802Y0000160131D01*
X0001174015Y0000160743D01*
X0001180228Y0000160131D01*
G37*
G36*
X0010387132Y0000299884D02*
G01*
X0010392975Y0000298722D01*
X0010404804Y0000293822D01*
X0010415450Y0000286709D01*
X0010424504Y0000277655D01*
X0010431617Y0000267009D01*
X0010436517Y0000255180D01*
X0010439015Y0000242622D01*
X0010439015Y0000229818D01*
X0010436517Y0000217260D01*
X0010431617Y0000205431D01*
X0010424504Y0000194785D01*
X0010415450Y0000185731D01*
X0010404804Y0000178618D01*
X0010392975Y0000173718D01*
X0010388789Y0000172885D01*
X0010380417Y0000171220D01*
X0010367613Y0000171220D01*
X0010359241Y0000172885D01*
X0010355055Y0000173718D01*
X0010343226Y0000178618D01*
X0010332580Y0000185731D01*
X0010323526Y0000194785D01*
X0010316413Y0000205431D01*
X0010311513Y0000217260D01*
X0010309015Y0000229818D01*
X0010309015Y0000242622D01*
X0010311513Y0000255180D01*
X0010316413Y0000267009D01*
X0010323526Y0000277655D01*
X0010332580Y0000286709D01*
X0010343226Y0000293822D01*
X0010355055Y0000298722D01*
X0010360899Y0000299884D01*
X0010367613Y0000301220D01*
X0010380417Y0000301220D01*
X0010387132Y0000299884D01*
G37*
G36*
X0005387132Y0000299884D02*
G01*
X0005392975Y0000298722D01*
X0005404804Y0000293822D01*
X0005415450Y0000286709D01*
X0005424504Y0000277655D01*
X0005431617Y0000267009D01*
X0005436517Y0000255180D01*
X0005439015Y0000242622D01*
X0005439015Y0000229818D01*
X0005436517Y0000217260D01*
X0005431617Y0000205431D01*
X0005424504Y0000194785D01*
X0005415450Y0000185731D01*
X0005404804Y0000178618D01*
X0005392975Y0000173718D01*
X0005388789Y0000172885D01*
X0005380417Y0000171220D01*
X0005367613Y0000171220D01*
X0005359241Y0000172885D01*
X0005355055Y0000173718D01*
X0005343226Y0000178618D01*
X0005332580Y0000185731D01*
X0005323526Y0000194785D01*
X0005316413Y0000205431D01*
X0005311513Y0000217260D01*
X0005309015Y0000229818D01*
X0005309015Y0000242622D01*
X0005311513Y0000255180D01*
X0005316413Y0000267009D01*
X0005323526Y0000277655D01*
X0005332580Y0000286709D01*
X0005343226Y0000293822D01*
X0005355055Y0000298722D01*
X0005360899Y0000299884D01*
X0005367613Y0000301220D01*
X0005380417Y0000301220D01*
X0005387132Y0000299884D01*
G37*
G36*
X0000387132Y0000299884D02*
G01*
X0000392975Y0000298722D01*
X0000404804Y0000293822D01*
X0000415450Y0000286709D01*
X0000424504Y0000277655D01*
X0000431617Y0000267009D01*
X0000436517Y0000255180D01*
X0000439015Y0000242622D01*
X0000439015Y0000229818D01*
X0000436517Y0000217260D01*
X0000431617Y0000205431D01*
X0000424504Y0000194785D01*
X0000415450Y0000185731D01*
X0000404804Y0000178618D01*
X0000392975Y0000173718D01*
X0000388789Y0000172885D01*
X0000380417Y0000171220D01*
X0000367613Y0000171220D01*
X0000359241Y0000172885D01*
X0000355055Y0000173718D01*
X0000343226Y0000178618D01*
X0000332580Y0000185731D01*
X0000323526Y0000194785D01*
X0000316413Y0000205431D01*
X0000311513Y0000217260D01*
X0000309015Y0000229818D01*
X0000309015Y0000242622D01*
X0000311513Y0000255180D01*
X0000316413Y0000267009D01*
X0000323526Y0000277655D01*
X0000332580Y0000286709D01*
X0000343226Y0000293822D01*
X0000355055Y0000298722D01*
X0000360899Y0000299884D01*
X0000367613Y0000301220D01*
X0000380417Y0000301220D01*
X0000387132Y0000299884D01*
G37*
G36*
X0001322240Y0000394603D02*
G01*
X0001331203Y0000390890D01*
X0001339270Y0000385500D01*
X0001346130Y0000378640D01*
X0001350795Y0000371659D01*
X0001351520Y0000370573D01*
X0001355233Y0000361610D01*
X0001356474Y0000355372D01*
X0001357125Y0000352095D01*
X0001357125Y0000342393D01*
X0001355233Y0000332877D01*
X0001351520Y0000323914D01*
X0001346130Y0000315847D01*
X0001339270Y0000308987D01*
X0001331203Y0000303597D01*
X0001331203Y0000303597D01*
X0001331203Y0000303597D01*
X0001322240Y0000299884D01*
X0001312724Y0000297992D01*
X0001303023Y0000297992D01*
X0001293507Y0000299884D01*
X0001284544Y0000303597D01*
X0001284544Y0000303597D01*
X0001284544Y0000303597D01*
X0001276477Y0000308987D01*
X0001269617Y0000315847D01*
X0001264227Y0000323914D01*
X0001260514Y0000332877D01*
X0001258622Y0000342393D01*
X0001258622Y0000352095D01*
X0001259273Y0000355372D01*
X0001260514Y0000361610D01*
X0001264227Y0000370573D01*
X0001264952Y0000371659D01*
X0001269617Y0000378640D01*
X0001276477Y0000385500D01*
X0001284544Y0000390890D01*
X0001293507Y0000394603D01*
X0001303023Y0000396496D01*
X0001312724Y0000396496D01*
X0001322240Y0000394603D01*
G37*
G36*
X0001554244Y0000447533D02*
G01*
X0001560218Y0000445721D01*
X0001565724Y0000442778D01*
X0001570550Y0000438817D01*
X0001574510Y0000433992D01*
X0001577453Y0000428486D01*
X0001579265Y0000422512D01*
X0001579724Y0000417856D01*
X0001579724Y0000355372D01*
X0001579265Y0000350716D01*
X0001577453Y0000344742D01*
X0001574510Y0000339236D01*
X0001570550Y0000334410D01*
X0001565724Y0000330449D01*
X0001560218Y0000327507D01*
X0001554244Y0000325694D01*
X0001548031Y0000325082D01*
X0001541818Y0000325694D01*
X0001535844Y0000327507D01*
X0001530338Y0000330449D01*
X0001525512Y0000334410D01*
X0001521552Y0000339236D01*
X0001518609Y0000344742D01*
X0001516797Y0000350716D01*
X0001516338Y0000355372D01*
X0001516338Y0000417856D01*
X0001516797Y0000422512D01*
X0001518609Y0000428486D01*
X0001521552Y0000433992D01*
X0001525512Y0000438817D01*
X0001530338Y0000442778D01*
X0001535844Y0000445721D01*
X0001541818Y0000447533D01*
X0001548031Y0000448145D01*
X0001554244Y0000447533D01*
G37*
G36*
X0001168417Y0000447533D02*
G01*
X0001174391Y0000445721D01*
X0001179897Y0000442778D01*
X0001184723Y0000438817D01*
X0001188683Y0000433992D01*
X0001191626Y0000428486D01*
X0001193439Y0000422512D01*
X0001193897Y0000417856D01*
X0001193897Y0000355372D01*
X0001193439Y0000350716D01*
X0001191626Y0000344742D01*
X0001188683Y0000339236D01*
X0001184723Y0000334410D01*
X0001179897Y0000330449D01*
X0001174391Y0000327507D01*
X0001168417Y0000325694D01*
X0001162204Y0000325082D01*
X0001155991Y0000325694D01*
X0001150017Y0000327507D01*
X0001144511Y0000330449D01*
X0001139686Y0000334410D01*
X0001135725Y0000339236D01*
X0001132782Y0000344742D01*
X0001130970Y0000350716D01*
X0001130511Y0000355372D01*
X0001130511Y0000417856D01*
X0001130970Y0000422512D01*
X0001132782Y0000428486D01*
X0001135725Y0000433992D01*
X0001139686Y0000438817D01*
X0001144511Y0000442778D01*
X0001150017Y0000445721D01*
X0001155991Y0000447533D01*
X0001162204Y0000448145D01*
X0001168417Y0000447533D01*
G37*
G36*
X0001003287Y0000434491D02*
G01*
X0001009165Y0000433321D01*
X0001015621Y0000430647D01*
X0001021431Y0000426765D01*
X0001026372Y0000421824D01*
X0001030254Y0000416015D01*
X0001032928Y0000409559D01*
X0001034291Y0000402706D01*
X0001034291Y0000395718D01*
X0001032928Y0000388865D01*
X0001030254Y0000382410D01*
X0001026372Y0000376600D01*
X0001021431Y0000371659D01*
X0001015621Y0000367777D01*
X0001009165Y0000365103D01*
X0001003287Y0000363934D01*
X0001002312Y0000363740D01*
X0000995325Y0000363740D01*
X0000994349Y0000363934D01*
X0000988471Y0000365103D01*
X0000982016Y0000367777D01*
X0000976206Y0000371659D01*
X0000971265Y0000376600D01*
X0000967383Y0000382410D01*
X0000964709Y0000388865D01*
X0000963346Y0000395718D01*
X0000963346Y0000402706D01*
X0000964709Y0000409559D01*
X0000967383Y0000416015D01*
X0000971265Y0000421824D01*
X0000976206Y0000426765D01*
X0000982016Y0000430647D01*
X0000988471Y0000433321D01*
X0000994349Y0000434491D01*
X0000995325Y0000434685D01*
X0001002312Y0000434685D01*
X0001003287Y0000434491D01*
G37*
G36*
X0000903287Y0000434491D02*
G01*
X0000909165Y0000433321D01*
X0000915621Y0000430647D01*
X0000921431Y0000426765D01*
X0000926372Y0000421824D01*
X0000930254Y0000416015D01*
X0000932928Y0000409559D01*
X0000934291Y0000402706D01*
X0000934291Y0000395718D01*
X0000932928Y0000388865D01*
X0000930254Y0000382410D01*
X0000926372Y0000376600D01*
X0000921431Y0000371659D01*
X0000915621Y0000367777D01*
X0000909165Y0000365103D01*
X0000903287Y0000363934D01*
X0000902312Y0000363740D01*
X0000895325Y0000363740D01*
X0000894349Y0000363934D01*
X0000888471Y0000365103D01*
X0000882016Y0000367777D01*
X0000876206Y0000371659D01*
X0000871265Y0000376600D01*
X0000867383Y0000382410D01*
X0000864709Y0000388865D01*
X0000863346Y0000395718D01*
X0000863346Y0000402706D01*
X0000864709Y0000409559D01*
X0000867383Y0000416015D01*
X0000871265Y0000421824D01*
X0000876206Y0000426765D01*
X0000882016Y0000430647D01*
X0000888471Y0000433321D01*
X0000894349Y0000434491D01*
X0000895325Y0000434685D01*
X0000902312Y0000434685D01*
X0000903287Y0000434491D01*
G37*
G36*
X0000803287Y0000434491D02*
G01*
X0000809165Y0000433321D01*
X0000815621Y0000430647D01*
X0000821431Y0000426765D01*
X0000826372Y0000421824D01*
X0000830254Y0000416015D01*
X0000832928Y0000409559D01*
X0000834291Y0000402706D01*
X0000834291Y0000395718D01*
X0000832928Y0000388865D01*
X0000830254Y0000382410D01*
X0000826372Y0000376600D01*
X0000821431Y0000371659D01*
X0000815621Y0000367777D01*
X0000809165Y0000365103D01*
X0000803287Y0000363934D01*
X0000802312Y0000363740D01*
X0000795325Y0000363740D01*
X0000794349Y0000363934D01*
X0000788471Y0000365103D01*
X0000782016Y0000367777D01*
X0000776206Y0000371659D01*
X0000771265Y0000376600D01*
X0000767383Y0000382410D01*
X0000764709Y0000388865D01*
X0000763346Y0000395718D01*
X0000763346Y0000402706D01*
X0000764709Y0000409559D01*
X0000767383Y0000416015D01*
X0000771265Y0000421824D01*
X0000776206Y0000426765D01*
X0000782016Y0000430647D01*
X0000788471Y0000433321D01*
X0000794349Y0000434491D01*
X0000795325Y0000434685D01*
X0000802312Y0000434685D01*
X0000803287Y0000434491D01*
G37*
G36*
X0000703287Y0000434491D02*
G01*
X0000709165Y0000433321D01*
X0000715621Y0000430647D01*
X0000721431Y0000426765D01*
X0000726372Y0000421824D01*
X0000730254Y0000416015D01*
X0000732928Y0000409559D01*
X0000734291Y0000402706D01*
X0000734291Y0000395718D01*
X0000732928Y0000388865D01*
X0000730254Y0000382410D01*
X0000726372Y0000376600D01*
X0000721431Y0000371659D01*
X0000715621Y0000367777D01*
X0000709165Y0000365103D01*
X0000703287Y0000363934D01*
X0000702312Y0000363740D01*
X0000695325Y0000363740D01*
X0000694349Y0000363934D01*
X0000688471Y0000365103D01*
X0000682016Y0000367777D01*
X0000676206Y0000371659D01*
X0000671265Y0000376600D01*
X0000667383Y0000382410D01*
X0000664709Y0000388865D01*
X0000663346Y0000395718D01*
X0000663346Y0000402706D01*
X0000664709Y0000409559D01*
X0000667383Y0000416015D01*
X0000671265Y0000421824D01*
X0000676206Y0000426765D01*
X0000682016Y0000430647D01*
X0000688471Y0000433321D01*
X0000694349Y0000434491D01*
X0000695325Y0000434685D01*
X0000702312Y0000434685D01*
X0000703287Y0000434491D01*
G37*
G36*
X0000634291Y0000363740D02*
G01*
X0000563346Y0000363740D01*
X0000563346Y0000434685D01*
X0000634291Y0000434685D01*
X0000634291Y0000363740D01*
G37*
G04 next file*
G04 #@! TF.GenerationSoftware,KiCad,Pcbnew,(5.1.5-0)*
G04 #@! TF.CreationDate,2020-08-20T15:01:18-04:00*
G04 #@! TF.ProjectId,LEDIO,4c454449-4f2e-46b6-9963-61645f706362,rev?*
G04 #@! TF.SameCoordinates,Original*
G04 #@! TF.FileFunction,Soldermask,Bot*
G04 #@! TF.FilePolarity,Negative*
G04 Gerber Fmt 4.6, Leading zero omitted, Abs format (unit mm)*
G04 Created by KiCad (PCBNEW (5.1.5-0)) date 2020-08-20 15:01:18*
G04 APERTURE LIST*
G04 APERTURE END LIST*
D21*
G36*
X0001343771Y0000681627D02*
G01*
X0001349746Y0000679815D01*
X0001355251Y0000676872D01*
X0001360077Y0000672912D01*
X0001364038Y0000668086D01*
X0001366981Y0000662580D01*
X0001368793Y0000656606D01*
X0001369405Y0000650393D01*
X0001368793Y0000644180D01*
X0001366981Y0000638206D01*
X0001364038Y0000632700D01*
X0001360077Y0000627875D01*
X0001355251Y0000623914D01*
X0001349746Y0000620971D01*
X0001343771Y0000619159D01*
X0001339115Y0000618700D01*
X0001276632Y0000618700D01*
X0001271976Y0000619159D01*
X0001266001Y0000620971D01*
X0001260496Y0000623914D01*
X0001255670Y0000627875D01*
X0001251709Y0000632700D01*
X0001248766Y0000638206D01*
X0001246954Y0000644180D01*
X0001246342Y0000650393D01*
X0001246954Y0000656606D01*
X0001248766Y0000662580D01*
X0001251709Y0000668086D01*
X0001255670Y0000672912D01*
X0001260496Y0000676872D01*
X0001266001Y0000679815D01*
X0001271976Y0000681627D01*
X0001276632Y0000682086D01*
X0001339115Y0000682086D01*
X0001343771Y0000681627D01*
G37*
G36*
X0001436134Y0000750683D02*
G01*
X0001442108Y0000748870D01*
X0001447614Y0000745928D01*
X0001452439Y0000741967D01*
X0001456400Y0000737141D01*
X0001459343Y0000731635D01*
X0001461155Y0000725661D01*
X0001461614Y0000721005D01*
X0001461614Y0000658521D01*
X0001461155Y0000653865D01*
X0001459343Y0000647891D01*
X0001456400Y0000642385D01*
X0001452439Y0000637560D01*
X0001447614Y0000633599D01*
X0001442108Y0000630656D01*
X0001436134Y0000628844D01*
X0001429921Y0000628232D01*
X0001423708Y0000628844D01*
X0001417734Y0000630656D01*
X0001412228Y0000633599D01*
X0001407402Y0000637560D01*
X0001403442Y0000642385D01*
X0001400499Y0000647891D01*
X0001398686Y0000653865D01*
X0001398228Y0000658521D01*
X0001398228Y0000721005D01*
X0001398686Y0000725661D01*
X0001400499Y0000731635D01*
X0001403442Y0000737141D01*
X0001407402Y0000741967D01*
X0001412228Y0000745928D01*
X0001417734Y0000748870D01*
X0001423708Y0000750683D01*
X0001429921Y0000751295D01*
X0001436134Y0000750683D01*
G37*
G36*
X0001518811Y0000750683D02*
G01*
X0001524785Y0000748870D01*
X0001530291Y0000745928D01*
X0001535117Y0000741967D01*
X0001539077Y0000737141D01*
X0001542020Y0000731635D01*
X0001543832Y0000725661D01*
X0001544291Y0000721005D01*
X0001544291Y0000658521D01*
X0001543832Y0000653865D01*
X0001542020Y0000647891D01*
X0001539077Y0000642385D01*
X0001535117Y0000637560D01*
X0001530291Y0000633599D01*
X0001524785Y0000630656D01*
X0001518811Y0000628844D01*
X0001512598Y0000628232D01*
X0001506385Y0000628844D01*
X0001500411Y0000630656D01*
X0001494905Y0000633599D01*
X0001490079Y0000637560D01*
X0001486119Y0000642385D01*
X0001483176Y0000647891D01*
X0001481364Y0000653865D01*
X0001480905Y0000658521D01*
X0001480905Y0000721005D01*
X0001481364Y0000725661D01*
X0001483176Y0000731635D01*
X0001486119Y0000737141D01*
X0001490079Y0000741967D01*
X0001494905Y0000745928D01*
X0001500411Y0000748870D01*
X0001506385Y0000750683D01*
X0001512598Y0000751295D01*
X0001518811Y0000750683D01*
G37*
G36*
X0001180228Y0000750683D02*
G01*
X0001186202Y0000748870D01*
X0001191708Y0000745928D01*
X0001196534Y0000741967D01*
X0001200494Y0000737141D01*
X0001203437Y0000731635D01*
X0001205250Y0000725661D01*
X0001205708Y0000721005D01*
X0001205708Y0000658521D01*
X0001205250Y0000653865D01*
X0001203437Y0000647891D01*
X0001200494Y0000642385D01*
X0001196534Y0000637560D01*
X0001191708Y0000633599D01*
X0001186202Y0000630656D01*
X0001180228Y0000628844D01*
X0001174015Y0000628232D01*
X0001167802Y0000628844D01*
X0001161828Y0000630656D01*
X0001156322Y0000633599D01*
X0001151497Y0000637560D01*
X0001147536Y0000642385D01*
X0001144593Y0000647891D01*
X0001142781Y0000653865D01*
X0001142322Y0000658521D01*
X0001142322Y0000721005D01*
X0001142781Y0000725661D01*
X0001144593Y0000731635D01*
X0001147536Y0000737141D01*
X0001151497Y0000741967D01*
X0001156322Y0000745928D01*
X0001161828Y0000748870D01*
X0001167802Y0000750683D01*
X0001174015Y0000751295D01*
X0001180228Y0000750683D01*
G37*
G36*
X0010387132Y0000890436D02*
G01*
X0010392975Y0000889273D01*
X0010404804Y0000884373D01*
X0010415450Y0000877260D01*
X0010424504Y0000868206D01*
X0010431617Y0000857560D01*
X0010436517Y0000845731D01*
X0010439015Y0000833173D01*
X0010439015Y0000820369D01*
X0010436517Y0000807811D01*
X0010431617Y0000795982D01*
X0010424504Y0000785336D01*
X0010415450Y0000776282D01*
X0010404804Y0000769169D01*
X0010392975Y0000764269D01*
X0010388789Y0000763436D01*
X0010380417Y0000761771D01*
X0010367613Y0000761771D01*
X0010359241Y0000763436D01*
X0010355055Y0000764269D01*
X0010343226Y0000769169D01*
X0010332580Y0000776282D01*
X0010323526Y0000785336D01*
X0010316413Y0000795982D01*
X0010311513Y0000807811D01*
X0010309015Y0000820369D01*
X0010309015Y0000833173D01*
X0010311513Y0000845731D01*
X0010316413Y0000857560D01*
X0010323526Y0000868206D01*
X0010332580Y0000877260D01*
X0010343226Y0000884373D01*
X0010355055Y0000889273D01*
X0010360899Y0000890436D01*
X0010367613Y0000891771D01*
X0010380417Y0000891771D01*
X0010387132Y0000890436D01*
G37*
G36*
X0005387132Y0000890436D02*
G01*
X0005392975Y0000889273D01*
X0005404804Y0000884373D01*
X0005415450Y0000877260D01*
X0005424504Y0000868206D01*
X0005431617Y0000857560D01*
X0005436517Y0000845731D01*
X0005439015Y0000833173D01*
X0005439015Y0000820369D01*
X0005436517Y0000807811D01*
X0005431617Y0000795982D01*
X0005424504Y0000785336D01*
X0005415450Y0000776282D01*
X0005404804Y0000769169D01*
X0005392975Y0000764269D01*
X0005388789Y0000763436D01*
X0005380417Y0000761771D01*
X0005367613Y0000761771D01*
X0005359241Y0000763436D01*
X0005355055Y0000764269D01*
X0005343226Y0000769169D01*
X0005332580Y0000776282D01*
X0005323526Y0000785336D01*
X0005316413Y0000795982D01*
X0005311513Y0000807811D01*
X0005309015Y0000820369D01*
X0005309015Y0000833173D01*
X0005311513Y0000845731D01*
X0005316413Y0000857560D01*
X0005323526Y0000868206D01*
X0005332580Y0000877260D01*
X0005343226Y0000884373D01*
X0005355055Y0000889273D01*
X0005360899Y0000890436D01*
X0005367613Y0000891771D01*
X0005380417Y0000891771D01*
X0005387132Y0000890436D01*
G37*
G36*
X0000387132Y0000890436D02*
G01*
X0000392975Y0000889273D01*
X0000404804Y0000884373D01*
X0000415450Y0000877260D01*
X0000424504Y0000868206D01*
X0000431617Y0000857560D01*
X0000436517Y0000845731D01*
X0000439015Y0000833173D01*
X0000439015Y0000820369D01*
X0000436517Y0000807811D01*
X0000431617Y0000795982D01*
X0000424504Y0000785336D01*
X0000415450Y0000776282D01*
X0000404804Y0000769169D01*
X0000392975Y0000764269D01*
X0000388789Y0000763436D01*
X0000380417Y0000761771D01*
X0000367613Y0000761771D01*
X0000359241Y0000763436D01*
X0000355055Y0000764269D01*
X0000343226Y0000769169D01*
X0000332580Y0000776282D01*
X0000323526Y0000785336D01*
X0000316413Y0000795982D01*
X0000311513Y0000807811D01*
X0000309015Y0000820369D01*
X0000309015Y0000833173D01*
X0000311513Y0000845731D01*
X0000316413Y0000857560D01*
X0000323526Y0000868206D01*
X0000332580Y0000877260D01*
X0000343226Y0000884373D01*
X0000355055Y0000889273D01*
X0000360899Y0000890436D01*
X0000367613Y0000891771D01*
X0000380417Y0000891771D01*
X0000387132Y0000890436D01*
G37*
G36*
X0001322240Y0000985154D02*
G01*
X0001331203Y0000981441D01*
X0001339270Y0000976051D01*
X0001346130Y0000969191D01*
X0001350795Y0000962210D01*
X0001351520Y0000961124D01*
X0001355233Y0000952161D01*
X0001356474Y0000945923D01*
X0001357125Y0000942646D01*
X0001357125Y0000932944D01*
X0001355233Y0000923428D01*
X0001351520Y0000914465D01*
X0001346130Y0000906398D01*
X0001339270Y0000899538D01*
X0001331203Y0000894148D01*
X0001331203Y0000894148D01*
X0001331203Y0000894148D01*
X0001322240Y0000890436D01*
X0001312724Y0000888543D01*
X0001303023Y0000888543D01*
X0001293507Y0000890436D01*
X0001284544Y0000894148D01*
X0001284544Y0000894148D01*
X0001284544Y0000894148D01*
X0001276477Y0000899538D01*
X0001269617Y0000906398D01*
X0001264227Y0000914465D01*
X0001260514Y0000923428D01*
X0001258622Y0000932944D01*
X0001258622Y0000942646D01*
X0001259273Y0000945923D01*
X0001260514Y0000952161D01*
X0001264227Y0000961124D01*
X0001264952Y0000962210D01*
X0001269617Y0000969191D01*
X0001276477Y0000976051D01*
X0001284544Y0000981441D01*
X0001293507Y0000985154D01*
X0001303023Y0000987047D01*
X0001312724Y0000987047D01*
X0001322240Y0000985154D01*
G37*
G36*
X0001554244Y0001038084D02*
G01*
X0001560218Y0001036272D01*
X0001565724Y0001033329D01*
X0001570550Y0001029369D01*
X0001574510Y0001024543D01*
X0001577453Y0001019037D01*
X0001579265Y0001013063D01*
X0001579724Y0001008407D01*
X0001579724Y0000945923D01*
X0001579265Y0000941267D01*
X0001577453Y0000935293D01*
X0001574510Y0000929787D01*
X0001570550Y0000924961D01*
X0001565724Y0000921001D01*
X0001560218Y0000918058D01*
X0001554244Y0000916245D01*
X0001548031Y0000915634D01*
X0001541818Y0000916245D01*
X0001535844Y0000918058D01*
X0001530338Y0000921001D01*
X0001525512Y0000924961D01*
X0001521552Y0000929787D01*
X0001518609Y0000935293D01*
X0001516797Y0000941267D01*
X0001516338Y0000945923D01*
X0001516338Y0001008407D01*
X0001516797Y0001013063D01*
X0001518609Y0001019037D01*
X0001521552Y0001024543D01*
X0001525512Y0001029369D01*
X0001530338Y0001033329D01*
X0001535844Y0001036272D01*
X0001541818Y0001038084D01*
X0001548031Y0001038696D01*
X0001554244Y0001038084D01*
G37*
G36*
X0001168417Y0001038084D02*
G01*
X0001174391Y0001036272D01*
X0001179897Y0001033329D01*
X0001184723Y0001029369D01*
X0001188683Y0001024543D01*
X0001191626Y0001019037D01*
X0001193439Y0001013063D01*
X0001193897Y0001008407D01*
X0001193897Y0000945923D01*
X0001193439Y0000941267D01*
X0001191626Y0000935293D01*
X0001188683Y0000929787D01*
X0001184723Y0000924961D01*
X0001179897Y0000921001D01*
X0001174391Y0000918058D01*
X0001168417Y0000916245D01*
X0001162204Y0000915634D01*
X0001155991Y0000916245D01*
X0001150017Y0000918058D01*
X0001144511Y0000921001D01*
X0001139686Y0000924961D01*
X0001135725Y0000929787D01*
X0001132782Y0000935293D01*
X0001130970Y0000941267D01*
X0001130511Y0000945923D01*
X0001130511Y0001008407D01*
X0001130970Y0001013063D01*
X0001132782Y0001019037D01*
X0001135725Y0001024543D01*
X0001139686Y0001029369D01*
X0001144511Y0001033329D01*
X0001150017Y0001036272D01*
X0001155991Y0001038084D01*
X0001162204Y0001038696D01*
X0001168417Y0001038084D01*
G37*
G36*
X0001003287Y0001025042D02*
G01*
X0001009165Y0001023873D01*
X0001015621Y0001021199D01*
X0001021431Y0001017317D01*
X0001026372Y0001012376D01*
X0001030254Y0001006566D01*
X0001032928Y0001000110D01*
X0001034291Y0000993257D01*
X0001034291Y0000986270D01*
X0001032928Y0000979416D01*
X0001030254Y0000972961D01*
X0001026372Y0000967151D01*
X0001021431Y0000962210D01*
X0001015621Y0000958328D01*
X0001009165Y0000955654D01*
X0001003287Y0000954485D01*
X0001002312Y0000954291D01*
X0000995325Y0000954291D01*
X0000994349Y0000954485D01*
X0000988471Y0000955654D01*
X0000982016Y0000958328D01*
X0000976206Y0000962210D01*
X0000971265Y0000967151D01*
X0000967383Y0000972961D01*
X0000964709Y0000979416D01*
X0000963346Y0000986270D01*
X0000963346Y0000993257D01*
X0000964709Y0001000110D01*
X0000967383Y0001006566D01*
X0000971265Y0001012376D01*
X0000976206Y0001017317D01*
X0000982016Y0001021199D01*
X0000988471Y0001023873D01*
X0000994349Y0001025042D01*
X0000995325Y0001025236D01*
X0001002312Y0001025236D01*
X0001003287Y0001025042D01*
G37*
G36*
X0000903287Y0001025042D02*
G01*
X0000909165Y0001023873D01*
X0000915621Y0001021199D01*
X0000921431Y0001017317D01*
X0000926372Y0001012376D01*
X0000930254Y0001006566D01*
X0000932928Y0001000110D01*
X0000934291Y0000993257D01*
X0000934291Y0000986270D01*
X0000932928Y0000979416D01*
X0000930254Y0000972961D01*
X0000926372Y0000967151D01*
X0000921431Y0000962210D01*
X0000915621Y0000958328D01*
X0000909165Y0000955654D01*
X0000903287Y0000954485D01*
X0000902312Y0000954291D01*
X0000895325Y0000954291D01*
X0000894349Y0000954485D01*
X0000888471Y0000955654D01*
X0000882016Y0000958328D01*
X0000876206Y0000962210D01*
X0000871265Y0000967151D01*
X0000867383Y0000972961D01*
X0000864709Y0000979416D01*
X0000863346Y0000986270D01*
X0000863346Y0000993257D01*
X0000864709Y0001000110D01*
X0000867383Y0001006566D01*
X0000871265Y0001012376D01*
X0000876206Y0001017317D01*
X0000882016Y0001021199D01*
X0000888471Y0001023873D01*
X0000894349Y0001025042D01*
X0000895325Y0001025236D01*
X0000902312Y0001025236D01*
X0000903287Y0001025042D01*
G37*
G36*
X0000803287Y0001025042D02*
G01*
X0000809165Y0001023873D01*
X0000815621Y0001021199D01*
X0000821431Y0001017317D01*
X0000826372Y0001012376D01*
X0000830254Y0001006566D01*
X0000832928Y0001000110D01*
X0000834291Y0000993257D01*
X0000834291Y0000986270D01*
X0000832928Y0000979416D01*
X0000830254Y0000972961D01*
X0000826372Y0000967151D01*
X0000821431Y0000962210D01*
X0000815621Y0000958328D01*
X0000809165Y0000955654D01*
X0000803287Y0000954485D01*
X0000802312Y0000954291D01*
X0000795325Y0000954291D01*
X0000794349Y0000954485D01*
X0000788471Y0000955654D01*
X0000782016Y0000958328D01*
X0000776206Y0000962210D01*
X0000771265Y0000967151D01*
X0000767383Y0000972961D01*
X0000764709Y0000979416D01*
X0000763346Y0000986270D01*
X0000763346Y0000993257D01*
X0000764709Y0001000110D01*
X0000767383Y0001006566D01*
X0000771265Y0001012376D01*
X0000776206Y0001017317D01*
X0000782016Y0001021199D01*
X0000788471Y0001023873D01*
X0000794349Y0001025042D01*
X0000795325Y0001025236D01*
X0000802312Y0001025236D01*
X0000803287Y0001025042D01*
G37*
G36*
X0000703287Y0001025042D02*
G01*
X0000709165Y0001023873D01*
X0000715621Y0001021199D01*
X0000721431Y0001017317D01*
X0000726372Y0001012376D01*
X0000730254Y0001006566D01*
X0000732928Y0001000110D01*
X0000734291Y0000993257D01*
X0000734291Y0000986270D01*
X0000732928Y0000979416D01*
X0000730254Y0000972961D01*
X0000726372Y0000967151D01*
X0000721431Y0000962210D01*
X0000715621Y0000958328D01*
X0000709165Y0000955654D01*
X0000703287Y0000954485D01*
X0000702312Y0000954291D01*
X0000695325Y0000954291D01*
X0000694349Y0000954485D01*
X0000688471Y0000955654D01*
X0000682016Y0000958328D01*
X0000676206Y0000962210D01*
X0000671265Y0000967151D01*
X0000667383Y0000972961D01*
X0000664709Y0000979416D01*
X0000663346Y0000986270D01*
X0000663346Y0000993257D01*
X0000664709Y0001000110D01*
X0000667383Y0001006566D01*
X0000671265Y0001012376D01*
X0000676206Y0001017317D01*
X0000682016Y0001021199D01*
X0000688471Y0001023873D01*
X0000694349Y0001025042D01*
X0000695325Y0001025236D01*
X0000702312Y0001025236D01*
X0000703287Y0001025042D01*
G37*
G36*
X0000634291Y0000954291D02*
G01*
X0000563346Y0000954291D01*
X0000563346Y0001025236D01*
X0000634291Y0001025236D01*
X0000634291Y0000954291D01*
G37*
G04 next file*
G04 #@! TF.GenerationSoftware,KiCad,Pcbnew,(5.1.5-0)*
G04 #@! TF.CreationDate,2020-08-20T15:01:18-04:00*
G04 #@! TF.ProjectId,LEDIO,4c454449-4f2e-46b6-9963-61645f706362,rev?*
G04 #@! TF.SameCoordinates,Original*
G04 #@! TF.FileFunction,Soldermask,Bot*
G04 #@! TF.FilePolarity,Negative*
G04 Gerber Fmt 4.6, Leading zero omitted, Abs format (unit mm)*
G04 Created by KiCad (PCBNEW (5.1.5-0)) date 2020-08-20 15:01:18*
G04 APERTURE LIST*
G04 APERTURE END LIST*
D22*
G36*
X0001343771Y0001272179D02*
G01*
X0001349746Y0001270366D01*
X0001355251Y0001267424D01*
X0001360077Y0001263463D01*
X0001364038Y0001258637D01*
X0001366981Y0001253131D01*
X0001368793Y0001247157D01*
X0001369405Y0001240944D01*
X0001368793Y0001234731D01*
X0001366981Y0001228757D01*
X0001364038Y0001223252D01*
X0001360077Y0001218426D01*
X0001355251Y0001214465D01*
X0001349746Y0001211522D01*
X0001343771Y0001209710D01*
X0001339115Y0001209251D01*
X0001276632Y0001209251D01*
X0001271976Y0001209710D01*
X0001266001Y0001211522D01*
X0001260496Y0001214465D01*
X0001255670Y0001218426D01*
X0001251709Y0001223252D01*
X0001248766Y0001228757D01*
X0001246954Y0001234731D01*
X0001246342Y0001240944D01*
X0001246954Y0001247157D01*
X0001248766Y0001253131D01*
X0001251709Y0001258637D01*
X0001255670Y0001263463D01*
X0001260496Y0001267424D01*
X0001266001Y0001270366D01*
X0001271976Y0001272179D01*
X0001276632Y0001272637D01*
X0001339115Y0001272637D01*
X0001343771Y0001272179D01*
G37*
G36*
X0001436134Y0001341234D02*
G01*
X0001442108Y0001339422D01*
X0001447614Y0001336479D01*
X0001452439Y0001332518D01*
X0001456400Y0001327692D01*
X0001459343Y0001322187D01*
X0001461155Y0001316212D01*
X0001461614Y0001311556D01*
X0001461614Y0001249072D01*
X0001461155Y0001244417D01*
X0001459343Y0001238442D01*
X0001456400Y0001232937D01*
X0001452439Y0001228111D01*
X0001447614Y0001224150D01*
X0001442108Y0001221207D01*
X0001436134Y0001219395D01*
X0001429921Y0001218783D01*
X0001423708Y0001219395D01*
X0001417734Y0001221207D01*
X0001412228Y0001224150D01*
X0001407402Y0001228111D01*
X0001403442Y0001232937D01*
X0001400499Y0001238442D01*
X0001398686Y0001244417D01*
X0001398228Y0001249072D01*
X0001398228Y0001311556D01*
X0001398686Y0001316212D01*
X0001400499Y0001322187D01*
X0001403442Y0001327692D01*
X0001407402Y0001332518D01*
X0001412228Y0001336479D01*
X0001417734Y0001339422D01*
X0001423708Y0001341234D01*
X0001429921Y0001341846D01*
X0001436134Y0001341234D01*
G37*
G36*
X0001518811Y0001341234D02*
G01*
X0001524785Y0001339422D01*
X0001530291Y0001336479D01*
X0001535117Y0001332518D01*
X0001539077Y0001327692D01*
X0001542020Y0001322187D01*
X0001543832Y0001316212D01*
X0001544291Y0001311556D01*
X0001544291Y0001249072D01*
X0001543832Y0001244417D01*
X0001542020Y0001238442D01*
X0001539077Y0001232937D01*
X0001535117Y0001228111D01*
X0001530291Y0001224150D01*
X0001524785Y0001221207D01*
X0001518811Y0001219395D01*
X0001512598Y0001218783D01*
X0001506385Y0001219395D01*
X0001500411Y0001221207D01*
X0001494905Y0001224150D01*
X0001490079Y0001228111D01*
X0001486119Y0001232937D01*
X0001483176Y0001238442D01*
X0001481364Y0001244417D01*
X0001480905Y0001249072D01*
X0001480905Y0001311556D01*
X0001481364Y0001316212D01*
X0001483176Y0001322187D01*
X0001486119Y0001327692D01*
X0001490079Y0001332518D01*
X0001494905Y0001336479D01*
X0001500411Y0001339422D01*
X0001506385Y0001341234D01*
X0001512598Y0001341846D01*
X0001518811Y0001341234D01*
G37*
G36*
X0001180228Y0001341234D02*
G01*
X0001186202Y0001339422D01*
X0001191708Y0001336479D01*
X0001196534Y0001332518D01*
X0001200494Y0001327692D01*
X0001203437Y0001322187D01*
X0001205250Y0001316212D01*
X0001205708Y0001311556D01*
X0001205708Y0001249072D01*
X0001205250Y0001244417D01*
X0001203437Y0001238442D01*
X0001200494Y0001232937D01*
X0001196534Y0001228111D01*
X0001191708Y0001224150D01*
X0001186202Y0001221207D01*
X0001180228Y0001219395D01*
X0001174015Y0001218783D01*
X0001167802Y0001219395D01*
X0001161828Y0001221207D01*
X0001156322Y0001224150D01*
X0001151497Y0001228111D01*
X0001147536Y0001232937D01*
X0001144593Y0001238442D01*
X0001142781Y0001244417D01*
X0001142322Y0001249072D01*
X0001142322Y0001311556D01*
X0001142781Y0001316212D01*
X0001144593Y0001322187D01*
X0001147536Y0001327692D01*
X0001151497Y0001332518D01*
X0001156322Y0001336479D01*
X0001161828Y0001339422D01*
X0001167802Y0001341234D01*
X0001174015Y0001341846D01*
X0001180228Y0001341234D01*
G37*
G36*
X0010387132Y0001480987D02*
G01*
X0010392975Y0001479824D01*
X0010404804Y0001474925D01*
X0010415450Y0001467811D01*
X0010424504Y0001458757D01*
X0010431617Y0001448111D01*
X0010436517Y0001436282D01*
X0010439015Y0001423724D01*
X0010439015Y0001410920D01*
X0010436517Y0001398363D01*
X0010431617Y0001386533D01*
X0010424504Y0001375887D01*
X0010415450Y0001366834D01*
X0010404804Y0001359720D01*
X0010392975Y0001354820D01*
X0010388789Y0001353988D01*
X0010380417Y0001352322D01*
X0010367613Y0001352322D01*
X0010359241Y0001353988D01*
X0010355055Y0001354820D01*
X0010343226Y0001359720D01*
X0010332580Y0001366834D01*
X0010323526Y0001375887D01*
X0010316413Y0001386533D01*
X0010311513Y0001398363D01*
X0010309015Y0001410920D01*
X0010309015Y0001423724D01*
X0010311513Y0001436282D01*
X0010316413Y0001448111D01*
X0010323526Y0001458757D01*
X0010332580Y0001467811D01*
X0010343226Y0001474925D01*
X0010355055Y0001479824D01*
X0010360899Y0001480987D01*
X0010367613Y0001482322D01*
X0010380417Y0001482322D01*
X0010387132Y0001480987D01*
G37*
G36*
X0005387132Y0001480987D02*
G01*
X0005392975Y0001479824D01*
X0005404804Y0001474925D01*
X0005415450Y0001467811D01*
X0005424504Y0001458757D01*
X0005431617Y0001448111D01*
X0005436517Y0001436282D01*
X0005439015Y0001423724D01*
X0005439015Y0001410920D01*
X0005436517Y0001398363D01*
X0005431617Y0001386533D01*
X0005424504Y0001375887D01*
X0005415450Y0001366834D01*
X0005404804Y0001359720D01*
X0005392975Y0001354820D01*
X0005388789Y0001353988D01*
X0005380417Y0001352322D01*
X0005367613Y0001352322D01*
X0005359241Y0001353988D01*
X0005355055Y0001354820D01*
X0005343226Y0001359720D01*
X0005332580Y0001366834D01*
X0005323526Y0001375887D01*
X0005316413Y0001386533D01*
X0005311513Y0001398363D01*
X0005309015Y0001410920D01*
X0005309015Y0001423724D01*
X0005311513Y0001436282D01*
X0005316413Y0001448111D01*
X0005323526Y0001458757D01*
X0005332580Y0001467811D01*
X0005343226Y0001474925D01*
X0005355055Y0001479824D01*
X0005360899Y0001480987D01*
X0005367613Y0001482322D01*
X0005380417Y0001482322D01*
X0005387132Y0001480987D01*
G37*
G36*
X0000387132Y0001480987D02*
G01*
X0000392975Y0001479824D01*
X0000404804Y0001474925D01*
X0000415450Y0001467811D01*
X0000424504Y0001458757D01*
X0000431617Y0001448111D01*
X0000436517Y0001436282D01*
X0000439015Y0001423724D01*
X0000439015Y0001410920D01*
X0000436517Y0001398363D01*
X0000431617Y0001386533D01*
X0000424504Y0001375887D01*
X0000415450Y0001366834D01*
X0000404804Y0001359720D01*
X0000392975Y0001354820D01*
X0000388789Y0001353988D01*
X0000380417Y0001352322D01*
X0000367613Y0001352322D01*
X0000359241Y0001353988D01*
X0000355055Y0001354820D01*
X0000343226Y0001359720D01*
X0000332580Y0001366834D01*
X0000323526Y0001375887D01*
X0000316413Y0001386533D01*
X0000311513Y0001398363D01*
X0000309015Y0001410920D01*
X0000309015Y0001423724D01*
X0000311513Y0001436282D01*
X0000316413Y0001448111D01*
X0000323526Y0001458757D01*
X0000332580Y0001467811D01*
X0000343226Y0001474925D01*
X0000355055Y0001479824D01*
X0000360899Y0001480987D01*
X0000367613Y0001482322D01*
X0000380417Y0001482322D01*
X0000387132Y0001480987D01*
G37*
G36*
X0001322240Y0001575705D02*
G01*
X0001331203Y0001571992D01*
X0001339270Y0001566602D01*
X0001346130Y0001559742D01*
X0001350795Y0001552761D01*
X0001351520Y0001551675D01*
X0001355233Y0001542712D01*
X0001356474Y0001536474D01*
X0001357125Y0001533197D01*
X0001357125Y0001523495D01*
X0001355233Y0001513980D01*
X0001351520Y0001505016D01*
X0001346130Y0001496950D01*
X0001339270Y0001490089D01*
X0001331203Y0001484699D01*
X0001331203Y0001484699D01*
X0001331203Y0001484699D01*
X0001322240Y0001480987D01*
X0001312724Y0001479094D01*
X0001303023Y0001479094D01*
X0001293507Y0001480987D01*
X0001284544Y0001484699D01*
X0001284544Y0001484699D01*
X0001284544Y0001484699D01*
X0001276477Y0001490089D01*
X0001269617Y0001496950D01*
X0001264227Y0001505016D01*
X0001260514Y0001513980D01*
X0001258622Y0001523495D01*
X0001258622Y0001533197D01*
X0001259273Y0001536474D01*
X0001260514Y0001542712D01*
X0001264227Y0001551675D01*
X0001264952Y0001552761D01*
X0001269617Y0001559742D01*
X0001276477Y0001566602D01*
X0001284544Y0001571992D01*
X0001293507Y0001575705D01*
X0001303023Y0001577598D01*
X0001312724Y0001577598D01*
X0001322240Y0001575705D01*
G37*
G36*
X0001554244Y0001628635D02*
G01*
X0001560218Y0001626823D01*
X0001565724Y0001623880D01*
X0001570550Y0001619920D01*
X0001574510Y0001615094D01*
X0001577453Y0001609588D01*
X0001579265Y0001603614D01*
X0001579724Y0001598958D01*
X0001579724Y0001536474D01*
X0001579265Y0001531818D01*
X0001577453Y0001525844D01*
X0001574510Y0001520338D01*
X0001570550Y0001515512D01*
X0001565724Y0001511552D01*
X0001560218Y0001508609D01*
X0001554244Y0001506797D01*
X0001548031Y0001506185D01*
X0001541818Y0001506797D01*
X0001535844Y0001508609D01*
X0001530338Y0001511552D01*
X0001525512Y0001515512D01*
X0001521552Y0001520338D01*
X0001518609Y0001525844D01*
X0001516797Y0001531818D01*
X0001516338Y0001536474D01*
X0001516338Y0001598958D01*
X0001516797Y0001603614D01*
X0001518609Y0001609588D01*
X0001521552Y0001615094D01*
X0001525512Y0001619920D01*
X0001530338Y0001623880D01*
X0001535844Y0001626823D01*
X0001541818Y0001628635D01*
X0001548031Y0001629247D01*
X0001554244Y0001628635D01*
G37*
G36*
X0001168417Y0001628635D02*
G01*
X0001174391Y0001626823D01*
X0001179897Y0001623880D01*
X0001184723Y0001619920D01*
X0001188683Y0001615094D01*
X0001191626Y0001609588D01*
X0001193439Y0001603614D01*
X0001193897Y0001598958D01*
X0001193897Y0001536474D01*
X0001193439Y0001531818D01*
X0001191626Y0001525844D01*
X0001188683Y0001520338D01*
X0001184723Y0001515512D01*
X0001179897Y0001511552D01*
X0001174391Y0001508609D01*
X0001168417Y0001506797D01*
X0001162204Y0001506185D01*
X0001155991Y0001506797D01*
X0001150017Y0001508609D01*
X0001144511Y0001511552D01*
X0001139686Y0001515512D01*
X0001135725Y0001520338D01*
X0001132782Y0001525844D01*
X0001130970Y0001531818D01*
X0001130511Y0001536474D01*
X0001130511Y0001598958D01*
X0001130970Y0001603614D01*
X0001132782Y0001609588D01*
X0001135725Y0001615094D01*
X0001139686Y0001619920D01*
X0001144511Y0001623880D01*
X0001150017Y0001626823D01*
X0001155991Y0001628635D01*
X0001162204Y0001629247D01*
X0001168417Y0001628635D01*
G37*
G36*
X0001003287Y0001615593D02*
G01*
X0001009165Y0001614424D01*
X0001015621Y0001611750D01*
X0001021431Y0001607868D01*
X0001026372Y0001602927D01*
X0001030254Y0001597117D01*
X0001032928Y0001590661D01*
X0001034291Y0001583808D01*
X0001034291Y0001576821D01*
X0001032928Y0001569968D01*
X0001030254Y0001563512D01*
X0001026372Y0001557702D01*
X0001021431Y0001552761D01*
X0001015621Y0001548879D01*
X0001009165Y0001546205D01*
X0001003287Y0001545036D01*
X0001002312Y0001544842D01*
X0000995325Y0001544842D01*
X0000994349Y0001545036D01*
X0000988471Y0001546205D01*
X0000982016Y0001548879D01*
X0000976206Y0001552761D01*
X0000971265Y0001557702D01*
X0000967383Y0001563512D01*
X0000964709Y0001569968D01*
X0000963346Y0001576821D01*
X0000963346Y0001583808D01*
X0000964709Y0001590661D01*
X0000967383Y0001597117D01*
X0000971265Y0001602927D01*
X0000976206Y0001607868D01*
X0000982016Y0001611750D01*
X0000988471Y0001614424D01*
X0000994349Y0001615593D01*
X0000995325Y0001615787D01*
X0001002312Y0001615787D01*
X0001003287Y0001615593D01*
G37*
G36*
X0000903287Y0001615593D02*
G01*
X0000909165Y0001614424D01*
X0000915621Y0001611750D01*
X0000921431Y0001607868D01*
X0000926372Y0001602927D01*
X0000930254Y0001597117D01*
X0000932928Y0001590661D01*
X0000934291Y0001583808D01*
X0000934291Y0001576821D01*
X0000932928Y0001569968D01*
X0000930254Y0001563512D01*
X0000926372Y0001557702D01*
X0000921431Y0001552761D01*
X0000915621Y0001548879D01*
X0000909165Y0001546205D01*
X0000903287Y0001545036D01*
X0000902312Y0001544842D01*
X0000895325Y0001544842D01*
X0000894349Y0001545036D01*
X0000888471Y0001546205D01*
X0000882016Y0001548879D01*
X0000876206Y0001552761D01*
X0000871265Y0001557702D01*
X0000867383Y0001563512D01*
X0000864709Y0001569968D01*
X0000863346Y0001576821D01*
X0000863346Y0001583808D01*
X0000864709Y0001590661D01*
X0000867383Y0001597117D01*
X0000871265Y0001602927D01*
X0000876206Y0001607868D01*
X0000882016Y0001611750D01*
X0000888471Y0001614424D01*
X0000894349Y0001615593D01*
X0000895325Y0001615787D01*
X0000902312Y0001615787D01*
X0000903287Y0001615593D01*
G37*
G36*
X0000803287Y0001615593D02*
G01*
X0000809165Y0001614424D01*
X0000815621Y0001611750D01*
X0000821431Y0001607868D01*
X0000826372Y0001602927D01*
X0000830254Y0001597117D01*
X0000832928Y0001590661D01*
X0000834291Y0001583808D01*
X0000834291Y0001576821D01*
X0000832928Y0001569968D01*
X0000830254Y0001563512D01*
X0000826372Y0001557702D01*
X0000821431Y0001552761D01*
X0000815621Y0001548879D01*
X0000809165Y0001546205D01*
X0000803287Y0001545036D01*
X0000802312Y0001544842D01*
X0000795325Y0001544842D01*
X0000794349Y0001545036D01*
X0000788471Y0001546205D01*
X0000782016Y0001548879D01*
X0000776206Y0001552761D01*
X0000771265Y0001557702D01*
X0000767383Y0001563512D01*
X0000764709Y0001569968D01*
X0000763346Y0001576821D01*
X0000763346Y0001583808D01*
X0000764709Y0001590661D01*
X0000767383Y0001597117D01*
X0000771265Y0001602927D01*
X0000776206Y0001607868D01*
X0000782016Y0001611750D01*
X0000788471Y0001614424D01*
X0000794349Y0001615593D01*
X0000795325Y0001615787D01*
X0000802312Y0001615787D01*
X0000803287Y0001615593D01*
G37*
G36*
X0000703287Y0001615593D02*
G01*
X0000709165Y0001614424D01*
X0000715621Y0001611750D01*
X0000721431Y0001607868D01*
X0000726372Y0001602927D01*
X0000730254Y0001597117D01*
X0000732928Y0001590661D01*
X0000734291Y0001583808D01*
X0000734291Y0001576821D01*
X0000732928Y0001569968D01*
X0000730254Y0001563512D01*
X0000726372Y0001557702D01*
X0000721431Y0001552761D01*
X0000715621Y0001548879D01*
X0000709165Y0001546205D01*
X0000703287Y0001545036D01*
X0000702312Y0001544842D01*
X0000695325Y0001544842D01*
X0000694349Y0001545036D01*
X0000688471Y0001546205D01*
X0000682016Y0001548879D01*
X0000676206Y0001552761D01*
X0000671265Y0001557702D01*
X0000667383Y0001563512D01*
X0000664709Y0001569968D01*
X0000663346Y0001576821D01*
X0000663346Y0001583808D01*
X0000664709Y0001590661D01*
X0000667383Y0001597117D01*
X0000671265Y0001602927D01*
X0000676206Y0001607868D01*
X0000682016Y0001611750D01*
X0000688471Y0001614424D01*
X0000694349Y0001615593D01*
X0000695325Y0001615787D01*
X0000702312Y0001615787D01*
X0000703287Y0001615593D01*
G37*
G36*
X0000634291Y0001544842D02*
G01*
X0000563346Y0001544842D01*
X0000563346Y0001615787D01*
X0000634291Y0001615787D01*
X0000634291Y0001544842D01*
G37*
G04 next file*
G04 #@! TF.GenerationSoftware,KiCad,Pcbnew,(5.1.5-0)*
G04 #@! TF.CreationDate,2020-08-20T15:01:18-04:00*
G04 #@! TF.ProjectId,LEDIO,4c454449-4f2e-46b6-9963-61645f706362,rev?*
G04 #@! TF.SameCoordinates,Original*
G04 #@! TF.FileFunction,Soldermask,Bot*
G04 #@! TF.FilePolarity,Negative*
G04 Gerber Fmt 4.6, Leading zero omitted, Abs format (unit mm)*
G04 Created by KiCad (PCBNEW (5.1.5-0)) date 2020-08-20 15:01:18*
G04 APERTURE LIST*
G04 APERTURE END LIST*
D23*
G36*
X0001343771Y0001862730D02*
G01*
X0001349746Y0001860918D01*
X0001355251Y0001857975D01*
X0001360077Y0001854014D01*
X0001364038Y0001849188D01*
X0001366981Y0001843683D01*
X0001368793Y0001837708D01*
X0001369405Y0001831496D01*
X0001368793Y0001825283D01*
X0001366981Y0001819309D01*
X0001364038Y0001813803D01*
X0001360077Y0001808977D01*
X0001355251Y0001805016D01*
X0001349746Y0001802073D01*
X0001343771Y0001800261D01*
X0001339115Y0001799803D01*
X0001276632Y0001799803D01*
X0001271976Y0001800261D01*
X0001266001Y0001802073D01*
X0001260496Y0001805016D01*
X0001255670Y0001808977D01*
X0001251709Y0001813803D01*
X0001248766Y0001819309D01*
X0001246954Y0001825283D01*
X0001246342Y0001831496D01*
X0001246954Y0001837708D01*
X0001248766Y0001843683D01*
X0001251709Y0001849188D01*
X0001255670Y0001854014D01*
X0001260496Y0001857975D01*
X0001266001Y0001860918D01*
X0001271976Y0001862730D01*
X0001276632Y0001863188D01*
X0001339115Y0001863188D01*
X0001343771Y0001862730D01*
G37*
G36*
X0001436134Y0001931785D02*
G01*
X0001442108Y0001929973D01*
X0001447614Y0001927030D01*
X0001452439Y0001923069D01*
X0001456400Y0001918244D01*
X0001459343Y0001912738D01*
X0001461155Y0001906764D01*
X0001461614Y0001902108D01*
X0001461614Y0001839624D01*
X0001461155Y0001834968D01*
X0001459343Y0001828994D01*
X0001456400Y0001823488D01*
X0001452439Y0001818662D01*
X0001447614Y0001814701D01*
X0001442108Y0001811758D01*
X0001436134Y0001809946D01*
X0001429921Y0001809334D01*
X0001423708Y0001809946D01*
X0001417734Y0001811758D01*
X0001412228Y0001814701D01*
X0001407402Y0001818662D01*
X0001403442Y0001823488D01*
X0001400499Y0001828994D01*
X0001398686Y0001834968D01*
X0001398228Y0001839624D01*
X0001398228Y0001902108D01*
X0001398686Y0001906764D01*
X0001400499Y0001912738D01*
X0001403442Y0001918243D01*
X0001407402Y0001923069D01*
X0001412228Y0001927030D01*
X0001417734Y0001929973D01*
X0001423708Y0001931785D01*
X0001429921Y0001932397D01*
X0001436134Y0001931785D01*
G37*
G36*
X0001518811Y0001931785D02*
G01*
X0001524785Y0001929973D01*
X0001530291Y0001927030D01*
X0001535117Y0001923069D01*
X0001539077Y0001918244D01*
X0001542020Y0001912738D01*
X0001543832Y0001906764D01*
X0001544291Y0001902108D01*
X0001544291Y0001839624D01*
X0001543832Y0001834968D01*
X0001542020Y0001828994D01*
X0001539077Y0001823488D01*
X0001535117Y0001818662D01*
X0001530291Y0001814701D01*
X0001524785Y0001811758D01*
X0001518811Y0001809946D01*
X0001512598Y0001809334D01*
X0001506385Y0001809946D01*
X0001500411Y0001811758D01*
X0001494905Y0001814701D01*
X0001490079Y0001818662D01*
X0001486119Y0001823488D01*
X0001483176Y0001828994D01*
X0001481364Y0001834968D01*
X0001480905Y0001839624D01*
X0001480905Y0001902108D01*
X0001481364Y0001906764D01*
X0001483176Y0001912738D01*
X0001486119Y0001918243D01*
X0001490079Y0001923069D01*
X0001494905Y0001927030D01*
X0001500411Y0001929973D01*
X0001506385Y0001931785D01*
X0001512598Y0001932397D01*
X0001518811Y0001931785D01*
G37*
G36*
X0001180228Y0001931785D02*
G01*
X0001186202Y0001929973D01*
X0001191708Y0001927030D01*
X0001196534Y0001923069D01*
X0001200494Y0001918244D01*
X0001203437Y0001912738D01*
X0001205250Y0001906764D01*
X0001205708Y0001902108D01*
X0001205708Y0001839624D01*
X0001205250Y0001834968D01*
X0001203437Y0001828994D01*
X0001200494Y0001823488D01*
X0001196534Y0001818662D01*
X0001191708Y0001814701D01*
X0001186202Y0001811758D01*
X0001180228Y0001809946D01*
X0001174015Y0001809334D01*
X0001167802Y0001809946D01*
X0001161828Y0001811758D01*
X0001156322Y0001814701D01*
X0001151497Y0001818662D01*
X0001147536Y0001823488D01*
X0001144593Y0001828994D01*
X0001142781Y0001834968D01*
X0001142322Y0001839624D01*
X0001142322Y0001902108D01*
X0001142781Y0001906764D01*
X0001144593Y0001912738D01*
X0001147536Y0001918243D01*
X0001151497Y0001923069D01*
X0001156322Y0001927030D01*
X0001161828Y0001929973D01*
X0001167802Y0001931785D01*
X0001174015Y0001932397D01*
X0001180228Y0001931785D01*
G37*
G36*
X0010387132Y0002071538D02*
G01*
X0010392975Y0002070376D01*
X0010404804Y0002065476D01*
X0010415450Y0002058362D01*
X0010424504Y0002049309D01*
X0010431617Y0002038663D01*
X0010436517Y0002026833D01*
X0010439015Y0002014275D01*
X0010439015Y0002001472D01*
X0010436517Y0001988914D01*
X0010431617Y0001977084D01*
X0010424504Y0001966438D01*
X0010415450Y0001957385D01*
X0010404804Y0001950271D01*
X0010392975Y0001945371D01*
X0010388789Y0001944539D01*
X0010380417Y0001942874D01*
X0010367613Y0001942874D01*
X0010359241Y0001944539D01*
X0010355055Y0001945371D01*
X0010343226Y0001950271D01*
X0010332580Y0001957385D01*
X0010323526Y0001966438D01*
X0010316413Y0001977084D01*
X0010311513Y0001988914D01*
X0010309015Y0002001472D01*
X0010309015Y0002014275D01*
X0010311513Y0002026833D01*
X0010316413Y0002038663D01*
X0010323526Y0002049309D01*
X0010332580Y0002058362D01*
X0010343226Y0002065476D01*
X0010355055Y0002070376D01*
X0010360899Y0002071538D01*
X0010367613Y0002072873D01*
X0010380417Y0002072873D01*
X0010387132Y0002071538D01*
G37*
G36*
X0005387132Y0002071538D02*
G01*
X0005392975Y0002070376D01*
X0005404804Y0002065476D01*
X0005415450Y0002058362D01*
X0005424504Y0002049309D01*
X0005431617Y0002038663D01*
X0005436517Y0002026833D01*
X0005439015Y0002014275D01*
X0005439015Y0002001472D01*
X0005436517Y0001988914D01*
X0005431617Y0001977084D01*
X0005424504Y0001966438D01*
X0005415450Y0001957385D01*
X0005404804Y0001950271D01*
X0005392975Y0001945371D01*
X0005388789Y0001944539D01*
X0005380417Y0001942874D01*
X0005367613Y0001942874D01*
X0005359241Y0001944539D01*
X0005355055Y0001945371D01*
X0005343226Y0001950271D01*
X0005332580Y0001957385D01*
X0005323526Y0001966438D01*
X0005316413Y0001977084D01*
X0005311513Y0001988914D01*
X0005309015Y0002001472D01*
X0005309015Y0002014275D01*
X0005311513Y0002026833D01*
X0005316413Y0002038663D01*
X0005323526Y0002049309D01*
X0005332580Y0002058362D01*
X0005343226Y0002065476D01*
X0005355055Y0002070376D01*
X0005360899Y0002071538D01*
X0005367613Y0002072873D01*
X0005380417Y0002072873D01*
X0005387132Y0002071538D01*
G37*
G36*
X0000387132Y0002071538D02*
G01*
X0000392975Y0002070376D01*
X0000404804Y0002065476D01*
X0000415450Y0002058362D01*
X0000424504Y0002049309D01*
X0000431617Y0002038663D01*
X0000436517Y0002026833D01*
X0000439015Y0002014275D01*
X0000439015Y0002001472D01*
X0000436517Y0001988914D01*
X0000431617Y0001977084D01*
X0000424504Y0001966438D01*
X0000415450Y0001957385D01*
X0000404804Y0001950271D01*
X0000392975Y0001945371D01*
X0000388789Y0001944539D01*
X0000380417Y0001942874D01*
X0000367613Y0001942874D01*
X0000359241Y0001944539D01*
X0000355055Y0001945371D01*
X0000343226Y0001950271D01*
X0000332580Y0001957385D01*
X0000323526Y0001966438D01*
X0000316413Y0001977084D01*
X0000311513Y0001988914D01*
X0000309015Y0002001472D01*
X0000309015Y0002014275D01*
X0000311513Y0002026833D01*
X0000316413Y0002038663D01*
X0000323526Y0002049309D01*
X0000332580Y0002058362D01*
X0000343226Y0002065476D01*
X0000355055Y0002070376D01*
X0000360899Y0002071538D01*
X0000367613Y0002072873D01*
X0000380417Y0002072873D01*
X0000387132Y0002071538D01*
G37*
G36*
X0001322240Y0002166256D02*
G01*
X0001331203Y0002162544D01*
X0001339270Y0002157154D01*
X0001346130Y0002150293D01*
X0001350795Y0002143312D01*
X0001351520Y0002142227D01*
X0001355233Y0002133263D01*
X0001356474Y0002127025D01*
X0001357125Y0002123748D01*
X0001357125Y0002114046D01*
X0001355233Y0002104531D01*
X0001351520Y0002095568D01*
X0001346130Y0002087501D01*
X0001339270Y0002080641D01*
X0001331203Y0002075251D01*
X0001331203Y0002075251D01*
X0001331203Y0002075251D01*
X0001322240Y0002071538D01*
X0001312724Y0002069645D01*
X0001303023Y0002069645D01*
X0001293507Y0002071538D01*
X0001284544Y0002075251D01*
X0001284544Y0002075251D01*
X0001284544Y0002075251D01*
X0001276477Y0002080641D01*
X0001269617Y0002087501D01*
X0001264227Y0002095568D01*
X0001260514Y0002104531D01*
X0001258622Y0002114046D01*
X0001258622Y0002123748D01*
X0001259273Y0002127025D01*
X0001260514Y0002133263D01*
X0001264227Y0002142227D01*
X0001264952Y0002143312D01*
X0001269617Y0002150293D01*
X0001276477Y0002157154D01*
X0001284544Y0002162544D01*
X0001293507Y0002166256D01*
X0001303023Y0002168149D01*
X0001312724Y0002168149D01*
X0001322240Y0002166256D01*
G37*
G36*
X0001554244Y0002219187D02*
G01*
X0001560218Y0002217374D01*
X0001565724Y0002214431D01*
X0001570550Y0002210471D01*
X0001574510Y0002205645D01*
X0001577453Y0002200139D01*
X0001579265Y0002194165D01*
X0001579724Y0002189509D01*
X0001579724Y0002127025D01*
X0001579265Y0002122369D01*
X0001577453Y0002116395D01*
X0001574510Y0002110889D01*
X0001570550Y0002106063D01*
X0001565724Y0002102103D01*
X0001560218Y0002099160D01*
X0001554244Y0002097348D01*
X0001548031Y0002096736D01*
X0001541818Y0002097348D01*
X0001535844Y0002099160D01*
X0001530338Y0002102103D01*
X0001525512Y0002106063D01*
X0001521552Y0002110889D01*
X0001518609Y0002116395D01*
X0001516797Y0002122369D01*
X0001516338Y0002127025D01*
X0001516338Y0002189509D01*
X0001516797Y0002194165D01*
X0001518609Y0002200139D01*
X0001521552Y0002205645D01*
X0001525512Y0002210471D01*
X0001530338Y0002214431D01*
X0001535844Y0002217374D01*
X0001541818Y0002219187D01*
X0001548031Y0002219799D01*
X0001554244Y0002219187D01*
G37*
G36*
X0001168417Y0002219187D02*
G01*
X0001174391Y0002217374D01*
X0001179897Y0002214431D01*
X0001184723Y0002210471D01*
X0001188683Y0002205645D01*
X0001191626Y0002200139D01*
X0001193439Y0002194165D01*
X0001193897Y0002189509D01*
X0001193897Y0002127025D01*
X0001193439Y0002122369D01*
X0001191626Y0002116395D01*
X0001188683Y0002110889D01*
X0001184723Y0002106063D01*
X0001179897Y0002102103D01*
X0001174391Y0002099160D01*
X0001168417Y0002097348D01*
X0001162204Y0002096736D01*
X0001155991Y0002097348D01*
X0001150017Y0002099160D01*
X0001144511Y0002102103D01*
X0001139686Y0002106063D01*
X0001135725Y0002110889D01*
X0001132782Y0002116395D01*
X0001130970Y0002122369D01*
X0001130511Y0002127025D01*
X0001130511Y0002189509D01*
X0001130970Y0002194165D01*
X0001132782Y0002200139D01*
X0001135725Y0002205645D01*
X0001139686Y0002210471D01*
X0001144511Y0002214431D01*
X0001150017Y0002217374D01*
X0001155991Y0002219187D01*
X0001162204Y0002219799D01*
X0001168417Y0002219187D01*
G37*
G36*
X0001003287Y0002206144D02*
G01*
X0001009165Y0002204975D01*
X0001015621Y0002202301D01*
X0001021431Y0002198419D01*
X0001026372Y0002193478D01*
X0001030254Y0002187668D01*
X0001032928Y0002181213D01*
X0001034291Y0002174359D01*
X0001034291Y0002167372D01*
X0001032928Y0002160519D01*
X0001030254Y0002154063D01*
X0001026372Y0002148253D01*
X0001021431Y0002143312D01*
X0001015621Y0002139430D01*
X0001009165Y0002136756D01*
X0001003287Y0002135587D01*
X0001002312Y0002135393D01*
X0000995325Y0002135393D01*
X0000994349Y0002135587D01*
X0000988471Y0002136756D01*
X0000982016Y0002139430D01*
X0000976206Y0002143312D01*
X0000971265Y0002148253D01*
X0000967383Y0002154063D01*
X0000964709Y0002160519D01*
X0000963346Y0002167372D01*
X0000963346Y0002174359D01*
X0000964709Y0002181213D01*
X0000967383Y0002187668D01*
X0000971265Y0002193478D01*
X0000976206Y0002198419D01*
X0000982016Y0002202301D01*
X0000988471Y0002204975D01*
X0000994349Y0002206144D01*
X0000995325Y0002206338D01*
X0001002312Y0002206338D01*
X0001003287Y0002206144D01*
G37*
G36*
X0000903287Y0002206144D02*
G01*
X0000909165Y0002204975D01*
X0000915621Y0002202301D01*
X0000921431Y0002198419D01*
X0000926372Y0002193478D01*
X0000930254Y0002187668D01*
X0000932928Y0002181213D01*
X0000934291Y0002174359D01*
X0000934291Y0002167372D01*
X0000932928Y0002160519D01*
X0000930254Y0002154063D01*
X0000926372Y0002148253D01*
X0000921431Y0002143312D01*
X0000915621Y0002139430D01*
X0000909165Y0002136756D01*
X0000903287Y0002135587D01*
X0000902312Y0002135393D01*
X0000895325Y0002135393D01*
X0000894349Y0002135587D01*
X0000888471Y0002136756D01*
X0000882016Y0002139430D01*
X0000876206Y0002143312D01*
X0000871265Y0002148253D01*
X0000867383Y0002154063D01*
X0000864709Y0002160519D01*
X0000863346Y0002167372D01*
X0000863346Y0002174359D01*
X0000864709Y0002181213D01*
X0000867383Y0002187668D01*
X0000871265Y0002193478D01*
X0000876206Y0002198419D01*
X0000882016Y0002202301D01*
X0000888471Y0002204975D01*
X0000894349Y0002206144D01*
X0000895325Y0002206338D01*
X0000902312Y0002206338D01*
X0000903287Y0002206144D01*
G37*
G36*
X0000803287Y0002206144D02*
G01*
X0000809165Y0002204975D01*
X0000815621Y0002202301D01*
X0000821431Y0002198419D01*
X0000826372Y0002193478D01*
X0000830254Y0002187668D01*
X0000832928Y0002181213D01*
X0000834291Y0002174359D01*
X0000834291Y0002167372D01*
X0000832928Y0002160519D01*
X0000830254Y0002154063D01*
X0000826372Y0002148253D01*
X0000821431Y0002143312D01*
X0000815621Y0002139430D01*
X0000809165Y0002136756D01*
X0000803287Y0002135587D01*
X0000802312Y0002135393D01*
X0000795325Y0002135393D01*
X0000794349Y0002135587D01*
X0000788471Y0002136756D01*
X0000782016Y0002139430D01*
X0000776206Y0002143312D01*
X0000771265Y0002148253D01*
X0000767383Y0002154063D01*
X0000764709Y0002160519D01*
X0000763346Y0002167372D01*
X0000763346Y0002174359D01*
X0000764709Y0002181213D01*
X0000767383Y0002187668D01*
X0000771265Y0002193478D01*
X0000776206Y0002198419D01*
X0000782016Y0002202301D01*
X0000788471Y0002204975D01*
X0000794349Y0002206144D01*
X0000795325Y0002206338D01*
X0000802312Y0002206338D01*
X0000803287Y0002206144D01*
G37*
G36*
X0000703287Y0002206144D02*
G01*
X0000709165Y0002204975D01*
X0000715621Y0002202301D01*
X0000721431Y0002198419D01*
X0000726372Y0002193478D01*
X0000730254Y0002187668D01*
X0000732928Y0002181213D01*
X0000734291Y0002174359D01*
X0000734291Y0002167372D01*
X0000732928Y0002160519D01*
X0000730254Y0002154063D01*
X0000726372Y0002148253D01*
X0000721431Y0002143312D01*
X0000715621Y0002139430D01*
X0000709165Y0002136756D01*
X0000703287Y0002135587D01*
X0000702312Y0002135393D01*
X0000695325Y0002135393D01*
X0000694349Y0002135587D01*
X0000688471Y0002136756D01*
X0000682016Y0002139430D01*
X0000676206Y0002143312D01*
X0000671265Y0002148253D01*
X0000667383Y0002154063D01*
X0000664709Y0002160519D01*
X0000663346Y0002167372D01*
X0000663346Y0002174359D01*
X0000664709Y0002181213D01*
X0000667383Y0002187668D01*
X0000671265Y0002193478D01*
X0000676206Y0002198419D01*
X0000682016Y0002202301D01*
X0000688471Y0002204975D01*
X0000694349Y0002206144D01*
X0000695325Y0002206338D01*
X0000702312Y0002206338D01*
X0000703287Y0002206144D01*
G37*
G36*
X0000634291Y0002135393D02*
G01*
X0000563346Y0002135393D01*
X0000563346Y0002206338D01*
X0000634291Y0002206338D01*
X0000634291Y0002135393D01*
G37*
G04 next file*
G04 #@! TF.GenerationSoftware,KiCad,Pcbnew,(5.1.5-0)*
G04 #@! TF.CreationDate,2020-08-20T15:01:18-04:00*
G04 #@! TF.ProjectId,LEDIO,4c454449-4f2e-46b6-9963-61645f706362,rev?*
G04 #@! TF.SameCoordinates,Original*
G04 #@! TF.FileFunction,Soldermask,Bot*
G04 #@! TF.FilePolarity,Negative*
G04 Gerber Fmt 4.6, Leading zero omitted, Abs format (unit mm)*
G04 Created by KiCad (PCBNEW (5.1.5-0)) date 2020-08-20 15:01:18*
G04 APERTURE LIST*
G04 APERTURE END LIST*
D24*
G36*
X0001343771Y0002453281D02*
G01*
X0001349746Y0002451469D01*
X0001355251Y0002448526D01*
X0001360077Y0002444565D01*
X0001364038Y0002439740D01*
X0001366981Y0002434234D01*
X0001368793Y0002428260D01*
X0001369405Y0002422047D01*
X0001368793Y0002415834D01*
X0001366981Y0002409860D01*
X0001364038Y0002404354D01*
X0001360077Y0002399528D01*
X0001355251Y0002395567D01*
X0001349746Y0002392625D01*
X0001343771Y0002390812D01*
X0001339115Y0002390354D01*
X0001276632Y0002390354D01*
X0001271976Y0002390812D01*
X0001266001Y0002392625D01*
X0001260496Y0002395567D01*
X0001255670Y0002399528D01*
X0001251709Y0002404354D01*
X0001248766Y0002409860D01*
X0001246954Y0002415834D01*
X0001246342Y0002422047D01*
X0001246954Y0002428260D01*
X0001248766Y0002434234D01*
X0001251709Y0002439740D01*
X0001255670Y0002444565D01*
X0001260496Y0002448526D01*
X0001266001Y0002451469D01*
X0001271976Y0002453281D01*
X0001276632Y0002453740D01*
X0001339115Y0002453740D01*
X0001343771Y0002453281D01*
G37*
G36*
X0001436134Y0002522336D02*
G01*
X0001442108Y0002520524D01*
X0001447614Y0002517581D01*
X0001452439Y0002513621D01*
X0001456400Y0002508795D01*
X0001459343Y0002503289D01*
X0001461155Y0002497315D01*
X0001461614Y0002492659D01*
X0001461614Y0002430175D01*
X0001461155Y0002425519D01*
X0001459343Y0002419545D01*
X0001456400Y0002414039D01*
X0001452439Y0002409213D01*
X0001447614Y0002405253D01*
X0001442108Y0002402310D01*
X0001436134Y0002400497D01*
X0001429921Y0002399886D01*
X0001423708Y0002400497D01*
X0001417734Y0002402310D01*
X0001412228Y0002405253D01*
X0001407402Y0002409213D01*
X0001403442Y0002414039D01*
X0001400499Y0002419545D01*
X0001398686Y0002425519D01*
X0001398228Y0002430175D01*
X0001398228Y0002492659D01*
X0001398686Y0002497315D01*
X0001400499Y0002503289D01*
X0001403442Y0002508795D01*
X0001407402Y0002513621D01*
X0001412228Y0002517581D01*
X0001417734Y0002520524D01*
X0001423708Y0002522336D01*
X0001429921Y0002522948D01*
X0001436134Y0002522336D01*
G37*
G36*
X0001518811Y0002522336D02*
G01*
X0001524785Y0002520524D01*
X0001530291Y0002517581D01*
X0001535117Y0002513621D01*
X0001539077Y0002508795D01*
X0001542020Y0002503289D01*
X0001543832Y0002497315D01*
X0001544291Y0002492659D01*
X0001544291Y0002430175D01*
X0001543832Y0002425519D01*
X0001542020Y0002419545D01*
X0001539077Y0002414039D01*
X0001535117Y0002409213D01*
X0001530291Y0002405253D01*
X0001524785Y0002402310D01*
X0001518811Y0002400497D01*
X0001512598Y0002399886D01*
X0001506385Y0002400497D01*
X0001500411Y0002402310D01*
X0001494905Y0002405253D01*
X0001490079Y0002409213D01*
X0001486119Y0002414039D01*
X0001483176Y0002419545D01*
X0001481364Y0002425519D01*
X0001480905Y0002430175D01*
X0001480905Y0002492659D01*
X0001481364Y0002497315D01*
X0001483176Y0002503289D01*
X0001486119Y0002508795D01*
X0001490079Y0002513621D01*
X0001494905Y0002517581D01*
X0001500411Y0002520524D01*
X0001506385Y0002522336D01*
X0001512598Y0002522948D01*
X0001518811Y0002522336D01*
G37*
G36*
X0001180228Y0002522336D02*
G01*
X0001186202Y0002520524D01*
X0001191708Y0002517581D01*
X0001196534Y0002513621D01*
X0001200494Y0002508795D01*
X0001203437Y0002503289D01*
X0001205250Y0002497315D01*
X0001205708Y0002492659D01*
X0001205708Y0002430175D01*
X0001205250Y0002425519D01*
X0001203437Y0002419545D01*
X0001200494Y0002414039D01*
X0001196534Y0002409213D01*
X0001191708Y0002405253D01*
X0001186202Y0002402310D01*
X0001180228Y0002400497D01*
X0001174015Y0002399886D01*
X0001167802Y0002400497D01*
X0001161828Y0002402310D01*
X0001156322Y0002405253D01*
X0001151497Y0002409213D01*
X0001147536Y0002414039D01*
X0001144593Y0002419545D01*
X0001142781Y0002425519D01*
X0001142322Y0002430175D01*
X0001142322Y0002492659D01*
X0001142781Y0002497315D01*
X0001144593Y0002503289D01*
X0001147536Y0002508795D01*
X0001151497Y0002513621D01*
X0001156322Y0002517581D01*
X0001161828Y0002520524D01*
X0001167802Y0002522336D01*
X0001174015Y0002522948D01*
X0001180228Y0002522336D01*
G37*
G36*
X0010387132Y0002662089D02*
G01*
X0010392975Y0002660927D01*
X0010404804Y0002656027D01*
X0010415450Y0002648913D01*
X0010424504Y0002639860D01*
X0010431617Y0002629214D01*
X0010436517Y0002617385D01*
X0010439015Y0002604827D01*
X0010439015Y0002592023D01*
X0010436517Y0002579465D01*
X0010431617Y0002567636D01*
X0010424504Y0002556990D01*
X0010415450Y0002547936D01*
X0010404804Y0002540822D01*
X0010392975Y0002535923D01*
X0010388789Y0002535090D01*
X0010380417Y0002533425D01*
X0010367613Y0002533425D01*
X0010359241Y0002535090D01*
X0010355055Y0002535923D01*
X0010343226Y0002540822D01*
X0010332580Y0002547936D01*
X0010323526Y0002556990D01*
X0010316413Y0002567636D01*
X0010311513Y0002579465D01*
X0010309015Y0002592023D01*
X0010309015Y0002604827D01*
X0010311513Y0002617385D01*
X0010316413Y0002629214D01*
X0010323526Y0002639860D01*
X0010332580Y0002648913D01*
X0010343226Y0002656027D01*
X0010355055Y0002660927D01*
X0010360899Y0002662089D01*
X0010367613Y0002663425D01*
X0010380417Y0002663425D01*
X0010387132Y0002662089D01*
G37*
G36*
X0005387132Y0002662089D02*
G01*
X0005392975Y0002660927D01*
X0005404804Y0002656027D01*
X0005415450Y0002648913D01*
X0005424504Y0002639860D01*
X0005431617Y0002629214D01*
X0005436517Y0002617385D01*
X0005439015Y0002604827D01*
X0005439015Y0002592023D01*
X0005436517Y0002579465D01*
X0005431617Y0002567636D01*
X0005424504Y0002556990D01*
X0005415450Y0002547936D01*
X0005404804Y0002540822D01*
X0005392975Y0002535923D01*
X0005388789Y0002535090D01*
X0005380417Y0002533425D01*
X0005367613Y0002533425D01*
X0005359241Y0002535090D01*
X0005355055Y0002535923D01*
X0005343226Y0002540822D01*
X0005332580Y0002547936D01*
X0005323526Y0002556990D01*
X0005316413Y0002567636D01*
X0005311513Y0002579465D01*
X0005309015Y0002592023D01*
X0005309015Y0002604827D01*
X0005311513Y0002617385D01*
X0005316413Y0002629214D01*
X0005323526Y0002639860D01*
X0005332580Y0002648913D01*
X0005343226Y0002656027D01*
X0005355055Y0002660927D01*
X0005360899Y0002662089D01*
X0005367613Y0002663425D01*
X0005380417Y0002663425D01*
X0005387132Y0002662089D01*
G37*
G36*
X0000387132Y0002662089D02*
G01*
X0000392975Y0002660927D01*
X0000404804Y0002656027D01*
X0000415450Y0002648913D01*
X0000424504Y0002639860D01*
X0000431617Y0002629214D01*
X0000436517Y0002617385D01*
X0000439015Y0002604827D01*
X0000439015Y0002592023D01*
X0000436517Y0002579465D01*
X0000431617Y0002567636D01*
X0000424504Y0002556990D01*
X0000415450Y0002547936D01*
X0000404804Y0002540822D01*
X0000392975Y0002535923D01*
X0000388789Y0002535090D01*
X0000380417Y0002533425D01*
X0000367613Y0002533425D01*
X0000359241Y0002535090D01*
X0000355055Y0002535923D01*
X0000343226Y0002540822D01*
X0000332580Y0002547936D01*
X0000323526Y0002556990D01*
X0000316413Y0002567636D01*
X0000311513Y0002579465D01*
X0000309015Y0002592023D01*
X0000309015Y0002604827D01*
X0000311513Y0002617385D01*
X0000316413Y0002629214D01*
X0000323526Y0002639860D01*
X0000332580Y0002648913D01*
X0000343226Y0002656027D01*
X0000355055Y0002660927D01*
X0000360899Y0002662089D01*
X0000367613Y0002663425D01*
X0000380417Y0002663425D01*
X0000387132Y0002662089D01*
G37*
G36*
X0001322240Y0002756808D02*
G01*
X0001331203Y0002753095D01*
X0001339270Y0002747705D01*
X0001346130Y0002740845D01*
X0001350795Y0002733864D01*
X0001351520Y0002732778D01*
X0001355233Y0002723815D01*
X0001356474Y0002717576D01*
X0001357125Y0002714299D01*
X0001357125Y0002704597D01*
X0001355233Y0002695082D01*
X0001351520Y0002686119D01*
X0001346130Y0002678052D01*
X0001339270Y0002671192D01*
X0001331203Y0002665802D01*
X0001331203Y0002665802D01*
X0001331203Y0002665802D01*
X0001322240Y0002662089D01*
X0001312724Y0002660196D01*
X0001303023Y0002660196D01*
X0001293507Y0002662089D01*
X0001284544Y0002665802D01*
X0001284544Y0002665802D01*
X0001284544Y0002665802D01*
X0001276477Y0002671192D01*
X0001269617Y0002678052D01*
X0001264227Y0002686119D01*
X0001260514Y0002695082D01*
X0001258622Y0002704597D01*
X0001258622Y0002714299D01*
X0001259273Y0002717576D01*
X0001260514Y0002723815D01*
X0001264227Y0002732778D01*
X0001264952Y0002733864D01*
X0001269617Y0002740845D01*
X0001276477Y0002747705D01*
X0001284544Y0002753095D01*
X0001293507Y0002756808D01*
X0001303023Y0002758700D01*
X0001312724Y0002758700D01*
X0001322240Y0002756808D01*
G37*
G36*
X0001554244Y0002809738D02*
G01*
X0001560218Y0002807926D01*
X0001565724Y0002804983D01*
X0001570550Y0002801022D01*
X0001574510Y0002796196D01*
X0001577453Y0002790690D01*
X0001579265Y0002784716D01*
X0001579724Y0002780060D01*
X0001579724Y0002717576D01*
X0001579265Y0002712920D01*
X0001577453Y0002706946D01*
X0001574510Y0002701441D01*
X0001570550Y0002696615D01*
X0001565724Y0002692654D01*
X0001560218Y0002689711D01*
X0001554244Y0002687899D01*
X0001548031Y0002687287D01*
X0001541818Y0002687899D01*
X0001535844Y0002689711D01*
X0001530338Y0002692654D01*
X0001525512Y0002696615D01*
X0001521552Y0002701441D01*
X0001518609Y0002706946D01*
X0001516797Y0002712920D01*
X0001516338Y0002717576D01*
X0001516338Y0002780060D01*
X0001516797Y0002784716D01*
X0001518609Y0002790690D01*
X0001521552Y0002796196D01*
X0001525512Y0002801022D01*
X0001530338Y0002804983D01*
X0001535844Y0002807926D01*
X0001541818Y0002809738D01*
X0001548031Y0002810350D01*
X0001554244Y0002809738D01*
G37*
G36*
X0001168417Y0002809738D02*
G01*
X0001174391Y0002807926D01*
X0001179897Y0002804983D01*
X0001184723Y0002801022D01*
X0001188683Y0002796196D01*
X0001191626Y0002790690D01*
X0001193439Y0002784716D01*
X0001193897Y0002780060D01*
X0001193897Y0002717576D01*
X0001193439Y0002712920D01*
X0001191626Y0002706946D01*
X0001188683Y0002701441D01*
X0001184723Y0002696615D01*
X0001179897Y0002692654D01*
X0001174391Y0002689711D01*
X0001168417Y0002687899D01*
X0001162204Y0002687287D01*
X0001155991Y0002687899D01*
X0001150017Y0002689711D01*
X0001144511Y0002692654D01*
X0001139686Y0002696615D01*
X0001135725Y0002701441D01*
X0001132782Y0002706946D01*
X0001130970Y0002712920D01*
X0001130511Y0002717576D01*
X0001130511Y0002780060D01*
X0001130970Y0002784716D01*
X0001132782Y0002790690D01*
X0001135725Y0002796196D01*
X0001139686Y0002801022D01*
X0001144511Y0002804983D01*
X0001150017Y0002807926D01*
X0001155991Y0002809738D01*
X0001162204Y0002810350D01*
X0001168417Y0002809738D01*
G37*
G36*
X0001003287Y0002796695D02*
G01*
X0001009165Y0002795526D01*
X0001015621Y0002792852D01*
X0001021431Y0002788970D01*
X0001026372Y0002784029D01*
X0001030254Y0002778219D01*
X0001032928Y0002771764D01*
X0001034291Y0002764911D01*
X0001034291Y0002757923D01*
X0001032928Y0002751070D01*
X0001030254Y0002744614D01*
X0001026372Y0002738804D01*
X0001021431Y0002733864D01*
X0001015621Y0002729982D01*
X0001009165Y0002727308D01*
X0001003287Y0002726138D01*
X0001002312Y0002725944D01*
X0000995325Y0002725944D01*
X0000994349Y0002726138D01*
X0000988471Y0002727308D01*
X0000982016Y0002729982D01*
X0000976206Y0002733864D01*
X0000971265Y0002738804D01*
X0000967383Y0002744614D01*
X0000964709Y0002751070D01*
X0000963346Y0002757923D01*
X0000963346Y0002764911D01*
X0000964709Y0002771764D01*
X0000967383Y0002778219D01*
X0000971265Y0002784029D01*
X0000976206Y0002788970D01*
X0000982016Y0002792852D01*
X0000988471Y0002795526D01*
X0000994349Y0002796695D01*
X0000995325Y0002796889D01*
X0001002312Y0002796889D01*
X0001003287Y0002796695D01*
G37*
G36*
X0000903287Y0002796695D02*
G01*
X0000909165Y0002795526D01*
X0000915621Y0002792852D01*
X0000921431Y0002788970D01*
X0000926372Y0002784029D01*
X0000930254Y0002778219D01*
X0000932928Y0002771764D01*
X0000934291Y0002764911D01*
X0000934291Y0002757923D01*
X0000932928Y0002751070D01*
X0000930254Y0002744614D01*
X0000926372Y0002738804D01*
X0000921431Y0002733864D01*
X0000915621Y0002729982D01*
X0000909165Y0002727308D01*
X0000903287Y0002726138D01*
X0000902312Y0002725944D01*
X0000895325Y0002725944D01*
X0000894349Y0002726138D01*
X0000888471Y0002727308D01*
X0000882016Y0002729982D01*
X0000876206Y0002733864D01*
X0000871265Y0002738804D01*
X0000867383Y0002744614D01*
X0000864709Y0002751070D01*
X0000863346Y0002757923D01*
X0000863346Y0002764911D01*
X0000864709Y0002771764D01*
X0000867383Y0002778219D01*
X0000871265Y0002784029D01*
X0000876206Y0002788970D01*
X0000882016Y0002792852D01*
X0000888471Y0002795526D01*
X0000894349Y0002796695D01*
X0000895325Y0002796889D01*
X0000902312Y0002796889D01*
X0000903287Y0002796695D01*
G37*
G36*
X0000803287Y0002796695D02*
G01*
X0000809165Y0002795526D01*
X0000815621Y0002792852D01*
X0000821431Y0002788970D01*
X0000826372Y0002784029D01*
X0000830254Y0002778219D01*
X0000832928Y0002771764D01*
X0000834291Y0002764911D01*
X0000834291Y0002757923D01*
X0000832928Y0002751070D01*
X0000830254Y0002744614D01*
X0000826372Y0002738804D01*
X0000821431Y0002733864D01*
X0000815621Y0002729982D01*
X0000809165Y0002727308D01*
X0000803287Y0002726138D01*
X0000802312Y0002725944D01*
X0000795325Y0002725944D01*
X0000794349Y0002726138D01*
X0000788471Y0002727308D01*
X0000782016Y0002729982D01*
X0000776206Y0002733864D01*
X0000771265Y0002738804D01*
X0000767383Y0002744614D01*
X0000764709Y0002751070D01*
X0000763346Y0002757923D01*
X0000763346Y0002764911D01*
X0000764709Y0002771764D01*
X0000767383Y0002778219D01*
X0000771265Y0002784029D01*
X0000776206Y0002788970D01*
X0000782016Y0002792852D01*
X0000788471Y0002795526D01*
X0000794349Y0002796695D01*
X0000795325Y0002796889D01*
X0000802312Y0002796889D01*
X0000803287Y0002796695D01*
G37*
G36*
X0000703287Y0002796695D02*
G01*
X0000709165Y0002795526D01*
X0000715621Y0002792852D01*
X0000721431Y0002788970D01*
X0000726372Y0002784029D01*
X0000730254Y0002778219D01*
X0000732928Y0002771764D01*
X0000734291Y0002764911D01*
X0000734291Y0002757923D01*
X0000732928Y0002751070D01*
X0000730254Y0002744614D01*
X0000726372Y0002738804D01*
X0000721431Y0002733864D01*
X0000715621Y0002729982D01*
X0000709165Y0002727308D01*
X0000703287Y0002726138D01*
X0000702312Y0002725944D01*
X0000695325Y0002725944D01*
X0000694349Y0002726138D01*
X0000688471Y0002727308D01*
X0000682016Y0002729982D01*
X0000676206Y0002733864D01*
X0000671265Y0002738804D01*
X0000667383Y0002744614D01*
X0000664709Y0002751070D01*
X0000663346Y0002757923D01*
X0000663346Y0002764911D01*
X0000664709Y0002771764D01*
X0000667383Y0002778219D01*
X0000671265Y0002784029D01*
X0000676206Y0002788970D01*
X0000682016Y0002792852D01*
X0000688471Y0002795526D01*
X0000694349Y0002796695D01*
X0000695325Y0002796889D01*
X0000702312Y0002796889D01*
X0000703287Y0002796695D01*
G37*
G36*
X0000634291Y0002725944D02*
G01*
X0000563346Y0002725944D01*
X0000563346Y0002796889D01*
X0000634291Y0002796889D01*
X0000634291Y0002725944D01*
G37*
G04 next file*
G04 #@! TF.GenerationSoftware,KiCad,Pcbnew,(5.1.5-0)*
G04 #@! TF.CreationDate,2020-08-20T15:01:18-04:00*
G04 #@! TF.ProjectId,LEDIO,4c454449-4f2e-46b6-9963-61645f706362,rev?*
G04 #@! TF.SameCoordinates,Original*
G04 #@! TF.FileFunction,Soldermask,Bot*
G04 #@! TF.FilePolarity,Negative*
G04 Gerber Fmt 4.6, Leading zero omitted, Abs format (unit mm)*
G04 Created by KiCad (PCBNEW (5.1.5-0)) date 2020-08-20 15:01:18*
G04 APERTURE LIST*
G04 APERTURE END LIST*
D25*
G36*
X0001343771Y0003043832D02*
G01*
X0001349746Y0003042020D01*
X0001355251Y0003039077D01*
X0001360077Y0003035117D01*
X0001364038Y0003030291D01*
X0001366981Y0003024785D01*
X0001368793Y0003018811D01*
X0001369405Y0003012598D01*
X0001368793Y0003006385D01*
X0001366981Y0003000411D01*
X0001364038Y0002994905D01*
X0001360077Y0002990079D01*
X0001355251Y0002986119D01*
X0001349746Y0002983176D01*
X0001343771Y0002981364D01*
X0001339115Y0002980905D01*
X0001276632Y0002980905D01*
X0001271976Y0002981364D01*
X0001266001Y0002983176D01*
X0001260496Y0002986119D01*
X0001255670Y0002990079D01*
X0001251709Y0002994905D01*
X0001248766Y0003000411D01*
X0001246954Y0003006385D01*
X0001246342Y0003012598D01*
X0001246954Y0003018811D01*
X0001248766Y0003024785D01*
X0001251709Y0003030291D01*
X0001255670Y0003035117D01*
X0001260496Y0003039077D01*
X0001266001Y0003042020D01*
X0001271976Y0003043832D01*
X0001276632Y0003044291D01*
X0001339115Y0003044291D01*
X0001343771Y0003043832D01*
G37*
G36*
X0001436134Y0003112887D02*
G01*
X0001442108Y0003111075D01*
X0001447614Y0003108132D01*
X0001452439Y0003104172D01*
X0001456400Y0003099346D01*
X0001459343Y0003093840D01*
X0001461155Y0003087866D01*
X0001461614Y0003083210D01*
X0001461614Y0003020726D01*
X0001461155Y0003016070D01*
X0001459343Y0003010096D01*
X0001456400Y0003004590D01*
X0001452439Y0002999764D01*
X0001447614Y0002995804D01*
X0001442108Y0002992861D01*
X0001436134Y0002991049D01*
X0001429921Y0002990437D01*
X0001423708Y0002991049D01*
X0001417734Y0002992861D01*
X0001412228Y0002995804D01*
X0001407402Y0002999764D01*
X0001403442Y0003004590D01*
X0001400499Y0003010096D01*
X0001398686Y0003016070D01*
X0001398228Y0003020726D01*
X0001398228Y0003083210D01*
X0001398686Y0003087866D01*
X0001400499Y0003093840D01*
X0001403442Y0003099346D01*
X0001407402Y0003104172D01*
X0001412228Y0003108132D01*
X0001417734Y0003111075D01*
X0001423708Y0003112887D01*
X0001429921Y0003113499D01*
X0001436134Y0003112887D01*
G37*
G36*
X0001518811Y0003112887D02*
G01*
X0001524785Y0003111075D01*
X0001530291Y0003108132D01*
X0001535117Y0003104172D01*
X0001539077Y0003099346D01*
X0001542020Y0003093840D01*
X0001543832Y0003087866D01*
X0001544291Y0003083210D01*
X0001544291Y0003020726D01*
X0001543832Y0003016070D01*
X0001542020Y0003010096D01*
X0001539077Y0003004590D01*
X0001535117Y0002999764D01*
X0001530291Y0002995804D01*
X0001524785Y0002992861D01*
X0001518811Y0002991049D01*
X0001512598Y0002990437D01*
X0001506385Y0002991049D01*
X0001500411Y0002992861D01*
X0001494905Y0002995804D01*
X0001490079Y0002999764D01*
X0001486119Y0003004590D01*
X0001483176Y0003010096D01*
X0001481364Y0003016070D01*
X0001480905Y0003020726D01*
X0001480905Y0003083210D01*
X0001481364Y0003087866D01*
X0001483176Y0003093840D01*
X0001486119Y0003099346D01*
X0001490079Y0003104172D01*
X0001494905Y0003108132D01*
X0001500411Y0003111075D01*
X0001506385Y0003112887D01*
X0001512598Y0003113499D01*
X0001518811Y0003112887D01*
G37*
G36*
X0001180228Y0003112887D02*
G01*
X0001186202Y0003111075D01*
X0001191708Y0003108132D01*
X0001196534Y0003104172D01*
X0001200494Y0003099346D01*
X0001203437Y0003093840D01*
X0001205250Y0003087866D01*
X0001205708Y0003083210D01*
X0001205708Y0003020726D01*
X0001205250Y0003016070D01*
X0001203437Y0003010096D01*
X0001200494Y0003004590D01*
X0001196534Y0002999764D01*
X0001191708Y0002995804D01*
X0001186202Y0002992861D01*
X0001180228Y0002991049D01*
X0001174015Y0002990437D01*
X0001167802Y0002991049D01*
X0001161828Y0002992861D01*
X0001156322Y0002995804D01*
X0001151497Y0002999764D01*
X0001147536Y0003004590D01*
X0001144593Y0003010096D01*
X0001142781Y0003016070D01*
X0001142322Y0003020726D01*
X0001142322Y0003083210D01*
X0001142781Y0003087866D01*
X0001144593Y0003093840D01*
X0001147536Y0003099346D01*
X0001151497Y0003104172D01*
X0001156322Y0003108132D01*
X0001161828Y0003111075D01*
X0001167802Y0003112887D01*
X0001174015Y0003113499D01*
X0001180228Y0003112887D01*
G37*
G36*
X0010387132Y0003252640D02*
G01*
X0010392975Y0003251478D01*
X0010404804Y0003246578D01*
X0010415450Y0003239465D01*
X0010424504Y0003230411D01*
X0010431617Y0003219765D01*
X0010436517Y0003207936D01*
X0010439015Y0003195378D01*
X0010439015Y0003182574D01*
X0010436517Y0003170016D01*
X0010431617Y0003158187D01*
X0010424504Y0003147541D01*
X0010415450Y0003138487D01*
X0010404804Y0003131374D01*
X0010392975Y0003126474D01*
X0010388789Y0003125641D01*
X0010380417Y0003123976D01*
X0010367613Y0003123976D01*
X0010359241Y0003125641D01*
X0010355055Y0003126474D01*
X0010343226Y0003131374D01*
X0010332580Y0003138487D01*
X0010323526Y0003147541D01*
X0010316413Y0003158187D01*
X0010311513Y0003170016D01*
X0010309015Y0003182574D01*
X0010309015Y0003195378D01*
X0010311513Y0003207936D01*
X0010316413Y0003219765D01*
X0010323526Y0003230411D01*
X0010332580Y0003239465D01*
X0010343226Y0003246578D01*
X0010355055Y0003251478D01*
X0010360899Y0003252640D01*
X0010367613Y0003253976D01*
X0010380417Y0003253976D01*
X0010387132Y0003252640D01*
G37*
G36*
X0005387132Y0003252640D02*
G01*
X0005392975Y0003251478D01*
X0005404804Y0003246578D01*
X0005415450Y0003239465D01*
X0005424504Y0003230411D01*
X0005431617Y0003219765D01*
X0005436517Y0003207936D01*
X0005439015Y0003195378D01*
X0005439015Y0003182574D01*
X0005436517Y0003170016D01*
X0005431617Y0003158187D01*
X0005424504Y0003147541D01*
X0005415450Y0003138487D01*
X0005404804Y0003131374D01*
X0005392975Y0003126474D01*
X0005388789Y0003125641D01*
X0005380417Y0003123976D01*
X0005367613Y0003123976D01*
X0005359241Y0003125641D01*
X0005355055Y0003126474D01*
X0005343226Y0003131374D01*
X0005332580Y0003138487D01*
X0005323526Y0003147541D01*
X0005316413Y0003158187D01*
X0005311513Y0003170016D01*
X0005309015Y0003182574D01*
X0005309015Y0003195378D01*
X0005311513Y0003207936D01*
X0005316413Y0003219765D01*
X0005323526Y0003230411D01*
X0005332580Y0003239465D01*
X0005343226Y0003246578D01*
X0005355055Y0003251478D01*
X0005360899Y0003252640D01*
X0005367613Y0003253976D01*
X0005380417Y0003253976D01*
X0005387132Y0003252640D01*
G37*
G36*
X0000387132Y0003252640D02*
G01*
X0000392975Y0003251478D01*
X0000404804Y0003246578D01*
X0000415450Y0003239465D01*
X0000424504Y0003230411D01*
X0000431617Y0003219765D01*
X0000436517Y0003207936D01*
X0000439015Y0003195378D01*
X0000439015Y0003182574D01*
X0000436517Y0003170016D01*
X0000431617Y0003158187D01*
X0000424504Y0003147541D01*
X0000415450Y0003138487D01*
X0000404804Y0003131374D01*
X0000392975Y0003126474D01*
X0000388789Y0003125641D01*
X0000380417Y0003123976D01*
X0000367613Y0003123976D01*
X0000359241Y0003125641D01*
X0000355055Y0003126474D01*
X0000343226Y0003131374D01*
X0000332580Y0003138487D01*
X0000323526Y0003147541D01*
X0000316413Y0003158187D01*
X0000311513Y0003170016D01*
X0000309015Y0003182574D01*
X0000309015Y0003195378D01*
X0000311513Y0003207936D01*
X0000316413Y0003219765D01*
X0000323526Y0003230411D01*
X0000332580Y0003239465D01*
X0000343226Y0003246578D01*
X0000355055Y0003251478D01*
X0000360899Y0003252640D01*
X0000367613Y0003253976D01*
X0000380417Y0003253976D01*
X0000387132Y0003252640D01*
G37*
G36*
X0001322240Y0003347359D02*
G01*
X0001331203Y0003343646D01*
X0001339270Y0003338256D01*
X0001346130Y0003331396D01*
X0001350795Y0003324415D01*
X0001351520Y0003323329D01*
X0001355233Y0003314366D01*
X0001356474Y0003308128D01*
X0001357125Y0003304850D01*
X0001357125Y0003295149D01*
X0001355233Y0003285633D01*
X0001351520Y0003276670D01*
X0001346130Y0003268603D01*
X0001339270Y0003261743D01*
X0001331203Y0003256353D01*
X0001331203Y0003256353D01*
X0001331203Y0003256353D01*
X0001322240Y0003252640D01*
X0001312724Y0003250748D01*
X0001303023Y0003250748D01*
X0001293507Y0003252640D01*
X0001284544Y0003256353D01*
X0001284544Y0003256353D01*
X0001284544Y0003256353D01*
X0001276477Y0003261743D01*
X0001269617Y0003268603D01*
X0001264227Y0003276670D01*
X0001260514Y0003285633D01*
X0001258622Y0003295149D01*
X0001258622Y0003304850D01*
X0001259273Y0003308128D01*
X0001260514Y0003314366D01*
X0001264227Y0003323329D01*
X0001264952Y0003324415D01*
X0001269617Y0003331396D01*
X0001276477Y0003338256D01*
X0001284544Y0003343646D01*
X0001293507Y0003347359D01*
X0001303023Y0003349251D01*
X0001312724Y0003349251D01*
X0001322240Y0003347359D01*
G37*
G36*
X0001554244Y0003400289D02*
G01*
X0001560218Y0003398477D01*
X0001565724Y0003395534D01*
X0001570550Y0003391573D01*
X0001574510Y0003386747D01*
X0001577453Y0003381242D01*
X0001579265Y0003375268D01*
X0001579724Y0003370612D01*
X0001579724Y0003308128D01*
X0001579265Y0003303472D01*
X0001577453Y0003297497D01*
X0001574510Y0003291992D01*
X0001570550Y0003287166D01*
X0001565724Y0003283205D01*
X0001560218Y0003280262D01*
X0001554244Y0003278450D01*
X0001548031Y0003277838D01*
X0001541818Y0003278450D01*
X0001535844Y0003280262D01*
X0001530338Y0003283205D01*
X0001525512Y0003287166D01*
X0001521552Y0003291992D01*
X0001518609Y0003297497D01*
X0001516797Y0003303472D01*
X0001516338Y0003308128D01*
X0001516338Y0003370612D01*
X0001516797Y0003375267D01*
X0001518609Y0003381242D01*
X0001521552Y0003386747D01*
X0001525512Y0003391573D01*
X0001530338Y0003395534D01*
X0001535844Y0003398477D01*
X0001541818Y0003400289D01*
X0001548031Y0003400901D01*
X0001554244Y0003400289D01*
G37*
G36*
X0001168417Y0003400289D02*
G01*
X0001174391Y0003398477D01*
X0001179897Y0003395534D01*
X0001184723Y0003391573D01*
X0001188683Y0003386747D01*
X0001191626Y0003381242D01*
X0001193439Y0003375268D01*
X0001193897Y0003370612D01*
X0001193897Y0003308128D01*
X0001193439Y0003303472D01*
X0001191626Y0003297497D01*
X0001188683Y0003291992D01*
X0001184723Y0003287166D01*
X0001179897Y0003283205D01*
X0001174391Y0003280262D01*
X0001168417Y0003278450D01*
X0001162204Y0003277838D01*
X0001155991Y0003278450D01*
X0001150017Y0003280262D01*
X0001144511Y0003283205D01*
X0001139686Y0003287166D01*
X0001135725Y0003291992D01*
X0001132782Y0003297497D01*
X0001130970Y0003303472D01*
X0001130511Y0003308128D01*
X0001130511Y0003370612D01*
X0001130970Y0003375267D01*
X0001132782Y0003381242D01*
X0001135725Y0003386747D01*
X0001139686Y0003391573D01*
X0001144511Y0003395534D01*
X0001150017Y0003398477D01*
X0001155991Y0003400289D01*
X0001162204Y0003400901D01*
X0001168417Y0003400289D01*
G37*
G36*
X0001003287Y0003387246D02*
G01*
X0001009165Y0003386077D01*
X0001015621Y0003383403D01*
X0001021431Y0003379521D01*
X0001026372Y0003374580D01*
X0001030254Y0003368771D01*
X0001032928Y0003362315D01*
X0001034291Y0003355462D01*
X0001034291Y0003348474D01*
X0001032928Y0003341621D01*
X0001030254Y0003335165D01*
X0001026372Y0003329356D01*
X0001021431Y0003324415D01*
X0001015621Y0003320533D01*
X0001009165Y0003317859D01*
X0001003287Y0003316690D01*
X0001002312Y0003316496D01*
X0000995325Y0003316496D01*
X0000994349Y0003316690D01*
X0000988471Y0003317859D01*
X0000982016Y0003320533D01*
X0000976206Y0003324415D01*
X0000971265Y0003329356D01*
X0000967383Y0003335165D01*
X0000964709Y0003341621D01*
X0000963346Y0003348474D01*
X0000963346Y0003355462D01*
X0000964709Y0003362315D01*
X0000967383Y0003368771D01*
X0000971265Y0003374580D01*
X0000976206Y0003379521D01*
X0000982016Y0003383403D01*
X0000988471Y0003386077D01*
X0000994349Y0003387246D01*
X0000995325Y0003387440D01*
X0001002312Y0003387440D01*
X0001003287Y0003387246D01*
G37*
G36*
X0000903287Y0003387246D02*
G01*
X0000909165Y0003386077D01*
X0000915621Y0003383403D01*
X0000921431Y0003379521D01*
X0000926372Y0003374580D01*
X0000930254Y0003368771D01*
X0000932928Y0003362315D01*
X0000934291Y0003355462D01*
X0000934291Y0003348474D01*
X0000932928Y0003341621D01*
X0000930254Y0003335165D01*
X0000926372Y0003329356D01*
X0000921431Y0003324415D01*
X0000915621Y0003320533D01*
X0000909165Y0003317859D01*
X0000903287Y0003316690D01*
X0000902312Y0003316496D01*
X0000895325Y0003316496D01*
X0000894349Y0003316690D01*
X0000888471Y0003317859D01*
X0000882016Y0003320533D01*
X0000876206Y0003324415D01*
X0000871265Y0003329356D01*
X0000867383Y0003335165D01*
X0000864709Y0003341621D01*
X0000863346Y0003348474D01*
X0000863346Y0003355462D01*
X0000864709Y0003362315D01*
X0000867383Y0003368771D01*
X0000871265Y0003374580D01*
X0000876206Y0003379521D01*
X0000882016Y0003383403D01*
X0000888471Y0003386077D01*
X0000894349Y0003387246D01*
X0000895325Y0003387440D01*
X0000902312Y0003387440D01*
X0000903287Y0003387246D01*
G37*
G36*
X0000803287Y0003387246D02*
G01*
X0000809165Y0003386077D01*
X0000815621Y0003383403D01*
X0000821431Y0003379521D01*
X0000826372Y0003374580D01*
X0000830254Y0003368771D01*
X0000832928Y0003362315D01*
X0000834291Y0003355462D01*
X0000834291Y0003348474D01*
X0000832928Y0003341621D01*
X0000830254Y0003335165D01*
X0000826372Y0003329356D01*
X0000821431Y0003324415D01*
X0000815621Y0003320533D01*
X0000809165Y0003317859D01*
X0000803287Y0003316690D01*
X0000802312Y0003316496D01*
X0000795325Y0003316496D01*
X0000794349Y0003316690D01*
X0000788471Y0003317859D01*
X0000782016Y0003320533D01*
X0000776206Y0003324415D01*
X0000771265Y0003329356D01*
X0000767383Y0003335165D01*
X0000764709Y0003341621D01*
X0000763346Y0003348474D01*
X0000763346Y0003355462D01*
X0000764709Y0003362315D01*
X0000767383Y0003368771D01*
X0000771265Y0003374580D01*
X0000776206Y0003379521D01*
X0000782016Y0003383403D01*
X0000788471Y0003386077D01*
X0000794349Y0003387246D01*
X0000795325Y0003387440D01*
X0000802312Y0003387440D01*
X0000803287Y0003387246D01*
G37*
G36*
X0000703287Y0003387246D02*
G01*
X0000709165Y0003386077D01*
X0000715621Y0003383403D01*
X0000721431Y0003379521D01*
X0000726372Y0003374580D01*
X0000730254Y0003368771D01*
X0000732928Y0003362315D01*
X0000734291Y0003355462D01*
X0000734291Y0003348474D01*
X0000732928Y0003341621D01*
X0000730254Y0003335165D01*
X0000726372Y0003329356D01*
X0000721431Y0003324415D01*
X0000715621Y0003320533D01*
X0000709165Y0003317859D01*
X0000703287Y0003316690D01*
X0000702312Y0003316496D01*
X0000695325Y0003316496D01*
X0000694349Y0003316690D01*
X0000688471Y0003317859D01*
X0000682016Y0003320533D01*
X0000676206Y0003324415D01*
X0000671265Y0003329356D01*
X0000667383Y0003335165D01*
X0000664709Y0003341621D01*
X0000663346Y0003348474D01*
X0000663346Y0003355462D01*
X0000664709Y0003362315D01*
X0000667383Y0003368771D01*
X0000671265Y0003374580D01*
X0000676206Y0003379521D01*
X0000682016Y0003383403D01*
X0000688471Y0003386077D01*
X0000694349Y0003387246D01*
X0000695325Y0003387440D01*
X0000702312Y0003387440D01*
X0000703287Y0003387246D01*
G37*
G36*
X0000634291Y0003316496D02*
G01*
X0000563346Y0003316496D01*
X0000563346Y0003387440D01*
X0000634291Y0003387440D01*
X0000634291Y0003316496D01*
G37*
G04 next file*
G04 #@! TF.GenerationSoftware,KiCad,Pcbnew,(5.1.5-0)*
G04 #@! TF.CreationDate,2020-08-20T15:01:18-04:00*
G04 #@! TF.ProjectId,LEDIO,4c454449-4f2e-46b6-9963-61645f706362,rev?*
G04 #@! TF.SameCoordinates,Original*
G04 #@! TF.FileFunction,Soldermask,Bot*
G04 #@! TF.FilePolarity,Negative*
G04 Gerber Fmt 4.6, Leading zero omitted, Abs format (unit mm)*
G04 Created by KiCad (PCBNEW (5.1.5-0)) date 2020-08-20 15:01:18*
G04 APERTURE LIST*
G04 APERTURE END LIST*
D26*
G36*
X0001343771Y0003634383D02*
G01*
X0001349746Y0003632571D01*
X0001355251Y0003629628D01*
X0001360077Y0003625668D01*
X0001364038Y0003620842D01*
X0001366981Y0003615336D01*
X0001368793Y0003609362D01*
X0001369405Y0003603149D01*
X0001368793Y0003596936D01*
X0001366981Y0003590962D01*
X0001364038Y0003585456D01*
X0001360077Y0003580630D01*
X0001355251Y0003576670D01*
X0001349746Y0003573727D01*
X0001343771Y0003571915D01*
X0001339115Y0003571456D01*
X0001276632Y0003571456D01*
X0001271976Y0003571915D01*
X0001266001Y0003573727D01*
X0001260496Y0003576670D01*
X0001255670Y0003580630D01*
X0001251709Y0003585456D01*
X0001248766Y0003590962D01*
X0001246954Y0003596936D01*
X0001246342Y0003603149D01*
X0001246954Y0003609362D01*
X0001248766Y0003615336D01*
X0001251709Y0003620842D01*
X0001255670Y0003625668D01*
X0001260496Y0003629628D01*
X0001266001Y0003632571D01*
X0001271976Y0003634383D01*
X0001276632Y0003634842D01*
X0001339115Y0003634842D01*
X0001343771Y0003634383D01*
G37*
G36*
X0001436134Y0003703439D02*
G01*
X0001442108Y0003701626D01*
X0001447614Y0003698683D01*
X0001452439Y0003694723D01*
X0001456400Y0003689897D01*
X0001459343Y0003684391D01*
X0001461155Y0003678417D01*
X0001461614Y0003673761D01*
X0001461614Y0003611277D01*
X0001461155Y0003606621D01*
X0001459343Y0003600647D01*
X0001456400Y0003595141D01*
X0001452439Y0003590315D01*
X0001447614Y0003586355D01*
X0001442108Y0003583412D01*
X0001436134Y0003581600D01*
X0001429921Y0003580988D01*
X0001423708Y0003581600D01*
X0001417734Y0003583412D01*
X0001412228Y0003586355D01*
X0001407402Y0003590315D01*
X0001403442Y0003595141D01*
X0001400499Y0003600647D01*
X0001398686Y0003606621D01*
X0001398228Y0003611277D01*
X0001398228Y0003673761D01*
X0001398686Y0003678417D01*
X0001400499Y0003684391D01*
X0001403442Y0003689897D01*
X0001407402Y0003694723D01*
X0001412228Y0003698683D01*
X0001417734Y0003701626D01*
X0001423708Y0003703439D01*
X0001429921Y0003704050D01*
X0001436134Y0003703439D01*
G37*
G36*
X0001518811Y0003703439D02*
G01*
X0001524785Y0003701626D01*
X0001530291Y0003698683D01*
X0001535117Y0003694723D01*
X0001539077Y0003689897D01*
X0001542020Y0003684391D01*
X0001543832Y0003678417D01*
X0001544291Y0003673761D01*
X0001544291Y0003611277D01*
X0001543832Y0003606621D01*
X0001542020Y0003600647D01*
X0001539077Y0003595141D01*
X0001535117Y0003590315D01*
X0001530291Y0003586355D01*
X0001524785Y0003583412D01*
X0001518811Y0003581600D01*
X0001512598Y0003580988D01*
X0001506385Y0003581600D01*
X0001500411Y0003583412D01*
X0001494905Y0003586355D01*
X0001490079Y0003590315D01*
X0001486119Y0003595141D01*
X0001483176Y0003600647D01*
X0001481364Y0003606621D01*
X0001480905Y0003611277D01*
X0001480905Y0003673761D01*
X0001481364Y0003678417D01*
X0001483176Y0003684391D01*
X0001486119Y0003689897D01*
X0001490079Y0003694723D01*
X0001494905Y0003698683D01*
X0001500411Y0003701626D01*
X0001506385Y0003703439D01*
X0001512598Y0003704050D01*
X0001518811Y0003703439D01*
G37*
G36*
X0001180228Y0003703439D02*
G01*
X0001186202Y0003701626D01*
X0001191708Y0003698683D01*
X0001196534Y0003694723D01*
X0001200494Y0003689897D01*
X0001203437Y0003684391D01*
X0001205250Y0003678417D01*
X0001205708Y0003673761D01*
X0001205708Y0003611277D01*
X0001205250Y0003606621D01*
X0001203437Y0003600647D01*
X0001200494Y0003595141D01*
X0001196534Y0003590315D01*
X0001191708Y0003586355D01*
X0001186202Y0003583412D01*
X0001180228Y0003581600D01*
X0001174015Y0003580988D01*
X0001167802Y0003581600D01*
X0001161828Y0003583412D01*
X0001156322Y0003586355D01*
X0001151497Y0003590315D01*
X0001147536Y0003595141D01*
X0001144593Y0003600647D01*
X0001142781Y0003606621D01*
X0001142322Y0003611277D01*
X0001142322Y0003673761D01*
X0001142781Y0003678417D01*
X0001144593Y0003684391D01*
X0001147536Y0003689897D01*
X0001151497Y0003694723D01*
X0001156322Y0003698683D01*
X0001161828Y0003701626D01*
X0001167802Y0003703439D01*
X0001174015Y0003704050D01*
X0001180228Y0003703439D01*
G37*
G36*
X0010387132Y0003843191D02*
G01*
X0010392975Y0003842029D01*
X0010404804Y0003837129D01*
X0010415450Y0003830016D01*
X0010424504Y0003820962D01*
X0010431617Y0003810316D01*
X0010436517Y0003798487D01*
X0010439015Y0003785929D01*
X0010439015Y0003773125D01*
X0010436517Y0003760567D01*
X0010431617Y0003748738D01*
X0010424504Y0003738092D01*
X0010415450Y0003729038D01*
X0010404804Y0003721925D01*
X0010392975Y0003717025D01*
X0010388789Y0003716192D01*
X0010380417Y0003714527D01*
X0010367613Y0003714527D01*
X0010359241Y0003716192D01*
X0010355055Y0003717025D01*
X0010343226Y0003721925D01*
X0010332580Y0003729038D01*
X0010323526Y0003738092D01*
X0010316413Y0003748738D01*
X0010311513Y0003760567D01*
X0010309015Y0003773125D01*
X0010309015Y0003785929D01*
X0010311513Y0003798487D01*
X0010316413Y0003810316D01*
X0010323526Y0003820962D01*
X0010332580Y0003830016D01*
X0010343226Y0003837129D01*
X0010355055Y0003842029D01*
X0010360899Y0003843191D01*
X0010367613Y0003844527D01*
X0010380417Y0003844527D01*
X0010387132Y0003843191D01*
G37*
G36*
X0005387132Y0003843191D02*
G01*
X0005392975Y0003842029D01*
X0005404804Y0003837129D01*
X0005415450Y0003830016D01*
X0005424504Y0003820962D01*
X0005431617Y0003810316D01*
X0005436517Y0003798487D01*
X0005439015Y0003785929D01*
X0005439015Y0003773125D01*
X0005436517Y0003760567D01*
X0005431617Y0003748738D01*
X0005424504Y0003738092D01*
X0005415450Y0003729038D01*
X0005404804Y0003721925D01*
X0005392975Y0003717025D01*
X0005388789Y0003716192D01*
X0005380417Y0003714527D01*
X0005367613Y0003714527D01*
X0005359241Y0003716192D01*
X0005355055Y0003717025D01*
X0005343226Y0003721925D01*
X0005332580Y0003729038D01*
X0005323526Y0003738092D01*
X0005316413Y0003748738D01*
X0005311513Y0003760567D01*
X0005309015Y0003773125D01*
X0005309015Y0003785929D01*
X0005311513Y0003798487D01*
X0005316413Y0003810316D01*
X0005323526Y0003820962D01*
X0005332580Y0003830016D01*
X0005343226Y0003837129D01*
X0005355055Y0003842029D01*
X0005360899Y0003843191D01*
X0005367613Y0003844527D01*
X0005380417Y0003844527D01*
X0005387132Y0003843191D01*
G37*
G36*
X0000387132Y0003843191D02*
G01*
X0000392975Y0003842029D01*
X0000404804Y0003837129D01*
X0000415450Y0003830016D01*
X0000424504Y0003820962D01*
X0000431617Y0003810316D01*
X0000436517Y0003798487D01*
X0000439015Y0003785929D01*
X0000439015Y0003773125D01*
X0000436517Y0003760567D01*
X0000431617Y0003748738D01*
X0000424504Y0003738092D01*
X0000415450Y0003729038D01*
X0000404804Y0003721925D01*
X0000392975Y0003717025D01*
X0000388789Y0003716192D01*
X0000380417Y0003714527D01*
X0000367613Y0003714527D01*
X0000359241Y0003716192D01*
X0000355055Y0003717025D01*
X0000343226Y0003721925D01*
X0000332580Y0003729038D01*
X0000323526Y0003738092D01*
X0000316413Y0003748738D01*
X0000311513Y0003760567D01*
X0000309015Y0003773125D01*
X0000309015Y0003785929D01*
X0000311513Y0003798487D01*
X0000316413Y0003810316D01*
X0000323526Y0003820962D01*
X0000332580Y0003830016D01*
X0000343226Y0003837129D01*
X0000355055Y0003842029D01*
X0000360899Y0003843191D01*
X0000367613Y0003844527D01*
X0000380417Y0003844527D01*
X0000387132Y0003843191D01*
G37*
G36*
X0001322240Y0003937910D02*
G01*
X0001331203Y0003934197D01*
X0001339270Y0003928807D01*
X0001346130Y0003921947D01*
X0001350795Y0003914966D01*
X0001351520Y0003913880D01*
X0001355233Y0003904917D01*
X0001356474Y0003898679D01*
X0001357125Y0003895402D01*
X0001357125Y0003885700D01*
X0001355233Y0003876184D01*
X0001351520Y0003867221D01*
X0001346130Y0003859154D01*
X0001339270Y0003852294D01*
X0001331203Y0003846904D01*
X0001331203Y0003846904D01*
X0001331203Y0003846904D01*
X0001322240Y0003843191D01*
X0001312724Y0003841299D01*
X0001303023Y0003841299D01*
X0001293507Y0003843191D01*
X0001284544Y0003846904D01*
X0001284544Y0003846904D01*
X0001284544Y0003846904D01*
X0001276477Y0003852294D01*
X0001269617Y0003859154D01*
X0001264227Y0003867221D01*
X0001260514Y0003876184D01*
X0001258622Y0003885700D01*
X0001258622Y0003895402D01*
X0001259273Y0003898679D01*
X0001260514Y0003904917D01*
X0001264227Y0003913880D01*
X0001264952Y0003914966D01*
X0001269617Y0003921947D01*
X0001276477Y0003928807D01*
X0001284544Y0003934197D01*
X0001293507Y0003937910D01*
X0001303023Y0003939803D01*
X0001312724Y0003939803D01*
X0001322240Y0003937910D01*
G37*
G36*
X0001554244Y0003990840D02*
G01*
X0001560218Y0003989028D01*
X0001565724Y0003986085D01*
X0001570550Y0003982125D01*
X0001574510Y0003977299D01*
X0001577453Y0003971793D01*
X0001579265Y0003965819D01*
X0001579724Y0003961163D01*
X0001579724Y0003898679D01*
X0001579265Y0003894023D01*
X0001577453Y0003888049D01*
X0001574510Y0003882543D01*
X0001570550Y0003877717D01*
X0001565724Y0003873757D01*
X0001560218Y0003870814D01*
X0001554244Y0003869001D01*
X0001548031Y0003868389D01*
X0001541818Y0003869001D01*
X0001535844Y0003870814D01*
X0001530338Y0003873757D01*
X0001525512Y0003877717D01*
X0001521552Y0003882543D01*
X0001518609Y0003888049D01*
X0001516797Y0003894023D01*
X0001516338Y0003898679D01*
X0001516338Y0003961163D01*
X0001516797Y0003965819D01*
X0001518609Y0003971793D01*
X0001521552Y0003977299D01*
X0001525512Y0003982125D01*
X0001530338Y0003986085D01*
X0001535844Y0003989028D01*
X0001541818Y0003990840D01*
X0001548031Y0003991452D01*
X0001554244Y0003990840D01*
G37*
G36*
X0001168417Y0003990840D02*
G01*
X0001174391Y0003989028D01*
X0001179897Y0003986085D01*
X0001184723Y0003982125D01*
X0001188683Y0003977299D01*
X0001191626Y0003971793D01*
X0001193439Y0003965819D01*
X0001193897Y0003961163D01*
X0001193897Y0003898679D01*
X0001193439Y0003894023D01*
X0001191626Y0003888049D01*
X0001188683Y0003882543D01*
X0001184723Y0003877717D01*
X0001179897Y0003873757D01*
X0001174391Y0003870814D01*
X0001168417Y0003869001D01*
X0001162204Y0003868389D01*
X0001155991Y0003869001D01*
X0001150017Y0003870814D01*
X0001144511Y0003873757D01*
X0001139686Y0003877717D01*
X0001135725Y0003882543D01*
X0001132782Y0003888049D01*
X0001130970Y0003894023D01*
X0001130511Y0003898679D01*
X0001130511Y0003961163D01*
X0001130970Y0003965819D01*
X0001132782Y0003971793D01*
X0001135725Y0003977299D01*
X0001139686Y0003982125D01*
X0001144511Y0003986085D01*
X0001150017Y0003989028D01*
X0001155991Y0003990840D01*
X0001162204Y0003991452D01*
X0001168417Y0003990840D01*
G37*
G36*
X0001003287Y0003977798D02*
G01*
X0001009165Y0003976628D01*
X0001015621Y0003973954D01*
X0001021431Y0003970072D01*
X0001026372Y0003965132D01*
X0001030254Y0003959322D01*
X0001032928Y0003952866D01*
X0001034291Y0003946013D01*
X0001034291Y0003939025D01*
X0001032928Y0003932172D01*
X0001030254Y0003925717D01*
X0001026372Y0003919907D01*
X0001021431Y0003914966D01*
X0001015621Y0003911084D01*
X0001009165Y0003908410D01*
X0001003287Y0003907241D01*
X0001002312Y0003907047D01*
X0000995325Y0003907047D01*
X0000994349Y0003907241D01*
X0000988471Y0003908410D01*
X0000982016Y0003911084D01*
X0000976206Y0003914966D01*
X0000971265Y0003919907D01*
X0000967383Y0003925717D01*
X0000964709Y0003932172D01*
X0000963346Y0003939025D01*
X0000963346Y0003946013D01*
X0000964709Y0003952866D01*
X0000967383Y0003959322D01*
X0000971265Y0003965132D01*
X0000976206Y0003970072D01*
X0000982016Y0003973954D01*
X0000988471Y0003976628D01*
X0000994349Y0003977798D01*
X0000995325Y0003977992D01*
X0001002312Y0003977992D01*
X0001003287Y0003977798D01*
G37*
G36*
X0000903287Y0003977798D02*
G01*
X0000909165Y0003976628D01*
X0000915621Y0003973954D01*
X0000921431Y0003970072D01*
X0000926372Y0003965132D01*
X0000930254Y0003959322D01*
X0000932928Y0003952866D01*
X0000934291Y0003946013D01*
X0000934291Y0003939025D01*
X0000932928Y0003932172D01*
X0000930254Y0003925717D01*
X0000926372Y0003919907D01*
X0000921431Y0003914966D01*
X0000915621Y0003911084D01*
X0000909165Y0003908410D01*
X0000903287Y0003907241D01*
X0000902312Y0003907047D01*
X0000895325Y0003907047D01*
X0000894349Y0003907241D01*
X0000888471Y0003908410D01*
X0000882016Y0003911084D01*
X0000876206Y0003914966D01*
X0000871265Y0003919907D01*
X0000867383Y0003925717D01*
X0000864709Y0003932172D01*
X0000863346Y0003939025D01*
X0000863346Y0003946013D01*
X0000864709Y0003952866D01*
X0000867383Y0003959322D01*
X0000871265Y0003965132D01*
X0000876206Y0003970072D01*
X0000882016Y0003973954D01*
X0000888471Y0003976628D01*
X0000894349Y0003977798D01*
X0000895325Y0003977992D01*
X0000902312Y0003977992D01*
X0000903287Y0003977798D01*
G37*
G36*
X0000803287Y0003977798D02*
G01*
X0000809165Y0003976628D01*
X0000815621Y0003973954D01*
X0000821431Y0003970072D01*
X0000826372Y0003965132D01*
X0000830254Y0003959322D01*
X0000832928Y0003952866D01*
X0000834291Y0003946013D01*
X0000834291Y0003939025D01*
X0000832928Y0003932172D01*
X0000830254Y0003925717D01*
X0000826372Y0003919907D01*
X0000821431Y0003914966D01*
X0000815621Y0003911084D01*
X0000809165Y0003908410D01*
X0000803287Y0003907241D01*
X0000802312Y0003907047D01*
X0000795325Y0003907047D01*
X0000794349Y0003907241D01*
X0000788471Y0003908410D01*
X0000782016Y0003911084D01*
X0000776206Y0003914966D01*
X0000771265Y0003919907D01*
X0000767383Y0003925717D01*
X0000764709Y0003932172D01*
X0000763346Y0003939025D01*
X0000763346Y0003946013D01*
X0000764709Y0003952866D01*
X0000767383Y0003959322D01*
X0000771265Y0003965132D01*
X0000776206Y0003970072D01*
X0000782016Y0003973954D01*
X0000788471Y0003976628D01*
X0000794349Y0003977798D01*
X0000795325Y0003977992D01*
X0000802312Y0003977992D01*
X0000803287Y0003977798D01*
G37*
G36*
X0000703287Y0003977798D02*
G01*
X0000709165Y0003976628D01*
X0000715621Y0003973954D01*
X0000721431Y0003970072D01*
X0000726372Y0003965132D01*
X0000730254Y0003959322D01*
X0000732928Y0003952866D01*
X0000734291Y0003946013D01*
X0000734291Y0003939025D01*
X0000732928Y0003932172D01*
X0000730254Y0003925717D01*
X0000726372Y0003919907D01*
X0000721431Y0003914966D01*
X0000715621Y0003911084D01*
X0000709165Y0003908410D01*
X0000703287Y0003907241D01*
X0000702312Y0003907047D01*
X0000695325Y0003907047D01*
X0000694349Y0003907241D01*
X0000688471Y0003908410D01*
X0000682016Y0003911084D01*
X0000676206Y0003914966D01*
X0000671265Y0003919907D01*
X0000667383Y0003925717D01*
X0000664709Y0003932172D01*
X0000663346Y0003939025D01*
X0000663346Y0003946013D01*
X0000664709Y0003952866D01*
X0000667383Y0003959322D01*
X0000671265Y0003965132D01*
X0000676206Y0003970072D01*
X0000682016Y0003973954D01*
X0000688471Y0003976628D01*
X0000694349Y0003977798D01*
X0000695325Y0003977992D01*
X0000702312Y0003977992D01*
X0000703287Y0003977798D01*
G37*
G36*
X0000634291Y0003907047D02*
G01*
X0000563346Y0003907047D01*
X0000563346Y0003977992D01*
X0000634291Y0003977992D01*
X0000634291Y0003907047D01*
G37*
G04 next file*
G04 #@! TF.GenerationSoftware,KiCad,Pcbnew,(5.1.5-0)*
G04 #@! TF.CreationDate,2020-08-20T15:01:18-04:00*
G04 #@! TF.ProjectId,LEDIO,4c454449-4f2e-46b6-9963-61645f706362,rev?*
G04 #@! TF.SameCoordinates,Original*
G04 #@! TF.FileFunction,Soldermask,Bot*
G04 #@! TF.FilePolarity,Negative*
G04 Gerber Fmt 4.6, Leading zero omitted, Abs format (unit mm)*
G04 Created by KiCad (PCBNEW (5.1.5-0)) date 2020-08-20 15:01:18*
G04 APERTURE LIST*
G04 APERTURE END LIST*
D27*
G36*
X0001343771Y0004224935D02*
G01*
X0001349746Y0004223122D01*
X0001355251Y0004220180D01*
X0001360077Y0004216219D01*
X0001364038Y0004211393D01*
X0001366981Y0004205887D01*
X0001368793Y0004199913D01*
X0001369405Y0004193700D01*
X0001368793Y0004187487D01*
X0001366981Y0004181513D01*
X0001364038Y0004176007D01*
X0001360077Y0004171182D01*
X0001355251Y0004167221D01*
X0001349746Y0004164278D01*
X0001343771Y0004162466D01*
X0001339115Y0004162007D01*
X0001276632Y0004162007D01*
X0001271976Y0004162466D01*
X0001266001Y0004164278D01*
X0001260496Y0004167221D01*
X0001255670Y0004171182D01*
X0001251709Y0004176007D01*
X0001248766Y0004181513D01*
X0001246954Y0004187487D01*
X0001246342Y0004193700D01*
X0001246954Y0004199913D01*
X0001248766Y0004205887D01*
X0001251709Y0004211393D01*
X0001255670Y0004216219D01*
X0001260496Y0004220180D01*
X0001266001Y0004223122D01*
X0001271976Y0004224935D01*
X0001276632Y0004225393D01*
X0001339115Y0004225393D01*
X0001343771Y0004224935D01*
G37*
G36*
X0001436134Y0004293990D02*
G01*
X0001442108Y0004292178D01*
X0001447614Y0004289235D01*
X0001452439Y0004285274D01*
X0001456400Y0004280448D01*
X0001459343Y0004274942D01*
X0001461155Y0004268968D01*
X0001461614Y0004264312D01*
X0001461614Y0004201828D01*
X0001461155Y0004197172D01*
X0001459343Y0004191198D01*
X0001456400Y0004185692D01*
X0001452439Y0004180867D01*
X0001447614Y0004176906D01*
X0001442108Y0004173963D01*
X0001436134Y0004172151D01*
X0001429921Y0004171539D01*
X0001423708Y0004172151D01*
X0001417734Y0004173963D01*
X0001412228Y0004176906D01*
X0001407402Y0004180867D01*
X0001403442Y0004185692D01*
X0001400499Y0004191198D01*
X0001398686Y0004197172D01*
X0001398228Y0004201828D01*
X0001398228Y0004264312D01*
X0001398686Y0004268968D01*
X0001400499Y0004274942D01*
X0001403442Y0004280448D01*
X0001407402Y0004285274D01*
X0001412228Y0004289235D01*
X0001417734Y0004292178D01*
X0001423708Y0004293990D01*
X0001429921Y0004294602D01*
X0001436134Y0004293990D01*
G37*
G36*
X0001518811Y0004293990D02*
G01*
X0001524785Y0004292178D01*
X0001530291Y0004289235D01*
X0001535117Y0004285274D01*
X0001539077Y0004280448D01*
X0001542020Y0004274942D01*
X0001543832Y0004268968D01*
X0001544291Y0004264312D01*
X0001544291Y0004201828D01*
X0001543832Y0004197172D01*
X0001542020Y0004191198D01*
X0001539077Y0004185692D01*
X0001535117Y0004180867D01*
X0001530291Y0004176906D01*
X0001524785Y0004173963D01*
X0001518811Y0004172151D01*
X0001512598Y0004171539D01*
X0001506385Y0004172151D01*
X0001500411Y0004173963D01*
X0001494905Y0004176906D01*
X0001490079Y0004180867D01*
X0001486119Y0004185692D01*
X0001483176Y0004191198D01*
X0001481364Y0004197172D01*
X0001480905Y0004201828D01*
X0001480905Y0004264312D01*
X0001481364Y0004268968D01*
X0001483176Y0004274942D01*
X0001486119Y0004280448D01*
X0001490079Y0004285274D01*
X0001494905Y0004289235D01*
X0001500411Y0004292178D01*
X0001506385Y0004293990D01*
X0001512598Y0004294602D01*
X0001518811Y0004293990D01*
G37*
G36*
X0001180228Y0004293990D02*
G01*
X0001186202Y0004292178D01*
X0001191708Y0004289235D01*
X0001196534Y0004285274D01*
X0001200494Y0004280448D01*
X0001203437Y0004274942D01*
X0001205250Y0004268968D01*
X0001205708Y0004264312D01*
X0001205708Y0004201828D01*
X0001205250Y0004197172D01*
X0001203437Y0004191198D01*
X0001200494Y0004185692D01*
X0001196534Y0004180867D01*
X0001191708Y0004176906D01*
X0001186202Y0004173963D01*
X0001180228Y0004172151D01*
X0001174015Y0004171539D01*
X0001167802Y0004172151D01*
X0001161828Y0004173963D01*
X0001156322Y0004176906D01*
X0001151497Y0004180867D01*
X0001147536Y0004185692D01*
X0001144593Y0004191198D01*
X0001142781Y0004197172D01*
X0001142322Y0004201828D01*
X0001142322Y0004264312D01*
X0001142781Y0004268968D01*
X0001144593Y0004274942D01*
X0001147536Y0004280448D01*
X0001151497Y0004285274D01*
X0001156322Y0004289235D01*
X0001161828Y0004292178D01*
X0001167802Y0004293990D01*
X0001174015Y0004294602D01*
X0001180228Y0004293990D01*
G37*
G36*
X0010387132Y0004433743D02*
G01*
X0010392975Y0004432580D01*
X0010404804Y0004427680D01*
X0010415450Y0004420567D01*
X0010424504Y0004411513D01*
X0010431617Y0004400867D01*
X0010436517Y0004389038D01*
X0010439015Y0004376480D01*
X0010439015Y0004363676D01*
X0010436517Y0004351118D01*
X0010431617Y0004339289D01*
X0010424504Y0004328643D01*
X0010415450Y0004319589D01*
X0010404804Y0004312476D01*
X0010392975Y0004307576D01*
X0010388789Y0004306744D01*
X0010380417Y0004305078D01*
X0010367613Y0004305078D01*
X0010359241Y0004306744D01*
X0010355055Y0004307576D01*
X0010343226Y0004312476D01*
X0010332580Y0004319589D01*
X0010323526Y0004328643D01*
X0010316413Y0004339289D01*
X0010311513Y0004351118D01*
X0010309015Y0004363676D01*
X0010309015Y0004376480D01*
X0010311513Y0004389038D01*
X0010316413Y0004400867D01*
X0010323526Y0004411513D01*
X0010332580Y0004420567D01*
X0010343226Y0004427680D01*
X0010355055Y0004432580D01*
X0010360899Y0004433743D01*
X0010367613Y0004435078D01*
X0010380417Y0004435078D01*
X0010387132Y0004433743D01*
G37*
G36*
X0005387132Y0004433743D02*
G01*
X0005392975Y0004432580D01*
X0005404804Y0004427680D01*
X0005415450Y0004420567D01*
X0005424504Y0004411513D01*
X0005431617Y0004400867D01*
X0005436517Y0004389038D01*
X0005439015Y0004376480D01*
X0005439015Y0004363676D01*
X0005436517Y0004351118D01*
X0005431617Y0004339289D01*
X0005424504Y0004328643D01*
X0005415450Y0004319589D01*
X0005404804Y0004312476D01*
X0005392975Y0004307576D01*
X0005388789Y0004306744D01*
X0005380417Y0004305078D01*
X0005367613Y0004305078D01*
X0005359241Y0004306744D01*
X0005355055Y0004307576D01*
X0005343226Y0004312476D01*
X0005332580Y0004319589D01*
X0005323526Y0004328643D01*
X0005316413Y0004339289D01*
X0005311513Y0004351118D01*
X0005309015Y0004363676D01*
X0005309015Y0004376480D01*
X0005311513Y0004389038D01*
X0005316413Y0004400867D01*
X0005323526Y0004411513D01*
X0005332580Y0004420567D01*
X0005343226Y0004427680D01*
X0005355055Y0004432580D01*
X0005360899Y0004433743D01*
X0005367613Y0004435078D01*
X0005380417Y0004435078D01*
X0005387132Y0004433743D01*
G37*
G36*
X0000387132Y0004433743D02*
G01*
X0000392975Y0004432580D01*
X0000404804Y0004427680D01*
X0000415450Y0004420567D01*
X0000424504Y0004411513D01*
X0000431617Y0004400867D01*
X0000436517Y0004389038D01*
X0000439015Y0004376480D01*
X0000439015Y0004363676D01*
X0000436517Y0004351118D01*
X0000431617Y0004339289D01*
X0000424504Y0004328643D01*
X0000415450Y0004319589D01*
X0000404804Y0004312476D01*
X0000392975Y0004307576D01*
X0000388789Y0004306744D01*
X0000380417Y0004305078D01*
X0000367613Y0004305078D01*
X0000359241Y0004306744D01*
X0000355055Y0004307576D01*
X0000343226Y0004312476D01*
X0000332580Y0004319589D01*
X0000323526Y0004328643D01*
X0000316413Y0004339289D01*
X0000311513Y0004351118D01*
X0000309015Y0004363676D01*
X0000309015Y0004376480D01*
X0000311513Y0004389038D01*
X0000316413Y0004400867D01*
X0000323526Y0004411513D01*
X0000332580Y0004420567D01*
X0000343226Y0004427680D01*
X0000355055Y0004432580D01*
X0000360899Y0004433743D01*
X0000367613Y0004435078D01*
X0000380417Y0004435078D01*
X0000387132Y0004433743D01*
G37*
G36*
X0001322240Y0004528461D02*
G01*
X0001331203Y0004524748D01*
X0001339270Y0004519358D01*
X0001346130Y0004512498D01*
X0001350795Y0004505517D01*
X0001351520Y0004504431D01*
X0001355233Y0004495468D01*
X0001356474Y0004489230D01*
X0001357125Y0004485953D01*
X0001357125Y0004476251D01*
X0001355233Y0004466736D01*
X0001351520Y0004457772D01*
X0001346130Y0004449706D01*
X0001339270Y0004442845D01*
X0001331203Y0004437455D01*
X0001331203Y0004437455D01*
X0001331203Y0004437455D01*
X0001322240Y0004433743D01*
X0001312724Y0004431850D01*
X0001303023Y0004431850D01*
X0001293507Y0004433743D01*
X0001284544Y0004437455D01*
X0001284544Y0004437455D01*
X0001284544Y0004437455D01*
X0001276477Y0004442845D01*
X0001269617Y0004449706D01*
X0001264227Y0004457772D01*
X0001260514Y0004466736D01*
X0001258622Y0004476251D01*
X0001258622Y0004485953D01*
X0001259273Y0004489230D01*
X0001260514Y0004495468D01*
X0001264227Y0004504431D01*
X0001264952Y0004505517D01*
X0001269617Y0004512498D01*
X0001276477Y0004519358D01*
X0001284544Y0004524748D01*
X0001293507Y0004528461D01*
X0001303023Y0004530354D01*
X0001312724Y0004530354D01*
X0001322240Y0004528461D01*
G37*
G36*
X0001554244Y0004581391D02*
G01*
X0001560218Y0004579579D01*
X0001565724Y0004576636D01*
X0001570550Y0004572676D01*
X0001574510Y0004567850D01*
X0001577453Y0004562344D01*
X0001579265Y0004556370D01*
X0001579724Y0004551714D01*
X0001579724Y0004489230D01*
X0001579265Y0004484574D01*
X0001577453Y0004478600D01*
X0001574510Y0004473094D01*
X0001570550Y0004468268D01*
X0001565724Y0004464308D01*
X0001560218Y0004461365D01*
X0001554244Y0004459553D01*
X0001548031Y0004458941D01*
X0001541818Y0004459553D01*
X0001535844Y0004461365D01*
X0001530338Y0004464308D01*
X0001525512Y0004468268D01*
X0001521552Y0004473094D01*
X0001518609Y0004478600D01*
X0001516797Y0004484574D01*
X0001516338Y0004489230D01*
X0001516338Y0004551714D01*
X0001516797Y0004556370D01*
X0001518609Y0004562344D01*
X0001521552Y0004567850D01*
X0001525512Y0004572676D01*
X0001530338Y0004576636D01*
X0001535844Y0004579579D01*
X0001541818Y0004581391D01*
X0001548031Y0004582003D01*
X0001554244Y0004581391D01*
G37*
G36*
X0001168417Y0004581391D02*
G01*
X0001174391Y0004579579D01*
X0001179897Y0004576636D01*
X0001184723Y0004572676D01*
X0001188683Y0004567850D01*
X0001191626Y0004562344D01*
X0001193439Y0004556370D01*
X0001193897Y0004551714D01*
X0001193897Y0004489230D01*
X0001193439Y0004484574D01*
X0001191626Y0004478600D01*
X0001188683Y0004473094D01*
X0001184723Y0004468268D01*
X0001179897Y0004464308D01*
X0001174391Y0004461365D01*
X0001168417Y0004459553D01*
X0001162204Y0004458941D01*
X0001155991Y0004459553D01*
X0001150017Y0004461365D01*
X0001144511Y0004464308D01*
X0001139686Y0004468268D01*
X0001135725Y0004473094D01*
X0001132782Y0004478600D01*
X0001130970Y0004484574D01*
X0001130511Y0004489230D01*
X0001130511Y0004551714D01*
X0001130970Y0004556370D01*
X0001132782Y0004562344D01*
X0001135725Y0004567850D01*
X0001139686Y0004572676D01*
X0001144511Y0004576636D01*
X0001150017Y0004579579D01*
X0001155991Y0004581391D01*
X0001162204Y0004582003D01*
X0001168417Y0004581391D01*
G37*
G36*
X0001003287Y0004568349D02*
G01*
X0001009165Y0004567180D01*
X0001015621Y0004564506D01*
X0001021431Y0004560624D01*
X0001026372Y0004555683D01*
X0001030254Y0004549873D01*
X0001032928Y0004543417D01*
X0001034291Y0004536564D01*
X0001034291Y0004529577D01*
X0001032928Y0004522723D01*
X0001030254Y0004516268D01*
X0001026372Y0004510458D01*
X0001021431Y0004505517D01*
X0001015621Y0004501635D01*
X0001009165Y0004498961D01*
X0001003287Y0004497792D01*
X0001002312Y0004497598D01*
X0000995325Y0004497598D01*
X0000994349Y0004497792D01*
X0000988471Y0004498961D01*
X0000982016Y0004501635D01*
X0000976206Y0004505517D01*
X0000971265Y0004510458D01*
X0000967383Y0004516268D01*
X0000964709Y0004522723D01*
X0000963346Y0004529577D01*
X0000963346Y0004536564D01*
X0000964709Y0004543417D01*
X0000967383Y0004549873D01*
X0000971265Y0004555683D01*
X0000976206Y0004560624D01*
X0000982016Y0004564506D01*
X0000988471Y0004567180D01*
X0000994349Y0004568349D01*
X0000995325Y0004568543D01*
X0001002312Y0004568543D01*
X0001003287Y0004568349D01*
G37*
G36*
X0000903287Y0004568349D02*
G01*
X0000909165Y0004567180D01*
X0000915621Y0004564506D01*
X0000921431Y0004560624D01*
X0000926372Y0004555683D01*
X0000930254Y0004549873D01*
X0000932928Y0004543417D01*
X0000934291Y0004536564D01*
X0000934291Y0004529577D01*
X0000932928Y0004522723D01*
X0000930254Y0004516268D01*
X0000926372Y0004510458D01*
X0000921431Y0004505517D01*
X0000915621Y0004501635D01*
X0000909165Y0004498961D01*
X0000903287Y0004497792D01*
X0000902312Y0004497598D01*
X0000895325Y0004497598D01*
X0000894349Y0004497792D01*
X0000888471Y0004498961D01*
X0000882016Y0004501635D01*
X0000876206Y0004505517D01*
X0000871265Y0004510458D01*
X0000867383Y0004516268D01*
X0000864709Y0004522723D01*
X0000863346Y0004529577D01*
X0000863346Y0004536564D01*
X0000864709Y0004543417D01*
X0000867383Y0004549873D01*
X0000871265Y0004555683D01*
X0000876206Y0004560624D01*
X0000882016Y0004564506D01*
X0000888471Y0004567180D01*
X0000894349Y0004568349D01*
X0000895325Y0004568543D01*
X0000902312Y0004568543D01*
X0000903287Y0004568349D01*
G37*
G36*
X0000803287Y0004568349D02*
G01*
X0000809165Y0004567180D01*
X0000815621Y0004564506D01*
X0000821431Y0004560624D01*
X0000826372Y0004555683D01*
X0000830254Y0004549873D01*
X0000832928Y0004543417D01*
X0000834291Y0004536564D01*
X0000834291Y0004529577D01*
X0000832928Y0004522723D01*
X0000830254Y0004516268D01*
X0000826372Y0004510458D01*
X0000821431Y0004505517D01*
X0000815621Y0004501635D01*
X0000809165Y0004498961D01*
X0000803287Y0004497792D01*
X0000802312Y0004497598D01*
X0000795325Y0004497598D01*
X0000794349Y0004497792D01*
X0000788471Y0004498961D01*
X0000782016Y0004501635D01*
X0000776206Y0004505517D01*
X0000771265Y0004510458D01*
X0000767383Y0004516268D01*
X0000764709Y0004522723D01*
X0000763346Y0004529577D01*
X0000763346Y0004536564D01*
X0000764709Y0004543417D01*
X0000767383Y0004549873D01*
X0000771265Y0004555683D01*
X0000776206Y0004560624D01*
X0000782016Y0004564506D01*
X0000788471Y0004567180D01*
X0000794349Y0004568349D01*
X0000795325Y0004568543D01*
X0000802312Y0004568543D01*
X0000803287Y0004568349D01*
G37*
G36*
X0000703287Y0004568349D02*
G01*
X0000709165Y0004567180D01*
X0000715621Y0004564506D01*
X0000721431Y0004560624D01*
X0000726372Y0004555683D01*
X0000730254Y0004549873D01*
X0000732928Y0004543417D01*
X0000734291Y0004536564D01*
X0000734291Y0004529577D01*
X0000732928Y0004522723D01*
X0000730254Y0004516268D01*
X0000726372Y0004510458D01*
X0000721431Y0004505517D01*
X0000715621Y0004501635D01*
X0000709165Y0004498961D01*
X0000703287Y0004497792D01*
X0000702312Y0004497598D01*
X0000695325Y0004497598D01*
X0000694349Y0004497792D01*
X0000688471Y0004498961D01*
X0000682016Y0004501635D01*
X0000676206Y0004505517D01*
X0000671265Y0004510458D01*
X0000667383Y0004516268D01*
X0000664709Y0004522723D01*
X0000663346Y0004529577D01*
X0000663346Y0004536564D01*
X0000664709Y0004543417D01*
X0000667383Y0004549873D01*
X0000671265Y0004555683D01*
X0000676206Y0004560624D01*
X0000682016Y0004564506D01*
X0000688471Y0004567180D01*
X0000694349Y0004568349D01*
X0000695325Y0004568543D01*
X0000702312Y0004568543D01*
X0000703287Y0004568349D01*
G37*
G36*
X0000634291Y0004497598D02*
G01*
X0000563346Y0004497598D01*
X0000563346Y0004568543D01*
X0000634291Y0004568543D01*
X0000634291Y0004497598D01*
G37*
G04 next file*
G04 #@! TF.GenerationSoftware,KiCad,Pcbnew,(5.1.5-0)*
G04 #@! TF.CreationDate,2020-08-20T15:01:18-04:00*
G04 #@! TF.ProjectId,LEDIO,4c454449-4f2e-46b6-9963-61645f706362,rev?*
G04 #@! TF.SameCoordinates,Original*
G04 #@! TF.FileFunction,Soldermask,Bot*
G04 #@! TF.FilePolarity,Negative*
G04 Gerber Fmt 4.6, Leading zero omitted, Abs format (unit mm)*
G04 Created by KiCad (PCBNEW (5.1.5-0)) date 2020-08-20 15:01:18*
G04 APERTURE LIST*
G04 APERTURE END LIST*
D28*
G36*
X0001343771Y0004815486D02*
G01*
X0001349746Y0004813674D01*
X0001355251Y0004810731D01*
X0001360077Y0004806770D01*
X0001364038Y0004801944D01*
X0001366981Y0004796439D01*
X0001368793Y0004790464D01*
X0001369405Y0004784251D01*
X0001368793Y0004778039D01*
X0001366981Y0004772064D01*
X0001364038Y0004766559D01*
X0001360077Y0004761733D01*
X0001355251Y0004757772D01*
X0001349746Y0004754829D01*
X0001343771Y0004753017D01*
X0001339115Y0004752559D01*
X0001276632Y0004752559D01*
X0001271976Y0004753017D01*
X0001266001Y0004754829D01*
X0001260496Y0004757772D01*
X0001255670Y0004761733D01*
X0001251709Y0004766559D01*
X0001248766Y0004772064D01*
X0001246954Y0004778039D01*
X0001246342Y0004784251D01*
X0001246954Y0004790464D01*
X0001248766Y0004796439D01*
X0001251709Y0004801944D01*
X0001255670Y0004806770D01*
X0001260496Y0004810731D01*
X0001266001Y0004813674D01*
X0001271976Y0004815486D01*
X0001276632Y0004815944D01*
X0001339115Y0004815944D01*
X0001343771Y0004815486D01*
G37*
G36*
X0001436134Y0004884541D02*
G01*
X0001442108Y0004882729D01*
X0001447614Y0004879786D01*
X0001452439Y0004875825D01*
X0001456400Y0004870999D01*
X0001459343Y0004865494D01*
X0001461155Y0004859520D01*
X0001461614Y0004854864D01*
X0001461614Y0004792380D01*
X0001461155Y0004787724D01*
X0001459343Y0004781749D01*
X0001456400Y0004776244D01*
X0001452439Y0004771418D01*
X0001447614Y0004767457D01*
X0001442108Y0004764514D01*
X0001436134Y0004762702D01*
X0001429921Y0004762090D01*
X0001423708Y0004762702D01*
X0001417734Y0004764514D01*
X0001412228Y0004767457D01*
X0001407402Y0004771418D01*
X0001403442Y0004776244D01*
X0001400499Y0004781749D01*
X0001398686Y0004787724D01*
X0001398228Y0004792380D01*
X0001398228Y0004854863D01*
X0001398686Y0004859519D01*
X0001400499Y0004865494D01*
X0001403442Y0004870999D01*
X0001407402Y0004875825D01*
X0001412228Y0004879786D01*
X0001417734Y0004882729D01*
X0001423708Y0004884541D01*
X0001429921Y0004885153D01*
X0001436134Y0004884541D01*
G37*
G36*
X0001518811Y0004884541D02*
G01*
X0001524785Y0004882729D01*
X0001530291Y0004879786D01*
X0001535117Y0004875825D01*
X0001539077Y0004870999D01*
X0001542020Y0004865494D01*
X0001543832Y0004859520D01*
X0001544291Y0004854864D01*
X0001544291Y0004792380D01*
X0001543832Y0004787724D01*
X0001542020Y0004781749D01*
X0001539077Y0004776244D01*
X0001535117Y0004771418D01*
X0001530291Y0004767457D01*
X0001524785Y0004764514D01*
X0001518811Y0004762702D01*
X0001512598Y0004762090D01*
X0001506385Y0004762702D01*
X0001500411Y0004764514D01*
X0001494905Y0004767457D01*
X0001490079Y0004771418D01*
X0001486119Y0004776244D01*
X0001483176Y0004781749D01*
X0001481364Y0004787724D01*
X0001480905Y0004792380D01*
X0001480905Y0004854863D01*
X0001481364Y0004859519D01*
X0001483176Y0004865494D01*
X0001486119Y0004870999D01*
X0001490079Y0004875825D01*
X0001494905Y0004879786D01*
X0001500411Y0004882729D01*
X0001506385Y0004884541D01*
X0001512598Y0004885153D01*
X0001518811Y0004884541D01*
G37*
G36*
X0001180228Y0004884541D02*
G01*
X0001186202Y0004882729D01*
X0001191708Y0004879786D01*
X0001196534Y0004875825D01*
X0001200494Y0004870999D01*
X0001203437Y0004865494D01*
X0001205250Y0004859520D01*
X0001205708Y0004854864D01*
X0001205708Y0004792380D01*
X0001205250Y0004787724D01*
X0001203437Y0004781749D01*
X0001200494Y0004776244D01*
X0001196534Y0004771418D01*
X0001191708Y0004767457D01*
X0001186202Y0004764514D01*
X0001180228Y0004762702D01*
X0001174015Y0004762090D01*
X0001167802Y0004762702D01*
X0001161828Y0004764514D01*
X0001156322Y0004767457D01*
X0001151497Y0004771418D01*
X0001147536Y0004776244D01*
X0001144593Y0004781749D01*
X0001142781Y0004787724D01*
X0001142322Y0004792380D01*
X0001142322Y0004854863D01*
X0001142781Y0004859519D01*
X0001144593Y0004865494D01*
X0001147536Y0004870999D01*
X0001151497Y0004875825D01*
X0001156322Y0004879786D01*
X0001161828Y0004882729D01*
X0001167802Y0004884541D01*
X0001174015Y0004885153D01*
X0001180228Y0004884541D01*
G37*
G36*
X0010387132Y0005024294D02*
G01*
X0010392975Y0005023132D01*
X0010404804Y0005018232D01*
X0010415450Y0005011118D01*
X0010424504Y0005002065D01*
X0010431617Y0004991418D01*
X0010436517Y0004979589D01*
X0010439015Y0004967031D01*
X0010439015Y0004954227D01*
X0010436517Y0004941670D01*
X0010431617Y0004929840D01*
X0010424504Y0004919194D01*
X0010415450Y0004910141D01*
X0010404804Y0004903027D01*
X0010392975Y0004898127D01*
X0010388789Y0004897295D01*
X0010380417Y0004895629D01*
X0010367613Y0004895629D01*
X0010359241Y0004897295D01*
X0010355055Y0004898127D01*
X0010343226Y0004903027D01*
X0010332580Y0004910141D01*
X0010323526Y0004919194D01*
X0010316413Y0004929840D01*
X0010311513Y0004941670D01*
X0010309015Y0004954227D01*
X0010309015Y0004967031D01*
X0010311513Y0004979589D01*
X0010316413Y0004991418D01*
X0010323526Y0005002065D01*
X0010332580Y0005011118D01*
X0010343226Y0005018232D01*
X0010355055Y0005023132D01*
X0010360899Y0005024294D01*
X0010367613Y0005025629D01*
X0010380417Y0005025629D01*
X0010387132Y0005024294D01*
G37*
G36*
X0005387132Y0005024294D02*
G01*
X0005392975Y0005023132D01*
X0005404804Y0005018232D01*
X0005415450Y0005011118D01*
X0005424504Y0005002065D01*
X0005431617Y0004991418D01*
X0005436517Y0004979589D01*
X0005439015Y0004967031D01*
X0005439015Y0004954227D01*
X0005436517Y0004941670D01*
X0005431617Y0004929840D01*
X0005424504Y0004919194D01*
X0005415450Y0004910141D01*
X0005404804Y0004903027D01*
X0005392975Y0004898127D01*
X0005388789Y0004897295D01*
X0005380417Y0004895629D01*
X0005367613Y0004895629D01*
X0005359241Y0004897295D01*
X0005355055Y0004898127D01*
X0005343226Y0004903027D01*
X0005332580Y0004910141D01*
X0005323526Y0004919194D01*
X0005316413Y0004929840D01*
X0005311513Y0004941670D01*
X0005309015Y0004954227D01*
X0005309015Y0004967031D01*
X0005311513Y0004979589D01*
X0005316413Y0004991418D01*
X0005323526Y0005002065D01*
X0005332580Y0005011118D01*
X0005343226Y0005018232D01*
X0005355055Y0005023132D01*
X0005360899Y0005024294D01*
X0005367613Y0005025629D01*
X0005380417Y0005025629D01*
X0005387132Y0005024294D01*
G37*
G36*
X0000387132Y0005024294D02*
G01*
X0000392975Y0005023132D01*
X0000404804Y0005018232D01*
X0000415450Y0005011118D01*
X0000424504Y0005002065D01*
X0000431617Y0004991418D01*
X0000436517Y0004979589D01*
X0000439015Y0004967031D01*
X0000439015Y0004954227D01*
X0000436517Y0004941670D01*
X0000431617Y0004929840D01*
X0000424504Y0004919194D01*
X0000415450Y0004910141D01*
X0000404804Y0004903027D01*
X0000392975Y0004898127D01*
X0000388789Y0004897295D01*
X0000380417Y0004895629D01*
X0000367613Y0004895629D01*
X0000359241Y0004897295D01*
X0000355055Y0004898127D01*
X0000343226Y0004903027D01*
X0000332580Y0004910141D01*
X0000323526Y0004919194D01*
X0000316413Y0004929840D01*
X0000311513Y0004941670D01*
X0000309015Y0004954227D01*
X0000309015Y0004967031D01*
X0000311513Y0004979589D01*
X0000316413Y0004991418D01*
X0000323526Y0005002065D01*
X0000332580Y0005011118D01*
X0000343226Y0005018232D01*
X0000355055Y0005023132D01*
X0000360899Y0005024294D01*
X0000367613Y0005025629D01*
X0000380417Y0005025629D01*
X0000387132Y0005024294D01*
G37*
G36*
X0001322240Y0005119012D02*
G01*
X0001331203Y0005115300D01*
X0001339270Y0005109910D01*
X0001346130Y0005103049D01*
X0001350795Y0005096068D01*
X0001351520Y0005094983D01*
X0001355233Y0005086019D01*
X0001356474Y0005079781D01*
X0001357125Y0005076504D01*
X0001357125Y0005066802D01*
X0001355233Y0005057287D01*
X0001351520Y0005048323D01*
X0001346130Y0005040257D01*
X0001339270Y0005033397D01*
X0001331203Y0005028007D01*
X0001331203Y0005028006D01*
X0001331203Y0005028006D01*
X0001322240Y0005024294D01*
X0001312724Y0005022401D01*
X0001303023Y0005022401D01*
X0001293507Y0005024294D01*
X0001284544Y0005028006D01*
X0001284544Y0005028006D01*
X0001284544Y0005028007D01*
X0001276477Y0005033397D01*
X0001269617Y0005040257D01*
X0001264227Y0005048323D01*
X0001260514Y0005057287D01*
X0001258622Y0005066802D01*
X0001258622Y0005076504D01*
X0001259273Y0005079781D01*
X0001260514Y0005086019D01*
X0001264227Y0005094983D01*
X0001264952Y0005096068D01*
X0001269617Y0005103049D01*
X0001276477Y0005109910D01*
X0001284544Y0005115300D01*
X0001293507Y0005119012D01*
X0001303023Y0005120905D01*
X0001312724Y0005120905D01*
X0001322240Y0005119012D01*
G37*
G36*
X0001554244Y0005171942D02*
G01*
X0001560218Y0005170130D01*
X0001565724Y0005167187D01*
X0001570550Y0005163227D01*
X0001574510Y0005158401D01*
X0001577453Y0005152895D01*
X0001579265Y0005146921D01*
X0001579724Y0005142265D01*
X0001579724Y0005079781D01*
X0001579265Y0005075125D01*
X0001577453Y0005069151D01*
X0001574510Y0005063645D01*
X0001570550Y0005058819D01*
X0001565724Y0005054859D01*
X0001560218Y0005051916D01*
X0001554244Y0005050104D01*
X0001548031Y0005049492D01*
X0001541818Y0005050104D01*
X0001535844Y0005051916D01*
X0001530338Y0005054859D01*
X0001525512Y0005058819D01*
X0001521552Y0005063645D01*
X0001518609Y0005069151D01*
X0001516797Y0005075125D01*
X0001516338Y0005079781D01*
X0001516338Y0005142265D01*
X0001516797Y0005146921D01*
X0001518609Y0005152895D01*
X0001521552Y0005158401D01*
X0001525512Y0005163227D01*
X0001530338Y0005167187D01*
X0001535844Y0005170130D01*
X0001541818Y0005171942D01*
X0001548031Y0005172554D01*
X0001554244Y0005171942D01*
G37*
G36*
X0001168417Y0005171942D02*
G01*
X0001174391Y0005170130D01*
X0001179897Y0005167187D01*
X0001184723Y0005163227D01*
X0001188683Y0005158401D01*
X0001191626Y0005152895D01*
X0001193439Y0005146921D01*
X0001193897Y0005142265D01*
X0001193897Y0005079781D01*
X0001193439Y0005075125D01*
X0001191626Y0005069151D01*
X0001188683Y0005063645D01*
X0001184723Y0005058819D01*
X0001179897Y0005054859D01*
X0001174391Y0005051916D01*
X0001168417Y0005050104D01*
X0001162204Y0005049492D01*
X0001155991Y0005050104D01*
X0001150017Y0005051916D01*
X0001144511Y0005054859D01*
X0001139686Y0005058819D01*
X0001135725Y0005063645D01*
X0001132782Y0005069151D01*
X0001130970Y0005075125D01*
X0001130511Y0005079781D01*
X0001130511Y0005142265D01*
X0001130970Y0005146921D01*
X0001132782Y0005152895D01*
X0001135725Y0005158401D01*
X0001139686Y0005163227D01*
X0001144511Y0005167187D01*
X0001150017Y0005170130D01*
X0001155991Y0005171942D01*
X0001162204Y0005172554D01*
X0001168417Y0005171942D01*
G37*
G36*
X0001003287Y0005158900D02*
G01*
X0001009165Y0005157731D01*
X0001015621Y0005155057D01*
X0001021431Y0005151175D01*
X0001026372Y0005146234D01*
X0001030254Y0005140424D01*
X0001032928Y0005133968D01*
X0001034291Y0005127115D01*
X0001034291Y0005120128D01*
X0001032928Y0005113275D01*
X0001030254Y0005106819D01*
X0001026372Y0005101009D01*
X0001021431Y0005096068D01*
X0001015621Y0005092186D01*
X0001009165Y0005089512D01*
X0001003287Y0005088343D01*
X0001002312Y0005088149D01*
X0000995325Y0005088149D01*
X0000994349Y0005088343D01*
X0000988471Y0005089512D01*
X0000982016Y0005092186D01*
X0000976206Y0005096068D01*
X0000971265Y0005101009D01*
X0000967383Y0005106819D01*
X0000964709Y0005113275D01*
X0000963346Y0005120128D01*
X0000963346Y0005127115D01*
X0000964709Y0005133968D01*
X0000967383Y0005140424D01*
X0000971265Y0005146234D01*
X0000976206Y0005151175D01*
X0000982016Y0005155057D01*
X0000988471Y0005157731D01*
X0000994349Y0005158900D01*
X0000995325Y0005159094D01*
X0001002312Y0005159094D01*
X0001003287Y0005158900D01*
G37*
G36*
X0000903287Y0005158900D02*
G01*
X0000909165Y0005157731D01*
X0000915621Y0005155057D01*
X0000921431Y0005151175D01*
X0000926372Y0005146234D01*
X0000930254Y0005140424D01*
X0000932928Y0005133968D01*
X0000934291Y0005127115D01*
X0000934291Y0005120128D01*
X0000932928Y0005113275D01*
X0000930254Y0005106819D01*
X0000926372Y0005101009D01*
X0000921431Y0005096068D01*
X0000915621Y0005092186D01*
X0000909165Y0005089512D01*
X0000903287Y0005088343D01*
X0000902312Y0005088149D01*
X0000895325Y0005088149D01*
X0000894349Y0005088343D01*
X0000888471Y0005089512D01*
X0000882016Y0005092186D01*
X0000876206Y0005096068D01*
X0000871265Y0005101009D01*
X0000867383Y0005106819D01*
X0000864709Y0005113275D01*
X0000863346Y0005120128D01*
X0000863346Y0005127115D01*
X0000864709Y0005133968D01*
X0000867383Y0005140424D01*
X0000871265Y0005146234D01*
X0000876206Y0005151175D01*
X0000882016Y0005155057D01*
X0000888471Y0005157731D01*
X0000894349Y0005158900D01*
X0000895325Y0005159094D01*
X0000902312Y0005159094D01*
X0000903287Y0005158900D01*
G37*
G36*
X0000803287Y0005158900D02*
G01*
X0000809165Y0005157731D01*
X0000815621Y0005155057D01*
X0000821431Y0005151175D01*
X0000826372Y0005146234D01*
X0000830254Y0005140424D01*
X0000832928Y0005133968D01*
X0000834291Y0005127115D01*
X0000834291Y0005120128D01*
X0000832928Y0005113275D01*
X0000830254Y0005106819D01*
X0000826372Y0005101009D01*
X0000821431Y0005096068D01*
X0000815621Y0005092186D01*
X0000809165Y0005089512D01*
X0000803287Y0005088343D01*
X0000802312Y0005088149D01*
X0000795325Y0005088149D01*
X0000794349Y0005088343D01*
X0000788471Y0005089512D01*
X0000782016Y0005092186D01*
X0000776206Y0005096068D01*
X0000771265Y0005101009D01*
X0000767383Y0005106819D01*
X0000764709Y0005113275D01*
X0000763346Y0005120128D01*
X0000763346Y0005127115D01*
X0000764709Y0005133968D01*
X0000767383Y0005140424D01*
X0000771265Y0005146234D01*
X0000776206Y0005151175D01*
X0000782016Y0005155057D01*
X0000788471Y0005157731D01*
X0000794349Y0005158900D01*
X0000795325Y0005159094D01*
X0000802312Y0005159094D01*
X0000803287Y0005158900D01*
G37*
G36*
X0000703287Y0005158900D02*
G01*
X0000709165Y0005157731D01*
X0000715621Y0005155057D01*
X0000721431Y0005151175D01*
X0000726372Y0005146234D01*
X0000730254Y0005140424D01*
X0000732928Y0005133968D01*
X0000734291Y0005127115D01*
X0000734291Y0005120128D01*
X0000732928Y0005113275D01*
X0000730254Y0005106819D01*
X0000726372Y0005101009D01*
X0000721431Y0005096068D01*
X0000715621Y0005092186D01*
X0000709165Y0005089512D01*
X0000703287Y0005088343D01*
X0000702312Y0005088149D01*
X0000695325Y0005088149D01*
X0000694349Y0005088343D01*
X0000688471Y0005089512D01*
X0000682016Y0005092186D01*
X0000676206Y0005096068D01*
X0000671265Y0005101009D01*
X0000667383Y0005106819D01*
X0000664709Y0005113275D01*
X0000663346Y0005120128D01*
X0000663346Y0005127115D01*
X0000664709Y0005133968D01*
X0000667383Y0005140424D01*
X0000671265Y0005146234D01*
X0000676206Y0005151175D01*
X0000682016Y0005155057D01*
X0000688471Y0005157731D01*
X0000694349Y0005158900D01*
X0000695325Y0005159094D01*
X0000702312Y0005159094D01*
X0000703287Y0005158900D01*
G37*
G36*
X0000634291Y0005088149D02*
G01*
X0000563346Y0005088149D01*
X0000563346Y0005159094D01*
X0000634291Y0005159094D01*
X0000634291Y0005088149D01*
G37*
G04 next file*
G04 #@! TF.GenerationSoftware,KiCad,Pcbnew,(5.1.5-0)*
G04 #@! TF.CreationDate,2020-08-20T15:01:18-04:00*
G04 #@! TF.ProjectId,LEDIO,4c454449-4f2e-46b6-9963-61645f706362,rev?*
G04 #@! TF.SameCoordinates,Original*
G04 #@! TF.FileFunction,Soldermask,Bot*
G04 #@! TF.FilePolarity,Negative*
G04 Gerber Fmt 4.6, Leading zero omitted, Abs format (unit mm)*
G04 Created by KiCad (PCBNEW (5.1.5-0)) date 2020-08-20 15:01:18*
G04 APERTURE LIST*
G04 APERTURE END LIST*
D29*
G36*
X0001343771Y0005406037D02*
G01*
X0001349746Y0005404225D01*
X0001355251Y0005401282D01*
X0001360077Y0005397321D01*
X0001364038Y0005392495D01*
X0001366981Y0005386990D01*
X0001368793Y0005381016D01*
X0001369405Y0005374803D01*
X0001368793Y0005368590D01*
X0001366981Y0005362616D01*
X0001364038Y0005357110D01*
X0001360077Y0005352284D01*
X0001355251Y0005348323D01*
X0001349746Y0005345380D01*
X0001343771Y0005343568D01*
X0001339115Y0005343110D01*
X0001276632Y0005343110D01*
X0001271976Y0005343568D01*
X0001266001Y0005345380D01*
X0001260496Y0005348323D01*
X0001255670Y0005352284D01*
X0001251709Y0005357110D01*
X0001248766Y0005362616D01*
X0001246954Y0005368590D01*
X0001246342Y0005374803D01*
X0001246954Y0005381016D01*
X0001248766Y0005386990D01*
X0001251709Y0005392495D01*
X0001255670Y0005397321D01*
X0001260496Y0005401282D01*
X0001266001Y0005404225D01*
X0001271976Y0005406037D01*
X0001276632Y0005406496D01*
X0001339115Y0005406496D01*
X0001343771Y0005406037D01*
G37*
G36*
X0001436134Y0005475092D02*
G01*
X0001442108Y0005473280D01*
X0001447614Y0005470337D01*
X0001452439Y0005466376D01*
X0001456400Y0005461551D01*
X0001459343Y0005456045D01*
X0001461155Y0005450071D01*
X0001461614Y0005445415D01*
X0001461614Y0005382931D01*
X0001461155Y0005378275D01*
X0001459343Y0005372301D01*
X0001456400Y0005366795D01*
X0001452439Y0005361969D01*
X0001447614Y0005358008D01*
X0001442108Y0005355066D01*
X0001436134Y0005353253D01*
X0001429921Y0005352641D01*
X0001423708Y0005353253D01*
X0001417734Y0005355066D01*
X0001412228Y0005358008D01*
X0001407402Y0005361969D01*
X0001403442Y0005366795D01*
X0001400499Y0005372301D01*
X0001398686Y0005378275D01*
X0001398228Y0005382931D01*
X0001398228Y0005445415D01*
X0001398686Y0005450071D01*
X0001400499Y0005456045D01*
X0001403442Y0005461551D01*
X0001407402Y0005466376D01*
X0001412228Y0005470337D01*
X0001417734Y0005473280D01*
X0001423708Y0005475092D01*
X0001429921Y0005475704D01*
X0001436134Y0005475092D01*
G37*
G36*
X0001518811Y0005475092D02*
G01*
X0001524785Y0005473280D01*
X0001530291Y0005470337D01*
X0001535117Y0005466376D01*
X0001539077Y0005461551D01*
X0001542020Y0005456045D01*
X0001543832Y0005450071D01*
X0001544291Y0005445415D01*
X0001544291Y0005382931D01*
X0001543832Y0005378275D01*
X0001542020Y0005372301D01*
X0001539077Y0005366795D01*
X0001535117Y0005361969D01*
X0001530291Y0005358008D01*
X0001524785Y0005355066D01*
X0001518811Y0005353253D01*
X0001512598Y0005352641D01*
X0001506385Y0005353253D01*
X0001500411Y0005355066D01*
X0001494905Y0005358008D01*
X0001490079Y0005361969D01*
X0001486119Y0005366795D01*
X0001483176Y0005372301D01*
X0001481364Y0005378275D01*
X0001480905Y0005382931D01*
X0001480905Y0005445415D01*
X0001481364Y0005450071D01*
X0001483176Y0005456045D01*
X0001486119Y0005461551D01*
X0001490079Y0005466376D01*
X0001494905Y0005470337D01*
X0001500411Y0005473280D01*
X0001506385Y0005475092D01*
X0001512598Y0005475704D01*
X0001518811Y0005475092D01*
G37*
G36*
X0001180228Y0005475092D02*
G01*
X0001186202Y0005473280D01*
X0001191708Y0005470337D01*
X0001196534Y0005466376D01*
X0001200494Y0005461551D01*
X0001203437Y0005456045D01*
X0001205250Y0005450071D01*
X0001205708Y0005445415D01*
X0001205708Y0005382931D01*
X0001205250Y0005378275D01*
X0001203437Y0005372301D01*
X0001200494Y0005366795D01*
X0001196534Y0005361969D01*
X0001191708Y0005358008D01*
X0001186202Y0005355066D01*
X0001180228Y0005353253D01*
X0001174015Y0005352641D01*
X0001167802Y0005353253D01*
X0001161828Y0005355066D01*
X0001156322Y0005358008D01*
X0001151497Y0005361969D01*
X0001147536Y0005366795D01*
X0001144593Y0005372301D01*
X0001142781Y0005378275D01*
X0001142322Y0005382931D01*
X0001142322Y0005445415D01*
X0001142781Y0005450071D01*
X0001144593Y0005456045D01*
X0001147536Y0005461551D01*
X0001151497Y0005466376D01*
X0001156322Y0005470337D01*
X0001161828Y0005473280D01*
X0001167802Y0005475092D01*
X0001174015Y0005475704D01*
X0001180228Y0005475092D01*
G37*
G36*
X0010387132Y0005614845D02*
G01*
X0010392975Y0005613683D01*
X0010404804Y0005608783D01*
X0010415450Y0005601669D01*
X0010424504Y0005592616D01*
X0010431617Y0005581970D01*
X0010436517Y0005570140D01*
X0010439015Y0005557583D01*
X0010439015Y0005544779D01*
X0010436517Y0005532221D01*
X0010431617Y0005520392D01*
X0010424504Y0005509745D01*
X0010415450Y0005500692D01*
X0010404804Y0005493578D01*
X0010392975Y0005488679D01*
X0010388789Y0005487846D01*
X0010380417Y0005486181D01*
X0010367613Y0005486181D01*
X0010359241Y0005487846D01*
X0010355055Y0005488679D01*
X0010343226Y0005493578D01*
X0010332580Y0005500692D01*
X0010323526Y0005509745D01*
X0010316413Y0005520392D01*
X0010311513Y0005532221D01*
X0010309015Y0005544779D01*
X0010309015Y0005557583D01*
X0010311513Y0005570140D01*
X0010316413Y0005581970D01*
X0010323526Y0005592616D01*
X0010332580Y0005601669D01*
X0010343226Y0005608783D01*
X0010355055Y0005613683D01*
X0010360899Y0005614845D01*
X0010367613Y0005616181D01*
X0010380417Y0005616181D01*
X0010387132Y0005614845D01*
G37*
G36*
X0005387132Y0005614845D02*
G01*
X0005392975Y0005613683D01*
X0005404804Y0005608783D01*
X0005415450Y0005601669D01*
X0005424504Y0005592616D01*
X0005431617Y0005581970D01*
X0005436517Y0005570140D01*
X0005439015Y0005557583D01*
X0005439015Y0005544779D01*
X0005436517Y0005532221D01*
X0005431617Y0005520392D01*
X0005424504Y0005509745D01*
X0005415450Y0005500692D01*
X0005404804Y0005493578D01*
X0005392975Y0005488679D01*
X0005388789Y0005487846D01*
X0005380417Y0005486181D01*
X0005367613Y0005486181D01*
X0005359241Y0005487846D01*
X0005355055Y0005488679D01*
X0005343226Y0005493578D01*
X0005332580Y0005500692D01*
X0005323526Y0005509745D01*
X0005316413Y0005520392D01*
X0005311513Y0005532221D01*
X0005309015Y0005544779D01*
X0005309015Y0005557583D01*
X0005311513Y0005570140D01*
X0005316413Y0005581970D01*
X0005323526Y0005592616D01*
X0005332580Y0005601669D01*
X0005343226Y0005608783D01*
X0005355055Y0005613683D01*
X0005360899Y0005614845D01*
X0005367613Y0005616181D01*
X0005380417Y0005616181D01*
X0005387132Y0005614845D01*
G37*
G36*
X0000387132Y0005614845D02*
G01*
X0000392975Y0005613683D01*
X0000404804Y0005608783D01*
X0000415450Y0005601669D01*
X0000424504Y0005592616D01*
X0000431617Y0005581970D01*
X0000436517Y0005570140D01*
X0000439015Y0005557583D01*
X0000439015Y0005544779D01*
X0000436517Y0005532221D01*
X0000431617Y0005520392D01*
X0000424504Y0005509745D01*
X0000415450Y0005500692D01*
X0000404804Y0005493578D01*
X0000392975Y0005488679D01*
X0000388789Y0005487846D01*
X0000380417Y0005486181D01*
X0000367613Y0005486181D01*
X0000359241Y0005487846D01*
X0000355055Y0005488679D01*
X0000343226Y0005493578D01*
X0000332580Y0005500692D01*
X0000323526Y0005509745D01*
X0000316413Y0005520392D01*
X0000311513Y0005532221D01*
X0000309015Y0005544779D01*
X0000309015Y0005557583D01*
X0000311513Y0005570140D01*
X0000316413Y0005581970D01*
X0000323526Y0005592616D01*
X0000332580Y0005601669D01*
X0000343226Y0005608783D01*
X0000355055Y0005613683D01*
X0000360899Y0005614845D01*
X0000367613Y0005616181D01*
X0000380417Y0005616181D01*
X0000387132Y0005614845D01*
G37*
G36*
X0001322240Y0005709563D02*
G01*
X0001331203Y0005705851D01*
X0001339270Y0005700461D01*
X0001346130Y0005693600D01*
X0001350795Y0005686619D01*
X0001351520Y0005685534D01*
X0001355233Y0005676570D01*
X0001356474Y0005670332D01*
X0001357125Y0005667055D01*
X0001357125Y0005657353D01*
X0001355233Y0005647838D01*
X0001351520Y0005638875D01*
X0001346130Y0005630808D01*
X0001339270Y0005623948D01*
X0001331203Y0005618558D01*
X0001331203Y0005618558D01*
X0001331203Y0005618558D01*
X0001322240Y0005614845D01*
X0001312724Y0005612952D01*
X0001303023Y0005612952D01*
X0001293507Y0005614845D01*
X0001284544Y0005618558D01*
X0001284544Y0005618558D01*
X0001284544Y0005618558D01*
X0001276477Y0005623948D01*
X0001269617Y0005630808D01*
X0001264227Y0005638875D01*
X0001260514Y0005647838D01*
X0001258622Y0005657353D01*
X0001258622Y0005667055D01*
X0001259273Y0005670332D01*
X0001260514Y0005676570D01*
X0001264227Y0005685534D01*
X0001264952Y0005686619D01*
X0001269617Y0005693600D01*
X0001276477Y0005700461D01*
X0001284544Y0005705851D01*
X0001293507Y0005709563D01*
X0001303023Y0005711456D01*
X0001312724Y0005711456D01*
X0001322240Y0005709563D01*
G37*
G36*
X0001554244Y0005762494D02*
G01*
X0001560218Y0005760681D01*
X0001565724Y0005757739D01*
X0001570550Y0005753778D01*
X0001574510Y0005748952D01*
X0001577453Y0005743446D01*
X0001579265Y0005737472D01*
X0001579724Y0005732816D01*
X0001579724Y0005670332D01*
X0001579265Y0005665676D01*
X0001577453Y0005659702D01*
X0001574510Y0005654196D01*
X0001570550Y0005649371D01*
X0001565724Y0005645410D01*
X0001560218Y0005642467D01*
X0001554244Y0005640655D01*
X0001548031Y0005640043D01*
X0001541818Y0005640655D01*
X0001535844Y0005642467D01*
X0001530338Y0005645410D01*
X0001525512Y0005649371D01*
X0001521552Y0005654196D01*
X0001518609Y0005659702D01*
X0001516797Y0005665676D01*
X0001516338Y0005670332D01*
X0001516338Y0005732816D01*
X0001516797Y0005737472D01*
X0001518609Y0005743446D01*
X0001521552Y0005748952D01*
X0001525512Y0005753778D01*
X0001530338Y0005757739D01*
X0001535844Y0005760681D01*
X0001541818Y0005762494D01*
X0001548031Y0005763106D01*
X0001554244Y0005762494D01*
G37*
G36*
X0001168417Y0005762494D02*
G01*
X0001174391Y0005760681D01*
X0001179897Y0005757739D01*
X0001184723Y0005753778D01*
X0001188683Y0005748952D01*
X0001191626Y0005743446D01*
X0001193439Y0005737472D01*
X0001193897Y0005732816D01*
X0001193897Y0005670332D01*
X0001193439Y0005665676D01*
X0001191626Y0005659702D01*
X0001188683Y0005654196D01*
X0001184723Y0005649371D01*
X0001179897Y0005645410D01*
X0001174391Y0005642467D01*
X0001168417Y0005640655D01*
X0001162204Y0005640043D01*
X0001155991Y0005640655D01*
X0001150017Y0005642467D01*
X0001144511Y0005645410D01*
X0001139686Y0005649371D01*
X0001135725Y0005654196D01*
X0001132782Y0005659702D01*
X0001130970Y0005665676D01*
X0001130511Y0005670332D01*
X0001130511Y0005732816D01*
X0001130970Y0005737472D01*
X0001132782Y0005743446D01*
X0001135725Y0005748952D01*
X0001139686Y0005753778D01*
X0001144511Y0005757739D01*
X0001150017Y0005760681D01*
X0001155991Y0005762494D01*
X0001162204Y0005763106D01*
X0001168417Y0005762494D01*
G37*
G36*
X0001003287Y0005749451D02*
G01*
X0001009165Y0005748282D01*
X0001015621Y0005745608D01*
X0001021431Y0005741726D01*
X0001026372Y0005736785D01*
X0001030254Y0005730975D01*
X0001032928Y0005724520D01*
X0001034291Y0005717666D01*
X0001034291Y0005710679D01*
X0001032928Y0005703826D01*
X0001030254Y0005697370D01*
X0001026372Y0005691560D01*
X0001021431Y0005686619D01*
X0001015621Y0005682737D01*
X0001009165Y0005680063D01*
X0001003287Y0005678894D01*
X0001002312Y0005678700D01*
X0000995325Y0005678700D01*
X0000994349Y0005678894D01*
X0000988471Y0005680063D01*
X0000982016Y0005682737D01*
X0000976206Y0005686619D01*
X0000971265Y0005691560D01*
X0000967383Y0005697370D01*
X0000964709Y0005703826D01*
X0000963346Y0005710679D01*
X0000963346Y0005717666D01*
X0000964709Y0005724520D01*
X0000967383Y0005730975D01*
X0000971265Y0005736785D01*
X0000976206Y0005741726D01*
X0000982016Y0005745608D01*
X0000988471Y0005748282D01*
X0000994349Y0005749451D01*
X0000995325Y0005749645D01*
X0001002312Y0005749645D01*
X0001003287Y0005749451D01*
G37*
G36*
X0000903287Y0005749451D02*
G01*
X0000909165Y0005748282D01*
X0000915621Y0005745608D01*
X0000921431Y0005741726D01*
X0000926372Y0005736785D01*
X0000930254Y0005730975D01*
X0000932928Y0005724520D01*
X0000934291Y0005717666D01*
X0000934291Y0005710679D01*
X0000932928Y0005703826D01*
X0000930254Y0005697370D01*
X0000926372Y0005691560D01*
X0000921431Y0005686619D01*
X0000915621Y0005682737D01*
X0000909165Y0005680063D01*
X0000903287Y0005678894D01*
X0000902312Y0005678700D01*
X0000895325Y0005678700D01*
X0000894349Y0005678894D01*
X0000888471Y0005680063D01*
X0000882016Y0005682737D01*
X0000876206Y0005686619D01*
X0000871265Y0005691560D01*
X0000867383Y0005697370D01*
X0000864709Y0005703826D01*
X0000863346Y0005710679D01*
X0000863346Y0005717666D01*
X0000864709Y0005724520D01*
X0000867383Y0005730975D01*
X0000871265Y0005736785D01*
X0000876206Y0005741726D01*
X0000882016Y0005745608D01*
X0000888471Y0005748282D01*
X0000894349Y0005749451D01*
X0000895325Y0005749645D01*
X0000902312Y0005749645D01*
X0000903287Y0005749451D01*
G37*
G36*
X0000803287Y0005749451D02*
G01*
X0000809165Y0005748282D01*
X0000815621Y0005745608D01*
X0000821431Y0005741726D01*
X0000826372Y0005736785D01*
X0000830254Y0005730975D01*
X0000832928Y0005724520D01*
X0000834291Y0005717666D01*
X0000834291Y0005710679D01*
X0000832928Y0005703826D01*
X0000830254Y0005697370D01*
X0000826372Y0005691560D01*
X0000821431Y0005686619D01*
X0000815621Y0005682737D01*
X0000809165Y0005680063D01*
X0000803287Y0005678894D01*
X0000802312Y0005678700D01*
X0000795325Y0005678700D01*
X0000794349Y0005678894D01*
X0000788471Y0005680063D01*
X0000782016Y0005682737D01*
X0000776206Y0005686619D01*
X0000771265Y0005691560D01*
X0000767383Y0005697370D01*
X0000764709Y0005703826D01*
X0000763346Y0005710679D01*
X0000763346Y0005717666D01*
X0000764709Y0005724520D01*
X0000767383Y0005730975D01*
X0000771265Y0005736785D01*
X0000776206Y0005741726D01*
X0000782016Y0005745608D01*
X0000788471Y0005748282D01*
X0000794349Y0005749451D01*
X0000795325Y0005749645D01*
X0000802312Y0005749645D01*
X0000803287Y0005749451D01*
G37*
G36*
X0000703287Y0005749451D02*
G01*
X0000709165Y0005748282D01*
X0000715621Y0005745608D01*
X0000721431Y0005741726D01*
X0000726372Y0005736785D01*
X0000730254Y0005730975D01*
X0000732928Y0005724520D01*
X0000734291Y0005717666D01*
X0000734291Y0005710679D01*
X0000732928Y0005703826D01*
X0000730254Y0005697370D01*
X0000726372Y0005691560D01*
X0000721431Y0005686619D01*
X0000715621Y0005682737D01*
X0000709165Y0005680063D01*
X0000703287Y0005678894D01*
X0000702312Y0005678700D01*
X0000695325Y0005678700D01*
X0000694349Y0005678894D01*
X0000688471Y0005680063D01*
X0000682016Y0005682737D01*
X0000676206Y0005686619D01*
X0000671265Y0005691560D01*
X0000667383Y0005697370D01*
X0000664709Y0005703826D01*
X0000663346Y0005710679D01*
X0000663346Y0005717666D01*
X0000664709Y0005724520D01*
X0000667383Y0005730975D01*
X0000671265Y0005736785D01*
X0000676206Y0005741726D01*
X0000682016Y0005745608D01*
X0000688471Y0005748282D01*
X0000694349Y0005749451D01*
X0000695325Y0005749645D01*
X0000702312Y0005749645D01*
X0000703287Y0005749451D01*
G37*
G36*
X0000634291Y0005678700D02*
G01*
X0000563346Y0005678700D01*
X0000563346Y0005749645D01*
X0000634291Y0005749645D01*
X0000634291Y0005678700D01*
G37*
M02*