%
M48
METRIC,000.000
T01C0.50
%
T01
X012285Y132250
X011285Y132250
X010285Y132250
X009285Y132250
X008285Y132250
X007285Y132250
X007929Y134750
X008929Y134750
X009929Y134750
X010929Y134750
X011929Y134750
X012285Y117250
X011285Y117250
X010285Y117250
X009285Y117250
X008285Y117250
X007285Y117250
X007929Y119750
X008929Y119750
X009929Y119750
X010929Y119750
X011929Y119750
X012285Y102250
X011285Y102250
X010285Y102250
X009285Y102250
X008285Y102250
X007285Y102250
X007929Y104750
X008929Y104750
X009929Y104750
X010929Y104750
X011929Y104750
X012285Y087250
X011285Y087250
X010285Y087250
X009285Y087250
X008285Y087250
X007285Y087250
X007929Y089750
X008929Y089750
X009929Y089750
X010929Y089750
X011929Y089750
X012285Y072250
X011285Y072250
X010285Y072250
X009285Y072250
X008285Y072250
X007285Y072250
X007929Y074750
X008929Y074750
X009929Y074750
X010929Y074750
X011929Y074750
X012285Y057250
X011285Y057250
X010285Y057250
X009285Y057250
X008285Y057250
X007285Y057250
X007929Y059750
X008929Y059750
X009929Y059750
X010929Y059750
X011929Y059750
X012285Y042250
X011285Y042250
X010285Y042250
X009285Y042250
X008285Y042250
X007285Y042250
X007929Y044750
X008929Y044750
X009929Y044750
X010929Y044750
X011929Y044750
X012285Y027250
X011285Y027250
X010285Y027250
X009285Y027250
X008285Y027250
X007285Y027250
X007929Y029750
X008929Y029750
X009929Y029750
X010929Y029750
X011929Y029750
X012285Y012250
X011285Y012250
X010285Y012250
X009285Y012250
X008285Y012250
X007285Y012250
X007929Y014750
X008929Y014750
X009929Y014750
X010929Y014750
X011929Y014750
X142285Y132250
X141285Y132250
X140285Y132250
X139285Y132250
X138285Y132250
X137285Y132250
X137929Y134750
X138929Y134750
X139929Y134750
X140929Y134750
X141929Y134750
X142285Y117250
X141285Y117250
X140285Y117250
X139285Y117250
X138285Y117250
X137285Y117250
X137929Y119750
X138929Y119750
X139929Y119750
X140929Y119750
X141929Y119750
X142285Y102250
X141285Y102250
X140285Y102250
X139285Y102250
X138285Y102250
X137285Y102250
X137929Y104750
X138929Y104750
X139929Y104750
X140929Y104750
X141929Y104750
X142285Y087250
X141285Y087250
X140285Y087250
X139285Y087250
X138285Y087250
X137285Y087250
X137929Y089750
X138929Y089750
X139929Y089750
X140929Y089750
X141929Y089750
X142285Y072250
X141285Y072250
X140285Y072250
X139285Y072250
X138285Y072250
X137285Y072250
X137929Y074750
X138929Y074750
X139929Y074750
X140929Y074750
X141929Y074750
X142285Y057250
X141285Y057250
X140285Y057250
X139285Y057250
X138285Y057250
X137285Y057250
X137929Y059750
X138929Y059750
X139929Y059750
X140929Y059750
X141929Y059750
X142285Y042250
X141285Y042250
X140285Y042250
X139285Y042250
X138285Y042250
X137285Y042250
X137929Y044750
X138929Y044750
X139929Y044750
X140929Y044750
X141929Y044750
X142285Y027250
X141285Y027250
X140285Y027250
X139285Y027250
X138285Y027250
X137285Y027250
X137929Y029750
X138929Y029750
X139929Y029750
X140929Y029750
X141929Y029750
X142285Y012250
X141285Y012250
X140285Y012250
X139285Y012250
X138285Y012250
X137285Y012250
X137929Y014750
X138929Y014750
X139929Y014750
X140929Y014750
X141929Y014750
X262285Y012250
X261285Y012250
X260285Y012250
X259285Y012250
X258285Y012250
X257285Y012250
X257929Y014750
X258929Y014750
X259929Y014750
X260929Y014750
X261929Y014750
X262285Y027250
X261285Y027250
X260285Y027250
X259285Y027250
X258285Y027250
X257285Y027250
X257929Y029750
X258929Y029750
X259929Y029750
X260929Y029750
X261929Y029750
X262285Y042250
X261285Y042250
X260285Y042250
X259285Y042250
X258285Y042250
X257285Y042250
X257929Y044750
X258929Y044750
X259929Y044750
X260929Y044750
X261929Y044750
X262285Y057250
X261285Y057250
X260285Y057250
X259285Y057250
X258285Y057250
X257285Y057250
X257929Y059750
X258929Y059750
X259929Y059750
X260929Y059750
X261929Y059750
X262285Y072250
X261285Y072250
X260285Y072250
X259285Y072250
X258285Y072250
X257285Y072250
X257929Y074750
X258929Y074750
X259929Y074750
X260929Y074750
X261929Y074750
X262285Y087250
X261285Y087250
X260285Y087250
X259285Y087250
X258285Y087250
X257285Y087250
X257929Y089750
X258929Y089750
X259929Y089750
X260929Y089750
X261929Y089750
X262285Y102250
X261285Y102250
X260285Y102250
X259285Y102250
X258285Y102250
X257285Y102250
X257929Y104750
X258929Y104750
X259929Y104750
X260929Y104750
X261929Y104750
X262285Y117250
X261285Y117250
X260285Y117250
X259285Y117250
X258285Y117250
X257285Y117250
X257929Y119750
X258929Y119750
X259929Y119750
X260929Y119750
X261929Y119750
X262285Y132250
X261285Y132250
X260285Y132250
X259285Y132250
X258285Y132250
X257285Y132250
X257929Y134750
X258929Y134750
X259929Y134750
X260929Y134750
X261929Y134750
M30