M48
; DRILL file {KiCad (5.1.0-0)} date Friday, August 30, 2019 at 03:25:05 AM
; FORMAT={-:-/ absolute / inch / decimal}
; #@! TF.CreationDate,2019-08-30T03:25:05-04:00
; #@! TF.GenerationSoftware,Kicad,Pcbnew,(5.1.0-0)
; #@! TF.FileFunction,Plated,1,2,PTH
FMAT,2
INCH
T1C0.0157
T2C0.0315
T3C0.0394
%
G90
G05
T1
X1.124Y-4.8622
X1.3878Y-4.8543
X2.935Y-4.7461
X2.935Y-4.8524
X3.126Y-4.7795
X4.3273Y-4.6599
X4.4788Y-4.6698
X4.7402Y-4.6693
X9.6398Y-4.7933
T2
X3.3169Y-4.8622
X3.4154Y-4.8622
X3.5138Y-4.6654
X3.7106Y-4.8622
T3
X11.063Y-4.6654
X11.063Y-4.7654
X2.1654Y-4.6555
X2.1654Y-4.7555
X2.435Y-4.5866
X2.4469Y-4.874
X2.5807Y-4.9134
X2.7028Y-4.874
X2.7854Y-4.874
X2.8209Y-4.5866
X0.6496Y-4.6244
X0.6496Y-4.7244
X0.6496Y-4.8244
T0
M30
