G04 #@! TF.GenerationSoftware,KiCad,Pcbnew,(5.1.0-0)*
G04 #@! TF.CreationDate,2019-08-30T03:25:08-04:00*
G04 #@! TF.ProjectId,LEDIO,4c454449-4f2e-46b6-9963-61645f706362,rev?*
G04 #@! TF.SameCoordinates,Original*
G04 #@! TF.FileFunction,Copper,L1,Top*
G04 #@! TF.FilePolarity,Positive*
%FSLAX46Y46*%
G04 Gerber Fmt 4.6, Leading zero omitted, Abs format (unit mm)*
G04 Created by KiCad (PCBNEW (5.1.0-0)) date 2019-08-30 03:25:08*
%MOMM*%
%LPD*%
G04 APERTURE LIST*
%ADD10O,1.308000X2.616000*%
%ADD11O,2.616000X1.308000*%
%ADD12C,0.100000*%
%ADD13C,0.875000*%
%ADD14C,1.250000*%
%ADD15O,1.700000X1.700000*%
%ADD16R,1.700000X1.700000*%
%ADD17O,3.016000X1.508000*%
%ADD18O,1.508000X3.016000*%
%ADD19C,0.800000*%
%ADD20C,0.250000*%
%ADD21C,0.254000*%
G04 APERTURE END LIST*
D10*
X94250000Y-123500000D03*
X86750000Y-123500000D03*
X84250000Y-123500000D03*
D11*
X89250000Y-118500000D03*
D12*
G36*
X111165191Y-117076053D02*
G01*
X111186426Y-117079203D01*
X111207250Y-117084419D01*
X111227462Y-117091651D01*
X111246868Y-117100830D01*
X111265281Y-117111866D01*
X111282524Y-117124654D01*
X111298430Y-117139070D01*
X111312846Y-117154976D01*
X111325634Y-117172219D01*
X111336670Y-117190632D01*
X111345849Y-117210038D01*
X111353081Y-117230250D01*
X111358297Y-117251074D01*
X111361447Y-117272309D01*
X111362500Y-117293750D01*
X111362500Y-117806250D01*
X111361447Y-117827691D01*
X111358297Y-117848926D01*
X111353081Y-117869750D01*
X111345849Y-117889962D01*
X111336670Y-117909368D01*
X111325634Y-117927781D01*
X111312846Y-117945024D01*
X111298430Y-117960930D01*
X111282524Y-117975346D01*
X111265281Y-117988134D01*
X111246868Y-117999170D01*
X111227462Y-118008349D01*
X111207250Y-118015581D01*
X111186426Y-118020797D01*
X111165191Y-118023947D01*
X111143750Y-118025000D01*
X110706250Y-118025000D01*
X110684809Y-118023947D01*
X110663574Y-118020797D01*
X110642750Y-118015581D01*
X110622538Y-118008349D01*
X110603132Y-117999170D01*
X110584719Y-117988134D01*
X110567476Y-117975346D01*
X110551570Y-117960930D01*
X110537154Y-117945024D01*
X110524366Y-117927781D01*
X110513330Y-117909368D01*
X110504151Y-117889962D01*
X110496919Y-117869750D01*
X110491703Y-117848926D01*
X110488553Y-117827691D01*
X110487500Y-117806250D01*
X110487500Y-117293750D01*
X110488553Y-117272309D01*
X110491703Y-117251074D01*
X110496919Y-117230250D01*
X110504151Y-117210038D01*
X110513330Y-117190632D01*
X110524366Y-117172219D01*
X110537154Y-117154976D01*
X110551570Y-117139070D01*
X110567476Y-117124654D01*
X110584719Y-117111866D01*
X110603132Y-117100830D01*
X110622538Y-117091651D01*
X110642750Y-117084419D01*
X110663574Y-117079203D01*
X110684809Y-117076053D01*
X110706250Y-117075000D01*
X111143750Y-117075000D01*
X111165191Y-117076053D01*
X111165191Y-117076053D01*
G37*
D13*
X110925000Y-117550000D03*
D12*
G36*
X112740191Y-117076053D02*
G01*
X112761426Y-117079203D01*
X112782250Y-117084419D01*
X112802462Y-117091651D01*
X112821868Y-117100830D01*
X112840281Y-117111866D01*
X112857524Y-117124654D01*
X112873430Y-117139070D01*
X112887846Y-117154976D01*
X112900634Y-117172219D01*
X112911670Y-117190632D01*
X112920849Y-117210038D01*
X112928081Y-117230250D01*
X112933297Y-117251074D01*
X112936447Y-117272309D01*
X112937500Y-117293750D01*
X112937500Y-117806250D01*
X112936447Y-117827691D01*
X112933297Y-117848926D01*
X112928081Y-117869750D01*
X112920849Y-117889962D01*
X112911670Y-117909368D01*
X112900634Y-117927781D01*
X112887846Y-117945024D01*
X112873430Y-117960930D01*
X112857524Y-117975346D01*
X112840281Y-117988134D01*
X112821868Y-117999170D01*
X112802462Y-118008349D01*
X112782250Y-118015581D01*
X112761426Y-118020797D01*
X112740191Y-118023947D01*
X112718750Y-118025000D01*
X112281250Y-118025000D01*
X112259809Y-118023947D01*
X112238574Y-118020797D01*
X112217750Y-118015581D01*
X112197538Y-118008349D01*
X112178132Y-117999170D01*
X112159719Y-117988134D01*
X112142476Y-117975346D01*
X112126570Y-117960930D01*
X112112154Y-117945024D01*
X112099366Y-117927781D01*
X112088330Y-117909368D01*
X112079151Y-117889962D01*
X112071919Y-117869750D01*
X112066703Y-117848926D01*
X112063553Y-117827691D01*
X112062500Y-117806250D01*
X112062500Y-117293750D01*
X112063553Y-117272309D01*
X112066703Y-117251074D01*
X112071919Y-117230250D01*
X112079151Y-117210038D01*
X112088330Y-117190632D01*
X112099366Y-117172219D01*
X112112154Y-117154976D01*
X112126570Y-117139070D01*
X112142476Y-117124654D01*
X112159719Y-117111866D01*
X112178132Y-117100830D01*
X112197538Y-117091651D01*
X112217750Y-117084419D01*
X112238574Y-117079203D01*
X112259809Y-117076053D01*
X112281250Y-117075000D01*
X112718750Y-117075000D01*
X112740191Y-117076053D01*
X112740191Y-117076053D01*
G37*
D13*
X112500000Y-117550000D03*
D12*
G36*
X111265191Y-120526053D02*
G01*
X111286426Y-120529203D01*
X111307250Y-120534419D01*
X111327462Y-120541651D01*
X111346868Y-120550830D01*
X111365281Y-120561866D01*
X111382524Y-120574654D01*
X111398430Y-120589070D01*
X111412846Y-120604976D01*
X111425634Y-120622219D01*
X111436670Y-120640632D01*
X111445849Y-120660038D01*
X111453081Y-120680250D01*
X111458297Y-120701074D01*
X111461447Y-120722309D01*
X111462500Y-120743750D01*
X111462500Y-121256250D01*
X111461447Y-121277691D01*
X111458297Y-121298926D01*
X111453081Y-121319750D01*
X111445849Y-121339962D01*
X111436670Y-121359368D01*
X111425634Y-121377781D01*
X111412846Y-121395024D01*
X111398430Y-121410930D01*
X111382524Y-121425346D01*
X111365281Y-121438134D01*
X111346868Y-121449170D01*
X111327462Y-121458349D01*
X111307250Y-121465581D01*
X111286426Y-121470797D01*
X111265191Y-121473947D01*
X111243750Y-121475000D01*
X110806250Y-121475000D01*
X110784809Y-121473947D01*
X110763574Y-121470797D01*
X110742750Y-121465581D01*
X110722538Y-121458349D01*
X110703132Y-121449170D01*
X110684719Y-121438134D01*
X110667476Y-121425346D01*
X110651570Y-121410930D01*
X110637154Y-121395024D01*
X110624366Y-121377781D01*
X110613330Y-121359368D01*
X110604151Y-121339962D01*
X110596919Y-121319750D01*
X110591703Y-121298926D01*
X110588553Y-121277691D01*
X110587500Y-121256250D01*
X110587500Y-120743750D01*
X110588553Y-120722309D01*
X110591703Y-120701074D01*
X110596919Y-120680250D01*
X110604151Y-120660038D01*
X110613330Y-120640632D01*
X110624366Y-120622219D01*
X110637154Y-120604976D01*
X110651570Y-120589070D01*
X110667476Y-120574654D01*
X110684719Y-120561866D01*
X110703132Y-120550830D01*
X110722538Y-120541651D01*
X110742750Y-120534419D01*
X110763574Y-120529203D01*
X110784809Y-120526053D01*
X110806250Y-120525000D01*
X111243750Y-120525000D01*
X111265191Y-120526053D01*
X111265191Y-120526053D01*
G37*
D13*
X111025000Y-121000000D03*
D12*
G36*
X112840191Y-120526053D02*
G01*
X112861426Y-120529203D01*
X112882250Y-120534419D01*
X112902462Y-120541651D01*
X112921868Y-120550830D01*
X112940281Y-120561866D01*
X112957524Y-120574654D01*
X112973430Y-120589070D01*
X112987846Y-120604976D01*
X113000634Y-120622219D01*
X113011670Y-120640632D01*
X113020849Y-120660038D01*
X113028081Y-120680250D01*
X113033297Y-120701074D01*
X113036447Y-120722309D01*
X113037500Y-120743750D01*
X113037500Y-121256250D01*
X113036447Y-121277691D01*
X113033297Y-121298926D01*
X113028081Y-121319750D01*
X113020849Y-121339962D01*
X113011670Y-121359368D01*
X113000634Y-121377781D01*
X112987846Y-121395024D01*
X112973430Y-121410930D01*
X112957524Y-121425346D01*
X112940281Y-121438134D01*
X112921868Y-121449170D01*
X112902462Y-121458349D01*
X112882250Y-121465581D01*
X112861426Y-121470797D01*
X112840191Y-121473947D01*
X112818750Y-121475000D01*
X112381250Y-121475000D01*
X112359809Y-121473947D01*
X112338574Y-121470797D01*
X112317750Y-121465581D01*
X112297538Y-121458349D01*
X112278132Y-121449170D01*
X112259719Y-121438134D01*
X112242476Y-121425346D01*
X112226570Y-121410930D01*
X112212154Y-121395024D01*
X112199366Y-121377781D01*
X112188330Y-121359368D01*
X112179151Y-121339962D01*
X112171919Y-121319750D01*
X112166703Y-121298926D01*
X112163553Y-121277691D01*
X112162500Y-121256250D01*
X112162500Y-120743750D01*
X112163553Y-120722309D01*
X112166703Y-120701074D01*
X112171919Y-120680250D01*
X112179151Y-120660038D01*
X112188330Y-120640632D01*
X112199366Y-120622219D01*
X112212154Y-120604976D01*
X112226570Y-120589070D01*
X112242476Y-120574654D01*
X112259719Y-120561866D01*
X112278132Y-120550830D01*
X112297538Y-120541651D01*
X112317750Y-120534419D01*
X112338574Y-120529203D01*
X112359809Y-120526053D01*
X112381250Y-120525000D01*
X112818750Y-120525000D01*
X112840191Y-120526053D01*
X112840191Y-120526053D01*
G37*
D13*
X112600000Y-121000000D03*
D12*
G36*
X269399504Y-117976204D02*
G01*
X269423773Y-117979804D01*
X269447571Y-117985765D01*
X269470671Y-117994030D01*
X269492849Y-118004520D01*
X269513893Y-118017133D01*
X269533598Y-118031747D01*
X269551777Y-118048223D01*
X269568253Y-118066402D01*
X269582867Y-118086107D01*
X269595480Y-118107151D01*
X269605970Y-118129329D01*
X269614235Y-118152429D01*
X269620196Y-118176227D01*
X269623796Y-118200496D01*
X269625000Y-118225000D01*
X269625000Y-118975000D01*
X269623796Y-118999504D01*
X269620196Y-119023773D01*
X269614235Y-119047571D01*
X269605970Y-119070671D01*
X269595480Y-119092849D01*
X269582867Y-119113893D01*
X269568253Y-119133598D01*
X269551777Y-119151777D01*
X269533598Y-119168253D01*
X269513893Y-119182867D01*
X269492849Y-119195480D01*
X269470671Y-119205970D01*
X269447571Y-119214235D01*
X269423773Y-119220196D01*
X269399504Y-119223796D01*
X269375000Y-119225000D01*
X268125000Y-119225000D01*
X268100496Y-119223796D01*
X268076227Y-119220196D01*
X268052429Y-119214235D01*
X268029329Y-119205970D01*
X268007151Y-119195480D01*
X267986107Y-119182867D01*
X267966402Y-119168253D01*
X267948223Y-119151777D01*
X267931747Y-119133598D01*
X267917133Y-119113893D01*
X267904520Y-119092849D01*
X267894030Y-119070671D01*
X267885765Y-119047571D01*
X267879804Y-119023773D01*
X267876204Y-118999504D01*
X267875000Y-118975000D01*
X267875000Y-118225000D01*
X267876204Y-118200496D01*
X267879804Y-118176227D01*
X267885765Y-118152429D01*
X267894030Y-118129329D01*
X267904520Y-118107151D01*
X267917133Y-118086107D01*
X267931747Y-118066402D01*
X267948223Y-118048223D01*
X267966402Y-118031747D01*
X267986107Y-118017133D01*
X268007151Y-118004520D01*
X268029329Y-117994030D01*
X268052429Y-117985765D01*
X268076227Y-117979804D01*
X268100496Y-117976204D01*
X268125000Y-117975000D01*
X269375000Y-117975000D01*
X269399504Y-117976204D01*
X269399504Y-117976204D01*
G37*
D14*
X268750000Y-118600000D03*
D12*
G36*
X269399504Y-120776204D02*
G01*
X269423773Y-120779804D01*
X269447571Y-120785765D01*
X269470671Y-120794030D01*
X269492849Y-120804520D01*
X269513893Y-120817133D01*
X269533598Y-120831747D01*
X269551777Y-120848223D01*
X269568253Y-120866402D01*
X269582867Y-120886107D01*
X269595480Y-120907151D01*
X269605970Y-120929329D01*
X269614235Y-120952429D01*
X269620196Y-120976227D01*
X269623796Y-121000496D01*
X269625000Y-121025000D01*
X269625000Y-121775000D01*
X269623796Y-121799504D01*
X269620196Y-121823773D01*
X269614235Y-121847571D01*
X269605970Y-121870671D01*
X269595480Y-121892849D01*
X269582867Y-121913893D01*
X269568253Y-121933598D01*
X269551777Y-121951777D01*
X269533598Y-121968253D01*
X269513893Y-121982867D01*
X269492849Y-121995480D01*
X269470671Y-122005970D01*
X269447571Y-122014235D01*
X269423773Y-122020196D01*
X269399504Y-122023796D01*
X269375000Y-122025000D01*
X268125000Y-122025000D01*
X268100496Y-122023796D01*
X268076227Y-122020196D01*
X268052429Y-122014235D01*
X268029329Y-122005970D01*
X268007151Y-121995480D01*
X267986107Y-121982867D01*
X267966402Y-121968253D01*
X267948223Y-121951777D01*
X267931747Y-121933598D01*
X267917133Y-121913893D01*
X267904520Y-121892849D01*
X267894030Y-121870671D01*
X267885765Y-121847571D01*
X267879804Y-121823773D01*
X267876204Y-121799504D01*
X267875000Y-121775000D01*
X267875000Y-121025000D01*
X267876204Y-121000496D01*
X267879804Y-120976227D01*
X267885765Y-120952429D01*
X267894030Y-120929329D01*
X267904520Y-120907151D01*
X267917133Y-120886107D01*
X267931747Y-120866402D01*
X267948223Y-120848223D01*
X267966402Y-120831747D01*
X267986107Y-120817133D01*
X268007151Y-120804520D01*
X268029329Y-120794030D01*
X268052429Y-120785765D01*
X268076227Y-120779804D01*
X268100496Y-120776204D01*
X268125000Y-120775000D01*
X269375000Y-120775000D01*
X269399504Y-120776204D01*
X269399504Y-120776204D01*
G37*
D14*
X268750000Y-121400000D03*
D12*
G36*
X221399504Y-117976204D02*
G01*
X221423773Y-117979804D01*
X221447571Y-117985765D01*
X221470671Y-117994030D01*
X221492849Y-118004520D01*
X221513893Y-118017133D01*
X221533598Y-118031747D01*
X221551777Y-118048223D01*
X221568253Y-118066402D01*
X221582867Y-118086107D01*
X221595480Y-118107151D01*
X221605970Y-118129329D01*
X221614235Y-118152429D01*
X221620196Y-118176227D01*
X221623796Y-118200496D01*
X221625000Y-118225000D01*
X221625000Y-118975000D01*
X221623796Y-118999504D01*
X221620196Y-119023773D01*
X221614235Y-119047571D01*
X221605970Y-119070671D01*
X221595480Y-119092849D01*
X221582867Y-119113893D01*
X221568253Y-119133598D01*
X221551777Y-119151777D01*
X221533598Y-119168253D01*
X221513893Y-119182867D01*
X221492849Y-119195480D01*
X221470671Y-119205970D01*
X221447571Y-119214235D01*
X221423773Y-119220196D01*
X221399504Y-119223796D01*
X221375000Y-119225000D01*
X220125000Y-119225000D01*
X220100496Y-119223796D01*
X220076227Y-119220196D01*
X220052429Y-119214235D01*
X220029329Y-119205970D01*
X220007151Y-119195480D01*
X219986107Y-119182867D01*
X219966402Y-119168253D01*
X219948223Y-119151777D01*
X219931747Y-119133598D01*
X219917133Y-119113893D01*
X219904520Y-119092849D01*
X219894030Y-119070671D01*
X219885765Y-119047571D01*
X219879804Y-119023773D01*
X219876204Y-118999504D01*
X219875000Y-118975000D01*
X219875000Y-118225000D01*
X219876204Y-118200496D01*
X219879804Y-118176227D01*
X219885765Y-118152429D01*
X219894030Y-118129329D01*
X219904520Y-118107151D01*
X219917133Y-118086107D01*
X219931747Y-118066402D01*
X219948223Y-118048223D01*
X219966402Y-118031747D01*
X219986107Y-118017133D01*
X220007151Y-118004520D01*
X220029329Y-117994030D01*
X220052429Y-117985765D01*
X220076227Y-117979804D01*
X220100496Y-117976204D01*
X220125000Y-117975000D01*
X221375000Y-117975000D01*
X221399504Y-117976204D01*
X221399504Y-117976204D01*
G37*
D14*
X220750000Y-118600000D03*
D12*
G36*
X221399504Y-120776204D02*
G01*
X221423773Y-120779804D01*
X221447571Y-120785765D01*
X221470671Y-120794030D01*
X221492849Y-120804520D01*
X221513893Y-120817133D01*
X221533598Y-120831747D01*
X221551777Y-120848223D01*
X221568253Y-120866402D01*
X221582867Y-120886107D01*
X221595480Y-120907151D01*
X221605970Y-120929329D01*
X221614235Y-120952429D01*
X221620196Y-120976227D01*
X221623796Y-121000496D01*
X221625000Y-121025000D01*
X221625000Y-121775000D01*
X221623796Y-121799504D01*
X221620196Y-121823773D01*
X221614235Y-121847571D01*
X221605970Y-121870671D01*
X221595480Y-121892849D01*
X221582867Y-121913893D01*
X221568253Y-121933598D01*
X221551777Y-121951777D01*
X221533598Y-121968253D01*
X221513893Y-121982867D01*
X221492849Y-121995480D01*
X221470671Y-122005970D01*
X221447571Y-122014235D01*
X221423773Y-122020196D01*
X221399504Y-122023796D01*
X221375000Y-122025000D01*
X220125000Y-122025000D01*
X220100496Y-122023796D01*
X220076227Y-122020196D01*
X220052429Y-122014235D01*
X220029329Y-122005970D01*
X220007151Y-121995480D01*
X219986107Y-121982867D01*
X219966402Y-121968253D01*
X219948223Y-121951777D01*
X219931747Y-121933598D01*
X219917133Y-121913893D01*
X219904520Y-121892849D01*
X219894030Y-121870671D01*
X219885765Y-121847571D01*
X219879804Y-121823773D01*
X219876204Y-121799504D01*
X219875000Y-121775000D01*
X219875000Y-121025000D01*
X219876204Y-121000496D01*
X219879804Y-120976227D01*
X219885765Y-120952429D01*
X219894030Y-120929329D01*
X219904520Y-120907151D01*
X219917133Y-120886107D01*
X219931747Y-120866402D01*
X219948223Y-120848223D01*
X219966402Y-120831747D01*
X219986107Y-120817133D01*
X220007151Y-120804520D01*
X220029329Y-120794030D01*
X220052429Y-120785765D01*
X220076227Y-120779804D01*
X220100496Y-120776204D01*
X220125000Y-120775000D01*
X221375000Y-120775000D01*
X221399504Y-120776204D01*
X221399504Y-120776204D01*
G37*
D14*
X220750000Y-121400000D03*
D12*
G36*
X173399504Y-117976204D02*
G01*
X173423773Y-117979804D01*
X173447571Y-117985765D01*
X173470671Y-117994030D01*
X173492849Y-118004520D01*
X173513893Y-118017133D01*
X173533598Y-118031747D01*
X173551777Y-118048223D01*
X173568253Y-118066402D01*
X173582867Y-118086107D01*
X173595480Y-118107151D01*
X173605970Y-118129329D01*
X173614235Y-118152429D01*
X173620196Y-118176227D01*
X173623796Y-118200496D01*
X173625000Y-118225000D01*
X173625000Y-118975000D01*
X173623796Y-118999504D01*
X173620196Y-119023773D01*
X173614235Y-119047571D01*
X173605970Y-119070671D01*
X173595480Y-119092849D01*
X173582867Y-119113893D01*
X173568253Y-119133598D01*
X173551777Y-119151777D01*
X173533598Y-119168253D01*
X173513893Y-119182867D01*
X173492849Y-119195480D01*
X173470671Y-119205970D01*
X173447571Y-119214235D01*
X173423773Y-119220196D01*
X173399504Y-119223796D01*
X173375000Y-119225000D01*
X172125000Y-119225000D01*
X172100496Y-119223796D01*
X172076227Y-119220196D01*
X172052429Y-119214235D01*
X172029329Y-119205970D01*
X172007151Y-119195480D01*
X171986107Y-119182867D01*
X171966402Y-119168253D01*
X171948223Y-119151777D01*
X171931747Y-119133598D01*
X171917133Y-119113893D01*
X171904520Y-119092849D01*
X171894030Y-119070671D01*
X171885765Y-119047571D01*
X171879804Y-119023773D01*
X171876204Y-118999504D01*
X171875000Y-118975000D01*
X171875000Y-118225000D01*
X171876204Y-118200496D01*
X171879804Y-118176227D01*
X171885765Y-118152429D01*
X171894030Y-118129329D01*
X171904520Y-118107151D01*
X171917133Y-118086107D01*
X171931747Y-118066402D01*
X171948223Y-118048223D01*
X171966402Y-118031747D01*
X171986107Y-118017133D01*
X172007151Y-118004520D01*
X172029329Y-117994030D01*
X172052429Y-117985765D01*
X172076227Y-117979804D01*
X172100496Y-117976204D01*
X172125000Y-117975000D01*
X173375000Y-117975000D01*
X173399504Y-117976204D01*
X173399504Y-117976204D01*
G37*
D14*
X172750000Y-118600000D03*
D12*
G36*
X173399504Y-120776204D02*
G01*
X173423773Y-120779804D01*
X173447571Y-120785765D01*
X173470671Y-120794030D01*
X173492849Y-120804520D01*
X173513893Y-120817133D01*
X173533598Y-120831747D01*
X173551777Y-120848223D01*
X173568253Y-120866402D01*
X173582867Y-120886107D01*
X173595480Y-120907151D01*
X173605970Y-120929329D01*
X173614235Y-120952429D01*
X173620196Y-120976227D01*
X173623796Y-121000496D01*
X173625000Y-121025000D01*
X173625000Y-121775000D01*
X173623796Y-121799504D01*
X173620196Y-121823773D01*
X173614235Y-121847571D01*
X173605970Y-121870671D01*
X173595480Y-121892849D01*
X173582867Y-121913893D01*
X173568253Y-121933598D01*
X173551777Y-121951777D01*
X173533598Y-121968253D01*
X173513893Y-121982867D01*
X173492849Y-121995480D01*
X173470671Y-122005970D01*
X173447571Y-122014235D01*
X173423773Y-122020196D01*
X173399504Y-122023796D01*
X173375000Y-122025000D01*
X172125000Y-122025000D01*
X172100496Y-122023796D01*
X172076227Y-122020196D01*
X172052429Y-122014235D01*
X172029329Y-122005970D01*
X172007151Y-121995480D01*
X171986107Y-121982867D01*
X171966402Y-121968253D01*
X171948223Y-121951777D01*
X171931747Y-121933598D01*
X171917133Y-121913893D01*
X171904520Y-121892849D01*
X171894030Y-121870671D01*
X171885765Y-121847571D01*
X171879804Y-121823773D01*
X171876204Y-121799504D01*
X171875000Y-121775000D01*
X171875000Y-121025000D01*
X171876204Y-121000496D01*
X171879804Y-120976227D01*
X171885765Y-120952429D01*
X171894030Y-120929329D01*
X171904520Y-120907151D01*
X171917133Y-120886107D01*
X171931747Y-120866402D01*
X171948223Y-120848223D01*
X171966402Y-120831747D01*
X171986107Y-120817133D01*
X172007151Y-120804520D01*
X172029329Y-120794030D01*
X172052429Y-120785765D01*
X172076227Y-120779804D01*
X172100496Y-120776204D01*
X172125000Y-120775000D01*
X173375000Y-120775000D01*
X173399504Y-120776204D01*
X173399504Y-120776204D01*
G37*
D14*
X172750000Y-121400000D03*
D12*
G36*
X125399504Y-117976204D02*
G01*
X125423773Y-117979804D01*
X125447571Y-117985765D01*
X125470671Y-117994030D01*
X125492849Y-118004520D01*
X125513893Y-118017133D01*
X125533598Y-118031747D01*
X125551777Y-118048223D01*
X125568253Y-118066402D01*
X125582867Y-118086107D01*
X125595480Y-118107151D01*
X125605970Y-118129329D01*
X125614235Y-118152429D01*
X125620196Y-118176227D01*
X125623796Y-118200496D01*
X125625000Y-118225000D01*
X125625000Y-118975000D01*
X125623796Y-118999504D01*
X125620196Y-119023773D01*
X125614235Y-119047571D01*
X125605970Y-119070671D01*
X125595480Y-119092849D01*
X125582867Y-119113893D01*
X125568253Y-119133598D01*
X125551777Y-119151777D01*
X125533598Y-119168253D01*
X125513893Y-119182867D01*
X125492849Y-119195480D01*
X125470671Y-119205970D01*
X125447571Y-119214235D01*
X125423773Y-119220196D01*
X125399504Y-119223796D01*
X125375000Y-119225000D01*
X124125000Y-119225000D01*
X124100496Y-119223796D01*
X124076227Y-119220196D01*
X124052429Y-119214235D01*
X124029329Y-119205970D01*
X124007151Y-119195480D01*
X123986107Y-119182867D01*
X123966402Y-119168253D01*
X123948223Y-119151777D01*
X123931747Y-119133598D01*
X123917133Y-119113893D01*
X123904520Y-119092849D01*
X123894030Y-119070671D01*
X123885765Y-119047571D01*
X123879804Y-119023773D01*
X123876204Y-118999504D01*
X123875000Y-118975000D01*
X123875000Y-118225000D01*
X123876204Y-118200496D01*
X123879804Y-118176227D01*
X123885765Y-118152429D01*
X123894030Y-118129329D01*
X123904520Y-118107151D01*
X123917133Y-118086107D01*
X123931747Y-118066402D01*
X123948223Y-118048223D01*
X123966402Y-118031747D01*
X123986107Y-118017133D01*
X124007151Y-118004520D01*
X124029329Y-117994030D01*
X124052429Y-117985765D01*
X124076227Y-117979804D01*
X124100496Y-117976204D01*
X124125000Y-117975000D01*
X125375000Y-117975000D01*
X125399504Y-117976204D01*
X125399504Y-117976204D01*
G37*
D14*
X124750000Y-118600000D03*
D12*
G36*
X125399504Y-120776204D02*
G01*
X125423773Y-120779804D01*
X125447571Y-120785765D01*
X125470671Y-120794030D01*
X125492849Y-120804520D01*
X125513893Y-120817133D01*
X125533598Y-120831747D01*
X125551777Y-120848223D01*
X125568253Y-120866402D01*
X125582867Y-120886107D01*
X125595480Y-120907151D01*
X125605970Y-120929329D01*
X125614235Y-120952429D01*
X125620196Y-120976227D01*
X125623796Y-121000496D01*
X125625000Y-121025000D01*
X125625000Y-121775000D01*
X125623796Y-121799504D01*
X125620196Y-121823773D01*
X125614235Y-121847571D01*
X125605970Y-121870671D01*
X125595480Y-121892849D01*
X125582867Y-121913893D01*
X125568253Y-121933598D01*
X125551777Y-121951777D01*
X125533598Y-121968253D01*
X125513893Y-121982867D01*
X125492849Y-121995480D01*
X125470671Y-122005970D01*
X125447571Y-122014235D01*
X125423773Y-122020196D01*
X125399504Y-122023796D01*
X125375000Y-122025000D01*
X124125000Y-122025000D01*
X124100496Y-122023796D01*
X124076227Y-122020196D01*
X124052429Y-122014235D01*
X124029329Y-122005970D01*
X124007151Y-121995480D01*
X123986107Y-121982867D01*
X123966402Y-121968253D01*
X123948223Y-121951777D01*
X123931747Y-121933598D01*
X123917133Y-121913893D01*
X123904520Y-121892849D01*
X123894030Y-121870671D01*
X123885765Y-121847571D01*
X123879804Y-121823773D01*
X123876204Y-121799504D01*
X123875000Y-121775000D01*
X123875000Y-121025000D01*
X123876204Y-121000496D01*
X123879804Y-120976227D01*
X123885765Y-120952429D01*
X123894030Y-120929329D01*
X123904520Y-120907151D01*
X123917133Y-120886107D01*
X123931747Y-120866402D01*
X123948223Y-120848223D01*
X123966402Y-120831747D01*
X123986107Y-120817133D01*
X124007151Y-120804520D01*
X124029329Y-120794030D01*
X124052429Y-120785765D01*
X124076227Y-120779804D01*
X124100496Y-120776204D01*
X124125000Y-120775000D01*
X125375000Y-120775000D01*
X125399504Y-120776204D01*
X125399504Y-120776204D01*
G37*
D14*
X124750000Y-121400000D03*
D12*
G36*
X77399504Y-117976204D02*
G01*
X77423773Y-117979804D01*
X77447571Y-117985765D01*
X77470671Y-117994030D01*
X77492849Y-118004520D01*
X77513893Y-118017133D01*
X77533598Y-118031747D01*
X77551777Y-118048223D01*
X77568253Y-118066402D01*
X77582867Y-118086107D01*
X77595480Y-118107151D01*
X77605970Y-118129329D01*
X77614235Y-118152429D01*
X77620196Y-118176227D01*
X77623796Y-118200496D01*
X77625000Y-118225000D01*
X77625000Y-118975000D01*
X77623796Y-118999504D01*
X77620196Y-119023773D01*
X77614235Y-119047571D01*
X77605970Y-119070671D01*
X77595480Y-119092849D01*
X77582867Y-119113893D01*
X77568253Y-119133598D01*
X77551777Y-119151777D01*
X77533598Y-119168253D01*
X77513893Y-119182867D01*
X77492849Y-119195480D01*
X77470671Y-119205970D01*
X77447571Y-119214235D01*
X77423773Y-119220196D01*
X77399504Y-119223796D01*
X77375000Y-119225000D01*
X76125000Y-119225000D01*
X76100496Y-119223796D01*
X76076227Y-119220196D01*
X76052429Y-119214235D01*
X76029329Y-119205970D01*
X76007151Y-119195480D01*
X75986107Y-119182867D01*
X75966402Y-119168253D01*
X75948223Y-119151777D01*
X75931747Y-119133598D01*
X75917133Y-119113893D01*
X75904520Y-119092849D01*
X75894030Y-119070671D01*
X75885765Y-119047571D01*
X75879804Y-119023773D01*
X75876204Y-118999504D01*
X75875000Y-118975000D01*
X75875000Y-118225000D01*
X75876204Y-118200496D01*
X75879804Y-118176227D01*
X75885765Y-118152429D01*
X75894030Y-118129329D01*
X75904520Y-118107151D01*
X75917133Y-118086107D01*
X75931747Y-118066402D01*
X75948223Y-118048223D01*
X75966402Y-118031747D01*
X75986107Y-118017133D01*
X76007151Y-118004520D01*
X76029329Y-117994030D01*
X76052429Y-117985765D01*
X76076227Y-117979804D01*
X76100496Y-117976204D01*
X76125000Y-117975000D01*
X77375000Y-117975000D01*
X77399504Y-117976204D01*
X77399504Y-117976204D01*
G37*
D14*
X76750000Y-118600000D03*
D12*
G36*
X77399504Y-120776204D02*
G01*
X77423773Y-120779804D01*
X77447571Y-120785765D01*
X77470671Y-120794030D01*
X77492849Y-120804520D01*
X77513893Y-120817133D01*
X77533598Y-120831747D01*
X77551777Y-120848223D01*
X77568253Y-120866402D01*
X77582867Y-120886107D01*
X77595480Y-120907151D01*
X77605970Y-120929329D01*
X77614235Y-120952429D01*
X77620196Y-120976227D01*
X77623796Y-121000496D01*
X77625000Y-121025000D01*
X77625000Y-121775000D01*
X77623796Y-121799504D01*
X77620196Y-121823773D01*
X77614235Y-121847571D01*
X77605970Y-121870671D01*
X77595480Y-121892849D01*
X77582867Y-121913893D01*
X77568253Y-121933598D01*
X77551777Y-121951777D01*
X77533598Y-121968253D01*
X77513893Y-121982867D01*
X77492849Y-121995480D01*
X77470671Y-122005970D01*
X77447571Y-122014235D01*
X77423773Y-122020196D01*
X77399504Y-122023796D01*
X77375000Y-122025000D01*
X76125000Y-122025000D01*
X76100496Y-122023796D01*
X76076227Y-122020196D01*
X76052429Y-122014235D01*
X76029329Y-122005970D01*
X76007151Y-121995480D01*
X75986107Y-121982867D01*
X75966402Y-121968253D01*
X75948223Y-121951777D01*
X75931747Y-121933598D01*
X75917133Y-121913893D01*
X75904520Y-121892849D01*
X75894030Y-121870671D01*
X75885765Y-121847571D01*
X75879804Y-121823773D01*
X75876204Y-121799504D01*
X75875000Y-121775000D01*
X75875000Y-121025000D01*
X75876204Y-121000496D01*
X75879804Y-120976227D01*
X75885765Y-120952429D01*
X75894030Y-120929329D01*
X75904520Y-120907151D01*
X75917133Y-120886107D01*
X75931747Y-120866402D01*
X75948223Y-120848223D01*
X75966402Y-120831747D01*
X75986107Y-120817133D01*
X76007151Y-120804520D01*
X76029329Y-120794030D01*
X76052429Y-120785765D01*
X76076227Y-120779804D01*
X76100496Y-120776204D01*
X76125000Y-120775000D01*
X77375000Y-120775000D01*
X77399504Y-120776204D01*
X77399504Y-120776204D01*
G37*
D14*
X76750000Y-121400000D03*
D12*
G36*
X29399504Y-117976204D02*
G01*
X29423773Y-117979804D01*
X29447571Y-117985765D01*
X29470671Y-117994030D01*
X29492849Y-118004520D01*
X29513893Y-118017133D01*
X29533598Y-118031747D01*
X29551777Y-118048223D01*
X29568253Y-118066402D01*
X29582867Y-118086107D01*
X29595480Y-118107151D01*
X29605970Y-118129329D01*
X29614235Y-118152429D01*
X29620196Y-118176227D01*
X29623796Y-118200496D01*
X29625000Y-118225000D01*
X29625000Y-118975000D01*
X29623796Y-118999504D01*
X29620196Y-119023773D01*
X29614235Y-119047571D01*
X29605970Y-119070671D01*
X29595480Y-119092849D01*
X29582867Y-119113893D01*
X29568253Y-119133598D01*
X29551777Y-119151777D01*
X29533598Y-119168253D01*
X29513893Y-119182867D01*
X29492849Y-119195480D01*
X29470671Y-119205970D01*
X29447571Y-119214235D01*
X29423773Y-119220196D01*
X29399504Y-119223796D01*
X29375000Y-119225000D01*
X28125000Y-119225000D01*
X28100496Y-119223796D01*
X28076227Y-119220196D01*
X28052429Y-119214235D01*
X28029329Y-119205970D01*
X28007151Y-119195480D01*
X27986107Y-119182867D01*
X27966402Y-119168253D01*
X27948223Y-119151777D01*
X27931747Y-119133598D01*
X27917133Y-119113893D01*
X27904520Y-119092849D01*
X27894030Y-119070671D01*
X27885765Y-119047571D01*
X27879804Y-119023773D01*
X27876204Y-118999504D01*
X27875000Y-118975000D01*
X27875000Y-118225000D01*
X27876204Y-118200496D01*
X27879804Y-118176227D01*
X27885765Y-118152429D01*
X27894030Y-118129329D01*
X27904520Y-118107151D01*
X27917133Y-118086107D01*
X27931747Y-118066402D01*
X27948223Y-118048223D01*
X27966402Y-118031747D01*
X27986107Y-118017133D01*
X28007151Y-118004520D01*
X28029329Y-117994030D01*
X28052429Y-117985765D01*
X28076227Y-117979804D01*
X28100496Y-117976204D01*
X28125000Y-117975000D01*
X29375000Y-117975000D01*
X29399504Y-117976204D01*
X29399504Y-117976204D01*
G37*
D14*
X28750000Y-118600000D03*
D12*
G36*
X29399504Y-120776204D02*
G01*
X29423773Y-120779804D01*
X29447571Y-120785765D01*
X29470671Y-120794030D01*
X29492849Y-120804520D01*
X29513893Y-120817133D01*
X29533598Y-120831747D01*
X29551777Y-120848223D01*
X29568253Y-120866402D01*
X29582867Y-120886107D01*
X29595480Y-120907151D01*
X29605970Y-120929329D01*
X29614235Y-120952429D01*
X29620196Y-120976227D01*
X29623796Y-121000496D01*
X29625000Y-121025000D01*
X29625000Y-121775000D01*
X29623796Y-121799504D01*
X29620196Y-121823773D01*
X29614235Y-121847571D01*
X29605970Y-121870671D01*
X29595480Y-121892849D01*
X29582867Y-121913893D01*
X29568253Y-121933598D01*
X29551777Y-121951777D01*
X29533598Y-121968253D01*
X29513893Y-121982867D01*
X29492849Y-121995480D01*
X29470671Y-122005970D01*
X29447571Y-122014235D01*
X29423773Y-122020196D01*
X29399504Y-122023796D01*
X29375000Y-122025000D01*
X28125000Y-122025000D01*
X28100496Y-122023796D01*
X28076227Y-122020196D01*
X28052429Y-122014235D01*
X28029329Y-122005970D01*
X28007151Y-121995480D01*
X27986107Y-121982867D01*
X27966402Y-121968253D01*
X27948223Y-121951777D01*
X27931747Y-121933598D01*
X27917133Y-121913893D01*
X27904520Y-121892849D01*
X27894030Y-121870671D01*
X27885765Y-121847571D01*
X27879804Y-121823773D01*
X27876204Y-121799504D01*
X27875000Y-121775000D01*
X27875000Y-121025000D01*
X27876204Y-121000496D01*
X27879804Y-120976227D01*
X27885765Y-120952429D01*
X27894030Y-120929329D01*
X27904520Y-120907151D01*
X27917133Y-120886107D01*
X27931747Y-120866402D01*
X27948223Y-120848223D01*
X27966402Y-120831747D01*
X27986107Y-120817133D01*
X28007151Y-120804520D01*
X28029329Y-120794030D01*
X28052429Y-120785765D01*
X28076227Y-120779804D01*
X28100496Y-120776204D01*
X28125000Y-120775000D01*
X29375000Y-120775000D01*
X29399504Y-120776204D01*
X29399504Y-120776204D01*
G37*
D14*
X28750000Y-121400000D03*
D12*
G36*
X101827691Y-115926053D02*
G01*
X101848926Y-115929203D01*
X101869750Y-115934419D01*
X101889962Y-115941651D01*
X101909368Y-115950830D01*
X101927781Y-115961866D01*
X101945024Y-115974654D01*
X101960930Y-115989070D01*
X101975346Y-116004976D01*
X101988134Y-116022219D01*
X101999170Y-116040632D01*
X102008349Y-116060038D01*
X102015581Y-116080250D01*
X102020797Y-116101074D01*
X102023947Y-116122309D01*
X102025000Y-116143750D01*
X102025000Y-116656250D01*
X102023947Y-116677691D01*
X102020797Y-116698926D01*
X102015581Y-116719750D01*
X102008349Y-116739962D01*
X101999170Y-116759368D01*
X101988134Y-116777781D01*
X101975346Y-116795024D01*
X101960930Y-116810930D01*
X101945024Y-116825346D01*
X101927781Y-116838134D01*
X101909368Y-116849170D01*
X101889962Y-116858349D01*
X101869750Y-116865581D01*
X101848926Y-116870797D01*
X101827691Y-116873947D01*
X101806250Y-116875000D01*
X101368750Y-116875000D01*
X101347309Y-116873947D01*
X101326074Y-116870797D01*
X101305250Y-116865581D01*
X101285038Y-116858349D01*
X101265632Y-116849170D01*
X101247219Y-116838134D01*
X101229976Y-116825346D01*
X101214070Y-116810930D01*
X101199654Y-116795024D01*
X101186866Y-116777781D01*
X101175830Y-116759368D01*
X101166651Y-116739962D01*
X101159419Y-116719750D01*
X101154203Y-116698926D01*
X101151053Y-116677691D01*
X101150000Y-116656250D01*
X101150000Y-116143750D01*
X101151053Y-116122309D01*
X101154203Y-116101074D01*
X101159419Y-116080250D01*
X101166651Y-116060038D01*
X101175830Y-116040632D01*
X101186866Y-116022219D01*
X101199654Y-116004976D01*
X101214070Y-115989070D01*
X101229976Y-115974654D01*
X101247219Y-115961866D01*
X101265632Y-115950830D01*
X101285038Y-115941651D01*
X101305250Y-115934419D01*
X101326074Y-115929203D01*
X101347309Y-115926053D01*
X101368750Y-115925000D01*
X101806250Y-115925000D01*
X101827691Y-115926053D01*
X101827691Y-115926053D01*
G37*
D13*
X101587500Y-116400000D03*
D12*
G36*
X100252691Y-115926053D02*
G01*
X100273926Y-115929203D01*
X100294750Y-115934419D01*
X100314962Y-115941651D01*
X100334368Y-115950830D01*
X100352781Y-115961866D01*
X100370024Y-115974654D01*
X100385930Y-115989070D01*
X100400346Y-116004976D01*
X100413134Y-116022219D01*
X100424170Y-116040632D01*
X100433349Y-116060038D01*
X100440581Y-116080250D01*
X100445797Y-116101074D01*
X100448947Y-116122309D01*
X100450000Y-116143750D01*
X100450000Y-116656250D01*
X100448947Y-116677691D01*
X100445797Y-116698926D01*
X100440581Y-116719750D01*
X100433349Y-116739962D01*
X100424170Y-116759368D01*
X100413134Y-116777781D01*
X100400346Y-116795024D01*
X100385930Y-116810930D01*
X100370024Y-116825346D01*
X100352781Y-116838134D01*
X100334368Y-116849170D01*
X100314962Y-116858349D01*
X100294750Y-116865581D01*
X100273926Y-116870797D01*
X100252691Y-116873947D01*
X100231250Y-116875000D01*
X99793750Y-116875000D01*
X99772309Y-116873947D01*
X99751074Y-116870797D01*
X99730250Y-116865581D01*
X99710038Y-116858349D01*
X99690632Y-116849170D01*
X99672219Y-116838134D01*
X99654976Y-116825346D01*
X99639070Y-116810930D01*
X99624654Y-116795024D01*
X99611866Y-116777781D01*
X99600830Y-116759368D01*
X99591651Y-116739962D01*
X99584419Y-116719750D01*
X99579203Y-116698926D01*
X99576053Y-116677691D01*
X99575000Y-116656250D01*
X99575000Y-116143750D01*
X99576053Y-116122309D01*
X99579203Y-116101074D01*
X99584419Y-116080250D01*
X99591651Y-116060038D01*
X99600830Y-116040632D01*
X99611866Y-116022219D01*
X99624654Y-116004976D01*
X99639070Y-115989070D01*
X99654976Y-115974654D01*
X99672219Y-115961866D01*
X99690632Y-115950830D01*
X99710038Y-115941651D01*
X99730250Y-115934419D01*
X99751074Y-115929203D01*
X99772309Y-115926053D01*
X99793750Y-115925000D01*
X100231250Y-115925000D01*
X100252691Y-115926053D01*
X100252691Y-115926053D01*
G37*
D13*
X100012500Y-116400000D03*
D15*
X281000000Y-121040000D03*
D16*
X281000000Y-118500000D03*
D15*
X16500000Y-117460000D03*
X16500000Y-120000000D03*
D16*
X16500000Y-122540000D03*
D12*
G36*
X246527691Y-120101053D02*
G01*
X246548926Y-120104203D01*
X246569750Y-120109419D01*
X246589962Y-120116651D01*
X246609368Y-120125830D01*
X246627781Y-120136866D01*
X246645024Y-120149654D01*
X246660930Y-120164070D01*
X246675346Y-120179976D01*
X246688134Y-120197219D01*
X246699170Y-120215632D01*
X246708349Y-120235038D01*
X246715581Y-120255250D01*
X246720797Y-120276074D01*
X246723947Y-120297309D01*
X246725000Y-120318750D01*
X246725000Y-120756250D01*
X246723947Y-120777691D01*
X246720797Y-120798926D01*
X246715581Y-120819750D01*
X246708349Y-120839962D01*
X246699170Y-120859368D01*
X246688134Y-120877781D01*
X246675346Y-120895024D01*
X246660930Y-120910930D01*
X246645024Y-120925346D01*
X246627781Y-120938134D01*
X246609368Y-120949170D01*
X246589962Y-120958349D01*
X246569750Y-120965581D01*
X246548926Y-120970797D01*
X246527691Y-120973947D01*
X246506250Y-120975000D01*
X245993750Y-120975000D01*
X245972309Y-120973947D01*
X245951074Y-120970797D01*
X245930250Y-120965581D01*
X245910038Y-120958349D01*
X245890632Y-120949170D01*
X245872219Y-120938134D01*
X245854976Y-120925346D01*
X245839070Y-120910930D01*
X245824654Y-120895024D01*
X245811866Y-120877781D01*
X245800830Y-120859368D01*
X245791651Y-120839962D01*
X245784419Y-120819750D01*
X245779203Y-120798926D01*
X245776053Y-120777691D01*
X245775000Y-120756250D01*
X245775000Y-120318750D01*
X245776053Y-120297309D01*
X245779203Y-120276074D01*
X245784419Y-120255250D01*
X245791651Y-120235038D01*
X245800830Y-120215632D01*
X245811866Y-120197219D01*
X245824654Y-120179976D01*
X245839070Y-120164070D01*
X245854976Y-120149654D01*
X245872219Y-120136866D01*
X245890632Y-120125830D01*
X245910038Y-120116651D01*
X245930250Y-120109419D01*
X245951074Y-120104203D01*
X245972309Y-120101053D01*
X245993750Y-120100000D01*
X246506250Y-120100000D01*
X246527691Y-120101053D01*
X246527691Y-120101053D01*
G37*
D13*
X246250000Y-120537500D03*
D12*
G36*
X246527691Y-118526053D02*
G01*
X246548926Y-118529203D01*
X246569750Y-118534419D01*
X246589962Y-118541651D01*
X246609368Y-118550830D01*
X246627781Y-118561866D01*
X246645024Y-118574654D01*
X246660930Y-118589070D01*
X246675346Y-118604976D01*
X246688134Y-118622219D01*
X246699170Y-118640632D01*
X246708349Y-118660038D01*
X246715581Y-118680250D01*
X246720797Y-118701074D01*
X246723947Y-118722309D01*
X246725000Y-118743750D01*
X246725000Y-119181250D01*
X246723947Y-119202691D01*
X246720797Y-119223926D01*
X246715581Y-119244750D01*
X246708349Y-119264962D01*
X246699170Y-119284368D01*
X246688134Y-119302781D01*
X246675346Y-119320024D01*
X246660930Y-119335930D01*
X246645024Y-119350346D01*
X246627781Y-119363134D01*
X246609368Y-119374170D01*
X246589962Y-119383349D01*
X246569750Y-119390581D01*
X246548926Y-119395797D01*
X246527691Y-119398947D01*
X246506250Y-119400000D01*
X245993750Y-119400000D01*
X245972309Y-119398947D01*
X245951074Y-119395797D01*
X245930250Y-119390581D01*
X245910038Y-119383349D01*
X245890632Y-119374170D01*
X245872219Y-119363134D01*
X245854976Y-119350346D01*
X245839070Y-119335930D01*
X245824654Y-119320024D01*
X245811866Y-119302781D01*
X245800830Y-119284368D01*
X245791651Y-119264962D01*
X245784419Y-119244750D01*
X245779203Y-119223926D01*
X245776053Y-119202691D01*
X245775000Y-119181250D01*
X245775000Y-118743750D01*
X245776053Y-118722309D01*
X245779203Y-118701074D01*
X245784419Y-118680250D01*
X245791651Y-118660038D01*
X245800830Y-118640632D01*
X245811866Y-118622219D01*
X245824654Y-118604976D01*
X245839070Y-118589070D01*
X245854976Y-118574654D01*
X245872219Y-118561866D01*
X245890632Y-118550830D01*
X245910038Y-118541651D01*
X245930250Y-118534419D01*
X245951074Y-118529203D01*
X245972309Y-118526053D01*
X245993750Y-118525000D01*
X246506250Y-118525000D01*
X246527691Y-118526053D01*
X246527691Y-118526053D01*
G37*
D13*
X246250000Y-118962500D03*
D12*
G36*
X253527691Y-120101053D02*
G01*
X253548926Y-120104203D01*
X253569750Y-120109419D01*
X253589962Y-120116651D01*
X253609368Y-120125830D01*
X253627781Y-120136866D01*
X253645024Y-120149654D01*
X253660930Y-120164070D01*
X253675346Y-120179976D01*
X253688134Y-120197219D01*
X253699170Y-120215632D01*
X253708349Y-120235038D01*
X253715581Y-120255250D01*
X253720797Y-120276074D01*
X253723947Y-120297309D01*
X253725000Y-120318750D01*
X253725000Y-120756250D01*
X253723947Y-120777691D01*
X253720797Y-120798926D01*
X253715581Y-120819750D01*
X253708349Y-120839962D01*
X253699170Y-120859368D01*
X253688134Y-120877781D01*
X253675346Y-120895024D01*
X253660930Y-120910930D01*
X253645024Y-120925346D01*
X253627781Y-120938134D01*
X253609368Y-120949170D01*
X253589962Y-120958349D01*
X253569750Y-120965581D01*
X253548926Y-120970797D01*
X253527691Y-120973947D01*
X253506250Y-120975000D01*
X252993750Y-120975000D01*
X252972309Y-120973947D01*
X252951074Y-120970797D01*
X252930250Y-120965581D01*
X252910038Y-120958349D01*
X252890632Y-120949170D01*
X252872219Y-120938134D01*
X252854976Y-120925346D01*
X252839070Y-120910930D01*
X252824654Y-120895024D01*
X252811866Y-120877781D01*
X252800830Y-120859368D01*
X252791651Y-120839962D01*
X252784419Y-120819750D01*
X252779203Y-120798926D01*
X252776053Y-120777691D01*
X252775000Y-120756250D01*
X252775000Y-120318750D01*
X252776053Y-120297309D01*
X252779203Y-120276074D01*
X252784419Y-120255250D01*
X252791651Y-120235038D01*
X252800830Y-120215632D01*
X252811866Y-120197219D01*
X252824654Y-120179976D01*
X252839070Y-120164070D01*
X252854976Y-120149654D01*
X252872219Y-120136866D01*
X252890632Y-120125830D01*
X252910038Y-120116651D01*
X252930250Y-120109419D01*
X252951074Y-120104203D01*
X252972309Y-120101053D01*
X252993750Y-120100000D01*
X253506250Y-120100000D01*
X253527691Y-120101053D01*
X253527691Y-120101053D01*
G37*
D13*
X253250000Y-120537500D03*
D12*
G36*
X253527691Y-118526053D02*
G01*
X253548926Y-118529203D01*
X253569750Y-118534419D01*
X253589962Y-118541651D01*
X253609368Y-118550830D01*
X253627781Y-118561866D01*
X253645024Y-118574654D01*
X253660930Y-118589070D01*
X253675346Y-118604976D01*
X253688134Y-118622219D01*
X253699170Y-118640632D01*
X253708349Y-118660038D01*
X253715581Y-118680250D01*
X253720797Y-118701074D01*
X253723947Y-118722309D01*
X253725000Y-118743750D01*
X253725000Y-119181250D01*
X253723947Y-119202691D01*
X253720797Y-119223926D01*
X253715581Y-119244750D01*
X253708349Y-119264962D01*
X253699170Y-119284368D01*
X253688134Y-119302781D01*
X253675346Y-119320024D01*
X253660930Y-119335930D01*
X253645024Y-119350346D01*
X253627781Y-119363134D01*
X253609368Y-119374170D01*
X253589962Y-119383349D01*
X253569750Y-119390581D01*
X253548926Y-119395797D01*
X253527691Y-119398947D01*
X253506250Y-119400000D01*
X252993750Y-119400000D01*
X252972309Y-119398947D01*
X252951074Y-119395797D01*
X252930250Y-119390581D01*
X252910038Y-119383349D01*
X252890632Y-119374170D01*
X252872219Y-119363134D01*
X252854976Y-119350346D01*
X252839070Y-119335930D01*
X252824654Y-119320024D01*
X252811866Y-119302781D01*
X252800830Y-119284368D01*
X252791651Y-119264962D01*
X252784419Y-119244750D01*
X252779203Y-119223926D01*
X252776053Y-119202691D01*
X252775000Y-119181250D01*
X252775000Y-118743750D01*
X252776053Y-118722309D01*
X252779203Y-118701074D01*
X252784419Y-118680250D01*
X252791651Y-118660038D01*
X252800830Y-118640632D01*
X252811866Y-118622219D01*
X252824654Y-118604976D01*
X252839070Y-118589070D01*
X252854976Y-118574654D01*
X252872219Y-118561866D01*
X252890632Y-118550830D01*
X252910038Y-118541651D01*
X252930250Y-118534419D01*
X252951074Y-118529203D01*
X252972309Y-118526053D01*
X252993750Y-118525000D01*
X253506250Y-118525000D01*
X253527691Y-118526053D01*
X253527691Y-118526053D01*
G37*
D13*
X253250000Y-118962500D03*
D12*
G36*
X260527691Y-120101053D02*
G01*
X260548926Y-120104203D01*
X260569750Y-120109419D01*
X260589962Y-120116651D01*
X260609368Y-120125830D01*
X260627781Y-120136866D01*
X260645024Y-120149654D01*
X260660930Y-120164070D01*
X260675346Y-120179976D01*
X260688134Y-120197219D01*
X260699170Y-120215632D01*
X260708349Y-120235038D01*
X260715581Y-120255250D01*
X260720797Y-120276074D01*
X260723947Y-120297309D01*
X260725000Y-120318750D01*
X260725000Y-120756250D01*
X260723947Y-120777691D01*
X260720797Y-120798926D01*
X260715581Y-120819750D01*
X260708349Y-120839962D01*
X260699170Y-120859368D01*
X260688134Y-120877781D01*
X260675346Y-120895024D01*
X260660930Y-120910930D01*
X260645024Y-120925346D01*
X260627781Y-120938134D01*
X260609368Y-120949170D01*
X260589962Y-120958349D01*
X260569750Y-120965581D01*
X260548926Y-120970797D01*
X260527691Y-120973947D01*
X260506250Y-120975000D01*
X259993750Y-120975000D01*
X259972309Y-120973947D01*
X259951074Y-120970797D01*
X259930250Y-120965581D01*
X259910038Y-120958349D01*
X259890632Y-120949170D01*
X259872219Y-120938134D01*
X259854976Y-120925346D01*
X259839070Y-120910930D01*
X259824654Y-120895024D01*
X259811866Y-120877781D01*
X259800830Y-120859368D01*
X259791651Y-120839962D01*
X259784419Y-120819750D01*
X259779203Y-120798926D01*
X259776053Y-120777691D01*
X259775000Y-120756250D01*
X259775000Y-120318750D01*
X259776053Y-120297309D01*
X259779203Y-120276074D01*
X259784419Y-120255250D01*
X259791651Y-120235038D01*
X259800830Y-120215632D01*
X259811866Y-120197219D01*
X259824654Y-120179976D01*
X259839070Y-120164070D01*
X259854976Y-120149654D01*
X259872219Y-120136866D01*
X259890632Y-120125830D01*
X259910038Y-120116651D01*
X259930250Y-120109419D01*
X259951074Y-120104203D01*
X259972309Y-120101053D01*
X259993750Y-120100000D01*
X260506250Y-120100000D01*
X260527691Y-120101053D01*
X260527691Y-120101053D01*
G37*
D13*
X260250000Y-120537500D03*
D12*
G36*
X260527691Y-118526053D02*
G01*
X260548926Y-118529203D01*
X260569750Y-118534419D01*
X260589962Y-118541651D01*
X260609368Y-118550830D01*
X260627781Y-118561866D01*
X260645024Y-118574654D01*
X260660930Y-118589070D01*
X260675346Y-118604976D01*
X260688134Y-118622219D01*
X260699170Y-118640632D01*
X260708349Y-118660038D01*
X260715581Y-118680250D01*
X260720797Y-118701074D01*
X260723947Y-118722309D01*
X260725000Y-118743750D01*
X260725000Y-119181250D01*
X260723947Y-119202691D01*
X260720797Y-119223926D01*
X260715581Y-119244750D01*
X260708349Y-119264962D01*
X260699170Y-119284368D01*
X260688134Y-119302781D01*
X260675346Y-119320024D01*
X260660930Y-119335930D01*
X260645024Y-119350346D01*
X260627781Y-119363134D01*
X260609368Y-119374170D01*
X260589962Y-119383349D01*
X260569750Y-119390581D01*
X260548926Y-119395797D01*
X260527691Y-119398947D01*
X260506250Y-119400000D01*
X259993750Y-119400000D01*
X259972309Y-119398947D01*
X259951074Y-119395797D01*
X259930250Y-119390581D01*
X259910038Y-119383349D01*
X259890632Y-119374170D01*
X259872219Y-119363134D01*
X259854976Y-119350346D01*
X259839070Y-119335930D01*
X259824654Y-119320024D01*
X259811866Y-119302781D01*
X259800830Y-119284368D01*
X259791651Y-119264962D01*
X259784419Y-119244750D01*
X259779203Y-119223926D01*
X259776053Y-119202691D01*
X259775000Y-119181250D01*
X259775000Y-118743750D01*
X259776053Y-118722309D01*
X259779203Y-118701074D01*
X259784419Y-118680250D01*
X259791651Y-118660038D01*
X259800830Y-118640632D01*
X259811866Y-118622219D01*
X259824654Y-118604976D01*
X259839070Y-118589070D01*
X259854976Y-118574654D01*
X259872219Y-118561866D01*
X259890632Y-118550830D01*
X259910038Y-118541651D01*
X259930250Y-118534419D01*
X259951074Y-118529203D01*
X259972309Y-118526053D01*
X259993750Y-118525000D01*
X260506250Y-118525000D01*
X260527691Y-118526053D01*
X260527691Y-118526053D01*
G37*
D13*
X260250000Y-118962500D03*
D12*
G36*
X105140191Y-115926053D02*
G01*
X105161426Y-115929203D01*
X105182250Y-115934419D01*
X105202462Y-115941651D01*
X105221868Y-115950830D01*
X105240281Y-115961866D01*
X105257524Y-115974654D01*
X105273430Y-115989070D01*
X105287846Y-116004976D01*
X105300634Y-116022219D01*
X105311670Y-116040632D01*
X105320849Y-116060038D01*
X105328081Y-116080250D01*
X105333297Y-116101074D01*
X105336447Y-116122309D01*
X105337500Y-116143750D01*
X105337500Y-116656250D01*
X105336447Y-116677691D01*
X105333297Y-116698926D01*
X105328081Y-116719750D01*
X105320849Y-116739962D01*
X105311670Y-116759368D01*
X105300634Y-116777781D01*
X105287846Y-116795024D01*
X105273430Y-116810930D01*
X105257524Y-116825346D01*
X105240281Y-116838134D01*
X105221868Y-116849170D01*
X105202462Y-116858349D01*
X105182250Y-116865581D01*
X105161426Y-116870797D01*
X105140191Y-116873947D01*
X105118750Y-116875000D01*
X104681250Y-116875000D01*
X104659809Y-116873947D01*
X104638574Y-116870797D01*
X104617750Y-116865581D01*
X104597538Y-116858349D01*
X104578132Y-116849170D01*
X104559719Y-116838134D01*
X104542476Y-116825346D01*
X104526570Y-116810930D01*
X104512154Y-116795024D01*
X104499366Y-116777781D01*
X104488330Y-116759368D01*
X104479151Y-116739962D01*
X104471919Y-116719750D01*
X104466703Y-116698926D01*
X104463553Y-116677691D01*
X104462500Y-116656250D01*
X104462500Y-116143750D01*
X104463553Y-116122309D01*
X104466703Y-116101074D01*
X104471919Y-116080250D01*
X104479151Y-116060038D01*
X104488330Y-116040632D01*
X104499366Y-116022219D01*
X104512154Y-116004976D01*
X104526570Y-115989070D01*
X104542476Y-115974654D01*
X104559719Y-115961866D01*
X104578132Y-115950830D01*
X104597538Y-115941651D01*
X104617750Y-115934419D01*
X104638574Y-115929203D01*
X104659809Y-115926053D01*
X104681250Y-115925000D01*
X105118750Y-115925000D01*
X105140191Y-115926053D01*
X105140191Y-115926053D01*
G37*
D13*
X104900000Y-116400000D03*
D12*
G36*
X106715191Y-115926053D02*
G01*
X106736426Y-115929203D01*
X106757250Y-115934419D01*
X106777462Y-115941651D01*
X106796868Y-115950830D01*
X106815281Y-115961866D01*
X106832524Y-115974654D01*
X106848430Y-115989070D01*
X106862846Y-116004976D01*
X106875634Y-116022219D01*
X106886670Y-116040632D01*
X106895849Y-116060038D01*
X106903081Y-116080250D01*
X106908297Y-116101074D01*
X106911447Y-116122309D01*
X106912500Y-116143750D01*
X106912500Y-116656250D01*
X106911447Y-116677691D01*
X106908297Y-116698926D01*
X106903081Y-116719750D01*
X106895849Y-116739962D01*
X106886670Y-116759368D01*
X106875634Y-116777781D01*
X106862846Y-116795024D01*
X106848430Y-116810930D01*
X106832524Y-116825346D01*
X106815281Y-116838134D01*
X106796868Y-116849170D01*
X106777462Y-116858349D01*
X106757250Y-116865581D01*
X106736426Y-116870797D01*
X106715191Y-116873947D01*
X106693750Y-116875000D01*
X106256250Y-116875000D01*
X106234809Y-116873947D01*
X106213574Y-116870797D01*
X106192750Y-116865581D01*
X106172538Y-116858349D01*
X106153132Y-116849170D01*
X106134719Y-116838134D01*
X106117476Y-116825346D01*
X106101570Y-116810930D01*
X106087154Y-116795024D01*
X106074366Y-116777781D01*
X106063330Y-116759368D01*
X106054151Y-116739962D01*
X106046919Y-116719750D01*
X106041703Y-116698926D01*
X106038553Y-116677691D01*
X106037500Y-116656250D01*
X106037500Y-116143750D01*
X106038553Y-116122309D01*
X106041703Y-116101074D01*
X106046919Y-116080250D01*
X106054151Y-116060038D01*
X106063330Y-116040632D01*
X106074366Y-116022219D01*
X106087154Y-116004976D01*
X106101570Y-115989070D01*
X106117476Y-115974654D01*
X106134719Y-115961866D01*
X106153132Y-115950830D01*
X106172538Y-115941651D01*
X106192750Y-115934419D01*
X106213574Y-115929203D01*
X106234809Y-115926053D01*
X106256250Y-115925000D01*
X106693750Y-115925000D01*
X106715191Y-115926053D01*
X106715191Y-115926053D01*
G37*
D13*
X106475000Y-116400000D03*
D15*
X55000000Y-120790000D03*
D16*
X55000000Y-118250000D03*
D17*
X65550000Y-124800000D03*
D18*
X68650000Y-123800000D03*
X70750000Y-123800000D03*
X62150000Y-123800000D03*
X71650000Y-116500000D03*
X61850000Y-116500000D03*
D19*
X113762340Y-118612340D03*
X109912340Y-118362340D03*
X120400000Y-118600000D03*
X79400000Y-121400000D03*
X28550000Y-123500000D03*
X74550000Y-120550000D03*
X35250000Y-123300000D03*
X244850000Y-121750000D03*
X74550000Y-123250000D03*
D20*
X113562340Y-118612340D02*
X113762340Y-118612340D01*
X112600000Y-119774680D02*
X113362341Y-119012339D01*
X113362341Y-119012339D02*
X113762340Y-118612340D01*
X112500000Y-117550000D02*
X113562340Y-118612340D01*
X112600000Y-121000000D02*
X112600000Y-119774680D01*
X111800000Y-115550000D02*
X112500000Y-116250000D01*
X109900000Y-115550000D02*
X111800000Y-115550000D01*
X112500000Y-116250000D02*
X112500000Y-117550000D01*
X109050000Y-116400000D02*
X109900000Y-115550000D01*
X106475000Y-116400000D02*
X109050000Y-116400000D01*
X106475000Y-115475000D02*
X106475000Y-116400000D01*
X105750000Y-114750000D02*
X106475000Y-115475000D01*
X97350000Y-116400000D02*
X99000000Y-114750000D01*
X97350000Y-117600000D02*
X97350000Y-116400000D01*
X93550000Y-120000000D02*
X94950000Y-120000000D01*
X60300000Y-119250000D02*
X72650000Y-119250000D01*
X84775000Y-120100000D02*
X87725000Y-117150000D01*
X94950000Y-120000000D02*
X97350000Y-117600000D01*
X16500000Y-117460000D02*
X18910000Y-115050000D01*
X82025000Y-120100000D02*
X84775000Y-120100000D01*
X72650000Y-119250000D02*
X75200000Y-116700000D01*
X56100000Y-115050000D02*
X60300000Y-119250000D01*
X99000000Y-114750000D02*
X105750000Y-114750000D01*
X78625000Y-116700000D02*
X82025000Y-120100000D01*
X75200000Y-116700000D02*
X78625000Y-116700000D01*
X18910000Y-115050000D02*
X56100000Y-115050000D01*
X90700000Y-117150000D02*
X93550000Y-120000000D01*
X87725000Y-117150000D02*
X90700000Y-117150000D01*
X61975060Y-123625060D02*
X61975060Y-123125060D01*
X62150000Y-123800000D02*
X61975060Y-123625060D01*
X111025000Y-121000000D02*
X111025000Y-119475000D01*
X111025000Y-119475000D02*
X110312339Y-118762339D01*
X110312339Y-118762339D02*
X109912340Y-118362340D01*
X110125732Y-118362340D02*
X109912340Y-118362340D01*
X110925000Y-117563072D02*
X110125732Y-118362340D01*
X110925000Y-117550000D02*
X110925000Y-117563072D01*
X16540000Y-122540000D02*
X16500000Y-122540000D01*
X19125060Y-125125060D02*
X16540000Y-122540000D01*
X62150000Y-124300120D02*
X61325060Y-125125060D01*
X61325060Y-125125060D02*
X19125060Y-125125060D01*
X62150000Y-123800000D02*
X62150000Y-124300120D01*
X99100000Y-123500000D02*
X94250000Y-123500000D01*
X103837661Y-118762339D02*
X99100000Y-123500000D01*
X109512341Y-118762339D02*
X103837661Y-118762339D01*
X109912340Y-118362340D02*
X109512341Y-118762339D01*
X265950000Y-124300000D02*
X265000000Y-125250000D01*
X224600000Y-125250000D02*
X220750000Y-121400000D01*
X265000000Y-125250000D02*
X224600000Y-125250000D01*
X265950000Y-119700000D02*
X265950000Y-124300000D01*
X267050000Y-118600000D02*
X265950000Y-119700000D01*
X268750000Y-118600000D02*
X267050000Y-118600000D01*
X281000000Y-121040000D02*
X278040000Y-124000000D01*
X271350000Y-124000000D02*
X268750000Y-121400000D01*
X278040000Y-124000000D02*
X271350000Y-124000000D01*
X220750000Y-118600000D02*
X213850000Y-118600000D01*
X211050000Y-121400000D02*
X172750000Y-121400000D01*
X213850000Y-118600000D02*
X211050000Y-121400000D01*
X127600000Y-123950000D02*
X125050000Y-121400000D01*
X125050000Y-121400000D02*
X124750000Y-121400000D01*
X151600000Y-123950000D02*
X127600000Y-123950000D01*
X156950000Y-118600000D02*
X151600000Y-123950000D01*
X172750000Y-118600000D02*
X156950000Y-118600000D01*
X124750000Y-118600000D02*
X123775000Y-118600000D01*
X123775000Y-118600000D02*
X120400000Y-118600000D01*
X79400000Y-121400000D02*
X76750000Y-121400000D01*
X76750000Y-118600000D02*
X76450000Y-118600000D01*
X28550000Y-121600000D02*
X28750000Y-121400000D01*
X28550000Y-123500000D02*
X28550000Y-121600000D01*
X76500000Y-118600000D02*
X76750000Y-118600000D01*
X74550000Y-120550000D02*
X76500000Y-118600000D01*
X246250000Y-120537500D02*
X253250000Y-120537500D01*
X253250000Y-120537500D02*
X260250000Y-120537500D01*
X28750000Y-118600000D02*
X30500000Y-118600000D01*
X35200000Y-123300000D02*
X35250000Y-123300000D01*
X30500000Y-118600000D02*
X35200000Y-123300000D01*
X246112500Y-120400000D02*
X246250000Y-120537500D01*
X246062500Y-120537500D02*
X244850000Y-121750000D01*
X246250000Y-120537500D02*
X246062500Y-120537500D01*
X68475060Y-123125060D02*
X68824940Y-123125060D01*
X68475060Y-123625060D02*
X68475060Y-123125060D01*
X68650000Y-123800000D02*
X68475060Y-123625060D01*
X88365356Y-119225060D02*
X88174940Y-119034644D01*
X89625060Y-119225060D02*
X88365356Y-119225060D01*
X88174940Y-119034644D02*
X88174940Y-118234644D01*
X90450000Y-120050000D02*
X89625060Y-119225060D01*
X80900000Y-123250000D02*
X74550000Y-123250000D01*
X82679852Y-121470148D02*
X80900000Y-123250000D01*
X85379852Y-121470148D02*
X82679852Y-121470148D01*
X86200000Y-120650000D02*
X85379852Y-121470148D01*
X89850000Y-120650000D02*
X86200000Y-120650000D01*
X90450000Y-120050000D02*
X89850000Y-120650000D01*
X55000000Y-120790000D02*
X55190000Y-120790000D01*
X100012500Y-116437500D02*
X100012500Y-116400000D01*
X92700000Y-121050000D02*
X95400000Y-121050000D01*
X95400000Y-121050000D02*
X100012500Y-116437500D01*
X91700000Y-120050000D02*
X92700000Y-121050000D01*
X90450000Y-120050000D02*
X91700000Y-120050000D01*
X55000000Y-120790000D02*
X64090000Y-120790000D01*
X64090000Y-120790000D02*
X65725000Y-122425000D01*
X65550000Y-122600000D02*
X65550000Y-124800000D01*
X65725000Y-122425000D02*
X65550000Y-122600000D01*
X67100000Y-123800000D02*
X68650000Y-123800000D01*
X65725000Y-122425000D02*
X67100000Y-123800000D01*
X86750000Y-122850000D02*
X86750000Y-123500000D01*
X85379852Y-121479852D02*
X86750000Y-122850000D01*
X85379852Y-121470148D02*
X85379852Y-121479852D01*
X260250000Y-118962500D02*
X253250000Y-118962500D01*
X253250000Y-118962500D02*
X246250000Y-118962500D01*
X277900000Y-115400000D02*
X281000000Y-118500000D01*
X277475000Y-114975000D02*
X277900000Y-115400000D01*
X264237500Y-114975000D02*
X277475000Y-114975000D01*
X260250000Y-118962500D02*
X264237500Y-114975000D01*
X84250000Y-123500000D02*
X84249880Y-123500000D01*
X70750000Y-123800000D02*
X70800000Y-123800000D01*
X71150000Y-123400000D02*
X70750000Y-123800000D01*
X58870872Y-119970872D02*
X69370872Y-119970872D01*
X57150000Y-118250000D02*
X58870872Y-119970872D01*
X55000000Y-118250000D02*
X57150000Y-118250000D01*
X70750000Y-121350000D02*
X70750000Y-123800000D01*
X69370872Y-119970872D02*
X70750000Y-121350000D01*
X72550000Y-123800000D02*
X73325060Y-124575060D01*
X70750000Y-123800000D02*
X72550000Y-123800000D01*
X73325060Y-124575060D02*
X81374940Y-124575060D01*
X82450000Y-123500000D02*
X84250000Y-123500000D01*
X81374940Y-124575060D02*
X82450000Y-123500000D01*
X101587500Y-116400000D02*
X104900000Y-116400000D01*
D21*
G36*
X264373000Y-115746373D02*
G01*
X260748411Y-119273000D01*
X245456515Y-119273000D01*
X242277000Y-115744514D01*
X242277000Y-114977000D01*
X264373000Y-114977000D01*
X264373000Y-115746373D01*
X264373000Y-115746373D01*
G37*
X264373000Y-115746373D02*
X260748411Y-119273000D01*
X245456515Y-119273000D01*
X242277000Y-115744514D01*
X242277000Y-114977000D01*
X264373000Y-114977000D01*
X264373000Y-115746373D01*
G36*
X264398595Y-123653627D02*
G01*
X264398595Y-124423000D01*
X242302595Y-124423000D01*
X242302595Y-123655486D01*
X245482110Y-120127000D01*
X260774006Y-120127000D01*
X264398595Y-123653627D01*
X264398595Y-123653627D01*
G37*
X264398595Y-123653627D02*
X264398595Y-124423000D01*
X242302595Y-124423000D01*
X242302595Y-123655486D01*
X245482110Y-120127000D01*
X260774006Y-120127000D01*
X264398595Y-123653627D01*
G36*
X284090001Y-125340000D02*
G01*
X265984801Y-125340000D01*
X266461003Y-124863799D01*
X266490001Y-124840001D01*
X266516332Y-124807917D01*
X266584974Y-124724277D01*
X266655546Y-124592247D01*
X266668361Y-124550000D01*
X266699003Y-124448986D01*
X266710000Y-124337333D01*
X266710000Y-124337323D01*
X266713676Y-124300000D01*
X266710000Y-124262677D01*
X266710000Y-120014801D01*
X267341250Y-119383552D01*
X267386595Y-119468386D01*
X267497038Y-119602962D01*
X267631614Y-119713405D01*
X267785150Y-119795472D01*
X267951746Y-119846008D01*
X268125000Y-119863072D01*
X269375000Y-119863072D01*
X269548254Y-119846008D01*
X269714850Y-119795472D01*
X269744035Y-119779872D01*
X273515000Y-119779872D01*
X273515000Y-120220128D01*
X273600890Y-120651925D01*
X273769369Y-121058669D01*
X274013962Y-121424729D01*
X274325271Y-121736038D01*
X274691331Y-121980631D01*
X275098075Y-122149110D01*
X275529872Y-122235000D01*
X275970128Y-122235000D01*
X276401925Y-122149110D01*
X276808669Y-121980631D01*
X277174729Y-121736038D01*
X277486038Y-121424729D01*
X277730631Y-121058669D01*
X277899110Y-120651925D01*
X277985000Y-120220128D01*
X277985000Y-119779872D01*
X277899110Y-119348075D01*
X277730631Y-118941331D01*
X277486038Y-118575271D01*
X277174729Y-118263962D01*
X276808669Y-118019369D01*
X276401925Y-117850890D01*
X275970128Y-117765000D01*
X275529872Y-117765000D01*
X275098075Y-117850890D01*
X274691331Y-118019369D01*
X274325271Y-118263962D01*
X274013962Y-118575271D01*
X273769369Y-118941331D01*
X273600890Y-119348075D01*
X273515000Y-119779872D01*
X269744035Y-119779872D01*
X269868386Y-119713405D01*
X270002962Y-119602962D01*
X270113405Y-119468386D01*
X270195472Y-119314850D01*
X270246008Y-119148254D01*
X270263072Y-118975000D01*
X270263072Y-118225000D01*
X270246008Y-118051746D01*
X270195472Y-117885150D01*
X270113405Y-117731614D01*
X270002962Y-117597038D01*
X269868386Y-117486595D01*
X269714850Y-117404528D01*
X269548254Y-117353992D01*
X269375000Y-117336928D01*
X268125000Y-117336928D01*
X267951746Y-117353992D01*
X267785150Y-117404528D01*
X267631614Y-117486595D01*
X267497038Y-117597038D01*
X267386595Y-117731614D01*
X267328661Y-117840000D01*
X267087323Y-117840000D01*
X267050000Y-117836324D01*
X267012677Y-117840000D01*
X267012667Y-117840000D01*
X266901014Y-117850997D01*
X266757753Y-117894454D01*
X266625723Y-117965026D01*
X266542083Y-118033668D01*
X266509999Y-118059999D01*
X266486201Y-118088997D01*
X265439002Y-119136196D01*
X265409999Y-119159999D01*
X265372620Y-119205546D01*
X265315026Y-119275724D01*
X265269979Y-119360000D01*
X265244454Y-119407754D01*
X265200997Y-119551015D01*
X265190000Y-119662668D01*
X265190000Y-119662678D01*
X265186324Y-119700000D01*
X265190000Y-119737323D01*
X265190001Y-123985197D01*
X265160595Y-124014603D01*
X265160595Y-123600000D01*
X265146638Y-123467599D01*
X265108875Y-123348983D01*
X265048696Y-123240014D01*
X264968415Y-123144879D01*
X261415047Y-119687548D01*
X264942820Y-116255121D01*
X265027983Y-116152787D01*
X265086664Y-116043004D01*
X265122799Y-115923882D01*
X265135000Y-115800000D01*
X265135000Y-115735000D01*
X277160199Y-115735000D01*
X277336201Y-115911002D01*
X279511928Y-118086730D01*
X279511928Y-119350000D01*
X279524188Y-119474482D01*
X279560498Y-119594180D01*
X279619463Y-119704494D01*
X279698815Y-119801185D01*
X279795506Y-119880537D01*
X279905820Y-119939502D01*
X280025518Y-119975812D01*
X280150000Y-119988072D01*
X281850000Y-119988072D01*
X281974482Y-119975812D01*
X282094180Y-119939502D01*
X282204494Y-119880537D01*
X282301185Y-119801185D01*
X282380537Y-119704494D01*
X282439502Y-119594180D01*
X282475812Y-119474482D01*
X282488072Y-119350000D01*
X282488072Y-117650000D01*
X282475812Y-117525518D01*
X282439502Y-117405820D01*
X282380537Y-117295506D01*
X282301185Y-117198815D01*
X282204494Y-117119463D01*
X282094180Y-117060498D01*
X281974482Y-117024188D01*
X281850000Y-117011928D01*
X280586730Y-117011928D01*
X278411002Y-114836201D01*
X278234801Y-114660000D01*
X284090000Y-114660000D01*
X284090001Y-125340000D01*
X284090001Y-125340000D01*
G37*
X284090001Y-125340000D02*
X265984801Y-125340000D01*
X266461003Y-124863799D01*
X266490001Y-124840001D01*
X266516332Y-124807917D01*
X266584974Y-124724277D01*
X266655546Y-124592247D01*
X266668361Y-124550000D01*
X266699003Y-124448986D01*
X266710000Y-124337333D01*
X266710000Y-124337323D01*
X266713676Y-124300000D01*
X266710000Y-124262677D01*
X266710000Y-120014801D01*
X267341250Y-119383552D01*
X267386595Y-119468386D01*
X267497038Y-119602962D01*
X267631614Y-119713405D01*
X267785150Y-119795472D01*
X267951746Y-119846008D01*
X268125000Y-119863072D01*
X269375000Y-119863072D01*
X269548254Y-119846008D01*
X269714850Y-119795472D01*
X269744035Y-119779872D01*
X273515000Y-119779872D01*
X273515000Y-120220128D01*
X273600890Y-120651925D01*
X273769369Y-121058669D01*
X274013962Y-121424729D01*
X274325271Y-121736038D01*
X274691331Y-121980631D01*
X275098075Y-122149110D01*
X275529872Y-122235000D01*
X275970128Y-122235000D01*
X276401925Y-122149110D01*
X276808669Y-121980631D01*
X277174729Y-121736038D01*
X277486038Y-121424729D01*
X277730631Y-121058669D01*
X277899110Y-120651925D01*
X277985000Y-120220128D01*
X277985000Y-119779872D01*
X277899110Y-119348075D01*
X277730631Y-118941331D01*
X277486038Y-118575271D01*
X277174729Y-118263962D01*
X276808669Y-118019369D01*
X276401925Y-117850890D01*
X275970128Y-117765000D01*
X275529872Y-117765000D01*
X275098075Y-117850890D01*
X274691331Y-118019369D01*
X274325271Y-118263962D01*
X274013962Y-118575271D01*
X273769369Y-118941331D01*
X273600890Y-119348075D01*
X273515000Y-119779872D01*
X269744035Y-119779872D01*
X269868386Y-119713405D01*
X270002962Y-119602962D01*
X270113405Y-119468386D01*
X270195472Y-119314850D01*
X270246008Y-119148254D01*
X270263072Y-118975000D01*
X270263072Y-118225000D01*
X270246008Y-118051746D01*
X270195472Y-117885150D01*
X270113405Y-117731614D01*
X270002962Y-117597038D01*
X269868386Y-117486595D01*
X269714850Y-117404528D01*
X269548254Y-117353992D01*
X269375000Y-117336928D01*
X268125000Y-117336928D01*
X267951746Y-117353992D01*
X267785150Y-117404528D01*
X267631614Y-117486595D01*
X267497038Y-117597038D01*
X267386595Y-117731614D01*
X267328661Y-117840000D01*
X267087323Y-117840000D01*
X267050000Y-117836324D01*
X267012677Y-117840000D01*
X267012667Y-117840000D01*
X266901014Y-117850997D01*
X266757753Y-117894454D01*
X266625723Y-117965026D01*
X266542083Y-118033668D01*
X266509999Y-118059999D01*
X266486201Y-118088997D01*
X265439002Y-119136196D01*
X265409999Y-119159999D01*
X265372620Y-119205546D01*
X265315026Y-119275724D01*
X265269979Y-119360000D01*
X265244454Y-119407754D01*
X265200997Y-119551015D01*
X265190000Y-119662668D01*
X265190000Y-119662678D01*
X265186324Y-119700000D01*
X265190000Y-119737323D01*
X265190001Y-123985197D01*
X265160595Y-124014603D01*
X265160595Y-123600000D01*
X265146638Y-123467599D01*
X265108875Y-123348983D01*
X265048696Y-123240014D01*
X264968415Y-123144879D01*
X261415047Y-119687548D01*
X264942820Y-116255121D01*
X265027983Y-116152787D01*
X265086664Y-116043004D01*
X265122799Y-115923882D01*
X265135000Y-115800000D01*
X265135000Y-115735000D01*
X277160199Y-115735000D01*
X277336201Y-115911002D01*
X279511928Y-118086730D01*
X279511928Y-119350000D01*
X279524188Y-119474482D01*
X279560498Y-119594180D01*
X279619463Y-119704494D01*
X279698815Y-119801185D01*
X279795506Y-119880537D01*
X279905820Y-119939502D01*
X280025518Y-119975812D01*
X280150000Y-119988072D01*
X281850000Y-119988072D01*
X281974482Y-119975812D01*
X282094180Y-119939502D01*
X282204494Y-119880537D01*
X282301185Y-119801185D01*
X282380537Y-119704494D01*
X282439502Y-119594180D01*
X282475812Y-119474482D01*
X282488072Y-119350000D01*
X282488072Y-117650000D01*
X282475812Y-117525518D01*
X282439502Y-117405820D01*
X282380537Y-117295506D01*
X282301185Y-117198815D01*
X282204494Y-117119463D01*
X282094180Y-117060498D01*
X281974482Y-117024188D01*
X281850000Y-117011928D01*
X280586730Y-117011928D01*
X278411002Y-114836201D01*
X278234801Y-114660000D01*
X284090000Y-114660000D01*
X284090001Y-125340000D01*
G36*
X69223000Y-122562900D02*
G01*
X69223000Y-124997394D01*
X68880394Y-125340000D01*
X64419606Y-125340000D01*
X64127000Y-125047394D01*
X64127000Y-122752606D01*
X65052606Y-121827000D01*
X68257132Y-121827000D01*
X69223000Y-122562900D01*
X69223000Y-122562900D01*
G37*
X69223000Y-122562900D02*
X69223000Y-124997394D01*
X68880394Y-125340000D01*
X64419606Y-125340000D01*
X64127000Y-125047394D01*
X64127000Y-122752606D01*
X65052606Y-121827000D01*
X68257132Y-121827000D01*
X69223000Y-122562900D01*
G36*
X16865996Y-116019203D02*
G01*
X16791111Y-115996487D01*
X16572950Y-115975000D01*
X16427050Y-115975000D01*
X16208889Y-115996487D01*
X15928966Y-116081401D01*
X15670986Y-116219294D01*
X15444866Y-116404866D01*
X15259294Y-116630986D01*
X15121401Y-116888966D01*
X15036487Y-117168889D01*
X15007815Y-117460000D01*
X15036487Y-117751111D01*
X15121401Y-118031034D01*
X15259294Y-118289014D01*
X15444866Y-118515134D01*
X15670986Y-118700706D01*
X15725791Y-118730000D01*
X15670986Y-118759294D01*
X15444866Y-118944866D01*
X15259294Y-119170986D01*
X15121401Y-119428966D01*
X15036487Y-119708889D01*
X15007815Y-120000000D01*
X15036487Y-120291111D01*
X15121401Y-120571034D01*
X15259294Y-120829014D01*
X15444866Y-121055134D01*
X15670986Y-121240706D01*
X15928966Y-121378599D01*
X16208889Y-121463513D01*
X16427050Y-121485000D01*
X16572950Y-121485000D01*
X16791111Y-121463513D01*
X17071034Y-121378599D01*
X17329014Y-121240706D01*
X17555134Y-121055134D01*
X17740706Y-120829014D01*
X17878599Y-120571034D01*
X17963513Y-120291111D01*
X17992185Y-120000000D01*
X17970505Y-119779872D01*
X19515000Y-119779872D01*
X19515000Y-120220128D01*
X19600890Y-120651925D01*
X19769369Y-121058669D01*
X20013962Y-121424729D01*
X20325271Y-121736038D01*
X20691331Y-121980631D01*
X21098075Y-122149110D01*
X21529872Y-122235000D01*
X21970128Y-122235000D01*
X22401925Y-122149110D01*
X22808669Y-121980631D01*
X23174729Y-121736038D01*
X23486038Y-121424729D01*
X23730631Y-121058669D01*
X23744577Y-121025000D01*
X27236928Y-121025000D01*
X27236928Y-121775000D01*
X27253992Y-121948254D01*
X27304528Y-122114850D01*
X27386595Y-122268386D01*
X27497038Y-122402962D01*
X27631614Y-122513405D01*
X27785150Y-122595472D01*
X27790000Y-122596943D01*
X27790000Y-122796289D01*
X27746063Y-122840226D01*
X27632795Y-123009744D01*
X27554774Y-123198102D01*
X27515000Y-123398061D01*
X27515000Y-123601939D01*
X27554774Y-123801898D01*
X27632795Y-123990256D01*
X27746063Y-124159774D01*
X27890226Y-124303937D01*
X28059744Y-124417205D01*
X28248102Y-124495226D01*
X28448061Y-124535000D01*
X28651939Y-124535000D01*
X28851898Y-124495226D01*
X29040256Y-124417205D01*
X29209774Y-124303937D01*
X29353937Y-124159774D01*
X29467205Y-123990256D01*
X29545226Y-123801898D01*
X29585000Y-123601939D01*
X29585000Y-123398061D01*
X29545226Y-123198102D01*
X29467205Y-123009744D01*
X29353937Y-122840226D01*
X29310000Y-122796289D01*
X29310000Y-122663072D01*
X29375000Y-122663072D01*
X29548254Y-122646008D01*
X29714850Y-122595472D01*
X29868386Y-122513405D01*
X30002962Y-122402962D01*
X30113405Y-122268386D01*
X30195472Y-122114850D01*
X30246008Y-121948254D01*
X30263072Y-121775000D01*
X30263072Y-121025000D01*
X30246008Y-120851746D01*
X30195472Y-120685150D01*
X30113405Y-120531614D01*
X30002962Y-120397038D01*
X29868386Y-120286595D01*
X29714850Y-120204528D01*
X29548254Y-120153992D01*
X29375000Y-120136928D01*
X28125000Y-120136928D01*
X27951746Y-120153992D01*
X27785150Y-120204528D01*
X27631614Y-120286595D01*
X27497038Y-120397038D01*
X27386595Y-120531614D01*
X27304528Y-120685150D01*
X27253992Y-120851746D01*
X27236928Y-121025000D01*
X23744577Y-121025000D01*
X23899110Y-120651925D01*
X23985000Y-120220128D01*
X23985000Y-119779872D01*
X23899110Y-119348075D01*
X23730631Y-118941331D01*
X23486038Y-118575271D01*
X23174729Y-118263962D01*
X23116419Y-118225000D01*
X27236928Y-118225000D01*
X27236928Y-118975000D01*
X27253992Y-119148254D01*
X27304528Y-119314850D01*
X27386595Y-119468386D01*
X27497038Y-119602962D01*
X27631614Y-119713405D01*
X27785150Y-119795472D01*
X27951746Y-119846008D01*
X28125000Y-119863072D01*
X29375000Y-119863072D01*
X29548254Y-119846008D01*
X29714850Y-119795472D01*
X29868386Y-119713405D01*
X30002962Y-119602962D01*
X30113405Y-119468386D01*
X30171339Y-119360000D01*
X30185199Y-119360000D01*
X34215000Y-123389802D01*
X34215000Y-123401939D01*
X34254774Y-123601898D01*
X34332795Y-123790256D01*
X34446063Y-123959774D01*
X34590226Y-124103937D01*
X34759744Y-124217205D01*
X34948102Y-124295226D01*
X35148061Y-124335000D01*
X35351939Y-124335000D01*
X35551898Y-124295226D01*
X35740256Y-124217205D01*
X35909774Y-124103937D01*
X36053937Y-123959774D01*
X36167205Y-123790256D01*
X36245226Y-123601898D01*
X36285000Y-123401939D01*
X36285000Y-123198061D01*
X36245226Y-122998102D01*
X36167205Y-122809744D01*
X36053937Y-122640226D01*
X35909774Y-122496063D01*
X35740256Y-122382795D01*
X35551898Y-122304774D01*
X35351939Y-122265000D01*
X35239802Y-122265000D01*
X31063804Y-118089003D01*
X31040001Y-118059999D01*
X30924276Y-117965026D01*
X30792247Y-117894454D01*
X30648986Y-117850997D01*
X30537333Y-117840000D01*
X30537322Y-117840000D01*
X30500000Y-117836324D01*
X30462678Y-117840000D01*
X30171339Y-117840000D01*
X30113405Y-117731614D01*
X30002962Y-117597038D01*
X29868386Y-117486595D01*
X29714850Y-117404528D01*
X29548254Y-117353992D01*
X29375000Y-117336928D01*
X28125000Y-117336928D01*
X27951746Y-117353992D01*
X27785150Y-117404528D01*
X27631614Y-117486595D01*
X27497038Y-117597038D01*
X27386595Y-117731614D01*
X27304528Y-117885150D01*
X27253992Y-118051746D01*
X27236928Y-118225000D01*
X23116419Y-118225000D01*
X22808669Y-118019369D01*
X22401925Y-117850890D01*
X21970128Y-117765000D01*
X21529872Y-117765000D01*
X21098075Y-117850890D01*
X20691331Y-118019369D01*
X20325271Y-118263962D01*
X20013962Y-118575271D01*
X19769369Y-118941331D01*
X19600890Y-119348075D01*
X19515000Y-119779872D01*
X17970505Y-119779872D01*
X17963513Y-119708889D01*
X17878599Y-119428966D01*
X17740706Y-119170986D01*
X17555134Y-118944866D01*
X17329014Y-118759294D01*
X17274209Y-118730000D01*
X17329014Y-118700706D01*
X17555134Y-118515134D01*
X17740706Y-118289014D01*
X17878599Y-118031034D01*
X17963513Y-117751111D01*
X17992185Y-117460000D01*
X17963513Y-117168889D01*
X17940797Y-117094004D01*
X19224802Y-115810000D01*
X55785199Y-115810000D01*
X57663214Y-117688015D01*
X57574276Y-117615026D01*
X57442247Y-117544454D01*
X57298986Y-117500997D01*
X57187333Y-117490000D01*
X57187322Y-117490000D01*
X57150000Y-117486324D01*
X57112678Y-117490000D01*
X56488072Y-117490000D01*
X56488072Y-117400000D01*
X56475812Y-117275518D01*
X56439502Y-117155820D01*
X56380537Y-117045506D01*
X56301185Y-116948815D01*
X56204494Y-116869463D01*
X56094180Y-116810498D01*
X55974482Y-116774188D01*
X55850000Y-116761928D01*
X54150000Y-116761928D01*
X54025518Y-116774188D01*
X53905820Y-116810498D01*
X53795506Y-116869463D01*
X53698815Y-116948815D01*
X53619463Y-117045506D01*
X53560498Y-117155820D01*
X53524188Y-117275518D01*
X53511928Y-117400000D01*
X53511928Y-119100000D01*
X53524188Y-119224482D01*
X53560498Y-119344180D01*
X53619463Y-119454494D01*
X53698815Y-119551185D01*
X53795506Y-119630537D01*
X53905820Y-119689502D01*
X53974687Y-119710393D01*
X53944866Y-119734866D01*
X53759294Y-119960986D01*
X53621401Y-120218966D01*
X53536487Y-120498889D01*
X53507815Y-120790000D01*
X53536487Y-121081111D01*
X53621401Y-121361034D01*
X53759294Y-121619014D01*
X53944866Y-121845134D01*
X54170986Y-122030706D01*
X54428966Y-122168599D01*
X54708889Y-122253513D01*
X54927050Y-122275000D01*
X55072950Y-122275000D01*
X55291111Y-122253513D01*
X55571034Y-122168599D01*
X55829014Y-122030706D01*
X56055134Y-121845134D01*
X56240706Y-121619014D01*
X56277595Y-121550000D01*
X63775199Y-121550000D01*
X64013586Y-121788388D01*
X63550987Y-122250987D01*
X63472017Y-122347213D01*
X63413336Y-122456996D01*
X63377201Y-122576118D01*
X63365000Y-122700000D01*
X63365000Y-125100000D01*
X63377201Y-125223882D01*
X63412425Y-125340000D01*
X12910000Y-125340000D01*
X12910000Y-114660000D01*
X18225198Y-114660000D01*
X16865996Y-116019203D01*
X16865996Y-116019203D01*
G37*
X16865996Y-116019203D02*
X16791111Y-115996487D01*
X16572950Y-115975000D01*
X16427050Y-115975000D01*
X16208889Y-115996487D01*
X15928966Y-116081401D01*
X15670986Y-116219294D01*
X15444866Y-116404866D01*
X15259294Y-116630986D01*
X15121401Y-116888966D01*
X15036487Y-117168889D01*
X15007815Y-117460000D01*
X15036487Y-117751111D01*
X15121401Y-118031034D01*
X15259294Y-118289014D01*
X15444866Y-118515134D01*
X15670986Y-118700706D01*
X15725791Y-118730000D01*
X15670986Y-118759294D01*
X15444866Y-118944866D01*
X15259294Y-119170986D01*
X15121401Y-119428966D01*
X15036487Y-119708889D01*
X15007815Y-120000000D01*
X15036487Y-120291111D01*
X15121401Y-120571034D01*
X15259294Y-120829014D01*
X15444866Y-121055134D01*
X15670986Y-121240706D01*
X15928966Y-121378599D01*
X16208889Y-121463513D01*
X16427050Y-121485000D01*
X16572950Y-121485000D01*
X16791111Y-121463513D01*
X17071034Y-121378599D01*
X17329014Y-121240706D01*
X17555134Y-121055134D01*
X17740706Y-120829014D01*
X17878599Y-120571034D01*
X17963513Y-120291111D01*
X17992185Y-120000000D01*
X17970505Y-119779872D01*
X19515000Y-119779872D01*
X19515000Y-120220128D01*
X19600890Y-120651925D01*
X19769369Y-121058669D01*
X20013962Y-121424729D01*
X20325271Y-121736038D01*
X20691331Y-121980631D01*
X21098075Y-122149110D01*
X21529872Y-122235000D01*
X21970128Y-122235000D01*
X22401925Y-122149110D01*
X22808669Y-121980631D01*
X23174729Y-121736038D01*
X23486038Y-121424729D01*
X23730631Y-121058669D01*
X23744577Y-121025000D01*
X27236928Y-121025000D01*
X27236928Y-121775000D01*
X27253992Y-121948254D01*
X27304528Y-122114850D01*
X27386595Y-122268386D01*
X27497038Y-122402962D01*
X27631614Y-122513405D01*
X27785150Y-122595472D01*
X27790000Y-122596943D01*
X27790000Y-122796289D01*
X27746063Y-122840226D01*
X27632795Y-123009744D01*
X27554774Y-123198102D01*
X27515000Y-123398061D01*
X27515000Y-123601939D01*
X27554774Y-123801898D01*
X27632795Y-123990256D01*
X27746063Y-124159774D01*
X27890226Y-124303937D01*
X28059744Y-124417205D01*
X28248102Y-124495226D01*
X28448061Y-124535000D01*
X28651939Y-124535000D01*
X28851898Y-124495226D01*
X29040256Y-124417205D01*
X29209774Y-124303937D01*
X29353937Y-124159774D01*
X29467205Y-123990256D01*
X29545226Y-123801898D01*
X29585000Y-123601939D01*
X29585000Y-123398061D01*
X29545226Y-123198102D01*
X29467205Y-123009744D01*
X29353937Y-122840226D01*
X29310000Y-122796289D01*
X29310000Y-122663072D01*
X29375000Y-122663072D01*
X29548254Y-122646008D01*
X29714850Y-122595472D01*
X29868386Y-122513405D01*
X30002962Y-122402962D01*
X30113405Y-122268386D01*
X30195472Y-122114850D01*
X30246008Y-121948254D01*
X30263072Y-121775000D01*
X30263072Y-121025000D01*
X30246008Y-120851746D01*
X30195472Y-120685150D01*
X30113405Y-120531614D01*
X30002962Y-120397038D01*
X29868386Y-120286595D01*
X29714850Y-120204528D01*
X29548254Y-120153992D01*
X29375000Y-120136928D01*
X28125000Y-120136928D01*
X27951746Y-120153992D01*
X27785150Y-120204528D01*
X27631614Y-120286595D01*
X27497038Y-120397038D01*
X27386595Y-120531614D01*
X27304528Y-120685150D01*
X27253992Y-120851746D01*
X27236928Y-121025000D01*
X23744577Y-121025000D01*
X23899110Y-120651925D01*
X23985000Y-120220128D01*
X23985000Y-119779872D01*
X23899110Y-119348075D01*
X23730631Y-118941331D01*
X23486038Y-118575271D01*
X23174729Y-118263962D01*
X23116419Y-118225000D01*
X27236928Y-118225000D01*
X27236928Y-118975000D01*
X27253992Y-119148254D01*
X27304528Y-119314850D01*
X27386595Y-119468386D01*
X27497038Y-119602962D01*
X27631614Y-119713405D01*
X27785150Y-119795472D01*
X27951746Y-119846008D01*
X28125000Y-119863072D01*
X29375000Y-119863072D01*
X29548254Y-119846008D01*
X29714850Y-119795472D01*
X29868386Y-119713405D01*
X30002962Y-119602962D01*
X30113405Y-119468386D01*
X30171339Y-119360000D01*
X30185199Y-119360000D01*
X34215000Y-123389802D01*
X34215000Y-123401939D01*
X34254774Y-123601898D01*
X34332795Y-123790256D01*
X34446063Y-123959774D01*
X34590226Y-124103937D01*
X34759744Y-124217205D01*
X34948102Y-124295226D01*
X35148061Y-124335000D01*
X35351939Y-124335000D01*
X35551898Y-124295226D01*
X35740256Y-124217205D01*
X35909774Y-124103937D01*
X36053937Y-123959774D01*
X36167205Y-123790256D01*
X36245226Y-123601898D01*
X36285000Y-123401939D01*
X36285000Y-123198061D01*
X36245226Y-122998102D01*
X36167205Y-122809744D01*
X36053937Y-122640226D01*
X35909774Y-122496063D01*
X35740256Y-122382795D01*
X35551898Y-122304774D01*
X35351939Y-122265000D01*
X35239802Y-122265000D01*
X31063804Y-118089003D01*
X31040001Y-118059999D01*
X30924276Y-117965026D01*
X30792247Y-117894454D01*
X30648986Y-117850997D01*
X30537333Y-117840000D01*
X30537322Y-117840000D01*
X30500000Y-117836324D01*
X30462678Y-117840000D01*
X30171339Y-117840000D01*
X30113405Y-117731614D01*
X30002962Y-117597038D01*
X29868386Y-117486595D01*
X29714850Y-117404528D01*
X29548254Y-117353992D01*
X29375000Y-117336928D01*
X28125000Y-117336928D01*
X27951746Y-117353992D01*
X27785150Y-117404528D01*
X27631614Y-117486595D01*
X27497038Y-117597038D01*
X27386595Y-117731614D01*
X27304528Y-117885150D01*
X27253992Y-118051746D01*
X27236928Y-118225000D01*
X23116419Y-118225000D01*
X22808669Y-118019369D01*
X22401925Y-117850890D01*
X21970128Y-117765000D01*
X21529872Y-117765000D01*
X21098075Y-117850890D01*
X20691331Y-118019369D01*
X20325271Y-118263962D01*
X20013962Y-118575271D01*
X19769369Y-118941331D01*
X19600890Y-119348075D01*
X19515000Y-119779872D01*
X17970505Y-119779872D01*
X17963513Y-119708889D01*
X17878599Y-119428966D01*
X17740706Y-119170986D01*
X17555134Y-118944866D01*
X17329014Y-118759294D01*
X17274209Y-118730000D01*
X17329014Y-118700706D01*
X17555134Y-118515134D01*
X17740706Y-118289014D01*
X17878599Y-118031034D01*
X17963513Y-117751111D01*
X17992185Y-117460000D01*
X17963513Y-117168889D01*
X17940797Y-117094004D01*
X19224802Y-115810000D01*
X55785199Y-115810000D01*
X57663214Y-117688015D01*
X57574276Y-117615026D01*
X57442247Y-117544454D01*
X57298986Y-117500997D01*
X57187333Y-117490000D01*
X57187322Y-117490000D01*
X57150000Y-117486324D01*
X57112678Y-117490000D01*
X56488072Y-117490000D01*
X56488072Y-117400000D01*
X56475812Y-117275518D01*
X56439502Y-117155820D01*
X56380537Y-117045506D01*
X56301185Y-116948815D01*
X56204494Y-116869463D01*
X56094180Y-116810498D01*
X55974482Y-116774188D01*
X55850000Y-116761928D01*
X54150000Y-116761928D01*
X54025518Y-116774188D01*
X53905820Y-116810498D01*
X53795506Y-116869463D01*
X53698815Y-116948815D01*
X53619463Y-117045506D01*
X53560498Y-117155820D01*
X53524188Y-117275518D01*
X53511928Y-117400000D01*
X53511928Y-119100000D01*
X53524188Y-119224482D01*
X53560498Y-119344180D01*
X53619463Y-119454494D01*
X53698815Y-119551185D01*
X53795506Y-119630537D01*
X53905820Y-119689502D01*
X53974687Y-119710393D01*
X53944866Y-119734866D01*
X53759294Y-119960986D01*
X53621401Y-120218966D01*
X53536487Y-120498889D01*
X53507815Y-120790000D01*
X53536487Y-121081111D01*
X53621401Y-121361034D01*
X53759294Y-121619014D01*
X53944866Y-121845134D01*
X54170986Y-122030706D01*
X54428966Y-122168599D01*
X54708889Y-122253513D01*
X54927050Y-122275000D01*
X55072950Y-122275000D01*
X55291111Y-122253513D01*
X55571034Y-122168599D01*
X55829014Y-122030706D01*
X56055134Y-121845134D01*
X56240706Y-121619014D01*
X56277595Y-121550000D01*
X63775199Y-121550000D01*
X64013586Y-121788388D01*
X63550987Y-122250987D01*
X63472017Y-122347213D01*
X63413336Y-122456996D01*
X63377201Y-122576118D01*
X63365000Y-122700000D01*
X63365000Y-125100000D01*
X63377201Y-125223882D01*
X63412425Y-125340000D01*
X12910000Y-125340000D01*
X12910000Y-114660000D01*
X18225198Y-114660000D01*
X16865996Y-116019203D01*
G36*
X241527201Y-114726118D02*
G01*
X241515000Y-114850000D01*
X241515000Y-115793293D01*
X241521606Y-115884652D01*
X241551504Y-116005490D01*
X241604402Y-116118173D01*
X241678266Y-116218372D01*
X244828355Y-119714202D01*
X241703861Y-123181628D01*
X241647612Y-123253920D01*
X241588931Y-123363703D01*
X241552796Y-123482825D01*
X241540595Y-123606707D01*
X241540595Y-124490000D01*
X224914802Y-124490000D01*
X222257399Y-121832598D01*
X222263072Y-121775000D01*
X222263072Y-121025000D01*
X222246008Y-120851746D01*
X222195472Y-120685150D01*
X222113405Y-120531614D01*
X222002962Y-120397038D01*
X221868386Y-120286595D01*
X221714850Y-120204528D01*
X221548254Y-120153992D01*
X221375000Y-120136928D01*
X220125000Y-120136928D01*
X219951746Y-120153992D01*
X219785150Y-120204528D01*
X219631614Y-120286595D01*
X219497038Y-120397038D01*
X219386595Y-120531614D01*
X219304528Y-120685150D01*
X219253992Y-120851746D01*
X219236928Y-121025000D01*
X219236928Y-121775000D01*
X219253992Y-121948254D01*
X219304528Y-122114850D01*
X219386595Y-122268386D01*
X219497038Y-122402962D01*
X219631614Y-122513405D01*
X219785150Y-122595472D01*
X219951746Y-122646008D01*
X220125000Y-122663072D01*
X220938271Y-122663072D01*
X223615198Y-125340000D01*
X87265575Y-125340000D01*
X87469595Y-125230949D01*
X87665870Y-125069870D01*
X87826949Y-124873595D01*
X87946642Y-124649665D01*
X88020348Y-124406688D01*
X88039000Y-124217314D01*
X88039000Y-123742294D01*
X88062460Y-123860236D01*
X88155557Y-124084992D01*
X88290713Y-124287267D01*
X88462733Y-124459287D01*
X88665008Y-124594443D01*
X88889764Y-124687540D01*
X89128363Y-124735000D01*
X89371637Y-124735000D01*
X89610236Y-124687540D01*
X89834992Y-124594443D01*
X90037267Y-124459287D01*
X90209287Y-124287267D01*
X90344443Y-124084992D01*
X90437540Y-123860236D01*
X90485000Y-123621637D01*
X90485000Y-123378363D01*
X90437540Y-123139764D01*
X90344443Y-122915008D01*
X90209287Y-122712733D01*
X90037267Y-122540713D01*
X89834992Y-122405557D01*
X89610236Y-122312460D01*
X89371637Y-122265000D01*
X89128363Y-122265000D01*
X88889764Y-122312460D01*
X88665008Y-122405557D01*
X88462733Y-122540713D01*
X88290713Y-122712733D01*
X88155557Y-122915008D01*
X88062460Y-123139764D01*
X88039000Y-123257706D01*
X88039000Y-122782686D01*
X88020348Y-122593312D01*
X87946642Y-122350335D01*
X87826949Y-122126405D01*
X87665870Y-121930130D01*
X87469594Y-121769051D01*
X87245664Y-121649358D01*
X87002687Y-121575652D01*
X86750000Y-121550764D01*
X86545689Y-121570887D01*
X86449802Y-121475000D01*
X86514802Y-121410000D01*
X89812678Y-121410000D01*
X89850000Y-121413676D01*
X89887322Y-121410000D01*
X89887333Y-121410000D01*
X89998986Y-121399003D01*
X90142247Y-121355546D01*
X90274276Y-121284974D01*
X90390001Y-121190001D01*
X90413803Y-121160998D01*
X90764802Y-120810000D01*
X91385199Y-120810000D01*
X92136201Y-121561003D01*
X92159999Y-121590001D01*
X92188997Y-121613799D01*
X92275724Y-121684974D01*
X92407753Y-121755546D01*
X92551014Y-121799003D01*
X92700000Y-121813677D01*
X92737333Y-121810000D01*
X95362678Y-121810000D01*
X95400000Y-121813676D01*
X95437322Y-121810000D01*
X95437333Y-121810000D01*
X95548986Y-121799003D01*
X95692247Y-121755546D01*
X95824276Y-121684974D01*
X95940001Y-121590001D01*
X95963804Y-121560997D01*
X100011730Y-117513072D01*
X100231250Y-117513072D01*
X100398408Y-117496608D01*
X100559142Y-117447850D01*
X100707275Y-117368671D01*
X100800000Y-117292574D01*
X100892725Y-117368671D01*
X101040858Y-117447850D01*
X101201592Y-117496608D01*
X101368750Y-117513072D01*
X101806250Y-117513072D01*
X101973408Y-117496608D01*
X102134142Y-117447850D01*
X102282275Y-117368671D01*
X102412115Y-117262115D01*
X102495918Y-117160000D01*
X103991582Y-117160000D01*
X104075385Y-117262115D01*
X104205225Y-117368671D01*
X104353358Y-117447850D01*
X104514092Y-117496608D01*
X104681250Y-117513072D01*
X105118750Y-117513072D01*
X105285908Y-117496608D01*
X105446642Y-117447850D01*
X105594775Y-117368671D01*
X105687500Y-117292574D01*
X105780225Y-117368671D01*
X105928358Y-117447850D01*
X106089092Y-117496608D01*
X106256250Y-117513072D01*
X106693750Y-117513072D01*
X106860908Y-117496608D01*
X107021642Y-117447850D01*
X107169775Y-117368671D01*
X107299615Y-117262115D01*
X107383418Y-117160000D01*
X109012678Y-117160000D01*
X109050000Y-117163676D01*
X109087322Y-117160000D01*
X109087333Y-117160000D01*
X109198986Y-117149003D01*
X109342247Y-117105546D01*
X109474276Y-117034974D01*
X109590001Y-116940001D01*
X109613803Y-116910998D01*
X110214802Y-116310000D01*
X111485198Y-116310000D01*
X111740000Y-116564803D01*
X111740000Y-116634857D01*
X111675385Y-116687885D01*
X111568829Y-116817725D01*
X111489650Y-116965858D01*
X111440892Y-117126592D01*
X111424428Y-117293750D01*
X111424428Y-117806250D01*
X111440892Y-117973408D01*
X111489650Y-118134142D01*
X111568829Y-118282275D01*
X111675385Y-118412115D01*
X111805225Y-118518671D01*
X111953358Y-118597850D01*
X112114092Y-118646608D01*
X112281250Y-118663072D01*
X112538270Y-118663072D01*
X112587538Y-118712340D01*
X112088998Y-119210881D01*
X112060000Y-119234679D01*
X112036202Y-119263677D01*
X112036201Y-119263678D01*
X111965026Y-119350404D01*
X111894454Y-119482434D01*
X111873249Y-119552340D01*
X111850998Y-119625694D01*
X111847888Y-119657275D01*
X111836324Y-119774680D01*
X111840001Y-119812012D01*
X111840001Y-120084857D01*
X111775385Y-120137885D01*
X111668829Y-120267725D01*
X111589650Y-120415858D01*
X111540892Y-120576592D01*
X111524428Y-120743750D01*
X111524428Y-121256250D01*
X111540892Y-121423408D01*
X111589650Y-121584142D01*
X111668829Y-121732275D01*
X111775385Y-121862115D01*
X111905225Y-121968671D01*
X112053358Y-122047850D01*
X112214092Y-122096608D01*
X112381250Y-122113072D01*
X112818750Y-122113072D01*
X112985908Y-122096608D01*
X113146642Y-122047850D01*
X113294775Y-121968671D01*
X113424615Y-121862115D01*
X113531171Y-121732275D01*
X113610350Y-121584142D01*
X113659108Y-121423408D01*
X113675572Y-121256250D01*
X113675572Y-121025000D01*
X123236928Y-121025000D01*
X123236928Y-121775000D01*
X123253992Y-121948254D01*
X123304528Y-122114850D01*
X123386595Y-122268386D01*
X123497038Y-122402962D01*
X123631614Y-122513405D01*
X123785150Y-122595472D01*
X123951746Y-122646008D01*
X124125000Y-122663072D01*
X125238271Y-122663072D01*
X127036201Y-124461003D01*
X127059999Y-124490001D01*
X127088997Y-124513799D01*
X127175724Y-124584974D01*
X127307753Y-124655546D01*
X127451014Y-124699003D01*
X127600000Y-124713677D01*
X127637333Y-124710000D01*
X151562678Y-124710000D01*
X151600000Y-124713676D01*
X151637322Y-124710000D01*
X151637333Y-124710000D01*
X151748986Y-124699003D01*
X151892247Y-124655546D01*
X152024276Y-124584974D01*
X152140001Y-124490001D01*
X152163804Y-124460997D01*
X155599801Y-121025000D01*
X171236928Y-121025000D01*
X171236928Y-121775000D01*
X171253992Y-121948254D01*
X171304528Y-122114850D01*
X171386595Y-122268386D01*
X171497038Y-122402962D01*
X171631614Y-122513405D01*
X171785150Y-122595472D01*
X171951746Y-122646008D01*
X172125000Y-122663072D01*
X173375000Y-122663072D01*
X173548254Y-122646008D01*
X173714850Y-122595472D01*
X173868386Y-122513405D01*
X174002962Y-122402962D01*
X174113405Y-122268386D01*
X174171339Y-122160000D01*
X211012678Y-122160000D01*
X211050000Y-122163676D01*
X211087322Y-122160000D01*
X211087333Y-122160000D01*
X211198986Y-122149003D01*
X211342247Y-122105546D01*
X211474276Y-122034974D01*
X211590001Y-121940001D01*
X211613804Y-121910997D01*
X214164802Y-119360000D01*
X219328661Y-119360000D01*
X219386595Y-119468386D01*
X219497038Y-119602962D01*
X219631614Y-119713405D01*
X219785150Y-119795472D01*
X219951746Y-119846008D01*
X220125000Y-119863072D01*
X221375000Y-119863072D01*
X221548254Y-119846008D01*
X221714850Y-119795472D01*
X221868386Y-119713405D01*
X222002962Y-119602962D01*
X222113405Y-119468386D01*
X222195472Y-119314850D01*
X222246008Y-119148254D01*
X222263072Y-118975000D01*
X222263072Y-118225000D01*
X222246008Y-118051746D01*
X222195472Y-117885150D01*
X222113405Y-117731614D01*
X222002962Y-117597038D01*
X221868386Y-117486595D01*
X221714850Y-117404528D01*
X221548254Y-117353992D01*
X221375000Y-117336928D01*
X220125000Y-117336928D01*
X219951746Y-117353992D01*
X219785150Y-117404528D01*
X219631614Y-117486595D01*
X219497038Y-117597038D01*
X219386595Y-117731614D01*
X219328661Y-117840000D01*
X213887323Y-117840000D01*
X213850000Y-117836324D01*
X213812677Y-117840000D01*
X213812667Y-117840000D01*
X213701014Y-117850997D01*
X213565032Y-117892246D01*
X213557753Y-117894454D01*
X213425723Y-117965026D01*
X213342083Y-118033668D01*
X213309999Y-118059999D01*
X213286201Y-118088997D01*
X210735199Y-120640000D01*
X174171339Y-120640000D01*
X174113405Y-120531614D01*
X174002962Y-120397038D01*
X173868386Y-120286595D01*
X173714850Y-120204528D01*
X173548254Y-120153992D01*
X173375000Y-120136928D01*
X172125000Y-120136928D01*
X171951746Y-120153992D01*
X171785150Y-120204528D01*
X171631614Y-120286595D01*
X171497038Y-120397038D01*
X171386595Y-120531614D01*
X171304528Y-120685150D01*
X171253992Y-120851746D01*
X171236928Y-121025000D01*
X155599801Y-121025000D01*
X157264802Y-119360000D01*
X171328661Y-119360000D01*
X171386595Y-119468386D01*
X171497038Y-119602962D01*
X171631614Y-119713405D01*
X171785150Y-119795472D01*
X171951746Y-119846008D01*
X172125000Y-119863072D01*
X173375000Y-119863072D01*
X173548254Y-119846008D01*
X173714850Y-119795472D01*
X173868386Y-119713405D01*
X174002962Y-119602962D01*
X174113405Y-119468386D01*
X174195472Y-119314850D01*
X174246008Y-119148254D01*
X174263072Y-118975000D01*
X174263072Y-118225000D01*
X174246008Y-118051746D01*
X174195472Y-117885150D01*
X174113405Y-117731614D01*
X174002962Y-117597038D01*
X173868386Y-117486595D01*
X173714850Y-117404528D01*
X173548254Y-117353992D01*
X173375000Y-117336928D01*
X172125000Y-117336928D01*
X171951746Y-117353992D01*
X171785150Y-117404528D01*
X171631614Y-117486595D01*
X171497038Y-117597038D01*
X171386595Y-117731614D01*
X171328661Y-117840000D01*
X156987333Y-117840000D01*
X156950000Y-117836323D01*
X156912667Y-117840000D01*
X156801014Y-117850997D01*
X156657753Y-117894454D01*
X156525724Y-117965026D01*
X156409999Y-118059999D01*
X156386201Y-118088997D01*
X151285199Y-123190000D01*
X127914802Y-123190000D01*
X126263072Y-121538271D01*
X126263072Y-121025000D01*
X126246008Y-120851746D01*
X126195472Y-120685150D01*
X126113405Y-120531614D01*
X126002962Y-120397038D01*
X125868386Y-120286595D01*
X125714850Y-120204528D01*
X125548254Y-120153992D01*
X125375000Y-120136928D01*
X124125000Y-120136928D01*
X123951746Y-120153992D01*
X123785150Y-120204528D01*
X123631614Y-120286595D01*
X123497038Y-120397038D01*
X123386595Y-120531614D01*
X123304528Y-120685150D01*
X123253992Y-120851746D01*
X123236928Y-121025000D01*
X113675572Y-121025000D01*
X113675572Y-120743750D01*
X113659108Y-120576592D01*
X113610350Y-120415858D01*
X113531171Y-120267725D01*
X113424615Y-120137885D01*
X113362540Y-120086942D01*
X113802142Y-119647340D01*
X113864279Y-119647340D01*
X114064238Y-119607566D01*
X114252596Y-119529545D01*
X114422114Y-119416277D01*
X114566277Y-119272114D01*
X114679545Y-119102596D01*
X114757566Y-118914238D01*
X114797340Y-118714279D01*
X114797340Y-118510401D01*
X114794886Y-118498061D01*
X119365000Y-118498061D01*
X119365000Y-118701939D01*
X119404774Y-118901898D01*
X119482795Y-119090256D01*
X119596063Y-119259774D01*
X119740226Y-119403937D01*
X119909744Y-119517205D01*
X120098102Y-119595226D01*
X120298061Y-119635000D01*
X120501939Y-119635000D01*
X120701898Y-119595226D01*
X120890256Y-119517205D01*
X121059774Y-119403937D01*
X121103711Y-119360000D01*
X123328661Y-119360000D01*
X123386595Y-119468386D01*
X123497038Y-119602962D01*
X123631614Y-119713405D01*
X123785150Y-119795472D01*
X123951746Y-119846008D01*
X124125000Y-119863072D01*
X125375000Y-119863072D01*
X125548254Y-119846008D01*
X125714850Y-119795472D01*
X125744035Y-119779872D01*
X146515000Y-119779872D01*
X146515000Y-120220128D01*
X146600890Y-120651925D01*
X146769369Y-121058669D01*
X147013962Y-121424729D01*
X147325271Y-121736038D01*
X147691331Y-121980631D01*
X148098075Y-122149110D01*
X148529872Y-122235000D01*
X148970128Y-122235000D01*
X149401925Y-122149110D01*
X149808669Y-121980631D01*
X150174729Y-121736038D01*
X150486038Y-121424729D01*
X150730631Y-121058669D01*
X150899110Y-120651925D01*
X150985000Y-120220128D01*
X150985000Y-119779872D01*
X150899110Y-119348075D01*
X150730631Y-118941331D01*
X150486038Y-118575271D01*
X150174729Y-118263962D01*
X149808669Y-118019369D01*
X149401925Y-117850890D01*
X148970128Y-117765000D01*
X148529872Y-117765000D01*
X148098075Y-117850890D01*
X147691331Y-118019369D01*
X147325271Y-118263962D01*
X147013962Y-118575271D01*
X146769369Y-118941331D01*
X146600890Y-119348075D01*
X146515000Y-119779872D01*
X125744035Y-119779872D01*
X125868386Y-119713405D01*
X126002962Y-119602962D01*
X126113405Y-119468386D01*
X126195472Y-119314850D01*
X126246008Y-119148254D01*
X126263072Y-118975000D01*
X126263072Y-118225000D01*
X126246008Y-118051746D01*
X126195472Y-117885150D01*
X126113405Y-117731614D01*
X126002962Y-117597038D01*
X125868386Y-117486595D01*
X125714850Y-117404528D01*
X125548254Y-117353992D01*
X125375000Y-117336928D01*
X124125000Y-117336928D01*
X123951746Y-117353992D01*
X123785150Y-117404528D01*
X123631614Y-117486595D01*
X123497038Y-117597038D01*
X123386595Y-117731614D01*
X123328661Y-117840000D01*
X121103711Y-117840000D01*
X121059774Y-117796063D01*
X120890256Y-117682795D01*
X120701898Y-117604774D01*
X120501939Y-117565000D01*
X120298061Y-117565000D01*
X120098102Y-117604774D01*
X119909744Y-117682795D01*
X119740226Y-117796063D01*
X119596063Y-117940226D01*
X119482795Y-118109744D01*
X119404774Y-118298102D01*
X119365000Y-118498061D01*
X114794886Y-118498061D01*
X114757566Y-118310442D01*
X114679545Y-118122084D01*
X114566277Y-117952566D01*
X114422114Y-117808403D01*
X114252596Y-117695135D01*
X114064238Y-117617114D01*
X113864279Y-117577340D01*
X113660401Y-117577340D01*
X113611807Y-117587006D01*
X113575572Y-117550770D01*
X113575572Y-117293750D01*
X113559108Y-117126592D01*
X113510350Y-116965858D01*
X113431171Y-116817725D01*
X113324615Y-116687885D01*
X113260000Y-116634857D01*
X113260000Y-116287322D01*
X113263676Y-116249999D01*
X113260000Y-116212676D01*
X113260000Y-116212667D01*
X113249003Y-116101014D01*
X113205546Y-115957753D01*
X113134974Y-115825724D01*
X113108359Y-115793293D01*
X113063799Y-115738996D01*
X113063795Y-115738992D01*
X113040001Y-115709999D01*
X113011009Y-115686206D01*
X112363803Y-115039002D01*
X112340001Y-115009999D01*
X112224276Y-114915026D01*
X112092247Y-114844454D01*
X111948986Y-114800997D01*
X111837333Y-114790000D01*
X111837322Y-114790000D01*
X111800000Y-114786324D01*
X111762678Y-114790000D01*
X109937333Y-114790000D01*
X109900000Y-114786323D01*
X109862667Y-114790000D01*
X109751014Y-114800997D01*
X109607753Y-114844454D01*
X109475724Y-114915026D01*
X109359999Y-115009999D01*
X109336201Y-115038997D01*
X108735199Y-115640000D01*
X107383418Y-115640000D01*
X107299615Y-115537885D01*
X107237503Y-115486911D01*
X107238676Y-115475000D01*
X107235000Y-115437677D01*
X107235000Y-115437667D01*
X107224003Y-115326014D01*
X107180546Y-115182753D01*
X107109974Y-115050724D01*
X107015001Y-114934999D01*
X106986004Y-114911202D01*
X106734802Y-114660000D01*
X241547258Y-114660000D01*
X241527201Y-114726118D01*
X241527201Y-114726118D01*
G37*
X241527201Y-114726118D02*
X241515000Y-114850000D01*
X241515000Y-115793293D01*
X241521606Y-115884652D01*
X241551504Y-116005490D01*
X241604402Y-116118173D01*
X241678266Y-116218372D01*
X244828355Y-119714202D01*
X241703861Y-123181628D01*
X241647612Y-123253920D01*
X241588931Y-123363703D01*
X241552796Y-123482825D01*
X241540595Y-123606707D01*
X241540595Y-124490000D01*
X224914802Y-124490000D01*
X222257399Y-121832598D01*
X222263072Y-121775000D01*
X222263072Y-121025000D01*
X222246008Y-120851746D01*
X222195472Y-120685150D01*
X222113405Y-120531614D01*
X222002962Y-120397038D01*
X221868386Y-120286595D01*
X221714850Y-120204528D01*
X221548254Y-120153992D01*
X221375000Y-120136928D01*
X220125000Y-120136928D01*
X219951746Y-120153992D01*
X219785150Y-120204528D01*
X219631614Y-120286595D01*
X219497038Y-120397038D01*
X219386595Y-120531614D01*
X219304528Y-120685150D01*
X219253992Y-120851746D01*
X219236928Y-121025000D01*
X219236928Y-121775000D01*
X219253992Y-121948254D01*
X219304528Y-122114850D01*
X219386595Y-122268386D01*
X219497038Y-122402962D01*
X219631614Y-122513405D01*
X219785150Y-122595472D01*
X219951746Y-122646008D01*
X220125000Y-122663072D01*
X220938271Y-122663072D01*
X223615198Y-125340000D01*
X87265575Y-125340000D01*
X87469595Y-125230949D01*
X87665870Y-125069870D01*
X87826949Y-124873595D01*
X87946642Y-124649665D01*
X88020348Y-124406688D01*
X88039000Y-124217314D01*
X88039000Y-123742294D01*
X88062460Y-123860236D01*
X88155557Y-124084992D01*
X88290713Y-124287267D01*
X88462733Y-124459287D01*
X88665008Y-124594443D01*
X88889764Y-124687540D01*
X89128363Y-124735000D01*
X89371637Y-124735000D01*
X89610236Y-124687540D01*
X89834992Y-124594443D01*
X90037267Y-124459287D01*
X90209287Y-124287267D01*
X90344443Y-124084992D01*
X90437540Y-123860236D01*
X90485000Y-123621637D01*
X90485000Y-123378363D01*
X90437540Y-123139764D01*
X90344443Y-122915008D01*
X90209287Y-122712733D01*
X90037267Y-122540713D01*
X89834992Y-122405557D01*
X89610236Y-122312460D01*
X89371637Y-122265000D01*
X89128363Y-122265000D01*
X88889764Y-122312460D01*
X88665008Y-122405557D01*
X88462733Y-122540713D01*
X88290713Y-122712733D01*
X88155557Y-122915008D01*
X88062460Y-123139764D01*
X88039000Y-123257706D01*
X88039000Y-122782686D01*
X88020348Y-122593312D01*
X87946642Y-122350335D01*
X87826949Y-122126405D01*
X87665870Y-121930130D01*
X87469594Y-121769051D01*
X87245664Y-121649358D01*
X87002687Y-121575652D01*
X86750000Y-121550764D01*
X86545689Y-121570887D01*
X86449802Y-121475000D01*
X86514802Y-121410000D01*
X89812678Y-121410000D01*
X89850000Y-121413676D01*
X89887322Y-121410000D01*
X89887333Y-121410000D01*
X89998986Y-121399003D01*
X90142247Y-121355546D01*
X90274276Y-121284974D01*
X90390001Y-121190001D01*
X90413803Y-121160998D01*
X90764802Y-120810000D01*
X91385199Y-120810000D01*
X92136201Y-121561003D01*
X92159999Y-121590001D01*
X92188997Y-121613799D01*
X92275724Y-121684974D01*
X92407753Y-121755546D01*
X92551014Y-121799003D01*
X92700000Y-121813677D01*
X92737333Y-121810000D01*
X95362678Y-121810000D01*
X95400000Y-121813676D01*
X95437322Y-121810000D01*
X95437333Y-121810000D01*
X95548986Y-121799003D01*
X95692247Y-121755546D01*
X95824276Y-121684974D01*
X95940001Y-121590001D01*
X95963804Y-121560997D01*
X100011730Y-117513072D01*
X100231250Y-117513072D01*
X100398408Y-117496608D01*
X100559142Y-117447850D01*
X100707275Y-117368671D01*
X100800000Y-117292574D01*
X100892725Y-117368671D01*
X101040858Y-117447850D01*
X101201592Y-117496608D01*
X101368750Y-117513072D01*
X101806250Y-117513072D01*
X101973408Y-117496608D01*
X102134142Y-117447850D01*
X102282275Y-117368671D01*
X102412115Y-117262115D01*
X102495918Y-117160000D01*
X103991582Y-117160000D01*
X104075385Y-117262115D01*
X104205225Y-117368671D01*
X104353358Y-117447850D01*
X104514092Y-117496608D01*
X104681250Y-117513072D01*
X105118750Y-117513072D01*
X105285908Y-117496608D01*
X105446642Y-117447850D01*
X105594775Y-117368671D01*
X105687500Y-117292574D01*
X105780225Y-117368671D01*
X105928358Y-117447850D01*
X106089092Y-117496608D01*
X106256250Y-117513072D01*
X106693750Y-117513072D01*
X106860908Y-117496608D01*
X107021642Y-117447850D01*
X107169775Y-117368671D01*
X107299615Y-117262115D01*
X107383418Y-117160000D01*
X109012678Y-117160000D01*
X109050000Y-117163676D01*
X109087322Y-117160000D01*
X109087333Y-117160000D01*
X109198986Y-117149003D01*
X109342247Y-117105546D01*
X109474276Y-117034974D01*
X109590001Y-116940001D01*
X109613803Y-116910998D01*
X110214802Y-116310000D01*
X111485198Y-116310000D01*
X111740000Y-116564803D01*
X111740000Y-116634857D01*
X111675385Y-116687885D01*
X111568829Y-116817725D01*
X111489650Y-116965858D01*
X111440892Y-117126592D01*
X111424428Y-117293750D01*
X111424428Y-117806250D01*
X111440892Y-117973408D01*
X111489650Y-118134142D01*
X111568829Y-118282275D01*
X111675385Y-118412115D01*
X111805225Y-118518671D01*
X111953358Y-118597850D01*
X112114092Y-118646608D01*
X112281250Y-118663072D01*
X112538270Y-118663072D01*
X112587538Y-118712340D01*
X112088998Y-119210881D01*
X112060000Y-119234679D01*
X112036202Y-119263677D01*
X112036201Y-119263678D01*
X111965026Y-119350404D01*
X111894454Y-119482434D01*
X111873249Y-119552340D01*
X111850998Y-119625694D01*
X111847888Y-119657275D01*
X111836324Y-119774680D01*
X111840001Y-119812012D01*
X111840001Y-120084857D01*
X111775385Y-120137885D01*
X111668829Y-120267725D01*
X111589650Y-120415858D01*
X111540892Y-120576592D01*
X111524428Y-120743750D01*
X111524428Y-121256250D01*
X111540892Y-121423408D01*
X111589650Y-121584142D01*
X111668829Y-121732275D01*
X111775385Y-121862115D01*
X111905225Y-121968671D01*
X112053358Y-122047850D01*
X112214092Y-122096608D01*
X112381250Y-122113072D01*
X112818750Y-122113072D01*
X112985908Y-122096608D01*
X113146642Y-122047850D01*
X113294775Y-121968671D01*
X113424615Y-121862115D01*
X113531171Y-121732275D01*
X113610350Y-121584142D01*
X113659108Y-121423408D01*
X113675572Y-121256250D01*
X113675572Y-121025000D01*
X123236928Y-121025000D01*
X123236928Y-121775000D01*
X123253992Y-121948254D01*
X123304528Y-122114850D01*
X123386595Y-122268386D01*
X123497038Y-122402962D01*
X123631614Y-122513405D01*
X123785150Y-122595472D01*
X123951746Y-122646008D01*
X124125000Y-122663072D01*
X125238271Y-122663072D01*
X127036201Y-124461003D01*
X127059999Y-124490001D01*
X127088997Y-124513799D01*
X127175724Y-124584974D01*
X127307753Y-124655546D01*
X127451014Y-124699003D01*
X127600000Y-124713677D01*
X127637333Y-124710000D01*
X151562678Y-124710000D01*
X151600000Y-124713676D01*
X151637322Y-124710000D01*
X151637333Y-124710000D01*
X151748986Y-124699003D01*
X151892247Y-124655546D01*
X152024276Y-124584974D01*
X152140001Y-124490001D01*
X152163804Y-124460997D01*
X155599801Y-121025000D01*
X171236928Y-121025000D01*
X171236928Y-121775000D01*
X171253992Y-121948254D01*
X171304528Y-122114850D01*
X171386595Y-122268386D01*
X171497038Y-122402962D01*
X171631614Y-122513405D01*
X171785150Y-122595472D01*
X171951746Y-122646008D01*
X172125000Y-122663072D01*
X173375000Y-122663072D01*
X173548254Y-122646008D01*
X173714850Y-122595472D01*
X173868386Y-122513405D01*
X174002962Y-122402962D01*
X174113405Y-122268386D01*
X174171339Y-122160000D01*
X211012678Y-122160000D01*
X211050000Y-122163676D01*
X211087322Y-122160000D01*
X211087333Y-122160000D01*
X211198986Y-122149003D01*
X211342247Y-122105546D01*
X211474276Y-122034974D01*
X211590001Y-121940001D01*
X211613804Y-121910997D01*
X214164802Y-119360000D01*
X219328661Y-119360000D01*
X219386595Y-119468386D01*
X219497038Y-119602962D01*
X219631614Y-119713405D01*
X219785150Y-119795472D01*
X219951746Y-119846008D01*
X220125000Y-119863072D01*
X221375000Y-119863072D01*
X221548254Y-119846008D01*
X221714850Y-119795472D01*
X221868386Y-119713405D01*
X222002962Y-119602962D01*
X222113405Y-119468386D01*
X222195472Y-119314850D01*
X222246008Y-119148254D01*
X222263072Y-118975000D01*
X222263072Y-118225000D01*
X222246008Y-118051746D01*
X222195472Y-117885150D01*
X222113405Y-117731614D01*
X222002962Y-117597038D01*
X221868386Y-117486595D01*
X221714850Y-117404528D01*
X221548254Y-117353992D01*
X221375000Y-117336928D01*
X220125000Y-117336928D01*
X219951746Y-117353992D01*
X219785150Y-117404528D01*
X219631614Y-117486595D01*
X219497038Y-117597038D01*
X219386595Y-117731614D01*
X219328661Y-117840000D01*
X213887323Y-117840000D01*
X213850000Y-117836324D01*
X213812677Y-117840000D01*
X213812667Y-117840000D01*
X213701014Y-117850997D01*
X213565032Y-117892246D01*
X213557753Y-117894454D01*
X213425723Y-117965026D01*
X213342083Y-118033668D01*
X213309999Y-118059999D01*
X213286201Y-118088997D01*
X210735199Y-120640000D01*
X174171339Y-120640000D01*
X174113405Y-120531614D01*
X174002962Y-120397038D01*
X173868386Y-120286595D01*
X173714850Y-120204528D01*
X173548254Y-120153992D01*
X173375000Y-120136928D01*
X172125000Y-120136928D01*
X171951746Y-120153992D01*
X171785150Y-120204528D01*
X171631614Y-120286595D01*
X171497038Y-120397038D01*
X171386595Y-120531614D01*
X171304528Y-120685150D01*
X171253992Y-120851746D01*
X171236928Y-121025000D01*
X155599801Y-121025000D01*
X157264802Y-119360000D01*
X171328661Y-119360000D01*
X171386595Y-119468386D01*
X171497038Y-119602962D01*
X171631614Y-119713405D01*
X171785150Y-119795472D01*
X171951746Y-119846008D01*
X172125000Y-119863072D01*
X173375000Y-119863072D01*
X173548254Y-119846008D01*
X173714850Y-119795472D01*
X173868386Y-119713405D01*
X174002962Y-119602962D01*
X174113405Y-119468386D01*
X174195472Y-119314850D01*
X174246008Y-119148254D01*
X174263072Y-118975000D01*
X174263072Y-118225000D01*
X174246008Y-118051746D01*
X174195472Y-117885150D01*
X174113405Y-117731614D01*
X174002962Y-117597038D01*
X173868386Y-117486595D01*
X173714850Y-117404528D01*
X173548254Y-117353992D01*
X173375000Y-117336928D01*
X172125000Y-117336928D01*
X171951746Y-117353992D01*
X171785150Y-117404528D01*
X171631614Y-117486595D01*
X171497038Y-117597038D01*
X171386595Y-117731614D01*
X171328661Y-117840000D01*
X156987333Y-117840000D01*
X156950000Y-117836323D01*
X156912667Y-117840000D01*
X156801014Y-117850997D01*
X156657753Y-117894454D01*
X156525724Y-117965026D01*
X156409999Y-118059999D01*
X156386201Y-118088997D01*
X151285199Y-123190000D01*
X127914802Y-123190000D01*
X126263072Y-121538271D01*
X126263072Y-121025000D01*
X126246008Y-120851746D01*
X126195472Y-120685150D01*
X126113405Y-120531614D01*
X126002962Y-120397038D01*
X125868386Y-120286595D01*
X125714850Y-120204528D01*
X125548254Y-120153992D01*
X125375000Y-120136928D01*
X124125000Y-120136928D01*
X123951746Y-120153992D01*
X123785150Y-120204528D01*
X123631614Y-120286595D01*
X123497038Y-120397038D01*
X123386595Y-120531614D01*
X123304528Y-120685150D01*
X123253992Y-120851746D01*
X123236928Y-121025000D01*
X113675572Y-121025000D01*
X113675572Y-120743750D01*
X113659108Y-120576592D01*
X113610350Y-120415858D01*
X113531171Y-120267725D01*
X113424615Y-120137885D01*
X113362540Y-120086942D01*
X113802142Y-119647340D01*
X113864279Y-119647340D01*
X114064238Y-119607566D01*
X114252596Y-119529545D01*
X114422114Y-119416277D01*
X114566277Y-119272114D01*
X114679545Y-119102596D01*
X114757566Y-118914238D01*
X114797340Y-118714279D01*
X114797340Y-118510401D01*
X114794886Y-118498061D01*
X119365000Y-118498061D01*
X119365000Y-118701939D01*
X119404774Y-118901898D01*
X119482795Y-119090256D01*
X119596063Y-119259774D01*
X119740226Y-119403937D01*
X119909744Y-119517205D01*
X120098102Y-119595226D01*
X120298061Y-119635000D01*
X120501939Y-119635000D01*
X120701898Y-119595226D01*
X120890256Y-119517205D01*
X121059774Y-119403937D01*
X121103711Y-119360000D01*
X123328661Y-119360000D01*
X123386595Y-119468386D01*
X123497038Y-119602962D01*
X123631614Y-119713405D01*
X123785150Y-119795472D01*
X123951746Y-119846008D01*
X124125000Y-119863072D01*
X125375000Y-119863072D01*
X125548254Y-119846008D01*
X125714850Y-119795472D01*
X125744035Y-119779872D01*
X146515000Y-119779872D01*
X146515000Y-120220128D01*
X146600890Y-120651925D01*
X146769369Y-121058669D01*
X147013962Y-121424729D01*
X147325271Y-121736038D01*
X147691331Y-121980631D01*
X148098075Y-122149110D01*
X148529872Y-122235000D01*
X148970128Y-122235000D01*
X149401925Y-122149110D01*
X149808669Y-121980631D01*
X150174729Y-121736038D01*
X150486038Y-121424729D01*
X150730631Y-121058669D01*
X150899110Y-120651925D01*
X150985000Y-120220128D01*
X150985000Y-119779872D01*
X150899110Y-119348075D01*
X150730631Y-118941331D01*
X150486038Y-118575271D01*
X150174729Y-118263962D01*
X149808669Y-118019369D01*
X149401925Y-117850890D01*
X148970128Y-117765000D01*
X148529872Y-117765000D01*
X148098075Y-117850890D01*
X147691331Y-118019369D01*
X147325271Y-118263962D01*
X147013962Y-118575271D01*
X146769369Y-118941331D01*
X146600890Y-119348075D01*
X146515000Y-119779872D01*
X125744035Y-119779872D01*
X125868386Y-119713405D01*
X126002962Y-119602962D01*
X126113405Y-119468386D01*
X126195472Y-119314850D01*
X126246008Y-119148254D01*
X126263072Y-118975000D01*
X126263072Y-118225000D01*
X126246008Y-118051746D01*
X126195472Y-117885150D01*
X126113405Y-117731614D01*
X126002962Y-117597038D01*
X125868386Y-117486595D01*
X125714850Y-117404528D01*
X125548254Y-117353992D01*
X125375000Y-117336928D01*
X124125000Y-117336928D01*
X123951746Y-117353992D01*
X123785150Y-117404528D01*
X123631614Y-117486595D01*
X123497038Y-117597038D01*
X123386595Y-117731614D01*
X123328661Y-117840000D01*
X121103711Y-117840000D01*
X121059774Y-117796063D01*
X120890256Y-117682795D01*
X120701898Y-117604774D01*
X120501939Y-117565000D01*
X120298061Y-117565000D01*
X120098102Y-117604774D01*
X119909744Y-117682795D01*
X119740226Y-117796063D01*
X119596063Y-117940226D01*
X119482795Y-118109744D01*
X119404774Y-118298102D01*
X119365000Y-118498061D01*
X114794886Y-118498061D01*
X114757566Y-118310442D01*
X114679545Y-118122084D01*
X114566277Y-117952566D01*
X114422114Y-117808403D01*
X114252596Y-117695135D01*
X114064238Y-117617114D01*
X113864279Y-117577340D01*
X113660401Y-117577340D01*
X113611807Y-117587006D01*
X113575572Y-117550770D01*
X113575572Y-117293750D01*
X113559108Y-117126592D01*
X113510350Y-116965858D01*
X113431171Y-116817725D01*
X113324615Y-116687885D01*
X113260000Y-116634857D01*
X113260000Y-116287322D01*
X113263676Y-116249999D01*
X113260000Y-116212676D01*
X113260000Y-116212667D01*
X113249003Y-116101014D01*
X113205546Y-115957753D01*
X113134974Y-115825724D01*
X113108359Y-115793293D01*
X113063799Y-115738996D01*
X113063795Y-115738992D01*
X113040001Y-115709999D01*
X113011009Y-115686206D01*
X112363803Y-115039002D01*
X112340001Y-115009999D01*
X112224276Y-114915026D01*
X112092247Y-114844454D01*
X111948986Y-114800997D01*
X111837333Y-114790000D01*
X111837322Y-114790000D01*
X111800000Y-114786324D01*
X111762678Y-114790000D01*
X109937333Y-114790000D01*
X109900000Y-114786323D01*
X109862667Y-114790000D01*
X109751014Y-114800997D01*
X109607753Y-114844454D01*
X109475724Y-114915026D01*
X109359999Y-115009999D01*
X109336201Y-115038997D01*
X108735199Y-115640000D01*
X107383418Y-115640000D01*
X107299615Y-115537885D01*
X107237503Y-115486911D01*
X107238676Y-115475000D01*
X107235000Y-115437677D01*
X107235000Y-115437667D01*
X107224003Y-115326014D01*
X107180546Y-115182753D01*
X107109974Y-115050724D01*
X107015001Y-114934999D01*
X106986004Y-114911202D01*
X106734802Y-114660000D01*
X241547258Y-114660000D01*
X241527201Y-114726118D01*
M02*
