G04 #@! TF.GenerationSoftware,KiCad,Pcbnew,(5.1.0-0)*
G04 #@! TF.CreationDate,2019-08-30T03:25:08-04:00*
G04 #@! TF.ProjectId,LEDIO,4c454449-4f2e-46b6-9963-61645f706362,rev?*
G04 #@! TF.SameCoordinates,Original*
G04 #@! TF.FileFunction,Legend,Top*
G04 #@! TF.FilePolarity,Positive*
%FSLAX46Y46*%
G04 Gerber Fmt 4.6, Leading zero omitted, Abs format (unit mm)*
G04 Created by KiCad (PCBNEW (5.1.0-0)) date 2019-08-30 03:25:08*
%MOMM*%
%LPD*%
G04 APERTURE LIST*
%ADD10C,0.150000*%
%ADD11C,0.300000*%
%ADD12C,0.340000*%
%ADD13C,0.127000*%
%ADD14C,0.120000*%
%ADD15C,0.200000*%
%ADD16C,0.050000*%
G04 APERTURE END LIST*
D10*
X13766666Y-114552380D02*
X14100000Y-115552380D01*
X14433333Y-114552380D01*
X15338095Y-115457142D02*
X15290476Y-115504761D01*
X15147619Y-115552380D01*
X15052380Y-115552380D01*
X14909523Y-115504761D01*
X14814285Y-115409523D01*
X14766666Y-115314285D01*
X14719047Y-115123809D01*
X14719047Y-114980952D01*
X14766666Y-114790476D01*
X14814285Y-114695238D01*
X14909523Y-114600000D01*
X15052380Y-114552380D01*
X15147619Y-114552380D01*
X15290476Y-114600000D01*
X15338095Y-114647619D01*
X16338095Y-115457142D02*
X16290476Y-115504761D01*
X16147619Y-115552380D01*
X16052380Y-115552380D01*
X15909523Y-115504761D01*
X15814285Y-115409523D01*
X15766666Y-115314285D01*
X15719047Y-115123809D01*
X15719047Y-114980952D01*
X15766666Y-114790476D01*
X15814285Y-114695238D01*
X15909523Y-114600000D01*
X16052380Y-114552380D01*
X16147619Y-114552380D01*
X16290476Y-114600000D01*
X16338095Y-114647619D01*
X14338095Y-124500000D02*
X14242857Y-124452380D01*
X14100000Y-124452380D01*
X13957142Y-124500000D01*
X13861904Y-124595238D01*
X13814285Y-124690476D01*
X13766666Y-124880952D01*
X13766666Y-125023809D01*
X13814285Y-125214285D01*
X13861904Y-125309523D01*
X13957142Y-125404761D01*
X14100000Y-125452380D01*
X14195238Y-125452380D01*
X14338095Y-125404761D01*
X14385714Y-125357142D01*
X14385714Y-125023809D01*
X14195238Y-125023809D01*
X14814285Y-125452380D02*
X14814285Y-124452380D01*
X15385714Y-125452380D01*
X15385714Y-124452380D01*
X15861904Y-125452380D02*
X15861904Y-124452380D01*
X16100000Y-124452380D01*
X16242857Y-124500000D01*
X16338095Y-124595238D01*
X16385714Y-124690476D01*
X16433333Y-124880952D01*
X16433333Y-125023809D01*
X16385714Y-125214285D01*
X16338095Y-125309523D01*
X16242857Y-125404761D01*
X16100000Y-125452380D01*
X15861904Y-125452380D01*
D11*
X279714285Y-114516666D02*
X279785714Y-114450000D01*
X279928571Y-114383333D01*
X280285714Y-114383333D01*
X280428571Y-114450000D01*
X280500000Y-114516666D01*
X280571428Y-114650000D01*
X280571428Y-114783333D01*
X280500000Y-114983333D01*
X279642857Y-115783333D01*
X280571428Y-115783333D01*
X281857142Y-114850000D02*
X281857142Y-115783333D01*
X281500000Y-114316666D02*
X281142857Y-115316666D01*
X282071428Y-115316666D01*
X282428571Y-114383333D02*
X282928571Y-115783333D01*
X283428571Y-114383333D01*
X278821428Y-125383333D02*
X278821428Y-123983333D01*
X279392857Y-123983333D01*
X279535714Y-124050000D01*
X279607142Y-124116666D01*
X279678571Y-124250000D01*
X279678571Y-124450000D01*
X279607142Y-124583333D01*
X279535714Y-124650000D01*
X279392857Y-124716666D01*
X278821428Y-124716666D01*
X281107142Y-124050000D02*
X280964285Y-123983333D01*
X280750000Y-123983333D01*
X280535714Y-124050000D01*
X280392857Y-124183333D01*
X280321428Y-124316666D01*
X280250000Y-124583333D01*
X280250000Y-124783333D01*
X280321428Y-125050000D01*
X280392857Y-125183333D01*
X280535714Y-125316666D01*
X280750000Y-125383333D01*
X280892857Y-125383333D01*
X281107142Y-125316666D01*
X281178571Y-125250000D01*
X281178571Y-124783333D01*
X280892857Y-124783333D01*
X281821428Y-125383333D02*
X281821428Y-123983333D01*
X282678571Y-125383333D01*
X282678571Y-123983333D01*
X283392857Y-125383333D02*
X283392857Y-123983333D01*
X283750000Y-123983333D01*
X283964285Y-124050000D01*
X284107142Y-124183333D01*
X284178571Y-124316666D01*
X284250000Y-124583333D01*
X284250000Y-124783333D01*
X284178571Y-125050000D01*
X284107142Y-125183333D01*
X283964285Y-125316666D01*
X283750000Y-125383333D01*
X283392857Y-125383333D01*
D10*
X47402500Y-118254761D02*
X47545357Y-118302380D01*
X47783452Y-118302380D01*
X47878690Y-118254761D01*
X47926309Y-118207142D01*
X47973928Y-118111904D01*
X47973928Y-118016666D01*
X47926309Y-117921428D01*
X47878690Y-117873809D01*
X47783452Y-117826190D01*
X47592976Y-117778571D01*
X47497738Y-117730952D01*
X47450119Y-117683333D01*
X47402500Y-117588095D01*
X47402500Y-117492857D01*
X47450119Y-117397619D01*
X47497738Y-117350000D01*
X47592976Y-117302380D01*
X47831071Y-117302380D01*
X47973928Y-117350000D01*
X48402500Y-118302380D02*
X48402500Y-117302380D01*
X48783452Y-117302380D01*
X48878690Y-117350000D01*
X48926309Y-117397619D01*
X48973928Y-117492857D01*
X48973928Y-117635714D01*
X48926309Y-117730952D01*
X48878690Y-117778571D01*
X48783452Y-117826190D01*
X48402500Y-117826190D01*
X49402500Y-118302380D02*
X49402500Y-117302380D01*
X49878690Y-118302380D02*
X49878690Y-117302380D01*
X50450119Y-118302380D01*
X50450119Y-117302380D01*
X50926309Y-118302380D02*
X50926309Y-117302380D01*
X51164404Y-117302380D01*
X51307261Y-117350000D01*
X51402500Y-117445238D01*
X51450119Y-117540476D01*
X51497738Y-117730952D01*
X51497738Y-117873809D01*
X51450119Y-118064285D01*
X51402500Y-118159523D01*
X51307261Y-118254761D01*
X51164404Y-118302380D01*
X50926309Y-118302380D01*
X52402500Y-118302380D02*
X51926309Y-118302380D01*
X51926309Y-117302380D01*
X52735833Y-117778571D02*
X53069166Y-117778571D01*
X53212023Y-118302380D02*
X52735833Y-118302380D01*
X52735833Y-117302380D01*
X53212023Y-117302380D01*
X48688214Y-121602380D02*
X48688214Y-120602380D01*
X49069166Y-120602380D01*
X49164404Y-120650000D01*
X49212023Y-120697619D01*
X49259642Y-120792857D01*
X49259642Y-120935714D01*
X49212023Y-121030952D01*
X49164404Y-121078571D01*
X49069166Y-121126190D01*
X48688214Y-121126190D01*
X50259642Y-121602380D02*
X49926309Y-121126190D01*
X49688214Y-121602380D02*
X49688214Y-120602380D01*
X50069166Y-120602380D01*
X50164404Y-120650000D01*
X50212023Y-120697619D01*
X50259642Y-120792857D01*
X50259642Y-120935714D01*
X50212023Y-121030952D01*
X50164404Y-121078571D01*
X50069166Y-121126190D01*
X49688214Y-121126190D01*
X50878690Y-120602380D02*
X51069166Y-120602380D01*
X51164404Y-120650000D01*
X51259642Y-120745238D01*
X51307261Y-120935714D01*
X51307261Y-121269047D01*
X51259642Y-121459523D01*
X51164404Y-121554761D01*
X51069166Y-121602380D01*
X50878690Y-121602380D01*
X50783452Y-121554761D01*
X50688214Y-121459523D01*
X50640595Y-121269047D01*
X50640595Y-120935714D01*
X50688214Y-120745238D01*
X50783452Y-120650000D01*
X50878690Y-120602380D01*
X52069166Y-121078571D02*
X52212023Y-121126190D01*
X52259642Y-121173809D01*
X52307261Y-121269047D01*
X52307261Y-121411904D01*
X52259642Y-121507142D01*
X52212023Y-121554761D01*
X52116785Y-121602380D01*
X51735833Y-121602380D01*
X51735833Y-120602380D01*
X52069166Y-120602380D01*
X52164404Y-120650000D01*
X52212023Y-120697619D01*
X52259642Y-120792857D01*
X52259642Y-120888095D01*
X52212023Y-120983333D01*
X52164404Y-121030952D01*
X52069166Y-121078571D01*
X51735833Y-121078571D01*
X52735833Y-121078571D02*
X53069166Y-121078571D01*
X53212023Y-121602380D02*
X52735833Y-121602380D01*
X52735833Y-120602380D01*
X53212023Y-120602380D01*
D12*
X95920000Y-118500000D02*
G75*
G03X95920000Y-118500000I-170000J0D01*
G01*
D13*
X84750000Y-114100000D02*
X84750000Y-115000000D01*
X84750000Y-115000000D02*
X83250000Y-115000000D01*
X93750000Y-115000000D02*
X93750000Y-114100000D01*
X95250000Y-115000000D02*
X93750000Y-115000000D01*
X95250000Y-126000000D02*
X95250000Y-115000000D01*
X83250000Y-126000000D02*
X83250000Y-115000000D01*
X95250000Y-126000000D02*
X83250000Y-126000000D01*
D14*
X111875279Y-117040000D02*
X111549721Y-117040000D01*
X111875279Y-118060000D02*
X111549721Y-118060000D01*
X111975279Y-120490000D02*
X111649721Y-120490000D01*
X111975279Y-121510000D02*
X111649721Y-121510000D01*
X269885000Y-122285000D02*
X269885000Y-118400000D01*
X267615000Y-122285000D02*
X269885000Y-122285000D01*
X267615000Y-118400000D02*
X267615000Y-122285000D01*
X221885000Y-122285000D02*
X221885000Y-118400000D01*
X219615000Y-122285000D02*
X221885000Y-122285000D01*
X219615000Y-118400000D02*
X219615000Y-122285000D01*
X173885000Y-122285000D02*
X173885000Y-118400000D01*
X171615000Y-122285000D02*
X173885000Y-122285000D01*
X171615000Y-118400000D02*
X171615000Y-122285000D01*
X125885000Y-122285000D02*
X125885000Y-118400000D01*
X123615000Y-122285000D02*
X125885000Y-122285000D01*
X123615000Y-118400000D02*
X123615000Y-122285000D01*
X77885000Y-122285000D02*
X77885000Y-118400000D01*
X75615000Y-122285000D02*
X77885000Y-122285000D01*
X75615000Y-118400000D02*
X75615000Y-122285000D01*
X29885000Y-122285000D02*
X29885000Y-118400000D01*
X27615000Y-122285000D02*
X29885000Y-122285000D01*
X27615000Y-118400000D02*
X27615000Y-122285000D01*
X99315000Y-117135000D02*
X101600000Y-117135000D01*
X99315000Y-115665000D02*
X99315000Y-117135000D01*
X101600000Y-115665000D02*
X99315000Y-115665000D01*
X279730000Y-117230000D02*
X281000000Y-117230000D01*
X279730000Y-118500000D02*
X279730000Y-117230000D01*
X282042929Y-121420000D02*
X282440000Y-121420000D01*
X282042929Y-120660000D02*
X282440000Y-120660000D01*
X291100000Y-121420000D02*
X285100000Y-121420000D01*
X291100000Y-120660000D02*
X291100000Y-121420000D01*
X285100000Y-120660000D02*
X291100000Y-120660000D01*
X282440000Y-119770000D02*
X285100000Y-119770000D01*
X282110000Y-118880000D02*
X282440000Y-118880000D01*
X282110000Y-118120000D02*
X282440000Y-118120000D01*
X285100000Y-118780000D02*
X291100000Y-118780000D01*
X285100000Y-118660000D02*
X291100000Y-118660000D01*
X285100000Y-118540000D02*
X291100000Y-118540000D01*
X285100000Y-118420000D02*
X291100000Y-118420000D01*
X285100000Y-118300000D02*
X291100000Y-118300000D01*
X285100000Y-118180000D02*
X291100000Y-118180000D01*
X291100000Y-118880000D02*
X285100000Y-118880000D01*
X291100000Y-118120000D02*
X291100000Y-118880000D01*
X285100000Y-118120000D02*
X291100000Y-118120000D01*
X285100000Y-117170000D02*
X282440000Y-117170000D01*
X285100000Y-122370000D02*
X285100000Y-117170000D01*
X282440000Y-122370000D02*
X285100000Y-122370000D01*
X282440000Y-117170000D02*
X282440000Y-122370000D01*
X17770000Y-123810000D02*
X16500000Y-123810000D01*
X17770000Y-122540000D02*
X17770000Y-123810000D01*
X15457071Y-117080000D02*
X15060000Y-117080000D01*
X15457071Y-117840000D02*
X15060000Y-117840000D01*
X6400000Y-117080000D02*
X12400000Y-117080000D01*
X6400000Y-117840000D02*
X6400000Y-117080000D01*
X12400000Y-117840000D02*
X6400000Y-117840000D01*
X15060000Y-118730000D02*
X12400000Y-118730000D01*
X15457071Y-119620000D02*
X15060000Y-119620000D01*
X15457071Y-120380000D02*
X15060000Y-120380000D01*
X6400000Y-119620000D02*
X12400000Y-119620000D01*
X6400000Y-120380000D02*
X6400000Y-119620000D01*
X12400000Y-120380000D02*
X6400000Y-120380000D01*
X15060000Y-121270000D02*
X12400000Y-121270000D01*
X15390000Y-122160000D02*
X15060000Y-122160000D01*
X15390000Y-122920000D02*
X15060000Y-122920000D01*
X12400000Y-122260000D02*
X6400000Y-122260000D01*
X12400000Y-122380000D02*
X6400000Y-122380000D01*
X12400000Y-122500000D02*
X6400000Y-122500000D01*
X12400000Y-122620000D02*
X6400000Y-122620000D01*
X12400000Y-122740000D02*
X6400000Y-122740000D01*
X12400000Y-122860000D02*
X6400000Y-122860000D01*
X6400000Y-122160000D02*
X12400000Y-122160000D01*
X6400000Y-122920000D02*
X6400000Y-122160000D01*
X12400000Y-122920000D02*
X6400000Y-122920000D01*
X12400000Y-123870000D02*
X15060000Y-123870000D01*
X12400000Y-116130000D02*
X12400000Y-123870000D01*
X15060000Y-116130000D02*
X12400000Y-116130000D01*
X15060000Y-123870000D02*
X15060000Y-116130000D01*
X245740000Y-119587221D02*
X245740000Y-119912779D01*
X246760000Y-119587221D02*
X246760000Y-119912779D01*
X252740000Y-119587221D02*
X252740000Y-119912779D01*
X253760000Y-119587221D02*
X253760000Y-119912779D01*
X259740000Y-119587221D02*
X259740000Y-119912779D01*
X260760000Y-119587221D02*
X260760000Y-119912779D01*
X105850279Y-115890000D02*
X105524721Y-115890000D01*
X105850279Y-116910000D02*
X105524721Y-116910000D01*
D15*
X65640000Y-126830000D02*
G75*
G03X65640000Y-126830000I-100000J0D01*
G01*
D13*
X71750000Y-113500000D02*
X61750000Y-113500000D01*
X71750000Y-125000000D02*
X71750000Y-118580000D01*
X61750000Y-118580000D02*
X61750000Y-121500000D01*
D16*
X95801318Y-117158980D02*
X96516990Y-117158980D01*
X96660124Y-117206691D01*
X96755547Y-117302114D01*
X96803258Y-117445248D01*
X96803258Y-117540671D01*
X95801318Y-116777288D02*
X95801318Y-116157040D01*
X96183010Y-116491020D01*
X96183010Y-116347885D01*
X96230721Y-116252462D01*
X96278432Y-116204751D01*
X96373855Y-116157040D01*
X96612412Y-116157040D01*
X96707835Y-116204751D01*
X96755547Y-116252462D01*
X96803258Y-116347885D01*
X96803258Y-116634154D01*
X96755547Y-116729577D01*
X96707835Y-116777288D01*
X92405324Y-124896995D02*
X92453009Y-124753940D01*
X92453009Y-124515514D01*
X92405324Y-124420143D01*
X92357639Y-124372458D01*
X92262268Y-124324773D01*
X92166898Y-124324773D01*
X92071527Y-124372458D01*
X92023842Y-124420143D01*
X91976157Y-124515514D01*
X91928472Y-124706255D01*
X91880786Y-124801625D01*
X91833101Y-124849310D01*
X91737731Y-124896995D01*
X91642360Y-124896995D01*
X91546990Y-124849310D01*
X91499305Y-124801625D01*
X91451619Y-124706255D01*
X91451619Y-124467828D01*
X91499305Y-124324773D01*
X91451619Y-123609494D02*
X92166898Y-123609494D01*
X92309954Y-123657179D01*
X92405324Y-123752550D01*
X92453009Y-123895605D01*
X92453009Y-123990976D01*
X92453009Y-122608104D02*
X92453009Y-123180327D01*
X92453009Y-122894215D02*
X91451619Y-122894215D01*
X91594675Y-122989586D01*
X91690045Y-123084956D01*
X91737731Y-123180327D01*
X92071527Y-122178937D02*
X92071527Y-121415973D01*
X91451619Y-121034491D02*
X91451619Y-120414583D01*
X91833101Y-120748380D01*
X91833101Y-120605324D01*
X91880786Y-120509954D01*
X91928472Y-120462268D01*
X92023842Y-120414583D01*
X92262268Y-120414583D01*
X92357639Y-120462268D01*
X92405324Y-120509954D01*
X92453009Y-120605324D01*
X92453009Y-120891435D01*
X92405324Y-120986806D01*
X92357639Y-121034491D01*
X91451619Y-119508564D02*
X91451619Y-119985416D01*
X91928472Y-120033101D01*
X91880786Y-119985416D01*
X91833101Y-119890045D01*
X91833101Y-119651619D01*
X91880786Y-119556249D01*
X91928472Y-119508564D01*
X92023842Y-119460878D01*
X92262268Y-119460878D01*
X92357639Y-119508564D01*
X92405324Y-119556249D01*
X92453009Y-119651619D01*
X92453009Y-119890045D01*
X92405324Y-119985416D01*
X92357639Y-120033101D01*
X91546990Y-119079396D02*
X91499305Y-119031711D01*
X91451619Y-118936341D01*
X91451619Y-118697915D01*
X91499305Y-118602544D01*
X91546990Y-118554859D01*
X91642360Y-118507174D01*
X91737731Y-118507174D01*
X91880786Y-118554859D01*
X92453009Y-119127082D01*
X92453009Y-118507174D01*
X91785416Y-117648839D02*
X92453009Y-117648839D01*
X91403934Y-117887265D02*
X92119213Y-118125692D01*
X92119213Y-117505784D01*
X92453009Y-117124302D02*
X91451619Y-117124302D01*
X92453009Y-116552079D01*
X91451619Y-116552079D01*
X91499305Y-115550689D02*
X91451619Y-115646059D01*
X91451619Y-115789115D01*
X91499305Y-115932171D01*
X91594675Y-116027541D01*
X91690045Y-116075226D01*
X91880786Y-116122912D01*
X92023842Y-116122912D01*
X92214583Y-116075226D01*
X92309954Y-116027541D01*
X92405324Y-115932171D01*
X92453009Y-115789115D01*
X92453009Y-115693745D01*
X92405324Y-115550689D01*
X92357639Y-115503004D01*
X92023842Y-115503004D01*
X92023842Y-115693745D01*
D10*
X111458333Y-116332142D02*
X111410714Y-116379761D01*
X111267857Y-116427380D01*
X111172619Y-116427380D01*
X111029761Y-116379761D01*
X110934523Y-116284523D01*
X110886904Y-116189285D01*
X110839285Y-115998809D01*
X110839285Y-115855952D01*
X110886904Y-115665476D01*
X110934523Y-115570238D01*
X111029761Y-115475000D01*
X111172619Y-115427380D01*
X111267857Y-115427380D01*
X111410714Y-115475000D01*
X111458333Y-115522619D01*
X112410714Y-116427380D02*
X111839285Y-116427380D01*
X112125000Y-116427380D02*
X112125000Y-115427380D01*
X112029761Y-115570238D01*
X111934523Y-115665476D01*
X111839285Y-115713095D01*
X111645833Y-122787142D02*
X111598214Y-122834761D01*
X111455357Y-122882380D01*
X111360119Y-122882380D01*
X111217261Y-122834761D01*
X111122023Y-122739523D01*
X111074404Y-122644285D01*
X111026785Y-122453809D01*
X111026785Y-122310952D01*
X111074404Y-122120476D01*
X111122023Y-122025238D01*
X111217261Y-121930000D01*
X111360119Y-121882380D01*
X111455357Y-121882380D01*
X111598214Y-121930000D01*
X111645833Y-121977619D01*
X112026785Y-121977619D02*
X112074404Y-121930000D01*
X112169642Y-121882380D01*
X112407738Y-121882380D01*
X112502976Y-121930000D01*
X112550595Y-121977619D01*
X112598214Y-122072857D01*
X112598214Y-122168095D01*
X112550595Y-122310952D01*
X111979166Y-122882380D01*
X112598214Y-122882380D01*
X267382380Y-120738095D02*
X266382380Y-120738095D01*
X266382380Y-120500000D01*
X266430000Y-120357142D01*
X266525238Y-120261904D01*
X266620476Y-120214285D01*
X266810952Y-120166666D01*
X266953809Y-120166666D01*
X267144285Y-120214285D01*
X267239523Y-120261904D01*
X267334761Y-120357142D01*
X267382380Y-120500000D01*
X267382380Y-120738095D01*
X267382380Y-119214285D02*
X267382380Y-119785714D01*
X267382380Y-119500000D02*
X266382380Y-119500000D01*
X266525238Y-119595238D01*
X266620476Y-119690476D01*
X266668095Y-119785714D01*
X219382380Y-120738095D02*
X218382380Y-120738095D01*
X218382380Y-120500000D01*
X218430000Y-120357142D01*
X218525238Y-120261904D01*
X218620476Y-120214285D01*
X218810952Y-120166666D01*
X218953809Y-120166666D01*
X219144285Y-120214285D01*
X219239523Y-120261904D01*
X219334761Y-120357142D01*
X219382380Y-120500000D01*
X219382380Y-120738095D01*
X218477619Y-119785714D02*
X218430000Y-119738095D01*
X218382380Y-119642857D01*
X218382380Y-119404761D01*
X218430000Y-119309523D01*
X218477619Y-119261904D01*
X218572857Y-119214285D01*
X218668095Y-119214285D01*
X218810952Y-119261904D01*
X219382380Y-119833333D01*
X219382380Y-119214285D01*
X171382380Y-120738095D02*
X170382380Y-120738095D01*
X170382380Y-120500000D01*
X170430000Y-120357142D01*
X170525238Y-120261904D01*
X170620476Y-120214285D01*
X170810952Y-120166666D01*
X170953809Y-120166666D01*
X171144285Y-120214285D01*
X171239523Y-120261904D01*
X171334761Y-120357142D01*
X171382380Y-120500000D01*
X171382380Y-120738095D01*
X170382380Y-119833333D02*
X170382380Y-119214285D01*
X170763333Y-119547619D01*
X170763333Y-119404761D01*
X170810952Y-119309523D01*
X170858571Y-119261904D01*
X170953809Y-119214285D01*
X171191904Y-119214285D01*
X171287142Y-119261904D01*
X171334761Y-119309523D01*
X171382380Y-119404761D01*
X171382380Y-119690476D01*
X171334761Y-119785714D01*
X171287142Y-119833333D01*
X123382380Y-120738095D02*
X122382380Y-120738095D01*
X122382380Y-120500000D01*
X122430000Y-120357142D01*
X122525238Y-120261904D01*
X122620476Y-120214285D01*
X122810952Y-120166666D01*
X122953809Y-120166666D01*
X123144285Y-120214285D01*
X123239523Y-120261904D01*
X123334761Y-120357142D01*
X123382380Y-120500000D01*
X123382380Y-120738095D01*
X122715714Y-119309523D02*
X123382380Y-119309523D01*
X122334761Y-119547619D02*
X123049047Y-119785714D01*
X123049047Y-119166666D01*
X75382380Y-120738095D02*
X74382380Y-120738095D01*
X74382380Y-120500000D01*
X74430000Y-120357142D01*
X74525238Y-120261904D01*
X74620476Y-120214285D01*
X74810952Y-120166666D01*
X74953809Y-120166666D01*
X75144285Y-120214285D01*
X75239523Y-120261904D01*
X75334761Y-120357142D01*
X75382380Y-120500000D01*
X75382380Y-120738095D01*
X74382380Y-119261904D02*
X74382380Y-119738095D01*
X74858571Y-119785714D01*
X74810952Y-119738095D01*
X74763333Y-119642857D01*
X74763333Y-119404761D01*
X74810952Y-119309523D01*
X74858571Y-119261904D01*
X74953809Y-119214285D01*
X75191904Y-119214285D01*
X75287142Y-119261904D01*
X75334761Y-119309523D01*
X75382380Y-119404761D01*
X75382380Y-119642857D01*
X75334761Y-119738095D01*
X75287142Y-119785714D01*
X27382380Y-120738095D02*
X26382380Y-120738095D01*
X26382380Y-120500000D01*
X26430000Y-120357142D01*
X26525238Y-120261904D01*
X26620476Y-120214285D01*
X26810952Y-120166666D01*
X26953809Y-120166666D01*
X27144285Y-120214285D01*
X27239523Y-120261904D01*
X27334761Y-120357142D01*
X27382380Y-120500000D01*
X27382380Y-120738095D01*
X26382380Y-119309523D02*
X26382380Y-119500000D01*
X26430000Y-119595238D01*
X26477619Y-119642857D01*
X26620476Y-119738095D01*
X26810952Y-119785714D01*
X27191904Y-119785714D01*
X27287142Y-119738095D01*
X27334761Y-119690476D01*
X27382380Y-119595238D01*
X27382380Y-119404761D01*
X27334761Y-119309523D01*
X27287142Y-119261904D01*
X27191904Y-119214285D01*
X26953809Y-119214285D01*
X26858571Y-119261904D01*
X26810952Y-119309523D01*
X26763333Y-119404761D01*
X26763333Y-119595238D01*
X26810952Y-119690476D01*
X26858571Y-119738095D01*
X26953809Y-119785714D01*
X100061904Y-118352380D02*
X100061904Y-117352380D01*
X100300000Y-117352380D01*
X100442857Y-117400000D01*
X100538095Y-117495238D01*
X100585714Y-117590476D01*
X100633333Y-117780952D01*
X100633333Y-117923809D01*
X100585714Y-118114285D01*
X100538095Y-118209523D01*
X100442857Y-118304761D01*
X100300000Y-118352380D01*
X100061904Y-118352380D01*
X100966666Y-117352380D02*
X101633333Y-117352380D01*
X101204761Y-118352380D01*
X285051666Y-115682380D02*
X285051666Y-116396666D01*
X285004047Y-116539523D01*
X284908809Y-116634761D01*
X284765952Y-116682380D01*
X284670714Y-116682380D01*
X286051666Y-116682380D02*
X285480238Y-116682380D01*
X285765952Y-116682380D02*
X285765952Y-115682380D01*
X285670714Y-115825238D01*
X285575476Y-115920476D01*
X285480238Y-115968095D01*
X18991666Y-123227380D02*
X18991666Y-123941666D01*
X18944047Y-124084523D01*
X18848809Y-124179761D01*
X18705952Y-124227380D01*
X18610714Y-124227380D01*
X19420238Y-123322619D02*
X19467857Y-123275000D01*
X19563095Y-123227380D01*
X19801190Y-123227380D01*
X19896428Y-123275000D01*
X19944047Y-123322619D01*
X19991666Y-123417857D01*
X19991666Y-123513095D01*
X19944047Y-123655952D01*
X19372619Y-124227380D01*
X19991666Y-124227380D01*
X248132380Y-119916666D02*
X247656190Y-120250000D01*
X248132380Y-120488095D02*
X247132380Y-120488095D01*
X247132380Y-120107142D01*
X247180000Y-120011904D01*
X247227619Y-119964285D01*
X247322857Y-119916666D01*
X247465714Y-119916666D01*
X247560952Y-119964285D01*
X247608571Y-120011904D01*
X247656190Y-120107142D01*
X247656190Y-120488095D01*
X248132380Y-118964285D02*
X248132380Y-119535714D01*
X248132380Y-119250000D02*
X247132380Y-119250000D01*
X247275238Y-119345238D01*
X247370476Y-119440476D01*
X247418095Y-119535714D01*
X255132380Y-119916666D02*
X254656190Y-120250000D01*
X255132380Y-120488095D02*
X254132380Y-120488095D01*
X254132380Y-120107142D01*
X254180000Y-120011904D01*
X254227619Y-119964285D01*
X254322857Y-119916666D01*
X254465714Y-119916666D01*
X254560952Y-119964285D01*
X254608571Y-120011904D01*
X254656190Y-120107142D01*
X254656190Y-120488095D01*
X254227619Y-119535714D02*
X254180000Y-119488095D01*
X254132380Y-119392857D01*
X254132380Y-119154761D01*
X254180000Y-119059523D01*
X254227619Y-119011904D01*
X254322857Y-118964285D01*
X254418095Y-118964285D01*
X254560952Y-119011904D01*
X255132380Y-119583333D01*
X255132380Y-118964285D01*
X262132380Y-119916666D02*
X261656190Y-120250000D01*
X262132380Y-120488095D02*
X261132380Y-120488095D01*
X261132380Y-120107142D01*
X261180000Y-120011904D01*
X261227619Y-119964285D01*
X261322857Y-119916666D01*
X261465714Y-119916666D01*
X261560952Y-119964285D01*
X261608571Y-120011904D01*
X261656190Y-120107142D01*
X261656190Y-120488095D01*
X261132380Y-119583333D02*
X261132380Y-118964285D01*
X261513333Y-119297619D01*
X261513333Y-119154761D01*
X261560952Y-119059523D01*
X261608571Y-119011904D01*
X261703809Y-118964285D01*
X261941904Y-118964285D01*
X262037142Y-119011904D01*
X262084761Y-119059523D01*
X262132380Y-119154761D01*
X262132380Y-119440476D01*
X262084761Y-119535714D01*
X262037142Y-119583333D01*
X105520833Y-118282380D02*
X105187500Y-117806190D01*
X104949404Y-118282380D02*
X104949404Y-117282380D01*
X105330357Y-117282380D01*
X105425595Y-117330000D01*
X105473214Y-117377619D01*
X105520833Y-117472857D01*
X105520833Y-117615714D01*
X105473214Y-117710952D01*
X105425595Y-117758571D01*
X105330357Y-117806190D01*
X104949404Y-117806190D01*
X106377976Y-117615714D02*
X106377976Y-118282380D01*
X106139880Y-117234761D02*
X105901785Y-117949047D01*
X106520833Y-117949047D01*
X147988095Y-116252380D02*
X147988095Y-115252380D01*
X147988095Y-115728571D02*
X148559523Y-115728571D01*
X148559523Y-116252380D02*
X148559523Y-115252380D01*
X149559523Y-116252380D02*
X148988095Y-116252380D01*
X149273809Y-116252380D02*
X149273809Y-115252380D01*
X149178571Y-115395238D01*
X149083333Y-115490476D01*
X148988095Y-115538095D01*
X20988095Y-116252380D02*
X20988095Y-115252380D01*
X20988095Y-115728571D02*
X21559523Y-115728571D01*
X21559523Y-116252380D02*
X21559523Y-115252380D01*
X21988095Y-115347619D02*
X22035714Y-115300000D01*
X22130952Y-115252380D01*
X22369047Y-115252380D01*
X22464285Y-115300000D01*
X22511904Y-115347619D01*
X22559523Y-115442857D01*
X22559523Y-115538095D01*
X22511904Y-115680952D01*
X21940476Y-116252380D01*
X22559523Y-116252380D01*
X274988095Y-116252380D02*
X274988095Y-115252380D01*
X274988095Y-115728571D02*
X275559523Y-115728571D01*
X275559523Y-116252380D02*
X275559523Y-115252380D01*
X275940476Y-115252380D02*
X276559523Y-115252380D01*
X276226190Y-115633333D01*
X276369047Y-115633333D01*
X276464285Y-115680952D01*
X276511904Y-115728571D01*
X276559523Y-115823809D01*
X276559523Y-116061904D01*
X276511904Y-116157142D01*
X276464285Y-116204761D01*
X276369047Y-116252380D01*
X276083333Y-116252380D01*
X275988095Y-116204761D01*
X275940476Y-116157142D01*
D16*
X59526433Y-116783910D02*
X60241955Y-116783910D01*
X60385059Y-116831611D01*
X60480462Y-116927014D01*
X60528163Y-117070118D01*
X60528163Y-117165521D01*
X59526433Y-115829881D02*
X59526433Y-116306895D01*
X60003447Y-116354597D01*
X59955746Y-116306895D01*
X59908045Y-116211492D01*
X59908045Y-115972985D01*
X59955746Y-115877582D01*
X60003447Y-115829881D01*
X60098850Y-115782180D01*
X60337357Y-115782180D01*
X60432760Y-115829881D01*
X60480462Y-115877582D01*
X60528163Y-115972985D01*
X60528163Y-116211492D01*
X60480462Y-116306895D01*
X60432760Y-116354597D01*
X63604438Y-120828235D02*
X63604438Y-119826345D01*
X63986111Y-119826345D01*
X64081529Y-119874055D01*
X64129238Y-119921764D01*
X64176947Y-120017182D01*
X64176947Y-120160309D01*
X64129238Y-120255727D01*
X64081529Y-120303436D01*
X63986111Y-120351145D01*
X63604438Y-120351145D01*
X64892583Y-119826345D02*
X64892583Y-120541981D01*
X64844874Y-120685108D01*
X64749455Y-120780526D01*
X64606328Y-120828235D01*
X64510910Y-120828235D01*
X65369673Y-120446563D02*
X66133018Y-120446563D01*
X66800945Y-119826345D02*
X66896363Y-119826345D01*
X66991781Y-119874055D01*
X67039490Y-119921764D01*
X67087199Y-120017182D01*
X67134908Y-120208018D01*
X67134908Y-120446563D01*
X67087199Y-120637399D01*
X67039490Y-120732817D01*
X66991781Y-120780526D01*
X66896363Y-120828235D01*
X66800945Y-120828235D01*
X66705526Y-120780526D01*
X66657817Y-120732817D01*
X66610108Y-120637399D01*
X66562399Y-120446563D01*
X66562399Y-120208018D01*
X66610108Y-120017182D01*
X66657817Y-119921764D01*
X66705526Y-119874055D01*
X66800945Y-119826345D01*
X67468871Y-119826345D02*
X68136798Y-119826345D01*
X67707416Y-120828235D01*
X68947852Y-119826345D02*
X68757015Y-119826345D01*
X68661597Y-119874055D01*
X68613888Y-119921764D01*
X68518470Y-120064891D01*
X68470761Y-120255727D01*
X68470761Y-120637399D01*
X68518470Y-120732817D01*
X68566179Y-120780526D01*
X68661597Y-120828235D01*
X68852434Y-120828235D01*
X68947852Y-120780526D01*
X68995561Y-120732817D01*
X69043270Y-120637399D01*
X69043270Y-120398854D01*
X68995561Y-120303436D01*
X68947852Y-120255727D01*
X68852434Y-120208018D01*
X68661597Y-120208018D01*
X68566179Y-120255727D01*
X68518470Y-120303436D01*
X68470761Y-120398854D01*
M02*
