G04 #@! TF.GenerationSoftware,KiCad,Pcbnew,(5.1.0-0)*
G04 #@! TF.CreationDate,2019-08-30T03:25:08-04:00*
G04 #@! TF.ProjectId,LEDIO,4c454449-4f2e-46b6-9963-61645f706362,rev?*
G04 #@! TF.SameCoordinates,Original*
G04 #@! TF.FileFunction,Soldermask,Top*
G04 #@! TF.FilePolarity,Negative*
%FSLAX46Y46*%
G04 Gerber Fmt 4.6, Leading zero omitted, Abs format (unit mm)*
G04 Created by KiCad (PCBNEW (5.1.0-0)) date 2019-08-30 03:25:08*
%MOMM*%
%LPD*%
G04 APERTURE LIST*
%ADD10C,0.100000*%
G04 APERTURE END LIST*
D10*
G36*
X66461808Y-124006648D02*
G01*
X66613551Y-124052678D01*
X66753398Y-124127428D01*
X66875975Y-124228025D01*
X66976572Y-124350602D01*
X67051322Y-124490449D01*
X67097352Y-124642192D01*
X67112895Y-124800000D01*
X67097352Y-124957808D01*
X67051322Y-125109551D01*
X66976572Y-125249398D01*
X66875975Y-125371975D01*
X66753398Y-125472572D01*
X66613551Y-125547322D01*
X66461808Y-125593352D01*
X66343546Y-125605000D01*
X64756454Y-125605000D01*
X64638192Y-125593352D01*
X64486449Y-125547322D01*
X64346602Y-125472572D01*
X64224025Y-125371975D01*
X64123428Y-125249398D01*
X64048678Y-125109551D01*
X64002648Y-124957808D01*
X63987105Y-124800000D01*
X64002648Y-124642192D01*
X64048678Y-124490449D01*
X64123428Y-124350602D01*
X64224025Y-124228025D01*
X64346602Y-124127428D01*
X64486449Y-124052678D01*
X64638192Y-124006648D01*
X64756454Y-123995000D01*
X66343546Y-123995000D01*
X66461808Y-124006648D01*
X66461808Y-124006648D01*
G37*
G36*
X62307807Y-122252648D02*
G01*
X62459550Y-122298678D01*
X62599397Y-122373428D01*
X62721975Y-122474025D01*
X62822572Y-122596602D01*
X62897322Y-122736449D01*
X62943352Y-122888192D01*
X62955000Y-123006454D01*
X62955000Y-124593546D01*
X62943352Y-124711808D01*
X62897322Y-124863551D01*
X62822572Y-125003398D01*
X62721975Y-125125975D01*
X62599398Y-125226572D01*
X62459551Y-125301322D01*
X62307808Y-125347352D01*
X62150000Y-125362895D01*
X61992193Y-125347352D01*
X61840450Y-125301322D01*
X61700603Y-125226572D01*
X61578026Y-125125975D01*
X61477429Y-125003398D01*
X61402679Y-124863551D01*
X61356649Y-124711808D01*
X61345001Y-124593546D01*
X61345000Y-123006455D01*
X61356648Y-122888193D01*
X61402678Y-122736450D01*
X61477428Y-122596603D01*
X61578025Y-122474025D01*
X61700602Y-122373428D01*
X61840449Y-122298678D01*
X61992192Y-122252648D01*
X62150000Y-122237105D01*
X62307807Y-122252648D01*
X62307807Y-122252648D01*
G37*
G36*
X70907807Y-122252648D02*
G01*
X71059550Y-122298678D01*
X71199397Y-122373428D01*
X71321975Y-122474025D01*
X71422572Y-122596602D01*
X71497322Y-122736449D01*
X71543352Y-122888192D01*
X71555000Y-123006454D01*
X71555000Y-124593546D01*
X71543352Y-124711808D01*
X71497322Y-124863551D01*
X71422572Y-125003398D01*
X71321975Y-125125975D01*
X71199398Y-125226572D01*
X71059551Y-125301322D01*
X70907808Y-125347352D01*
X70750000Y-125362895D01*
X70592193Y-125347352D01*
X70440450Y-125301322D01*
X70300603Y-125226572D01*
X70178026Y-125125975D01*
X70077429Y-125003398D01*
X70002679Y-124863551D01*
X69956649Y-124711808D01*
X69945001Y-124593546D01*
X69945000Y-123006455D01*
X69956648Y-122888193D01*
X70002678Y-122736450D01*
X70077428Y-122596603D01*
X70178025Y-122474025D01*
X70300602Y-122373428D01*
X70440449Y-122298678D01*
X70592192Y-122252648D01*
X70750000Y-122237105D01*
X70907807Y-122252648D01*
X70907807Y-122252648D01*
G37*
G36*
X68807807Y-122252648D02*
G01*
X68959550Y-122298678D01*
X69099397Y-122373428D01*
X69221975Y-122474025D01*
X69322572Y-122596602D01*
X69397322Y-122736449D01*
X69443352Y-122888192D01*
X69455000Y-123006454D01*
X69455000Y-124593546D01*
X69443352Y-124711808D01*
X69397322Y-124863551D01*
X69322572Y-125003398D01*
X69221975Y-125125975D01*
X69099398Y-125226572D01*
X68959551Y-125301322D01*
X68807808Y-125347352D01*
X68650000Y-125362895D01*
X68492193Y-125347352D01*
X68340450Y-125301322D01*
X68200603Y-125226572D01*
X68078026Y-125125975D01*
X67977429Y-125003398D01*
X67902679Y-124863551D01*
X67856649Y-124711808D01*
X67845001Y-124593546D01*
X67845000Y-123006455D01*
X67856648Y-122888193D01*
X67902678Y-122736450D01*
X67977428Y-122596603D01*
X68078025Y-122474025D01*
X68200602Y-122373428D01*
X68340449Y-122298678D01*
X68492192Y-122252648D01*
X68650000Y-122237105D01*
X68807807Y-122252648D01*
X68807807Y-122252648D01*
G37*
G36*
X94388204Y-122151200D02*
G01*
X94521096Y-122191513D01*
X94643570Y-122256977D01*
X94750923Y-122345078D01*
X94839023Y-122452429D01*
X94904487Y-122574903D01*
X94944800Y-122707795D01*
X94955000Y-122811364D01*
X94955000Y-124188636D01*
X94944800Y-124292205D01*
X94904487Y-124425097D01*
X94839023Y-124547571D01*
X94750923Y-124654923D01*
X94643571Y-124743023D01*
X94521097Y-124808487D01*
X94388205Y-124848800D01*
X94250000Y-124862411D01*
X94111796Y-124848800D01*
X93978904Y-124808487D01*
X93856430Y-124743023D01*
X93749078Y-124654923D01*
X93660978Y-124547571D01*
X93595514Y-124425097D01*
X93555201Y-124292205D01*
X93545001Y-124188636D01*
X93545000Y-122811365D01*
X93555200Y-122707796D01*
X93595513Y-122574904D01*
X93660977Y-122452430D01*
X93749078Y-122345077D01*
X93856429Y-122256977D01*
X93978903Y-122191513D01*
X94111795Y-122151200D01*
X94250000Y-122137589D01*
X94388204Y-122151200D01*
X94388204Y-122151200D01*
G37*
G36*
X84388204Y-122151200D02*
G01*
X84521096Y-122191513D01*
X84643570Y-122256977D01*
X84750923Y-122345078D01*
X84839023Y-122452429D01*
X84904487Y-122574903D01*
X84944800Y-122707795D01*
X84955000Y-122811364D01*
X84955000Y-124188636D01*
X84944800Y-124292205D01*
X84904487Y-124425097D01*
X84839023Y-124547571D01*
X84750923Y-124654923D01*
X84643571Y-124743023D01*
X84521097Y-124808487D01*
X84388205Y-124848800D01*
X84250000Y-124862411D01*
X84111796Y-124848800D01*
X83978904Y-124808487D01*
X83856430Y-124743023D01*
X83749078Y-124654923D01*
X83660978Y-124547571D01*
X83595514Y-124425097D01*
X83555201Y-124292205D01*
X83545001Y-124188636D01*
X83545000Y-122811365D01*
X83555200Y-122707796D01*
X83595513Y-122574904D01*
X83660977Y-122452430D01*
X83749078Y-122345077D01*
X83856429Y-122256977D01*
X83978903Y-122191513D01*
X84111795Y-122151200D01*
X84250000Y-122137589D01*
X84388204Y-122151200D01*
X84388204Y-122151200D01*
G37*
G36*
X86888204Y-122151200D02*
G01*
X87021096Y-122191513D01*
X87143570Y-122256977D01*
X87250923Y-122345078D01*
X87339023Y-122452429D01*
X87404487Y-122574903D01*
X87444800Y-122707795D01*
X87455000Y-122811364D01*
X87455000Y-124188636D01*
X87444800Y-124292205D01*
X87404487Y-124425097D01*
X87339023Y-124547571D01*
X87250923Y-124654923D01*
X87143571Y-124743023D01*
X87021097Y-124808487D01*
X86888205Y-124848800D01*
X86750000Y-124862411D01*
X86611796Y-124848800D01*
X86478904Y-124808487D01*
X86356430Y-124743023D01*
X86249078Y-124654923D01*
X86160978Y-124547571D01*
X86095514Y-124425097D01*
X86055201Y-124292205D01*
X86045001Y-124188636D01*
X86045000Y-122811365D01*
X86055200Y-122707796D01*
X86095513Y-122574904D01*
X86160977Y-122452430D01*
X86249078Y-122345077D01*
X86356429Y-122256977D01*
X86478903Y-122191513D01*
X86611795Y-122151200D01*
X86750000Y-122137589D01*
X86888204Y-122151200D01*
X86888204Y-122151200D01*
G37*
G36*
X89439890Y-122874017D02*
G01*
X89474119Y-122888195D01*
X89558364Y-122923091D01*
X89664988Y-122994335D01*
X89755665Y-123085012D01*
X89826909Y-123191636D01*
X89875983Y-123310110D01*
X89901000Y-123435882D01*
X89901000Y-123564118D01*
X89875983Y-123689890D01*
X89826909Y-123808364D01*
X89755665Y-123914988D01*
X89664988Y-124005665D01*
X89558364Y-124076909D01*
X89558363Y-124076910D01*
X89558362Y-124076910D01*
X89439890Y-124125983D01*
X89314119Y-124151000D01*
X89185881Y-124151000D01*
X89060110Y-124125983D01*
X88941638Y-124076910D01*
X88941637Y-124076910D01*
X88941636Y-124076909D01*
X88835012Y-124005665D01*
X88744335Y-123914988D01*
X88673091Y-123808364D01*
X88624017Y-123689890D01*
X88599000Y-123564118D01*
X88599000Y-123435882D01*
X88624017Y-123310110D01*
X88673091Y-123191636D01*
X88744335Y-123085012D01*
X88835012Y-122994335D01*
X88941636Y-122923091D01*
X89025882Y-122888195D01*
X89060110Y-122874017D01*
X89185881Y-122849000D01*
X89314119Y-122849000D01*
X89439890Y-122874017D01*
X89439890Y-122874017D01*
G37*
G36*
X17401000Y-123441000D02*
G01*
X15599000Y-123441000D01*
X15599000Y-121639000D01*
X17401000Y-121639000D01*
X17401000Y-123441000D01*
X17401000Y-123441000D01*
G37*
G36*
X269518604Y-120728347D02*
G01*
X269555144Y-120739432D01*
X269588821Y-120757433D01*
X269618341Y-120781659D01*
X269642567Y-120811179D01*
X269660568Y-120844856D01*
X269671653Y-120881396D01*
X269676000Y-120925538D01*
X269676000Y-121874462D01*
X269671653Y-121918604D01*
X269660568Y-121955144D01*
X269642567Y-121988821D01*
X269618341Y-122018341D01*
X269588821Y-122042567D01*
X269555144Y-122060568D01*
X269518604Y-122071653D01*
X269474462Y-122076000D01*
X268025538Y-122076000D01*
X267981396Y-122071653D01*
X267944856Y-122060568D01*
X267911179Y-122042567D01*
X267881659Y-122018341D01*
X267857433Y-121988821D01*
X267839432Y-121955144D01*
X267828347Y-121918604D01*
X267824000Y-121874462D01*
X267824000Y-120925538D01*
X267828347Y-120881396D01*
X267839432Y-120844856D01*
X267857433Y-120811179D01*
X267881659Y-120781659D01*
X267911179Y-120757433D01*
X267944856Y-120739432D01*
X267981396Y-120728347D01*
X268025538Y-120724000D01*
X269474462Y-120724000D01*
X269518604Y-120728347D01*
X269518604Y-120728347D01*
G37*
G36*
X221518604Y-120728347D02*
G01*
X221555144Y-120739432D01*
X221588821Y-120757433D01*
X221618341Y-120781659D01*
X221642567Y-120811179D01*
X221660568Y-120844856D01*
X221671653Y-120881396D01*
X221676000Y-120925538D01*
X221676000Y-121874462D01*
X221671653Y-121918604D01*
X221660568Y-121955144D01*
X221642567Y-121988821D01*
X221618341Y-122018341D01*
X221588821Y-122042567D01*
X221555144Y-122060568D01*
X221518604Y-122071653D01*
X221474462Y-122076000D01*
X220025538Y-122076000D01*
X219981396Y-122071653D01*
X219944856Y-122060568D01*
X219911179Y-122042567D01*
X219881659Y-122018341D01*
X219857433Y-121988821D01*
X219839432Y-121955144D01*
X219828347Y-121918604D01*
X219824000Y-121874462D01*
X219824000Y-120925538D01*
X219828347Y-120881396D01*
X219839432Y-120844856D01*
X219857433Y-120811179D01*
X219881659Y-120781659D01*
X219911179Y-120757433D01*
X219944856Y-120739432D01*
X219981396Y-120728347D01*
X220025538Y-120724000D01*
X221474462Y-120724000D01*
X221518604Y-120728347D01*
X221518604Y-120728347D01*
G37*
G36*
X173518604Y-120728347D02*
G01*
X173555144Y-120739432D01*
X173588821Y-120757433D01*
X173618341Y-120781659D01*
X173642567Y-120811179D01*
X173660568Y-120844856D01*
X173671653Y-120881396D01*
X173676000Y-120925538D01*
X173676000Y-121874462D01*
X173671653Y-121918604D01*
X173660568Y-121955144D01*
X173642567Y-121988821D01*
X173618341Y-122018341D01*
X173588821Y-122042567D01*
X173555144Y-122060568D01*
X173518604Y-122071653D01*
X173474462Y-122076000D01*
X172025538Y-122076000D01*
X171981396Y-122071653D01*
X171944856Y-122060568D01*
X171911179Y-122042567D01*
X171881659Y-122018341D01*
X171857433Y-121988821D01*
X171839432Y-121955144D01*
X171828347Y-121918604D01*
X171824000Y-121874462D01*
X171824000Y-120925538D01*
X171828347Y-120881396D01*
X171839432Y-120844856D01*
X171857433Y-120811179D01*
X171881659Y-120781659D01*
X171911179Y-120757433D01*
X171944856Y-120739432D01*
X171981396Y-120728347D01*
X172025538Y-120724000D01*
X173474462Y-120724000D01*
X173518604Y-120728347D01*
X173518604Y-120728347D01*
G37*
G36*
X125518604Y-120728347D02*
G01*
X125555144Y-120739432D01*
X125588821Y-120757433D01*
X125618341Y-120781659D01*
X125642567Y-120811179D01*
X125660568Y-120844856D01*
X125671653Y-120881396D01*
X125676000Y-120925538D01*
X125676000Y-121874462D01*
X125671653Y-121918604D01*
X125660568Y-121955144D01*
X125642567Y-121988821D01*
X125618341Y-122018341D01*
X125588821Y-122042567D01*
X125555144Y-122060568D01*
X125518604Y-122071653D01*
X125474462Y-122076000D01*
X124025538Y-122076000D01*
X123981396Y-122071653D01*
X123944856Y-122060568D01*
X123911179Y-122042567D01*
X123881659Y-122018341D01*
X123857433Y-121988821D01*
X123839432Y-121955144D01*
X123828347Y-121918604D01*
X123824000Y-121874462D01*
X123824000Y-120925538D01*
X123828347Y-120881396D01*
X123839432Y-120844856D01*
X123857433Y-120811179D01*
X123881659Y-120781659D01*
X123911179Y-120757433D01*
X123944856Y-120739432D01*
X123981396Y-120728347D01*
X124025538Y-120724000D01*
X125474462Y-120724000D01*
X125518604Y-120728347D01*
X125518604Y-120728347D01*
G37*
G36*
X77518604Y-120728347D02*
G01*
X77555144Y-120739432D01*
X77588821Y-120757433D01*
X77618341Y-120781659D01*
X77642567Y-120811179D01*
X77660568Y-120844856D01*
X77671653Y-120881396D01*
X77676000Y-120925538D01*
X77676000Y-121874462D01*
X77671653Y-121918604D01*
X77660568Y-121955144D01*
X77642567Y-121988821D01*
X77618341Y-122018341D01*
X77588821Y-122042567D01*
X77555144Y-122060568D01*
X77518604Y-122071653D01*
X77474462Y-122076000D01*
X76025538Y-122076000D01*
X75981396Y-122071653D01*
X75944856Y-122060568D01*
X75911179Y-122042567D01*
X75881659Y-122018341D01*
X75857433Y-121988821D01*
X75839432Y-121955144D01*
X75828347Y-121918604D01*
X75824000Y-121874462D01*
X75824000Y-120925538D01*
X75828347Y-120881396D01*
X75839432Y-120844856D01*
X75857433Y-120811179D01*
X75881659Y-120781659D01*
X75911179Y-120757433D01*
X75944856Y-120739432D01*
X75981396Y-120728347D01*
X76025538Y-120724000D01*
X77474462Y-120724000D01*
X77518604Y-120728347D01*
X77518604Y-120728347D01*
G37*
G36*
X29518604Y-120728347D02*
G01*
X29555144Y-120739432D01*
X29588821Y-120757433D01*
X29618341Y-120781659D01*
X29642567Y-120811179D01*
X29660568Y-120844856D01*
X29671653Y-120881396D01*
X29676000Y-120925538D01*
X29676000Y-121874462D01*
X29671653Y-121918604D01*
X29660568Y-121955144D01*
X29642567Y-121988821D01*
X29618341Y-122018341D01*
X29588821Y-122042567D01*
X29555144Y-122060568D01*
X29518604Y-122071653D01*
X29474462Y-122076000D01*
X28025538Y-122076000D01*
X27981396Y-122071653D01*
X27944856Y-122060568D01*
X27911179Y-122042567D01*
X27881659Y-122018341D01*
X27857433Y-121988821D01*
X27839432Y-121955144D01*
X27828347Y-121918604D01*
X27824000Y-121874462D01*
X27824000Y-120925538D01*
X27828347Y-120881396D01*
X27839432Y-120844856D01*
X27857433Y-120811179D01*
X27881659Y-120781659D01*
X27911179Y-120757433D01*
X27944856Y-120739432D01*
X27981396Y-120728347D01*
X28025538Y-120724000D01*
X29474462Y-120724000D01*
X29518604Y-120728347D01*
X29518604Y-120728347D01*
G37*
G36*
X281110442Y-120145518D02*
G01*
X281176627Y-120152037D01*
X281346466Y-120203557D01*
X281502991Y-120287222D01*
X281538729Y-120316552D01*
X281640186Y-120399814D01*
X281712880Y-120488393D01*
X281752778Y-120537009D01*
X281836443Y-120693534D01*
X281887963Y-120863373D01*
X281905359Y-121040000D01*
X281887963Y-121216627D01*
X281836443Y-121386466D01*
X281752778Y-121542991D01*
X281723448Y-121578729D01*
X281640186Y-121680186D01*
X281538729Y-121763448D01*
X281502991Y-121792778D01*
X281346466Y-121876443D01*
X281176627Y-121927963D01*
X281110443Y-121934481D01*
X281044260Y-121941000D01*
X280955740Y-121941000D01*
X280889557Y-121934481D01*
X280823373Y-121927963D01*
X280653534Y-121876443D01*
X280497009Y-121792778D01*
X280461271Y-121763448D01*
X280359814Y-121680186D01*
X280276552Y-121578729D01*
X280247222Y-121542991D01*
X280163557Y-121386466D01*
X280112037Y-121216627D01*
X280094641Y-121040000D01*
X280112037Y-120863373D01*
X280163557Y-120693534D01*
X280247222Y-120537009D01*
X280287120Y-120488393D01*
X280359814Y-120399814D01*
X280461271Y-120316552D01*
X280497009Y-120287222D01*
X280653534Y-120203557D01*
X280823373Y-120152037D01*
X280889558Y-120145518D01*
X280955740Y-120139000D01*
X281044260Y-120139000D01*
X281110442Y-120145518D01*
X281110442Y-120145518D01*
G37*
G36*
X55110443Y-119895519D02*
G01*
X55176627Y-119902037D01*
X55346466Y-119953557D01*
X55502991Y-120037222D01*
X55534880Y-120063393D01*
X55640186Y-120149814D01*
X55723448Y-120251271D01*
X55752778Y-120287009D01*
X55836443Y-120443534D01*
X55887963Y-120613373D01*
X55905359Y-120790000D01*
X55887963Y-120966627D01*
X55836443Y-121136466D01*
X55752778Y-121292991D01*
X55723448Y-121328729D01*
X55640186Y-121430186D01*
X55561372Y-121494866D01*
X55502991Y-121542778D01*
X55346466Y-121626443D01*
X55176627Y-121677963D01*
X55110443Y-121684481D01*
X55044260Y-121691000D01*
X54955740Y-121691000D01*
X54889557Y-121684481D01*
X54823373Y-121677963D01*
X54653534Y-121626443D01*
X54497009Y-121542778D01*
X54438628Y-121494866D01*
X54359814Y-121430186D01*
X54276552Y-121328729D01*
X54247222Y-121292991D01*
X54163557Y-121136466D01*
X54112037Y-120966627D01*
X54094641Y-120790000D01*
X54112037Y-120613373D01*
X54163557Y-120443534D01*
X54247222Y-120287009D01*
X54276552Y-120251271D01*
X54359814Y-120149814D01*
X54465120Y-120063393D01*
X54497009Y-120037222D01*
X54653534Y-119953557D01*
X54823373Y-119902037D01*
X54889557Y-119895519D01*
X54955740Y-119889000D01*
X55044260Y-119889000D01*
X55110443Y-119895519D01*
X55110443Y-119895519D01*
G37*
G36*
X276125256Y-118391298D02*
G01*
X276231579Y-118412447D01*
X276374664Y-118471715D01*
X276479560Y-118515164D01*
X276532042Y-118536903D01*
X276802451Y-118717585D01*
X277032415Y-118947549D01*
X277205608Y-119206750D01*
X277213098Y-119217960D01*
X277225218Y-119247221D01*
X277328685Y-119497011D01*
X277337553Y-119518422D01*
X277401000Y-119837389D01*
X277401000Y-120162611D01*
X277376255Y-120287009D01*
X277337553Y-120481579D01*
X277294122Y-120586431D01*
X277223291Y-120757433D01*
X277213097Y-120782042D01*
X277032415Y-121052451D01*
X276802451Y-121282415D01*
X276532042Y-121463097D01*
X276532041Y-121463098D01*
X276532040Y-121463098D01*
X276455345Y-121494866D01*
X276231579Y-121587553D01*
X276125256Y-121608702D01*
X275912611Y-121651000D01*
X275587389Y-121651000D01*
X275374744Y-121608702D01*
X275268421Y-121587553D01*
X275044655Y-121494866D01*
X274967960Y-121463098D01*
X274967959Y-121463098D01*
X274967958Y-121463097D01*
X274697549Y-121282415D01*
X274467585Y-121052451D01*
X274286903Y-120782042D01*
X274276710Y-120757433D01*
X274205878Y-120586431D01*
X274162447Y-120481579D01*
X274123745Y-120287009D01*
X274099000Y-120162611D01*
X274099000Y-119837389D01*
X274162447Y-119518422D01*
X274171316Y-119497011D01*
X274274782Y-119247221D01*
X274286902Y-119217960D01*
X274294392Y-119206750D01*
X274467585Y-118947549D01*
X274697549Y-118717585D01*
X274967958Y-118536903D01*
X275020441Y-118515164D01*
X275125336Y-118471715D01*
X275268421Y-118412447D01*
X275374744Y-118391298D01*
X275587389Y-118349000D01*
X275912611Y-118349000D01*
X276125256Y-118391298D01*
X276125256Y-118391298D01*
G37*
G36*
X149125256Y-118391298D02*
G01*
X149231579Y-118412447D01*
X149374664Y-118471715D01*
X149479560Y-118515164D01*
X149532042Y-118536903D01*
X149802451Y-118717585D01*
X150032415Y-118947549D01*
X150205608Y-119206750D01*
X150213098Y-119217960D01*
X150225218Y-119247221D01*
X150328685Y-119497011D01*
X150337553Y-119518422D01*
X150401000Y-119837389D01*
X150401000Y-120162611D01*
X150376255Y-120287009D01*
X150337553Y-120481579D01*
X150294122Y-120586431D01*
X150223291Y-120757433D01*
X150213097Y-120782042D01*
X150032415Y-121052451D01*
X149802451Y-121282415D01*
X149532042Y-121463097D01*
X149532041Y-121463098D01*
X149532040Y-121463098D01*
X149455345Y-121494866D01*
X149231579Y-121587553D01*
X149125256Y-121608702D01*
X148912611Y-121651000D01*
X148587389Y-121651000D01*
X148374744Y-121608702D01*
X148268421Y-121587553D01*
X148044655Y-121494866D01*
X147967960Y-121463098D01*
X147967959Y-121463098D01*
X147967958Y-121463097D01*
X147697549Y-121282415D01*
X147467585Y-121052451D01*
X147286903Y-120782042D01*
X147276710Y-120757433D01*
X147205878Y-120586431D01*
X147162447Y-120481579D01*
X147123745Y-120287009D01*
X147099000Y-120162611D01*
X147099000Y-119837389D01*
X147162447Y-119518422D01*
X147171316Y-119497011D01*
X147274782Y-119247221D01*
X147286902Y-119217960D01*
X147294392Y-119206750D01*
X147467585Y-118947549D01*
X147697549Y-118717585D01*
X147967958Y-118536903D01*
X148020441Y-118515164D01*
X148125336Y-118471715D01*
X148268421Y-118412447D01*
X148374744Y-118391298D01*
X148587389Y-118349000D01*
X148912611Y-118349000D01*
X149125256Y-118391298D01*
X149125256Y-118391298D01*
G37*
G36*
X22125256Y-118391298D02*
G01*
X22231579Y-118412447D01*
X22374664Y-118471715D01*
X22479560Y-118515164D01*
X22532042Y-118536903D01*
X22802451Y-118717585D01*
X23032415Y-118947549D01*
X23205608Y-119206750D01*
X23213098Y-119217960D01*
X23225218Y-119247221D01*
X23328685Y-119497011D01*
X23337553Y-119518422D01*
X23401000Y-119837389D01*
X23401000Y-120162611D01*
X23376255Y-120287009D01*
X23337553Y-120481579D01*
X23294122Y-120586431D01*
X23223291Y-120757433D01*
X23213097Y-120782042D01*
X23032415Y-121052451D01*
X22802451Y-121282415D01*
X22532042Y-121463097D01*
X22532041Y-121463098D01*
X22532040Y-121463098D01*
X22455345Y-121494866D01*
X22231579Y-121587553D01*
X22125256Y-121608702D01*
X21912611Y-121651000D01*
X21587389Y-121651000D01*
X21374744Y-121608702D01*
X21268421Y-121587553D01*
X21044655Y-121494866D01*
X20967960Y-121463098D01*
X20967959Y-121463098D01*
X20967958Y-121463097D01*
X20697549Y-121282415D01*
X20467585Y-121052451D01*
X20286903Y-120782042D01*
X20276710Y-120757433D01*
X20205878Y-120586431D01*
X20162447Y-120481579D01*
X20123745Y-120287009D01*
X20099000Y-120162611D01*
X20099000Y-119837389D01*
X20162447Y-119518422D01*
X20171316Y-119497011D01*
X20274782Y-119247221D01*
X20286902Y-119217960D01*
X20294392Y-119206750D01*
X20467585Y-118947549D01*
X20697549Y-118717585D01*
X20967958Y-118536903D01*
X21020441Y-118515164D01*
X21125336Y-118471715D01*
X21268421Y-118412447D01*
X21374744Y-118391298D01*
X21587389Y-118349000D01*
X21912611Y-118349000D01*
X22125256Y-118391298D01*
X22125256Y-118391298D01*
G37*
G36*
X112942091Y-120478085D02*
G01*
X112976069Y-120488393D01*
X113007390Y-120505134D01*
X113034839Y-120527661D01*
X113057366Y-120555110D01*
X113074107Y-120586431D01*
X113084415Y-120620409D01*
X113088500Y-120661890D01*
X113088500Y-121338110D01*
X113084415Y-121379591D01*
X113074107Y-121413569D01*
X113057366Y-121444890D01*
X113034839Y-121472339D01*
X113007390Y-121494866D01*
X112976069Y-121511607D01*
X112942091Y-121521915D01*
X112900610Y-121526000D01*
X112299390Y-121526000D01*
X112257909Y-121521915D01*
X112223931Y-121511607D01*
X112192610Y-121494866D01*
X112165161Y-121472339D01*
X112142634Y-121444890D01*
X112125893Y-121413569D01*
X112115585Y-121379591D01*
X112111500Y-121338110D01*
X112111500Y-120661890D01*
X112115585Y-120620409D01*
X112125893Y-120586431D01*
X112142634Y-120555110D01*
X112165161Y-120527661D01*
X112192610Y-120505134D01*
X112223931Y-120488393D01*
X112257909Y-120478085D01*
X112299390Y-120474000D01*
X112900610Y-120474000D01*
X112942091Y-120478085D01*
X112942091Y-120478085D01*
G37*
G36*
X111367091Y-120478085D02*
G01*
X111401069Y-120488393D01*
X111432390Y-120505134D01*
X111459839Y-120527661D01*
X111482366Y-120555110D01*
X111499107Y-120586431D01*
X111509415Y-120620409D01*
X111513500Y-120661890D01*
X111513500Y-121338110D01*
X111509415Y-121379591D01*
X111499107Y-121413569D01*
X111482366Y-121444890D01*
X111459839Y-121472339D01*
X111432390Y-121494866D01*
X111401069Y-121511607D01*
X111367091Y-121521915D01*
X111325610Y-121526000D01*
X110724390Y-121526000D01*
X110682909Y-121521915D01*
X110648931Y-121511607D01*
X110617610Y-121494866D01*
X110590161Y-121472339D01*
X110567634Y-121444890D01*
X110550893Y-121413569D01*
X110540585Y-121379591D01*
X110536500Y-121338110D01*
X110536500Y-120661890D01*
X110540585Y-120620409D01*
X110550893Y-120586431D01*
X110567634Y-120555110D01*
X110590161Y-120527661D01*
X110617610Y-120505134D01*
X110648931Y-120488393D01*
X110682909Y-120478085D01*
X110724390Y-120474000D01*
X111325610Y-120474000D01*
X111367091Y-120478085D01*
X111367091Y-120478085D01*
G37*
G36*
X260629591Y-120053085D02*
G01*
X260663569Y-120063393D01*
X260694890Y-120080134D01*
X260722339Y-120102661D01*
X260744866Y-120130110D01*
X260761607Y-120161431D01*
X260771915Y-120195409D01*
X260776000Y-120236890D01*
X260776000Y-120838110D01*
X260771915Y-120879591D01*
X260761607Y-120913569D01*
X260744866Y-120944890D01*
X260722339Y-120972339D01*
X260694890Y-120994866D01*
X260663569Y-121011607D01*
X260629591Y-121021915D01*
X260588110Y-121026000D01*
X259911890Y-121026000D01*
X259870409Y-121021915D01*
X259836431Y-121011607D01*
X259805110Y-120994866D01*
X259777661Y-120972339D01*
X259755134Y-120944890D01*
X259738393Y-120913569D01*
X259728085Y-120879591D01*
X259724000Y-120838110D01*
X259724000Y-120236890D01*
X259728085Y-120195409D01*
X259738393Y-120161431D01*
X259755134Y-120130110D01*
X259777661Y-120102661D01*
X259805110Y-120080134D01*
X259836431Y-120063393D01*
X259870409Y-120053085D01*
X259911890Y-120049000D01*
X260588110Y-120049000D01*
X260629591Y-120053085D01*
X260629591Y-120053085D01*
G37*
G36*
X253629591Y-120053085D02*
G01*
X253663569Y-120063393D01*
X253694890Y-120080134D01*
X253722339Y-120102661D01*
X253744866Y-120130110D01*
X253761607Y-120161431D01*
X253771915Y-120195409D01*
X253776000Y-120236890D01*
X253776000Y-120838110D01*
X253771915Y-120879591D01*
X253761607Y-120913569D01*
X253744866Y-120944890D01*
X253722339Y-120972339D01*
X253694890Y-120994866D01*
X253663569Y-121011607D01*
X253629591Y-121021915D01*
X253588110Y-121026000D01*
X252911890Y-121026000D01*
X252870409Y-121021915D01*
X252836431Y-121011607D01*
X252805110Y-120994866D01*
X252777661Y-120972339D01*
X252755134Y-120944890D01*
X252738393Y-120913569D01*
X252728085Y-120879591D01*
X252724000Y-120838110D01*
X252724000Y-120236890D01*
X252728085Y-120195409D01*
X252738393Y-120161431D01*
X252755134Y-120130110D01*
X252777661Y-120102661D01*
X252805110Y-120080134D01*
X252836431Y-120063393D01*
X252870409Y-120053085D01*
X252911890Y-120049000D01*
X253588110Y-120049000D01*
X253629591Y-120053085D01*
X253629591Y-120053085D01*
G37*
G36*
X246629591Y-120053085D02*
G01*
X246663569Y-120063393D01*
X246694890Y-120080134D01*
X246722339Y-120102661D01*
X246744866Y-120130110D01*
X246761607Y-120161431D01*
X246771915Y-120195409D01*
X246776000Y-120236890D01*
X246776000Y-120838110D01*
X246771915Y-120879591D01*
X246761607Y-120913569D01*
X246744866Y-120944890D01*
X246722339Y-120972339D01*
X246694890Y-120994866D01*
X246663569Y-121011607D01*
X246629591Y-121021915D01*
X246588110Y-121026000D01*
X245911890Y-121026000D01*
X245870409Y-121021915D01*
X245836431Y-121011607D01*
X245805110Y-120994866D01*
X245777661Y-120972339D01*
X245755134Y-120944890D01*
X245738393Y-120913569D01*
X245728085Y-120879591D01*
X245724000Y-120838110D01*
X245724000Y-120236890D01*
X245728085Y-120195409D01*
X245738393Y-120161431D01*
X245755134Y-120130110D01*
X245777661Y-120102661D01*
X245805110Y-120080134D01*
X245836431Y-120063393D01*
X245870409Y-120053085D01*
X245911890Y-120049000D01*
X246588110Y-120049000D01*
X246629591Y-120053085D01*
X246629591Y-120053085D01*
G37*
G36*
X16610443Y-119105519D02*
G01*
X16676627Y-119112037D01*
X16846466Y-119163557D01*
X17002991Y-119247222D01*
X17032760Y-119271653D01*
X17140186Y-119359814D01*
X17199761Y-119432408D01*
X17252778Y-119497009D01*
X17336443Y-119653534D01*
X17387963Y-119823373D01*
X17405359Y-120000000D01*
X17387963Y-120176627D01*
X17336443Y-120346466D01*
X17252778Y-120502991D01*
X17232532Y-120527661D01*
X17140186Y-120640186D01*
X17075180Y-120693534D01*
X17002991Y-120752778D01*
X16846466Y-120836443D01*
X16676627Y-120887963D01*
X16610442Y-120894482D01*
X16544260Y-120901000D01*
X16455740Y-120901000D01*
X16389558Y-120894482D01*
X16323373Y-120887963D01*
X16153534Y-120836443D01*
X15997009Y-120752778D01*
X15924820Y-120693534D01*
X15859814Y-120640186D01*
X15767468Y-120527661D01*
X15747222Y-120502991D01*
X15663557Y-120346466D01*
X15612037Y-120176627D01*
X15594641Y-120000000D01*
X15612037Y-119823373D01*
X15663557Y-119653534D01*
X15747222Y-119497009D01*
X15800239Y-119432408D01*
X15859814Y-119359814D01*
X15967240Y-119271653D01*
X15997009Y-119247222D01*
X16153534Y-119163557D01*
X16323373Y-119112037D01*
X16389557Y-119105519D01*
X16455740Y-119099000D01*
X16544260Y-119099000D01*
X16610443Y-119105519D01*
X16610443Y-119105519D01*
G37*
G36*
X246629591Y-118478085D02*
G01*
X246663569Y-118488393D01*
X246694890Y-118505134D01*
X246722339Y-118527661D01*
X246744866Y-118555110D01*
X246761607Y-118586431D01*
X246771915Y-118620409D01*
X246776000Y-118661890D01*
X246776000Y-119263110D01*
X246771915Y-119304591D01*
X246761607Y-119338569D01*
X246744866Y-119369890D01*
X246722339Y-119397339D01*
X246694890Y-119419866D01*
X246663569Y-119436607D01*
X246629591Y-119446915D01*
X246588110Y-119451000D01*
X245911890Y-119451000D01*
X245870409Y-119446915D01*
X245836431Y-119436607D01*
X245805110Y-119419866D01*
X245777661Y-119397339D01*
X245755134Y-119369890D01*
X245738393Y-119338569D01*
X245728085Y-119304591D01*
X245724000Y-119263110D01*
X245724000Y-118661890D01*
X245728085Y-118620409D01*
X245738393Y-118586431D01*
X245755134Y-118555110D01*
X245777661Y-118527661D01*
X245805110Y-118505134D01*
X245836431Y-118488393D01*
X245870409Y-118478085D01*
X245911890Y-118474000D01*
X246588110Y-118474000D01*
X246629591Y-118478085D01*
X246629591Y-118478085D01*
G37*
G36*
X260629591Y-118478085D02*
G01*
X260663569Y-118488393D01*
X260694890Y-118505134D01*
X260722339Y-118527661D01*
X260744866Y-118555110D01*
X260761607Y-118586431D01*
X260771915Y-118620409D01*
X260776000Y-118661890D01*
X260776000Y-119263110D01*
X260771915Y-119304591D01*
X260761607Y-119338569D01*
X260744866Y-119369890D01*
X260722339Y-119397339D01*
X260694890Y-119419866D01*
X260663569Y-119436607D01*
X260629591Y-119446915D01*
X260588110Y-119451000D01*
X259911890Y-119451000D01*
X259870409Y-119446915D01*
X259836431Y-119436607D01*
X259805110Y-119419866D01*
X259777661Y-119397339D01*
X259755134Y-119369890D01*
X259738393Y-119338569D01*
X259728085Y-119304591D01*
X259724000Y-119263110D01*
X259724000Y-118661890D01*
X259728085Y-118620409D01*
X259738393Y-118586431D01*
X259755134Y-118555110D01*
X259777661Y-118527661D01*
X259805110Y-118505134D01*
X259836431Y-118488393D01*
X259870409Y-118478085D01*
X259911890Y-118474000D01*
X260588110Y-118474000D01*
X260629591Y-118478085D01*
X260629591Y-118478085D01*
G37*
G36*
X253629591Y-118478085D02*
G01*
X253663569Y-118488393D01*
X253694890Y-118505134D01*
X253722339Y-118527661D01*
X253744866Y-118555110D01*
X253761607Y-118586431D01*
X253771915Y-118620409D01*
X253776000Y-118661890D01*
X253776000Y-119263110D01*
X253771915Y-119304591D01*
X253761607Y-119338569D01*
X253744866Y-119369890D01*
X253722339Y-119397339D01*
X253694890Y-119419866D01*
X253663569Y-119436607D01*
X253629591Y-119446915D01*
X253588110Y-119451000D01*
X252911890Y-119451000D01*
X252870409Y-119446915D01*
X252836431Y-119436607D01*
X252805110Y-119419866D01*
X252777661Y-119397339D01*
X252755134Y-119369890D01*
X252738393Y-119338569D01*
X252728085Y-119304591D01*
X252724000Y-119263110D01*
X252724000Y-118661890D01*
X252728085Y-118620409D01*
X252738393Y-118586431D01*
X252755134Y-118555110D01*
X252777661Y-118527661D01*
X252805110Y-118505134D01*
X252836431Y-118488393D01*
X252870409Y-118478085D01*
X252911890Y-118474000D01*
X253588110Y-118474000D01*
X253629591Y-118478085D01*
X253629591Y-118478085D01*
G37*
G36*
X281901000Y-119401000D02*
G01*
X280099000Y-119401000D01*
X280099000Y-117599000D01*
X281901000Y-117599000D01*
X281901000Y-119401000D01*
X281901000Y-119401000D01*
G37*
G36*
X125518604Y-117928347D02*
G01*
X125555144Y-117939432D01*
X125588821Y-117957433D01*
X125618341Y-117981659D01*
X125642567Y-118011179D01*
X125660568Y-118044856D01*
X125671653Y-118081396D01*
X125676000Y-118125538D01*
X125676000Y-119074462D01*
X125671653Y-119118604D01*
X125660568Y-119155144D01*
X125642567Y-119188821D01*
X125618341Y-119218341D01*
X125588821Y-119242567D01*
X125555144Y-119260568D01*
X125518604Y-119271653D01*
X125474462Y-119276000D01*
X124025538Y-119276000D01*
X123981396Y-119271653D01*
X123944856Y-119260568D01*
X123911179Y-119242567D01*
X123881659Y-119218341D01*
X123857433Y-119188821D01*
X123839432Y-119155144D01*
X123828347Y-119118604D01*
X123824000Y-119074462D01*
X123824000Y-118125538D01*
X123828347Y-118081396D01*
X123839432Y-118044856D01*
X123857433Y-118011179D01*
X123881659Y-117981659D01*
X123911179Y-117957433D01*
X123944856Y-117939432D01*
X123981396Y-117928347D01*
X124025538Y-117924000D01*
X125474462Y-117924000D01*
X125518604Y-117928347D01*
X125518604Y-117928347D01*
G37*
G36*
X29518604Y-117928347D02*
G01*
X29555144Y-117939432D01*
X29588821Y-117957433D01*
X29618341Y-117981659D01*
X29642567Y-118011179D01*
X29660568Y-118044856D01*
X29671653Y-118081396D01*
X29676000Y-118125538D01*
X29676000Y-119074462D01*
X29671653Y-119118604D01*
X29660568Y-119155144D01*
X29642567Y-119188821D01*
X29618341Y-119218341D01*
X29588821Y-119242567D01*
X29555144Y-119260568D01*
X29518604Y-119271653D01*
X29474462Y-119276000D01*
X28025538Y-119276000D01*
X27981396Y-119271653D01*
X27944856Y-119260568D01*
X27911179Y-119242567D01*
X27881659Y-119218341D01*
X27857433Y-119188821D01*
X27839432Y-119155144D01*
X27828347Y-119118604D01*
X27824000Y-119074462D01*
X27824000Y-118125538D01*
X27828347Y-118081396D01*
X27839432Y-118044856D01*
X27857433Y-118011179D01*
X27881659Y-117981659D01*
X27911179Y-117957433D01*
X27944856Y-117939432D01*
X27981396Y-117928347D01*
X28025538Y-117924000D01*
X29474462Y-117924000D01*
X29518604Y-117928347D01*
X29518604Y-117928347D01*
G37*
G36*
X173518604Y-117928347D02*
G01*
X173555144Y-117939432D01*
X173588821Y-117957433D01*
X173618341Y-117981659D01*
X173642567Y-118011179D01*
X173660568Y-118044856D01*
X173671653Y-118081396D01*
X173676000Y-118125538D01*
X173676000Y-119074462D01*
X173671653Y-119118604D01*
X173660568Y-119155144D01*
X173642567Y-119188821D01*
X173618341Y-119218341D01*
X173588821Y-119242567D01*
X173555144Y-119260568D01*
X173518604Y-119271653D01*
X173474462Y-119276000D01*
X172025538Y-119276000D01*
X171981396Y-119271653D01*
X171944856Y-119260568D01*
X171911179Y-119242567D01*
X171881659Y-119218341D01*
X171857433Y-119188821D01*
X171839432Y-119155144D01*
X171828347Y-119118604D01*
X171824000Y-119074462D01*
X171824000Y-118125538D01*
X171828347Y-118081396D01*
X171839432Y-118044856D01*
X171857433Y-118011179D01*
X171881659Y-117981659D01*
X171911179Y-117957433D01*
X171944856Y-117939432D01*
X171981396Y-117928347D01*
X172025538Y-117924000D01*
X173474462Y-117924000D01*
X173518604Y-117928347D01*
X173518604Y-117928347D01*
G37*
G36*
X269518604Y-117928347D02*
G01*
X269555144Y-117939432D01*
X269588821Y-117957433D01*
X269618341Y-117981659D01*
X269642567Y-118011179D01*
X269660568Y-118044856D01*
X269671653Y-118081396D01*
X269676000Y-118125538D01*
X269676000Y-119074462D01*
X269671653Y-119118604D01*
X269660568Y-119155144D01*
X269642567Y-119188821D01*
X269618341Y-119218341D01*
X269588821Y-119242567D01*
X269555144Y-119260568D01*
X269518604Y-119271653D01*
X269474462Y-119276000D01*
X268025538Y-119276000D01*
X267981396Y-119271653D01*
X267944856Y-119260568D01*
X267911179Y-119242567D01*
X267881659Y-119218341D01*
X267857433Y-119188821D01*
X267839432Y-119155144D01*
X267828347Y-119118604D01*
X267824000Y-119074462D01*
X267824000Y-118125538D01*
X267828347Y-118081396D01*
X267839432Y-118044856D01*
X267857433Y-118011179D01*
X267881659Y-117981659D01*
X267911179Y-117957433D01*
X267944856Y-117939432D01*
X267981396Y-117928347D01*
X268025538Y-117924000D01*
X269474462Y-117924000D01*
X269518604Y-117928347D01*
X269518604Y-117928347D01*
G37*
G36*
X221518604Y-117928347D02*
G01*
X221555144Y-117939432D01*
X221588821Y-117957433D01*
X221618341Y-117981659D01*
X221642567Y-118011179D01*
X221660568Y-118044856D01*
X221671653Y-118081396D01*
X221676000Y-118125538D01*
X221676000Y-119074462D01*
X221671653Y-119118604D01*
X221660568Y-119155144D01*
X221642567Y-119188821D01*
X221618341Y-119218341D01*
X221588821Y-119242567D01*
X221555144Y-119260568D01*
X221518604Y-119271653D01*
X221474462Y-119276000D01*
X220025538Y-119276000D01*
X219981396Y-119271653D01*
X219944856Y-119260568D01*
X219911179Y-119242567D01*
X219881659Y-119218341D01*
X219857433Y-119188821D01*
X219839432Y-119155144D01*
X219828347Y-119118604D01*
X219824000Y-119074462D01*
X219824000Y-118125538D01*
X219828347Y-118081396D01*
X219839432Y-118044856D01*
X219857433Y-118011179D01*
X219881659Y-117981659D01*
X219911179Y-117957433D01*
X219944856Y-117939432D01*
X219981396Y-117928347D01*
X220025538Y-117924000D01*
X221474462Y-117924000D01*
X221518604Y-117928347D01*
X221518604Y-117928347D01*
G37*
G36*
X77518604Y-117928347D02*
G01*
X77555144Y-117939432D01*
X77588821Y-117957433D01*
X77618341Y-117981659D01*
X77642567Y-118011179D01*
X77660568Y-118044856D01*
X77671653Y-118081396D01*
X77676000Y-118125538D01*
X77676000Y-119074462D01*
X77671653Y-119118604D01*
X77660568Y-119155144D01*
X77642567Y-119188821D01*
X77618341Y-119218341D01*
X77588821Y-119242567D01*
X77555144Y-119260568D01*
X77518604Y-119271653D01*
X77474462Y-119276000D01*
X76025538Y-119276000D01*
X75981396Y-119271653D01*
X75944856Y-119260568D01*
X75911179Y-119242567D01*
X75881659Y-119218341D01*
X75857433Y-119188821D01*
X75839432Y-119155144D01*
X75828347Y-119118604D01*
X75824000Y-119074462D01*
X75824000Y-118125538D01*
X75828347Y-118081396D01*
X75839432Y-118044856D01*
X75857433Y-118011179D01*
X75881659Y-117981659D01*
X75911179Y-117957433D01*
X75944856Y-117939432D01*
X75981396Y-117928347D01*
X76025538Y-117924000D01*
X77474462Y-117924000D01*
X77518604Y-117928347D01*
X77518604Y-117928347D01*
G37*
G36*
X90042205Y-117805200D02*
G01*
X90175097Y-117845513D01*
X90297571Y-117910977D01*
X90404923Y-117999077D01*
X90493023Y-118106429D01*
X90558487Y-118228903D01*
X90598800Y-118361795D01*
X90612411Y-118500000D01*
X90598800Y-118638205D01*
X90558487Y-118771097D01*
X90493023Y-118893571D01*
X90404923Y-119000923D01*
X90297571Y-119089023D01*
X90175097Y-119154487D01*
X90042205Y-119194800D01*
X89938636Y-119205000D01*
X88561364Y-119205000D01*
X88457795Y-119194800D01*
X88324903Y-119154487D01*
X88202429Y-119089023D01*
X88095077Y-119000923D01*
X88006977Y-118893571D01*
X87941513Y-118771097D01*
X87901200Y-118638205D01*
X87887589Y-118500000D01*
X87901200Y-118361795D01*
X87941513Y-118228903D01*
X88006977Y-118106429D01*
X88095077Y-117999077D01*
X88202429Y-117910977D01*
X88324903Y-117845513D01*
X88457795Y-117805200D01*
X88561364Y-117795000D01*
X89938636Y-117795000D01*
X90042205Y-117805200D01*
X90042205Y-117805200D01*
G37*
G36*
X84439890Y-117874017D02*
G01*
X84529119Y-117910977D01*
X84558364Y-117923091D01*
X84624749Y-117967448D01*
X84664988Y-117994335D01*
X84755665Y-118085012D01*
X84826910Y-118191638D01*
X84875983Y-118310110D01*
X84901000Y-118435881D01*
X84901000Y-118564119D01*
X84896562Y-118586431D01*
X84875983Y-118689890D01*
X84826909Y-118808364D01*
X84755665Y-118914988D01*
X84664988Y-119005665D01*
X84558364Y-119076909D01*
X84558363Y-119076910D01*
X84558362Y-119076910D01*
X84439890Y-119125983D01*
X84314119Y-119151000D01*
X84185881Y-119151000D01*
X84060110Y-119125983D01*
X83941638Y-119076910D01*
X83941637Y-119076910D01*
X83941636Y-119076909D01*
X83835012Y-119005665D01*
X83744335Y-118914988D01*
X83673091Y-118808364D01*
X83624017Y-118689890D01*
X83603438Y-118586431D01*
X83599000Y-118564119D01*
X83599000Y-118435881D01*
X83624017Y-118310110D01*
X83673090Y-118191638D01*
X83744335Y-118085012D01*
X83835012Y-117994335D01*
X83875251Y-117967448D01*
X83941636Y-117923091D01*
X83970882Y-117910977D01*
X84060110Y-117874017D01*
X84185881Y-117849000D01*
X84314119Y-117849000D01*
X84439890Y-117874017D01*
X84439890Y-117874017D01*
G37*
G36*
X94439890Y-117874017D02*
G01*
X94529119Y-117910977D01*
X94558364Y-117923091D01*
X94624749Y-117967448D01*
X94664988Y-117994335D01*
X94755665Y-118085012D01*
X94826910Y-118191638D01*
X94875983Y-118310110D01*
X94901000Y-118435881D01*
X94901000Y-118564119D01*
X94896562Y-118586431D01*
X94875983Y-118689890D01*
X94826909Y-118808364D01*
X94755665Y-118914988D01*
X94664988Y-119005665D01*
X94558364Y-119076909D01*
X94558363Y-119076910D01*
X94558362Y-119076910D01*
X94439890Y-119125983D01*
X94314119Y-119151000D01*
X94185881Y-119151000D01*
X94060110Y-119125983D01*
X93941638Y-119076910D01*
X93941637Y-119076910D01*
X93941636Y-119076909D01*
X93835012Y-119005665D01*
X93744335Y-118914988D01*
X93673091Y-118808364D01*
X93624017Y-118689890D01*
X93603438Y-118586431D01*
X93599000Y-118564119D01*
X93599000Y-118435881D01*
X93624017Y-118310110D01*
X93673090Y-118191638D01*
X93744335Y-118085012D01*
X93835012Y-117994335D01*
X93875251Y-117967448D01*
X93941636Y-117923091D01*
X93970882Y-117910977D01*
X94060110Y-117874017D01*
X94185881Y-117849000D01*
X94314119Y-117849000D01*
X94439890Y-117874017D01*
X94439890Y-117874017D01*
G37*
G36*
X55901000Y-119151000D02*
G01*
X54099000Y-119151000D01*
X54099000Y-117349000D01*
X55901000Y-117349000D01*
X55901000Y-119151000D01*
X55901000Y-119151000D01*
G37*
G36*
X65914903Y-116297075D02*
G01*
X66142571Y-116391378D01*
X66347466Y-116528285D01*
X66521715Y-116702534D01*
X66658608Y-116907408D01*
X66658623Y-116907431D01*
X66752925Y-117135097D01*
X66801000Y-117376786D01*
X66801000Y-117623214D01*
X66752925Y-117864903D01*
X66695642Y-118003198D01*
X66658622Y-118092571D01*
X66521715Y-118297466D01*
X66347466Y-118471715D01*
X66142571Y-118608622D01*
X66142570Y-118608623D01*
X66142569Y-118608623D01*
X65914903Y-118702925D01*
X65673214Y-118751000D01*
X65426786Y-118751000D01*
X65185097Y-118702925D01*
X64957431Y-118608623D01*
X64957430Y-118608623D01*
X64957429Y-118608622D01*
X64752534Y-118471715D01*
X64578285Y-118297466D01*
X64441378Y-118092571D01*
X64404359Y-118003198D01*
X64347075Y-117864903D01*
X64299000Y-117623214D01*
X64299000Y-117376786D01*
X64347075Y-117135097D01*
X64441377Y-116907431D01*
X64441392Y-116907408D01*
X64578285Y-116702534D01*
X64752534Y-116528285D01*
X64957429Y-116391378D01*
X65185097Y-116297075D01*
X65426786Y-116249000D01*
X65673214Y-116249000D01*
X65914903Y-116297075D01*
X65914903Y-116297075D01*
G37*
G36*
X16610443Y-116565519D02*
G01*
X16676627Y-116572037D01*
X16846466Y-116623557D01*
X17002991Y-116707222D01*
X17030016Y-116729401D01*
X17140186Y-116819814D01*
X17212090Y-116907431D01*
X17252778Y-116957009D01*
X17252779Y-116957011D01*
X17310589Y-117065164D01*
X17336443Y-117113534D01*
X17387963Y-117283373D01*
X17405359Y-117460000D01*
X17387963Y-117636627D01*
X17336443Y-117806466D01*
X17252778Y-117962991D01*
X17237457Y-117981659D01*
X17140186Y-118100186D01*
X17038729Y-118183448D01*
X17002991Y-118212778D01*
X16846466Y-118296443D01*
X16676627Y-118347963D01*
X16610443Y-118354481D01*
X16544260Y-118361000D01*
X16455740Y-118361000D01*
X16389557Y-118354481D01*
X16323373Y-118347963D01*
X16153534Y-118296443D01*
X15997009Y-118212778D01*
X15961271Y-118183448D01*
X15859814Y-118100186D01*
X15762543Y-117981659D01*
X15747222Y-117962991D01*
X15663557Y-117806466D01*
X15612037Y-117636627D01*
X15594641Y-117460000D01*
X15612037Y-117283373D01*
X15663557Y-117113534D01*
X15689412Y-117065164D01*
X15747221Y-116957011D01*
X15747222Y-116957009D01*
X15787910Y-116907431D01*
X15859814Y-116819814D01*
X15969984Y-116729401D01*
X15997009Y-116707222D01*
X16153534Y-116623557D01*
X16323373Y-116572037D01*
X16389557Y-116565519D01*
X16455740Y-116559000D01*
X16544260Y-116559000D01*
X16610443Y-116565519D01*
X16610443Y-116565519D01*
G37*
G36*
X111267091Y-117028085D02*
G01*
X111301069Y-117038393D01*
X111332390Y-117055134D01*
X111359839Y-117077661D01*
X111382366Y-117105110D01*
X111399107Y-117136431D01*
X111409415Y-117170409D01*
X111413500Y-117211890D01*
X111413500Y-117888110D01*
X111409415Y-117929591D01*
X111399107Y-117963569D01*
X111382366Y-117994890D01*
X111359839Y-118022339D01*
X111332390Y-118044866D01*
X111301069Y-118061607D01*
X111267091Y-118071915D01*
X111225610Y-118076000D01*
X110624390Y-118076000D01*
X110582909Y-118071915D01*
X110548931Y-118061607D01*
X110517610Y-118044866D01*
X110490161Y-118022339D01*
X110467634Y-117994890D01*
X110450893Y-117963569D01*
X110440585Y-117929591D01*
X110436500Y-117888110D01*
X110436500Y-117211890D01*
X110440585Y-117170409D01*
X110450893Y-117136431D01*
X110467634Y-117105110D01*
X110490161Y-117077661D01*
X110517610Y-117055134D01*
X110548931Y-117038393D01*
X110582909Y-117028085D01*
X110624390Y-117024000D01*
X111225610Y-117024000D01*
X111267091Y-117028085D01*
X111267091Y-117028085D01*
G37*
G36*
X112842091Y-117028085D02*
G01*
X112876069Y-117038393D01*
X112907390Y-117055134D01*
X112934839Y-117077661D01*
X112957366Y-117105110D01*
X112974107Y-117136431D01*
X112984415Y-117170409D01*
X112988500Y-117211890D01*
X112988500Y-117888110D01*
X112984415Y-117929591D01*
X112974107Y-117963569D01*
X112957366Y-117994890D01*
X112934839Y-118022339D01*
X112907390Y-118044866D01*
X112876069Y-118061607D01*
X112842091Y-118071915D01*
X112800610Y-118076000D01*
X112199390Y-118076000D01*
X112157909Y-118071915D01*
X112123931Y-118061607D01*
X112092610Y-118044866D01*
X112065161Y-118022339D01*
X112042634Y-117994890D01*
X112025893Y-117963569D01*
X112015585Y-117929591D01*
X112011500Y-117888110D01*
X112011500Y-117211890D01*
X112015585Y-117170409D01*
X112025893Y-117136431D01*
X112042634Y-117105110D01*
X112065161Y-117077661D01*
X112092610Y-117055134D01*
X112123931Y-117038393D01*
X112157909Y-117028085D01*
X112199390Y-117024000D01*
X112800610Y-117024000D01*
X112842091Y-117028085D01*
X112842091Y-117028085D01*
G37*
G36*
X71807807Y-114952648D02*
G01*
X71959550Y-114998678D01*
X72099397Y-115073428D01*
X72221975Y-115174025D01*
X72322572Y-115296602D01*
X72397322Y-115436449D01*
X72443352Y-115588192D01*
X72455000Y-115706454D01*
X72455000Y-117293546D01*
X72443352Y-117411808D01*
X72397322Y-117563551D01*
X72322572Y-117703398D01*
X72221975Y-117825975D01*
X72099398Y-117926572D01*
X71959551Y-118001322D01*
X71807808Y-118047352D01*
X71650000Y-118062895D01*
X71492193Y-118047352D01*
X71340450Y-118001322D01*
X71200603Y-117926572D01*
X71078026Y-117825975D01*
X70977429Y-117703398D01*
X70902679Y-117563551D01*
X70856649Y-117411808D01*
X70845001Y-117293546D01*
X70845000Y-115706455D01*
X70856648Y-115588193D01*
X70902678Y-115436450D01*
X70977428Y-115296603D01*
X71078025Y-115174025D01*
X71200602Y-115073428D01*
X71340449Y-114998678D01*
X71492192Y-114952648D01*
X71650000Y-114937105D01*
X71807807Y-114952648D01*
X71807807Y-114952648D01*
G37*
G36*
X62007807Y-114952648D02*
G01*
X62159550Y-114998678D01*
X62299397Y-115073428D01*
X62421975Y-115174025D01*
X62522572Y-115296602D01*
X62597322Y-115436449D01*
X62643352Y-115588192D01*
X62655000Y-115706454D01*
X62655000Y-117293546D01*
X62643352Y-117411808D01*
X62597322Y-117563551D01*
X62522572Y-117703398D01*
X62421975Y-117825975D01*
X62299398Y-117926572D01*
X62159551Y-118001322D01*
X62007808Y-118047352D01*
X61850000Y-118062895D01*
X61692193Y-118047352D01*
X61540450Y-118001322D01*
X61400603Y-117926572D01*
X61278026Y-117825975D01*
X61177429Y-117703398D01*
X61102679Y-117563551D01*
X61056649Y-117411808D01*
X61045001Y-117293546D01*
X61045000Y-115706455D01*
X61056648Y-115588193D01*
X61102678Y-115436450D01*
X61177428Y-115296603D01*
X61278025Y-115174025D01*
X61400602Y-115073428D01*
X61540449Y-114998678D01*
X61692192Y-114952648D01*
X61850000Y-114937105D01*
X62007807Y-114952648D01*
X62007807Y-114952648D01*
G37*
G36*
X101929591Y-115878085D02*
G01*
X101963569Y-115888393D01*
X101994890Y-115905134D01*
X102022339Y-115927661D01*
X102044866Y-115955110D01*
X102061607Y-115986431D01*
X102071915Y-116020409D01*
X102076000Y-116061890D01*
X102076000Y-116738110D01*
X102071915Y-116779591D01*
X102061607Y-116813569D01*
X102044866Y-116844890D01*
X102022339Y-116872339D01*
X101994890Y-116894866D01*
X101963569Y-116911607D01*
X101929591Y-116921915D01*
X101888110Y-116926000D01*
X101286890Y-116926000D01*
X101245409Y-116921915D01*
X101211431Y-116911607D01*
X101180110Y-116894866D01*
X101152661Y-116872339D01*
X101130134Y-116844890D01*
X101113393Y-116813569D01*
X101103085Y-116779591D01*
X101099000Y-116738110D01*
X101099000Y-116061890D01*
X101103085Y-116020409D01*
X101113393Y-115986431D01*
X101130134Y-115955110D01*
X101152661Y-115927661D01*
X101180110Y-115905134D01*
X101211431Y-115888393D01*
X101245409Y-115878085D01*
X101286890Y-115874000D01*
X101888110Y-115874000D01*
X101929591Y-115878085D01*
X101929591Y-115878085D01*
G37*
G36*
X100354591Y-115878085D02*
G01*
X100388569Y-115888393D01*
X100419890Y-115905134D01*
X100447339Y-115927661D01*
X100469866Y-115955110D01*
X100486607Y-115986431D01*
X100496915Y-116020409D01*
X100501000Y-116061890D01*
X100501000Y-116738110D01*
X100496915Y-116779591D01*
X100486607Y-116813569D01*
X100469866Y-116844890D01*
X100447339Y-116872339D01*
X100419890Y-116894866D01*
X100388569Y-116911607D01*
X100354591Y-116921915D01*
X100313110Y-116926000D01*
X99711890Y-116926000D01*
X99670409Y-116921915D01*
X99636431Y-116911607D01*
X99605110Y-116894866D01*
X99577661Y-116872339D01*
X99555134Y-116844890D01*
X99538393Y-116813569D01*
X99528085Y-116779591D01*
X99524000Y-116738110D01*
X99524000Y-116061890D01*
X99528085Y-116020409D01*
X99538393Y-115986431D01*
X99555134Y-115955110D01*
X99577661Y-115927661D01*
X99605110Y-115905134D01*
X99636431Y-115888393D01*
X99670409Y-115878085D01*
X99711890Y-115874000D01*
X100313110Y-115874000D01*
X100354591Y-115878085D01*
X100354591Y-115878085D01*
G37*
G36*
X105242091Y-115878085D02*
G01*
X105276069Y-115888393D01*
X105307390Y-115905134D01*
X105334839Y-115927661D01*
X105357366Y-115955110D01*
X105374107Y-115986431D01*
X105384415Y-116020409D01*
X105388500Y-116061890D01*
X105388500Y-116738110D01*
X105384415Y-116779591D01*
X105374107Y-116813569D01*
X105357366Y-116844890D01*
X105334839Y-116872339D01*
X105307390Y-116894866D01*
X105276069Y-116911607D01*
X105242091Y-116921915D01*
X105200610Y-116926000D01*
X104599390Y-116926000D01*
X104557909Y-116921915D01*
X104523931Y-116911607D01*
X104492610Y-116894866D01*
X104465161Y-116872339D01*
X104442634Y-116844890D01*
X104425893Y-116813569D01*
X104415585Y-116779591D01*
X104411500Y-116738110D01*
X104411500Y-116061890D01*
X104415585Y-116020409D01*
X104425893Y-115986431D01*
X104442634Y-115955110D01*
X104465161Y-115927661D01*
X104492610Y-115905134D01*
X104523931Y-115888393D01*
X104557909Y-115878085D01*
X104599390Y-115874000D01*
X105200610Y-115874000D01*
X105242091Y-115878085D01*
X105242091Y-115878085D01*
G37*
G36*
X106817091Y-115878085D02*
G01*
X106851069Y-115888393D01*
X106882390Y-115905134D01*
X106909839Y-115927661D01*
X106932366Y-115955110D01*
X106949107Y-115986431D01*
X106959415Y-116020409D01*
X106963500Y-116061890D01*
X106963500Y-116738110D01*
X106959415Y-116779591D01*
X106949107Y-116813569D01*
X106932366Y-116844890D01*
X106909839Y-116872339D01*
X106882390Y-116894866D01*
X106851069Y-116911607D01*
X106817091Y-116921915D01*
X106775610Y-116926000D01*
X106174390Y-116926000D01*
X106132909Y-116921915D01*
X106098931Y-116911607D01*
X106067610Y-116894866D01*
X106040161Y-116872339D01*
X106017634Y-116844890D01*
X106000893Y-116813569D01*
X105990585Y-116779591D01*
X105986500Y-116738110D01*
X105986500Y-116061890D01*
X105990585Y-116020409D01*
X106000893Y-115986431D01*
X106017634Y-115955110D01*
X106040161Y-115927661D01*
X106067610Y-115905134D01*
X106098931Y-115888393D01*
X106132909Y-115878085D01*
X106174390Y-115874000D01*
X106775610Y-115874000D01*
X106817091Y-115878085D01*
X106817091Y-115878085D01*
G37*
G36*
X94439890Y-115374017D02*
G01*
X94558364Y-115423091D01*
X94578357Y-115436450D01*
X94664988Y-115494335D01*
X94755665Y-115585012D01*
X94826910Y-115691638D01*
X94833050Y-115706461D01*
X94875983Y-115810110D01*
X94901000Y-115935882D01*
X94901000Y-116064118D01*
X94875983Y-116189890D01*
X94826909Y-116308364D01*
X94755665Y-116414988D01*
X94664988Y-116505665D01*
X94558364Y-116576909D01*
X94558363Y-116576910D01*
X94558362Y-116576910D01*
X94439890Y-116625983D01*
X94314119Y-116651000D01*
X94185881Y-116651000D01*
X94060110Y-116625983D01*
X93941638Y-116576910D01*
X93941637Y-116576910D01*
X93941636Y-116576909D01*
X93835012Y-116505665D01*
X93744335Y-116414988D01*
X93673091Y-116308364D01*
X93624017Y-116189890D01*
X93599000Y-116064118D01*
X93599000Y-115935882D01*
X93624017Y-115810110D01*
X93666950Y-115706461D01*
X93673090Y-115691638D01*
X93744335Y-115585012D01*
X93835012Y-115494335D01*
X93921643Y-115436450D01*
X93941636Y-115423091D01*
X94060110Y-115374017D01*
X94185881Y-115349000D01*
X94314119Y-115349000D01*
X94439890Y-115374017D01*
X94439890Y-115374017D01*
G37*
G36*
X84439890Y-115374017D02*
G01*
X84558364Y-115423091D01*
X84578357Y-115436450D01*
X84664988Y-115494335D01*
X84755665Y-115585012D01*
X84826910Y-115691638D01*
X84833050Y-115706461D01*
X84875983Y-115810110D01*
X84901000Y-115935882D01*
X84901000Y-116064118D01*
X84875983Y-116189890D01*
X84826909Y-116308364D01*
X84755665Y-116414988D01*
X84664988Y-116505665D01*
X84558364Y-116576909D01*
X84558363Y-116576910D01*
X84558362Y-116576910D01*
X84439890Y-116625983D01*
X84314119Y-116651000D01*
X84185881Y-116651000D01*
X84060110Y-116625983D01*
X83941638Y-116576910D01*
X83941637Y-116576910D01*
X83941636Y-116576909D01*
X83835012Y-116505665D01*
X83744335Y-116414988D01*
X83673091Y-116308364D01*
X83624017Y-116189890D01*
X83599000Y-116064118D01*
X83599000Y-115935882D01*
X83624017Y-115810110D01*
X83666950Y-115706461D01*
X83673090Y-115691638D01*
X83744335Y-115585012D01*
X83835012Y-115494335D01*
X83921643Y-115436450D01*
X83941636Y-115423091D01*
X84060110Y-115374017D01*
X84185881Y-115349000D01*
X84314119Y-115349000D01*
X84439890Y-115374017D01*
X84439890Y-115374017D01*
G37*
M02*
