G04 #@! TF.GenerationSoftware,KiCad,Pcbnew,(5.1.5-0)*
G04 #@! TF.CreationDate,2020-08-20T15:01:18-04:00*
G04 #@! TF.ProjectId,LEDIO,4c454449-4f2e-46b6-9963-61645f706362,rev?*
G04 #@! TF.SameCoordinates,Original*
G04 #@! TF.FileFunction,Paste,Top*
G04 #@! TF.FilePolarity,Positive*
%FSLAX46Y46*%
G04 Gerber Fmt 4.6, Leading zero omitted, Abs format (unit mm)*
G04 Created by KiCad (PCBNEW (5.1.5-0)) date 2020-08-20 15:01:18*
%MOMM*%
%LPD*%
G04 APERTURE LIST*
%ADD10C,0.100000*%
G04 APERTURE END LIST*
D10*
G36*
X101827691Y-115926053D02*
G01*
X101848926Y-115929203D01*
X101869750Y-115934419D01*
X101889962Y-115941651D01*
X101909368Y-115950830D01*
X101927781Y-115961866D01*
X101945024Y-115974654D01*
X101960930Y-115989070D01*
X101975346Y-116004976D01*
X101988134Y-116022219D01*
X101999170Y-116040632D01*
X102008349Y-116060038D01*
X102015581Y-116080250D01*
X102020797Y-116101074D01*
X102023947Y-116122309D01*
X102025000Y-116143750D01*
X102025000Y-116656250D01*
X102023947Y-116677691D01*
X102020797Y-116698926D01*
X102015581Y-116719750D01*
X102008349Y-116739962D01*
X101999170Y-116759368D01*
X101988134Y-116777781D01*
X101975346Y-116795024D01*
X101960930Y-116810930D01*
X101945024Y-116825346D01*
X101927781Y-116838134D01*
X101909368Y-116849170D01*
X101889962Y-116858349D01*
X101869750Y-116865581D01*
X101848926Y-116870797D01*
X101827691Y-116873947D01*
X101806250Y-116875000D01*
X101368750Y-116875000D01*
X101347309Y-116873947D01*
X101326074Y-116870797D01*
X101305250Y-116865581D01*
X101285038Y-116858349D01*
X101265632Y-116849170D01*
X101247219Y-116838134D01*
X101229976Y-116825346D01*
X101214070Y-116810930D01*
X101199654Y-116795024D01*
X101186866Y-116777781D01*
X101175830Y-116759368D01*
X101166651Y-116739962D01*
X101159419Y-116719750D01*
X101154203Y-116698926D01*
X101151053Y-116677691D01*
X101150000Y-116656250D01*
X101150000Y-116143750D01*
X101151053Y-116122309D01*
X101154203Y-116101074D01*
X101159419Y-116080250D01*
X101166651Y-116060038D01*
X101175830Y-116040632D01*
X101186866Y-116022219D01*
X101199654Y-116004976D01*
X101214070Y-115989070D01*
X101229976Y-115974654D01*
X101247219Y-115961866D01*
X101265632Y-115950830D01*
X101285038Y-115941651D01*
X101305250Y-115934419D01*
X101326074Y-115929203D01*
X101347309Y-115926053D01*
X101368750Y-115925000D01*
X101806250Y-115925000D01*
X101827691Y-115926053D01*
G37*
G36*
X100252691Y-115926053D02*
G01*
X100273926Y-115929203D01*
X100294750Y-115934419D01*
X100314962Y-115941651D01*
X100334368Y-115950830D01*
X100352781Y-115961866D01*
X100370024Y-115974654D01*
X100385930Y-115989070D01*
X100400346Y-116004976D01*
X100413134Y-116022219D01*
X100424170Y-116040632D01*
X100433349Y-116060038D01*
X100440581Y-116080250D01*
X100445797Y-116101074D01*
X100448947Y-116122309D01*
X100450000Y-116143750D01*
X100450000Y-116656250D01*
X100448947Y-116677691D01*
X100445797Y-116698926D01*
X100440581Y-116719750D01*
X100433349Y-116739962D01*
X100424170Y-116759368D01*
X100413134Y-116777781D01*
X100400346Y-116795024D01*
X100385930Y-116810930D01*
X100370024Y-116825346D01*
X100352781Y-116838134D01*
X100334368Y-116849170D01*
X100314962Y-116858349D01*
X100294750Y-116865581D01*
X100273926Y-116870797D01*
X100252691Y-116873947D01*
X100231250Y-116875000D01*
X99793750Y-116875000D01*
X99772309Y-116873947D01*
X99751074Y-116870797D01*
X99730250Y-116865581D01*
X99710038Y-116858349D01*
X99690632Y-116849170D01*
X99672219Y-116838134D01*
X99654976Y-116825346D01*
X99639070Y-116810930D01*
X99624654Y-116795024D01*
X99611866Y-116777781D01*
X99600830Y-116759368D01*
X99591651Y-116739962D01*
X99584419Y-116719750D01*
X99579203Y-116698926D01*
X99576053Y-116677691D01*
X99575000Y-116656250D01*
X99575000Y-116143750D01*
X99576053Y-116122309D01*
X99579203Y-116101074D01*
X99584419Y-116080250D01*
X99591651Y-116060038D01*
X99600830Y-116040632D01*
X99611866Y-116022219D01*
X99624654Y-116004976D01*
X99639070Y-115989070D01*
X99654976Y-115974654D01*
X99672219Y-115961866D01*
X99690632Y-115950830D01*
X99710038Y-115941651D01*
X99730250Y-115934419D01*
X99751074Y-115929203D01*
X99772309Y-115926053D01*
X99793750Y-115925000D01*
X100231250Y-115925000D01*
X100252691Y-115926053D01*
G37*
G36*
X269399504Y-117976204D02*
G01*
X269423773Y-117979804D01*
X269447571Y-117985765D01*
X269470671Y-117994030D01*
X269492849Y-118004520D01*
X269513893Y-118017133D01*
X269533598Y-118031747D01*
X269551777Y-118048223D01*
X269568253Y-118066402D01*
X269582867Y-118086107D01*
X269595480Y-118107151D01*
X269605970Y-118129329D01*
X269614235Y-118152429D01*
X269620196Y-118176227D01*
X269623796Y-118200496D01*
X269625000Y-118225000D01*
X269625000Y-118975000D01*
X269623796Y-118999504D01*
X269620196Y-119023773D01*
X269614235Y-119047571D01*
X269605970Y-119070671D01*
X269595480Y-119092849D01*
X269582867Y-119113893D01*
X269568253Y-119133598D01*
X269551777Y-119151777D01*
X269533598Y-119168253D01*
X269513893Y-119182867D01*
X269492849Y-119195480D01*
X269470671Y-119205970D01*
X269447571Y-119214235D01*
X269423773Y-119220196D01*
X269399504Y-119223796D01*
X269375000Y-119225000D01*
X268125000Y-119225000D01*
X268100496Y-119223796D01*
X268076227Y-119220196D01*
X268052429Y-119214235D01*
X268029329Y-119205970D01*
X268007151Y-119195480D01*
X267986107Y-119182867D01*
X267966402Y-119168253D01*
X267948223Y-119151777D01*
X267931747Y-119133598D01*
X267917133Y-119113893D01*
X267904520Y-119092849D01*
X267894030Y-119070671D01*
X267885765Y-119047571D01*
X267879804Y-119023773D01*
X267876204Y-118999504D01*
X267875000Y-118975000D01*
X267875000Y-118225000D01*
X267876204Y-118200496D01*
X267879804Y-118176227D01*
X267885765Y-118152429D01*
X267894030Y-118129329D01*
X267904520Y-118107151D01*
X267917133Y-118086107D01*
X267931747Y-118066402D01*
X267948223Y-118048223D01*
X267966402Y-118031747D01*
X267986107Y-118017133D01*
X268007151Y-118004520D01*
X268029329Y-117994030D01*
X268052429Y-117985765D01*
X268076227Y-117979804D01*
X268100496Y-117976204D01*
X268125000Y-117975000D01*
X269375000Y-117975000D01*
X269399504Y-117976204D01*
G37*
G36*
X269399504Y-120776204D02*
G01*
X269423773Y-120779804D01*
X269447571Y-120785765D01*
X269470671Y-120794030D01*
X269492849Y-120804520D01*
X269513893Y-120817133D01*
X269533598Y-120831747D01*
X269551777Y-120848223D01*
X269568253Y-120866402D01*
X269582867Y-120886107D01*
X269595480Y-120907151D01*
X269605970Y-120929329D01*
X269614235Y-120952429D01*
X269620196Y-120976227D01*
X269623796Y-121000496D01*
X269625000Y-121025000D01*
X269625000Y-121775000D01*
X269623796Y-121799504D01*
X269620196Y-121823773D01*
X269614235Y-121847571D01*
X269605970Y-121870671D01*
X269595480Y-121892849D01*
X269582867Y-121913893D01*
X269568253Y-121933598D01*
X269551777Y-121951777D01*
X269533598Y-121968253D01*
X269513893Y-121982867D01*
X269492849Y-121995480D01*
X269470671Y-122005970D01*
X269447571Y-122014235D01*
X269423773Y-122020196D01*
X269399504Y-122023796D01*
X269375000Y-122025000D01*
X268125000Y-122025000D01*
X268100496Y-122023796D01*
X268076227Y-122020196D01*
X268052429Y-122014235D01*
X268029329Y-122005970D01*
X268007151Y-121995480D01*
X267986107Y-121982867D01*
X267966402Y-121968253D01*
X267948223Y-121951777D01*
X267931747Y-121933598D01*
X267917133Y-121913893D01*
X267904520Y-121892849D01*
X267894030Y-121870671D01*
X267885765Y-121847571D01*
X267879804Y-121823773D01*
X267876204Y-121799504D01*
X267875000Y-121775000D01*
X267875000Y-121025000D01*
X267876204Y-121000496D01*
X267879804Y-120976227D01*
X267885765Y-120952429D01*
X267894030Y-120929329D01*
X267904520Y-120907151D01*
X267917133Y-120886107D01*
X267931747Y-120866402D01*
X267948223Y-120848223D01*
X267966402Y-120831747D01*
X267986107Y-120817133D01*
X268007151Y-120804520D01*
X268029329Y-120794030D01*
X268052429Y-120785765D01*
X268076227Y-120779804D01*
X268100496Y-120776204D01*
X268125000Y-120775000D01*
X269375000Y-120775000D01*
X269399504Y-120776204D01*
G37*
G36*
X221399504Y-117976204D02*
G01*
X221423773Y-117979804D01*
X221447571Y-117985765D01*
X221470671Y-117994030D01*
X221492849Y-118004520D01*
X221513893Y-118017133D01*
X221533598Y-118031747D01*
X221551777Y-118048223D01*
X221568253Y-118066402D01*
X221582867Y-118086107D01*
X221595480Y-118107151D01*
X221605970Y-118129329D01*
X221614235Y-118152429D01*
X221620196Y-118176227D01*
X221623796Y-118200496D01*
X221625000Y-118225000D01*
X221625000Y-118975000D01*
X221623796Y-118999504D01*
X221620196Y-119023773D01*
X221614235Y-119047571D01*
X221605970Y-119070671D01*
X221595480Y-119092849D01*
X221582867Y-119113893D01*
X221568253Y-119133598D01*
X221551777Y-119151777D01*
X221533598Y-119168253D01*
X221513893Y-119182867D01*
X221492849Y-119195480D01*
X221470671Y-119205970D01*
X221447571Y-119214235D01*
X221423773Y-119220196D01*
X221399504Y-119223796D01*
X221375000Y-119225000D01*
X220125000Y-119225000D01*
X220100496Y-119223796D01*
X220076227Y-119220196D01*
X220052429Y-119214235D01*
X220029329Y-119205970D01*
X220007151Y-119195480D01*
X219986107Y-119182867D01*
X219966402Y-119168253D01*
X219948223Y-119151777D01*
X219931747Y-119133598D01*
X219917133Y-119113893D01*
X219904520Y-119092849D01*
X219894030Y-119070671D01*
X219885765Y-119047571D01*
X219879804Y-119023773D01*
X219876204Y-118999504D01*
X219875000Y-118975000D01*
X219875000Y-118225000D01*
X219876204Y-118200496D01*
X219879804Y-118176227D01*
X219885765Y-118152429D01*
X219894030Y-118129329D01*
X219904520Y-118107151D01*
X219917133Y-118086107D01*
X219931747Y-118066402D01*
X219948223Y-118048223D01*
X219966402Y-118031747D01*
X219986107Y-118017133D01*
X220007151Y-118004520D01*
X220029329Y-117994030D01*
X220052429Y-117985765D01*
X220076227Y-117979804D01*
X220100496Y-117976204D01*
X220125000Y-117975000D01*
X221375000Y-117975000D01*
X221399504Y-117976204D01*
G37*
G36*
X221399504Y-120776204D02*
G01*
X221423773Y-120779804D01*
X221447571Y-120785765D01*
X221470671Y-120794030D01*
X221492849Y-120804520D01*
X221513893Y-120817133D01*
X221533598Y-120831747D01*
X221551777Y-120848223D01*
X221568253Y-120866402D01*
X221582867Y-120886107D01*
X221595480Y-120907151D01*
X221605970Y-120929329D01*
X221614235Y-120952429D01*
X221620196Y-120976227D01*
X221623796Y-121000496D01*
X221625000Y-121025000D01*
X221625000Y-121775000D01*
X221623796Y-121799504D01*
X221620196Y-121823773D01*
X221614235Y-121847571D01*
X221605970Y-121870671D01*
X221595480Y-121892849D01*
X221582867Y-121913893D01*
X221568253Y-121933598D01*
X221551777Y-121951777D01*
X221533598Y-121968253D01*
X221513893Y-121982867D01*
X221492849Y-121995480D01*
X221470671Y-122005970D01*
X221447571Y-122014235D01*
X221423773Y-122020196D01*
X221399504Y-122023796D01*
X221375000Y-122025000D01*
X220125000Y-122025000D01*
X220100496Y-122023796D01*
X220076227Y-122020196D01*
X220052429Y-122014235D01*
X220029329Y-122005970D01*
X220007151Y-121995480D01*
X219986107Y-121982867D01*
X219966402Y-121968253D01*
X219948223Y-121951777D01*
X219931747Y-121933598D01*
X219917133Y-121913893D01*
X219904520Y-121892849D01*
X219894030Y-121870671D01*
X219885765Y-121847571D01*
X219879804Y-121823773D01*
X219876204Y-121799504D01*
X219875000Y-121775000D01*
X219875000Y-121025000D01*
X219876204Y-121000496D01*
X219879804Y-120976227D01*
X219885765Y-120952429D01*
X219894030Y-120929329D01*
X219904520Y-120907151D01*
X219917133Y-120886107D01*
X219931747Y-120866402D01*
X219948223Y-120848223D01*
X219966402Y-120831747D01*
X219986107Y-120817133D01*
X220007151Y-120804520D01*
X220029329Y-120794030D01*
X220052429Y-120785765D01*
X220076227Y-120779804D01*
X220100496Y-120776204D01*
X220125000Y-120775000D01*
X221375000Y-120775000D01*
X221399504Y-120776204D01*
G37*
G36*
X173399504Y-117976204D02*
G01*
X173423773Y-117979804D01*
X173447571Y-117985765D01*
X173470671Y-117994030D01*
X173492849Y-118004520D01*
X173513893Y-118017133D01*
X173533598Y-118031747D01*
X173551777Y-118048223D01*
X173568253Y-118066402D01*
X173582867Y-118086107D01*
X173595480Y-118107151D01*
X173605970Y-118129329D01*
X173614235Y-118152429D01*
X173620196Y-118176227D01*
X173623796Y-118200496D01*
X173625000Y-118225000D01*
X173625000Y-118975000D01*
X173623796Y-118999504D01*
X173620196Y-119023773D01*
X173614235Y-119047571D01*
X173605970Y-119070671D01*
X173595480Y-119092849D01*
X173582867Y-119113893D01*
X173568253Y-119133598D01*
X173551777Y-119151777D01*
X173533598Y-119168253D01*
X173513893Y-119182867D01*
X173492849Y-119195480D01*
X173470671Y-119205970D01*
X173447571Y-119214235D01*
X173423773Y-119220196D01*
X173399504Y-119223796D01*
X173375000Y-119225000D01*
X172125000Y-119225000D01*
X172100496Y-119223796D01*
X172076227Y-119220196D01*
X172052429Y-119214235D01*
X172029329Y-119205970D01*
X172007151Y-119195480D01*
X171986107Y-119182867D01*
X171966402Y-119168253D01*
X171948223Y-119151777D01*
X171931747Y-119133598D01*
X171917133Y-119113893D01*
X171904520Y-119092849D01*
X171894030Y-119070671D01*
X171885765Y-119047571D01*
X171879804Y-119023773D01*
X171876204Y-118999504D01*
X171875000Y-118975000D01*
X171875000Y-118225000D01*
X171876204Y-118200496D01*
X171879804Y-118176227D01*
X171885765Y-118152429D01*
X171894030Y-118129329D01*
X171904520Y-118107151D01*
X171917133Y-118086107D01*
X171931747Y-118066402D01*
X171948223Y-118048223D01*
X171966402Y-118031747D01*
X171986107Y-118017133D01*
X172007151Y-118004520D01*
X172029329Y-117994030D01*
X172052429Y-117985765D01*
X172076227Y-117979804D01*
X172100496Y-117976204D01*
X172125000Y-117975000D01*
X173375000Y-117975000D01*
X173399504Y-117976204D01*
G37*
G36*
X173399504Y-120776204D02*
G01*
X173423773Y-120779804D01*
X173447571Y-120785765D01*
X173470671Y-120794030D01*
X173492849Y-120804520D01*
X173513893Y-120817133D01*
X173533598Y-120831747D01*
X173551777Y-120848223D01*
X173568253Y-120866402D01*
X173582867Y-120886107D01*
X173595480Y-120907151D01*
X173605970Y-120929329D01*
X173614235Y-120952429D01*
X173620196Y-120976227D01*
X173623796Y-121000496D01*
X173625000Y-121025000D01*
X173625000Y-121775000D01*
X173623796Y-121799504D01*
X173620196Y-121823773D01*
X173614235Y-121847571D01*
X173605970Y-121870671D01*
X173595480Y-121892849D01*
X173582867Y-121913893D01*
X173568253Y-121933598D01*
X173551777Y-121951777D01*
X173533598Y-121968253D01*
X173513893Y-121982867D01*
X173492849Y-121995480D01*
X173470671Y-122005970D01*
X173447571Y-122014235D01*
X173423773Y-122020196D01*
X173399504Y-122023796D01*
X173375000Y-122025000D01*
X172125000Y-122025000D01*
X172100496Y-122023796D01*
X172076227Y-122020196D01*
X172052429Y-122014235D01*
X172029329Y-122005970D01*
X172007151Y-121995480D01*
X171986107Y-121982867D01*
X171966402Y-121968253D01*
X171948223Y-121951777D01*
X171931747Y-121933598D01*
X171917133Y-121913893D01*
X171904520Y-121892849D01*
X171894030Y-121870671D01*
X171885765Y-121847571D01*
X171879804Y-121823773D01*
X171876204Y-121799504D01*
X171875000Y-121775000D01*
X171875000Y-121025000D01*
X171876204Y-121000496D01*
X171879804Y-120976227D01*
X171885765Y-120952429D01*
X171894030Y-120929329D01*
X171904520Y-120907151D01*
X171917133Y-120886107D01*
X171931747Y-120866402D01*
X171948223Y-120848223D01*
X171966402Y-120831747D01*
X171986107Y-120817133D01*
X172007151Y-120804520D01*
X172029329Y-120794030D01*
X172052429Y-120785765D01*
X172076227Y-120779804D01*
X172100496Y-120776204D01*
X172125000Y-120775000D01*
X173375000Y-120775000D01*
X173399504Y-120776204D01*
G37*
G36*
X125399504Y-117976204D02*
G01*
X125423773Y-117979804D01*
X125447571Y-117985765D01*
X125470671Y-117994030D01*
X125492849Y-118004520D01*
X125513893Y-118017133D01*
X125533598Y-118031747D01*
X125551777Y-118048223D01*
X125568253Y-118066402D01*
X125582867Y-118086107D01*
X125595480Y-118107151D01*
X125605970Y-118129329D01*
X125614235Y-118152429D01*
X125620196Y-118176227D01*
X125623796Y-118200496D01*
X125625000Y-118225000D01*
X125625000Y-118975000D01*
X125623796Y-118999504D01*
X125620196Y-119023773D01*
X125614235Y-119047571D01*
X125605970Y-119070671D01*
X125595480Y-119092849D01*
X125582867Y-119113893D01*
X125568253Y-119133598D01*
X125551777Y-119151777D01*
X125533598Y-119168253D01*
X125513893Y-119182867D01*
X125492849Y-119195480D01*
X125470671Y-119205970D01*
X125447571Y-119214235D01*
X125423773Y-119220196D01*
X125399504Y-119223796D01*
X125375000Y-119225000D01*
X124125000Y-119225000D01*
X124100496Y-119223796D01*
X124076227Y-119220196D01*
X124052429Y-119214235D01*
X124029329Y-119205970D01*
X124007151Y-119195480D01*
X123986107Y-119182867D01*
X123966402Y-119168253D01*
X123948223Y-119151777D01*
X123931747Y-119133598D01*
X123917133Y-119113893D01*
X123904520Y-119092849D01*
X123894030Y-119070671D01*
X123885765Y-119047571D01*
X123879804Y-119023773D01*
X123876204Y-118999504D01*
X123875000Y-118975000D01*
X123875000Y-118225000D01*
X123876204Y-118200496D01*
X123879804Y-118176227D01*
X123885765Y-118152429D01*
X123894030Y-118129329D01*
X123904520Y-118107151D01*
X123917133Y-118086107D01*
X123931747Y-118066402D01*
X123948223Y-118048223D01*
X123966402Y-118031747D01*
X123986107Y-118017133D01*
X124007151Y-118004520D01*
X124029329Y-117994030D01*
X124052429Y-117985765D01*
X124076227Y-117979804D01*
X124100496Y-117976204D01*
X124125000Y-117975000D01*
X125375000Y-117975000D01*
X125399504Y-117976204D01*
G37*
G36*
X125399504Y-120776204D02*
G01*
X125423773Y-120779804D01*
X125447571Y-120785765D01*
X125470671Y-120794030D01*
X125492849Y-120804520D01*
X125513893Y-120817133D01*
X125533598Y-120831747D01*
X125551777Y-120848223D01*
X125568253Y-120866402D01*
X125582867Y-120886107D01*
X125595480Y-120907151D01*
X125605970Y-120929329D01*
X125614235Y-120952429D01*
X125620196Y-120976227D01*
X125623796Y-121000496D01*
X125625000Y-121025000D01*
X125625000Y-121775000D01*
X125623796Y-121799504D01*
X125620196Y-121823773D01*
X125614235Y-121847571D01*
X125605970Y-121870671D01*
X125595480Y-121892849D01*
X125582867Y-121913893D01*
X125568253Y-121933598D01*
X125551777Y-121951777D01*
X125533598Y-121968253D01*
X125513893Y-121982867D01*
X125492849Y-121995480D01*
X125470671Y-122005970D01*
X125447571Y-122014235D01*
X125423773Y-122020196D01*
X125399504Y-122023796D01*
X125375000Y-122025000D01*
X124125000Y-122025000D01*
X124100496Y-122023796D01*
X124076227Y-122020196D01*
X124052429Y-122014235D01*
X124029329Y-122005970D01*
X124007151Y-121995480D01*
X123986107Y-121982867D01*
X123966402Y-121968253D01*
X123948223Y-121951777D01*
X123931747Y-121933598D01*
X123917133Y-121913893D01*
X123904520Y-121892849D01*
X123894030Y-121870671D01*
X123885765Y-121847571D01*
X123879804Y-121823773D01*
X123876204Y-121799504D01*
X123875000Y-121775000D01*
X123875000Y-121025000D01*
X123876204Y-121000496D01*
X123879804Y-120976227D01*
X123885765Y-120952429D01*
X123894030Y-120929329D01*
X123904520Y-120907151D01*
X123917133Y-120886107D01*
X123931747Y-120866402D01*
X123948223Y-120848223D01*
X123966402Y-120831747D01*
X123986107Y-120817133D01*
X124007151Y-120804520D01*
X124029329Y-120794030D01*
X124052429Y-120785765D01*
X124076227Y-120779804D01*
X124100496Y-120776204D01*
X124125000Y-120775000D01*
X125375000Y-120775000D01*
X125399504Y-120776204D01*
G37*
G36*
X77399504Y-117976204D02*
G01*
X77423773Y-117979804D01*
X77447571Y-117985765D01*
X77470671Y-117994030D01*
X77492849Y-118004520D01*
X77513893Y-118017133D01*
X77533598Y-118031747D01*
X77551777Y-118048223D01*
X77568253Y-118066402D01*
X77582867Y-118086107D01*
X77595480Y-118107151D01*
X77605970Y-118129329D01*
X77614235Y-118152429D01*
X77620196Y-118176227D01*
X77623796Y-118200496D01*
X77625000Y-118225000D01*
X77625000Y-118975000D01*
X77623796Y-118999504D01*
X77620196Y-119023773D01*
X77614235Y-119047571D01*
X77605970Y-119070671D01*
X77595480Y-119092849D01*
X77582867Y-119113893D01*
X77568253Y-119133598D01*
X77551777Y-119151777D01*
X77533598Y-119168253D01*
X77513893Y-119182867D01*
X77492849Y-119195480D01*
X77470671Y-119205970D01*
X77447571Y-119214235D01*
X77423773Y-119220196D01*
X77399504Y-119223796D01*
X77375000Y-119225000D01*
X76125000Y-119225000D01*
X76100496Y-119223796D01*
X76076227Y-119220196D01*
X76052429Y-119214235D01*
X76029329Y-119205970D01*
X76007151Y-119195480D01*
X75986107Y-119182867D01*
X75966402Y-119168253D01*
X75948223Y-119151777D01*
X75931747Y-119133598D01*
X75917133Y-119113893D01*
X75904520Y-119092849D01*
X75894030Y-119070671D01*
X75885765Y-119047571D01*
X75879804Y-119023773D01*
X75876204Y-118999504D01*
X75875000Y-118975000D01*
X75875000Y-118225000D01*
X75876204Y-118200496D01*
X75879804Y-118176227D01*
X75885765Y-118152429D01*
X75894030Y-118129329D01*
X75904520Y-118107151D01*
X75917133Y-118086107D01*
X75931747Y-118066402D01*
X75948223Y-118048223D01*
X75966402Y-118031747D01*
X75986107Y-118017133D01*
X76007151Y-118004520D01*
X76029329Y-117994030D01*
X76052429Y-117985765D01*
X76076227Y-117979804D01*
X76100496Y-117976204D01*
X76125000Y-117975000D01*
X77375000Y-117975000D01*
X77399504Y-117976204D01*
G37*
G36*
X77399504Y-120776204D02*
G01*
X77423773Y-120779804D01*
X77447571Y-120785765D01*
X77470671Y-120794030D01*
X77492849Y-120804520D01*
X77513893Y-120817133D01*
X77533598Y-120831747D01*
X77551777Y-120848223D01*
X77568253Y-120866402D01*
X77582867Y-120886107D01*
X77595480Y-120907151D01*
X77605970Y-120929329D01*
X77614235Y-120952429D01*
X77620196Y-120976227D01*
X77623796Y-121000496D01*
X77625000Y-121025000D01*
X77625000Y-121775000D01*
X77623796Y-121799504D01*
X77620196Y-121823773D01*
X77614235Y-121847571D01*
X77605970Y-121870671D01*
X77595480Y-121892849D01*
X77582867Y-121913893D01*
X77568253Y-121933598D01*
X77551777Y-121951777D01*
X77533598Y-121968253D01*
X77513893Y-121982867D01*
X77492849Y-121995480D01*
X77470671Y-122005970D01*
X77447571Y-122014235D01*
X77423773Y-122020196D01*
X77399504Y-122023796D01*
X77375000Y-122025000D01*
X76125000Y-122025000D01*
X76100496Y-122023796D01*
X76076227Y-122020196D01*
X76052429Y-122014235D01*
X76029329Y-122005970D01*
X76007151Y-121995480D01*
X75986107Y-121982867D01*
X75966402Y-121968253D01*
X75948223Y-121951777D01*
X75931747Y-121933598D01*
X75917133Y-121913893D01*
X75904520Y-121892849D01*
X75894030Y-121870671D01*
X75885765Y-121847571D01*
X75879804Y-121823773D01*
X75876204Y-121799504D01*
X75875000Y-121775000D01*
X75875000Y-121025000D01*
X75876204Y-121000496D01*
X75879804Y-120976227D01*
X75885765Y-120952429D01*
X75894030Y-120929329D01*
X75904520Y-120907151D01*
X75917133Y-120886107D01*
X75931747Y-120866402D01*
X75948223Y-120848223D01*
X75966402Y-120831747D01*
X75986107Y-120817133D01*
X76007151Y-120804520D01*
X76029329Y-120794030D01*
X76052429Y-120785765D01*
X76076227Y-120779804D01*
X76100496Y-120776204D01*
X76125000Y-120775000D01*
X77375000Y-120775000D01*
X77399504Y-120776204D01*
G37*
G36*
X29399504Y-117976204D02*
G01*
X29423773Y-117979804D01*
X29447571Y-117985765D01*
X29470671Y-117994030D01*
X29492849Y-118004520D01*
X29513893Y-118017133D01*
X29533598Y-118031747D01*
X29551777Y-118048223D01*
X29568253Y-118066402D01*
X29582867Y-118086107D01*
X29595480Y-118107151D01*
X29605970Y-118129329D01*
X29614235Y-118152429D01*
X29620196Y-118176227D01*
X29623796Y-118200496D01*
X29625000Y-118225000D01*
X29625000Y-118975000D01*
X29623796Y-118999504D01*
X29620196Y-119023773D01*
X29614235Y-119047571D01*
X29605970Y-119070671D01*
X29595480Y-119092849D01*
X29582867Y-119113893D01*
X29568253Y-119133598D01*
X29551777Y-119151777D01*
X29533598Y-119168253D01*
X29513893Y-119182867D01*
X29492849Y-119195480D01*
X29470671Y-119205970D01*
X29447571Y-119214235D01*
X29423773Y-119220196D01*
X29399504Y-119223796D01*
X29375000Y-119225000D01*
X28125000Y-119225000D01*
X28100496Y-119223796D01*
X28076227Y-119220196D01*
X28052429Y-119214235D01*
X28029329Y-119205970D01*
X28007151Y-119195480D01*
X27986107Y-119182867D01*
X27966402Y-119168253D01*
X27948223Y-119151777D01*
X27931747Y-119133598D01*
X27917133Y-119113893D01*
X27904520Y-119092849D01*
X27894030Y-119070671D01*
X27885765Y-119047571D01*
X27879804Y-119023773D01*
X27876204Y-118999504D01*
X27875000Y-118975000D01*
X27875000Y-118225000D01*
X27876204Y-118200496D01*
X27879804Y-118176227D01*
X27885765Y-118152429D01*
X27894030Y-118129329D01*
X27904520Y-118107151D01*
X27917133Y-118086107D01*
X27931747Y-118066402D01*
X27948223Y-118048223D01*
X27966402Y-118031747D01*
X27986107Y-118017133D01*
X28007151Y-118004520D01*
X28029329Y-117994030D01*
X28052429Y-117985765D01*
X28076227Y-117979804D01*
X28100496Y-117976204D01*
X28125000Y-117975000D01*
X29375000Y-117975000D01*
X29399504Y-117976204D01*
G37*
G36*
X29399504Y-120776204D02*
G01*
X29423773Y-120779804D01*
X29447571Y-120785765D01*
X29470671Y-120794030D01*
X29492849Y-120804520D01*
X29513893Y-120817133D01*
X29533598Y-120831747D01*
X29551777Y-120848223D01*
X29568253Y-120866402D01*
X29582867Y-120886107D01*
X29595480Y-120907151D01*
X29605970Y-120929329D01*
X29614235Y-120952429D01*
X29620196Y-120976227D01*
X29623796Y-121000496D01*
X29625000Y-121025000D01*
X29625000Y-121775000D01*
X29623796Y-121799504D01*
X29620196Y-121823773D01*
X29614235Y-121847571D01*
X29605970Y-121870671D01*
X29595480Y-121892849D01*
X29582867Y-121913893D01*
X29568253Y-121933598D01*
X29551777Y-121951777D01*
X29533598Y-121968253D01*
X29513893Y-121982867D01*
X29492849Y-121995480D01*
X29470671Y-122005970D01*
X29447571Y-122014235D01*
X29423773Y-122020196D01*
X29399504Y-122023796D01*
X29375000Y-122025000D01*
X28125000Y-122025000D01*
X28100496Y-122023796D01*
X28076227Y-122020196D01*
X28052429Y-122014235D01*
X28029329Y-122005970D01*
X28007151Y-121995480D01*
X27986107Y-121982867D01*
X27966402Y-121968253D01*
X27948223Y-121951777D01*
X27931747Y-121933598D01*
X27917133Y-121913893D01*
X27904520Y-121892849D01*
X27894030Y-121870671D01*
X27885765Y-121847571D01*
X27879804Y-121823773D01*
X27876204Y-121799504D01*
X27875000Y-121775000D01*
X27875000Y-121025000D01*
X27876204Y-121000496D01*
X27879804Y-120976227D01*
X27885765Y-120952429D01*
X27894030Y-120929329D01*
X27904520Y-120907151D01*
X27917133Y-120886107D01*
X27931747Y-120866402D01*
X27948223Y-120848223D01*
X27966402Y-120831747D01*
X27986107Y-120817133D01*
X28007151Y-120804520D01*
X28029329Y-120794030D01*
X28052429Y-120785765D01*
X28076227Y-120779804D01*
X28100496Y-120776204D01*
X28125000Y-120775000D01*
X29375000Y-120775000D01*
X29399504Y-120776204D01*
G37*
M02*
