G04 #@! TF.GenerationSoftware,KiCad,Pcbnew,(5.1.0-0)*
G04 #@! TF.CreationDate,2019-11-07T02:20:41-05:00*
G04 #@! TF.ProjectId,LEDIO,4c454449-4f2e-46b6-9963-61645f706362,rev?*
G04 #@! TF.SameCoordinates,Original*
G04 #@! TF.FileFunction,Copper,L2,Bot*
G04 #@! TF.FilePolarity,Positive*
%FSLAX46Y46*%
G04 Gerber Fmt 4.6, Leading zero omitted, Abs format (unit mm)*
G04 Created by KiCad (PCBNEW (5.1.0-0)) date 2019-11-07 02:20:41*
%MOMM*%
%LPD*%
G04 APERTURE LIST*
%ADD10O,3.016000X1.508000*%
%ADD11O,1.508000X3.016000*%
%ADD12R,1.700000X1.700000*%
%ADD13O,1.700000X1.700000*%
%ADD14C,0.800000*%
%ADD15C,0.254000*%
G04 APERTURE END LIST*
D10*
X45470000Y-124480000D03*
D11*
X48570000Y-123480000D03*
X50670000Y-123480000D03*
X42070000Y-123480000D03*
X51570000Y-116180000D03*
X41770000Y-116180000D03*
D12*
X27460000Y-115860000D03*
D13*
X30000000Y-115860000D03*
X32540000Y-115860000D03*
X35080000Y-115860000D03*
X37620000Y-115860000D03*
D14*
X73400000Y-123025000D03*
X60000000Y-124225000D03*
X31160000Y-121400000D03*
X74850000Y-118875000D03*
X98875000Y-116750000D03*
X103440000Y-116230000D03*
D15*
X40150000Y-117800000D02*
X41770000Y-116180000D01*
X36010000Y-117800000D02*
X40150000Y-117800000D01*
X35080000Y-116870000D02*
X36010000Y-117800000D01*
X35080000Y-115860000D02*
X35080000Y-116870000D01*
X49640000Y-116180000D02*
X51570000Y-116180000D01*
X48620000Y-115160000D02*
X49640000Y-116180000D01*
X43740000Y-115160000D02*
X48620000Y-115160000D01*
X42720000Y-116180000D02*
X43740000Y-115160000D01*
X41770000Y-116180000D02*
X42720000Y-116180000D01*
X31160000Y-121400000D02*
X32385000Y-120175000D01*
X73550000Y-120175000D02*
X73350000Y-120175000D01*
X74850000Y-118875000D02*
X73550000Y-120175000D01*
X32385000Y-120175000D02*
X73350000Y-120175000D01*
X47570000Y-124480000D02*
X48570000Y-123480000D01*
X45470000Y-124480000D02*
X47570000Y-124480000D01*
X45470000Y-122860000D02*
X45470000Y-124480000D01*
X43960000Y-121350000D02*
X45470000Y-122860000D01*
X33380000Y-121350000D02*
X43960000Y-121350000D01*
X32170000Y-122560000D02*
X33380000Y-121350000D01*
X30440000Y-122560000D02*
X32170000Y-122560000D01*
X27460000Y-119580000D02*
X30440000Y-122560000D01*
X27460000Y-115860000D02*
X27460000Y-119580000D01*
X94275000Y-121350000D02*
X98875000Y-116750000D01*
X49030000Y-121350000D02*
X94275000Y-121350000D01*
X48570000Y-121810000D02*
X49030000Y-121350000D01*
X48570000Y-123480000D02*
X48570000Y-121810000D01*
X102780000Y-115570000D02*
X103440000Y-116230000D01*
X102770000Y-115570000D02*
X102780000Y-115570000D01*
X102675000Y-115475000D02*
X102770000Y-115570000D01*
X72650000Y-115475000D02*
X102675000Y-115475000D01*
X69100000Y-119025000D02*
X72650000Y-115475000D01*
X30000000Y-116940000D02*
X32085000Y-119025000D01*
X32085000Y-119025000D02*
X69100000Y-119025000D01*
X30000000Y-115860000D02*
X30000000Y-116940000D01*
G36*
X25477547Y-116710000D02*
G01*
X25499307Y-116930931D01*
X25563750Y-117143371D01*
X25668400Y-117339157D01*
X25809235Y-117510765D01*
X25980843Y-117651600D01*
X26176629Y-117756250D01*
X26206001Y-117765160D01*
X26206001Y-119518392D01*
X26199933Y-119580000D01*
X26224145Y-119825826D01*
X26295850Y-120062206D01*
X26412293Y-120280055D01*
X26416406Y-120285067D01*
X26568999Y-120471002D01*
X26616851Y-120510273D01*
X29509731Y-123403155D01*
X29548998Y-123451002D01*
X29739944Y-123607707D01*
X29957793Y-123724150D01*
X30194173Y-123795855D01*
X30378401Y-123814000D01*
X30378411Y-123814000D01*
X30439999Y-123820066D01*
X30501588Y-123814000D01*
X32108401Y-123814000D01*
X32170000Y-123820067D01*
X32231599Y-123814000D01*
X32415827Y-123795855D01*
X32652207Y-123724150D01*
X32870056Y-123607707D01*
X33061002Y-123451002D01*
X33100277Y-123403145D01*
X33899423Y-122604000D01*
X43440577Y-122604000D01*
X43717463Y-122880886D01*
X43665916Y-122908438D01*
X43379497Y-123143497D01*
X43144438Y-123429916D01*
X42969774Y-123756690D01*
X42862217Y-124111260D01*
X42825899Y-124480000D01*
X42861652Y-124843000D01*
X13407000Y-124843000D01*
X13407000Y-119731414D01*
X19023000Y-119731414D01*
X19023000Y-120268586D01*
X19127797Y-120795437D01*
X19333364Y-121291719D01*
X19631801Y-121738361D01*
X20011639Y-122118199D01*
X20458281Y-122416636D01*
X20954563Y-122622203D01*
X21481414Y-122727000D01*
X22018586Y-122727000D01*
X22545437Y-122622203D01*
X23041719Y-122416636D01*
X23488361Y-122118199D01*
X23868199Y-121738361D01*
X24166636Y-121291719D01*
X24372203Y-120795437D01*
X24477000Y-120268586D01*
X24477000Y-119731414D01*
X24372203Y-119204563D01*
X24166636Y-118708281D01*
X23868199Y-118261639D01*
X23488361Y-117881801D01*
X23041719Y-117583364D01*
X22545437Y-117377797D01*
X22018586Y-117273000D01*
X21481414Y-117273000D01*
X20954563Y-117377797D01*
X20458281Y-117583364D01*
X20011639Y-117881801D01*
X19631801Y-118261639D01*
X19333364Y-118708281D01*
X19127797Y-119204563D01*
X19023000Y-119731414D01*
X13407000Y-119731414D01*
X13407000Y-115156995D01*
X25477547Y-115156549D01*
X25477547Y-116710000D01*
X25477547Y-116710000D01*
G37*
X25477547Y-116710000D02*
X25499307Y-116930931D01*
X25563750Y-117143371D01*
X25668400Y-117339157D01*
X25809235Y-117510765D01*
X25980843Y-117651600D01*
X26176629Y-117756250D01*
X26206001Y-117765160D01*
X26206001Y-119518392D01*
X26199933Y-119580000D01*
X26224145Y-119825826D01*
X26295850Y-120062206D01*
X26412293Y-120280055D01*
X26416406Y-120285067D01*
X26568999Y-120471002D01*
X26616851Y-120510273D01*
X29509731Y-123403155D01*
X29548998Y-123451002D01*
X29739944Y-123607707D01*
X29957793Y-123724150D01*
X30194173Y-123795855D01*
X30378401Y-123814000D01*
X30378411Y-123814000D01*
X30439999Y-123820066D01*
X30501588Y-123814000D01*
X32108401Y-123814000D01*
X32170000Y-123820067D01*
X32231599Y-123814000D01*
X32415827Y-123795855D01*
X32652207Y-123724150D01*
X32870056Y-123607707D01*
X33061002Y-123451002D01*
X33100277Y-123403145D01*
X33899423Y-122604000D01*
X43440577Y-122604000D01*
X43717463Y-122880886D01*
X43665916Y-122908438D01*
X43379497Y-123143497D01*
X43144438Y-123429916D01*
X42969774Y-123756690D01*
X42862217Y-124111260D01*
X42825899Y-124480000D01*
X42861652Y-124843000D01*
X13407000Y-124843000D01*
X13407000Y-119731414D01*
X19023000Y-119731414D01*
X19023000Y-120268586D01*
X19127797Y-120795437D01*
X19333364Y-121291719D01*
X19631801Y-121738361D01*
X20011639Y-122118199D01*
X20458281Y-122416636D01*
X20954563Y-122622203D01*
X21481414Y-122727000D01*
X22018586Y-122727000D01*
X22545437Y-122622203D01*
X23041719Y-122416636D01*
X23488361Y-122118199D01*
X23868199Y-121738361D01*
X24166636Y-121291719D01*
X24372203Y-120795437D01*
X24477000Y-120268586D01*
X24477000Y-119731414D01*
X24372203Y-119204563D01*
X24166636Y-118708281D01*
X23868199Y-118261639D01*
X23488361Y-117881801D01*
X23041719Y-117583364D01*
X22545437Y-117377797D01*
X22018586Y-117273000D01*
X21481414Y-117273000D01*
X20954563Y-117377797D01*
X20458281Y-117583364D01*
X20011639Y-117881801D01*
X19631801Y-118261639D01*
X19333364Y-118708281D01*
X19127797Y-119204563D01*
X19023000Y-119731414D01*
X13407000Y-119731414D01*
X13407000Y-115156995D01*
X25477547Y-115156549D01*
X25477547Y-116710000D01*
G36*
X283593000Y-124843000D02*
G01*
X52450902Y-124843000D01*
X52523783Y-124602740D01*
X52551000Y-124326403D01*
X52551000Y-122633597D01*
X52548085Y-122604000D01*
X94213401Y-122604000D01*
X94275000Y-122610067D01*
X94336599Y-122604000D01*
X94520827Y-122585855D01*
X94757207Y-122514150D01*
X94975056Y-122397707D01*
X95166002Y-122241002D01*
X95205278Y-122193144D01*
X97667009Y-119731414D01*
X146023000Y-119731414D01*
X146023000Y-120268586D01*
X146127797Y-120795437D01*
X146333364Y-121291719D01*
X146631801Y-121738361D01*
X147011639Y-122118199D01*
X147458281Y-122416636D01*
X147954563Y-122622203D01*
X148481414Y-122727000D01*
X149018586Y-122727000D01*
X149545437Y-122622203D01*
X150041719Y-122416636D01*
X150488361Y-122118199D01*
X150868199Y-121738361D01*
X151166636Y-121291719D01*
X151372203Y-120795437D01*
X151477000Y-120268586D01*
X151477000Y-119731414D01*
X273023000Y-119731414D01*
X273023000Y-120268586D01*
X273127797Y-120795437D01*
X273333364Y-121291719D01*
X273631801Y-121738361D01*
X274011639Y-122118199D01*
X274458281Y-122416636D01*
X274954563Y-122622203D01*
X275481414Y-122727000D01*
X276018586Y-122727000D01*
X276545437Y-122622203D01*
X277041719Y-122416636D01*
X277488361Y-122118199D01*
X277868199Y-121738361D01*
X278166636Y-121291719D01*
X278372203Y-120795437D01*
X278477000Y-120268586D01*
X278477000Y-119731414D01*
X278372203Y-119204563D01*
X278166636Y-118708281D01*
X277868199Y-118261639D01*
X277488361Y-117881801D01*
X277041719Y-117583364D01*
X276545437Y-117377797D01*
X276018586Y-117273000D01*
X275481414Y-117273000D01*
X274954563Y-117377797D01*
X274458281Y-117583364D01*
X274011639Y-117881801D01*
X273631801Y-118261639D01*
X273333364Y-118708281D01*
X273127797Y-119204563D01*
X273023000Y-119731414D01*
X151477000Y-119731414D01*
X151372203Y-119204563D01*
X151166636Y-118708281D01*
X150868199Y-118261639D01*
X150488361Y-117881801D01*
X150041719Y-117583364D01*
X149545437Y-117377797D01*
X149018586Y-117273000D01*
X148481414Y-117273000D01*
X147954563Y-117377797D01*
X147458281Y-117583364D01*
X147011639Y-117881801D01*
X146631801Y-118261639D01*
X146333364Y-118708281D01*
X146127797Y-119204563D01*
X146023000Y-119731414D01*
X97667009Y-119731414D01*
X99145267Y-118253157D01*
X99320410Y-118218319D01*
X99598306Y-118103210D01*
X99848406Y-117936099D01*
X100061099Y-117723406D01*
X100228210Y-117473306D01*
X100343319Y-117195410D01*
X100402000Y-116900396D01*
X100402000Y-116729000D01*
X101993879Y-116729000D01*
X102086790Y-116953306D01*
X102253901Y-117203406D01*
X102466594Y-117416099D01*
X102716694Y-117583210D01*
X102994590Y-117698319D01*
X103289604Y-117757000D01*
X103590396Y-117757000D01*
X103885410Y-117698319D01*
X104163306Y-117583210D01*
X104413406Y-117416099D01*
X104626099Y-117203406D01*
X104793210Y-116953306D01*
X104908319Y-116675410D01*
X104967000Y-116380396D01*
X104967000Y-116079604D01*
X104908319Y-115784590D01*
X104793210Y-115506694D01*
X104626099Y-115256594D01*
X104523131Y-115153626D01*
X148500000Y-115152000D01*
X283593000Y-115152000D01*
X283593000Y-124843000D01*
X283593000Y-124843000D01*
G37*
X283593000Y-124843000D02*
X52450902Y-124843000D01*
X52523783Y-124602740D01*
X52551000Y-124326403D01*
X52551000Y-122633597D01*
X52548085Y-122604000D01*
X94213401Y-122604000D01*
X94275000Y-122610067D01*
X94336599Y-122604000D01*
X94520827Y-122585855D01*
X94757207Y-122514150D01*
X94975056Y-122397707D01*
X95166002Y-122241002D01*
X95205278Y-122193144D01*
X97667009Y-119731414D01*
X146023000Y-119731414D01*
X146023000Y-120268586D01*
X146127797Y-120795437D01*
X146333364Y-121291719D01*
X146631801Y-121738361D01*
X147011639Y-122118199D01*
X147458281Y-122416636D01*
X147954563Y-122622203D01*
X148481414Y-122727000D01*
X149018586Y-122727000D01*
X149545437Y-122622203D01*
X150041719Y-122416636D01*
X150488361Y-122118199D01*
X150868199Y-121738361D01*
X151166636Y-121291719D01*
X151372203Y-120795437D01*
X151477000Y-120268586D01*
X151477000Y-119731414D01*
X273023000Y-119731414D01*
X273023000Y-120268586D01*
X273127797Y-120795437D01*
X273333364Y-121291719D01*
X273631801Y-121738361D01*
X274011639Y-122118199D01*
X274458281Y-122416636D01*
X274954563Y-122622203D01*
X275481414Y-122727000D01*
X276018586Y-122727000D01*
X276545437Y-122622203D01*
X277041719Y-122416636D01*
X277488361Y-122118199D01*
X277868199Y-121738361D01*
X278166636Y-121291719D01*
X278372203Y-120795437D01*
X278477000Y-120268586D01*
X278477000Y-119731414D01*
X278372203Y-119204563D01*
X278166636Y-118708281D01*
X277868199Y-118261639D01*
X277488361Y-117881801D01*
X277041719Y-117583364D01*
X276545437Y-117377797D01*
X276018586Y-117273000D01*
X275481414Y-117273000D01*
X274954563Y-117377797D01*
X274458281Y-117583364D01*
X274011639Y-117881801D01*
X273631801Y-118261639D01*
X273333364Y-118708281D01*
X273127797Y-119204563D01*
X273023000Y-119731414D01*
X151477000Y-119731414D01*
X151372203Y-119204563D01*
X151166636Y-118708281D01*
X150868199Y-118261639D01*
X150488361Y-117881801D01*
X150041719Y-117583364D01*
X149545437Y-117377797D01*
X149018586Y-117273000D01*
X148481414Y-117273000D01*
X147954563Y-117377797D01*
X147458281Y-117583364D01*
X147011639Y-117881801D01*
X146631801Y-118261639D01*
X146333364Y-118708281D01*
X146127797Y-119204563D01*
X146023000Y-119731414D01*
X97667009Y-119731414D01*
X99145267Y-118253157D01*
X99320410Y-118218319D01*
X99598306Y-118103210D01*
X99848406Y-117936099D01*
X100061099Y-117723406D01*
X100228210Y-117473306D01*
X100343319Y-117195410D01*
X100402000Y-116900396D01*
X100402000Y-116729000D01*
X101993879Y-116729000D01*
X102086790Y-116953306D01*
X102253901Y-117203406D01*
X102466594Y-117416099D01*
X102716694Y-117583210D01*
X102994590Y-117698319D01*
X103289604Y-117757000D01*
X103590396Y-117757000D01*
X103885410Y-117698319D01*
X104163306Y-117583210D01*
X104413406Y-117416099D01*
X104626099Y-117203406D01*
X104793210Y-116953306D01*
X104908319Y-116675410D01*
X104967000Y-116380396D01*
X104967000Y-116079604D01*
X104908319Y-115784590D01*
X104793210Y-115506694D01*
X104626099Y-115256594D01*
X104523131Y-115153626D01*
X148500000Y-115152000D01*
X283593000Y-115152000D01*
X283593000Y-124843000D01*
G36*
X35671606Y-115472440D02*
G01*
X35633435Y-115860000D01*
X35671606Y-116247560D01*
X35784653Y-116620226D01*
X35968232Y-116963676D01*
X36215286Y-117264714D01*
X36516324Y-117511768D01*
X36859774Y-117695347D01*
X37109169Y-117771000D01*
X33050831Y-117771000D01*
X33300226Y-117695347D01*
X33643676Y-117511768D01*
X33944714Y-117264714D01*
X34191768Y-116963676D01*
X34375347Y-116620226D01*
X34488394Y-116247560D01*
X34526565Y-115860000D01*
X34488394Y-115472440D01*
X34392470Y-115156219D01*
X35767546Y-115156168D01*
X35671606Y-115472440D01*
X35671606Y-115472440D01*
G37*
X35671606Y-115472440D02*
X35633435Y-115860000D01*
X35671606Y-116247560D01*
X35784653Y-116620226D01*
X35968232Y-116963676D01*
X36215286Y-117264714D01*
X36516324Y-117511768D01*
X36859774Y-117695347D01*
X37109169Y-117771000D01*
X33050831Y-117771000D01*
X33300226Y-117695347D01*
X33643676Y-117511768D01*
X33944714Y-117264714D01*
X34191768Y-116963676D01*
X34375347Y-116620226D01*
X34488394Y-116247560D01*
X34526565Y-115860000D01*
X34488394Y-115472440D01*
X34392470Y-115156219D01*
X35767546Y-115156168D01*
X35671606Y-115472440D01*
G36*
X43986624Y-115372501D02*
G01*
X43662501Y-115696624D01*
X43407840Y-116077752D01*
X43232426Y-116501239D01*
X43143000Y-116950811D01*
X43143000Y-117409189D01*
X43214969Y-117771000D01*
X38130831Y-117771000D01*
X38380226Y-117695347D01*
X38723676Y-117511768D01*
X39024714Y-117264714D01*
X39271768Y-116963676D01*
X39455347Y-116620226D01*
X39568394Y-116247560D01*
X39606565Y-115860000D01*
X39568394Y-115472440D01*
X39472413Y-115156031D01*
X44310863Y-115155852D01*
X43986624Y-115372501D01*
X43986624Y-115372501D01*
G37*
X43986624Y-115372501D02*
X43662501Y-115696624D01*
X43407840Y-116077752D01*
X43232426Y-116501239D01*
X43143000Y-116950811D01*
X43143000Y-117409189D01*
X43214969Y-117771000D01*
X38130831Y-117771000D01*
X38380226Y-117695347D01*
X38723676Y-117511768D01*
X39024714Y-117264714D01*
X39271768Y-116963676D01*
X39455347Y-116620226D01*
X39568394Y-116247560D01*
X39606565Y-115860000D01*
X39568394Y-115472440D01*
X39472413Y-115156031D01*
X44310863Y-115155852D01*
X43986624Y-115372501D01*
G36*
X68580578Y-117771000D02*
G01*
X47725031Y-117771000D01*
X47797000Y-117409189D01*
X47797000Y-116950811D01*
X47707574Y-116501239D01*
X47532160Y-116077752D01*
X47277499Y-115696624D01*
X46953376Y-115372501D01*
X46629009Y-115155767D01*
X71196719Y-115154858D01*
X68580578Y-117771000D01*
X68580578Y-117771000D01*
G37*
X68580578Y-117771000D02*
X47725031Y-117771000D01*
X47797000Y-117409189D01*
X47797000Y-116950811D01*
X47707574Y-116501239D01*
X47532160Y-116077752D01*
X47277499Y-115696624D01*
X46953376Y-115372501D01*
X46629009Y-115155767D01*
X71196719Y-115154858D01*
X68580578Y-117771000D01*
M02*
