M48
; DRILL file {KiCad (5.1.0-0)} date Thursday, November 07, 2019 at 02:13:41 AM
; FORMAT={-:-/ absolute / inch / decimal}
; #@! TF.CreationDate,2019-11-07T02:13:41-05:00
; #@! TF.GenerationSoftware,Kicad,Pcbnew,(5.1.0-0)
; #@! TF.FileFunction,Plated,1,2,PTH
FMAT,2
INCH
T1C0.0157
T2C0.0394
%
G90
G05
T1
X1.2268Y-4.7795
X2.3622Y-4.8907
X2.8898Y-4.8435
X2.9469Y-4.6801
X3.8927Y-4.5965
X4.0724Y-4.576
T2
X1.0811Y-4.5614
X1.1811Y-4.5614
X1.2811Y-4.5614
X1.3811Y-4.5614
X1.4811Y-4.5614
T2
G00X1.6445Y-4.5996
M15
G01X1.6445Y-4.5484
M16
G05
G00X1.6563Y-4.8811
M15
G01X1.6563Y-4.8417
M16
G05
G00X1.8098Y-4.9008
M15
G01X1.7705Y-4.9008
M16
G05
G00X1.9122Y-4.8811
M15
G01X1.9122Y-4.8417
M16
G05
G00X1.9949Y-4.8811
M15
G01X1.9949Y-4.8417
M16
G05
G00X2.0303Y-4.5996
M15
G01X2.0303Y-4.5484
M16
G05
T0
M30
