G04 #@! TF.GenerationSoftware,KiCad,Pcbnew,(5.1.0-0)*
G04 #@! TF.CreationDate,2019-11-07T02:20:41-05:00*
G04 #@! TF.ProjectId,LEDIO,4c454449-4f2e-46b6-9963-61645f706362,rev?*
G04 #@! TF.SameCoordinates,Original*
G04 #@! TF.FileFunction,Soldermask,Bot*
G04 #@! TF.FilePolarity,Negative*
%FSLAX46Y46*%
G04 Gerber Fmt 4.6, Leading zero omitted, Abs format (unit mm)*
G04 Created by KiCad (PCBNEW (5.1.0-0)) date 2019-11-07 02:20:41*
%MOMM*%
%LPD*%
G04 APERTURE LIST*
%ADD10C,0.100000*%
G04 APERTURE END LIST*
D10*
G36*
X46381808Y-123686648D02*
G01*
X46533551Y-123732678D01*
X46673398Y-123807428D01*
X46795975Y-123908025D01*
X46896572Y-124030602D01*
X46971322Y-124170449D01*
X47017352Y-124322192D01*
X47032895Y-124480000D01*
X47017352Y-124637808D01*
X46971322Y-124789551D01*
X46896572Y-124929398D01*
X46795975Y-125051975D01*
X46673398Y-125152572D01*
X46533551Y-125227322D01*
X46381808Y-125273352D01*
X46263546Y-125285000D01*
X44676454Y-125285000D01*
X44558192Y-125273352D01*
X44406449Y-125227322D01*
X44266602Y-125152572D01*
X44144025Y-125051975D01*
X44043428Y-124929398D01*
X43968678Y-124789551D01*
X43922648Y-124637808D01*
X43907105Y-124480000D01*
X43922648Y-124322192D01*
X43968678Y-124170449D01*
X44043428Y-124030602D01*
X44144025Y-123908025D01*
X44266602Y-123807428D01*
X44406449Y-123732678D01*
X44558192Y-123686648D01*
X44676454Y-123675000D01*
X46263546Y-123675000D01*
X46381808Y-123686648D01*
X46381808Y-123686648D01*
G37*
G36*
X48727807Y-121932648D02*
G01*
X48879550Y-121978678D01*
X49019397Y-122053428D01*
X49141975Y-122154025D01*
X49242572Y-122276602D01*
X49317322Y-122416449D01*
X49363352Y-122568192D01*
X49375000Y-122686454D01*
X49375000Y-124273546D01*
X49363352Y-124391808D01*
X49317322Y-124543551D01*
X49242572Y-124683398D01*
X49141975Y-124805975D01*
X49019398Y-124906572D01*
X48879551Y-124981322D01*
X48727808Y-125027352D01*
X48570000Y-125042895D01*
X48412193Y-125027352D01*
X48260450Y-124981322D01*
X48120603Y-124906572D01*
X47998026Y-124805975D01*
X47897429Y-124683398D01*
X47822679Y-124543551D01*
X47776649Y-124391808D01*
X47765001Y-124273546D01*
X47765000Y-122686455D01*
X47776648Y-122568193D01*
X47822678Y-122416450D01*
X47897428Y-122276603D01*
X47998025Y-122154025D01*
X48120602Y-122053428D01*
X48260449Y-121978678D01*
X48412192Y-121932648D01*
X48570000Y-121917105D01*
X48727807Y-121932648D01*
X48727807Y-121932648D01*
G37*
G36*
X50827807Y-121932648D02*
G01*
X50979550Y-121978678D01*
X51119397Y-122053428D01*
X51241975Y-122154025D01*
X51342572Y-122276602D01*
X51417322Y-122416449D01*
X51463352Y-122568192D01*
X51475000Y-122686454D01*
X51475000Y-124273546D01*
X51463352Y-124391808D01*
X51417322Y-124543551D01*
X51342572Y-124683398D01*
X51241975Y-124805975D01*
X51119398Y-124906572D01*
X50979551Y-124981322D01*
X50827808Y-125027352D01*
X50670000Y-125042895D01*
X50512193Y-125027352D01*
X50360450Y-124981322D01*
X50220603Y-124906572D01*
X50098026Y-124805975D01*
X49997429Y-124683398D01*
X49922679Y-124543551D01*
X49876649Y-124391808D01*
X49865001Y-124273546D01*
X49865000Y-122686455D01*
X49876648Y-122568193D01*
X49922678Y-122416450D01*
X49997428Y-122276603D01*
X50098025Y-122154025D01*
X50220602Y-122053428D01*
X50360449Y-121978678D01*
X50512192Y-121932648D01*
X50670000Y-121917105D01*
X50827807Y-121932648D01*
X50827807Y-121932648D01*
G37*
G36*
X42227807Y-121932648D02*
G01*
X42379550Y-121978678D01*
X42519397Y-122053428D01*
X42641975Y-122154025D01*
X42742572Y-122276602D01*
X42817322Y-122416449D01*
X42863352Y-122568192D01*
X42875000Y-122686454D01*
X42875000Y-124273546D01*
X42863352Y-124391808D01*
X42817322Y-124543551D01*
X42742572Y-124683398D01*
X42641975Y-124805975D01*
X42519398Y-124906572D01*
X42379551Y-124981322D01*
X42227808Y-125027352D01*
X42070000Y-125042895D01*
X41912193Y-125027352D01*
X41760450Y-124981322D01*
X41620603Y-124906572D01*
X41498026Y-124805975D01*
X41397429Y-124683398D01*
X41322679Y-124543551D01*
X41276649Y-124391808D01*
X41265001Y-124273546D01*
X41265000Y-122686455D01*
X41276648Y-122568193D01*
X41322678Y-122416450D01*
X41397428Y-122276603D01*
X41498025Y-122154025D01*
X41620602Y-122053428D01*
X41760449Y-121978678D01*
X41912192Y-121932648D01*
X42070000Y-121917105D01*
X42227807Y-121932648D01*
X42227807Y-121932648D01*
G37*
G36*
X276083162Y-118382925D02*
G01*
X276231579Y-118412447D01*
X276532042Y-118536903D01*
X276802451Y-118717585D01*
X277032415Y-118947549D01*
X277213097Y-119217958D01*
X277337553Y-119518421D01*
X277401000Y-119837391D01*
X277401000Y-120162609D01*
X277337553Y-120481579D01*
X277213097Y-120782042D01*
X277032415Y-121052451D01*
X276802451Y-121282415D01*
X276532042Y-121463097D01*
X276231579Y-121587553D01*
X276125256Y-121608702D01*
X275912611Y-121651000D01*
X275587389Y-121651000D01*
X275374744Y-121608702D01*
X275268421Y-121587553D01*
X274967958Y-121463097D01*
X274697549Y-121282415D01*
X274467585Y-121052451D01*
X274286903Y-120782042D01*
X274162447Y-120481579D01*
X274099000Y-120162609D01*
X274099000Y-119837391D01*
X274162447Y-119518421D01*
X274286903Y-119217958D01*
X274467585Y-118947549D01*
X274697549Y-118717585D01*
X274967958Y-118536903D01*
X275268421Y-118412447D01*
X275416838Y-118382925D01*
X275587389Y-118349000D01*
X275912611Y-118349000D01*
X276083162Y-118382925D01*
X276083162Y-118382925D01*
G37*
G36*
X149083162Y-118382925D02*
G01*
X149231579Y-118412447D01*
X149532042Y-118536903D01*
X149802451Y-118717585D01*
X150032415Y-118947549D01*
X150213097Y-119217958D01*
X150337553Y-119518421D01*
X150401000Y-119837391D01*
X150401000Y-120162609D01*
X150337553Y-120481579D01*
X150213097Y-120782042D01*
X150032415Y-121052451D01*
X149802451Y-121282415D01*
X149532042Y-121463097D01*
X149231579Y-121587553D01*
X149125256Y-121608702D01*
X148912611Y-121651000D01*
X148587389Y-121651000D01*
X148374744Y-121608702D01*
X148268421Y-121587553D01*
X147967958Y-121463097D01*
X147697549Y-121282415D01*
X147467585Y-121052451D01*
X147286903Y-120782042D01*
X147162447Y-120481579D01*
X147099000Y-120162609D01*
X147099000Y-119837391D01*
X147162447Y-119518421D01*
X147286903Y-119217958D01*
X147467585Y-118947549D01*
X147697549Y-118717585D01*
X147967958Y-118536903D01*
X148268421Y-118412447D01*
X148416838Y-118382925D01*
X148587389Y-118349000D01*
X148912611Y-118349000D01*
X149083162Y-118382925D01*
X149083162Y-118382925D01*
G37*
G36*
X22083162Y-118382925D02*
G01*
X22231579Y-118412447D01*
X22532042Y-118536903D01*
X22802451Y-118717585D01*
X23032415Y-118947549D01*
X23213097Y-119217958D01*
X23337553Y-119518421D01*
X23401000Y-119837391D01*
X23401000Y-120162609D01*
X23337553Y-120481579D01*
X23213097Y-120782042D01*
X23032415Y-121052451D01*
X22802451Y-121282415D01*
X22532042Y-121463097D01*
X22231579Y-121587553D01*
X22125256Y-121608702D01*
X21912611Y-121651000D01*
X21587389Y-121651000D01*
X21374744Y-121608702D01*
X21268421Y-121587553D01*
X20967958Y-121463097D01*
X20697549Y-121282415D01*
X20467585Y-121052451D01*
X20286903Y-120782042D01*
X20162447Y-120481579D01*
X20099000Y-120162609D01*
X20099000Y-119837391D01*
X20162447Y-119518421D01*
X20286903Y-119217958D01*
X20467585Y-118947549D01*
X20697549Y-118717585D01*
X20967958Y-118536903D01*
X21268421Y-118412447D01*
X21416838Y-118382925D01*
X21587389Y-118349000D01*
X21912611Y-118349000D01*
X22083162Y-118382925D01*
X22083162Y-118382925D01*
G37*
G36*
X45834903Y-115977075D02*
G01*
X46062571Y-116071378D01*
X46267466Y-116208285D01*
X46441715Y-116382534D01*
X46441716Y-116382536D01*
X46578623Y-116587431D01*
X46672925Y-116815097D01*
X46704443Y-116973546D01*
X46721000Y-117056787D01*
X46721000Y-117303213D01*
X46672925Y-117544903D01*
X46578622Y-117772571D01*
X46441715Y-117977466D01*
X46267466Y-118151715D01*
X46062571Y-118288622D01*
X46062570Y-118288623D01*
X46062569Y-118288623D01*
X45834903Y-118382925D01*
X45593214Y-118431000D01*
X45346786Y-118431000D01*
X45105097Y-118382925D01*
X44877431Y-118288623D01*
X44877430Y-118288623D01*
X44877429Y-118288622D01*
X44672534Y-118151715D01*
X44498285Y-117977466D01*
X44361378Y-117772571D01*
X44267075Y-117544903D01*
X44219000Y-117303213D01*
X44219000Y-117056787D01*
X44235558Y-116973546D01*
X44267075Y-116815097D01*
X44361377Y-116587431D01*
X44498284Y-116382536D01*
X44498285Y-116382534D01*
X44672534Y-116208285D01*
X44877429Y-116071378D01*
X45105097Y-115977075D01*
X45346786Y-115929000D01*
X45593214Y-115929000D01*
X45834903Y-115977075D01*
X45834903Y-115977075D01*
G37*
G36*
X51727807Y-114632648D02*
G01*
X51879550Y-114678678D01*
X52019397Y-114753428D01*
X52141975Y-114854025D01*
X52242572Y-114976602D01*
X52317322Y-115116449D01*
X52363352Y-115268192D01*
X52375000Y-115386454D01*
X52375000Y-116973546D01*
X52363352Y-117091808D01*
X52317322Y-117243551D01*
X52242572Y-117383398D01*
X52141975Y-117505975D01*
X52019398Y-117606572D01*
X51879551Y-117681322D01*
X51727808Y-117727352D01*
X51570000Y-117742895D01*
X51412193Y-117727352D01*
X51260450Y-117681322D01*
X51120603Y-117606572D01*
X50998026Y-117505975D01*
X50897429Y-117383398D01*
X50822679Y-117243551D01*
X50776649Y-117091808D01*
X50765001Y-116973546D01*
X50765000Y-115386455D01*
X50776648Y-115268193D01*
X50822678Y-115116450D01*
X50897428Y-114976603D01*
X50998025Y-114854025D01*
X51120602Y-114753428D01*
X51260449Y-114678678D01*
X51412192Y-114632648D01*
X51570000Y-114617105D01*
X51727807Y-114632648D01*
X51727807Y-114632648D01*
G37*
G36*
X41927807Y-114632648D02*
G01*
X42079550Y-114678678D01*
X42219397Y-114753428D01*
X42341975Y-114854025D01*
X42442572Y-114976602D01*
X42517322Y-115116449D01*
X42563352Y-115268192D01*
X42575000Y-115386454D01*
X42575000Y-116973546D01*
X42563352Y-117091808D01*
X42517322Y-117243551D01*
X42442572Y-117383398D01*
X42341975Y-117505975D01*
X42219398Y-117606572D01*
X42079551Y-117681322D01*
X41927808Y-117727352D01*
X41770000Y-117742895D01*
X41612193Y-117727352D01*
X41460450Y-117681322D01*
X41320603Y-117606572D01*
X41198026Y-117505975D01*
X41097429Y-117383398D01*
X41022679Y-117243551D01*
X40976649Y-117091808D01*
X40965001Y-116973546D01*
X40965000Y-115386455D01*
X40976648Y-115268193D01*
X41022678Y-115116450D01*
X41097428Y-114976603D01*
X41198025Y-114854025D01*
X41320602Y-114753428D01*
X41460449Y-114678678D01*
X41612192Y-114632648D01*
X41770000Y-114617105D01*
X41927807Y-114632648D01*
X41927807Y-114632648D01*
G37*
G36*
X37730443Y-114965519D02*
G01*
X37796627Y-114972037D01*
X37966466Y-115023557D01*
X38122991Y-115107222D01*
X38134234Y-115116449D01*
X38260186Y-115219814D01*
X38343448Y-115321271D01*
X38372778Y-115357009D01*
X38456443Y-115513534D01*
X38507963Y-115683373D01*
X38525359Y-115860000D01*
X38507963Y-116036627D01*
X38456443Y-116206466D01*
X38372778Y-116362991D01*
X38343448Y-116398729D01*
X38260186Y-116500186D01*
X38158729Y-116583448D01*
X38122991Y-116612778D01*
X37966466Y-116696443D01*
X37796627Y-116747963D01*
X37730443Y-116754481D01*
X37664260Y-116761000D01*
X37575740Y-116761000D01*
X37509557Y-116754481D01*
X37443373Y-116747963D01*
X37273534Y-116696443D01*
X37117009Y-116612778D01*
X37081271Y-116583448D01*
X36979814Y-116500186D01*
X36896552Y-116398729D01*
X36867222Y-116362991D01*
X36783557Y-116206466D01*
X36732037Y-116036627D01*
X36714641Y-115860000D01*
X36732037Y-115683373D01*
X36783557Y-115513534D01*
X36867222Y-115357009D01*
X36896552Y-115321271D01*
X36979814Y-115219814D01*
X37105766Y-115116449D01*
X37117009Y-115107222D01*
X37273534Y-115023557D01*
X37443373Y-114972037D01*
X37509557Y-114965519D01*
X37575740Y-114959000D01*
X37664260Y-114959000D01*
X37730443Y-114965519D01*
X37730443Y-114965519D01*
G37*
G36*
X35190443Y-114965519D02*
G01*
X35256627Y-114972037D01*
X35426466Y-115023557D01*
X35582991Y-115107222D01*
X35594234Y-115116449D01*
X35720186Y-115219814D01*
X35803448Y-115321271D01*
X35832778Y-115357009D01*
X35916443Y-115513534D01*
X35967963Y-115683373D01*
X35985359Y-115860000D01*
X35967963Y-116036627D01*
X35916443Y-116206466D01*
X35832778Y-116362991D01*
X35803448Y-116398729D01*
X35720186Y-116500186D01*
X35618729Y-116583448D01*
X35582991Y-116612778D01*
X35426466Y-116696443D01*
X35256627Y-116747963D01*
X35190443Y-116754481D01*
X35124260Y-116761000D01*
X35035740Y-116761000D01*
X34969557Y-116754481D01*
X34903373Y-116747963D01*
X34733534Y-116696443D01*
X34577009Y-116612778D01*
X34541271Y-116583448D01*
X34439814Y-116500186D01*
X34356552Y-116398729D01*
X34327222Y-116362991D01*
X34243557Y-116206466D01*
X34192037Y-116036627D01*
X34174641Y-115860000D01*
X34192037Y-115683373D01*
X34243557Y-115513534D01*
X34327222Y-115357009D01*
X34356552Y-115321271D01*
X34439814Y-115219814D01*
X34565766Y-115116449D01*
X34577009Y-115107222D01*
X34733534Y-115023557D01*
X34903373Y-114972037D01*
X34969557Y-114965519D01*
X35035740Y-114959000D01*
X35124260Y-114959000D01*
X35190443Y-114965519D01*
X35190443Y-114965519D01*
G37*
G36*
X32650443Y-114965519D02*
G01*
X32716627Y-114972037D01*
X32886466Y-115023557D01*
X33042991Y-115107222D01*
X33054234Y-115116449D01*
X33180186Y-115219814D01*
X33263448Y-115321271D01*
X33292778Y-115357009D01*
X33376443Y-115513534D01*
X33427963Y-115683373D01*
X33445359Y-115860000D01*
X33427963Y-116036627D01*
X33376443Y-116206466D01*
X33292778Y-116362991D01*
X33263448Y-116398729D01*
X33180186Y-116500186D01*
X33078729Y-116583448D01*
X33042991Y-116612778D01*
X32886466Y-116696443D01*
X32716627Y-116747963D01*
X32650443Y-116754481D01*
X32584260Y-116761000D01*
X32495740Y-116761000D01*
X32429557Y-116754481D01*
X32363373Y-116747963D01*
X32193534Y-116696443D01*
X32037009Y-116612778D01*
X32001271Y-116583448D01*
X31899814Y-116500186D01*
X31816552Y-116398729D01*
X31787222Y-116362991D01*
X31703557Y-116206466D01*
X31652037Y-116036627D01*
X31634641Y-115860000D01*
X31652037Y-115683373D01*
X31703557Y-115513534D01*
X31787222Y-115357009D01*
X31816552Y-115321271D01*
X31899814Y-115219814D01*
X32025766Y-115116449D01*
X32037009Y-115107222D01*
X32193534Y-115023557D01*
X32363373Y-114972037D01*
X32429557Y-114965519D01*
X32495740Y-114959000D01*
X32584260Y-114959000D01*
X32650443Y-114965519D01*
X32650443Y-114965519D01*
G37*
G36*
X30110443Y-114965519D02*
G01*
X30176627Y-114972037D01*
X30346466Y-115023557D01*
X30502991Y-115107222D01*
X30514234Y-115116449D01*
X30640186Y-115219814D01*
X30723448Y-115321271D01*
X30752778Y-115357009D01*
X30836443Y-115513534D01*
X30887963Y-115683373D01*
X30905359Y-115860000D01*
X30887963Y-116036627D01*
X30836443Y-116206466D01*
X30752778Y-116362991D01*
X30723448Y-116398729D01*
X30640186Y-116500186D01*
X30538729Y-116583448D01*
X30502991Y-116612778D01*
X30346466Y-116696443D01*
X30176627Y-116747963D01*
X30110443Y-116754481D01*
X30044260Y-116761000D01*
X29955740Y-116761000D01*
X29889557Y-116754481D01*
X29823373Y-116747963D01*
X29653534Y-116696443D01*
X29497009Y-116612778D01*
X29461271Y-116583448D01*
X29359814Y-116500186D01*
X29276552Y-116398729D01*
X29247222Y-116362991D01*
X29163557Y-116206466D01*
X29112037Y-116036627D01*
X29094641Y-115860000D01*
X29112037Y-115683373D01*
X29163557Y-115513534D01*
X29247222Y-115357009D01*
X29276552Y-115321271D01*
X29359814Y-115219814D01*
X29485766Y-115116449D01*
X29497009Y-115107222D01*
X29653534Y-115023557D01*
X29823373Y-114972037D01*
X29889557Y-114965519D01*
X29955740Y-114959000D01*
X30044260Y-114959000D01*
X30110443Y-114965519D01*
X30110443Y-114965519D01*
G37*
G36*
X28361000Y-116761000D02*
G01*
X26559000Y-116761000D01*
X26559000Y-114959000D01*
X28361000Y-114959000D01*
X28361000Y-116761000D01*
X28361000Y-116761000D01*
G37*
M02*
