M48
; DRILL file {KiCad (5.1.5-0)} date Thursday, August 20, 2020 at 02:13:14 PM
; FORMAT={-:-/ absolute / inch / decimal}
; #@! TF.CreationDate,2020-08-20T14:13:14-04:00
; #@! TF.GenerationSoftware,Kicad,Pcbnew,(5.1.5-0)
FMAT,2
INCH
T1C0.0118
T2C0.0120
T3C0.0250
T4C0.0320
T5C0.0394
T6C0.0400
T7C0.0433
T8C0.0512
%
G90
G05
T1
X3.3318Y2.1064
X3.3318Y2.0552
X3.3318Y2.004
X3.3318Y1.9528
X3.3318Y1.9016
X3.3318Y1.8504
X3.3318Y1.7993
X3.383Y2.1064
X3.383Y2.0552
X3.383Y2.004
X3.383Y1.9528
X3.383Y1.9016
X3.383Y1.8504
X3.383Y1.7993
X3.4342Y2.1064
X3.4342Y2.0552
X3.4342Y2.004
X3.4342Y1.9528
X3.4342Y1.9016
X3.4342Y1.8504
X3.4342Y1.7993
X3.3317Y0.5974
X3.3317Y0.5462
X3.3317Y0.495
X3.3317Y0.4438
X3.3317Y0.3926
X3.3317Y0.3414
X3.3317Y0.2903
X3.3829Y0.5974
X3.3829Y0.5462
X3.3829Y0.495
X3.3829Y0.4438
X3.3829Y0.3926
X3.3829Y0.3414
X3.3829Y0.2903
X3.4341Y0.5974
X3.4341Y0.5462
X3.4341Y0.495
X3.4341Y0.4438
X3.4341Y0.3926
X3.4341Y0.3414
X3.4341Y0.2903
X2.099Y1.4277
X2.099Y1.3765
X2.099Y1.3253
X2.1501Y1.4277
X2.1501Y1.3765
X2.1501Y1.3253
X2.2013Y1.4277
X2.2013Y1.3765
X2.2013Y1.3253
X2.2525Y1.4277
X2.2525Y1.3765
X2.2525Y1.3253
X2.3037Y1.4277
X2.3037Y1.3765
X2.3037Y1.3253
X2.3549Y1.4277
X2.3549Y1.3765
X2.3549Y1.3253
X2.4061Y1.4277
X2.4061Y1.3765
X2.4061Y1.3253
X3.3319Y1.3534
X3.3319Y1.3022
X3.3319Y1.251
X3.3319Y1.1998
X3.3319Y1.1486
X3.3319Y1.0974
X3.3319Y1.0463
X3.3831Y1.3534
X3.3831Y1.3022
X3.3831Y1.251
X3.3831Y1.1998
X3.3831Y1.1486
X3.3831Y1.0974
X3.3831Y1.0463
X3.4343Y1.3534
X3.4343Y1.3022
X3.4343Y1.251
X3.4343Y1.1998
X3.4343Y1.1486
X3.4343Y1.0974
X3.4343Y1.0463
T2
X0.8114Y0.8791
X0.8114Y0.82
X0.8114Y0.7609
X0.8607Y0.9086
X0.8607Y0.8495
X0.8607Y0.7905
X0.8607Y0.7314
X0.9099Y0.8791
X0.9099Y0.82
X0.9099Y0.7609
X0.8194Y1.4371
X0.8194Y1.378
X0.8194Y1.3189
X0.8687Y1.4666
X0.8687Y1.4075
X0.8687Y1.3485
X0.8687Y1.2894
X0.9179Y1.4371
X0.9179Y1.378
X0.9179Y1.3189
X0.7994Y0.3111
X0.7994Y0.252
X0.7994Y0.1929
X0.8487Y0.3406
X0.8487Y0.2815
X0.8487Y0.2225
X0.8487Y0.1634
X0.8979Y0.3111
X0.8979Y0.252
X0.8979Y0.1929
X0.7271Y0.5411
X0.7271Y0.482
X0.7271Y0.4229
X0.7763Y0.5706
X0.7763Y0.5115
X0.7763Y0.4525
X0.7763Y0.3934
X0.8256Y0.5411
X0.8256Y0.482
X0.8256Y0.4229
X0.7401Y1.1031
X0.7401Y1.044
X0.7401Y0.9849
X0.7893Y1.1326
X0.7893Y1.0735
X0.7893Y1.0145
X0.7893Y0.9554
X0.8386Y1.1031
X0.8386Y1.044
X0.8386Y0.9849
X0.7471Y1.6671
X0.7471Y1.608
X0.7471Y1.5489
X0.7963Y1.6966
X0.7963Y1.6375
X0.7963Y1.5785
X0.7963Y1.5194
X0.8456Y1.6671
X0.8456Y1.608
X0.8456Y1.5489
T3
X0.1055Y0.3024
X0.156Y1.009
X0.156Y0.957
X0.157Y1.0575
X0.1585Y1.1555
X0.159Y1.107
X0.1605Y0.595
X0.163Y0.4545
X0.1645Y0.5055
X0.1655Y0.5505
X0.168Y0.407
X0.3015Y1.2155
X0.3105Y1.3325
X0.316Y1.276
X0.3225Y0.737
X0.324Y0.786
X0.324Y0.6855
X0.3255Y0.836
X0.3267Y0.1812
X0.327Y0.28
X0.327Y0.231
X0.327Y0.1365
X0.3365Y1.2455
X0.3465Y1.199
X0.3495Y1.2935
X0.3515Y1.3485
X0.361Y0.7565
X0.3615Y0.7125
X0.364Y0.255
X0.3645Y0.811
X0.3645Y0.116
X0.367Y0.8595
X0.3685Y0.1595
X0.3695Y0.204
X0.3745Y1.25
X0.3875Y1.303
X0.4598Y0.0972
X0.4866Y0.674
X0.4902Y1.5953
X0.5035Y0.6106
X0.5051Y1.1713
X0.5055Y0.0972
X0.5205Y0.4705
X0.5225Y1.0325
X0.5287Y1.237
X0.5418Y0.2042
X0.544Y0.7688
X0.5502Y1.3282
X0.62Y1.03
X0.6205Y0.4705
X0.628Y1.5985
X0.6598Y0.2398
X0.6697Y0.8169
X0.6737Y1.3225
X0.8657Y0.6398
X0.8795Y1.18
X0.9071Y0.0783
X0.9355Y1.17
X0.9917Y0.6008
X1.075Y1.647
X1.08Y1.87
X1.1358Y1.5413
X1.14Y1.87
X1.1406Y0.1858
X1.1831Y1.4736
X1.185Y0.4228
X1.2303Y1.387
X1.2402Y1.2398
X1.2508Y0.4224
X1.27Y1.87
X1.2905Y0.731
X1.2905Y0.6855
X1.3071Y1.5555
X1.3161Y0.4232
X1.3217Y1.2228
X1.3319Y0.6642
X1.3365Y0.108
X1.3398Y0.289
X1.34Y0.22
X1.3406Y0.5654
X1.35Y0.3488
X1.3811Y0.9988
X1.3831Y0.5445
X1.3898Y1.1713
X1.39Y1.87
X1.3909Y1.1217
X1.4031Y0.8957
X1.4063Y1.2602
X1.4098Y0.5098
X1.4224Y1.5543
X1.4232Y1.2087
X1.4327Y0.4122
X1.46Y1.87
X1.465Y0.8071
X1.4654Y1.2909
X1.4673Y1.1732
X1.4701Y1.3974
X1.4736Y0.8953
X1.4957Y1.3283
X1.4988Y0.8535
X1.5028Y0.3902
X1.5106Y0.8059
X1.5193Y0.8972
X1.5217Y1.0965
X1.5437Y1.3791
X1.5579Y0.9205
X1.558Y1.4454
X1.565Y1.6272
X1.5681Y1.2933
X1.5705Y1.3398
X1.5728Y1.1386
X1.6295Y1.8736
X1.6319Y1.6406
X1.6335Y0.9862
X1.6557Y0.55
X1.6689Y1.5079
X1.6854Y1.4421
X1.6886Y1.3531
X1.69Y2.01
X1.6992Y0.9197
X1.715Y1.575
X1.715Y0.55
X1.7197Y1.1886
X1.755Y0.38
X1.76Y0.425
X1.7626Y1.8559
X1.775Y0.7693
X1.7839Y0.287
X1.8Y0.38
X1.8075Y0.5079
X1.809Y0.4245
X1.8098Y0.8047
X1.815Y1.3205
X1.828Y0.4654
X1.8295Y1.1091
X1.8299Y1.4579
X1.8335Y0.8728
X1.8484Y0.1567
X1.8508Y0.8248
X1.8547Y1.0642
X1.8563Y1.5008
X1.8571Y1.3406
X1.8715Y0.3265
X1.8755Y0.3825
X1.8882Y0.135
X1.8993Y0.0895
X1.928Y1.6783
X1.9366Y0.6193
X1.9405Y0.5565
X1.9487Y1.8045
X1.9528Y1.1591
X1.955Y1.205
X1.9712Y1.8355
X2.0542Y1.538
X2.0642Y1.582
X2.0927Y1.6445
X2.1087Y1.596
X2.1207Y1.801
X2.1517Y1.568
X2.1533Y1.0063
X2.1697Y1.7975
X2.2147Y1.7955
X2.24Y2.09
X2.2429Y1.1142
X2.2452Y1.08
X2.2657Y1.159
X2.2858Y0.6626
X2.2877Y1.085
X2.3107Y1.578
X2.3335Y0.1083
X2.3359Y1.1606
X2.35Y2.24
X2.3547Y1.778
X2.3567Y1.5665
X2.3652Y1.655
X2.3667Y1.61
X2.3787Y0.6795
X2.3987Y1.7795
X2.3992Y1.5512
X2.4122Y1.6561
X2.426Y0.4886
X2.4432Y1.2105
X2.4452Y1.518
X2.4502Y1.771
X2.4902Y0.3575
X2.5439Y1.0378
X2.5663Y1.0872
X2.5855Y1.8805
X2.592Y0.9375
X2.619Y2.0985
X2.63Y1.73
X2.63Y1.67
X2.6305Y1.881
X2.6307Y1.0559
X2.6365Y0.938
X2.646Y0.5915
X2.6472Y0.3815
X2.649Y0.2585
X2.655Y0.203
X2.663Y1.3232
X2.663Y1.1492
X2.6695Y2.0992
X2.673Y1.8825
X2.677Y0.9375
X2.6775Y1.5405
X2.6905Y0.589
X2.6905Y0.258
X2.695Y0.381
X2.6985Y1.1775
X2.699Y1.3005
X2.714Y1.8845
X2.715Y2.095
X2.718Y0.9375
X2.7225Y1.54
X2.7325Y0.587
X2.735Y0.2565
X2.739Y1.2975
X2.7405Y1.179
X2.741Y0.3835
X2.76Y2.096
X2.762Y1.883
X2.765Y1.5395
X2.7755Y0.589
X2.7795Y0.3091
X2.7839Y0.2126
X2.806Y1.8875
X2.8065Y1.54
X2.8185Y0.588
X2.82Y1.295
X2.8265Y2.097
X2.828Y1.183
X2.8295Y0.379
X2.8295Y0.266
X2.8465Y1.887
X2.8485Y1.5395
X2.853Y0.94
X2.8585Y1.295
X2.8655Y0.5895
X2.8685Y2.0985
X2.869Y1.1855
X2.8695Y0.266
X2.8725Y0.379
X2.889Y1.8875
X2.8895Y1.6735
X2.8903Y1.728
X2.8945Y1.5415
X2.8945Y0.942
X2.8965Y1.295
X2.9085Y2.0985
X2.9095Y1.1855
X2.9115Y0.2675
X2.913Y0.5895
X2.9134Y0.1059
X2.917Y0.3815
X2.9375Y1.2965
X2.95Y2.097
X2.9515Y1.1885
X2.954Y0.269
X2.96Y0.382
X2.989Y1.887
X3.0476Y1.2799
X3.0865Y2.0535
X3.0906Y0.5441
X3.1028Y1.6386
X3.1043Y2.1051
X3.1065Y0.8825
X3.108Y0.806
X3.1272Y1.4358
X3.139Y0.846
X3.14Y1.0285
X3.143Y2.0635
X3.1457Y0.2707
X3.1476Y1.552
X3.1496Y1.3571
X3.1512Y1.6382
X3.1553Y0.6643
X3.158Y1.3093
X3.1598Y0.5461
X3.1691Y0.3106
X3.1697Y0.5835
X3.17Y2.1
X3.1705Y1.813
X3.1713Y1.7728
X3.1715Y1.0639
X3.1718Y0.9952
X3.1724Y1.726
X3.176Y0.2329
X3.1895Y2.0635
X3.1895Y2.0115
X3.1931Y1.2607
X3.1935Y1.8545
X3.1955Y0.3463
X3.197Y1.102
X3.1985Y0.5455
X3.1987Y0.5002
X3.2036Y1.3048
X3.2171Y0.9943
X3.2213Y0.2338
X3.2339Y1.7445
X3.25Y2.1595
X3.3675Y0.839
X3.4225Y0.8385
X3.48Y0.09
X3.5635Y1.405
X3.5655Y0.624
X3.5845Y0.0705
X3.5938Y2.0402
X3.5975Y1.2118
X3.6011Y0.457
X3.6017Y1.2886
X3.6032Y1.9646
X3.6032Y0.5251
X3.6245Y2.243
X3.6265Y1.628
X3.6385Y1.584
X3.6441Y2.2014
X3.6445Y0.8475
X3.6495Y1.9365
X3.65Y0.4245
X3.651Y1.1935
X3.6825Y0.426
X3.683Y1.938
X3.6855Y1.197
X3.6975Y1.5695
X3.723Y2.244
X3.7639Y1.1047
X3.7649Y0.3361
X3.767Y1.8566
X3.7805Y1.5105
X3.7965Y2.242
X3.8024Y0.0646
X3.8335Y0.807
X3.87Y2.24
X3.8965Y0.839
X3.918Y2.2035
X3.9335Y1.4805
X3.9475Y2.162
X3.9495Y1.6835
X3.9505Y1.432
X3.9535Y0.7495
X3.956Y0.9045
X3.9665Y0.2785
X3.9894Y0.1724
T4
X1.0855Y0.152
X1.1855Y0.152
X1.2855Y0.152
X1.3855Y0.152
X1.4855Y0.152
X1.5855Y0.152
X1.6855Y0.152
X1.7855Y0.152
X0.7193Y1.8807
X0.7193Y1.7807
X0.7375Y2.163
X0.8375Y2.163
X0.9375Y2.163
X1.0375Y2.163
X1.1375Y2.163
X1.2375Y2.163
X1.3375Y2.163
X1.4375Y2.163
X1.5375Y2.163
X1.7855Y2.052
X1.8855Y2.052
X1.9855Y2.052
X2.0855Y2.052
X2.1855Y2.052
X2.2855Y2.052
X2.3855Y2.052
X2.4855Y2.052
X1.9855Y0.152
X2.0855Y0.152
X2.1855Y0.152
X2.2855Y0.152
X2.3855Y0.152
X2.4855Y0.152
X0.9255Y2.052
X1.0255Y2.052
X1.1255Y2.052
X1.2255Y2.052
X1.3255Y2.052
X1.4255Y2.052
X1.5255Y2.052
X1.6255Y2.052
T5
X2.07Y0.68
X2.07Y0.58
X2.07Y0.48
X2.17Y0.68
X2.17Y0.58
X2.17Y0.48
X2.5004Y0.9366
X2.5004Y0.8366
X2.5004Y0.7366
X2.5004Y0.6366
X2.5004Y0.5366
X2.2331Y0.9453
X2.2331Y0.8453
X2.3331Y0.9453
X2.3331Y0.8453
X1.937Y2.1634
X2.037Y2.1634
X2.137Y2.1634
T6
X2.185Y0.2602
X2.285Y0.2602
X2.385Y0.2602
T7
X1.1125Y1.0041
X1.1125Y0.8663
X1.1125Y0.7285
X3.8896Y1.3497
X3.8896Y1.2497
X3.8896Y1.1497
X3.8896Y1.0497
X3.8907Y2.0669
X3.8907Y1.9669
X3.8907Y1.8669
X3.8907Y1.7669
X3.887Y0.5939
X3.887Y0.4939
X3.887Y0.3939
X3.887Y0.2939
T8
X0.1455Y2.147
X0.3424Y2.147
X0.5392Y2.147
T0
M30
